<svg xmlns="http://www.w3.org/2000/svg" viewBox="0 0 100 100"><path fill="#F5841C" d="M0 0h100v100H0z"/><path fill="#6892CC" d="M80.832 12.5c-12.43 10.719-25.5 20.234-44.414 18.66 3.238 1.871 7.086 3.008 12.125 2.77 6.332-.301 12.539-3.239 18.715-6.711-3.438 3.164-13.59 11.547-28.664 11.36-4.258-.052-8.328-.9-12.102-2.032 4.145 3.937 9.153 7.133 9.512 13.867.238 4.57-2.813 8.324-5.563 12.465C25.34 70.55 21.457 77.977 19.168 87.5c7.71-15.79 20.129-31.395 40.262-48.625C79.438 21.762 79.03 14.918 80.832 12.5"/></svg>