<svg xmlns="http://www.w3.org/2000/svg" viewBox="0 0 100 100"><defs><linearGradient id="a" x1="282.301" x2="282.301" y1="26.077" y2="55.667" gradientTransform="matrix(1.52433 0 0 1.5244 -364.949 14.946)" gradientUnits="userSpaceOnUse"><stop offset="0" stop-color="#ED1C24"/><stop offset=".126" stop-color="#E81B23"/><stop offset=".27" stop-color="#DB1A21"/><stop offset=".423" stop-color="#C4171D"/><stop offset=".582" stop-color="#A41317"/><stop offset=".744" stop-color="#7B0E10"/><stop offset=".755" stop-color="#780E0F"/></linearGradient><linearGradient id="b" x1="268.827" x2="279.626" y1="28.54" y2="28.54" gradientTransform="matrix(1.52433 0 0 1.5244 -364.949 14.946)" gradientUnits="userSpaceOnUse"><stop offset="0" stop-color="#69231D"/><stop offset=".265" stop-color="#8D2922"/><stop offset=".581" stop-color="#B22F26"/><stop offset=".838" stop-color="#C93329"/><stop offset="1" stop-color="#D1342A"/></linearGradient><linearGradient id="c" x1="267.641" x2="279.674" y1="26.961" y2="19.731" gradientTransform="matrix(1.52433 0 0 1.5244 -364.949 14.946)" gradientUnits="userSpaceOnUse"><stop offset=".1" stop-color="#E7EBEE"/><stop offset=".351" stop-color="#D5DCE0"/><stop offset=".855" stop-color="#A5B4BB"/><stop offset="1" stop-color="#96A7B0"/></linearGradient><linearGradient id="d" x1="261.008" x2="261.008" y1="20.873" y2=".43" gradientTransform="matrix(1.52433 0 0 1.5244 -364.949 14.946)" gradientUnits="userSpaceOnUse"><stop offset="0" stop-color="#1C2F72"/><stop offset=".128" stop-color="#174687"/><stop offset=".404" stop-color="#0D72AF"/><stop offset=".651" stop-color="#0692CC"/><stop offset=".858" stop-color="#02A6DE"/><stop offset="1" stop-color="#00ADE4"/></linearGradient></defs><path fill="#ECECEC" d="M0 0h100v100H0z"/><path fill="url(#a)" d="M52.95 78.332c3.976 6.535 10.331 6.402 12.023 6.402h20.445l-24.117-29.27c-11.125.462-17.012 7.59-15.805 10.579Zm0 0"/><path fill="url(#b)" d="M45.496 66.059a8.8 8.8 0 0 1-.656-3.309c0-6.676 5.926-10.516 12.648-11.895l3.813 4.625c-11.125.446-17.012 7.575-15.805 10.579"/><path fill="url(#c)" d="M54.793 44.32c-10.172 0-17.762 1.676-17.762 5.653 0 1.465.461 2.734 1.711 4.972l6.754 11.098a8.8 8.8 0 0 1-.656-3.305c0-6.68 5.926-10.52 12.648-11.898 1.95-.395 3.93-.59 5.918-.59 1.64 0 3.203.09 4.39.52-.702-2.563-2.562-6.446-13.003-6.446"/><path fill="url(#d)" d="M28.055 37.398c2.789 4.59 3.824 5.73 10.488 5.73h12.715L33.723 20.997c-3.868-4.785-6.09-5.656-9.645-5.73h-9.496Zm0 0"/></svg>