<svg xmlns="http://www.w3.org/2000/svg" viewBox="0 0 100 100"><path fill="#ADA799" d="M0 0h100v100H0z"/><path fill="#E60013" d="M16.684 43.168c0 .934.144 1.879.496 2.77 1.633 4.042 5.77 6.515 11 4.41l36.062-14.516S50.527 70.555 50.027 71.855c-2.004 4.973.387 9.48 4.489 11a7.9 7.9 0 0 0 2.765.473c3.317-.027 6.258-1.973 7.688-5.894.226-.59 17.351-47.641 17.742-48.778.219-.66.621-2.242.621-3.324 0-2.32-.863-4.527-2.531-6.176a8.45 8.45 0 0 0-6.098-2.484c-1.117 0-2.031.2-3.41.648-.824.258-45.008 16.7-48.773 18.118-3.786 1.41-5.864 4.421-5.852 7.726"/></svg>