<svg xmlns="http://www.w3.org/2000/svg" viewBox="0 0 100 100"><path d="M0 0h100v100H0z"/><path fill="#3E96D9" d="M47.688 29.602c5.355-.454 10.726.406 15.89 1.757a82.5 82.5 0 0 1 18.559 7.555c2.601 1.477 5.16 3.063 7.441 5.004-1.867 1.098-4.137 1.113-6.234.86-3.223-.407-6.332-1.4-9.41-2.395-5.25-1.742-10.43-3.696-15.75-5.223-4.903-1.406-9.942-2.496-15.059-2.59a30.8 30.8 0 0 0-8.086.88 14.9 14.9 0 0 1 4.258-3.473c2.57-1.418 5.48-2.114 8.39-2.375m-19.996 12.05c4.215-2.12 9.024-2.722 13.684-2.617 6.086.156 12.09 1.445 17.883 3.238a97.6 97.6 0 0 1 18.863 8.192c2.852 1.64 5.633 3.43 8.168 5.539-1.887 1.121-4.16 1.285-6.305 1.125-2.789-.219-5.515-.918-8.203-1.691-4.476-1.333-8.863-2.938-13.281-4.442-5.629-1.926-11.305-3.746-17.145-4.89-6.324-1.231-12.949-1.665-19.242-.051a17.4 17.4 0 0 1 5.578-4.403m-7.18 10.301c3.677-1.086 7.54-1.39 11.356-1.277 6.11.203 12.137 1.437 17.992 3.168a107 107 0 0 1 21.168 8.96c3.352 1.891 6.625 3.958 9.59 6.423-1.957 1.175-4.316 1.386-6.547 1.253-2.906-.175-5.754-.867-8.554-1.648-3.926-1.121-7.778-2.484-11.637-3.82-5.598-1.946-11.207-3.875-16.95-5.36-5.495-1.414-11.14-2.437-16.831-2.457a39 39 0 0 0-9.68 1.149c2.574-3.137 6.219-5.262 10.094-6.387"/></svg>