<svg xmlns="http://www.w3.org/2000/svg" viewBox="0 0 100 100"><path fill="#16F" d="M0 0h100v100H0z"/><path fill="#FF9800" d="m90.219 69.273-18.285-2.82 16.726-8.465a.545.545 0 0 0 .254-.648.546.546 0 0 0-.586-.38l-18.574 2.892 13.34-13.204a.56.56 0 0 0 .058-.714.55.55 0 0 0-.695-.164l-16.652 8.539 8.39-16.582a.545.545 0 0 0-.18-.68.55.55 0 0 0-.703.047l-13.17 13.324 3.097-18.547a.554.554 0 0 0-.37-.61.56.56 0 0 0-.665.27l-8.617 16.836-2.84-18.308a.55.55 0 0 0-1.086 0l-2.87 18.296-8.54-16.894a.549.549 0 0 0-1.031.332l3.078 18.785-13.34-13.652a.555.555 0 0 0-.703-.051.55.55 0 0 0-.18.684l8.684 16.949-17.008-8.793a.54.54 0 0 0-.7.164.56.56 0 0 0 .06.715L30.772 59.93 11.87 56.86a.549.549 0 0 0-.332 1.03l16.984 8.528L9.79 69.273a.54.54 0 0 0-.46.586.54.54 0 0 0 .542.508h80.262a.547.547 0 0 0 .086-1.09"/><path fill="#FBCE20" d="M67.781 70.406c.012-.219-.094-.355-.242-.375l-7.82-1.21 7.156-3.618a.29.29 0 0 0 .145-.34.295.295 0 0 0-.32-.203l-7.95 1.242 5.715-5.656a.285.285 0 0 0 .023-.371.277.277 0 0 0-.36-.09l-7.132 3.66 3.594-7.097a.28.28 0 0 0-.094-.36.28.28 0 0 0-.367.028l-5.64 5.703 1.327-7.938a.29.29 0 0 0-.191-.316.29.29 0 0 0-.348.137l-3.687 7.21-1.219-7.835a.285.285 0 0 0-.562 0l-1.23 7.832-3.653-7.235a.3.3 0 0 0-.348-.148.3.3 0 0 0-.2.324l1.325 8.035-5.71-5.847a.29.29 0 0 0-.372-.028.274.274 0 0 0-.094.36l3.72 7.261-7.278-3.77a.29.29 0 0 0-.34.46l5.851 5.713-8.09-1.313a.29.29 0 0 0-.324.192c-.039.136.02.28.149.347l7.265 3.645-8.011 1.226c-.149.02-.262.156-.246.371Zm0 0"/></svg>