<svg xmlns="http://www.w3.org/2000/svg" viewBox="0 0 100 100"><path fill="#1E409A" d="M0 0h100v100H0z"/><path fill="#FFF" d="M100 2.691c0 6.489-1.605 12.235-5.93 17.051-4.086 4.567-9.191 7.68-14.687 10.2-4.703 2.156-9.5 4.12-13.91 6.843-10.27 6.336-15.168 15.637-14.977 27.66q.013.492.043.989c0 .007-.035.05-.102.195-1.261-4.95-1.113-9.758.098-14.703-.46.246-.789.426-1.125.594-2.61 1.328-5.457 1.718-8.3 2.125-2.294.335-4.626.601-6.848 1.218a10.84 10.84 0 0 0-6.617 4.985 9 9 0 0 0-.391.828c-.063.14-.074.289-.117.465.117 0 .21.02.293-.004 3.465-.93 6.722-.274 9.875 1.277 2.875 1.41 5.293 3.41 7.582 5.727-.145.02-.219.046-.278.027-4.402-1.27-8.523-.43-12.414 1.762-4.652 2.617-8.175 6.437-11.043 10.87-1.382 2.13-2.543 4.4-3.894 6.555-2.43 3.875-5.403 7.227-9.496 9.446C5.887 97.816 2.715 100 0 100c2.95-1.719 5.984-3.781 9.79-7.195 2.905-3.02 4.925-6.637 6.956-10.25 1.43-2.543 2.867-5.075 4.777-7.305 3.614-4.21 8.106-6.984 13.524-8.21 1.426-.33 2.887-.47 4.332-.692.016.011.031-.055.016-.075-2.82-1.457-5.723-2.656-8.934-2.921-3.148-.27-6 .586-8.55 2.394-.981.688-1.868 1.508-2.802 2.262-.148.117-.312.187-.476.285-.082-.184-.238-.375-.238-.559.015-1.597.597-2.886 2.02-3.742.73-.441 1.425-.933 2.148-1.402.804-.52 1.378-1.215 1.875-2.05.863-1.45 1.777-2.876 2.851-4.169 1.852-2.242 4.336-3.543 7.16-4.117 2.04-.418 4.106-.688 6.168-.977 3.113-.43 6.106-1.168 8.75-2.976 1.598-1.094 2.957-2.414 3.95-4.07C57.487 37.27 63.436 32.48 71 29.604c3.855-1.449 7.672-3 11.445-4.644A29.9 29.9 0 0 0 92.5 17.898c3.398-3.671 4.266-5.582 7.5-16.632"/></svg>