<svg xmlns="http://www.w3.org/2000/svg" viewBox="0 0 100 100"><path fill="#CE1F2E" d="M0 0h100v100H0z"/><path d="M47.762 54.16c-15.88 3.387-26.496 5.39-29.832 10.719 1.015-4.25 2.847-8.156 4.53-10.164 5.352-6.375 10.61-8.176 23.313-12.535 2.438-.84 5.204-1.793 8.247-2.867 12.39-4.399 17.199-10.442 19.05-14.72 0 0-2.53 24.708-25.308 29.567M50 13.574C30.004 13.574 13.797 29.88 13.797 50a36.44 36.44 0 0 0 4.914 18.34c4.805-6.617 19.566-9.2 27.363-10.856l2.43-.515a33.7 33.7 0 0 0 12.672-5.532c-2.696 4.754-10.031 14.965-24.543 18.07-6.117 1.31-11.453 1.864-15.543 2.419.683.914 1.41 1.789 2.172 2.633l.937-.121c3.645-.47 8.172-1.051 13.184-2.122a39.8 39.8 0 0 0 12.25-4.816c-4.059 6-13.266 10.871-20.817 12.043A35.9 35.9 0 0 0 50 86.426c19.996 0 36.203-16.305 36.203-36.426 0-20.117-16.207-36.426-36.203-36.426"/></svg>