<svg xmlns="http://www.w3.org/2000/svg" viewBox="0 0 100 100"><path fill="#D1D2D4" d="M0 0h100v100H0z"/><path fill="#ED2225" d="M77.414 31.688a573 573 0 0 0-6.68 5.011l-.39.39-.461.313a55 55 0 0 1-2.41 1.825l-2.215 1.828a391 391 0 0 0-3.492 2.953 81 81 0 0 0-3.188 2.719 5.5 5.5 0 0 1-.621.539l-.734.66a236 236 0 0 1-3.114 2.84L50.7 54.03l3.102 4.7q1.591-1.824 3.031-3.497a81 81 0 0 1 2.719-3.187c.105-.102.207-.234.308-.387l.313-.312 2.953-3.262a682 682 0 0 0 3.184-3.578q1.006-1.201 2.289-2.567c.804-.851 1.66-1.734 2.562-2.64a3 3 0 0 1 .313-.387l.312-.312A254 254 0 0 1 78 32.156q2.755-2.795 2.75-2.879-.305.157-3.336 2.41M40.676 80.044a33 33 0 0 0 1.75-2.441c.43-.723.804-1.477 1.125-2.25q.543-1.006.86-2.22.345-1.194.573-2.718v-.07q.238-1.206.313-2.293l.156-2.176v-1.008a24 24 0 0 0-.312-2.64 28 28 0 0 0-.657-2.754q-.31.31-2.441 2.285a229 229 0 0 0-4.703 4.312l-.078.075-.078.078a54 54 0 0 0-1.746 1.672 58 58 0 0 0-1.668 1.515 35 35 0 0 0-1.91 1.824q-.732.697-1.434 1.317l-.074.117a74 74 0 0 0-2.645 2.523c-1.004 1.012-2.625 2.63-4.852 4.852H8.332q1.236-1.822 5.32-5.547a159 159 0 0 1 8.891-7.8l1.36-1.13q.625-.545 1.363-1.086a225 225 0 0 1 11.914-9.32q4.786-3.494 5.324-3.496l.027.008.051.07-.05-.07q-.705-1.066-1.391-2.145a31.3 31.3 0 0 0-3.57-4.547 62 62 0 0 0-1.087-1.277l-1.28-1.207q-3.265-2.989-8.04-5.633a62.6 62.6 0 0 0-12.25-4.879c-1.633-1.101-3.3-1.882-5.11-3.05a64 64 0 0 1 4.153 1.011q1.055.235 2.121.54 1.062.314 2.117.742a72 72 0 0 1 6.524 2.359 66 66 0 0 1 5.863 2.871q8.267 4.342 12.426 7.91c2.742 2.453 4.14 3.735 4.195 3.836.488-.488 2.613-2.027 6.367-4.61q5.552-3.876 12.227-8.491.192-.096.355-.227a.7.7 0 0 1 .235-.156 816 816 0 0 1 10.484-7.094l7.223-4.77.66-.464c.36-.309.867-.645 1.512-1.008a18 18 0 0 1 2.445-.969q1.364-.462 2.957-.46 0 .622-6.606 10.093a1883 1883 0 0 0-14.87 21.543 56 56 0 0 1-1.282 1.98c-.469.7-.926 1.387-1.363 2.063a648 648 0 0 0-8.426 13.035 199 199 0 0 0-6.676 11.375Zm0 0"/></svg>