<svg xmlns="http://www.w3.org/2000/svg" viewBox="0 0 100 100"><path fill="#465362" d="M0 0h100v100H0z"/><path fill="#FF0037" d="M82.3 91.664c-2.081-1.336-4.054-2.426-5.827-3.773-4.243-3.25-7.348-7.559-10.563-11.743-3.219-4.195-6.472-8.351-10.637-11.691-5.511-4.422-11.843-6.664-18.859-7.05-3.285-.184-6.605.023-9.77-1.18-1.89-.723-3.554-1.715-4.664-3.688 1.493-.227 2.915-.305 4.262-.668 2.024-.539 4.098-1.047 5.957-1.969 3.457-1.699 4.676-4.652 3.848-8.445-.762-3.492-2.602-6.465-4.649-9.305-2.941-4.097-6.25-7.937-8.933-12.203-4.45-7.062-4.777-11.183-4.777-11.617 1.734.992 3.328 1.86 4.878 2.797 6.41 3.855 12.551 8.082 17.97 13.289.198.191.382.406.597.578 3.86 3.184 4.234 7.242 3.097 11.77-.417 1.644-.62 3.375-.66 5.062-.086 3.078 1.336 4.438 4.422 4.45 2.692.011 5.309.327 7.715 1.648a8.35 8.35 0 0 1 3.355 3.203c-1.035.117-1.93.144-2.785.332-.96.21-1.957.422-2.812.875-1.403.746-1.43 1.934-.047 2.738 1.187.688 2.5 1.203 3.812 1.649 2.325.793 4.665 1.562 7.047 2.187 3.707.973 6.196 3.324 8.114 6.52 4.57 7.64 9.992 25.652 9.921 26.238Zm0 0"/></svg>