<svg xmlns="http://www.w3.org/2000/svg" viewBox="0 0 100 100"><path fill="#1D498A" d="M0 0h100v100H0z"/><path fill="#F04923" d="M37.957 52.309s-3.98-16.57 5.11-19.223c9.085-2.648 10.394 1.422 10.394 1.422l.316 2.21 2.407-1.12.562 3.297s6.945-1.211 6.125 1.828c-.828 3.039-12.707 5.945-14.367 12.789 0 0 17.95-12.086 26.3-9.633 8.356 2.465 5 6.082 5 6.082l1.86 1.473-2.191 2.027 3.816 6.73s-.137 6.875-10.363 10.352l-13.75-6.926s12.926 9.969 8.906 17.344c-4.012 7.383-8.531 4.234-8.531 4.234l-2.172-3.687-1.77 3.066-1.558-.969s-11.168 3.497-12.239 2.985c-1.074-.512-2.398-10.469 1.208-15.48 3.605-5.008-.235.628-.235.628s-8.808 4.672-12.418 12.153c-3.617 7.472-10.183-1.282-10.183-1.282l.507-2.78-1.71.007-4.954-1.707S9.61 65.445 15.801 59.285c6.187-6.172 4.742-3.375 4.742-3.375l-1.508-3.258 2.957.461s3.063-9.062 5.086-9.336c2.024-.273 8.813 15.278 14.586 16.43 5.781 1.152-3.098-4.418-3.707-7.898"/><path fill="#FDB913" d="M75.344 31.465c-.531-.93-2.168-.54-3.656.863a6 6 0 0 0-.868.977c.114-.438.098-.825-.058-1.102-.43-.742-1.739-.433-2.93.688-1.187 1.125-1.809 2.64-1.379 3.379.426.742 1.738.433 2.926-.688.219-.203.402-.422.578-.64a3.2 3.2 0 0 0-.156.917C60.62 49.406 52.77 56.758 49.355 59.641a359 359 0 0 1-4.832-9.258c.903 4.176 1.094 12.683 1.094 12.683l-5.469-.53s.582 2.542-.878 1.984c-1.465-.563-5.774-3.805-6.422-2.766-.653 1.043 5.203 3.266 2 2.887-3.211-.38-9.086 3.164-9.086 3.164 9.46-1.493 11.46-1.504 11.46-1.504l5.54-.14c.226 1.956 3.215 2.386 4.37 2.566 1.157.183.759-3.508 2.2-2.063 1.45 1.457 3.586 7.871 3.586 7.871.293-1.625-.977-9.137-.977-9.137s1.329 1.926 2.207 2.84c.88.91 2.477.106 2.575-2.37.105-2.473-5.102-2.845-2.688-4.954 2.406-2.11 8.117 1.91 8.985.82.859-1.09-1.75-4.257-1.75-4.257.796-.407 10.457-3.95 10.457-3.95-4.434-.086-13.63 3.25-18.653 5.22 3.453-5.493 11.078-14.075 16.446-19.88a1.32 1.32 0 0 0 .105.89c.426.743 1.738.43 2.926-.69 1.195-1.122 1.812-2.641 1.39-3.38a.6.6 0 0 0-.156-.167c1.375-1.391 2.074-3.168 1.563-4.055m5.273-13.156c1.192-1.125 1.809-2.641 1.383-3.383-.43-.746-1.738-.434-2.926.695-1.195 1.125-1.812 2.637-1.387 3.375.422.746 1.735.438 2.93-.687m-8.246 7.855c.95-.898 1.441-2.105 1.102-2.703-.344-.594-1.391-.344-2.344.555-.953.898-1.445 2.113-1.102 2.703.336.593 1.387.347 2.344-.555m15.02-12.746c-.344-.594-1.391-.344-2.344.55-.953.907-1.453 2.118-1.11 2.712.344.593 1.391.343 2.344-.555s1.45-2.11 1.11-2.707m-7.688 16.648c-1.191 1.125-1.812 2.637-1.387 3.375.43.743 1.739.438 2.93-.687s1.809-2.64 1.383-3.379c-.426-.746-1.738-.437-2.926.688m1.262-7.946c-.531-.933-2.172-.543-3.656.863-1.489 1.407-2.262 3.293-1.731 4.227.531.926 2.172.543 3.66-.863 1.496-1.407 2.262-3.301 1.727-4.227m-36.45 28.266c-.203-.961-.453-1.692-.738-2.043-.496-.602-.066.398.739 2.043"/></svg>