<svg xmlns="http://www.w3.org/2000/svg" viewBox="0 0 100 100"><path fill="#0970CB" d="M0 0h100v100H0z"/><path fill="#FFF" d="M42.531 62.84c-1.105-7.137.848-14.488 2.563-19.63 3.52-8.655 1.824-17.25-7.91-12.987-2.77 1.273-7.004 5.668-8.957 9.343-6.02 11.329-3.997 28.454 3.375 28.563 3-.117 7.023-3.012 10.93-5.29M21.636 75.98c-2.684-.855-6.188-4.613-7.543-8.082-2.16-6.285-2.156-14.949.207-21.957 3.324-9.562 10.562-17.98 17.586-20.687 6.453-2.469 16.43-2.613 22.96 4.46 5.079-4.827 12.614-6.405 16.801-6.343 10.415-.46 15.852 3.73 15.852 11.574 0 2.813-2.125 6.88-4.664 8.938C79.844 46.309 61.242 58 60.352 58l-.051-5.52 5.488-3.875c7.078-4.992 9.477-7.59 10.262-11.093 2.004-8.95-7.281-11.453-14.153-3.813-6.902 7.684-9.48 23.707-5.043 31.324 3.418 5.856 10.188 4.043 20.903-2.316l4.125-2.645 2.91 4.063a106 106 0 0 1-12.766 9.406c-3.87 2.145-7.562 3.098-11.976 3.098-8.219-.129-13.414-2.274-15.836-7.953-.188-.016-2.11 1.554-4.531 3.183-5.532 3.707-12.329 6.036-18.047 4.118"/></svg>