<svg xmlns="http://www.w3.org/2000/svg" viewBox="0 0 100 100"><path fill="#002677" d="M0 0h100v100H0z"/><path fill="#FFF" d="m25.055 12.5.36 1.063c10.437 4.242 17.866 10.964 21.937 20.343a38.4 38.4 0 0 0 13.617 15.918l.176.176h13.8c-7.254-3.715-13.265-9.55-16.984-16.98C51.945 20.988 40.27 14.094 25.055 12.5m0 12.203c2.48 9.195 5.84 16.985 8.843 20.695A16.6 16.6 0 0 0 39.742 50h10.793a22.8 22.8 0 0 1-11.5-11.5c-2.656-6.187-7.785-11.14-13.98-13.793Zm0 0"/><path fill="#93A5CF" d="M39.742 50a16.6 16.6 0 0 0-5.84 4.602c-3.007 3.71-6.367 11.5-8.843 20.695 6.187-2.652 11.32-7.606 13.972-13.8A22.8 22.8 0 0 1 50.531 50Zm21.406 0-.18.176a38.4 38.4 0 0 0-13.62 15.922c-4.067 9.375-11.5 16.097-21.934 20.343l-.36 1.059c15.216-1.594 26.891-8.492 32.907-20.52C61.68 59.55 67.69 53.715 74.945 50Zm0 0"/></svg>