<svg xmlns="http://www.w3.org/2000/svg" viewBox="0 0 100 100"><path fill="#4EA047" d="M0 0h100v100H0z"/><path fill="#D82E32" d="m57.7 18.797 22.597 62.402h-13.8L43.901 18.797Zm0 0"/><path fill="#328040" d="M57.7 18.797 24.218 81.199h-13.8l33.48-62.402Zm0 0"/><path fill="#FFF" d="m40.168 51.652-.133.067a204 204 0 0 0-19.605 10.82L10.418 81.2h13.8l.884-1.648a43.1 43.1 0 0 1 7.894-10.496l.07-.067c5.774-5.636 11.09-10.816 19.977-16.687 8.5-5.614 15.676-8.828 20.422-10.93 10.074-4.457 16.191-5.918 16.117-6.156-.14-.473-23.508 3.976-49.414 16.437"/></svg>