<svg xmlns="http://www.w3.org/2000/svg" viewBox="0 0 100 100"><defs><linearGradient id="a" x1="0" x2="1" y1="0" y2="0" gradientTransform="matrix(19.49753 19.2493 -19.24924 19.49764 19.441 53.965)" gradientUnits="userSpaceOnUse"><stop offset="0" stop-color="#C4161D"/><stop offset=".3" stop-color="#ED1C24"/><stop offset=".331" stop-color="#ED1C24"/><stop offset=".529" stop-color="#F79AAA"/><stop offset=".652" stop-color="#ED1C24"/><stop offset=".747" stop-color="#ED1C24"/><stop offset="1" stop-color="#C4161D"/></linearGradient><linearGradient id="b" x1="0" x2="1" y1="0" y2="0" gradientTransform="matrix(47.03007 34.16958 -34.16938 47.03031 12.01 39.542)" gradientUnits="userSpaceOnUse"><stop offset="0" stop-color="#FFF"/><stop offset=".34" stop-color="#FFF"/><stop offset=".54" stop-color="#FFF"/><stop offset=".91" stop-color="#CBD3EF"/><stop offset="1" stop-color="#CBD3EF"/></linearGradient><linearGradient id="c" x1="0" x2="1" y1="0" y2="0" gradientTransform="matrix(26.04184 25.70795 -25.70781 26.04201 20.201 50.028)" gradientUnits="userSpaceOnUse"><stop offset="0" stop-color="#1C4E9D"/><stop offset=".13" stop-color="#1C4E9D"/><stop offset=".4" stop-color="#8093D2"/><stop offset=".462" stop-color="#8093D2"/><stop offset=".608" stop-color="#1C4E9D"/><stop offset=".637" stop-color="#1C4E9D"/><stop offset=".917" stop-color="#1C4E9D"/><stop offset="1" stop-color="#1C4E9D"/></linearGradient><linearGradient id="d" x1="0" x2="1" y1="0" y2="0" gradientTransform="matrix(10.53184 6.83948 -6.83945 10.53187 45.976 54.219)" gradientUnits="userSpaceOnUse"><stop offset="0" stop-color="#C4161D"/><stop offset=".451" stop-color="#ED1C24"/><stop offset="1" stop-color="#F79AAA"/></linearGradient><linearGradient id="e" x1="0" x2="1" y1="0" y2="0" gradientTransform="matrix(29.34045 24.39375 -24.39358 29.34062 54.913 29.128)" gradientUnits="userSpaceOnUse"><stop offset="0" stop-color="#CBD8F1"/><stop offset=".073" stop-color="#CBD8F1"/><stop offset=".105" stop-color="#CBD8F1"/><stop offset=".371" stop-color="#1C4E9D"/><stop offset=".536" stop-color="#1C4E9D"/><stop offset=".949" stop-color="#CBD8F1"/><stop offset="1" stop-color="#CBD8F1"/></linearGradient><linearGradient id="f" x1="0" x2="1" y1="0" y2="0" gradientTransform="matrix(27.44108 22.81462 -22.81448 27.44125 61.111 22.23)" gradientUnits="userSpaceOnUse"><stop offset="0" stop-color="#FFF"/><stop offset=".174" stop-color="#FFF"/><stop offset=".251" stop-color="#FFF"/><stop offset=".387" stop-color="#DDE1F4"/><stop offset=".56" stop-color="#FFF"/><stop offset=".7" stop-color="#FFF"/><stop offset="1" stop-color="#FFF"/></linearGradient><linearGradient id="g" x1="0" x2="1" y1="0" y2="0" gradientTransform="matrix(24.75403 20.58059 -20.58049 24.75417 50.257 39.017)" gradientUnits="userSpaceOnUse"><stop offset="0" stop-color="#F79AAA"/><stop offset=".056" stop-color="#F79AAA"/><stop offset=".214" stop-color="#ED1C24"/><stop offset=".276" stop-color="#ED1C24"/><stop offset=".47" stop-color="#C4161D"/><stop offset=".517" stop-color="#C4161D"/><stop offset=".551" stop-color="#C4161D"/><stop offset=".692" stop-color="#ED1C24"/><stop offset=".891" stop-color="#F78F9B"/><stop offset="1" stop-color="#F79AAA"/></linearGradient></defs><path fill="#1B4488" d="M0 0h100v100H0z"/><path fill="#231F20" d="M85.36 31.61c-3.887 5.593-6.583 6.398-9.93 6.804l-1.344.129-4.55.262-5.247.398c-2.148.274-3.758.664-5.11 1.469 1.762-2.258 4.438-5.594 6.72-7.195 2.421-1.594 5.234-1.735 6.976-1.997l1.07-.132h.137l1.484-.13c4.164-.542 8.856-1.335 13.418-4.804a239 239 0 0 1-3.625 5.195M54.098 46.133s-1.473 2.133-1.754 2.402c-4.696.66-9.52 2.137-14.489 4.39-6.308 3.063-12.746 7.329-19.46 13.192 4.699-5.332 10.87-11.86 19.46-16.918 5.372-3.195 11.805-5.87 19.458-7.328-.54.531-3.215 4.262-3.215 4.262m36.89-22.508c-5.093 5.324-10.59 5.988-15.554 6.656l-2.446.324c-2.664.29-4.941.473-7.488 2.211-2.547 1.59-5.508 5.192-7.52 7.856a63.4 63.4 0 0 0-20.125 7.332C27.922 53.867 21.078 61.59 15.98 67.32l-4.96 6.125.933-.273C21.082 64.25 29.668 57.855 37.855 54c5.098-2.535 10.067-4.008 14.895-4.531h.14l5.227-7.203c1.34-1.325 3.356-1.864 6.309-2.125l5.246-.399 4.418-.265 1.48-.141c3.48-.531 6.438-1.328 10.602-7.191l5.496-7.993Zm0 0"/><path fill="url(#a)" d="m11.563 72.91-3.231 3.465c16.371-12.52 25.766-13.582 39.316-13.46 1.211.136 2.41.136 3.223-1.462l4.027-5.855v-.004c-18.921.265-27.382 5.062-43.34 17.316"/><path fill="url(#b)" d="M12.414 71.91a.2.2 0 0 1-.016.074C27.988 57.105 41.23 50.391 52.703 48.95c1.067-1.332 4.61-6.277 5.68-7.883C32.46 45.574 20.566 63.492 12.414 71.91"/><path fill="url(#c)" d="M12.355 71.984c-.21.207-.73.844-1.226 1.332a7 7 0 0 0-.445.528c3.015-2.492 9.144-7.34 14.757-10.54 5.586-3.171 12.399-5.796 22.075-7.183.937-1.066 3.84-5.094 5.187-7.223-17.855 2.664-29.61 13.086-40.348 23.086"/><path fill="url(#d)" d="M46.438 57.457c-.536 1.461.269.8 2.687 2.273 1.887 1.184 1.48 1.723 1.336 2.387 1.746-2.793 5.102-6.664 5.102-6.664a8 8 0 0 0-2.637-.414c-3.106 0-6.168 1.488-6.489 2.418"/><path fill="url(#e)" d="M64.563 39.34c-3.766.402-6.043 1.457-7.516 3.332l-5.035 7.242c1.203-1.062 4.488-1.648 8.125-1.648h.93c.538 0 1.074-.133 1.605-.133 5.238-.13 12.348-.93 16.648-6.125L85.563 33l.69-1.016c-5.503 7.461-17.8 6.688-21.69 7.356"/><path fill="url(#f)" d="M73.945 30.945c-1.605.274-5.226.133-8.187 2.137-3.086 1.996-6.824 6.871-8.578 9.402 1.625-1.863 4.027-2.476 7.242-2.879 3.23-.402 7.789-.265 11.14-.8 3.215-.39 6.172-1.063 10.2-6.922l5.636-7.992c-5.765 5.992-12.082 6.25-17.453 7.054"/><path fill="url(#g)" d="M67.512 47.328c-3.89.535-8.336.676-9.664.805-2.141 0-5.106.797-5.903 1.863-2.55 3.195-4.824 6.125-5.507 7.461 1.484-1.469 6.449-1.336 12.488-1.598 6.031-.265 12.07-3.066 16.906-8.793l3.656-5.355c-2.41 3.336-6.742 4.82-11.976 5.617"/></svg>