<svg xmlns="http://www.w3.org/2000/svg" viewBox="0 0 100 100"><defs><linearGradient id="a" x1="198.42" x2="157.529" y1="71.185" y2="15.56" gradientTransform="translate(-268.79 -17.578)scale(1.92963)" gradientUnits="userSpaceOnUse"><stop offset=".18" stop-color="#FED9A0"/><stop offset=".312" stop-color="#ECC890"/><stop offset=".574" stop-color="#BF9A66"/><stop offset=".746" stop-color="#9E7947"/></linearGradient></defs><path fill="#C82E32" d="M0 0h100v100H0z"/><path fill="url(#a)" d="M85.89 64.3c.794-5.866-.632-10.945-1.824-14.273-.832-2.34-1.507-4.203-2.105-5.87-2.691-7.571-3.207-8.958-5.074-16.532l-.633-2.5-2.457-.793c-7.457-2.418-8.766-3.012-16.14-6.305-1.626-.71-3.45-1.543-5.708-2.539-2.656-1.144-6.699-2.734-11.578-2.89-7.496-.282-14.672 2.773-21.375 9.039l.121-.043a60 60 0 0 0-5.234 5.281s.043.117.437-.2c2.34-1.905 9.993-9.038 30.809.317a844 844 0 0 0 20.062 8.684s3.211 10.113 6.899 20.738c7.496 21.531-.278 28.547-2.375 30.688-.32.359-.203.398-.203.398a53 53 0 0 0 7.457-6.5c5.074-5.117 8.086-10.707 8.922-16.695"/><path fill="#FED9A0" d="m76.293 25.047-2.457-.797c-7.453-2.418-8.762-3.012-16.137-6.3-1.625-.712-3.453-1.548-5.71-2.54-2.657-1.148-6.7-2.734-11.579-2.89-7.492-.282-14.672 2.773-21.375 9.039l.121-.043a59 59 0 0 0-5.23 5.277s.035.117.437-.2c2.336-1.905 9.989-9.042 30.805.317a851 851 0 0 0 20.062 8.684Zm0 0"/></svg>