<svg xmlns="http://www.w3.org/2000/svg" viewBox="0 0 100 100"><path fill="#FF6300" d="M0 0h100v100H0z"/><path fill="#5416D0" d="M61.094 16.355c-7.578 0-10.79 2.41-13.739 7.86l-2.078 3.683a10.5 10.5 0 0 0-1.746 4.887 7.9 7.9 0 0 0 1.344 3.965l16.5 29.504c5.902 10.547 13.195 16.45 28.91 16.45 1.344 0 1.676-.806 1.133-1.75L70.016 42.722c-4.278-7.72-5.762-13.285-5.762-17.305a11.65 11.65 0 0 1 2.683-8c.407-.45.336-1.059-.464-1.059ZM38.266 39.63c-.403 0-.66.277-1.067.941l-24.437 41.46a1.3 1.3 0 0 0-.262.805c0 .805 1.273.809 1.605.809 17.602 0 29.82-10.739 29.82-26.297a33.15 33.15 0 0 0-4.644-16.844c-.328-.52-.61-.875-1.011-.875Zm0 0"/></svg>