<svg xmlns="http://www.w3.org/2000/svg" viewBox="0 0 100 100"><path fill="#80CBDB" d="M0 0h100v100H0z"/><path fill="#252C73" d="M93.336 52.367s-8.809-1.137-11.883-1.441a29 29 0 0 0-4.004-.207 34.2 34.2 0 0 0-11.957 1.965s-3.515 1.406-10.472 5.043c-6.961 3.636-18.106 9.082-18.106 9.082a18.7 18.7 0 0 1-5.156 1.457c-2.797.34-6.395-.903-6.395-.903s-2.593-.742-6.172-3.945a23.4 23.4 0 0 1-4.003-5.191 23 23 0 0 0 5.21 3.668 39.3 39.3 0 0 0 6.395 2.652s4.016 1.094 9.187-.824a83 83 0 0 0 7.657-3.145l7.164-3.664s8.379-4.844 13.664-6.82a23 23 0 0 1 9.488-1.52c2.527.055 5.043.313 7.527.778 4.036.648 8 1.66 11.856 3.015"/><path fill="#FFF" d="M91.25 51.031a59.5 59.5 0 0 0-7.836-2.347s-3.336-.864-6.375-1.364a39 39 0 0 0-4.684-.574 21.3 21.3 0 0 0-6.82.422 40 40 0 0 0-6.336 2.324l-9.254 4.422-6.215 3.316-1.34.813.055-1.531 2.41-1.133 11.317-6.59s5.305-3.3 8.293-4.266a16.3 16.3 0 0 1 5.808-.707s2.672 0 7.665 1.707a138 138 0 0 1 9.332 3.594Zm0 0"/><path fill="#339444" d="M94.602 52.367s-5.016-2.566-6.844-3.449a1001 1001 0 0 0-11.426-5.16s-3.73-1.504-5.266-1.75c-1.53-.254-2.84-.903-6.578.293-3.734 1.195-18.289 9.496-18.289 9.496l-2.347 1.348v-4.41l2.84-1.137 7.386-3.907 6.98-3.593a22.3 22.3 0 0 1 5.325-2.063 10.4 10.4 0 0 1 5.402.445c2.84 1.04 8.125 4.075 8.125 4.075l5.68 3.668 5.965 4.027Zm0 0"/><path fill="#E33C23" d="M46.64 47.559c0 8.777-7.113 15.89-15.89 15.89s-15.89-7.113-15.89-15.89c0-8.774 7.113-15.891 15.89-15.891s15.89 7.117 15.89 15.89m0 0"/><path fill="#F5C70A" d="M45.852 45.934c0 7.445-6.036 13.48-13.477 13.48-7.445 0-13.48-6.035-13.48-13.48 0-7.442 6.035-13.477 13.48-13.477 7.441 0 13.477 6.035 13.477 13.477m0 0"/><path fill="#ECE41A" d="M45.855 45.395c0 6.207-5.167 11.242-11.542 11.242-6.38 0-11.547-5.035-11.547-11.242s5.168-11.239 11.547-11.239c6.374 0 11.542 5.032 11.542 11.239m0 0"/><path fill="#010003" d="m43.79 44.563-2.642-.887s-1.796-.57-3.234-1.176a16.7 16.7 0 0 0-3.113-.746c-1.496-.23-3.02-.23-4.516 0a8 8 0 0 0-2.23.676c-.864.484-3.102.074-4.492-1.137-1.391-1.207-3.88-1.543-3.88-1.543a39 39 0 0 0-5.07-.215c-2.652.074-5.941-.187-5.941-.187s-.762-.09 0 .129c.762.222 2.805.48 2.805.48l3.148.281a14 14 0 0 1 2.492.422 36 36 0 0 1 3.664.95q1.29.767 2.461 1.706c1.442 1.133-2.445 1.133-2.445 1.133l-.805.11s-.512.093 1.973.289a8 8 0 0 0 1.957-.067c.351-.074.719 0 1.012.203.617.356 1.796-.394 1.796-.394l.485-.348a1.33 1.33 0 0 1 .781-.16s1.637.648 1.027.27c-.363-.22-.996-.7-.996-.7s-.226-.21-.082-.308c.211-.059.434-.082.653-.063.285-.008.57-.054.847-.133.93-.066 1.867-.066 2.801 0a58 58 0 0 1 6.41.754c3.86.649 4.43.692 4.43.692s1.14.218.703-.028"/></svg>