<svg xmlns="http://www.w3.org/2000/svg" viewBox="0 0 100 100"><path fill="#B5D5F1" d="M0 0h100v100H0z"/><path fill="#FF3C00" d="M74.852 43.832c.457-.812.937-1.625 1.582-2.3-.329 1.503-.684 3.007-.817 4.542-.242 2.41-.094 4.832-.008 7.246.157 2.864-.039 5.82-1.148 8.496-1.11 2.645-2.727 5.106-4.863 7.016-2.93 2.598-6.703 4.078-10.532 4.648-1.55.223-3.129.36-4.695.25.816-.527 1.703-.949 2.543-1.449 2.516-1.441 4.977-3.031 7.117-5.011 2.156-1.993 3.957-4.36 5.387-6.93 1.406-2.524 2.066-5.375 2.707-8.172.652-2.852 1.305-5.758 2.727-8.336"/><path fill="#01742F" d="M59.344 40.273c2.226-.91 4.543-1.586 6.875-2.164-.406.23-.856.371-1.278.57-2.636 1.18-4.953 3.005-6.894 5.145-2.18 2.414-3.91 5.207-5.317 8.14-1.96 4.391-5.105 8.192-8.906 11.087-5.312 4.058-11.726 6.496-18.285 7.511-1.418.208-2.844.383-4.273.418 1.847-.585 3.699-1.175 5.492-1.93 4.836-1.995 9.344-4.917 12.926-8.78 2.007-2.215 3.89-4.56 5.472-7.106.852-1.344 1.657-2.723 2.63-3.984 1.116-1.473 2.413-2.801 3.78-4.043 2.27-2.082 4.93-3.719 7.778-4.864"/><path fill="#DC001C" d="M90.219 19.934c.445-.254.937-.43 1.449-.48-.281.444-.684.796-.95 1.25-.706 1.132-1.081 2.437-1.347 3.733-.254 1.235-.351 2.5-.742 3.704a14 14 0 0 1-2.453 4.687c-1.41 1.738-3.184 3.137-5.028 4.379-2.234 1.54-4.597 2.941-6.535 4.875-1.379 1.383-2.488 3.063-3.093 4.938-1.176 3.457-2.176 7-3.817 10.273a24.6 24.6 0 0 1-4.586 6.402c-2.406 2.453-5.293 4.356-8.238 6.086-6.492 3.75-13.625 6.274-20.895 7.992-8.12 1.887-16.464 2.786-24.796 2.774a7 7 0 0 1-.856-.04c7.367-1.007 14.676-2.734 21.543-5.652 6.29-2.644 12.191-6.32 17.117-11.093a45 45 0 0 0 3.11-3.305c2.214-2.695 3.78-5.844 5.277-8.98.777-1.618 1.527-3.25 2.434-4.801a18.7 18.7 0 0 1 5.488-5.934c2.699-1.879 5.797-3.035 8.867-4.14 1.789-.645 3.586-1.278 5.34-2.016 1.164-.496 2.336-1 3.406-1.688 2.027-1.285 3.84-3.027 4.879-5.234.71-1.492 1.055-3.125 1.66-4.66-.664.305-1.137.93-1.355 1.621-.293.906-1.2 1.441-2.09 1.586.398-.352.754-.777.902-1.3.367-1.2 1.438-2.208 2.711-2.278.602-1.113 1.488-2.086 2.598-2.7m-1.64 2.06c-.29.175-.321.644-.052.855.293.261.84.043.848-.364.047-.402-.465-.726-.797-.492"/></svg>