<svg xmlns="http://www.w3.org/2000/svg" viewBox="0 0 100 100"><path fill="#FFF" d="M0 0h100v100H0z"/><path fill="#312667" d="M42.934 46.934c.773-5.809-5.676-5.032-5.676-5.032.27-2.965 5.168-9.414 11.867-7.609 6.71 1.812 7.227 9.027 7.227 9.027C62.359 11.621 88.852 3.043 100 .777V0H0v100h82.527c-46.472-8.043-39.593-53.066-39.593-53.066"/><path fill="#E6001F" d="M78.266 55.05c-9.164-4.632-21.793-2.71-21.793-2.71C59.098 89.3 87.816 98.125 96.762 100H100V4.652c-33.309 15.48-21.734 50.399-21.734 50.399"/></svg>