<svg xmlns="http://www.w3.org/2000/svg" viewBox="0 0 100 100"><path fill="#040C3E" d="M0 0h100v100H0z"/><path fill="#FFF" d="M75.547 33.129c-.703 0-1.406 0-1.875.234-5.625-.234-8.438.938-10.781.938-1.407 0-6.563-2.344-10.782-3.985 0 0 5.157-1.406 10.078-1.406 4.922 0 9.844 2.813 11.25 4.453-3.046-7.5-13.359-11.953-19.453-11.953-12.656 0-19.687 6.328-28.828 6.563h-3.984c0 5.625 2.11 8.906 3.047 9.843C21.64 38.988 12.5 50.707 12.5 56.098l.469.937 7.5.938-1.407 7.734.47.938 7.03.937-2.578 9.14.47.938s2.577.938 6.093.938c3.281 0 17.11.468 19.219-17.578v-.235c2.578 9.61 8.906 11.485 22.265 11.485 3.75 0 2.11-4.922 2.578-6.563.47-.234.704-.937.47-1.64.292-.32.46-.739.468-1.172 0-.938-.469-2.344-.469-4.454 1.172-.234 3.047-.703 3.047-2.343 0-.938-2.11-5.86-3.281-9.375-.235-.47-.703-.938-1.172-.938-.938 0-1.172 1.172-3.516 1.172-4.453 0-2.812-4.219-15.937-3.281-1.64 0-2.11.469-2.344 2.11-.469 3.75-.469 13.827 1.875 19.921-2.812-3.047-3.75-8.672-3.984-13.125-.938 8.203-1.407 19.453-11.72 23.203-4.452 1.64-9.374 1.172-14.062.703 2.813 0 5.625 0 8.438-.468 1.875-.235 3.516-.704 5.39-1.407C50 69.457 46.25 53.285 49.063 45.316c-5.39 5.391-6.328 19.922-19.453 20.625-3.515.235-7.03 0-10.312-.703 3.515 0 6.797 0 10.312-.468 11.72-1.641 11.953-14.297 17.579-20.86-2.344.469-4.454 1.172-6.563 2.344-3.047 1.64-5.156 3.984-7.734 6.328-3.282 3.047-6.797 3.984-11.25 3.75-3.047.234-6.094 0-9.141-.234.234 0 5.156-.235 5.156-.235 3.282-.234 6.797 0 9.844-1.406 2.344-.937 3.984-2.812 5.625-4.687 3.047-3.516 6.563-5.86 11.016-7.266 3.28-.938 14.297-2.11 21.093-1.875 3.985.234 12.188 1.172 17.579 3.281h-.235c-2.344-.469-4.922-.234-7.031.703 2.11 0 4.687.235 6.562.703 1.641.47 4.922 1.172 5.391 3.047v-1.64c0-7.032-5.86-13.594-11.953-13.594"/></svg>