<svg xmlns="http://www.w3.org/2000/svg" viewBox="0 0 100 100"><defs><clipPath id="a"><path d="M9.129 33H80v62.516H9.129Zm0 0"/></clipPath><clipPath id="b"><path d="M44 7.145h22V33H44Zm0 0"/></clipPath><clipPath id="c"><path d="M44 7.145h23V33H44Zm0 0"/></clipPath></defs><path fill="#D83A4E" d="M0 0h100v100H0z"/><g clip-path="url(#a)"><path fill="none" stroke="#740054" stroke-miterlimit="3.864" stroke-width="1.98" d="M68.41 70.836c-3.66 11.8-14.285 20.32-26.789 20.32-15.535 0-28.133-13.136-28.133-29.261 0-6.797 2.192-13.004 5.942-17.98"/></g><path fill="none" stroke="#740054" stroke-miterlimit="3.864" stroke-width="1.98" d="M65.625 70.055c-1.969 7.707-8.719 13.398-16.754 13.398-11.64.34-17.348-8.098-17.348-18.047 0-.648.032-1.27.094-1.918"/><path fill="#F58220" d="M27.992 23.04c17.559-2.696 17.91 1.495 17.91 1.495s-1.125 7.903-1.125 8v-.52s-.468.715-1.156.356c-3.531-1.723-17.207-9.086-15.629-9.332"/><path fill="none" stroke="#F58220" stroke-miterlimit="3.864" stroke-width=".128" d="M27.992 23.04c17.559-2.696 17.91 1.495 17.91 1.495s-1.125 7.902-1.125 8v-.52s-.468.715-1.156.356c-3.531-1.723-17.207-9.086-15.629-9.332Zm0 0"/><path fill="#004A2A" d="M43.871 32.43s-.25-.09-.219-.414c1.063-8.844-4.847-4.422-5.187-4.715-.656 0-1.188-.555-1.188-1.235v-.035s-2.312-1.996-1.992-3.808c.008-.043-1.031-.606-3.097.27-.09.038-.415.808.808 2.37.059.032-.719.39-.66.813 0 .097 2.516 4.383 8.05 6.82.063.031 3.485-.066 3.485-.066"/><path fill="none" stroke="#004A2A" stroke-miterlimit="3.864" stroke-width=".128" d="M43.871 32.43s-.25-.09-.219-.414c1.063-8.844-4.847-4.422-5.187-4.715-.656 0-1.188-.555-1.188-1.235v-.035s-2.312-1.996-1.992-3.808c.008-.043-1.031-.606-3.098.27-.09.038-.414.808.81 2.37.058.032-.72.39-.661.813 0 .097 2.516 4.383 8.05 6.82.063.031 3.485-.066 3.485-.066Zm0 0"/><path fill="#740054" d="M40.934 33.316c.125-.523 1.78-.683 2.812-.683 15.504 0 28.129 13.101 28.129 29.262 0 3.28-.437 7.12-1.219 10.664-.062-.36-10.344-3.707-10.094-4.227s8.75-7.543 2-22.89c-.187-.454-12.628 2.437-21.628-12.126"/><path fill="none" stroke="#740054" stroke-miterlimit="3.864" stroke-width=".128" d="M40.934 33.316c.125-.523 1.78-.683 2.812-.683 15.504 0 28.129 13.101 28.129 29.262 0 3.28-.438 7.12-1.219 10.664-.062-.36-10.344-3.707-10.094-4.227s8.75-7.543 2-22.89c-.187-.454-12.628 2.437-21.628-12.126Zm0 0"/><g clip-path="url(#b)"><path fill="#740054" d="M65.156 7.922C44.934 10.297 44.56 32.34 44.777 32.145c9.535-9.168 20.473-10.372 20.473-9.98 0 .355 1.73-6.052-.094-14.243"/></g><g clip-path="url(#c)"><path fill="none" stroke="#6D1F60" stroke-miterlimit="3.864" stroke-width=".128" d="M65.156 7.922C44.934 10.297 44.56 32.34 44.777 32.145c9.535-9.168 20.473-10.372 20.473-9.98 0 .355 1.73-6.052-.094-14.243Zm0 0"/></g><path fill="#FFF" d="M37.273 26.21c0-.6.47-1.085 1.047-1.085.575 0 1.043.484 1.043 1.086 0 .598-.468 1.086-1.043 1.086-.578 0-1.047-.488-1.047-1.086"/><path fill="none" stroke="#FFF" stroke-miterlimit="3.864" stroke-width=".38" d="M39.363 26.21c0 .602-.468 1.087-1.043 1.087-.578 0-1.047-.485-1.047-1.086s.47-1.086 1.047-1.086c.575 0 1.043.484 1.043 1.086Zm0 0"/><path fill="#B99765" d="M87.5 31.594c-4.937-4.93-12.8-10.145-20.23-10.145-8.836 0-17.36 4.02-22.805 10.758l.785.688c5.254-6.5 13.484-10.38 22.02-10.38 6.37 0 13.125 4.051 17.91 8.329Zm0 0"/><path fill="#B99765" d="M71.363 61.895c0 8.511-2.797 20.187-9.043 27.097l-.34.328 1.344.098c6.254-7.152 9.067-18.922 9.067-27.523 0-7.95-2.985-15.43-8.395-21.06-5.418-5.632-12.61-8.737-20.25-8.737-.95 0-2.762.066-3.812.207l.023.187.043.004.89.781q1.426-.106 2.856-.113c7.367 0 14.3 2.992 19.524 8.426 5.222 5.43 8.093 12.637 8.093 20.305"/></svg>