<svg xmlns="http://www.w3.org/2000/svg" viewBox="0 0 100 100"><path fill="#04396F" d="M0 0h100v100H0z"/><path fill="#A11337" d="M65.41 21.902s9.278 4.09 5.645 13.168c-3.758 9.41-43.828 14.528-46.512 20.707C22.5 60.492 39.07 62.5 39.07 62.5s-24.203.266-19.636-9.945c4.187-9.344 43.53-12.13 47.593-17.203 5.38-6.727-1.617-13.45-1.617-13.45"/><path fill="#FFF" d="m64.16 74.578-7.324-5.676-7.27 5.27.938-9.188-8.297-3.972 8.262-3.508-1.02-9.234 7.324 5.671 7.27-5.27-.941 9.188 8.293 3.977-8.25 3.504ZM80.992 48.45l-3.656-1.453-2.344 3.008-.715-3.86-3.843-.644 2.953-2.398-1.516-3.649 3.664 1.445 2.34-3 .71 3.852 3.853.648-2.958 2.403ZM46.934 87.414l-3.418-2.445L40.32 87.5l.254-4.191-3.828-1.641 3.668-1.734-.625-4.18 3.418 2.445 3.2-2.515-.25 4.175 3.827 1.649-3.683 1.734Zm7.8-63.184-3.418-2.437-3.203 2.516.262-4.176-3.832-1.649 3.68-1.734-.637-4.172 3.426 2.445 3.187-2.523-.254 4.184 3.832 1.64-3.672 1.742ZM29.098 44.242l-4.028-.453-1.496 3.633-1.77-3.656-3.995.406 2.27-3.203-2.517-3.23 4.032.456 1.492-3.644 1.77 3.664 3.996-.403-2.262 3.2Zm0 0"/><path fill="#ACABB5" d="M65.41 21.902s10.188 3.602 6.453 12.633c-3.23 7.8-44.093 13.445-46.785 19.633-2.043 4.703 13.98 8.324 13.98 8.324s-22.949-2.187-19.624-9.945c4.035-9.41 45.23-13.738 48.93-19.086 4.843-6.988-2.954-11.566-2.954-11.566"/></svg>