<svg xmlns="http://www.w3.org/2000/svg" viewBox="0 0 100 100"><path d="M0 0h100v100H0z"/><path fill="#FFF" d="M23.406 73.531C27.23 82.242 33.578 87.5 41.344 87.5c7.308 0 12.261-6.062 12.261-11.828 0-6.563-4.605-10.852-10.03-10.852-5.805 0-7.032 4.758-7.032 5.961 0 2.746 2.11 5.305 4.8 5.305 4.239 0 4.555-3.672 4.555-3.672s1.309.875 1.309 3.25c0 2.25-1.777 5.117-5.863 5.117-3.262 0-8.07-1.863-11.383-9.484-3.902-8.914-4.172-11.563-4.172-11.563h51.352l2.925-7.101H15.473c0 .008 3.41 10.687 7.937 20.902Zm8.617-31.719s4-5.859 12.528-14.617c2.133-2.175 7.75-7.687 13.453-7.687 3.75 0 6.66 2.547 6.66 6.012 0 3.44-2.68 4.433-2.68 4.433.27-1.469-.578-5.476-4.125-5.476-3.66 0-5.214 3.05-5.214 5.097 0 4.219 3.5 7.246 7.585 7.246 7.852 0 11.508-6.078 11.508-11.972 0-5.95-5.25-12.348-13.734-12.348-7.793 0-15.016 6.008-19.125 10.39-14.602 15.524-22.309 26-22.309 26h65.04l2.917-7.085H32.02Zm0 0"/></svg>