<svg xmlns="http://www.w3.org/2000/svg" viewBox="0 0 100 100"><path fill="#9B308C" d="M0 0h100v100H0z"/><path fill="#FFF" fill-rule="evenodd" d="M35.133 22.344a26.9 26.9 0 0 1 6.125 17.113V87.5H28.53l.008-47.187c0-6.852 2.484-13.118 6.594-17.97m-19.313-9.71 3.903.398a26.9 26.9 0 0 1 12.695 6.461 31.6 31.6 0 0 0-6.543 11.938 14.63 14.63 0 0 0-9.031-5.934l-1.032-.098Zm40.543-.133c15.364 0 27.828 12.457 27.828 27.813 0 15.359-12.464 27.816-27.828 27.816a27.7 27.7 0 0 1-11.183-2.344V50.473a15.1 15.1 0 0 0 11.183 4.941 15.096 15.096 0 0 0 14.77-11.973 15.1 15.1 0 0 0-8.649-16.933 15.1 15.1 0 0 0-18.359 4.949 30.95 30.95 0 0 0-6.25-11.918A27.72 27.72 0 0 1 56.359 12.5"/></svg>