<svg xmlns="http://www.w3.org/2000/svg" viewBox="0 0 100 100"><path fill="#0C4368" d="M0 0h100v100H0z"/><path fill="#B2D67D" d="M23.129 48.484a25.4 25.4 0 0 0-1.14 7.23c-.048 1.95.038 3.9.265 5.837 1.133 9.672 1.695 14.504 3.387 18.625.672 1.652 2.972 6.941 6.523 11.082.523.613 2.059 2.332 4.02 4.91a93 93 0 0 1 2.77 3.832h10.991Zm0 0"/><path fill="#45A9C5" d="M100 2.766c-2.332-1.664-3.77-1.832-4.668-1.633-.277.062-.934.25-1.832.203-.98-.05-1.676-.356-1.871-.426-1.957-.785-5.938-.058-9.707.098-3.793.16-7.145-.274-8.035-.399-3.282-.457-4.91-1.043-6.938-.132-.765.343-1.515.87-3.05 1.343-1.446.446-2.56.535-3.047.59-3.86.414-9.11 3.36-11.485 7.445-.48.82-.496 1.086-1.035 1.79-1.531 1.996-3.457 2.48-5.695 3.543 0 0-2.809 1.34-5.38 3.5-2.253 1.89-2.073 2.55-5.96 6.953-2.543 2.87-2.652 2.625-3.727 4.125a24.2 24.2 0 0 0-3.496 7.398c-1.082 3.606-1.156 6.406-1.258 10.137-.046 1.738-.109 4.804.446 8.75.492 3.445.93 3.883 1.715 8.02 1.093 5.792.546 6.652 1.25 9.429 1.261 4.965 4.48 8.082 7.343 10.848 7.223 6.976 15.825 9.215 20.192 10.007h46.23V2.77Zm0 0"/><path fill="#0C4368" d="M100 8.238A6.1 6.1 0 0 0 97.125 7c-1.152-.152-1.816.125-2.945.203-1.778.133-2.848-.375-4.344-.773-.426-.117-5.09-1.313-9.684-.078-2.367.64-1.96 1.183-5.062 2.164-3.125.996-3.547.445-6.965 1.347-1.793.469-3.59 1.227-7.184 2.739-1.484.625-2.918 1.226-4.808 2.152-2.125 1.031-3.848 1.875-5.758 3.148-1.64 1.098-2.887 2.16-4.86 4.008-4.503 4.223-6.757 6.34-8.316 8.465-1.36 1.855-4.308 5.957-5.808 11.816-.684 2.645-.434 3.18-1.352 6.258-1.355 4.508-2.375 4.992-3.156 8.215-1.031 4.23-.34 7.84-.047 9.316.66 3.305 1.45 3.348 3.71 9.317 1.657 4.394 1.532 5.152 3.032 9.02 2.293 5.867 2.543 7.195 3.977 8.363 1.043.843 2.218 1.367 3.902 3.105.5.516.973 1.055 2.25 2.399.738.773 1.348 1.394 1.754 1.808h54.531V8.238Zm0 0"/><path fill="#7AB3CC" d="M46.246 31.188c-.273-.204-1.5 1.035-2.2 1.738-1.292 1.304-2.12 2.344-2.71 3.05-1.59 1.934-2.273 2.477-3.125 3.47-2.684 3.136-3.738 6.816-4.012 7.917-.558 2.207-.258 5.082.344 10.848.672 6.422 1.61 9.418 1.773 9.656.266.367.836.547 1.121.422.735-.324.25-2.96.118-3.785 0 0-1.457-8.676 2.05-19.266.633-1.918 1.23-2.886 1.391-3.129 1.531-2.406 2.691-2.218 3.356-4.054.664-1.813-.11-2.965.836-4.23.054-.071.55-.72.89-1.7.152-.402.305-.848.168-.945Zm0 0"/><path fill="#FFF" d="M100 35.93c-1.957-2.29-2.71-2.559-3.05-2.387-.384.195-.458 1.11-.243 1.766.258.78.852.968 1.125 1.898.117.402.188.836.11.996-1.919-.351-3.024-1.113-3.692-1.746-.805-.773-.98-1.383-2.3-2.734-.466-.485-1.837-1.887-2.25-1.614-.458.29.648 2.25 0 2.762-.31.242-.845.043-1.102-.062-.961-.368-1.137-1.243-1.926-2.516-.598-.973-1.293-2.094-2.387-2.676-.969-.512-1.957-.457-3.027-.316-4.043.531-7.207 1.949-7.207 1.949s-3.535 1.57-10.16 7.313c-.43.355-.782.789-1.04 1.285a4.2 4.2 0 0 0-.456 1.632.647.647 0 0 0 .64.7c2.906.035 4.91-.082 6.34-.239.422-.046 1.125-.125 1.832.243 1.36.707.75 3.117 1.832 3.492.445.152.914-.086 1.023-.14.708-.36.938-1.2 1.008-1.411.543-1.562 4.418-2.336 7.383-2.434 0 0 4.406-.125 11.418 2.809.574.242 1.055.438 1.668.8 1.176.68 1.48 1.126 2.438 1.595a6.6 6.6 0 0 0 2.015.617V35.918ZM60.55 51.707c-.21-.465.15-1.145.595-1.492.292-.215.507-.215 1.246-.403.812-.207 1.242-.39 1.484-.457 1.25-.375 3.879.352 5.477.856l.039.512a7.85 7.85 0 0 0-3.63.382c-1.335.473-2.038 1.168-3.519 1.165-.43 0-1.426 0-1.683-.575Zm25.454-1.637c-.043-.492 1.441-1.14 2.719-1.308.445-.055 1.789-.223 3.086.5 1.21.683 1.398 1.613 2.199 2.593.777.954 2.215 2.06 5.11 2.5.003.31-.114.61-.329.833-.367.34-1.012.132-1.762-.114-1.886-.597-2.832-.902-3.039-1.039-2.129-1.367-1.867-3.437-3.57-3.824a5.2 5.2 0 0 0-1.625 0c-1.05.156-1.66.582-2.348.262-.148-.075-.418-.188-.441-.395ZM100 52.95c-.078-.009-1.945-.266-1.941-.602 0-.336 1.863-.555 1.941-.563Zm-26.785-.704c1.055-2.309.922-3.664 1.48-3.754.5-.09.766.985 2.582 3.192 1.735 2.109 2.438 2.273 2.77 2.312.453.055.957-.02 1.367.344.422.387.29.851.531 1.172.57.785 2.625-.117 4.555-.45 2.148-.374 6.438-.445 8.426 1.82.804.927 1.148 2.126 2.273 2.317.5.086 1.258-.023 1.438-.414.152-.332-.172-.707-.04-.836.094-.086.395-.058 1.395.637v22.203a5.8 5.8 0 0 0-2.457 1.746c-.656.82-.61 1.281-1.21 1.633-.802.46-1.333-.07-3.192 0-1.149.043-2 .078-2.356.61-.57.843.735 2.019.266 2.995-.57 1.188-3.246.993-3.793.95-2.348-.172-6.082-1.012-6.758-3.227-.14-.469-.062-.726-.347-1.598-.258-.793-.649-2.015-1.555-2.421-.719-.325-1.485-.016-1.742.082-1.262.441-3.809.504-9.453-1.145 0-.45.082-1.16.57-1.598.812-.718 2.293-.25 2.66-.148 1.598.441 5.926.594 17.832-.645.3.301.523.676.64 1.086.282 1.098-.429 2.07-.21 2.22.156.1.699-.25 1.054-.81.61-.964.168-1.855.082-3.601-.097-2.191.528-2.121.25-3.5-.464-2.32-2.476-3.598-2.585-3.66-1.18-.723-1.461-.223-2.262-.883-1.469-1.207-.703-3.05-2.336-4.457-.54-.473-1.317-.863-1.598-.633-.43.34.707 1.781.25 2.39-.625.845-3.222-1.277-6.851-1.234-3.403.032-5.707 1.938-6.5.993-.559-.668.28-1.961-.657-3.168-.132-.164-.402-.5-.746-.496-.554 0-.968.89-1.234 1.523-1.309 3.031-.863 3.762-1.649 4.95-1.222 1.835-2.918 1.05-3.992 2.894-.468.797-.218 1.07-.468 4.125-.25 3.172-.657 4.64-.11 4.902.582.273 1.387-1.187 2.235-.918.785.25 1.125 1.817.988 3.063-.188 1.703-1.196 2.125-1.125 3.238.11 1.633 2.422 2.71 2.965 2.96 4.5 2.106 9.117-.464 9.715.766.195.418-.313.723-2.028 3.555-1.324 2.188-1.375 2.606-1.93 2.785-1.125.375-2.265-.863-5.043-3.191-4.445-3.75-4.363-2.973-5.44-4.367-2.544-3.278-2.712-7.207-2.786-8.766-.11-2.441.387-2.613.492-7.238.133-5.461-.543-5.824-.766-5.887-1.023-.293-2.335 3.11-3.285 2.832-.949-.285-.691-4.043-.047-6.793.22-.96 1.274-5.492 3.012-5.578.98-.047 1.461 1.355 3.238 1.441.36.012 1 .043 1.391-.363.508-.523.121-1.258.586-1.75.41-.437 1.02-.21 1.89-.266 1.833-.124 1.97-1.335 3.68-1.707 2.012-.433 2.809 1 4.184.317.75-.375 1.086-1.098 1.738-2.531Zm0 0"/><path fill="#7AB3CC" d="M52.809 24.313c-.899.136-2.45.554-3.395 1.855-.36.492-.894 1.457-.582 1.812.305.344 1.32-.046 1.895-.382 1.421-.848 1.91-2.465 2.09-3.285Zm0 0"/><path fill="#0C4368" d="M61.602 58.063c1.593.105 2.71-.243 3.457-.583 1.257-.59 1.855-1.402 2.898-1.277.625.074 1.395.477 1.434.977.086.945-2.45 1.965-4.27 2.316-.5.102-3.168.617-3.656-.36-.164-.331-.04-.738.137-1.081Zm21.433-.708a.37.37 0 0 1 .332-.37 28 28 0 0 1 3.235-.055c1.691.07 2.234.25 3.214-.078.977-.329 1.66-.922 1.93-.68.23.203-.012.82-.039.883-.605 1.55-5.539 1.586-8.309 1.5a.33.33 0 0 1-.238-.102.33.33 0 0 1-.094-.242l-.023-.848Zm8.758 23.422c.324.309.957.293 1.332.035.457-.328.465-.988.477-1.972.05-3.77.14-3.598.03-4.426-.202-1.48-.417-2.863-1.245-3.125-.063-.023-.457-.168-.703.027-.422.344.132 1.348.39 2.934.25 1.535.098 2.832.035 3.387-.23 1.875-.777 2.71-.312 3.16Zm0 0"/><path fill="#FEFEFE" d="M61.5 75.957c-.488-.457.027-1.777.387-2.43.988-1.765 2.906-2.289 3.476-2.43.094.321.524 1.93-.39 3.317-.922 1.39-2.903 2.086-3.473 1.54Zm10.262-.25c-.04-.27.36-.45 1.992-1.68 1.5-1.132 1.558-1.28 2.129-1.675 2.027-1.41 4.262-1.598 6.082-1.754 2.18-.188 3.46-.293 4.742.515.98.61 2.254 1.934 2 3.2-.289 1.398-2.328 1.98-3.578 2.335-1.688.48-2.793.375-6.875.075-4.777-.36-6.422-.461-6.492-.993Zm0 0"/></svg>