<svg xmlns="http://www.w3.org/2000/svg" viewBox="0 0 100 100"><path fill="red" d="M0 0h100v50H0Zm0 0"/><path fill="#0C2752" d="M0 50h100v50H0Zm0 0"/><path fill="#FFF" d="m42.86 61.227 3.718 4.304 2.395-2.765-4.73-5.473-2.388-2.766-2.214-2.59-2.2 2.922 2.489 2.899v.008Zm0 0"/><path fill="#FFF" d="M90.61 40.352c-3.383-3.325-6.989-4.93-10.7-4.778-2.953.121-5.363 1.352-6.988 2.492l-.184.133-.058.04q-.295.214-.578.44l-2.57-2.784c-.63-.739-1.59-1.93-1.84-2.61-.184-.531-.231-1.074-.29-1.383-.215-1.101-.332-2.93-.332-2.93s0-.437-.21-.929l-.25-.64s2.136-.942 3.667-.868l.922 1.125.031-1.113v-1.613s-.101-.868-.921-1.516c-.606-.488-.887-.527-1.641-.64-.941-.137-1.113.124-1.824-.536l-.645-.949-4 .016-1.566.582s-.867.21-1.45 1.675l-1.19 3.774s-.325 1.25-.395 3.137c-.07 1.894-.035.07-.035.07s-.086 2.82-.422 3.664l-.649 2.227c-.93 2.218-1.875 3.312-1.894 3.332l-3.594 4.167-1 1.16-1-1.16.012-.015-2.203-2.527-.313-.356h-.004l-1.105-1.266c-.02-.027-1.02-1.18-1.97-3.523l-.593-2.035c-.34-.844-.422-3.668-.422-3.668s.035 1.828-.039-.067c-.07-1.886-.39-3.136-.39-3.136L40.78 23.57c-.578-1.468-1.445-1.675-1.445-1.675l-1.57-.586-4-.012-.649.945c-.703.66-.883.403-1.82.54-.75.109-1.035.152-1.645.636-.48.375-.808.914-.918 1.516v1.613l.032 1.11.918-1.122c1.53-.074 3.675.867 3.675.867l-.261.641c-.207.492-.207.93-.207.93s-.118 1.824-.332 2.925c-.063.313-.106.852-.293 1.383-.328.922-1.961 2.762-2.325 3.168l-2.058 2.227c-1.578-1.27-4.305-2.969-7.805-3.11-3.715-.144-7.316 1.461-10.703 4.786l-1.043 1.02.781 1.237c.117.188 2.903 4.493 7.89 5.461 3.235.625 6.759-.355 10.102-2.75l-2.433-2.758c-2.488 1.782-4.738 2.376-6.945 1.961-2.086-.394-3.668-1.699-4.606-2.687 2.246-1.848 4.52-2.734 6.777-2.656 3.957.148 6.73 3.254 6.754 3.277l5.864 6.79 2.382-2.77-4.48-5.192 5.242-6.55 2.137-2.66c.5 2.636 2.898 7.187 3.922 8.773l-5.817 6.785-2.324 2.707-.035.043-.027.027-2.48 2.899c-1.302 1.347-5.817 5.832-11.114 8.683 0 0 1.66 1.149 3.844 1.102 1.312-.016 2.812-.457 4.261-1.828.594-.563 1.457-1.336 2.301-2.164 0 0-.394.972.55 2.726.731 1.352 2 2.156 3.724 2.219 2.691.098 4.628-1.317 5.972-2.934L38.64 58.98s-1.75 2.485-3.875.965c-.782-.734-.72-1.976-.72-1.976s-.019-.418.388-1.285c1.449-2.465 5.418-7.645 7.77-10.66l1.812-2.297 2.59 2.984.003-.008 1.016 1.184v.004l.055.066-4.532 5.621 2.059 2.309L50 50.648l.012.012.011-.012 5.848 6.508-.004.004 2.426 2.727v-.004l.863.918.598.672c1.332 1.457 3.176 2.668 5.672 2.574 1.722-.067 2.988-.871 3.715-2.219.949-1.762.55-2.73.55-2.73.848.832 1.711 1.601 2.305 2.168 3.856 3.644 8.106.726 8.106.726-5.297-2.851-9.817-7.332-11.118-8.683l-1.41-1.653-2.953 3.313c1.434 1.96 1.36 3.004 1.36 3.004s.062 1.242-.72 1.98c-2.116 1.535-3.991-1.113-3.991-1.113l-5.875-7.137-.036-.031-3.015-3.719.054-.07h-.003l2.238-2.594 1.347-1.559.594.75 3.84 5.192 2.7-3.211-4.395-5.125-.004.02-.434-.504c1.024-1.586 3.422-6.137 3.922-8.774l2.137 2.664 5.242 6.551-1.074 1.238-4.403 5.106-3.808 4.41-1.145 1.316 2.395 2.766 1.898-2.2.196-.226 2.855-3.3 1.664-1.926 5.195-6.012c.02-.024 2.793-3.133 6.75-3.278 2.254-.082 4.528.81 6.774 2.653-.934.988-2.52 2.293-4.602 2.691-2.207.414-4.48-.199-6.968-1.984L72.938 45.3c3.34 2.398 6.828 3.402 10.058 2.777 4.992-.973 7.777-5.281 7.895-5.465l.777-1.234ZM53.401 67.773l-2.449 2.895.277.324h-.007l1.488 1.727c.781.957 2.93 3.437 3.266 5.988 0 0 2.125-2.922.507-7.027 0 0-.238-1.078-3.078-3.907"/><path fill="#FFF" d="m51.46 62.242-3.858 4.469c-3.883 3.621-4.18 4.969-4.18 4.969-1.617 4.11.504 7.027.504 7.027.332-2.547 2.48-5.027 3.265-5.977L48.684 71l-.008-.008 5.34-6.172 3.156-3.652-2.356-2.809Zm0 0"/></svg>