<svg xmlns="http://www.w3.org/2000/svg" viewBox="0 0 100 100"><path fill="#1DB898" d="M0 0h100v100H0z"/><path fill="#FFF" d="M40.031 29.39H28.324L12.5 70.614h11.332l10.348-28.52 10.035 28.52h11.332Zm32.75 14.704c-2.117-.715-3.18-1.93-3.023-3.563a4 4 0 0 1 3.535-3.351c4-.59 8.34 2.508 8.34 2.508l4.066-7.91a23.33 23.33 0 0 0-13.804-3.45c-8.22.453-12.907 6.117-13.278 12.559-.328 5.258 2.11 9.777 9.336 12.281 2.578.887 6.445 1.61 7.727 3.555 1.683 2.46 0 6.761-6.078 5.797-4.153-.68-8.141-4.008-8.141-4.008l-4.543 8.5a25.85 25.85 0 0 0 16.668 4.644C87.613 70.56 89.109 57.512 86.367 52.2c-2.746-5.312-9.324-6.664-13.586-8.105"/></svg>