<svg xmlns="http://www.w3.org/2000/svg" viewBox="0 0 100 100"><path fill="#60998E" d="M0 0h100v100H0z"/><path fill="#0063AD" d="m45.398 51.117 1.844-3.687h23.719v3.687Zm0 0"/><path fill="#0063AD" d="m79.926 72.652-.688-.476-.355-.024c-1.5-1.093-11.938-9.03-15.594-21.093-3.937-13-5.852-17.54-5.852-17.54H41.149s-.125 1.102-.89 3.438c-.766 2.328-5.598 9.691-8.528 12.879-2.925 3.191-8.015 6.562-8.015 6.562s5.914 4.418 12.027 2.641c6.11-1.777 11.137-13.926 12.852-19.203l1.968 7.18s2.93 13.496 5.22 17.297c1.62 2.687 4.507 6.46 10.398 7.898 3.843 1.523 13.746.441 13.746.441"/><path fill="#0063AD" d="m48.61 39.148 2.148 7.813c.031.148 2.949 13.523 5.199 17.258 1.25 2.074 5.05 8.39 15.39 8.39 1.231 0 2.536-.093 3.88-.265l3.308-.215c-2.156-1.621-11.933-9.488-15.433-21.012-3.555-11.73-5.477-16.61-5.797-17.406H41.32a23 23 0 0 1-.875 3.3c-.789 2.419-5.675 9.798-8.566 12.95-2.555 2.785-6.797 5.742-7.824 6.437.91.622 4.515 2.872 8.656 2.872 1.027 0 2.031-.141 2.969-.415 5.68-1.656 10.672-12.77 12.722-19.078Zm22.738 33.84c-10.563 0-14.457-6.457-15.735-8.578-2.281-3.789-5.12-16.805-5.246-17.355l-1.793-6.54c-2.191 6.462-7.125 17.063-12.781 18.708-.973.28-2.012.43-3.078.43-4.91 0-9.082-3.071-9.125-3.102l-.211-.156.226-.153c.047-.035 5.102-3.398 7.98-6.535 2.864-3.121 7.704-10.43 8.485-12.812.75-2.278.88-3.387.88-3.399l.023-.172h16.601l.047.121c.024.047 1.965 4.696 5.867 17.563C67.363 63.8 79.07 72.05 79.191 72.133l.446.308-4.367.282c-1.301.172-2.61.257-3.918.265"/><path fill="#FFF" d="M33.582 40.547S9.664 59.609 19.152 66.66c9.493 7.047 33.606-2.86 33.606-2.86s-19.274 9.34-31.621 7.813c-12.364-1.527-8.211-9.625-6.922-12.578 1.285-2.957 7.015-9.625 14.531-15.058 7.504-5.43 4.832-3.43 4.832-3.43m37.496-13.2q-.836.141-1.668.305l-1.105.23a88.7 88.7 0 0 0-13.871 4.266s43.39-10.894 22.539 16.043l-8.367 9.211s14-9.605 17.855-19.093c3.816-9.414-3.184-12.489-15.383-10.961"/></svg>