<svg xmlns="http://www.w3.org/2000/svg" viewBox="0 0 100 100"><path fill="#D81E05" d="M0 0h100v100H0z"/><path fill="#FFF" d="M0 28.598c43.395-6.235 100-8.336 100-8.336v50s-51.812.902-100 8.336Zm0 0"/><path fill="#D7211B" d="M20.691 62.504c9.93-7.953 17.02-14.766 19.133-18.465.899-1.422 1.188-2.785.688-3.894-.926-2.067-4.192-2.692-8.227-1.918a318 318 0 0 1 54.871-7.297.327.327 0 0 1 .121.637 179.1 179.1 0 0 0-62.754 35.421l-.078.04-11.761 2.034c-.168.032-.25-.187-.121-.285A308 308 0 0 0 20.69 62.5"/><path fill="#93282B" d="m17.785 41.824-.824.227c-.16.047-.145.281.023.308l4.668.664 8.157 1.168a.2.2 0 0 0 .093-.015c5.739-2.739 9.563-3.793 10.407-2.598.261.363.218.934-.086 1.672a6 6 0 0 1-.399.793c.895-1.418 1.188-2.781.688-3.895-.93-2.062-4.192-2.691-8.239-1.918l-1.39.317q-6.603 1.498-13.094 3.277"/></svg>