<svg xmlns="http://www.w3.org/2000/svg" viewBox="0 0 100 100"><path fill="#FED302" d="M0 0h100v100H0z"/><path fill="#153152" d="M60.5 82.666a59 59 0 0 1-1.167-6.766 28.47 28.47 0 0 1-21 9.1c-13.066 0-20.766-7.7-20.766-19.6 0-11.2 5.833-17.967 17.5-20.533 15.4-3.734 23.566-2.567 23.566-7.7v-1.634c0-3.966-3.033-5.833-8.633-5.833-6.3 0-9.8 2.567-10.733 7.467H19.2C21.3 22 31.567 15 50.467 15c11.666 0 19.833 2.8 24.266 8.633 4.2 5.367 4.434 12.134 4.434 21.234v25.2c0 5.833.933 9.333 3.266 10.5v2.566H60.5Zm-15.167-27.3c-4.9 1.4-7.233 3.267-7.233 7.467a7.47 7.47 0 0 0 2.173 5.76 7.47 7.47 0 0 0 5.76 2.173c7.467 0 12.6-4.666 12.6-11.666v-7.7c-3.5 2.333-8.4 2.566-13.3 3.966" style="stroke-width:.933329"/></svg>