<svg xmlns="http://www.w3.org/2000/svg" viewBox="0 0 100 100"><path fill="red" d="M0 0h100v100H0z"/><path fill="#FFF" d="M24.41 12.5s-7.27 6.414-7.844 19.898c-.64 14.735 7.266 29.594 33.297 31.485.082.015.172.015.25.027C36.883 48.54 27.98 28.883 24.41 12.5m25.703 51.406a97 97 0 0 0 6.875 7.2H29.004c.375.87 1.656 1.48 4.57 1.652C51.043 73.793 53.516 87.5 78.516 87.5c2.191 0 3.562-.133 4.949-.39-9.88-3.04-18.75-8.75-26.477-16.005h6.91c2.868 0 4.137.239 4.934.602-1.223-3.809-5.09-6.781-18.719-7.797Zm0 0"/></svg>