<svg xmlns="http://www.w3.org/2000/svg" viewBox="0 0 100 100"><defs><radialGradient id="a" cx="34.182" cy="85.191" r="33.629" fx="34.182" fy="85.191" gradientTransform="matrix(.67753 1.74486 -1.60221 .62208 145.631 -64.131)" gradientUnits="userSpaceOnUse"><stop offset="0" stop-color="#D66D02"/><stop offset="1" stop-color="#D66D02" stop-opacity="0"/></radialGradient><radialGradient id="b" cx="34.182" cy="85.191" r="33.629" fx="34.182" fy="85.191" gradientTransform="matrix(.67753 1.74486 -1.60221 .62208 145.631 -64.131)" gradientUnits="userSpaceOnUse"><stop offset="0" stop-color="#D66D02"/><stop offset="1" stop-color="#D66D02" stop-opacity="0"/></radialGradient><radialGradient id="c" cx="34.182" cy="85.191" r="33.629" fx="34.182" fy="85.191" gradientTransform="matrix(.67753 1.74486 -1.60221 .62208 145.631 -64.131)" gradientUnits="userSpaceOnUse"><stop offset="0" stop-color="#D66D02"/><stop offset="1" stop-color="#D66D02" stop-opacity="0"/></radialGradient><radialGradient id="d" cx="34.182" cy="85.191" r="33.629" fx="34.182" fy="85.191" gradientTransform="matrix(.60995 1.5684 -1.33473 .51902 125.153 -49.32)" gradientUnits="userSpaceOnUse"><stop offset="0" stop-color="#D66D02"/><stop offset="1" stop-color="#D66D02" stop-opacity="0"/></radialGradient><radialGradient id="e" cx="25.756" cy="94.83" r="33.629" fx="25.756" fy="94.83" gradientTransform="matrix(.78668 1.07648 -.93841 .68574 95.057 -31.318)" gradientUnits="userSpaceOnUse"><stop offset="0" stop-color="#F7B94A"/><stop offset="1" stop-color="#F7B94A" stop-opacity="0"/></radialGradient></defs><path d="M0 0h100v100H0z"/><path fill="#EF9827" d="M89.582 49.996c0 21.59-17.723 39.086-39.582 39.086S10.418 71.586 10.418 49.996c0-21.586 17.723-39.082 39.582-39.082S89.582 28.41 89.582 49.996m0 0"/><path d="M89.582 49.996c0 21.59-17.723 39.086-39.582 39.086S10.418 71.586 10.418 49.996c0-21.586 17.723-39.082 39.582-39.082S89.582 28.41 89.582 49.996m0 0"/><path fill="url(#a)" d="M89.582 49.996c0 21.59-17.723 39.086-39.582 39.086S10.418 71.586 10.418 49.996c0-21.586 17.723-39.082 39.582-39.082S89.582 28.41 89.582 49.996m0 0"/><path fill="url(#b)" d="M89.582 49.996c0 21.59-17.723 39.086-39.582 39.086S10.418 71.586 10.418 49.996c0-21.586 17.723-39.082 39.582-39.082S89.582 28.41 89.582 49.996m0 0"/><path fill="url(#c)" d="M89.582 49.996c0 21.59-17.723 39.086-39.582 39.086S10.418 71.586 10.418 49.996c0-21.586 17.723-39.082 39.582-39.082S89.582 28.41 89.582 49.996m0 0"/><path fill="url(#d)" d="M89.582 49.996c0 21.59-17.723 39.086-39.582 39.086S10.418 71.586 10.418 49.996c0-21.586 17.723-39.082 39.582-39.082S89.582 28.41 89.582 49.996m0 0"/><path fill="url(#e)" d="M89.582 49.996c0 21.59-17.723 39.086-39.582 39.086S10.418 71.586 10.418 49.996c0-21.586 17.723-39.082 39.582-39.082S89.582 28.41 89.582 49.996m0 0"/></svg>