<svg xmlns="http://www.w3.org/2000/svg" viewBox="0 0 100 100"><path fill="#E32526" d="M0 0h100v100H0z"/><path fill="#FFF" d="M45.703 30.152c-3.933 5.168-8.16 11.746-11.988 18.32 2.238-.511 4.39-.956 6.402-1.335 1.653-6.094 3.625-12.328 5.586-16.985m.988 15.883c1.13-.168 4.805-.601 4.664.938-.218 2.484-1.152 2.445-4.437 3.152-.621.14-1.285.281-1.977.426-.05.168-.105.265-.144.27-1.234 5.808-1.332 8.003-2.012 13.062-.293 2.21.14 4.594-2.496 4.96-2.637.38-3.547-2.335-3.531-4.652.008-4.101 2.078-12.14 2.09-12.187-2.684.684-5.559 1.46-8.422 2.351-3.406 5.79-9.621 19.739-10.39 23.227-.626 2.793-1.888 3.648-3.75 2.832-1.852-.805-2.891-2.656-2.255-4.758 1.73-5.77 8.274-18.27 8.375-18.496-2.426.977-4.687 2.024-6.636 3.137-1.211.683-2.75.031-3.079-1.418-.214-1.043-.695-3.07 1.664-4.149 3.786-1.726 7.899-3.167 12.008-4.355 8.73-14.687 19.563-29.754 22.684-29.477 1.36.114 1.148 1.579 2.336 2.903 1.183 1.316 1.347 2.129-.07 5.625-2.876 7.187-2.641 5.508-5.422 16.73.273-.039.53-.082.8-.12"/><path fill="#FFF" d="M80.879 28.55c-3.934 5.169-8.16 11.747-11.988 18.317a170 170 0 0 1 6.402-1.332c1.652-6.094 3.625-12.328 5.586-16.984m.988 15.883c1.13-.168 4.805-.606 4.664.937-.219 2.484-1.152 2.445-4.437 3.152-.621.137-1.285.282-1.977.426-.05.168-.105.266-.144.27-1.235 5.808-1.332 8.004-2.012 13.058-.293 2.215.14 4.598-2.496 4.961-2.637.383-3.547-2.332-3.531-4.648.007-4.102 2.078-12.14 2.09-12.188-2.684.684-5.56 1.461-8.422 2.352-3.407 5.789-9.622 19.738-10.391 23.226-.625 2.793-1.887 3.649-3.75 2.832-1.852-.804-2.89-2.656-2.254-4.757 1.73-5.77 8.273-18.27 8.375-18.496-2.426.976-4.687 2.023-6.637 3.132-1.21.688-2.75.036-3.078-1.414-.215-1.043-.695-3.074 1.664-4.152 3.785-1.723 7.899-3.168 12.008-4.352 8.73-14.687 19.563-29.757 22.684-29.476 1.359.113 1.148 1.578 2.336 2.902 1.183 1.317 1.347 2.125-.07 5.625-2.876 7.188-2.641 5.508-5.423 16.73.274-.038.532-.081.801-.12"/></svg>