<svg xmlns="http://www.w3.org/2000/svg" viewBox="0 0 100 100"><path fill="#040042" d="M0 0h100v100H0z"/><path fill="#5162AA" d="M58.637 19.484h4.484v3.493h-4.484Zm0 0"/><path fill="#8C338A" d="M42.71 56.637h13.45v14.468H42.71Zm0 0"/><path fill="#5D81C1" d="M51.328 74.363h8.8v5.325h-8.8Zm0 0"/><path fill="#E75027" d="M46.016 76.855H56.64V87.5H46.016Zm0 0"/><path fill="#D5292A" d="M59.328 66.715h9.133v3.992h-9.133Zm0 0"/><path fill="#F6A124" d="M55.977 59.898h9.296v2.493h-9.296Zm0 0"/><path fill="#6A95CD" d="M68.43 67.215h6.472v1.828H68.43Zm0 0"/><path fill="#3370B6" d="M55.977 48.418h8.968v11.477h-8.968Zm0 0"/><path fill="#74C7DC" d="M38.637 39.695h17.437V56.82H38.637Zm0 0"/><path fill="#92C144" d="M28.246 39.61h11.625v9.476H28.246Zm0 0"/><path fill="#5162AA" d="M43.355 23.64h20.5v16.133h-20.5Zm0 0"/><path fill="#199BD6" d="M64.777 41.77h14.45v17.628h-14.45Zm0 0"/><path fill="#F6A124" d="M62.617 51.75h12.29v15.633h-12.29Zm0 0"/><path fill="#D5292A" d="M55.977 62.39h9.132v8.981h-9.132Zm0 0"/><path fill="#1F9AA7" d="M50.5 67.879h11.79v6.488H50.495Zm0 0"/><path fill="#A5BFDF" d="M74.906 57.898h2.492v7.817h-2.492Zm0 0"/><path fill="#3FB6AF" d="M79.223 41.27h6.644v4.156H79.22Zm0 0"/><path fill="#AF2458" d="M78.727 45.258h4.812v2.66h-4.812Zm0 0"/><path fill="#7AC19A" d="M55.977 32.79h8.968v15.796h-8.968Zm0 0"/><path fill="#E5DF22" d="M64.777 26.469h12.121v15.3H64.773Zm0 0"/><path fill="#34BBD0" d="M63.281 23.64h8.801v14.305h-8.8Zm0 0"/><path fill="#6BA8DB" d="M75.07 37.613h11.957v4.157H75.07Zm0 0"/><path fill="#DF5297" d="M76.898 28.3h5.641v9.313H76.9Zm0 0"/><path fill="#604696" d="M80.883 31.29h5.312v3.827h-5.312Zm0 0"/><path fill="#F9D805" d="M79.555 35.117h7.476v3.824h-7.476Zm0 0"/><path fill="#5162AA" fill-rule="evenodd" d="M63.117 19.32h-4.48v3.657h4.48Zm-11.625.16h-8.129v8.98H51.5Zm0 0"/><path fill="#16B9E7" d="M18.29 19.484h25.233v20.29H18.29Zm0 0"/><path fill="#42AD4B" d="M31.234 12.5h8.805v11.477h-8.805Zm0 0"/><path fill="#E6B722" d="M12.969 38.11h16.273v6.32H12.97Zm0 0"/><path fill="#B9CF36" d="M51.492 13.5h6.313v10.145h-6.313Zm0 0"/><path fill="#92C144" d="M59.965 51.75h2.492v2.492h-2.492Zm0 0"/></svg>