<svg xmlns="http://www.w3.org/2000/svg" viewBox="0 0 100 100"><defs><linearGradient id="a" x1="6.113" x2="21.642" y1="9.892" y2="9.892" gradientTransform="translate(8.333 8.336)scale(3.47213)" gradientUnits="userSpaceOnUse"><stop offset="0" stop-color="#FDE449"/><stop offset="1" stop-color="#272525"/></linearGradient><linearGradient id="b" x1="-47.375" x2="-46.375" y1="143.986" y2="143.986" gradientTransform="matrix(61.86633 0 0 -5.09031 2960.53 772.336)" gradientUnits="userSpaceOnUse"><stop offset="0" stop-color="#3DB94D"/><stop offset="1" stop-color="#272525"/></linearGradient><linearGradient id="c" x1="-46.794" x2="-45.794" y1="141.352" y2="141.352" gradientTransform="matrix(48.58649 0 0 -4.53522 2303.044 686.464)" gradientUnits="userSpaceOnUse"><stop offset="0" stop-color="#EF2C30"/><stop offset=".034" stop-color="#EF2C30"/><stop offset="1" stop-color="#272525"/></linearGradient><linearGradient id="d" x1="-46.506" x2="-45.507" y1="145.19" y2="145.19" gradientTransform="matrix(43.9129 0 0 -5.392 2072.568 831.64)" gradientUnits="userSpaceOnUse"><stop offset="0" stop-color="#231F20"/><stop offset="1" stop-color="#272525"/></linearGradient></defs><path fill="#272525" d="M0 0h100v100H0z"/><path fill="#FDE449" d="m39.297 56.05 20.266.122 7.425 7.605-13.664.137-14.144-7.508Zm-9.828-15.507c-.989-.242-12.43-4.918-16.242-4.79-5.29.606-4.547 7.25-4.547 7.25s1.3-2.01 4.093-1.19c2.797.82 24.079 12.507 24.079 12.507l22.652.367-2.352-3.937s-26.699-9.965-27.68-10.207"/><path fill="url(#a)" d="M83.477 41.152H30.215s-.656.778-.656 3.008c.304.102 48.011.031 48.011.031Zm0 0"/><path fill="#3DB94D" d="m71.723 37.781-39.594.387-2.524 3.039h54.176l5.336-2.508 2.352-1.11Zm0 0"/><path fill="url(#b)" d="m91.254 37.594-59.125.574-2.524 3.039H83.79l7.68-3.61Zm0 0"/><path fill="#272525" d="M38.629 56.355v-.554h21.309l8.835 8.664H53.191l-14.816-7.617.254-1.043Zm0 0 .25-.496 14.582 7.496h12.602l-6.579-6.449H38.63Zm0 0 .25-.492Zm9.746 1.875 5.66 2.43.211-3.433 6.149 3.375-.118-1.508 1.102-.09.285 3.559-6.418-3.524-.2 3.262-7.108-3.051Zm0 0"/><path fill="#272525" d="M50.484 58.64v-1.01h1.727v1.012m5.219-.098v-1.012h1.726v1.008"/><path fill="#EE2C30" d="m73.758 46.91 4.305-3.043m0 0-48.586.047s.246 2.258.859 3.012l43.422-.016"/><path fill="url(#c)" d="m73.762 46.91 4.297-3.039-48.582.04v.01c.02.161.27 2.278.855 3h2.723Zm0 0"/><path fill="#231F20" d="m74.246 46.82-43.91.051s.648 2.797 4.387 3.863h34.851Zm0 0"/><path fill="url(#d)" d="M74.238 46.82H71.61l-41.273.051v.012c.05.207.797 2.82 4.383 3.855h34.855Zm0 0"/><path fill="#272525" d="m57.465 50.566 2.687 4.493H36.797l-.082-.051s-1.39-.778-3.512-1.95a1151 1151 0 0 0-12.176-6.66 310 310 0 0 0-5.52-2.91 58 58 0 0 0-1.874-.922 6.4 6.4 0 0 0-.945-.39 3.34 3.34 0 0 0-2.934.687q-.306.24-.555.543l-.133.172-.035.047-.004.012-.62.972-.06-1.152a17 17 0 0 1 .165-3.152c.148-.973.406-1.98.906-2.75l.312.207-.32-.192c.707-1.222 2.164-2.047 4.477-2.035q.397-.002.836.031l-.028.368.012-.368c.91.032 2.285.364 3.883.844 4.777 1.438 11.45 4.219 11.457 4.219l-.14.344-.368-.059c.129-.879.492-1.852 1.336-2.621.844-.766 2.14-1.305 4.074-1.41h.028c1.406.035 8.183.047 16.574.047 13.36-.004 26.722-.016 40.082-.047l.031.738-8.02.61-48.484.105h-.015a7 7 0 0 0-.649-.031c-2.113.011-3.172.843-3.797 1.863-.617 1.023-.738 2.289-.734 3.043q0 .33.035.66l-.738.094c0-.012-.035-.305-.035-.754 0-.828.117-2.207.843-3.422.72-1.223 2.11-2.234 4.426-2.223q.34.001.703.032l-.027.367v-.367l48.437-.106 8-.605.028.367v.367s-23.293.047-40.082.047c-8.399 0-15.164-.012-16.594-.047l.012-.367.015.367c-1.82.102-2.925.59-3.617 1.215a3.58 3.58 0 0 0-1.101 2.187l-.07.47-.438-.18s-.735-.31-1.899-.774q-3.474-1.39-7.008-2.617c-2.554-.879-5.023-1.59-6.171-1.617h-.016q-.394-.031-.781-.032c-2.157.008-3.278.72-3.844 1.672v.008l-.008.012c-.406.601-.66 1.531-.8 2.45-.137.92-.165 1.82-.165 2.394 0 .382.012.605.012.609l-.367.023-.313-.203c.016-.02.309-.484.887-.953a4.08 4.08 0 0 1 3.563-.832c.312.078.84.317 1.636.707 5.516 2.672 22.578 12.203 22.586 12.207l-.18.32v-.37h21.954l-2.02-3.372Zm0 0"/><path fill="#272525" d="M13.438 38.137c0 .37-.301.668-.668.668a.66.66 0 0 1-.665-.668.665.665 0 0 1 .668-.668c.368 0 .668.3.668.668"/></svg>