<svg xmlns="http://www.w3.org/2000/svg" viewBox="0 0 100 100"><path fill="#00558E" d="M0 0h100v100H0z"/><path fill="#4EBCEC" d="M69.805 57.992c-.387.801-.782 1.656-1.36 2.711a21.7 21.7 0 0 1-2.21 3.348c-2.313 2.898-8.055 6.195-14.637 8.32-6.586 2.129-14.215 3.652-17.282 4.277-3.074.625-9.949 1.512-12.148 1.774a85 85 0 0 1-5.816.422c-.735.031-2.551.05-2.739.047a17 17 0 0 1-.715-.043l-.398-.055s.129.066.313.125c.183.062.464.137.648.172.18.031.613.11.984.156.371.047 1.977.223 2.23.25.255.024 3.723.367 6.36.426s8.05.3 16.254-.723c7.781-.976 17.988-3.351 25.64-6.511 7.65-3.16 12.028-5.735 14.548-7.344 2.527-1.614 8.023-5.305 8.023-5.305-7.367-2.031-16.273-2.012-17.695-2.047"/><path fill="#64AE53" d="M76.313 20.012c-1.938.011-4.262.14-4.262.14l-1.043 33.27c.05-.215 1.14-3.738 2.195-7.582 1.219-4.469 2.43-9.352 2.563-9.863l2.18-8.73c.234-.93 1.003-3.813 1.136-5.173.188-1.969-.832-2.012-1.05-2.027a25 25 0 0 0-1.72-.035m-7.16.386c-1.164.145-2.324.36-3.46.649-2.313.601-3.856 2.027-5.575 3.59q-2.144 1.945-4.234 3.941l-.219.207.516 30.38c.36-.06 3.625-.595 6.925-.895 3.868-.352 6.028-.297 6.7-.282ZM53.824 30.566a208 208 0 0 0-6.172 6.274l-.156 24.066q3.047-.712 6.125-1.297Zm-6.21 6.317a132 132 0 0 0-2.712 2.969c-3.875 4.39-7.894 8.93-11.78 13.48l-.774 12.563a86 86 0 0 1 6.379-2.45c3.5-1.172 6.015-1.843 7.203-2.144ZM29.03 58.523s-2.601 3.184-3.687 4.54c-.297.37-1.07 1.37-2.094 2.613-2.758 3.363-7.203 8.695-7.926 9.57-.988 1.203-2.441 3.024-2.82 3.547.441-.39 1.379-1.242 2.605-2.281 1.743-1.485 4.067-3.348 6.352-4.84 2.7-1.742 5.512-3.3 8.418-4.664Zm0 0"/></svg>