<svg xmlns="http://www.w3.org/2000/svg" viewBox="0 0 100 100"><defs><linearGradient id="a" x1="247.692" x2="234.438" y1="6.093" y2="29.012" gradientTransform="translate(-113.826 39.562)scale(.79438)" gradientUnits="userSpaceOnUse"><stop offset="0" stop-color="#999"/><stop offset=".6" stop-color="#FFF"/></linearGradient></defs><path fill="#202F64" d="M0 0h100v100H0z"/><path fill="url(#a)" d="M85.93 47.246c-2.352 2.344-7.45 4.356-9.957 5.297-3.426 1.289-4.95 1.746-6.864 2.371-2.171.703-6.515 2.023-6.515 2.023 8.996 2.688 15.328 3.5 15.328 3.5s2.957-.914 7.633-3.421c2.535-1.29 3.78-2.157 4.672-2.989.328-.3 1.175-1.18 1.386-2.316.016-.082.055-.297.055-.512 0 0 0-.148-.012-.277a1 1 0 0 0-.035-.254s-.047-.266-.113-.457a3.1 3.1 0 0 0-.828-1.145c-.313-.254-.856-.89-2.817-1.582a17 17 0 0 0-1.746-.445Zm0 0"/><path fill="#CE210F" d="M91.668 51.137s-.012-.25-.078-.461c-.05-.2-.137-.39-.258-.559a5 5 0 0 0-.66-.785 7 7 0 0 0-.79-.613c-1.23-.805-2.812-1.258-4.21-1.453-2.172-.29-4.664-.235-4.902-.243q-3.656.001-7.313.055c-5.91.121-13.14.137-15.035.137-19.563.086-28.078-.332-37.555-2.238-8.062-1.598-12.535-3.125-12.535-3.125 7.11-.243 48.606-1.97 56.176-2.172 4.957-.14 8.472-.172 11.289-.008 1.5.074 2.996.238 4.476.488a21 21 0 0 1 3.688 1c1.684.625 3.105 1.528 3.805 2.453 0 0 .21.215.492.59.316.438.68.984.805 1.18a24.3 24.3 0 0 1 2.183 3.972c.152.364.215.583.27.73.109.384.136.735.136.81Zm0 0"/></svg>