<svg xmlns="http://www.w3.org/2000/svg" viewBox="0 0 100 100"><path fill="#E5002B" d="M0 0h100v100H0z"/><path fill="#FFF" d="M78.527 12.07a8.214 8.214 0 0 0-7.015 8.125 8.214 8.214 0 0 0 7.015 8.125 8.21 8.21 0 0 0 7.016-8.125 8.21 8.21 0 0 0-7.016-8.125m-29.18 2.082a6.043 6.043 0 1 0 .008 12.085 6.043 6.043 0 0 0-.007-12.085m-29.18.836a5.415 5.415 0 0 0-5.414 5.418 5.418 5.418 0 0 0 10.836-.004 5.42 5.42 0 0 0-5.422-5.414m29.18 24.164c-5.703 0-10.328 4.586-10.328 10.418 0 5.418 4.625 10.418 10.328 10.418 5.754 0 10.418-4.664 10.418-10.418s-4.664-10.418-10.418-10.418m29.18 1.25a9 9 0 0 0-6.41 2.7 8.98 8.98 0 0 0-2.555 6.468 8.97 8.97 0 0 0 4.398 8.012 8.97 8.97 0 0 0 9.137 0 8.97 8.97 0 0 0 4.398-8.012 8.976 8.976 0 0 0-8.969-9.168m-58.359 1.25a7.71 7.71 0 0 0-7.707 7.711 7.705 7.705 0 0 0 7.707 7.707 7.709 7.709 0 1 0 0-15.418m29.18 27.918a9.023 9.023 0 0 0-9.02 9.168 9.02 9.02 0 0 0 4.461 7.953 9.01 9.01 0 0 0 9.121 0 9.02 9.02 0 0 0 4.461-7.953 9.02 9.02 0 0 0-9.023-9.168m-29.18 3.75a5.48 5.48 0 0 0 0 10.832 5.47 5.47 0 0 0 4.668-5.414 5.48 5.48 0 0 0-4.668-5.418m58.36 0a5.42 5.42 0 0 0-5.415 5.422 5.417 5.417 0 1 0 5.414-5.422"/></svg>