<svg xmlns="http://www.w3.org/2000/svg" viewBox="0 0 100 100"><path fill="#1F6BA6" d="M0 0h100v100H0z"/><path fill="#F2734A" d="M78.547 38.547H87.5v35.812h-8.953V70.57q-2.635 2.503-5.281 3.606a14.6 14.6 0 0 1-5.743 1.101c-4.628 0-8.636-1.793-12.015-5.379q-5.07-5.385-5.07-13.382 0-8.298 4.906-13.594 4.906-5.302 11.914-5.297 3.23 0 6.055 1.219 2.83 1.22 5.234 3.652Zm-9.445 7.371q-4.18.002-6.946 2.945c-1.843 1.965-2.765 4.48-2.765 7.555q0 4.641 2.812 7.637 2.818 2.998 6.93 2.996 4.247-.001 7.047-2.95 2.796-2.942 2.797-7.718-.001-4.67-2.797-7.567-2.802-2.899-7.078-2.898"/><path fill="#FFF" d="M21.418 24.723v17.773q2.439-2.438 5.27-3.656 2.83-1.22 6.054-1.219 7.012.001 11.914 5.305 4.906 5.296 4.907 13.594-.002 7.997-5.07 13.375-5.072 5.383-12.016 5.382-3.093 0-5.758-1.101-2.665-1.103-5.301-3.606v3.785H12.5V24.723Zm9.45 21.195q-4.248 0-7.048 2.898-2.796 2.896-2.797 7.567.001 4.776 2.797 7.719 2.8 2.944 7.047 2.949 4.113-.001 6.926-2.996t2.812-7.637q0-4.61-2.761-7.555c-1.844-1.96-4.168-2.945-6.977-2.945"/></svg>