<svg xmlns="http://www.w3.org/2000/svg" viewBox="0 0 100 100"><path fill="#B2B2B2" d="M0 0h100v100H0z"/><path fill="#999" d="m70.145 82.074 1.925-7.129H20.25c-5.777 7.118-7.738 7.13-7.75 7.13Zm0 0"/><path fill="#008DB6" d="M20.25 74.945h51.82L74 67.816H26.04Zm0 0"/><path fill="#94C11F" d="M26.035 67.816H74l1.934-7.129h-44.11Zm0 0"/><path fill="#5588C7" d="M31.824 60.688H75.93l1.93-7.126H37.61Zm0 0"/><path fill="#F39200" d="M37.605 53.563H77.86l1.926-7.126H43.391Zm0 0"/><path fill="#00AAD2" d="M43.395 46.438h36.394l1.926-7.13H49.18Zm0 0"/><path fill="#9F043E" d="M49.18 39.305h32.535l1.93-7.125h-28.68Zm0 0"/><path fill="#FFD500" d="M54.96 32.184h28.685l1.93-7.13h-24.83Zm0 0"/><path fill="#00528D" d="m85.574 25.05 1.93-7.124h-14.64c-5.032.02-8.231 2.347-12.114 7.125Zm0 0"/></svg>