<svg xmlns="http://www.w3.org/2000/svg" viewBox="0 0 100 100"><path fill="#94815C" d="M0 0h100v100H0z"/><path fill="#E1001E" d="M66.137 51.7c.039.179.05.366.039.55v.96c.015 1.45.027 2.981.027 4.477v3.415l.04.68c.003.753-.032 1.507-.114 2.253a9.7 9.7 0 0 1-3.23 6.074 12 12 0 0 1-2.012 1.43q-.333.175-.676.34a.1.1 0 0 1-.063.023h-.097q-.545-.363-1.102-.703a7.3 7.3 0 0 0-2.586-.93 5 5 0 0 0-1.433-.066 10.14 10.14 0 0 0-7.149 5.219 8.4 8.4 0 0 0-.89 2.488 8 8 0 0 0-.059 2.125 9.9 9.9 0 0 0 2.871 6.285c.89.875 1.86 1.668 2.899 2.36l1.136.707c.043.031.075.031.075.086h.023l.008.02a8.9 8.9 0 0 1-4.414-1.747 14.5 14.5 0 0 1-2.418-1.914 9 9 0 0 1-1.078-1.387 10.7 10.7 0 0 1-1.036-1.675 11.9 11.9 0 0 1-1.128-5.891c.085-1.207.34-2.399.75-3.54a10 10 0 0 1 .906-1.73c1.703-2.793 4.699-4.558 7.297-6.332 1.687-1.14 3.351-2.277 5.027-3.406a26.2 26.2 0 0 0 4.586-3.629 17 17 0 0 0 2.898-4.523c.301-.657.641-1.324.903-2.02"/><path fill="#FFF" d="M66.348 43.5c.047.23.062.469.039.7v1.51c.031.958 0 1.919-.098 2.872a13.9 13.9 0 0 1-2.277 5.48c-.34.567-.742 1.09-1.114 1.645-.328.5-.699.973-1.113 1.406a19 19 0 0 1-2.191 1.93c-1.211.89-2.367 1.781-3.645 2.559-1.297.785-2.527 1.671-3.777 2.52a25.7 25.7 0 0 0-7.274 6.612 12.6 12.6 0 0 0-1.23 2.52 11.3 11.3 0 0 0-.719 4.64 12.5 12.5 0 0 0 1.117 4.192c.34.844.774 1.644 1.29 2.394a13.2 13.2 0 0 0 2.28 2.434q1.262 1.108 2.653 2.047c.133.074.484.371.617.371v.035a8.8 8.8 0 0 1-4.52-2.18 14 14 0 0 1-5.355-10.222 9.9 9.9 0 0 1 .473-4.074c1.89-4.922 6.496-8.715 10.668-11.864l4.375-3.332c.93-.718 1.894-1.425 2.832-2.148.277-.277.57-.559.844-.828a26.4 26.4 0 0 0 3.894-4.88q.475-.741.89-1.519c.47-.98.81-2.015 1.024-3.082q.205-.857.317-1.738"/><path fill="#000F8F" d="M65.879 10.418c.297 0 .566-.012.715.223.129.46.164.945.105 1.418 0 1.668-.043 3.32-.043 5.015 0 .48-.035.957-.035 1.446 0 4.16-.031 8.25-.031 12.433v3.606c.023 1.316.086 2.66.055 3.992a19.95 19.95 0 0 1-2.735 9.531 16.6 16.6 0 0 1-1.926 3.117c-.605.676-1.203 1.356-1.87 1.973a59 59 0 0 1-4.048 3.383 946 946 0 0 0-4.296 3.57c-1.016.758-2.032 1.527-2.997 2.387-.605.531-1.203 1.117-1.812 1.675-.648.586-1.195 1.258-1.813 1.88a16.85 16.85 0 0 0-4.12 6.308 10.74 10.74 0 0 0-.563 4.953 13.54 13.54 0 0 0 5.207 9.961c.95.762 1.988 1.406 3.094 1.918.27.156.562.27.863.344.008 0 0 .027 0 .031a20.4 20.4 0 0 1-9.945-3.941 20 20 0 0 1-1.536-1.368A17.42 17.42 0 0 1 33.383 70.2a21.8 21.8 0 0 1 1.84-7.078 30.1 30.1 0 0 1 7.53-9.402c.684-.582 1.352-1.133 2.04-1.707 1.145-.91 2.285-1.88 3.426-2.856l1.593-1.383c1.555-1.468 3.16-2.878 4.602-4.488a63 63 0 0 0 4.781-6.027c.86-1.27 1.637-2.578 2.414-3.86a26 26 0 0 0 1.57-3.132 35.3 35.3 0 0 0 2.887-12.848 24.6 24.6 0 0 0-.23-4.113 53 53 0 0 1-.266-1.375 3.4 3.4 0 0 1-.117-1.004c.027-.285.227-.403.43-.508Zm0 0"/></svg>