<svg xmlns="http://www.w3.org/2000/svg" viewBox="0 0 100 100"><path fill="#0033A1" d="M0 0h100v100H0z"/><path fill="#FFF" d="M53.61 56.645c4.507-9.672 1.261-21.188-7.63-27.086A162 162 0 0 1 57.133 19.12a96.5 96.5 0 0 0-13.082 9.32c-9.172-4.78-20.446-2.382-26.875 5.72a21.574 21.574 0 0 0 .535 27.472C13.586 70.57 12.93 77.743 16.5 80.16c3.906 2.594 12.383-2.117 17.531-9.777 0 0-7.875 7.086-12.187 5.46-2.664-1.003-2.664-5.081-.485-10.913 8.543 6.265 20.375 5.402 27.918-2.04l.766 1.434C59.438 63.56 87.5 62.81 87.5 62.81c-.062-1.32-18.645-.047-33.89-6.164m-38.528-9.098a19 19 0 0 1 8.719-15.953 19 19 0 0 1 18.133-1.317 103.4 103.4 0 0 0-22.965 28.786 18.9 18.9 0 0 1-3.887-11.52m18.98 18.98a18.9 18.9 0 0 1-11.742-4.062c3.758-8.477 11.407-19.856 21.844-30.977 8.113 5.11 11.145 15.465 7.063 24.141a34.6 34.6 0 0 1-9.024-5.879l5.719 10.738a18.92 18.92 0 0 1-13.86 6.04"/></svg>