<svg xmlns="http://www.w3.org/2000/svg" viewBox="0 0 100 100"><path fill="#4B4B4D" d="M0 0h100v100H0z"/><path fill="#10ADE4" fill-rule="evenodd" d="m29.992 29.93 17.43-8.715s2.164-.945 0-1.516c-2.16-.57-20.836-6.824-20.836-6.824s-1.875-.395-3.031-.375-1.895 0-1.895 0-3.082.242-2.277 2.652c.812 2.41 4.172 13.641 4.172 13.641s2.086 4.668 6.437 1.137"/><path fill="#FFF" fill-rule="evenodd" d="m37.57 36.75 19.703-11.367s3.543-1.574 6.82 2.656c3.282 4.223 15.915 20.84 15.915 20.84s3.113 5.383-3.406 3.031C70.078 49.56 37.57 36.754 37.57 36.754"/><path fill="#10ADE4" fill-rule="evenodd" d="m34.54 44.71 40.542 17.43s2.297.684.754 2.278C74.3 66.004 54.242 85.262 54.242 85.262s-1.664 2.234-4.547 2.234c-2.886 0-9.593-2.3-11.746-9.437-2.148-7.141-8.71-29.563-8.71-29.563s-.47-6.262 5.3-3.785"/></svg>