<svg xmlns="http://www.w3.org/2000/svg" viewBox="0 0 100 100"><path fill="#0D2B60" d="M0 0h100v100H0z"/><path fill="#D6430D" d="M69.89 12.5s-5.37 1.824-9.058 8.285C57.32 26.93 50.23 46.273 48.266 54.523c-1.371 5.825-6.18 12.813-7.512 15.48-6.215 12.286-12.43 14.22-14.781 14.321-6.739.317-10.04-4.351-10.04-4.351l3.864-.317s2.77 2.633 6.914.176c4.633-2.773 8.144-10.953 10.742-17.48 3.547-9.063 7.3-23.344 9.375-27.735 7.969-15.832 11.16-17.484 15.02-19.8 3.933-2.387 8.043-2.313 8.043-2.313"/><path fill="#D6430D" d="M66.273 15.695c-1.93 1.332-4.425 4.532-4.425 4.532s4.25-7.164 8.882-6.5c6.215.875 9.793 13.062 9.793 13.062s-4.562-7.062-8.492-10.289c-1.582-1.266-4.144-1.93-5.758-.809"/><path fill="#F5A300" d="M74.523 27.633s-6.039.734-9.722 7.195c-3.512 6.14-5.16 8.742-8.918 16.32-2.668 5.34-8.461 18.5-9.797 21.172-6.211 12.285-11.652 13.688-14.004 13.797-6.738.313-10.812-3.828-10.812-3.828l3.859-.312s2.844 2.242 6.426-.672c6.949-5.653 11.093-19.485 15.656-28.399 2.527-4.984 6-11.586 8.39-14.851 4.141-5.688 8-8.95 12.672-10.25 2.387-.668 6.25-.172 6.25-.172"/><path fill="#F5A300" d="M66.273 33.773s3.688-5.687 8.282-4.914c5.687.946 9.515 14.008 9.515 14.008s-6-10.742-10.812-12.781c-2.844-1.191-6.985 3.687-6.985 3.687"/><path fill="#AABC14" d="M69.434 50.379s-5.371.668-8.496 5.723c-1.86 3.015-8.95 15.375-8.95 15.375s-5.304 7.511-7.164 9.863c-2.527 3.265-7.054 6.039-9.406 6.144-6.25.282-8.461-3.3-8.461-3.3l2.875-.207s2.813 1.507 5.34.14c3.687-2 7.969-9.41 10.144-12.851 1.895-3.02 5.512-8.602 7.829-11.899 2.175-3.125 6.703-7.48 11.34-8.847 1.894-.528 4.949-.141 4.949-.141"/><path fill="#AABC14" d="M63.184 54.344s2.949-3.407 5.582-2.98c4.175.628 6.109 9.616 6.109 9.616s-3.16-7.195-6.426-8.707c-1.93-.91-5.265 2.07-5.265 2.07"/></svg>