<svg xmlns="http://www.w3.org/2000/svg" viewBox="0 0 100 100"><path fill="#455CC7" d="M0 0h100v100H0z"/><path fill="#FFF" d="M46.324 41.145c4.832-2.153 10.739.53 12.352 5.367 2.148 4.832-.54 10.738-5.375 12.351-4.828 2.149-10.735-.535-12.344-5.37-1.613-4.833.535-10.204 5.367-12.348m10.739 49.933c0 .54.539.54 1.078 0l1.07-4.832c0-.535.535-.535.535 0l3.223 4.297c0 .535.539 0 1.078-.535v-5.371s0-.535.535-.535h.535l3.758 3.757c.54.536 1.078 0 .54-.539l-.54-5.367c0-.539.54-.539.54-.539l4.292 2.688c.54 0 .54 0 .54-.54l-1.61-5.906-12.89-14.5h-.536c-.535.54-1.61 1.078-2.148 1.078-1.075.532-1.61.532-2.684.532 0 0-.54 0-.54.539l1.079 19.332ZM42.566 8.926c0-.54-.539-.54-1.074 0l-.535 4.832c0 .535-.539.535-.539 0l-3.223-3.762c0-.535-.535 0-.535.54v5.905h-.539l-4.293-4.293c-.539-.539-1.078 0-.539.536l.54 5.37c0 .536-.54.536-.54.536l-4.828-3.223c-.535 0-.535 0-.535.535l1.61 5.91L40.417 36.31h.539c.535-.54 1.61-1.075 2.145-1.61 1.078-.539 1.609-.539 2.683-.539 0 0 .54 0 .54-.535l-1.079-19.332Zm48.86 33.828c.539 0 0-.54 0-1.078l-5.367-1.07c-.54 0-.54-.536 0-.536l4.296-3.222c.54-.54 0-.54 0-.54h-5.367s-.539 0-.539-.538v-.532l3.758-3.761c.535-.536 0-.536-.535-.536l-5.371.536c-.535 0-.535-.536-.535-.536l2.683-4.296c0-.536 0-.536-.539-.536l-5.902 1.61-13.965 13.426v.53c.539.54 1.074 1.614 1.61 2.157.538 1.066.538 1.605.538 2.68 0 0 0 .539.54.539l19.328-1.078ZM8.738 57.25c-.539 0-.539.54 0 1.078l4.832 1.07c.535 0 .535.536 0 .536l-4.297 3.222c-.535 0 0 .54.536.54h5.37s.536 0 .536.538v.532l-3.754 3.761c-.54.535 0 .535.531.535l5.375-.535c.535 0 .535.535.535.535l-2.687 4.297c0 .536 0 .536.539.536l5.906-1.61 14.5-12.887v-.535c-.539-.535-1.074-1.613-1.61-2.148-.538-1.074-.538-1.61-.538-2.688 0 0 0-.535-.54-.535l-19.327 1.074Zm75.707 16.645c.543 0 .543-.536.543-.536l-2.687-4.296c0-.536 0-.536.535-.536l4.836.535c.535 0 .535-.535.535-.535l-3.758-3.761v-.532s0-.539.54-.539h5.366c.54 0 .54-.539 0-.539l-4.296-3.222c-.54 0 0-.536 0-.536l4.836-1.074c.53 0 .53-.535 0-1.074l-5.375-2.684-19.329-1.078s-.539 0-.539.54c0 1.077-.535 1.613-.535 2.687-.535 1.074-1.074 1.613-1.61 2.148v.535l14.497 12.887Zm-68.73-47.786c-.535 0-.535.536-.535.536l2.687 4.296c0 .536 0 .536-.539.536l-4.836-.536c-.531 0-.531.536-.531.536l3.754 3.761v.532s0 .535-.535 0H9.809c-.536 0-.536.535 0 1.074l4.296 3.222c.54 0 0 .536 0 .536l-4.832 1.074c-.535 0-.535.535 0 1.074l5.372 2.684 19.328 1.078s.539 0 .539-.54c0-1.077.539-1.609.539-2.687.535-1.074 1.07-1.61 1.61-2.144v-.54L22.16 27.72Zm58.531-10.203c0-.539-.539-.539-.539-.539l-4.293 2.688c-.539 0-.539 0-.539-.54l.54-4.831c0-.536-.54-.536-.54-.536l-3.758 3.754h-.535s-.539 0 0-.535v-5.37c0-.536-.539-.536-1.078 0l-3.219 4.296c0 .539-.539 0-.539 0L58.672 8.93c0-.54-.535-.54-1.07 0l-2.688 5.367-1.613 19.332s0 .535.539.535c1.078 0 1.613.54 2.683.54 1.079.534 1.614 1.073 2.153 1.608h.535l12.887-14.496ZM25.922 84.102c0 .535.535.535.535.535l4.293-2.684c.54 0 .54 0 .54.535l-.54 4.832c0 .54.54.54.54.54l3.76-3.758h.536s.535 0 .535.535v5.37c0 .536.54.536 1.078 0l3.219-4.296c0-.54.539 0 1.074 0l1.074 5.367c0 .54.536.54 1.075 0l2.683-5.367 1.074-19.332s0-.535-.535-.535c-1.078 0-1.613-.54-2.683-.54-1.078-.538-1.614-1.074-2.153-1.609h-.535L28.605 78.191Zm0 0"/></svg>