<svg xmlns="http://www.w3.org/2000/svg" viewBox="0 0 100 100"><path fill="#CDDA32" d="M0 0h100v100H0z"/><path fill="#152649" d="M49.488 77.535V21.512h17.953c4.727 0 20.793 0 20.793 13.633 0 9.453-7.289 11.882-11.07 13.23 4.32 1.082 12.418 3.375 12.418 13.77 0 8.507-6.344 15.39-20.789 15.39Zm10.532-33.21h7.421c9.586 0 10.395-5.669 10.395-7.56 0-7.019-7.29-7.019-9.445-7.019H60.02Zm0 24.976h6.613c7.023 0 12.015-2.293 12.015-8.371 0-3.914-2.16-8.504-11.34-8.504H60.02Zm-23.008 8.234-1.082-4.453c-2.43 2.16-6.34 5.402-12.688 5.402-7.562 0-12.824-4.863-12.824-11.613 0-4.32 1.484-9.45 10.797-12.687l12.152-4.051c1.758-.543 1.887-.676 1.887-1.89v-1.755c0-3.511-3.238-4.593-7.152-4.593-6.614 0-12.692 4.05-15.118 5.675v-8.777c2.696-1.488 7.829-4.457 16.606-4.457 13.094 0 15.656 6.617 15.656 14.582v28.484ZM26.21 59.445c-4.184 1.485-5.672 3.512-5.672 6.48 0 4.188 3.648 5.134 5.402 5.134 1.618 0 5.133-.543 9.184-4.727V55.938c-.543.406-.812.539-2.566 1.214Zm0 0"/></svg>