<svg xmlns="http://www.w3.org/2000/svg" viewBox="0 0 100 100"><path fill="#EB2227" d="M0 0h100v100H0z"/><path fill="#fff" d="M75.004 30.996c4.164-.371 8.328-4.433 7.496-8.496-.414-4.062-4.164-6.723-7.91-6.281-2.5.37-5.245 1.523-6.246 3.695-.832 1.848-1.382 4.002-.832 6.281.832 3.325 4.164 4.801 7.492 4.801"/><path fill="#fff" d="M26.29 49.836c.897-4.063-2.915-5.91-5.415-6.648-2.5-.739-4.987-.902-4.164-2.958s3.332-2.953 6.246-3.69c1.726-.439 3.948-1.035 10.41-1.849a25 25 0 0 0 4.164-1.109c2.914-1.11 4.996-4.062 6.246-7.02.414-1.109.832-2.214 1.25-3.324.414-1.847.67-2.843 1.246-4.433.514-1.27 1.25-1.848 2.5-1.848 2.41.07 2.912 1.834 3.747 5.91s.832 10.348 2.914 14.04c1.25 1.48 3.332 1.847 5.832 1.847 2.914 0 6.66-.738 9.992-1.477 3.943-1.214 7.496-2.218 9.578-2.218 1.25 0 2.082.37 2.496 1.48v.738c-.414 2.586-4.578 5.172-9.574 8.13-6.664 4.062-14.992 7.386-18.324 11.448-.414.739-.832 1.848-.832 2.586-.832 4.067 2.082 8.868 5.832 13.301 3.746 4.063 7.078 7.39 6.66 9.606a2.02 2.02 0 0 1-.832 1.109c-.832.367-1.25.367-2.082.367-2.914 0-7.078-2.586-12.075-6.277-5.832-4.434-11.66-10.348-16.242-12.192a4.2 4.2 0 0 0-1.246-.37c-3.332 0-6.246 4.062-7.914 7.757-2.869 6.37-3.895 7.805-5.426 6.118-.836-.738-.82-2.794-.82-4.641 0-1.844.626-4.345 1.25-7.02.92-4.312 3.127-12.105 4.582-17.363"/></svg>