<svg xmlns="http://www.w3.org/2000/svg" viewBox="0 0 100 100"><defs><clipPath id="a"><path d="M12 18h76v63H12Zm0 0"/></clipPath><clipPath id="b"><path d="M52.719 18.129a11.4 11.4 0 0 1-3.723.383 9.7 9.7 0 0 0-4.062.207c-1.25.426-1.973 1.531-3.149 2.113-1.172.586-2.71.191-3.937.941-2.305 1.41-2.235 4.938-3.348 7.165-1.254 2.445-.695 6.253-2.992 8.117a1 1 0 0 1-.34.156 4 4 0 0 1-.445 0c-1.078 0-4.235-1.836-5.625-1.906-.73 0-1.086.36-1.739.425a4 4 0 0 1-.87 0 5.4 5.4 0 0 0-.872 0 9.2 9.2 0 0 0-2.972.934 7.5 7.5 0 0 0-2.403 1.738c-.93 1.008-.816 1.383-1.355 2.504-1.157 2.496-2.32 3.574-1.825 6.453.426 2.489 2.157 5.028 3.555 7.203 1.61 2.504 4.914 2.774 7.16 4.965a58 58 0 0 1 2.461 2.547c.719.809 2.766 2.89 2.903 3.656.14.762-1.114 3.372-1.461 4.094-.668 1.559-1.47 1.965-.547 3.844 1.105 2.227 4.254 3.629 6.086 5.219 2.437 2.12 6.09 1.34 9.097.87 3.012-.468 5.907-.94 8.325-3.48 1.27-1.285 1.808-2.609 3.922-1.894 1.574.531 2.156 1.652 3.843 1.894 1.688.246 2.965.133 4.446.696 1.66.644 2.035 1.316 3.894.566 2.192-.871 6.09-1.824 7.613-4.008.477-.68.391-1.55.72-2.203.226-.469 1.054-1.18 1.183-1.547.383-1.504.422-3.07.113-4.594-.207-.71-1-1.007-1.191-1.503-.254-.676 0-1.547-.278-2.227-.629-1.738-2.168-3.32-1.054-4.078.183-.106 2.472 0 3.765-.8 2.418-1.419 3.168-4.349 5.106-6.15 1.175-1.07 2.125-1.495 2.687-3.128.473-1.367.871-2.871 1.317-4.352.972-3.328-.22-5.078-3.055-6.601-1.297-.696-2.078-1.903-3.367-2.47a22 22 0 0 0-4.215-1.085c-1.61-.277-3.035-.234-4.55-.617a11.1 11.1 0 0 0-4.235-.14c-1.547.226-2.766.956-3.235-1.122-.289-1.332.258-2.887 0-4.27-.382-2.046-1.644-5.68-3.734-6.671-1.223-.59-2.606-.176-3.965-.914a5.04 5.04 0 0 0-2.887-.957h-.765"/></clipPath><clipPath id="d"><path d="M32 18h32v27H32Zm0 0"/></clipPath><clipPath id="e"><path d="M53.363 18.043c-.199 0-.41 0-.644.086-1.207.34-2.461.469-3.715.383-.242 0-1.102-.063-1.434-.07a8.2 8.2 0 0 0-2.61.32c-1.276.383-2 1.488-3.175 2.07-1.172.586-2.71.191-3.937.941-2.305 1.41-2.235 4.938-3.348 7.165-.922 1.835-.871 4.41-1.742 6.375.062.71.199 1.41.402 2.09.348 1.105 2.477 1.027 2.086 3.148l.086.347c1.742 5.688 11.875 4.29 14.785 2.063 1.473-1.14 4.281-2.063 5.418-3.48.985-1.262 4.195-2.27 5.004-3.61 1.262-2.105 2.887-4.922 2.73-6.844a11.31 11.31 0 0 0-6.863-9.941c-1.312-.61-1.738-1.043-2.886-1.043Zm0 0"/></clipPath><clipPath id="g"><path d="M34 18h30v33H34Zm0 0"/></clipPath><clipPath id="h"><path d="m54.371 18.773-.668.094a11.7 11.7 0 0 1-3.871.418c-.242 0-1.2-.078-1.488-.105a8 8 0 0 0-2.711.324c-1.34.406-2.07 1.52-3.274 2.137-1.199.62-2.824.191-4.101.968-1.281.774-2.793 3.547-3.274 7.051-.144 1.168.653 2.262.496 3.586-.675 5.695.942 4.399 2.114 6.703 2.27 4.297 2.047 5.61.914 5.375 1.262 1.524 2.418 3.48 1.488 4.68 3.871.871 8.793-.227 10.68-1.68 1.547-1.191 3.668-2.34 4.851-3.836 1.063-1.304 2.942-5.441 3.809-6.843 1.332-2.157 2.766-2.61 3.793-6.625 1.738-6.715-1.68-9.57-5.297-11.11a13.2 13.2 0 0 0-3.328-1.156h-.113"/></clipPath><clipPath id="j"><path d="M28 54h28v27H28Zm0 0"/></clipPath><clipPath id="k"><path d="M48.613 54.492c-2.383.617-6.687.051-8.781 1.477a12.66 12.66 0 0 0-4.465 5.047c-2.172 2.382-4.531 4.468-5.851 6.32a7.76 7.76 0 0 0-.793 7.168c2.609 5.219 9.218 6.887 14.238 5.297 4.879-1.098 10.855-2.489 11.531-8.977.34-3.219 1.235-6.523.176-9.488-.793-2.172-.984-7.008-4.773-7.008a6 6 0 0 0-1.282.164"/></clipPath><clipPath id="m"><path d="M12 37h27v29H12Zm0 0"/></clipPath><clipPath id="n"><path d="M13.008 46.523c-.043 2.352 1.844 4.899 2.879 6.907 1.496 2.922 2.863 3.047 5.504 4.472a10.85 10.85 0 0 1 4.898 4.965c3.242 6.235 6.766.426 9.566-1.851a9.2 9.2 0 0 0 2.758-8.203 11.07 11.07 0 0 0-3.39-5.547l.953.632c-1.207-1.171-.285-2.66-.817-4.086-.468-1.261-1.218-2.8-1.886-4.203-1.008-2.086-2.164-1.562-3.184-1.035a2.4 2.4 0 0 1-1.504.446 45 45 0 0 1-4.515-1.29 6.9 6.9 0 0 0-2.61-.484c-4.504 0-8.555 4.348-8.695 9.246"/></clipPath><clipPath id="p"><path d="M51 32h33v29H51Zm0 0"/></clipPath><clipPath id="q"><path d="M65.922 32.914a10.7 10.7 0 0 0-3.723 1.887c-1.07.87-1.738 2.965-2.8 3.61-2.489 1.155-2.567 1.737-3.922 3.921-1.122 1.742-2.524 4.27-3.63 6.203a11 11 0 0 0 .192 2.219c.219 1.207 1.61 3.144 1.574 4.207l.055-.418c1.137 6.16 13.707 8.027 11.383 5.02-5.965-7.758 3.332-11.56 4.508-10.114 7.285 9.07 10.234 3.746 10.93 2.809a15.4 15.4 0 0 0 3.042-6.09c2.332-12.871-4.894-11.09-8.965-12.871a6 6 0 0 0-.66 0c-1.277.187-2.578.16-3.844-.086l-.714-.176a5 5 0 0 1-.723-.12 9 9 0 0 0-1.46-.106 8.4 8.4 0 0 0-1.243.105"/></clipPath><clipPath id="s"><path d="M29 34h45v42H29Zm0 0"/></clipPath><clipPath id="t"><path d="M64.633 58.57q.032.012.062 0l-.062.063m-2.531-23.848a8.5 8.5 0 0 0-.965 1.121 4.23 4.23 0 0 1-1.801 1.95 5.6 5.6 0 0 0-1.738 1.136q-.693.839-1.297 1.742c-.824 1.172-2.426 1.45-3.86 1.47h-1.007c-1.985 1.276-4.063 2.015-5.97 1.554-1.163-.293-2.609-2.383-3.737-2.215-1.133.164.625.738-.243 1.738-.87 1-2.175.184-3.011-.687-.567-.582-.965-1.184-1.028-1.164-.234.078.047.687 0 .98-.043.61-.605.985-.668 1.617-.047.434-.011.871.106 1.29.168.484.25.992.25 1.503 0 1.098 0 .739-.067 1.836-.09 2.157-.992 3.063-1.523 5.219-.574 2.32 1.844 3.555-1.063 7.922-.972 1.445-5.32 3.48-5.042 5.219 1.218-.207 1.906-1.582 2.78-2.47 2.098-2.105 7.829-4.35 11.141-4.48 3.48-.156.149 3.723 1.125 4.48.973.755-.957 2.774.121 2.263 1.079-.516 2.61-5.621 3.254-6.864.399-.816 5.922-13.629 6.086 5.703 0 1.844 1.106 2.735.59 4.516-.242.871-3.476 5.48 1.856 4.957.703-4.035-2.34-6.894-.758-8.871.824-1.05 3.781-1.234 3.722-2.61-.12-2.992 1.262-2.921 2.54-2.85.792 0 1.539.085 1.87-.595a8.8 8.8 0 0 1 .868-1.554c-.051 0-.121-.098-.149-.453-.136-1.329 1.047-1.348.496-2.61 1.27.305 1.61-.945 2.665-1.234a9 9 0 0 1 2.894 0c1.738.289 2.61 3.133 2.984 2.957.407-.61-.574-2.13-1.496-2.973a23 23 0 0 1-2.254-2.926c-.867-1.156-.32-2.738-1.625-3.398a1.5 1.5 0 0 0-1.113-.07 3.3 3.3 0 0 1-2.61-.59c-6.956 4.914-1.07-2.496-1.487-4.352-.868-2.39-2.711-3.086-.747-8.226v-.051h-.062"/></clipPath><radialGradient id="c" cx="-47.07" cy="494.27" r="2.52" fx="-47.07" fy="494.27" gradientTransform="matrix(13.5935 0 0 13.59375 689.935 -6670.929)" gradientUnits="userSpaceOnUse"><stop offset="0" stop-color="#FFF"/><stop offset=".07" stop-color="#FFF"/><stop offset=".38" stop-color="#F2D4DA"/><stop offset=".42" stop-color="#EFCBD1"/><stop offset=".69" stop-color="#DB8D98"/><stop offset=".9" stop-color="#CF6675"/><stop offset="1" stop-color="#CA5767"/></radialGradient><radialGradient id="f" cx="-46.84" cy="486.29" r="2.52" fx="-46.84" fy="486.29" gradientTransform="matrix(10.44516 0 0 10.44536 536.11 -5056.012)" gradientUnits="userSpaceOnUse"><stop offset="0" stop-color="#CA5767"/><stop offset=".21" stop-color="#CA5767"/><stop offset=".31" stop-color="#CC5D6C"/><stop offset=".43" stop-color="#D16C7B"/><stop offset=".58" stop-color="#D98793"/><stop offset=".73" stop-color="#E5ABB4"/><stop offset=".87" stop-color="#F2D4DA"/><stop offset="1" stop-color="#F2D4DA"/></radialGradient><radialGradient id="i" cx="-46.83" cy="488.24" r="2.52" fx="-46.83" fy="488.24" gradientTransform="matrix(11.63666 0 0 11.08026 595.085 -5381.035)" gradientUnits="userSpaceOnUse"><stop offset="0" stop-color="#CA5767"/><stop offset=".11" stop-color="#CB5B6B"/><stop offset=".22" stop-color="#D06877"/><stop offset=".34" stop-color="#D77E8B"/><stop offset=".47" stop-color="#E09CA7"/><stop offset=".59" stop-color="#EDC3CA"/><stop offset=".64" stop-color="#F2D4DA"/><stop offset=".75" stop-color="#F4DBE0"/><stop offset=".91" stop-color="#FAF0F2"/><stop offset="1" stop-color="#FFF"/></radialGradient><radialGradient id="l" cx="-46.89" cy="478.09" r="2.52" fx="-46.89" fy="478.09" gradientTransform="matrix(7.55774 0 0 7.55788 393.409 -3555.776)" gradientUnits="userSpaceOnUse"><stop offset="0" stop-color="#FFF"/><stop offset=".41" stop-color="#F2D4DA"/><stop offset=".45" stop-color="#EFCBD1"/><stop offset=".71" stop-color="#DB8D98"/><stop offset=".9" stop-color="#CF6675"/><stop offset="1" stop-color="#CA5767"/></radialGradient><radialGradient id="o" cx="-47.21" cy="485.75" r="2.52" fx="-47.21" fy="485.75" gradientTransform="matrix(9.61894 0 0 9.61913 492.93 -4617.741)" gradientUnits="userSpaceOnUse"><stop offset="0" stop-color="#FFF"/><stop offset=".07" stop-color="#FFF"/><stop offset=".43" stop-color="#F2D4DA"/><stop offset=".46" stop-color="#EFCBD1"/><stop offset=".72" stop-color="#DB8D98"/><stop offset=".9" stop-color="#CF6675"/><stop offset="1" stop-color="#CA5767"/></radialGradient><radialGradient id="r" cx="-46.01" cy="500.02" r="2.52" fx="-46.01" fy="500.02" gradientTransform="matrix(19.29876 0 0 19.29913 984.339 -9617.242)" gradientUnits="userSpaceOnUse"><stop offset="0" stop-color="#CA5767"/><stop offset=".31" stop-color="#CA5767"/><stop offset=".37" stop-color="#CD606F"/><stop offset=".48" stop-color="#D57886"/><stop offset=".61" stop-color="#E1A0AA"/><stop offset=".76" stop-color="#F2D4DA"/><stop offset="1" stop-color="#F2D4DA"/></radialGradient><radialGradient id="u" cx="-46.5" cy="487.1" r="2.52" fx="-46.5" fy="487.1" gradientTransform="matrix(10.0538 0 0 10.05399 518.986 -4841.295)" gradientUnits="userSpaceOnUse"><stop offset="0" stop-color="#FFF"/><stop offset=".09" stop-color="#FFF"/><stop offset=".37" stop-color="#F2D4DA"/><stop offset=".4" stop-color="#EEC8CF"/><stop offset=".5" stop-color="#E1A0AA"/><stop offset=".59" stop-color="#D7808D"/><stop offset=".69" stop-color="#D06978"/><stop offset=".78" stop-color="#CB5C6B"/><stop offset=".85" stop-color="#CA5767"/><stop offset="1" stop-color="#CA5767"/></radialGradient></defs><path fill="#3E62AD" d="M0 0h100v100H0z"/><path fill="#CA5766" fill-rule="evenodd" d="M53.719 17.64a3.55 3.55 0 0 1 1.8.61 5.6 5.6 0 0 0 2.95.98 4.74 4.74 0 0 1 2.05.395c2.27 1.07 3.56 4.906 3.95 7.027a8 8 0 0 1 0 2.227 6.6 6.6 0 0 0 0 2.031c.25 1.117.68 1.125.965 1.125a5 5 0 0 0 .992-.156c.27-.05.531-.125.867-.156q.904-.135 1.82-.164c.844-.004 1.684.093 2.504.293a16 16 0 0 0 2.54.367c.632.05 1.288.125 1.976.242 1.48.227 2.937.602 4.344 1.113.699.332 1.34.778 1.89 1.32a7.3 7.3 0 0 0 1.52 1.157c3.273 1.742 4.218 3.804 3.254 7.101-.102.32-.192.68-.293 1.016a62 62 0 0 1-1.02 3.312 5.3 5.3 0 0 1-2.02 2.61q-.393.316-.769.656c-.77.777-1.43 1.656-1.969 2.606a10.05 10.05 0 0 1-3.207 3.601 6.57 6.57 0 0 1-3.43.828h-.218c-.547.27.047 1.426.45 2.13.26.44.487.91.667 1.394.117.402.176.82.164 1.242a3.2 3.2 0 0 0 .113.965q.153.248.383.425c.375.278.66.665.817 1.102a10.95 10.95 0 0 1-.114 4.918q-.258.48-.64.867-.316.334-.578.715a5 5 0 0 0-.223.813 3.6 3.6 0 0 1-.524 1.449c-1.285 1.851-4.062 2.832-6.285 3.61-.55.19-1.074.378-1.515.554a4.4 4.4 0 0 1-1.563.367 3.8 3.8 0 0 1-1.742-.512c-.27-.125-.566-.273-.934-.41a10 10 0 0 0-2.816-.523c-.496 0-1-.078-1.547-.157a5.26 5.26 0 0 1-2.355-1.062l-.282-.191h-.093a3.1 3.1 0 0 1-2.114-.618 10.45 10.45 0 0 1-4.906 3.664 14.6 14.6 0 0 1-4.523 1.47c-.39.124-.703.206-.98.304a13.2 13.2 0 0 1-3.97.59c-.492 0-1.015 0-1.5-.078a7.08 7.08 0 0 1-4.351-1.243 11 11 0 0 1-3.156-2.28 9.7 9.7 0 0 1-3.36-3.321 2.98 2.98 0 0 1 .11-3.363c.156-.286.304-.575.433-.875l.121-.266a19 19 0 0 0 1.27-3.402c-1.035-.32-1.957-1.262-2.793-2.88a13.5 13.5 0 0 0-1.242-2.05q-.354-.412-.742-.793c-.293-.285-.454-.41-.532-.488a12 12 0 0 0-3.242-2.063 12.5 12.5 0 0 1-2.922-1.808 6.9 6.9 0 0 1-1.539-2.004c-1.348-2.09-2.66-4.29-3.043-6.485a6.64 6.64 0 0 1 .867-4.718q.312-.68.7-1.325.187-.356.328-.66.194-.427.347-.87a4.4 4.4 0 0 1 1.086-1.79 7.8 7.8 0 0 1 2.516-1.855 9.4 9.4 0 0 1 3.137-.965c.312-.047.629-.067.941-.051.207.059.422.09.633.105h.133c.23-.03.449-.109.644-.234.34-.156.715-.223 1.086-.191h.09c1.004.062 4.563 1.875 5.57 1.91q.183.012.367 0a.6.6 0 0 0 .254-.14 4.1 4.1 0 0 0 1.063-1.536c0-.055.039-.113.078-.168l.137-.355c0-.13.078-.25.105-.383q.3-1.056.477-2.137c.05-.203.07-.41.113-.594v-.172l.043-.23v-.938c0-.05 0-.113.05-.175a1 1 0 0 1 .056-.164V29.8c0-.063.042-.125.062-.176 0-.05.05-.11.066-.164v-.043l.079-.168c0-.047.046-.102.07-.164 0-.043.055-.113.078-.156.488-.848.887-1.746 1.191-2.68.5-1.867 1.008-3.79 2.66-4.809a4.74 4.74 0 0 1 2.231-.562 5 5 0 0 0 1.738-.383 7.5 7.5 0 0 0 1.235-.871 5.6 5.6 0 0 1 1.984-1.242q.119-.046.25-.063h.063l.28-.078.204-.043h.062l.235-.047h3.105q.369.042.739.035a9.2 9.2 0 0 0 2.09-.277 9.3 9.3 0 0 1 1.859-.27"/><g clip-path="url(#a)"><g clip-path="url(#b)"><path fill="url(#c)" d="M12.531 18.102H87.68V81.02H12.53Zm0 0"/></g></g><g clip-path="url(#d)"><g clip-path="url(#e)"><path fill="url(#f)" d="M32.758 18.043h30.64v28.543h-30.64Zm0 0"/></g></g><g clip-path="url(#g)"><g clip-path="url(#h)"><path fill="url(#i)" d="M34.805 18.762h30.039v32.07h-30.04Zm0 0"/></g></g><g clip-path="url(#j)"><g clip-path="url(#k)"><path fill="url(#l)" d="M27.785 54.328h27.942v27.063H27.785Zm0 0"/></g></g><g clip-path="url(#m)"><g clip-path="url(#n)"><path fill="url(#o)" d="M12.965 37.281h26.258v31.856H12.965Zm0 0"/></g></g><g clip-path="url(#p)"><g clip-path="url(#q)"><path fill="url(#r)" d="M51.832 32.809h34.031v29.754H51.832Zm0 0"/></g></g><g clip-path="url(#s)"><g clip-path="url(#t)"><path fill="url(#u)" d="M29.176 34.75H73.93v40.816H29.176Zm0 0"/></g></g><path fill="#FFF" fill-rule="evenodd" d="M40.203 59.504c-.719-.516 0-2.367.871-3.281.867-.914 2.18-2.418 1.836-2.61-.351-.191-1.836.172-2.308 0-.47-.172 2.609-1.383 2.933-1.547.32-.168-2.183-.87-3.105-.984s-2.813.172-2.61-.227c.2-.398 1.278-.921 1.496-1.148.22-.223-1.437-1.094-1.546-1.496-.114-.398.343-.809 2.066-.406q1.947.306 3.918.406c.5.098.984.27 1.434.512.285.175.488-.45.73-.356.242.098.781.446.867.098a2.04 2.04 0 0 0-.719-1.426 6.6 6.6 0 0 1-1.421-1.566c-.094-.305-.47-1.043 0-1.207.468-.168.8 0 1.046-.125.243-.121.66-.739 1.27-.47a4.3 4.3 0 0 1 1.094.645c.254.18.574.23.87.141.286-.094.766-.672 1.305-.344.54.332 1.512 1.117 2.391.934a2.2 2.2 0 0 0 1.637-1.137q.561-1.284 1.304-2.469c.301-.308 1.086-.925.973-.683a8.2 8.2 0 0 0-.87 2.836c0 .87-.138 1.097.14 1.312a.88.88 0 0 0 .937 0c.313-.148.82-.496.871-.285.055.211-1.738 1.438-2.285 1.977-.547.535-1.078 1.578-.808 2.007.265.426 1.296.227 1.816.227.523 0 1.637.078 1.496.336-.14.262-2.016 1.516-2.016 1.742 0 .223 1.137.625 1.735.64q1.39.117 2.75.403c.594.145 1.09.121 1.21.453.122.332.305.614.087.645a8.2 8.2 0 0 1-1.914-.332 17 17 0 0 0-3.121-.645c-.504 0-1.965 0-2.227.469s.871.871 1.05 1.055c.184.18 1.126 1.14.575 1.222-.547.09-.988-.3-1.2-.375-.449-.242-.878-.52-1.288-.824-.207-.164-1.137-1.164-1.578-1.121a5 5 0 0 0-1.899.55c-.52.38-.992.821-1.398 1.321-.309.367-1.567 1.164-2.09 1.59-.52.426-3.383 2.7-3.895 3.09-.515.39-1.828.867-2.422.469"/><path fill="#A12132" fill-rule="evenodd" d="M48.457 42.508a2.04 2.04 0 0 1 .05-1.504c.15-.402 1.376-2.656 2.61-2.227.488.098.88.457 1.012.938.25.87.285 2.281-.422 2.969-.45.43-1.059.652-1.68.617a2.26 2.26 0 0 1-1.605-.793M42.5 45.246c.41-.137.73-.457.867-.867.113-.469 1.055-.516 1.094-.7.047-.179-.961-2.675-1.508-2.894-.55-.219-.871.172-1.453.125-.453 0-.871-.23-1.14.278-.419.753-1.2 1.738-.583 2.609.618.871 1.54 1.676 2.68 1.457m14.27 1.957a.56.56 0 0 1-.368.21.54.54 0 0 1-.406-.12 11.7 11.7 0 0 1 2.305-1.934c.324-.355.062-1.851.234-2.355.176-.504 1.742-1.555 2.39-1.2.34.118.641.325.872.598.289.61.414 1.285.363 1.957a5 5 0 0 1-.484 1.645c-.176.574-1.2.476-1.66.523-.61.063-1.203-.406-1.743-.055q-.784.299-1.503.73m-6.895 2.138c.188-.375 0-.926 0-1.328 0-.399.164-.81-.184-1a4.1 4.1 0 0 0 0 2.312c0 .094.13 0 .137 0m-13.93 2.04a3.91 3.91 0 0 1 2.75-1.743c0-.14-.289-.25-.402-.25a2.96 2.96 0 0 1-1.738-1.133c-.871-1.078-1.418-1.957-2.899-1.504-1.476.453-1.617 3.043-1.171 4.297a1.945 1.945 0 0 0 3.476.348m30.797-1.942c1.61-.605 2.906.184 2.121 1.516-.406.687-.266 1.488-.73 2.172a1.75 1.75 0 0 1-1.922.61 5.3 5.3 0 0 1-1.875-1.032c-.5-.516-.637-.926-1.446-1.133-1.312-.348-2.742 0-4.02-.504 1.454-.742 3.126.063 4.657 0 .656 0 1.117-1.219 3.215-1.594m-7.922 1.56c-.351-.2-.785-.2-1.14 0 .374.089.765.089 1.14 0M39.02 55.7c-1.461-1.74-4.547 1.573-4.782 1.792-.234.219-.8.653-.875.871-.18.688 1.414 1.61 1.918 1.895.653.39 1.219 1.367 2.114.672.89-.7.968-1.29 1.199-2.325.16-.945.605-1.82 1.281-2.507a14.2 14.2 0 0 0 2.156-1.926c-1.418-.106-1.976 1.05-3.011 1.504m21.812-7.524c-.281-1.125-2.25.051-2.75-.054.566.148 1.387.105 2.133.21.21.055.668.07.617-.156m-8.504 6.426c.563.313.75 1.082 1.32 1.418q.88.465 1.688 1.035c.262.2.547 1.13.113 1.34-.644.313-.867-.922-1.191.113-.32 1.036-1.582 1.512-1.828 2.61-.157.758-.692 1.808-.207 2.547a.87.87 0 0 0 .66.367c.422-.008.836.117 1.183.355a1.75 1.75 0 0 0 1.793.242 2.16 2.16 0 0 0 1.348-1.53 19 19 0 0 1-.348-2.415c0-.875.391-1.312 0-2.133a3.8 3.8 0 0 0-1.21-1.445c-.442-.328-.598-.945-.922-1.406a19 19 0 0 0-1.817-1.969 1.63 1.63 0 0 0-1.27-.594c-.71.145-1.35.54-1.8 1.11a15.4 15.4 0 0 1-1.809 1.539c-.593.574-.465 1.445-.765 2.156a7.7 7.7 0 0 0-.801 2c.406-.234.687-.867.93-1.234q.27-.422.582-.809c.218-.277.558-.29.812-.512.711-.687.781-1.547 1.242-2.312.59-.617 1.5-.801 2.285-.469m13.395 6.926c-.11-.43-.14-.88-.094-1.32a2.1 2.1 0 0 0-.324-1.512c-.3-.582-1.234-1.977-2.066-1.594-.29.125-.567.48-.926.281-.356-.203-.547-.62-1.067-.8-.523-.184-.976-.227-1.464-.356a6 6 0 0 0-1.008-.21c.32.679 1.43 1.093 1.976 1.546 1.18.984.617 2.105.547 3.367-.105.434-.066.887.11 1.297.265.383 1.253.453 1.484.594a2.83 2.83 0 0 0 1.86.207c.515-.344.87-.887.972-1.5M52.508 73c.355-.078.87.293 1.62.594.65.277 1.34.449 2.044.508a3.45 3.45 0 0 1 2.008 1.175 3.04 3.04 0 0 1 0 2.227 3.74 3.74 0 0 0-.66 2.969c.32 1.433.93 1.972-.125 1.875a10.7 10.7 0 0 1-2.434-.618 3.63 3.63 0 0 1-2.129-1.078c-.66-.816-1.078-.668-2.156-1.32s-1.742-2.043-1.203-2.61c.543-.566 2.191-2.07 2.39-2.402.203-.328.524-1.25.672-1.285m21.395-8.531c0-.332.78-.871.87-1.063a8 8 0 0 0-.07-2.043c-.148-.539-.242-1.14.168-1.402a2.88 2.88 0 0 1 2.172-.332c.672.29 1.207.55 1.828.777.618.223 2.223 1.086 2.5 1.66.282.575.672 1.247.247 1.872s-.426 1.093-.758 1.382c-.57.434-1.106.918-1.594 1.446-.45.57-.781 1.738-1.328 2.031-.547.297-1.625.602-1.938.219a2.52 2.52 0 0 1-.402-1.54c.07-.331.871-.956.645-1.495-.227-.54-.739-.618-1.329-.825-.593-.21-.976-.355-.976-.687m-50.461 4.824c-.285-.312-.582-.582-.438-.867.274-.488.48-1.008.614-1.547q.081-1.079 0-2.152c.027-.43.125-.852.293-1.25.09-.34 0-.973.601-1.184a3.8 3.8 0 0 1 1.836-.055c.559.098 1.672.387 1.985.997.312.605.5 1.3.867 1.546.367.243 1.468.73 1.496.868.027.14-.219.386-.61 1.062a9.4 9.4 0 0 0-.406 2.758c-.047.332 0 1.617-.46 1.906-.466.285-1.141 0-1.743-.324a10.7 10.7 0 0 1-1.875-.984c-.324-.297-.316-.668-.531-.774-.219-.101-1.281.297-1.574 0m23.437-6.305c.223.418.336.887.332 1.36.02.52-.09 1.043-.324 1.512-.406.367-.875.66-1.383.867-.258.09-1.043.367-1.488 0a4.3 4.3 0 0 1-1.063-1.024 3.07 3.07 0 0 1 .36-2.87c.375-.427 1.062-.462 1.504-.872q.563-.532 1.183-.988c0 .422-.304.945 0 1.34.305.39.653.375.871.632m9.871-9.757a6 6 0 0 0-1.394-.246c.351.507 1.238.43 1.785.636q.324.166.617.383c.59.348 1.738.742 1.86.93a2.4 2.4 0 0 0 1.828.426c.242-.086.687-.192.574-.512-.469-.945-1.813-.61-2.524-1.063-.234-.148-.234-.328-.582-.39a6.6 6.6 0 0 1-1-.086 8 8 0 0 0-1.164 0m-6.472-8.7a3 3 0 0 1-.078.567 3.06 3.06 0 0 0 .093 2.043c.16-.258.215-.57.149-.867a3.2 3.2 0 0 1 .09-.957 3.5 3.5 0 0 0-.227-.774"/><path fill="#A12132" fill-rule="evenodd" d="M47.953 52.11c.242.296-.094.773-.289 1.042-.191.27-.574.453-1.285 1.192a31 31 0 0 0-1.66 1.87c-.2.255-.645.958-.82.802-.176-.157.347-1.125.48-1.332.324-.508.707-.98 1.14-1.399a7.2 7.2 0 0 0 1.547-1.422c0-.156-.5-.11-.703-.066-.21.043-1.23.418-1.515.476-.285.063-.618-.113-.207-.453a1.56 1.56 0 0 1 .726-.449c.211 0 .82-.062.95-.2.128-.14.148-.53 0-.62-.149-.086-.329 0-.505 0-.171 0-2.218-.364-2.558-.422-.336-.063-2.3-.586-2.61-.645-.3-.062-.39-.308.176-.308.563 0 1.563.191 1.938.191s.793-.058 1.176-.039a9.5 9.5 0 0 0 1.8.121c.332-.125.782-.312.871-.531a.59.59 0 0 0-.078-.652 7 7 0 0 1-1.304-1.235 2.8 2.8 0 0 0-.7-1.035c-.238-.125-.648-.195-.816-.437-.164-.243-.262-.871 0-.746.45.19.867.44 1.25.738.133.168.352.601.605.87.32.364.68.692 1.079.974.37.214.687.511.922.87.816.051.988 0 1.53 0 .52.008 1.04.075 1.548.192.175.086.75.363.945.172.2-.188.73-1.328.937-1.61.215-.277 1.215-1.5 1.403-1.831a4.7 4.7 0 0 1 1.46-1.176c.106.062.352.207-.085.597a22 22 0 0 0-1.836 1.891c-.164.3-.867 1.418-.98 1.652-.114.235-.489.504-.387.653.109.148.82.34.968.484.149.152.598.977.278 1.195a.78.78 0 0 1-.965-.273 5.4 5.4 0 0 0-.73-.816 5.5 5.5 0 0 0-3.383-.653c-.34.09-1.036.332-1.043.715a2.33 2.33 0 0 0 .75 1.656"/><path fill="#A12132" fill-rule="evenodd" d="M48.898 48.629c-.191 0-.867-.59-1.05-1.008q-.359-.749-.817-1.445c-.156-.2-.234-.625-.39-.75-.157-.117-.871-.946-.645-1.047.227-.106.867.594.992.789.121.2.774 1.133.946 1.367.175.235.687 1.05.82 1.297.129.242.34.797.144.797"/></svg>