<svg xmlns="http://www.w3.org/2000/svg" viewBox="0 0 100 100"><path fill="#419629" d="M0 0h100v100H0z"/><path fill="#18468B" d="M30.602 39.035 17.613 55.56s-2.906 3.5 3.645 7.707l5.152-6.641 1.098.793-4.942 6.89 4.684 3.38 5.191-6.422s3.391 2.972.95 5.918c0 0-2.176 3.265-5.942.644l-3.73 4.727s-1.989 2.652.34 5.453l.03.144-7.132 9.758s-.574.766-.645 1.086c-.07.317-.136.606 0 .719.141.094.446.242 1.06-.356.605-.617 8.706-8.59 8.706-8.59s.3-.613 1.29-.109c.987.5 1.921 1.082 4.034-.637 2.11-1.726 6.313-7.835 6.313-7.835l.34.042.59 8.192 11.156.035 14.894 11.211 2.075-.102-24.22-19.043.848-.882 5.454 4.218-4.688-36.757Zm0 0"/><path fill="#FFF" d="m46.121 39.941.781 5.86 6.418.172 1.114-3.407s-3.688-2.586-8.313-2.625m9.766 3.516-1.114 3.352 3.68 4.296 4.188-.113s-1.875-5.125-6.754-7.535m-8.82 3.965 1.34 9.21 6.421.337 2.453-5.082-3.96-4.407Zm15.855 4.965-4.188.168-2.234 4.863 3.297 3.734h4.633c.66-5.222-1.508-8.765-1.508-8.765m-14.293 5.812 1.285 8.875 5.973-.117 3.015-5.02-3.238-3.519Zm11.168 4.516-2.848 4.523 3.625 3.348c2.551-2.8 3.461-7.871 3.461-7.871Zm-3.856 5.75-5.859.172 1.227 8.652c4.28-1.102 8.207-5.246 8.207-5.246Zm0 0"/><path fill="#C4122E" d="M32.719 8.348c-10.528.207-18.028 7.476-18.028 7.476l6.528 6.309c2.953-1.977 15.785-1.649 15.785-1.649 4.543-.172 4.965 2.344 4.965 2.344 1.02 2.238 1.636 11.867 1.636 11.867l-13.34.055c-.902 2.293.333 4.297.333 4.297l18.867.113h.281c.617-.07 1.867-1.097 2.457-1.34 1.25-.515 2.492-1.297 3.293-2.457.184-.277.32-.543.559-.781.777-.781 1.898-1.172 2.96-1.227 1.547-.093 3.032.618 4.579.727 1.27.086 2.593-.07 3.738-.727 1.168-.675 2.063-1.77 2.734-3.015.336-.649.504-1.43.95-2.012.242-.348.57-.637.949-.832a3.1 3.1 0 0 1 2.066-.113c.965.57 1.992 1.023 3.067 1.172.808.11 1.62.035 2.347-.336a3.15 3.15 0 0 0 1.004-.836c.371-.453.528-1.043.672-1.621l.945-6.032c.094-.566.282-1.074.45-1.617.207-.672.312-1.37.613-2.011a17 17 0 0 1 2.176-3.235V12.7c-.453-.113-.926-.066-1.395-.054-1.5.074-2.996.28-4.465.613-2.894.652-5.695 1.836-8.039 3.797-.406.336-.785.746-1.172 1.113l-.449.34a8.22 8.22 0 0 0-4.742 3.234 9 9 0 0 0-.781 1.23c-.133.243-.172.505-.278.782-.207.535-.464 1.066-.672 1.617a3.15 3.15 0 0 1-1.285 1.508c-.511.285-1.156.375-1.73.45-1.48.206-2.957.175-4.465.054-1.492.117-3.023.547-4.3 1.449-.473.36-.907.77-1.286 1.23-.672.774-1.094 1.77-1.894 2.399-2.7 2.129-3.075 2.293-3.739 2.234l-.117-1.058 11.281-11.785-.222-.055c-2.668 1.984-3.52-1.672-3.52-1.672-1.11-4.219-4.914-7.258-4.914-7.258-5.45-5.012-14.402-4.52-14.402-4.52m-.778 32.989.895 1.34 8.988.113.672-1.34Zm1.84 2.68.899 1.23 5.246.11.836-1.34Zm1.621 2.511.672 1.063h2.512l.555-1.063Zm1.676 3.075c-4.117-.204-5.805 2.62-5.805 2.62-2.043 3.614.11 6.255.11 6.255Zm.559 0 6.199 9.488s1.793-2.781-.453-6.363c0 0-1.98-3.024-5.746-3.125m1.617 32.375c-.297 0-.41.386-.504.668l-.05 7.87.05.223v.055l.172.117 4.965.05c.234 0 .425-.179.508-.386a5.6 5.6 0 0 1 .164-2.18h.113c.957 1.368 2.473 2.145 4.016 2.567l7.148.113.277-.164.11-.45c.082-.831.12-1.733.058-2.57.102-.261-.09-.456-.336-.554-.324-.117-.68.02-1.008 0a5.57 5.57 0 0 1-2.73-.95c-.879-.62-1.645-1.472-2.012-2.515-.195-.484-.242-.984-.332-1.508l-.222-.222Zm0 0"/><path fill="#18468B" d="M32.05 19.566c-4.374 0-6.898.387-6.921.391-3.465.453-4.777 1.496-4.856 1.563-1.625 1.05-2.546 2.675-3.015 4.187a13.2 13.2 0 0 0-.555 3.797v.613l.05.555 3.74-.164.058.113c.137 1.414.937 2.223 1.676 2.57.746.356 1.406.329 1.453.329h.054a30 30 0 0 1 2.676-.11c1.043 0 1.738.09 2.121.164l.336.117h.168l.055.055c.625.133.808.418.953.672l.168.332v.11h1.113a2.5 2.5 0 0 0-.277-1.008 2.33 2.33 0 0 0-1.617-1.223c-.125-.059-.817-.39-3.02-.39-.742 0-1.668.066-2.789.167a2.8 2.8 0 0 1-1.117-.394c-.41-.266-.781-.66-.89-1.504h.445q1.847-.006 3.683-.223a11.5 11.5 0 0 0 1.899-.394c.566-.184 1.039-.399 1.394-.832l-.836-.73c-.082.12-.418.3-.894.448-1.438.473-3.977.563-5.246.555h-.786l-3.457.172c0-.719.07-2.094.504-3.465.422-1.367 1.2-2.715 2.57-3.57h.051c.07-.055 1.262-.93 4.356-1.336l.445-.063c.895-.101 3.074-.332 6.309-.332 1.82 0 4 .09 6.418.278h.058c.368.054 1.996.437 2.903 1.789.285.394.574 1.402.84 2.62a63 63 0 0 1 .945 6.087c.2 1.875.277 3.238.281 3.238l1.117-.055c0-.008-.191-2.558-.558-5.36a49 49 0 0 0-.672-4.187c-.285-1.285-.606-2.324-1.059-3.015-1.414-2.02-3.687-2.274-3.742-2.29h-.055a83 83 0 0 0-6.476-.277m-6.028 4.356s-2.105-.11-2.289 2.18l4.797-.063s-.234-2.191-2.508-2.117"/></svg>