<svg xmlns="http://www.w3.org/2000/svg" viewBox="0 0 100 100"><path fill="#ED1C24" d="M0 0h100v100H0z"/><path fill="#FFE800" d="M56.086 39.852c-4.895-.118-7.64.957-9.668 1.793-.719.238-1.434.593-2.031.714-2.985.715-4.535-.714-5.133-2.148-.36.598-.477 1.191-.477 1.789.118 2.031 1.91 3.582 4.297 3.465.836 0 2.031-.36 2.985-.836.12 0 .238-.121.359-.238 2.027-1.317 5.133-3.582 9.668-4.54m31.758-13.73a32 32 0 0 1-4.297 2.629c-.836.477-1.793.836-2.629 1.191q-.535.184-1.074.36c-1.551.597-3.34 1.074-5.133 1.433-.238 0-.477.118-.836.118-1.074.12-2.266.242-3.344.359h-2.027c-.715 0-1.55 0-2.27-.117-.953 1.91-2.507 4.058-4.418 6.207q-2.502 2.864-5.73 5.37c2.031-.116 3.941-.476 5.73-.835 2.985-.715 5.614-1.434 7.641-2.266l1.074-.36c1.793-.718 2.867-1.194 3.344-1.433.121-.117.238-.117.238-.117.36-.12.48-.36-.117-.242h-.121c-1.312.48-2.387.719-3.34.957-.36.117-.719.117-1.078.238-.836.121-1.43.239-1.55.239-.239.12-.716-.118 0-.239a31 31 0 0 0 1.55-.36c.36-.116.719-.116 1.078-.237 1.192-.356 2.387-.715 3.34-1.075.238-.117.48-.238.836-.238a70 70 0 0 0 4.18-1.91c.359-.238.117-.238.117-.238s-1.43.715-1.79.836c-.238.117-.359 0-.238 0 .239-.121.715-.477-.12-.239-.715.239-1.43.598-2.15.836-.237.117-.476.239-.835.239-1.074.355-1.91.597-2.387.714-.836.121-.238-.117-.238-.117s1.074-.242 1.55-.48c.72-.239.72-.356.122-.239-.836.239-1.672.36-2.387.598-.36 0-.719.121-1.078.121-1.91.356-3.223.356-3.7.477-.597 0-.12-.239-.12-.239s1.195-.12 2.152-.238c.594-.12 1.191-.242 1.79-.242.359-.117.714-.117 1.073-.238 1.313-.239 2.508-.598 3.344-.953.238-.121.477-.121.836-.239.953-.359 1.434-.597 1.55-.597.122 0 .24-.36 0-.239-.116.118-.714.356-1.55.598-.121 0-.238 0-.238.117-.121 0-.36.121-.48.121-1.192.239-2.266.477-2.505.477-.359 0-.12-.121 1.075-.36.355-.117.836-.238 1.191-.355.238-.121.48-.121.836-.242 3.105-1.074 4.894-2.266 5.016-2.266.117-.12.117-.238 0-.238 0 0-.122 0-.122.117-1.074.719-2.507 1.195-2.746 1.313-.238.12-.238 0-.238 0s.598-.477-.355 0c-.48.238-1.079.359-1.555.597-.238.121-.598.121-.836.239-.117 0-.238.12-.238.12-.239 0 .12-.12.238-.238h.121c.117 0 .477-.12.836-.238h.238c.36-.121.118-.242.118-.242l-.356.121c-.121 0-.36.121-.719.121h-.117c-1.195.238-2.629.477-3.344.594h-.597s-.836-.238.36-.477h.116c1.196-.238 2.27-.476 3.344-.715.238-.12.477-.12.836-.238 1.91-.597 3.582-1.195 5.133-2.031.36-.121.719-.36 1.074-.598.957-.597 1.91-1.191 2.629-1.789 1.789-1.195 3.101-2.629 4.297-3.703M69.34 35.555c-.121 0-.238.117-.36.117h-.359l.121-.117s.477-.121.598 0q0-.181 0 0 .176 0 0 0 .176 0 0 0"/><path fill="#FFE800" d="M74.113 36.75s-.117 0-.238.117c-.117 0-.355.121-.355.121s-.122.117 0 .117c.117 0 .238 0 .355-.117.121 0 .477-.238.36-.238zm7.285-4.656c-.238.117-.359.238-.597.355-.239.121-.477.239-.598.36-.238 0-.238.238-.117.238.117 0 .117 0 .477-.238.117 0 .117-.121.238-.121.238-.118.597-.356.597-.356l.239-.121c-.121 0-.121-.238-.239-.117M70.414 46.777h-.238s-.239.239 0 .118h.238c.117 0 .238-.118.238-.118.239-.12.239-.12.121-.12ZM36.746 32.45c1.313 0 2.508-1.075 2.508-2.266 0-.243 0-.36-.117-.598.238.477.476.953.476 1.434 0 1.312-1.074 2.386-2.629 2.503-.355 0-.714 0-1.074-.117-.117.239-.117.598-.117.953a3.725 3.725 0 0 0 2.625 3.582c-.238-.359-.36-.836-.36-1.312 0-1.074.72-1.91 1.794-2.031.953-.118 1.789-.118 4.296.718.72.239 1.434.356 2.27.598 1.672.356 3.223.477 4.18.594-1.196.836-2.63 1.316-4.18 1.554-.836.118-1.672.118-2.387 0-2.629-.238-4.18-1.792-4.18-1.792.239 1.074 1.79 2.507 4.536 2.984.718.121 1.312.121 2.031.238 3.344 0 6.684-.953 9.668-2.504 2.031-.957 3.82-2.27 5.254-3.465h-.117c-1.672.36-3.344.72-5.137.836h-1.191a25.3 25.3 0 0 1-8.477-1.43c-.836-.242-1.55-.597-2.387-.956.836.238 1.551.476 2.387.597 1.789.36 3.582.598 5.371.598q2.151 0 4.297-.36c2.031-.238 3.941-.835 5.73-1.55.836-.36 1.672-.719 2.508-1.195 1.672.359 3.344.597 5.133.597h.957c1.195 0 2.27-.12 3.344-.238.238 0 .476 0 .836-.121 1.789-.238 3.46-.715 5.133-1.313.359-.12.714-.238 1.074-.36.953-.355 1.789-.835 2.625-1.312q4.834-2.684 8.238-6.804a37 37 0 0 1-8.238 3.82c-.836.238-1.79.477-2.625.715-.36.121-.715.121-1.074.242-1.672.238-3.344.477-5.133.477h-.719c-1.074 0-2.266 0-3.344-.121h-.117l.117-.118c1.317-1.316 2.39-2.746 3.344-4.3.238-.356.48-.836.836-1.313.121-.238.36-.598.477-.836 0 0-.118.121-.477.238a7 7 0 0 0-.836.48c-.836.118-2.027.716-3.46 1.192l-1.075.36a22 22 0 0 1-6.09.836H61.7c-2.15-.122-4.06-.598-5.731-.836h-.239c-4.539-.957-6.328-.121-7.164.238-1.074.598-2.03 1.55-2.27 2.867-.116.356-.116.594-.116.953-1.196 0-2.27.836-2.63 1.91.837.715 1.794 1.196 2.747 1.672 1.074.477 2.27.836 3.465.953h-.36c-1.074 0-2.03-.117-2.984-.238-2.031-.355-3.941-1.191-5.73-2.027-1.196-.598-2.27-.836-3.106-.719-1.434 0-2.508.836-3.102 1.793-.359.715-.359 1.191-.359 1.55 0 1.196 1.313 2.15 2.625 2.15m12.656-5.493c-.715 0-1.195-.477-1.195-1.074v-.117c0-1.075.836-1.793 1.793-1.91.238 0 1.672-.239 3.7 1.312.359.238.597.36.956.598.477.355.953.597 1.313.836 1.312.714 2.508 1.43 3.937 1.91-1.43.238-2.746.238-3.937.238-1.793 0-3.223-.477-3.223-.477.238-.359.356-.835.356-1.316 0-1.191-1.075-2.266-2.266-2.266-.238 0-.48 0-.719.118.238.238.48.597.48.957 0 .597-.597 1.191-1.195 1.191"/><path fill="#FFE800" d="M86.648 41.164c-1.074.48-2.148 1.074-3.222 1.555-.953.355-1.79.836-2.625 1.074-.36.117-.715.238-1.074.355-2.032.72-3.704 1.317-5.133 1.672-.242.121-.598.121-.836.239-1.434.359-2.39.597-2.508.718-.238.118 0 .118-.36.356-.117 0-.238.12-.476.242-.238.117-.715.238-1.074.355-.238.122-.598.122-.957.239-.594.12-.477 0-.477 0s1.074-.356 1.434-.477c.36 0 1.074-.597 0-.238h-.121c-.598.238-3.938.957-7.52 1.91-1.91.477-3.941.957-5.73 1.434q-1.435.357-2.508.715c-1.195.359-.598-.118-.598-.118.836-.238 1.91-.597 2.985-.957 1.672-.476 3.465-1.074 5.73-1.55.36-.122.719-.239 1.195-.239 1.79-.48 4.297-1.074 6.446-1.672q.54-.179 1.074-.359a52 52 0 0 0 2.27-.715c.359-.121.835-.238 1.195-.36.238-.12.476-.238.836-.238 1.91-.714 3.582-1.312 5.133-2.03.359-.118.714-.24 1.074-.477.953-.36 1.91-.836 2.625-1.196 5.851-2.863 7.879-4.894 8.238-5.132-2.746 1.074-5.492 2.03-8.238 2.984-.953.238-1.79.598-2.625.836-.36.12-.715.238-1.074.36-1.672.476-3.344.952-5.133 1.433-.242.117-.48.117-.836.238-1.074.238-2.149.477-3.344.836-.36.117-.715.238-1.074.238-1.55.36-3.106.715-4.656 1.075-.715.12-1.793.359-2.985.714q-2.508.538-5.73 1.434a84 84 0 0 0-6.207 1.793c-1.196.355-2.27.715-3.465 1.074C30.18 55.254 16.69 66.355 8.332 80.922c10.148-9.91 23.043-16.117 37.965-20.059.48-.117 1.074-.238 1.555-.355a192 192 0 0 0 8.117-2.153 163 163 0 0 0 5.73-1.789c2.864-.836 5.254-1.789 7.64-2.746.36-.12.716-.238 1.075-.476 1.195-.477 2.27-1.074 3.344-1.672.238-.121.476-.238.836-.36a50 50 0 0 0 2.625-1.433l.36-.238s.355-.356-.36.12c-.836.477-1.79.954-2.746 1.434-.239.117-.598.239-.836.356a35 35 0 0 1-3.344 1.433c-.356.121-.715.36-1.074.477-.598.238-1.074.36-1.192.48-.836.239-.957.239-1.074.239-.121 0 1.192-.48 2.387-.957.36-.118.715-.239 1.074-.356.238-.12.598-.242.836-.36.836-.359 1.79-.718 2.625-1.194.238-.118.48-.239.836-.36 1.91-.953 3.465-1.789 3.703-1.789.238-.238 1.672-1.074.117-.238-1.433.715-2.863 1.195-3.82 1.55-.238.122-.598.239-.836.239-.355.12-.598.242-.715.242-.238.117-.12-.121-.12-.121s.358-.121.835-.36c.238-.117.48-.238.836-.238.238-.117.477-.238.477-.238.242-.121.835-.598.359-.36-.117 0-.477.239-.836.36-.238.121-.477.121-.836.238-1.191.477-2.863 1.075-3.344 1.313l-.117.12c-.477.24-1.074.36.117-.237.121 0 .121 0 .121-.121.239-.118.121-.239.121-.118 0 0-.12 0-.242.117-.238.122-.715.239-1.074.36-.238.117-.355.117-.477.117-.359.121-.597 0 .122-.238 0 0 .117-.117.355-.117q.362-.18 1.074-.36c.957-.36 2.153-.836 3.344-1.195.238-.117.477-.238.836-.356 2.031-.718 3.703-1.433 4.059-1.554.238-.117.597-.239 1.074-.477.36-.117.719-.238 1.074-.476.598-.239 1.078-.477 1.078-.598l.117-.238c.121-.239.36-.477-.117-.239-.36.118-.719.36-.957.477-.36.121-.715.36-1.074.477-2.387 1.074-2.746 1.074-2.985 1.195-.476.12-1.195.12-.359-.121.836-.239 2.867-1.074 2.984-1.192.122-.12.239-.12.36-.238.36-.238.715-.48 0-.238 0 0-.121.117-.238.117-1.313.598-3.223 1.195-4.895 1.793-.238.117-.598.117-.836.238-1.074.356-2.031.594-2.148.715-.121.121-.36 0-.36 0s-.36 0-.715.121c-.242 0-.12-.12.477-.36.953-.237 1.91-.597 2.746-.956.238-.117.477-.117.836-.239 1.91-.714 3.7-1.312 5.133-1.91.36-.117.715-.355 1.074-.476 1.074-.477 1.79-.836 1.91-.836.239-.117.121-.238-.12-.117-.954.355-1.43.476-1.669.476h-.12s.12 0 .12-.12c.953-.356 1.91-.837 2.625-1.075.36-.117.598-.238.836-.36 1.55-.714 1.55-.832 1.55-.953 0-.12-.597.239-.952.477-.36.121-.598.121 0-.238 1.312-.715 1.91-1.075 2.148-1.313-.12-.238-.12-.476-.719-.12M69.7 49.761c-.12 0-.242.117-.36.117-.835.242-2.507.836-4.417 1.316-.715.117-1.434-.242-.953-.36 2.504-.597 4.773-1.194 5.37-1.312h.118c.36-.12.48-.238.598-.12.12-.118.36 0-.356.359m-9.313 14.805c-1.434.594-2.867 1.075-4.301 1.551a72 72 0 0 1-9.668 2.27q-2.866.534-6.09 1.074c-9.55 1.672-13.371 4.656-13.371 4.656 5.73-1.074 10.027-.836 16.238-1.91a15.7 15.7 0 0 0 3.223-.719c2.508-.597 4.656-1.43 6.445-2.148 1.313-.598 2.387-.953 3.223-1.313 1.672-.715 2.508-1.195 2.984-1.433.48-.239.72-.715.48-.477-.237.121-2.745 1.313-3.343 1.434-.715.238-.36 0-.477 0-.12 0 .239-.121.477-.239.238-.12.598-.242.715-.242.36-.117.957-.593.36-.355-.239.117-.716.238-1.075.355-.715.243-1.434.48-1.672.48-.238.118-.36-.237.36-.359.476-.12.953-.238 1.312-.476 2.387-.836 3.582-1.434 4.18-1.672.355-.238 0-.477 0-.477"/><path fill="#FFE800" d="M74.594 53.105c-.242.118-.598.239-.836.356a43 43 0 0 1-3.344 1.672c-.36.12-.715.36-1.074.476-2.27 1.078-4.778 2.032-7.64 2.989-1.552.476-3.223 1.074-5.134 1.55-.238.118-.359.118-.597.239-2.985.836-6.328 1.789-9.672 2.625-5.012 1.433-9.906 3.226-14.086 5.73 0 0 3.82-1.191 13.73-2.504.118 0 .239 0 .477-.12 3.937-.598 7.281-1.196 9.668-1.79.957-.242 1.793-.48 2.39-.719.837-.238 2.028-.714 3.34-1.074 2.27-.836 5.016-1.91 7.641-3.344.36-.117.719-.355 1.074-.593 1.196-.72 2.27-1.317 3.227-2.153.117-.117-.238-.355-.48-.238-.118.121-1.669.957-2.747 1.434-.117.12-.238.12-.355.238-.36.121-.36 0-.36 0s.36-.117.715-.36c.598-.238 1.434-.714 2.031-1.074.239-.117.715-.476.715-.476s.121-.239.72-.598a7 7 0 0 0 .835-.476c.598-.36 1.313-.954 2.266-1.672.242-.118.597-.598.48-.598-.121 0-.957.719-1.555 1.074-.593.36-.953.598-1.191.836-.238.121-.48.238-.836.48-.121.118-.121.118-.238.239-.836.476-2.031 1.191-3.106 1.789-.359.238-.715.36-1.074.598-.957.476-1.789.836-1.789.836-.121 0 .238-.36.238-.36l1.43-.715c.36-.238.719-.359 1.074-.597 1.317-.715 2.39-1.313 3.344-1.91.238-.118.598-.36.836-.477 2.508-1.555 4.18-2.984 5.133-3.941.48-.477.836-.836.957-.954-.239.239-.598.356-.957.598a682 682 0 0 0-5.25 2.984m-5.492 5.372s.117-.122.238-.122h.117c.121-.117.242 0 .242 0v.122s-.12.12-.36.12h-.12c-.117 0-.117-.12-.117-.12m10.625-10.149c.238-.117.359-.238.359-.238s.238-.121 0-.121c-.121 0-.242.12-.36.12-.12.122-.238.122-.238.122s-.238.238-.12.238c0 0 .12-.12.359-.12m3.699-3.106c-.477.242-1.074.48-1.074.48s-.239.477.238.238c.238-.12.597-.238.836-.359.238-.117.597-.238.719-.36.355-.117.476-.476.476-.476-.121 0-.121 0-.598.238-.117 0-.359.121-.597.239"/><path fill="#FFE800" d="M75.188 55.254c-.239.117-.118.117-.594.355 0 0-.121 0-.121.121-.36.239-.477.36-.598.477l-.117.121s0 .117.117.117h.121c.117 0 .36-.238.598-.355.355-.36.953-.719.953-.836 0-.238.121-.238-.36 0M62.414 63.73c-.117.118-.355.118-.598.239-.476.117-1.074.36-1.074.36s-.238.476.121.355c.117 0 .477-.239.953-.356.48-.242 1.075-.36 1.075-.598.12-.12 0-.12-.477 0"/></svg>