<svg xmlns="http://www.w3.org/2000/svg" viewBox="0 0 100 100"><path fill="#C6C6D1" d="M0 0h100v100H0z"/><path fill="#E60012" d="M13.848 39.305h9.261c0-1.664 1.399-4.832 5.016-4.832 1.434 0 1.656.297 3.465-.078 2.363-.81 3.469-2.172 3.95-3.243 0 0 .917 3.903-2.806 5.938-2.105 1.18-5.347.262-5.347.262s-2.586-.372-2.914 1.953c1.441 0 3.726 1.511 3.726 4.054v21.508c0 1.551 1.246 3.176 3.176 3.176a3.166 3.166 0 0 0 3.133-3.172V49.746c0-22.285 17.34-31.543 27.449-32.285 8.332-.621 13.941.113 24.195-7.043 0 0-3.203 12.473-17.664 15.496-2.695.55-10.668-.371-18.191 7.453-5.938 6.2-6.567 11.918-6.567 19.434V66.09c0 5.828-4.683 11.73-11.84 11.73-6.906 0-11.777-5.535-11.777-11.73V43.508c0-1.844-1.32-3.54-3.425-3.54h-2.84Zm0 0"/><path fill="#E60012" d="M21.96 76.344s7.599 7.707 17.638 1.883c6.601-3.836 6.785-11.844 6.785-11.844v-17.89s-.262-9.005 7.863-15.427c5.64-4.457 10.883-4.171 14.496-4.609 9.262-1.14 13.356-6.969 13.356-6.969.109.989-.887 11.727-12.47 14.79-2.362.628-15.089-.59-15.089 14.132v17.703c0 3.73-.883 10.301-7.894 14.946-7.122 4.722-18.743 4.023-24.68-6.715"/><path fill="#E60012" d="M32.664 87.527C43.988 90.7 56.977 82.762 56.977 69.56v-15.5c0-4.57 3.761-10.551 10.582-10.551 7.16 0 10.597 6.422 10.597 10.55 0 2.579-1.078 7.817-5.98 7.817-3.914 0-6.422-3.977-5.2-7.23-.261 1.07.329 2.144 1.473 2.144 1.14 0 1.774-1.074 1.586-2.394-.035-.301-.367-2.778-3.14-2.778-2.282 0-3.055 2.106-3.055 3.11V68.56c0 14.828-16.09 25.75-31.176 18.964"/></svg>