<svg xmlns="http://www.w3.org/2000/svg" viewBox="0 0 100 100"><path fill="#004B86" d="M0 0h100v100H0z"/><path fill="#FFF" d="M30.954 46.775c-1.127 1.812-3.653 4.255-1.525 5.567 1.759.04 2.999.449 2.961 1.748-.046 1.514-1.717 1.586-1.946 2.543-.319 1.312 1.663 1.482 2.156 2.429-.11.873-1.635 1.148-1.385 2.566.503.55 1.07.404 1.456.772 1.3 1.237-.661 2.859-.825 4.003-.302 2.108 3.239 4.263 5.86 4.248 5.991-.03 13.219-3.636 19.425.113-2.294.503-7.861-.287-8.075 3.268-.06 1.037 1.23 2.29 1.803 3.219 2.211 3.544 3.978 7.859 4.416 12.197 3.666-13.49 6.95-28.639 10.432-42.818-6.862-2.992-11.855-7.56-19.97-9.898-3.445-.997-7.386-1.313-10.344-.903.03 1.45-.918 1.832-.965 2.839-.058 1.222 1.965 1.898 2.973 2.604 1.296.907 2.004 1.895 2.207 3.112-.982-.38-.77-1.276-2.289-1.326-.411-.015-1.122.397-1.898.46-.55.052-1.553-.94-1.845-.872-.96.218-2.062 3.239-2.622 4.13m9.655-24.293c-.559.786-1.004 1.737-1.49 2.637 1.593.205 3.625.374 5.44.743 10.28 2.091 14.276 9.864 22.96 12.885 1.275-4.194 2.456-10.145 3.566-14.538.304-1.205.544-1.98-.073-2.862-1.275-1.074-3.63-.614-4.675-1.723-.61-.647-.089-1.346-.808-1.589-2.448-.817-4.914.614-6.502-1.15-.966.789-3.06.364-4.648.466-1.059.067-2.042 1.504-2.843-.015-2.07.29-3.059 2.63-5.19 2.63-.425 0-.877-.385-1.346-.372-1.66.041-2.087 2.8-3.537 3.347-.57.05-.401-.683-.854-.46"/></svg>