<svg xmlns="http://www.w3.org/2000/svg" viewBox="0 0 100 100"><path fill="#FEEC68" d="M0 0h100v100H0z"/><path fill="#06A7E0" d="M20.469 28.398c0-1.222.414-2.441.832-3.57a27.5 27.5 0 0 0 6.668 6.027c3.75 2.418 7.914 3.88 12.5 4.543 2.914.47 6.25.563 9.164.313q.832-.076 2.086-.234a32.4 32.4 0 0 1-7.086 2.722 33.6 33.6 0 0 1-14.164.465 25 25 0 0 1-3.336-.809 12.5 12.5 0 0 1-3.75-1.867 8 8 0 0 1-2.5-3.152 8.9 8.9 0 0 1-.414-4.438"/><path fill="#06A7E0" d="M10.469 40.035a14 14 0 0 1 0-3.824c2.082 1.293 4.164 2.512 6.25 3.465 2.5 1.21 5.414 2.054 8.332 2.55 5.418.872 10.418.758 15.832.118 5.418-.692 10.836-2 15.836-3.621a67 67 0 0 1-5.418 3.785c-4.582 2.672-9.582 4.914-14.582 6.441-3.75 1.114-7.5 1.805-11.25 1.809-2.918-.016-5.836-.375-8.336-1.266a9.3 9.3 0 0 1-3.332-2.375 11.1 11.1 0 0 1-2.5-4.418 15.4 15.4 0 0 1-.832-2.66m36.664 8.469a59 59 0 0 0 5.418-3.613c-2.5 3.898-5.832 7.542-9.168 10.57a30.7 30.7 0 0 1-6.25 3.98 18.4 18.4 0 0 1-4.164 1.516 13.2 13.2 0 0 1-4.168.168 9.2 9.2 0 0 1-3.332-.984 6.9 6.9 0 0 1-2.5-2.11c-.836-1.176-1.25-2.594-1.25-4.015 1.664.69 3.75 1.011 5.832 1.003 2.105 0 4.203-.253 6.25-.753 2.5-.56 4.582-1.395 7.082-2.383 2.148-1 4.238-2.13 6.25-3.38"/><path fill="#039482" d="M67.969 30.77c2.082-.235 4.582-.274 7.082-.032 1.25.164 2.5.43 3.75 1.008.832.277 1.25.637 1.668 1.137.465.457.758 1.058.832 1.703v1.836c-.832-.758-2.082-1.188-3.332-1.461-.82-.195-1.66-.309-2.5-.34-.836 1.238-2.5 2.012-4.168 1.844a3.76 3.76 0 0 1-2.082-1.094c-.281-.164-.559-.34-.836-.516 1.668.555 3.336.43 4.586-.417a49 49 0 0 0-6.668-.442 76 76 0 0 0-9.582.586c-1.25.121-2.086.29-3.336.434 2.086-1.153 4.586-1.996 6.668-2.7 2.5-.726 5-1.312 7.918-1.546m.414 9.71c4.586-1.738 9.168-2.75 14.168-2.386 1.25.14 2.918.437 4.582 1.07.836.336 1.668.793 2.086 1.512.363.582.511 1.273.414 1.953a6.04 6.04 0 0 1-1.25 2.851 2.77 2.77 0 0 0-.832-1.605c-.418-.527-1.25-.727-2.082-.797-1.25-.105-2.5.098-3.75.383-1.418.363-2.813.82-4.168 1.367a54 54 0 0 0-7.082 3.266 187 187 0 0 0-10 6.914 116 116 0 0 0-7.086 5.496c-1.25 1.309-2.914 2.664-4.164 4.105-1.25 1.082-2.086 2.2-2.918 3.457a46.4 46.4 0 0 1 2.5-6.507c.418-1.274 1.25-2.567 2.082-3.582-1.25 1.136-2.914 2.433-4.164 3.761-.836.594-1.25 1.16-1.668 1.766a92 92 0 0 0-7.5 8.734 17.7 17.7 0 0 0-2.082 2.934c.414-1.91 1.25-3.817 2.082-5.66q3.123-6.263 7.5-11.407a134 134 0 0 1 3.332-3.542 172 172 0 0 1 5-4.254 83 83 0 0 1 5.418-4.504c2.918-2.125 6.25-3.957 9.582-5.325"/></svg>