<svg xmlns="http://www.w3.org/2000/svg" viewBox="0 0 100 100"><path fill="#CDE5C3" d="M0 0h100v100H0z"/><path fill="#F7CD00" d="M36.492 60.648c1.805-2.062 3.793-4 5.375-6.214 3.149-4.41 2.293-7.207-2.855-9.168-1.614-.606-3.664-.98-5.258-.54-7.293 2-14.5 4.32-21.742 6.532 3.566-.418 7.062-1.38 10.625-1.75 4.297-.442 8.789-1.11 12.941-.332 4.402.82 5.102 4.32 2.442 7.992-.715.984-1.458 1.953-2.184 2.922-1.5 2.265-1.344 2.492.656.555"/><path fill="#7E22B5" d="m53.766 69.91.336.008c.07-.625.152-1.25.214-1.875.793-7.961 6.2-10.727 13.332-6.719 2.25 1.262 4.247 2.985 6.524 4.196 2.348 1.25 4.89 2.125 7.348 3.168-7.036-4.293-7.032-4.293-13.25-11.31-.684-.773-1.375-1.573-2.192-2.194-3.117-2.364-6.726-3.168-10.207-1.489-3.36 1.617-2.95 5.114-2.707 8.25Zm0 0"/><path fill="#E0A800" d="M15.438 46.64c8.742-1.617 17.5-3.14 26.214-4.894 3.344-.672 4.02-2.512 2.168-5.309-2.355-3.558-4.715-7.124-7.375-10.457-3.52-4.417-7.804-7.847-13.617-8.73 1.438 1.066 3.106 1.77 4.543 2.805 4.992 3.582 7.543 8.41 6.883 14.656-.57 5.375-4.98 6.836-9.07 8.406-3.235 1.238-6.602 2.133-9.918 3.18-1.207.344-.977.512.172.344"/><path fill="#0D9" d="M36.137 67.125c.976-1.21 1.797-2.602 2.96-3.598 2.583-2.215 3.915-1.75 4.798 1.625.828 3.125 1.304 6.348 2.226 9.434 1.703 5.727 4.61 10.734 9.34 14.996-1.309-4.789-3.027-9.039-3.54-13.437-.648-5.633-.124-11.387-.542-17.06-.113-1.562-1.461-3.765-2.805-4.308-1.383-.554-4.02-.047-5.094 1.02-3.152 3.133-5.792 6.777-8.632 10.219-3.836 6.468-2.953 5.648 1.289 1.109"/><path fill="#FF0293" d="M24.68 10.418c8.53 3.066 13.593 9.418 16.886 17.5.786 1.914 1.766 3.742 2.575 5.64 1.8 4.231 5.113 5.876 9.543 5.919 9.03.082 12.894-3.793 13.476-13.684-5.722 7.055-9.16 8.23-15.976 3.867-3.664-2.344-6.73-5.96-9.32-9.543-4.321-5.984-9.876-9.222-17.184-9.699"/><path fill="#2389FC" d="m78.586 57.125.266-.457q-4.196-2.144-8.375-4.293c-3.641-1.875-4.028-5.055-.793-7.61 1.921-1.515 4.054-2.769 6.14-4.07 7.16-4.48 10.086-11.468 12.164-20.261-1.05 1.375-1.523 1.84-1.808 2.398-3.75 7.18-9.39 11.785-17.407 13.656-2.695.625-5.175 2.278-7.671 3.614-2.668 1.421-4.297 3.957-3.375 6.726.62 1.863 2.683 3.79 4.562 4.57 5.3 2.22 10.848 3.864 16.297 5.727"/></svg>