<svg xmlns="http://www.w3.org/2000/svg" viewBox="0 0 100 100"><path fill="#1B1D80" d="M0 0h100v100H0z"/><path fill="#FFF" d="M87.86 40.89c-26.047.723-51.262 6.637-53.606 15.02-.215.762-.27 1.516-.27 2.281 0 8.258 17.23 11.079 35.895 13.41.324.04.312-.218.207-.402l-.547-.96c-.074-.137-.156-.223-.418-.298-10.21-2.597-20.582-6.398-20.582-9.937 0-6.691 17.375-13.324 37.16-16.356a2.7 2.7 0 0 0 1.403-.601c.55-.438 1.753-1.422 2.27-1.828.331-.282.21-.367.085-.367Zm0 0"/><path fill="#DF0011" d="M59.04 81.316c-13.536-3.39-26.946-14.75-24.833-25.273 3.086-15.355 23.734-30.227 49.504-37.219.582-.172.797-.554.05-.554H48.595c-6.09 0-7.41.785-9.77 3.976-1.258 1.7-11.781 16.211-16.527 22.754-.613.777-1.473 1.617-3.395 1.617h-8.484q-.005.001.008.008C20.476 75.031 31.277 81.73 42.098 81.73H59.18c.238 0 .48-.257-.14-.414"/></svg>