<svg xmlns="http://www.w3.org/2000/svg" viewBox="0 0 100 100"><path fill="#E60012" d="M0 0h100v100H0z"/><path fill="#EEDC5E" d="M35.234 16.04a59.6 59.6 0 0 1 10.75-1.68c-6.593.578-13.207 2.398-18.785 6.062-3.488 2.308-6.597 5.441-8.152 9.387a13.87 13.87 0 0 0-.117 9.957c1.418 3.84 4.343 6.945 7.652 9.261 2.793 1.961 5.918 3.371 9.137 4.465 3.289 1.098 6.64 2.145 9.61 3.977 1.898 1.168 3.64 2.703 4.671 4.71.762-1.488 1.934-2.738 3.258-3.742 3.125-2.351 6.89-3.578 10.558-4.785 3.961-1.308 7.813-3.101 11.07-5.734 2.977-2.383 5.489-5.52 6.536-9.23a13.86 13.86 0 0 0-.746-9.563c-1.727-3.816-4.875-6.812-8.371-9.031-5.496-3.45-11.922-5.196-18.348-5.73 6.234.386 12.441 1.71 18.195 4.156 3.688 1.585 7.192 3.648 10.196 6.32 2.472 2.223 4.609 4.898 5.902 7.984a16.5 16.5 0 0 1 1.3 7.496 17.7 17.7 0 0 1-3.01 8.871c-2.364 3.559-5.79 6.282-9.462 8.395-2.234 1.285-4.586 2.352-6.996 3.266C66.566 62.207 63.09 63.746 60 65.93c-3.02 2.105-5.656 4.812-7.473 8.027A23.4 23.4 0 0 0 50 80.672a23.55 23.55 0 0 0-6.031-11.32c-3.696-3.88-8.547-6.38-13.492-8.282-3.57-1.343-7.059-2.972-10.2-5.156-3.406-2.352-6.441-5.398-8.21-9.184-1.79-3.82-2.18-8.32-.891-12.351 1.312-4.188 4.18-7.719 7.547-10.457 4.797-3.863 10.574-6.36 16.511-7.883"/><path fill="#EEDC5E" d="M41.07 16.04c1.145-.227 2.293-.454 3.465-.52-4.34.535-8.61 1.914-12.355 4.183-2.895 1.79-5.528 4.23-6.914 7.395a10.9 10.9 0 0 0-.121 8.488c1.175 2.906 3.48 5.207 6.058 6.922 3.766 2.484 8.133 3.922 12.535 4.773 2.207.414 4.555.887 6.254 2.461 1.758-1.625 4.192-2.074 6.461-2.504 3.563-.691 7.07-1.797 10.285-3.508 2.938-1.582 5.688-3.734 7.383-6.66 1.527-2.601 1.969-5.836 1.067-8.726-.895-2.969-2.993-5.43-5.418-7.297-3.622-2.766-7.997-4.399-12.446-5.262-.629-.129-1.265-.195-1.902-.258 1.45.063 2.871.375 4.281.676 4.688 1.059 9.274 2.93 13.059 5.942 2.55 2.043 4.726 4.71 5.683 7.878.961 3.118.559 6.61-1.05 9.442-1.723 3.066-4.532 5.351-7.532 7.101-2.5 1.457-5.183 2.575-7.925 3.48-2.754.923-5.622 1.513-8.301 2.653-1.45.617-2.836 1.535-3.645 2.918-.816-1.402-2.219-2.32-3.68-2.933-3.003-1.266-6.226-1.864-9.28-2.989-4.192-1.488-8.31-3.48-11.567-6.57-2.211-2.102-3.906-4.86-4.32-7.914-.415-2.824.257-5.75 1.726-8.176 1.453-2.45 3.57-4.445 5.914-6.043 3.692-2.492 7.942-4.062 12.285-4.953"/><path fill="#EEDC5E" d="M34.016 20.07a26.1 26.1 0 0 1 8.68-3.41c-2.798.692-5.5 1.84-7.84 3.535-1.997 1.47-3.735 3.438-4.504 5.832-.727 2.176-.48 4.625.585 6.649 1.473 2.832 4.125 4.847 6.934 6.226 4.711 2.27 10.078 2.965 15.254 2.465 4.34-.453 8.7-1.781 12.223-4.426 2.222-1.683 4.109-4.039 4.593-6.843.45-2.418-.293-4.95-1.75-6.899-1.988-2.707-4.98-4.5-8.078-5.676a26 26 0 0 0-2.824-.87c2.527.5 4.965 1.363 7.246 2.566 2.766 1.484 5.344 3.55 6.852 6.351 1.18 2.153 1.527 4.77.828 7.137-.754 2.645-2.613 4.836-4.762 6.488-2.828 2.164-6.187 3.575-9.648 4.364-1.918.449-3.895.57-5.817 1.039a3.95 3.95 0 0 0-1.984 1.117c-1.2-1.3-3.098-1.317-4.719-1.617-4.094-.516-8.133-1.805-11.59-4.09-2.312-1.54-4.402-3.582-5.5-6.176a9.4 9.4 0 0 1-.011-7.332c1.14-2.727 3.367-4.863 5.832-6.434"/><path fill="#EEDC5E" d="M49.191 18.723a7.48 7.48 0 0 1 5.325 1.476 7.65 7.65 0 0 1 1.328 10.86 7.46 7.46 0 0 1-5.18 2.785 7.47 7.47 0 0 1-5.594-1.824 7.6 7.6 0 0 1-2.597-5.567 7.6 7.6 0 0 1 2.113-5.46 7.5 7.5 0 0 1 4.605-2.27M24.453 64.89c3.785-.715 7.75.011 11.2 1.664 4.07 1.945 7.535 5.043 10.124 8.718a26 26 0 0 1 3.762 7.801 34.3 34.3 0 0 0-5.254-6.004c-2.629-2.39-5.633-4.453-9.027-5.57-2.41-.746-5.055-1-7.5-.262-1.293.39-2.531 1.13-3.297 2.266-.676.969-.957 2.25-.594 3.39.395 1.262 1.61 2.223 2.934 2.27a3.27 3.27 0 0 0 3.297-2.598 3.4 3.4 0 0 0-1.414-3.394c1.28.523 2.425 1.418 3.109 2.637 1.07 1.84 1.062 4.234.012 6.078-.825 1.492-2.285 2.539-3.852 3.14-2.144.828-4.555.758-6.73.086a9.9 9.9 0 0 1-5.395-4.144 10.02 10.02 0 0 1-1.219-7.774 10.66 10.66 0 0 1 3.63-5.62c1.773-1.45 3.991-2.255 6.214-2.684m44.14.16a16.83 16.83 0 0 1 9.18.441c1.977.637 3.82 1.746 5.196 3.313 1.351 1.515 2.265 3.414 2.554 5.425a10.03 10.03 0 0 1-2.09 7.68c-2.71 3.41-7.765 4.668-11.769 2.996-1.684-.707-3.191-1.976-3.875-3.703a6.16 6.16 0 0 1 .695-5.918c.676-.969 1.68-1.656 2.754-2.105-1.191.816-1.785 2.441-1.289 3.82a3.27 3.27 0 0 0 3.2 2.168 3.3 3.3 0 0 0 2.968-2.469c.332-1.3-.148-2.703-1.031-3.68-1.152-1.304-2.895-1.921-4.586-2.136-2.516-.29-5.094.21-7.406 1.215-2.477 1.054-4.723 2.601-6.758 4.355a34.5 34.5 0 0 0-5.941 6.61c1.402-4.918 4.343-9.34 8.167-12.715 2.868-2.512 6.293-4.457 10.028-5.297"/></svg>