<svg xmlns="http://www.w3.org/2000/svg" viewBox="0 0 100 100"><path fill="#D40000" d="M0 0h100v100H0z"/><path fill="#FFF" d="m22.047 81.844-9.547-5.52.176-11.68.176-11.675 8.078-4.64 8.078-4.638.324-9.875.324-9.87 20.164-11.43 10.086 5.652 10.086 5.656.031 9.809.028 9.812 8.722 4.922 8.727 4.926v22.469l-1.777 1.226C83.207 78.73 67.555 87.484 66.96 87.484c-.273 0-4.094-2.039-8.5-4.527-4.398-2.484-8.309-4.523-8.684-4.523s-4.254 2.039-8.625 4.523c-4.363 2.488-8.3 4.5-8.75 4.465-.441-.035-5.105-2.547-10.355-5.578m7.281-9.39-.008-5.977-4.82-2.747c-2.652-1.511-5.121-2.746-5.488-2.746-.407 0-.668 2.235-.668 5.782v5.773l5.336 2.938c2.93 1.613 5.406 2.937 5.492 2.945.086.004.156-2.68.156-5.969m12.313 3.016 5.14-2.965V60.312l-3.39 1.989a123 123 0 0 1-5.493 3.043l-2.101 1.047v6.023c0 3.313.031 6.207.133 6.043.129-.227 2.886-1.36 5.715-2.988m21.945-3.047V66.41l-4.77-2.71c-2.625-1.497-4.953-2.716-5.172-2.716s-.398 2.688-.398 5.977v5.977l5.008 2.734c2.754 1.5 5.082 2.738 5.172 2.75.086.004.16-2.695.16-6m12.308 3.043L81.04 72.5V60.313L77.65 62.3a121 121 0 0 1-5.497 3.043l-2.097 1.047v6.023c0 3.313.156 6.02.351 6.02.196 0 2.664-1.336 5.492-2.965M37.734 58.21c2.664-1.52 4.758-3.043 4.649-3.387-.11-.344-2.344-1.793-4.969-3.215l-4.773-2.582-4.078 2.207c-7.231 3.914-7.133 3.426-1.391 6.77 2.789 1.625 5.215 2.957 5.39 2.96.176.005 2.508-1.234 5.172-2.753m34 .148c2.61-1.437 4.907-2.875 5.094-3.18.387-.624-8.695-5.843-10.09-5.8-.488.016-3.035 1.293-5.656 2.84l-4.773 2.808 5.093 2.97c2.801 1.628 5.203 2.968 5.336 2.972.13.008 2.38-1.164 4.992-2.61M46.777 43.33v-6.017l-2.097-1.054c-1.157-.574-3.625-1.946-5.496-3.04l-3.391-1.991v12.191l5.008 2.937c2.754 1.614 5.226 2.946 5.492 2.961.27.02.484-2.675.484-5.988m12.121 2.856 4.688-2.707V31.352l-5.172 2.93-5.172 2.925v6.11c0 3.359.219 5.988.485 5.84a921 921 0 0 0 5.171-2.973m-3.492-17.422c5.703-3.188 5.82-2.672-1.511-6.696l-4.2-2.304-10.625 6.101 5.313 3.008c2.922 1.656 5.465 2.942 5.648 2.86.188-.086 2.606-1.422 5.375-2.97"/></svg>