<svg xmlns="http://www.w3.org/2000/svg" viewBox="0 0 100 100"><path fill="#FFF" d="M0 0h100v100H0z"/><path fill="#0032A0" d="M0 .125v27.063c2.879-.083 6.168.875 9.734 1.347l-6.27.8A67 67 0 0 0 0 29.599v1.41c4.543-.848 9.5-1.399 14.105-1.438 40.344-9.629 73.77-.57 73.77-.57C80.703 27.367 40.75 21.918 0 37.93v2.43c6.05-2.047 12.441-3.626 18.555-4.348 9.066-1.121 17.5-.625 24.593 1.383 29.825-2.133 51.426 4.257 51.426 4.257C86.457 40.332 42.93 34.355 0 54v1.95c11.883-5.684 24.352-8.966 34.973-9.665 10.773-.582 20.41.957 27.652 5.27C79.707 51.289 92.727 53.5 100 55.27V.125Zm30.266 31.012a30 30 0 0 1 7.746 3.3l-3.067-.476c-2.625-.988-5.73-1.652-8.816-2.09a42 42 0 0 1 4.137-.734m-.25 7.578C20.879 38.703 10.375 40.34 0 43.789v3.148c10.688-4.164 21.477-6.695 31.82-8.195a93 93 0 0 0-1.804-.027m23.511 3.144c2.137 1.41 5 3.653 6.7 5.79l-1.782-.583c-2.52-1.82-5.168-3.48-8.578-4.875 1.14-.074 2.324-.261 3.66-.332m-13.84 9.332C27.669 51.223 13.915 54.137 0 59.977v6.09c17.563-8.544 35.465-12.602 51.066-13.946a64.6 64.6 0 0 0-11.379-.93m37.934 3.625C56.734 54.86 27.52 58.356 0 74.106v2.527a176 176 0 0 1 3.555-1.957c8.988-4.836 17.957-8.2 26.933-10.25 8.496-2.028 16.817-2.742 24.414-2.067 14.383 1.29 24.707 7.575 29.68 18.426.043.082 3.598 8.05 3.938 15.567l-1.72-4.305c-.452-2.152-1.042-4.356-2.167-6.336-3.688-7.156-10.863-12.297-20.551-15.316-8.789-2.778-20.34-2.895-32.32-.555C21.129 71.863 10.305 75.875 0 80.98v18.9h1c6.18-4.602 12.848-7.969 19.773-10.719 18.168-7.824 35.84-10.183 49.102-6.664C79.609 85.29 85.98 91.04 88.566 99.88H100V56.07a197 197 0 0 0-22.375-1.254Zm-7.969 1.664c.54.387 1.043.88 1.52 1.473.183.262 6.125 6.11 8.113 12.063l-2.527-2.782c-3.028-4.476-6.867-7.851-12.188-10.437 1.594-.192 3.59-.25 5.082-.317M52.113 87.691q-6.627.095-13.886 1.438c-9.875 1.808-20.23 5.164-30.18 10.75h75.95c-3.54-5.164-9.173-8.465-16.048-10.36q-7.33-1.945-15.84-1.828Zm0 0"/></svg>