<svg xmlns="http://www.w3.org/2000/svg" viewBox="0 0 100 100"><path fill="#2F4A93" d="M0 0h100v100H0z"/><path fill="#FFF" d="M41.102 38.05c0 7.9-6.403 14.302-14.301 14.302S12.5 45.949 12.5 38.05s6.402-14.305 14.3-14.305c7.9 0 14.302 6.406 14.302 14.305M54.004 64.3c0 6.602-5.352 11.954-11.953 11.954-6.598 0-11.95-5.352-11.95-11.953 0-6.602 5.352-11.95 11.95-11.95 6.601 0 11.953 5.348 11.953 11.95m11.164-22.356c0 5.739-4.648 10.387-10.383 10.387s-10.387-4.648-10.387-10.387c0-5.734 4.653-10.382 10.387-10.382s10.383 4.648 10.383 10.382m12.867 5.703a4.899 4.899 0 0 1-9.797 0 4.895 4.895 0 0 1 4.899-4.894 4.9 4.9 0 0 1 4.898 4.894M71.602 58.68a6.51 6.51 0 0 1-6.512 6.511 6.513 6.513 0 1 1 0-13.027 6.513 6.513 0 0 1 6.512 6.516m11.136-3.121a3.283 3.283 0 1 1-6.566-.005 3.283 3.283 0 0 1 6.566.005m4.766-5.684a2.496 2.496 0 0 1-2.5 2.496 2.496 2.496 0 1 1 0-4.992c1.383 0 2.5 1.117 2.5 2.496m0 0"/></svg>