<svg xmlns="http://www.w3.org/2000/svg" viewBox="0 0 100 100"><path fill="#005D63" d="M0 0h100v100H0z"/><path fill="#FFF" d="M82.438 63.086c-.329-1.215-3.836-.7-6.731-.965a40.6 40.6 0 0 1-10.05-2.129c-3.79-1.332-7.454-2.863-10.645-4.601l-1.446-.766c-.257-.164-.46-.281-.738-.441a3 3 0 0 0-.562-.313c-.23-.105-.371-.226-.575-.344-.191-.125-.468-.257-.656-.379a9 9 0 0 1-.758-.53c-.164-.126-.257-.169-.484-.294l-.512-.312c-.258-.168-.414-.313-.668-.48a6 6 0 0 0-.465-.317c-.195-.102-.375-.258-.539-.375-.093-.07-.207-.149-.297-.238a7 7 0 0 0-.574-.497c-.175-.136-.347-.312-.535-.44l-.41-.34c-.285-.204-.465-.364-.758-.567-.176-.14-.336-.332-.515-.477-.215-.152-.399-.328-.625-.465-.133-.113-.286-.23-.391-.347-.149-.164-.266-.278-.422-.434-.11-.12-.305-.262-.426-.379a5 5 0 0 0-.656-.64c-.148-.141-.191-.203-.246-.274a4 4 0 0 0-.2-.238l-.21-.207c-.051-.05-.11-.098-.262-.254-.047-.047-.137-.172-.219-.285l-.175-.238c-.153-.165-.247-.254-.336-.36a3 3 0 0 0-.247-.25 1 1 0 0 1-.14-.2 1.4 1.4 0 0 0-.137-.198c-.09-.102-.152-.059-.172-.047-.05.05-.066.133-.008.258.067.14.18.297.25.386l.032.047.074.14.113.204c.121.148.246.258.34.379l.121.117c.063.082.137.164.192.25.062.102.125.195.207.285.043.028.066.07.109.121q.045.07.11.153l.195.199c.101.105.222.21.316.305q.117.107.258.25c.207.25.441.507.629.754.11.14.304.242.437.343.157.11.254.278.364.418.09.106.277.262.355.383.176.242.395.457.645.625.167.137.296.242.44.422.071.101.317.344.411.445.23.305.332.59.297.59-.156.043-.543-.309-.77-.445-.199-.125-.222-.176-.398-.317-.043-.043-.32-.246-.422-.359a8 8 0 0 1-.351-.387c-.317-.414-.438-.441-.809-.797-.277-.273-.602-.511-.871-.761a3 3 0 0 1-.234-.243c-.075-.093-.188-.175-.262-.25-.133-.167-.293-.464-.438-.582a6 6 0 0 1-.422-.351c-.058-.024-.109-.098-.156-.145a.6.6 0 0 1-.23-.203c-.176-.215-.352-.453-.532-.683-.074-.118-.207-.211-.28-.32-.18-.247-.329-.505-.505-.747-.254-.332-.601-.566-.86-.894-.233-.336-.394-.735-.62-1.082-.098-.164-.258-.282-.367-.414-.067-.09-.098-.188-.16-.286l-.399-.566c-.16-.23-.27-.512-.437-.758-.028-.043-.086-.199-.172-.34a3.3 3.3 0 0 1-.313-.453c-.101-.172-.164-.297-.238-.426-.09-.125-.14-.242-.203-.332-.047-.086-.164-.246-.207-.316-.16-.223-.196-.344-.352-.566-.097-.121-.2-.23-.277-.196-.067.051-.047.125-.028.188.055.191.055.164.137.3.13.223.168.337.305.54.058.105.164.336.258.468.09.125.164.262.226.375.055.118.153.407.254.528q.128.189.215.394c.14.258.297.469.438.672.085.164.18.348.261.512.18.277.399.52.574.8l.317.587c.105.16.258.293.355.46.13.188.196.403.325.594.09.16.226.293.324.453.18.258.34.5.511.75.106.137.23.243.325.383.133.188.242.395.386.559.164.16.207.258.348.402.207.246.676.945.606.945-.29.032-.833-.593-1.086-.82-.168-.18-.371-.312-.493-.48-.183-.258-.32-.54-.504-.774-.062-.09-.183-.16-.238-.254-.133-.16-.25-.336-.398-.488-.059-.055-.13-.098-.176-.168-.227-.297-.414-.605-.645-.914-.082-.117-.207-.23-.289-.355-.066-.09-.109-.188-.18-.301-.074-.14-.195-.274-.28-.41-.07-.098-.114-.211-.184-.297-.11-.184-.277-.34-.395-.528-.086-.144-.109-.336-.203-.496-.25-.367-.531-.761-.761-1.144-.055-.098-.09-.203-.145-.317-.188-.308-.371-.632-.574-.945-.07-.113-.098-.246-.18-.352-.082-.156-.223-.25-.305-.39-.074-.113-.113-.219-.164-.336a4 4 0 0 0-.25-.469c-.05-.105-.078-.203-.14-.297a10 10 0 0 1-.606-1.164c-.113-.21-.258-.402-.355-.617-.106-.23-.219-.488-.32-.715a3 3 0 0 1-.165-.469c-.113-.257-.297-.468-.406-.722-.074-.164-.117-.332-.187-.477-.047-.082-.125-.16-.192-.117q-.081.042-.023.242c.07.274.21.563.277.711.14.297.195.61.332.903.07.16.18.324.25.488l.38.836c.07.148.132.312.222.449.035.09.11.184.144.258.086.203.114.394.188.582.101.187.246.347.316.535.457.945.906 1.871 1.453 2.715.145.238.219.531.371.77.164.25.375.429.536.675.113.207.156.477.261.688.188.32.407.601.602.886.05.09.062.18.117.258.066.117.172.242.242.363.098.16.145.336.254.473.121.164.277.297.383.445.152.207.246.438.394.625.102.137.254.239.36.375l.906 1.188c.238.312.691.797.902 1.215.063.14.286.433.235.496-.114.09-.676-.528-.774-.63-.23-.23-.437-.534-.632-.792-.06-.066-.606-.59-.653-.652l-.144-.23c-.16-.22-.25-.481-.41-.704-.067-.078-.165-.148-.231-.238-.121-.168-.21-.356-.328-.528-.191-.261-.441-.488-.629-.761-.219-.282-.363-.625-.574-.926-.11-.137-.235-.258-.328-.41-.059-.067-.075-.14-.114-.211a1.8 1.8 0 0 1-.238-.383c-.062-.121-.098-.223-.168-.336l-.66-1.074c-.098-.145-.156-.328-.254-.488-.16-.25-.387-.477-.547-.75-.207-.305-.3-.676-.492-.989-.133-.203-.297-.39-.414-.593-.145-.223-.215-.48-.328-.711-.121-.204-.278-.399-.375-.602-.106-.23-.176-.45-.278-.676-.062-.12-.152-.25-.195-.375-.074-.148-.094-.312-.168-.465-.183-.425-.48-.828-.676-1.254a8 8 0 0 1-.386-.945c-.055-.176-.086-.347-.168-.512-.176-.382-.39-.8-.57-1.199l-.215-.613a.8.8 0 0 0-.047-.184c-.082-.18-.18-.355-.25-.535l-.211-.652c-.274-.68-.532-1.461-.785-2.176-.024-.133-.04-.285-.086-.43l-.399-1.113c-.074-.187-.254-.121-.203.067.047.253.09.32.117.52l.063.296c.023.129.094.262.129.375.066.223.078.426.152.656l.313.887q.04.207.082.45c.054.14.105.296.148.421.148.379.297.723.426 1.105l.164.641c.066.117.152.234.187.356.055.09.067.195.106.304.097.23.183.485.281.723.09.195.207.394.281.613.035.09.035.184.07.281q.336.96.743 1.891c.066.152.09.3.152.461.055.125.137.242.184.375l.093.25c.083.168.215.316.305.484.23.489.434.957.719 1.375.277.38.383.907.586 1.375.101.211.219.395.348.586.058.102.101.227.148.325.125.234.191.445.363.656.121.18.106.23.207.465.035.07.157.53.13.53-.044.032-.266-.112-.333-.198-.113-.114-.27-.262-.383-.512-.05-.14-.164-.352-.218-.465-.141-.312-.387-.562-.551-.84-.113-.156-.16-.347-.254-.527-.145-.32-.317-.649-.465-.984-.066-.13-.16-.258-.246-.387-.074-.121-.117-.266-.203-.399-.168-.28-.375-.59-.512-.894-.105-.23-.164-.465-.265-.676-.024-.07-.09-.144-.133-.21-.063-.114-.098-.235-.164-.364-.075-.176-.188-.336-.278-.516-.156-.351-.254-.707-.414-1.043-.078-.176-.207-.312-.273-.468-.106-.243-.125-.551-.258-.81-.285-.679-.625-1.374-.898-2.1-.032-.118-.047-.258-.086-.38-.11-.32-.254-.605-.38-.906-.046-.137-.054-.258-.097-.394-.074-.22-.18-.442-.254-.645-.02-.07-.027-.156-.058-.223-.082-.187-.137-.43-.227-.628-.047-.106-.133-.22-.164-.329-.082-.207-.063-.457-.125-.664a24 24 0 0 0-.332-.886c-.047-.164-.063-.332-.129-.496-.07-.196-.14-.41-.207-.594-.078-.211-.066-.406-.14-.621a2.4 2.4 0 0 0-.165-.465c-.101-.297-.14-.594-.234-.856l-.05-.14c-.028-.074-.083-.145-.153-.125-.074.027-.074.14-.074.21.02.196.097.384.156.56.058.163.101.355.14.523.028.117.02.23.051.351.04.164.098.32.145.489.039.144.02.32.05.437.106.352.215.746.336 1.074.047.176.063.38.11.52l.187.535c.055.164.067.285.125.43.067.156.149.304.196.48.058.207.058.426.125.621.132.34.277.649.39.977.04.11.047.234.09.36.102.269.172.57.262.847.152.383.34.777.465 1.168.148.383.172.844.32 1.199.082.18.254.297.328.461.063.121.04.238.082.375.043.148.11.289.16.43q.048.192.106.37c.062.145.172.282.218.427.102.23.165.48.29.675.09.153.222.301.312.48.09.188.117.395.195.595.13.292.297.562.395.882.098.262.137.563.273.801.121.25.29.469.43.703l.234.547c.07.125.196.262.282.41.09.176.199.371.277.551.066.148.09.281.16.406.125.184.215.344.328.528.117.18.219.37.297.57.067.16.121.305.207.437.094.13.211.254.285.38.086.136.188.6.141.613-.082.03-.36-.223-.445-.313-.207-.281-.32-.629-.508-.906-.215-.309-.348-.477-.508-.828-.098-.2-.254-.559-.379-.746-.11-.164-.254-.32-.34-.508-.066-.149-.11-.344-.172-.496-.101-.223-.308-.371-.414-.586-.132-.262-.18-.531-.308-.781-.059-.106-.149-.239-.196-.364-.066-.156-.109-.3-.18-.457-.144-.312-.366-.574-.495-.89-.16-.325-.243-.66-.41-.993-.075-.164-.215-.324-.297-.503-.118-.23-.164-.47-.286-.704-.062-.14-.156-.28-.226-.421-.09-.196-.125-.426-.215-.633q-.324-.726-.64-1.446c-.079-.187-.102-.37-.188-.566-.066-.164-.16-.309-.234-.484-.18-.418-.25-.914-.438-1.332-.094-.215-.207-.418-.297-.641-.12-.371-.183-.742-.308-1.11-.2-.566-.368-1.167-.57-1.71-.055-.184-.063-.34-.122-.512l-.18-.496c-.042-.125-.07-.328-.113-.496a76 76 0 0 0-.449-1.438c-.027-.117-.04-.312-.082-.472-.012-.078-.066-.184-.082-.254-.043-.106-.043-.196-.07-.317-.133-.347-.22-.758-.34-1.105-.02-.106-.024-.266-.067-.399-.16-.492-.234-1.105-.422-1.566-.042-.082-.097-.176-.187-.152-.09.02-.066.117-.062.195.027.238.113.426.152.621.012.074.012.2.012.293.023.094.035.203.066.281l.273.946c.028.144.008.359.043.52.125.468.215 1.03.399 1.468.164.375.191.844.285 1.262q.058.268.07.543c.032.168.133.3.188.445.039.113.039.207.074.312.086.297.152.606.27.907.07.207.18.41.25.62.039.087.02.165.046.262.047.211.09.422.16.63.141.406.278.859.419 1.265.085.238.105.46.19.687.317.875.657 1.77.966 2.649a6 6 0 0 1 .16.574c.066.203.187.383.273.55.114.24.125.477.215.724.106.27.246.492.34.793.05.136.106.292.164.433.05.11.149.211.203.297.07.184.082.414.176.582.082.184.227.313.324.488.106.149.11.336.188.52.129.262.273.508.394.8.051.118.078.231.133.344.043.125.152.258.211.391l.012.008q.004.034.02.074a.8.8 0 0 0 .05.184c.027.074.117.207.145.257.02.028.082.098.132.16l.067.09c.117.172.125.45.222.641.09.207.254.363.36.563.066.156.101.55.02.558-.395 0-.426-.562-.551-.847-.118-.235-.27-.426-.395-.649a1.4 1.4 0 0 1-.09-.219 4 4 0 0 1-.09-.218c-.047-.106-.047-.102-.074-.168-.043-.075-.156-.211-.187-.29v-.011c-.16-.238-.266-.586-.38-.754-.058-.102-.14-.191-.195-.29-.097-.151-.152-.339-.23-.526-.074-.149-.191-.31-.262-.47-.09-.198-.101-.448-.195-.648-.043-.105-.137-.218-.184-.316-.101-.234-.172-.484-.289-.703-.058-.114-.133-.211-.195-.324-.082-.188-.14-.391-.234-.579a13 13 0 0 1-.602-1.18c-.098-.245-.137-.48-.242-.71-.082-.2-.2-.399-.293-.582-.05-.125-.074-.25-.121-.383q-.129-.346-.27-.688c-.05-.136-.09-.488-.125-.625-.066-.16-.152-.343-.222-.503-.102-.247-.145-.504-.254-.754l-.242-.578c-.063-.168-.067-.317-.141-.477-.047-.113-.121-.25-.156-.371-.063-.137-.09-.375-.141-.567-.066-.207-.156-.41-.219-.62-.05-.15-.05-.512-.101-.606-.211-.64-.41-1.34-.617-1.988-.079-.29-.125-.594-.215-.887-.028-.121-.028-.266-.063-.387-.055-.18-.14-.383-.187-.558l-.082-.395c-.032-.133-.106-.281-.153-.414-.125-.383-.187-.805-.297-1.172-.046-.168-.046-.371-.086-.52-.148-.464-.19-1.003-.316-1.511l-.086-.418c-.234-.914-.344-1.945-.61-2.836-.046-.164.009-.375-.019-.563q-.088-.304-.18-.574c-.027-.097-.027-.168-.046-.258-.051-.164-.121-.28-.192-.261-.097.043-.082.133-.082.258.012.21.031.37.082.539.024.152.008.257.043.39.082.281.113.684.153.946.02.109.011.25.03.378.032.13.126.317.165.45.023.195.023.445.043.64q.053.262.14.512c.032.137 0 .277.047.414.035.137.121.262.141.402.027.18 0 .418.031.559.203.816.258 1.758.5 2.547.028.121.028.23.055.336.2.676.348 1.418.55 2.094.024.101.024.21.051.332.07.234.118.492.165.738.035.105.035.2.058.308.067.258.164.493.242.743.032.125.04.226.059.351.023.098.07.203.101.285.04.149.024.29.063.407.035.082.102.16.121.25.027.14.047.28.09.43.047.171.14.34.215.507.054.14.054.277.105.418.106.254.203.516.29.777.081.207.09.418.171.633.047.133.106.282.152.418.036.113.055.211.09.332.04.106.153.27.223.395.047.156.027.351.074.512.047.164.14.296.2.437.05.164.05.313.085.469.04.125.121.238.172.351l.145.383c.027.09.113.18.144.274.067.144.125.3.184.468.098.207.105.492.176.742.02.07.008.254-.04.266-.097.016-.214-.144-.285-.242a3.4 3.4 0 0 1-.32-.566l-.062-.223a6 6 0 0 0-.2-.54c-.039-.097-.109-.214-.148-.327-.055-.16-.031-.356-.094-.492-.047-.122-.144-.211-.207-.333-.031-.109-.047-.23-.094-.328a2.3 2.3 0 0 0-.21-.37c-.043-.118-.043-.235-.086-.387-.051-.165-.102-.332-.168-.477-.067-.16-.164-.305-.235-.48l-.078-.258a3 3 0 0 0-.152-.356l-.074-.281c-.063-.133-.133-.27-.18-.418-.043-.121-.047-.238-.098-.36l-.199-.632c-.047-.164-.055-.317-.105-.469-.063-.184-.137-.36-.196-.543-.058-.148-.07-.316-.113-.453-.07-.203-.164-.379-.234-.59-.043-.164-.043-.328-.07-.48l-.368-1.196c-.125-.437-.144-.941-.273-1.379-.086-.308-.192-.609-.286-.914-.043-.168-.043-.324-.078-.484a20 20 0 0 0-.324-1.16c-.062-.195-.047-.39-.101-.602-.059-.199-.07-.445-.125-.668-.047-.136-.09-.222-.118-.406-.043-.164-.03-.375-.066-.508-.027-.136-.254-.906-.273-1.047-.02-.132-.02-.406-.032-.484-.02-.066-.133-.406-.14-.48-.024-.09-.024-.188-.067-.372-.023-.171-.12-.543-.14-.656-.024-.101-.024-.332-.043-.43-.02-.124-.09-.37-.137-.55-.063-.219-.008-.457-.078-.664-.031-.164-.098-.305-.156-.457-.024-.125-.063-.293-.063-.375-.023-.106-.023-.356-.035-.45 0-.125-.05-.328-.067-.511a3.4 3.4 0 0 0-.109-.66c-.023-.086-.015-.2-.027-.274-.07-.242-.137-.473-.27-.453-.082.008-.117.078-.074.242.05.188.063.332.11.531.042.098.042.34.046.422 0 .14.008.16.032.285 0 .051.02.184.027.239.02.086.055.203.055.273v.285c0 .07 0 .09.015.203.031.114.043.118.055.22q.006.122 0 .218c0 .082.012.16.031.246.05.164.16.39.121.621-.031.238-.004.48.082.703.028.149 0 .301.028.43l.136.582c.043.176.024.316.063.465.055.215.207.512.215.594.02.105.007.363.043.527.027.164.066.351.074.46.015.095 0 .15.015.22.004.074.118.449.133.543.02.105.012.156.032.25.02.101.105.496.117.632.02.125.008.207.027.328.05.208.133.372.164.56.04.144.024.23.043.347.043.176.102.332.133.504.027.129.027.261.05.386.051.29.094.582.173.868.054.164.152.332.195.488.043.148.05.3.094.45.03.132.125.25.16.394.023.101.012.226.031.351.043.133.105.258.117.41.035.102.016.2.035.309.036.117.098.223.13.336.027.152.027.312.066.445.043.176.11.344.164.504.054.145.035.309.066.469.094.347.215.734.328 1.055.059.167.043.355.09.542.05.118.113.211.16.32.043.114.016.24.043.36.055.219.086.5.164.703.067.23.207.434.297.649.078.238.09.48.16.718q.113.307.254.594c.07.184.051.406.121.582.055.2.192.348.274.551.101.223.148.453.215.684l.062.297c.09.289.242.542.344.82.035.14.05.242.082.363.07.211.164.41.254.621.082.168.183.336.27.516.074.16.081.332.163.496.051.164.125.344.196.504.039.105.039.199.09.304.183.45.433.895.64 1.344.117.239.164.504.278.746.09.2.19.38.285.586.047.133.066.258.133.383.097.238.257.484.367.738.03.043.113.305.07.41 0 .008-.016.028-.02.028-.07.02-.226-.098-.304-.184-.29-.285-.34-.824-.528-1.191l-.183-.332a2 2 0 0 0-.078-.215c-.13-.242-.278-.445-.383-.71-.078-.177-.102-.384-.168-.552-.34-.71-.715-1.398-1.02-2.101-.144-.325-.175-.7-.296-1.047-.075-.203-.207-.38-.282-.567-.066-.156-.082-.324-.16-.468-.098-.211-.23-.39-.297-.621-.047-.141-.07-.286-.125-.422-.062-.164-.172-.293-.234-.426-.09-.23-.11-.457-.195-.719a3 3 0 0 0-.137-.402c-.035-.11-.047-.235-.082-.348-.09-.273-.25-.512-.36-.777-.066-.188-.046-.418-.117-.602-.07-.144-.187-.265-.258-.414-.054-.168 0-.36-.046-.547-.047-.183-.118-.347-.18-.515-.027-.121-.031-.227-.074-.32l-.235-.66c-.035-.118-.035-.216-.086-.329-.054-.117-.16-.238-.207-.387-.054-.21-.066-.437-.117-.66-.09-.265-.187-.496-.265-.765-.032-.086-.032-.168-.043-.262-.07-.242-.106-.516-.16-.746-.036-.117-.024-.223-.051-.336a22 22 0 0 0-.22-.668l-.077-.422c-.098-.36-.207-.781-.317-1.121-.023-.106-.008-.191-.047-.297-.07-.27-.187-.605-.25-.875-.027-.168-.027-.332-.066-.477-.039-.199-.105-.367-.148-.558a1 1 0 0 1 0-.223c-.02-.125-.028-.261-.047-.363-.121-.504-.32-1.098-.418-1.594-.047-.18-.047-.363-.067-.527-.02-.133-.027-.274-.07-.399-.043-.132-.098-.261-.117-.398-.024-.21-.027-.418-.067-.621q0-.029-.003-.05c-.028-.243-.16-.767-.184-.974a11 11 0 0 1-.102-.73c0-.152-.03-.312-.047-.48-.039-.254-.101-.485-.12-.743-.008-.18-.008-.336-.028-.472-.004-.106-.02-.262-.137-.262s-.097.133-.113.246c-.004.258.043.61.066.766.04.3.004.601.04.91.02.172.078.348.101.504.04.293.063.594.09.863v.016c.016.14.023.257.05.382-.003.016 0 .024.012.036v.043c.024.054.032.117.051.168.028.105.02.195.051.312.086.344.063.711.156 1.043.125.488.196 1.012.348 1.508.031.129 0 .277.031.43q.08.224.125.449c.035.187.008.375.059.558.039.176.097.348.136.516.06.187.06.398.118.613.066.227.129.465.164.672.054.258.07.543.125.793.031.23.164.492.215.738l.007.243q.054.252.125.5c.012.085.004.144.032.234.086.316.183.71.27 1.02.026.09.034.187.058.277.066.215.129.383.156.496l.066.355c.047.164.098.309.122.47q.034.169.082.339c.035.14.101.266.152.406.09.281.113.586.2.867.054.16.14.32.198.489.04.164.059.355.106.539.086.27.191.586.285.855.125.332.191.7.297.988.05.137.043.254.082.399.101.297.195.644.293.957.055.164.055.324.125.488.101.258.254.489.351.742.075.239.098.457.184.68.113.285.234.567.355.871.067.211.106.422.18.621.067.157.164.336.246.496.059.149.121.301.153.45.043.109.16.304.25.46.09.208.109.426.18.645.124.336.284.691.421.996.063.117.07.23.117.367.086.22.23.387.32.586.087.203.118.407.192.594.133.281.23.445.223.84 0 .027-.016.066-.051.07-.067.028-.152-.09-.195-.125-.22-.222-.239-.414-.38-.715-.206-.445-.46-.851-.667-1.285-.09-.215-.14-.465-.25-.691-.055-.137-.145-.293-.207-.43-.106-.2-.149-.406-.254-.59a13 13 0 0 1-.383-.87c-.055-.126-.055-.231-.105-.329-.055-.125-.122-.23-.184-.348-.07-.183-.117-.41-.195-.601-.157-.348-.34-.727-.485-1.098-.11-.347-.176-.66-.304-1.031-.043-.133-.118-.3-.157-.438-.05-.14-.05-.246-.09-.375a17 17 0 0 0-.394-.949c-.067-.152-.09-.297-.145-.46l-.222-.602c-.09-.242-.094-.532-.192-.813-.199-.55-.46-1.156-.636-1.758-.028-.144-.012-.28-.055-.421q-.158-.471-.285-.954c-.11-.351-.09-.726-.207-1.086l-.434-1.347c-.043-.149-.023-.281-.066-.418a13 13 0 0 0-.328-1.074c-.067-.157-.067-.332-.118-.477-.066-.187-.25-.117-.242.094.012.18.082.418.102.508.023.136.023.261.05.394.047.242.126.45.196.66.066.239.066.43.137.676q.063.174.109.356c.074.23.074.484.16.683l.156.555c.032.125.032.23.07.332.048.21.118.433.188.629.031.129.02.238.051.351.043.164.086.34.133.489.043.16.043.37.078.527.105.297.207.605.305.875.101.3.109.625.226.937.2.555.375 1.192.582 1.743.055.148.031.297.082.449.055.238.102.476.188.703.047.113.117.23.164.344.066.133.07.265.14.414.051.11.118.23.157.336.07.187.05.402.12.562.048.14.114.282.165.418.062.153.062.313.12.457.063.133.15.258.196.367.059.125.07.254.121.38.047.128.117.273.176.394.059.133.07.285.125.441.05.121.14.25.188.375.046.145.046.301.109.45.078.226.207.398.309.62.058.141.066.313.132.47.086.187.192.367.274.538.105.235.207.489.289.704.18.406.25.843.414 1.246.152.277.316.57.457.843.07.157.094.328.164.489.094.18.227.32.297.5.074.175.121.343.187.52.102.214.25.425.348.624.055.13.09.262.137.363.11.25.297.442.398.692q.1.228.164.469c.133.246.305.468.434.714.09.2.148.387.25.57q.233.36.45.723c.108.172.253.446.339.618.082.203.23.347.32.539.078.18.2.375.293.562.125.196.23.34.344.508.207.313.328.637.527.953.137.215.282.422.446.625.394.547.953 1.54 1.199 1.875.2.258.367.586.547.852.144.222.328.441.476.629.13.18.23.355.344.539l.113.129c5.075 6.507 10.293 10.832 14.707 13.656h-.011c2.34 1.476 3.597 1.902 3.597 1.902.29.13.078.34-.058.442L24.363 89.145c-.074.046-.281.195-.207.367.067.125.34.05.407.027 21.011-7.45 36.261-13.574 45.585-18.043 9.45-4.535 12.622-7.125 12.29-8.41M26.516 38.055l-.141-.309c-.043-.117-.043-.238-.094-.332q-.25-.584-.523-1.164c-.07-.145-.16-.437-.102-.625.012-.031.074-.008.094 0 .055.063.094.09.145.152.039.051.046.106.082.168.078.125.183.258.253.39.141.31.165.638.31.935.089.19.23.359.327.554.043.106.07.207.113.332.02.09.012.192.02.262 0 .102-.008.164-.05.164-.247-.012-.321-.336-.434-.527m1.109 8.117c-.02.031-.031.058-.086.058-.277-.015-.36-.43-.477-.628-.113-.149-.195-.336-.289-.489-.078-.117-.171-.238-.234-.36-.078-.163-.102-.339-.203-.48-.047-.074-.137-.144-.188-.218a3.4 3.4 0 0 1-.39-.68c-.02-.105-.035-.191-.07-.297-.051-.148-.122-.324-.172-.492-.024-.09-.043-.25-.024-.309.008-.023.024-.047.043-.043.2.043.422.567.52.75.117.207.297.371.406.586.078.203.105.442.215.63.078.136.207.257.297.394.117.168.191.414.293.605.086.223.238.395.328.614a.7.7 0 0 1 .031.355m5.879-1.203c-.125-.024-.195-.098-.277-.16a1 1 0 0 1-.403-.793q0-.07.035-.063c.266 0 .532.395.637.594.02.062.09.21.078.312q-.006.1-.07.11m1.762.07c-.172.059-.586-.43-.703-.62-.231-.33-.446-.692-.684-1.013-.215-.304-.45-.511-.512-1.011 0-.067-.043-.223 0-.223.235.02.461.437.574.605l.278.348c.097.184.156.399.277.57.145.207.32.387.48.598.083.11.196.211.239.36.039.081.113.359.05.386m6.184 3.457c-.246.028-.543-.344-.66-.523-.039-.051-.18-.344-.137-.383.047-.05.328.05.414.113.188.149.344.364.442.73-.004.032-.028.06-.059.063"/></svg>