<svg xmlns="http://www.w3.org/2000/svg" viewBox="0 0 100 100"><path fill="#E60012" d="M0 0h100v100H0z"/><path fill="#FAE352" d="M46.992 23.164c1.367-3.793 2.324-7.723 3.024-11.684.746 4.098 1.722 8.168 3.187 12.079 1.305 3.507 3.246 6.722 4.965 10.027 1.566 3.02 2.82 6.387 2.406 9.84a9.74 9.74 0 0 1-4.945 7.625c-1.785 1.086-3.953 1.422-5.61 2.722-.789-.671-1.777-1.043-2.73-1.421-1.84-.707-3.695-1.551-5.086-2.985-2.125-2.082-2.992-5.168-2.781-8.09.191-3.441 1.828-6.562 3.437-9.539 1.508-2.789 3.055-5.582 4.13-8.574m1.835 21.324a3.107 3.107 0 0 0-1.719 3.848 3.1 3.1 0 0 0 3.766 1.965c1.656-.426 2.676-2.371 2.07-3.973-.52-1.644-2.543-2.555-4.117-1.84"/><path fill="#FAE352" d="M8.332 38.855c3.66-2.156 8.04-3.257 12.273-2.546 2.633.39 5.223 1.57 6.958 3.64 1.218 1.422 2.035 3.14 2.617 4.914.554 1.657.804 3.403 1.48 5.02a13.54 13.54 0 0 0 4.602 6.008c2.418 1.793 5.312 2.742 8.074 3.851 2.203.942 4.426 2.266 5.66 4.395.836-1.45 2.176-2.532 3.606-3.367 1.91-1.137 4.07-1.727 6.09-2.625 2.581-1.098 5.074-2.641 6.785-4.926 1.421-1.844 2.273-4.063 2.777-6.32.703-2.95 1.887-5.958 4.23-7.997 2.532-2.222 6.043-2.91 9.329-2.785 3.124.133 6.164 1.172 8.855 2.746-1.414.153-2.813.657-3.895 1.606-1.421 1.164-2.187 2.926-2.652 4.664-.668 2.613-1.371 5.242-2.582 7.668-1.375 2.754-3.605 5.113-6.39 6.469-4.114 2.035-8.829 2.394-13.356 2.195-3.27-.176-6.684.203-9.594 1.793a10.9 10.9 0 0 0-3.195 2.582c-2.207-2.625-5.598-3.95-8.941-4.285-2.243-.278-4.497.023-6.743-.043-3.953-.09-8.027-.746-11.472-2.793-2.137-1.262-3.856-3.153-5.063-5.313-1.137-2.054-1.84-4.316-2.457-6.574-.48-1.871-.926-3.832-2.148-5.379-1.157-1.516-2.973-2.418-4.848-2.598"/><path fill="#FAE352" d="M36.078 38.426c.813-1.008 1.832-1.817 2.856-2.602-1.989 2.223-3.555 5.078-3.352 8.145.11 2.547 1.418 4.93 3.34 6.562 2.258 1.989 5.133 3.047 7.937 3.992 1.114.403 2.282.805 3.145 1.653 1.25-1.188 2.992-1.543 4.547-2.145 3.172-1.101 6.398-2.691 8.344-5.535 1.488-2.176 1.933-5.035 1.171-7.555a12.5 12.5 0 0 0-3.02-5.082c2.544 1.68 4.54 4.258 5.286 7.246a9.01 9.01 0 0 1-1.691 7.7c-2.383 3.05-6.04 4.675-9.575 5.996-1.84.746-3.957 1.386-5.07 3.16-.98-1.586-2.812-2.266-4.453-2.926-3.031-1.14-6.125-2.36-8.578-4.531-1.84-1.586-3.227-3.79-3.485-6.234-.37-2.844.813-5.68 2.602-7.844M34.734 63.87c5.364-1.906 11.965-.039 15.278 4.66 3.683-5.25 11.492-6.969 17.066-3.836 2.547 1.426 4.453 3.785 5.75 6.36 1.445 2.808 2.11 5.925 3.324 8.82.739 1.746 1.668 3.535 3.266 4.648 1.66 1.114 3.668 1.493 5.61 1.805-4.27 1.977-9.137 2.594-13.786 1.926a18.6 18.6 0 0 1-10.066-4.75c-2.27-2.106-3.88-4.824-5.012-7.692-.648-1.57-1.02-3.289-2.066-4.664a4.74 4.74 0 0 0-3.118-1.894c.028-.086.067-.254.098-.34a13.2 13.2 0 0 1 9.106-2.27c.894.141 1.855.442 2.39 1.223.453.64.301 1.656-.402 2.051-.762.484-2.004.039-2.074-.918-.07-.512.324-.879.66-1.187-.524.246-1.125.457-1.446.988-.722 1.039-.39 2.547.563 3.324 1.547 1.305 4.07 1.02 5.39-.469 1.07-1.133 1.192-3.004.348-4.304-.77-1.207-2.105-1.946-3.476-2.266-2.016-.45-4.137-.191-6.078.457-2.024.695-3.946 1.863-5.246 3.594-.29.12-.61.004-.915.035a4.93 4.93 0 0 0-3.992 1.992c-1.05 1.383-1.41 3.11-2.07 4.688-1.129 2.855-2.742 5.57-5.012 7.671-2.847 2.676-6.59 4.32-10.46 4.797-4.524.563-9.243-.047-13.38-1.988 2.192-.34 4.543-.793 6.254-2.309 1.793-1.703 2.649-4.093 3.461-6.367.95-2.824 1.797-5.754 3.45-8.273 1.546-2.465 3.82-4.531 6.585-5.512m2.145 1.527c-1.074.434-2.07 1.157-2.621 2.188-.711 1.32-.492 3.094.574 4.156a4.1 4.1 0 0 0 4.746.766c1.188-.59 1.887-2.11 1.317-3.367-.262-.707-.965-1.059-1.618-1.325.375.344.785.797.614 1.356-.22.914-1.47 1.223-2.172.664-.692-.5-.696-1.59-.117-2.18.824-.886 2.105-1.054 3.253-1.097 2.856-.086 5.836.66 8.102 2.441l.184-.148c-.543-.368-.938-.899-1.457-1.297a12.66 12.66 0 0 0-5.664-2.512c-1.704-.297-3.516-.277-5.141.355"/></svg>