<svg xmlns="http://www.w3.org/2000/svg" viewBox="0 0 100 100"><path fill="#0093D0" d="M0 0h100v100H0z"/><path fill="#FFF" d="M59.922 26.938c-2.293-1.145-3.785-3.442-3.785-6.079 0-3.672 2.984-6.77 6.77-6.77 3.671 0 6.769 2.981 6.769 6.77 0 2.637-1.606 5.047-3.903 6.078v1.954c2.067.226 4.59 1.03 6.196 1.836.687-.118 1.605-.118 2.523-.118 8.492 0 14.457 5.621 14.457 13.309 0 4.82-4.246 9.18-9.062 9.18-4.82 0-9.18-4.703-8.262-9.524 0 0-.457 1.606-.457 3.672V71.57c-.23 2.754-3.902 18.012-21.113 18.012S29.172 74.324 28.945 71.57V47.246c0-1.95-.574-3.672-.574-3.672.918 4.59-3.558 9.524-8.262 9.524-4.82 0-9.062-4.36-9.062-9.18 0-7.688 5.965-13.309 14.457-13.309.918 0 1.836 0 2.523.118 1.493-.805 4.13-1.723 6.196-1.836v-1.953c-2.297-1.145-3.785-3.442-3.785-6.079 0-3.672 2.98-6.77 6.769-6.77 3.785 0 6.766 2.981 6.766 6.77 0 2.637-1.606 5.047-3.899 6.078v2.524c.574.23 1.149.348 1.719.691 1.035-2.297 3.098-4.015 5.508-4.82v-2.066c-2.293-1.032-3.899-3.442-3.899-6.078 0-3.672 2.98-6.77 6.77-6.77 3.668 0 6.766 2.98 6.766 6.77 0 2.636-1.606 5.046-3.786 6.078v2.066c2.41.805 4.477 2.523 5.508 4.82l1.723-.691Zm0 0"/><path fill="#ED1B2F" d="M86.082 44.035c0-6.312-4.246-11.36-13.078-11.36-5.852 0-12.738 4.934-12.738 17.438v18.59c2.523-1.723 6.082-3.215 7.918-3.215V48.164c0-6.656 4.82-8.605 7-8.605-1.266 1.148-2.067 2.523-2.067 4.476a6.413 6.413 0 0 0 6.426 6.422c3.672 0 6.426-2.637 6.539-6.422m-72.625 0c0-6.312 4.242-11.36 13.078-11.36 5.852 0 12.852 4.934 12.852 17.438v18.59c-2.528-1.723-6.082-3.215-7.918-3.215V48.164c0-6.656-4.82-8.605-7-8.605 1.261 1.148 2.066 2.523 2.066 4.476 0 3.555-2.984 6.422-6.426 6.422-3.785 0-6.539-2.637-6.652-6.422m0 0"/><path fill="#ED1B2F" d="M49.824 86.945c14.688 0 18.016-12.277 18.473-15.488v-4.133c-4.59 1.149-8.606 3.559-11.36 7.23-.917-4.245-3.667-7.804-7.113-10.214-3.441 2.297-6.078 5.969-7.113 10.215-2.754-3.672-6.77-6.082-11.356-7.23v4.132c.344 3.211 3.668 15.488 18.47 15.488M50.86 21.89v5.165c2.523.343 4.703 2.062 5.507 4.129-2.984 1.949-5.394 4.933-6.543 8.605-1.144-3.672-3.554-6.656-6.539-8.605.918-2.067 2.985-3.786 5.508-4.13v-5.163c-2.066-.461-3.672-2.41-3.672-4.59 0-2.64 2.18-4.703 4.703-4.703 2.64 0 4.707 2.062 4.707 4.703 0 2.18-1.61 4.129-3.672 4.59m0 0"/><path fill="#ED1B2F" d="M37.895 25.563v5.39c6.425 1.262 11.011 8.031 11.011 14.344v17.437c-2.98 1.723-5.965 5.278-6.883 8.149-.23-.23-.457-.574-.8-.805V47.59c0-6.77-3.672-13.653-10.098-15.832 0 0 2.063-.918 4.703-.918v-5.395a4.684 4.684 0 0 1-3.672-4.586c0-2.64 2.067-4.707 4.703-4.707 2.641 0 4.707 2.067 4.707 4.707 0 2.293-1.609 4.13-3.671 4.703m25.929.001v5.277c2.637 0 4.703.918 4.703.918-6.539 2.293-10.097 9.18-10.097 15.832v22.488c-.344.344-.575.574-.801.805-.918-2.985-3.902-6.543-6.887-8.149V45.297c0-6.313 4.59-13.082 11.016-14.344v-5.508a4.684 4.684 0 0 1-3.672-4.586c0-2.64 2.066-4.707 4.703-4.707 2.64 0 4.707 2.067 4.707 4.707.113 2.293-1.492 4.243-3.672 4.703m0 0"/></svg>