<svg xmlns="http://www.w3.org/2000/svg" viewBox="0 0 100 100"><path fill="#CC0327" d="M0 0h100v100H0z"/><path fill="#EEDC5E" fill-rule="evenodd" d="M69.95 20.293c-1.665.875-5.087 1.293-6.497-.18-1.527 2.383 1.418 4.633 4.813 3.375 1.988-.73 4.07-1.664 6.254-1.965 2.28-.324 5.015 0 5.992.989-8.473.511-19.332 5.144-27.422 10.843-6.285 4.438-10.2 8.442-14.93 14.75-.637.891-.539 1.563.594.97 5.55-2.829 12.7-5.16 18.863-6.708 4.926-1.219 10.188-2.375 15.203-1.004 2.532.696 4.883 2.344 5.793 4.875 1.18 3.262.278 7.125-3.629 7.727-1.937.293-3.218-.453-3.933-1.469-.344-.488-.516-.508-.79-.422l-5.015 1.531c-.281.09-.656.48-.445.98.457 1.157 1.535 2.665 2.719 3.548 3.19 2.375 7.37 2.64 11.003 1.219 5.02-1.957 7.672-7.204 6.93-12.766-.687-5.094-4.402-9.313-9.187-10.945-4.817-1.657-11.418-.922-16.707 1.011-1.399.516-1.727.727-.922.055 3.758-3.055 11.285-6.594 17.601-8.402 4.32-1.235 8.313-1.524 9.48-.57 1.177-7.215-4.812-11.922-12.14-10.051 2.578-1.633.543-5.196-3.156-5.184-6.113.035-11.945 2.816-17.68 3.441-3.219.36-7.015-.293-9.554-1.605-.5 5.05 5.656 8.766 11.515 7.539 4.11-.855 7.922-2.86 11.738-3.703 3.368-.758 5.102 1.289 3.508 2.117M37.715 79.094c-3.281 4.906-5.063 4.687-8.012 4.36-.676-.071-.668.042-.969.53l-.78 1.25c-.34.543-.313.614.468.95 5.598 2.343 10.695 1.933 14.828-4.293l18.957-28.547c1.887-2.844 2.715-4.367 5.363-4.492a3.004 3.004 0 0 1 3.13 2.347c.148.656.538.696.925.59l4.934-1.477c.273-.074.468-.476.488-.945.066-1.469-.809-3.597-2.14-4.64-3.766-2.93-9.481-1.918-13.727-1.106-6.813 1.324-15.172 4.027-22.352 7.586-1.875.941-3.973 1.902-5.125 3.629-1.984 2.96-7.531 11.527-9.656 14.418-3.59 4.812-5.078 4.656-8.082 4.344-.453-.051-.508.007-.735.382l-.89 1.45c-.3.492-.277.578.144.757 5.704 2.489 10.672 2.47 14.97-3.972l8.984-13.504c1.335-2.008 3.539-3.203 5.203-3.773L30.859 74.137c-3.265 4.906-4.984 4.676-7.922 4.367-.671-.078-.68.039-.968.508l-.797 1.281c-.25.402-.387.555.328.855 6.094 2.559 10.91 1.817 14.902-4.21l15.739-23.82c.828-1.263 2.808-2.263 4.687-2.657Zm0 0"/></svg>