<svg xmlns="http://www.w3.org/2000/svg" viewBox="0 0 100 100"><path fill="#529FC9" d="M0 0h100v100H0z"/><path fill="#FFF" d="M8.332 35.313s2.11-.208 2.832-.126c.84.094 2.527.782 3.363.876.703.078 2.176.48 2.88.44.866-.05 2.304-1.003 3.59-.776 6.73 1.187 17.015 13.3 23.843 13.007 12.324-.53 12.035-13.609 15.297-13.609h31.531C73.18 43.633 60.574 53.109 67.109 58.648c5.989 5.07 23.996-1.25 23.996-1.25s-7.507 7.477-20.46 7.477c-25.055 0-41.883-21.305-54.332-26.465-1.981-.816-5.75-2.394-7.981-3.097"/></svg>