<svg xmlns="http://www.w3.org/2000/svg" viewBox="0 0 100 100"><path fill="#193830" d="M0 0h100v100H0z"/><path fill="#FFF" d="M8.332 85.086h2.617s1.043-15.047 11.895-13.348c10.851 1.7 24.316 1.578 25.953-.457 2.476-3.082-26.606-4.25-31.703-.46-5.098 3.792 4.316-9.942 11.18-9.419 6.863.52 27.343 5.516 37.203.637 6.503-3.219-34.133-5.434-37.645-2.656-3.516 2.777 3.418-4.625 9.059-7.68 5.636-3.055 5.636-4.902 16.918-1.574 11.277 3.336 20.617 2.687 21.722 1.668 1.114-1.02-10.258-6.664-17.933-6.293-7.672.375-13.22.465-13.774.926-.554.46 11-7.957 14.793-8.422a92.5 92.5 0 0 1 15.067-.555c7.21.348 17.007-4.258 17.933-5.734.926-1.48-11.09-1.668-16.73.093-5.64 1.754-16.828 4.067-17.844 5.274-1.016 1.2.648-2.594 6.75-5 6.102-2.402 20.289-13.145 19.469-16.688-.399-1.71-15.957 5.77-25.48 17.614-9.52 11.843-15.903 12.21-15.903 12.21s6.57-8.417 10.176-13.41c3.601-5 7.394-15.917 6.93-16.843-.465-.922-11.465 9.437-13.497 15.082-2.035 5.64-4.531 15.547-5.824 16.379-1.297.832-7.953 7.496-8.508 7.402-.55-.094.465-5.184 2.04-7.957 1.57-2.777.831-16.75-1.946-18.508-2.773-1.754-4.25 10.918-3.793 12.86.469 1.945 3.344 12.609 1.348 14.097C24.09 57.836 8.62 74.148 8.332 85.082m0 0"/></svg>