<svg xmlns="http://www.w3.org/2000/svg" viewBox="0 0 100 100"><path fill="#E2231A" d="M0 0h100v100H0z"/><path fill="#FFF" d="M89.563 50c0 14.563-17.708 26.383-39.57 26.383-21.864 0-39.575-11.809-39.575-26.383s17.785-26.383 39.594-26.383c21.812 0 39.574 11.805 39.574 26.383m-32.34-17.863a27.4 27.4 0 0 0-15.5-6.168c2.738-.395 5.5-.594 8.266-.594 19.543 0 35.617 9.652 37.586 21.984a22.1 22.1 0 0 1-17.414-4.78Zm12.938 25.191a22.1 22.1 0 0 1 17.379-4.781c-1.97 12.379-18.04 21.988-37.586 21.988a57 57 0 0 1-8.266-.594 27.34 27.34 0 0 0 15.504-6.156Zm17.59-8.23H23.698c.504-5.254 5.492-9.805 12.871-12.344l7.258 5.879a22.06 22.06 0 0 0 12.957 5.004 22 22 0 0 1-4.156-2.696L39.668 34.43a27.35 27.35 0 0 0-9.961-5.211C19.191 33.62 12.23 41.316 12.23 49.98s6.973 16.391 17.477 20.754a27.3 27.3 0 0 0 9.961-5.199l12.941-10.508a22 22 0 0 1 4.176-2.695 22.02 22.02 0 0 0-12.937 5l-7.278 5.863c-7.336-2.539-12.37-7.093-12.87-12.36h64.073a16 16 0 0 0 0-1.757"/></svg>