<svg xmlns="http://www.w3.org/2000/svg" viewBox="0 0 100 100"><path fill="#F7CD46" d="M0 0h100v100H0z"/><path fill="#D50029" d="M63.125 45.96c-.973 1.321-2.605 3.61-3.594 4.95-.504.68-1.414 1.918 1.602 1.918h15.863s2.559-3.48 4.703-6.39c2.914-3.958.25-12.192-10.172-12.192H30.473l-7.121 9.672h38.796c1.961 0 1.934.746.977 2.043m-11.656 9.255c-3.012 0-2.106-1.242-1.602-1.922.992-1.34 2.649-3.605 3.621-4.926.957-1.297.985-2.043-.976-2.043H34.766l-14.293 19.43h34.863c11.516 0 17.926-7.832 19.902-10.54zM0 59.37v2.238h19.77l1.648-2.238Zm24.477-4.156H0v2.234h22.828ZM0 65.754h16.719l1.64-2.227H0Zm75.05-4.145h24.942v-2.238H76.7ZM72 65.754h27.992v-2.227H73.637Zm7.754-10.54-1.645 2.24h21.883v-2.24Zm0 0"/></svg>