<svg xmlns="http://www.w3.org/2000/svg" viewBox="0 0 100 100"><path fill="#FB0F0C" d="M0 0h100v100H0z"/><path fill="#FFF" d="M27.621 17.613c1.965 1.82 4.656 2.965 7.305 3.242 3.336.348 6.054-1.53 9.297-1.312 3.605.23 5.687 2.879 8.504 4.676 2.914 1.875 7.3 3.965 10.859 3.386 2.047-.332 4.246.192 6.07 1.11 1.692.855 3.16 2.113 4.38 3.558 1.304 1.551 1.984 3.395 3.616 4.606 1.203.89 2.348 1.309 3.684 1.851 1.68.672 2.953 1.727 4.418 2.715 1.441.989 2.808 1.39 4.39 1.965.977.348 1.618 1.278 1.512 2.324-.094.918-.988 1.633-1.086 2.434-.062.469-.195.93-.36 1.367-.425 1.11-1.503 2.723-2.843 2.766-2.21.086-4.41.36-6.574.82-3.477.727-7.016 1.902-9.852 4.098-1.664 1.285-2.699 2.922-3.824 4.644-3.402 5.196-7.61 10.012-12.5 13.864-3.242 2.55-6.875 4.687-10.844 5.886-.875.262-3.765 1.36-4.558.836a39 39 0 0 1-2.305-1.699c-4.652-3.656-8.855-8.215-11.437-13.582a175 175 0 0 0 13.425-4.988c3.254-1.36 6.497-2.813 9.52-4.621 1.344-.793 4.496-2.43 4.762-4.215.156-1.059-4.192-1.332-5.106-1.617-4.125-1.293-7.64-4.106-10.226-7.52-1.16-1.531-1.801-2.867-3.868-3.45-2.859-.82-5.554.313-8.347.759-3.672.574-7.531.308-11.028-.98-.882-.329-7.773-3.184-5.972-5.087.851-.894 2.992 1.098 3.687 1.309 1.035.32 2.102.531 3.168.699a24.8 24.8 0 0 0 5.938.27c1.926-.153 4.976-.567 6.433-1.997a14.26 14.26 0 0 1 5.95-3.414c4.507-1.273 8.468.707 11.507 4.012 1.235 1.336 4.496 4.469 6.329 2.527 2.03-2.156 5.765-.054 7.57 1.262.773.574 1.308.41 2.09-.265.968-.829-1-1.29-1.492-1.407a24.5 24.5 0 0 1-4.028-1.457c-2.48-1.125-4.855-2.629-6.668-4.68-1.199-1.351-1.738-3.09-3.176-4.222-2.332-1.832-4.863-1.656-7.64-1.918a19.3 19.3 0 0 1-5.242-1.281c-2.543-.977-4.688-2.465-6.301-4.672-1.024-1.395-1.781-3.461.863-2.602M74.625 39.27c-1.203 0-2.184.542-2.184 1.226 0 .664.98 1.215 2.184 1.215 1.2 0 2.18-.55 2.18-1.215 0-.684-.977-1.226-2.18-1.226"/></svg>