<svg xmlns="http://www.w3.org/2000/svg" viewBox="0 0 100 100"><path fill="#FFAD00" d="M0 0h100v100H0z"/><path fill="#05164D" d="M65.785 46.094c-.992 0-2.262 0-3.887.09l1.176-1.989h1.899c6.785 0 11.851.36 16.465 1.176l2.082-1.992c-5.157-.902-11.399-1.445-17.735-1.445H64.25l.996-1.903h1.719a98 98 0 0 1 18.363 1.63l2.172-2.079c-6.516-1.27-13.48-1.898-20.988-1.898-3.203.007-6.403.16-9.59.453C53.3 45.914 47.512 50.44 41 50.352c-2.535-.094-5.707-1.176-9.773-3.352l-3.801-2.172 1.18-1.086 8.773 3.801 1.898-1.45-17.73-8.05-2.715 2.082L12.5 37.5l.09 2.625c8.504 3.89 12.031 6.059 20.988 12.484 11.672 8.32 22.078 12.844 36.55 15.743l3.802-3.622h-.907c-9.59 0-18.183-3.164-23.16-8.503 4.164-2.532 9.317-3.704 16.465-3.704 1.902 0 4.617.176 7.149.446l2.171-2.078a84 84 0 0 0-17.097-.364l1.629-1.988q2.888-.174 5.789-.184c4.793 0 7.96.184 11.578.723l2.082-1.988c-3.8-.63-9.047-.996-13.844-.996"/></svg>