<svg xmlns="http://www.w3.org/2000/svg" viewBox="0 0 100 100"><path fill="#FFCD00" d="M0 0h100L0 100Zm0 0"/><path fill="#FF671F" d="M100 100H0L100 0Zm0 0"/><path fill="#FFF" stroke="#000" stroke-width=".079" d="M51.117 31.809c-.793-.106-1.187.379-.96 1.324.222.945.84 1.387 1.5.875Zm0 0"/><path fill="#FFF" stroke="#000" stroke-width=".079" d="M51.39 29.89c-.718-.355-1.245-.027-1.34.942-.09.969.352 1.586 1.145 1.313Zm0 0"/><path fill="#FFF" stroke="#000" stroke-width=".079" d="M52.047 27.95c-.652-.466-1.227-.223-1.473.718-.242.941.094 1.617.918 1.477Zm1.101 8.527c-.832.523-.668 1.78.067 2.421.73.641 1.808.563 2.187-.46Zm0 0"/><path fill="#FFF" stroke="#000" stroke-width=".079" d="M51.547 34.078c-.914-.101-1.445 1.211-1.356 2.277.11 1.344-1.656 2.165-.214 3.922-.055-1.304.632-2.172 1.289-2.359.656-.188 1.625-.543 1.882-1.441Zm3.789 4.52c-.95.449-.809 1.812.105 2.613.782.687 2.653.086 2.434-.715Zm4.527 7.422c-.133-.868-1.582-.91-2.215-.602s-1.945.387-2.39-.266c-.117.621.355 1.168 1.387 1.274.777.078.875.61.71.894.567-.023 2.184-.363 2.508-1.3Zm0 0"/><path fill="#FFF" stroke="#000" stroke-width=".079" d="M57.922 40.71c-1.067-.218-1.508.556-1.746 1.267-.352 1.043-2.293.21-2.602 1.57.703-.5 1.64.047 2.059.21 1.191.47 3.168-.175 3.113-1.85Zm0 0"/><path fill="#FFF" stroke="#000" stroke-width=".079" d="M58.734 41.734c-.82.942-1.015 1.903-.863 2.493.149.59 1.258 1.722 2.176 1.601.297-1.18.082-3.496-1.313-4.094ZM55.66 47.18c-.074-.356.418-.61.8-.567.38.043 1.005.285.895.707Zm-5.789-.813c-.187-.41.348-1.293 1.36-1.086 1.015.211 1.3.969.984 1.36Zm0 0"/><path fill="#FFF" stroke="#000" stroke-width=".079" d="M52.297 46.672c-.125-.223.445-.84 1.644-.793 1.204.043 1.637.719 1.72 1.3Zm-2.547-.281c.5-.578.094-1.387-.496-1.536-1.078-.27-.98-1.582-1.652-1.69-.668-.106-1.352-.411-1.465-.833-.184.66.12 1.168.629 1.457.507.293.074 2 .707 2.29Zm-12.82 2.363c-.668-.68-1.828-.285-2.211.367s-.14 1.445.41 1.703Zm2.605-1.77c-.41-1.007-1.695-.859-2.332-.453-.633.407-.887 1.555-.273 2.223Zm0 0"/><path fill="#FFF" stroke="#000" stroke-width=".079" d="M41.41 46.438c.266-.977-.89-2.098-1.93-2.079-.867.02-1.855.23-2.347-.523-.051.758.578 1.098 1.281 1.371.707.273.191 1.477 1.316 1.86Zm0 0"/><path fill="#FFF" stroke="#000" stroke-width=".079" d="M41.32 46.488c-.34-.586-.093-1.515.774-1.636.867-.122 1.484.398 1.273 1.253Zm0 0"/><path fill="#FFF" stroke="#000" stroke-width=".079" d="M43.234 46.133c-.257-.63.118-1.512.993-1.512s1.414.602 1.086 1.418Zm0 0"/><path fill="#FFF" stroke="#000" stroke-width=".079" d="M45.188 46.035c-.223-.64.19-1.508 1.066-1.46.875.042 1.383.671 1.012 1.472ZM33.133 59.97c-1.594.336-1.903.797-1.785 2.488.148 2.11 2.984 1.758 1.785-2.488Zm0 0"/><path fill="#FFF" stroke="#000" stroke-width=".079" d="M33.395 57.676c-2.645-.41-3.157 3.75-5.73 3.574 1.16 1.195 2.972-.625 3.788-.652 1.383-.043 4.156-1.153 1.942-2.922Zm-.473 5.644c-1.328-.293-2.246 1.84-1.836 2.598.52.965 3.11-.457 1.836-2.598Zm-3.973 9.192c.707.047 1.598.258 1.727 1.574.129 1.312-1.746 4.441-3.906 5.047-2.157.605-2.383 3.414-4.418 3.074 1.687-.707 1.265-2.703 2.515-3.613-1.074-.149-1.12 2.222-2.406 2.496-1.285.27-1.469 2.45-3.07 2.637-1.602.187-1.211 2.859-4.344 3.554-2.399.532-4.781 3.965-6.106 2.98 2.262-.827 2.93-2.32 4.02-4.03 1.754-2.758 4.492-2.27 4.918-4.473a5.97 5.97 0 0 1-3.164 1.715c-1.473.277-2.578 2.98-4.442 2.28.926-.32 1.461-.855 2.239-2.112.797-1.29 2.445-.914 3.398-2.262 1.496-2.106 3.39-1.012 4.723-3.531-.551-.133-1.586.257-2.473.996-.89.734-2.36.125-3.37.984-.157-1.433 2.679-1.195 4.14-2.515 1.648-1.493 3.273-1.5 4.789-1.684-2.074.426-3.297-1.367-6.031-.191-1.192.511-2.598-1.243-3.625.019-.118-.746 1.05-1.613 2.535-1.18 1.484.43 1.738-1.02 4.742.09 1.238.457 2.883-1.058 4.226-.57-.25-.418-.988-.563-1.77-.336.282-1.125 3.536-1.676 5.153-.95Zm0 0"/><path fill="#FFF" stroke="#000" stroke-width=".079" d="M30.742 70.516c-1.219-.59-2.465.695-3.543.523.14.668.684 1.598 1.86 1.746.28-.308 1.504-1.933 1.683-2.27Zm0 0"/><path fill="#FFF" stroke="#000" stroke-width=".079" d="M31.895 67.86c-1.817-.485-1.665 1.644-3.04 1.488.172.586.805 1.222 1.887 1.168Zm0 0"/><path fill="#FFF" stroke="#000" stroke-width=".079" d="M32.473 65.773c-2.63-.437-2.446 1.961-3.965 1.809.504.738 2.64.734 3.625.227Zm1.172-10.91c-.832-.765-2.032.258-2.02 1.371.012 1.118.852 2.508 1.688 1.98Zm0 0"/><path fill="#FFF" stroke="#000" stroke-width=".079" d="M34.684 51.66c-1.172-.023-2.434.367-2.059 1.43-.387.281-.21 1.71 1.02 1.773Zm0 0"/><path fill="#FFF" stroke="#000" stroke-width=".079" d="M35.266 50.77c-1.368-1.055-2.578-.766-3.149-.082-1.05 1.265-2.394.953-2.219 1.96.637-.742 1.454-.183 2.024-.527.574-.344 1.277.75 2.887-.113Zm1.418 19.757c.23.274 1.285.203 1.675-.425.512-.836-.625-2.606-1.703-2.524-1.078.078-.683 2.406.028 2.95Zm0 0"/><path fill="#FFF" stroke="#000" stroke-width=".079" d="M35.504 70.828c1.613.23 1.996-1.144 1.02-1.758-.16.309-.743 1.426-1.02 1.758Zm0 0"/><path fill="#FFF" stroke="#000" stroke-width=".079" d="M30.32 74.059c-.105.918-1.547 1.37-2.652 4.39-1.102 3.016-2.93 2.235-2.95 4.153 1.657-2.043 3.454-1.297 4.305-3.149 1.297-2.808 2.86-2.773 3.215-4.555.508-2.543 4.895-3.421 4.36-7.136-1.54.027-5.368 4.96-6.278 6.297Zm29.942-43.907c2.035.215 2.605 2.68 4.965 3.028 2.359.343 2.988 2.25 4.671 1.398-1.761-.101-2.05-2.055-3.886-2.164-2.157-.125-3.582-3.07-5.301-3.203m11.016 12.012c.492.691.73 2.058-.383 2.668.726.27 1.597-.313 1.937-1.305-.418 1.902.438 3.363 1.739 3.41-.852-1.086.359-1.941-.235-2.637.856.168 1.774 1.094 1.89 1.766.782-1.36-1.323-2.504-1.218-3.645Zm-9.743 14.836c-1.382-.778-1.605.617-2.273.293-.625-.305-1.352-.211-1.535.261 1.008-.175.683.703 2.66.48-1.91.544-1.094 2.634-2.414 2.802 1.656 1.015 1.848-1.61 3.05-1.442-.312.164.708.77.337 1.942.957-.227 1.07-1.641 1.043-2.356ZM38.66 72.594c-.504-.266-1.777-.172-2.191.215-.414.386-.235.421.347.351.582-.074 1.516.695.29 1.008-.567.145-.086 1.484-1.254 1.828.613.492 1.921-.195 2.28-.953.02.555.837.89.688 1.594.899-.09-.007-1.86 1.403-2.063-.555.196-.047 1.43.882.883-.535.414-.078 1.04.551.73-.398.235-.426.81.235.993.406-.903-.828-3.575-3.23-4.586ZM84.934 35.39a3.37 3.37 0 1 0-1.393-6.596 3.37 3.37 0 0 0 1.393 6.596Zm0 0"/><path fill="#FFF" stroke="#000" stroke-width=".079" d="M68.55 43.016c.798-1.164 2.22-1.961 3.419-1.47 1.195.493 4.851.614 6.312-.937 1.461-1.55 2.14-2.34 2.93-2.359.754.738 1.531.996 2.402.887.32.23 1.301.27 1.809.09.8.027 1.68-.407 2.246-1.372 1.176-.074 2.066-1.156 2.2-2.527 1.183-.398.964-1.77.015-2.512-.746.008-.707-2.511-3.2-1.488 1.235.434.684 1.942 1.72 2.371-.618.13-1.36.563-1.356 1.528.105-.692-.262-1.063-.457-1.168-.094-.555-1.59-1.641-2.63-.914.86.007.677 1.425 1.376 1.8-.422.114-.832.422-1.012.86-.426-.485-1.64-.825-2.316-.73-.04-.188-.156-.563-.278-.735-.421-.508-.812-1.133-.878-2.027-.438.738-.735 1.695-.891 2.375-1.031-.426-3.078.949-4.074 1.41-.996.457-4.64.629-5.63-.055-.991-.688-2.671-.879-4.237-.992-2.153-.16-2.637-2.375-5.196-3.426.535 2.77 6.574 10.64 7.727 11.39ZM49.68 68.973a3.258 3.258 0 1 0-1.353-6.375 3.258 3.258 0 0 0 1.353 6.375Zm0 0"/><path fill="#FFF" stroke="#000" stroke-width=".079" d="M41.547 68.133c.816.695 1.902.418 2.34.25.59.918 1.797.64 2.437 1.078.64.434 2.414.012 2.871-.41-.484.054-1.164-.102-1.863-.477-.848-.449-.766-1.726-1.426-2.035.328-.566.235-1.367.074-1.656.395-.356.637-.856.641-1.078.774-.215 1.379-.766 1.598-1.133.488.293 1.402-.422 2.086.105-.211-1.597-1.887-2.113-2.778-1.379-.449-.125-1.488.243-1.617.567-.363-.07-1.191.601-1.555 1 .422-.36.325-1.16.075-1.406.37-.254.707-.895.668-1.309.593-.027 1.367-.59 1.77-.574-.79-.68-1.876-.746-2.907-.453-1.07.285-1.371 1.144-1.34 1.996-.562.52-.508 1.847-.172 2.25-.37.066-.64.496-.742.726a5.1 5.1 0 0 0-1.8-.004m-.052-1.343c-.343-.575-.175-1.192-.136-1.711.105-1.324-.188-1.602-1.27-1.196.028.614 1.012 2.446 1.406 2.907Zm0 0"/><path fill="#FFF" stroke="#000" stroke-width=".079" d="M38.402 60.023c.348.223 1.387.141 1.301-.785-.094-1.062-.601-1.375-1.418-.781-.023.254.102 1.246.117 1.566Zm0 0"/><path fill="#FFF" stroke="#000" stroke-width=".079" d="M38.29 58.418c.413.074 1.3.21 1.565-.766.223-.816-.398-1.28-1.171-1.07-.145.258-.364 1.098-.395 1.836Zm0 0"/><path fill="#FFF" stroke="#000" stroke-width=".079" d="M38.621 56.523c.156.266 1.332 1.012 1.899.168.57-.84.351-1.863-.797-2.015-.278.105-.922 1.285-1.102 1.847Zm0 0"/><path fill="#FFF" stroke="#000" stroke-width=".079" d="M39.719 54.676c.34.55 1.222 1.43 2.36.695 1.136-.738.288-2.176-.349-2.363-.328.094-1.554 1-2.011 1.668Zm0 0"/><path fill="#FFF" stroke="#000" stroke-width=".079" d="M41.73 53.008c.016.543.41 1.949 2.098 1.57 1.684-.383.79-2.254.3-2.45-.69.145-1.85.415-2.398.88Zm0 0"/><path fill="#FFF" stroke="#000" stroke-width=".079" d="M44.215 52.184c-.106.445.027 3.195 3.18 1.761.41-.183 1.011-2.87-3.18-1.761Zm0 0"/><path fill="#FFF" stroke="#000" stroke-width=".079" d="M46.074 52.04c-.265.401 1.16 2.91 3.301 1.983 2.14-.921-.277-3.07-3.3-1.984Zm0 0"/><path fill="#FFF" stroke="#000" stroke-width=".079" d="M48.063 52.043c-.204.812.796 2.887 3.554 2.305 2.504-.528-.738-2.852-3.554-2.305Zm0 0"/><path fill="#FFF" stroke="#000" stroke-width=".079" d="M50.363 52.227c-.093.445.18 2.812 3.473 2.324 2.387-.356 1.11-3.567-3.473-2.324Zm0 0"/><path fill="#FFF" stroke="#000" stroke-width=".079" d="M54.066 52.465c-.253.797-.304 2.672 3.297 2.062 2.305-.394.332-2.78-3.297-2.062Zm0 0"/><path fill="#FFF" stroke="#000" stroke-width=".079" d="M57.156 52.383c-.37.824.309 2.14 1.692 2.125 1.738-.016 1.644-1.637.34-2.156-1.301-.524-2.032.03-2.032.03Zm0 0"/><path fill="#FFF" stroke="#000" stroke-width=".079" d="M58.844 52.371c-.239.746.34 2.317 2.863 1.781.523-.109 2.09-2.578-2.863-1.78ZM45.87 87.527a3.787 3.787 0 0 0 2.918-4.484 3.784 3.784 0 1 0-2.918 4.484Zm0 0"/><path fill="#FFF" stroke="#000" stroke-width=".079" d="M61.64 27.973c-.226.343-.636 1.328-.687 1.683-.453 3.973 3.438 6.047 6.211 9.625 2.188 2.82 3.043 7.809 1.324 11.45-.586 1.25-.277 1.503-1.093 2.816-.313.508-.657 1.133-.192 2.629.617-.38 1.7.035 2 .52.426-.337 1.113-.383 1.41-.15.727-.55 1.434-.503 2.309.11.598-.226 1.285-.273 2.047.262.191-.734.804-1.113 1.312-1.07-.23-.848.496-1.649 1.328-1.477a1.439 1.439 0 0 1 1.457-2.047c.715-.847 2.418-1.258 3.489-.437-1.614-.106-1.227 1.5-2.54 1.629.532.882-.206 1.609-1 2.101.493-.379 1.024-.812 1.282-.52.39-.519 1.375-.562 1.656-.402.59-.332 1.227-.308 1.676.395.965.34 1.816 1.555 1.41 2.683-.41-1.007-1.113-.808-1.492-1.175-.613.379-1.281.52-1.563.132-.3.461-1.511 1.063-2.203.614-.035.902-.62 1.773-1.48 1.953.383.617-.043 1.898-.446 2.578.899.258.86 1.262.793 1.871 1.278-.07.461 1.246 2.754 1.508-.976.555-3.093.652-3.652-.57-1.055.171-1.992-.723-2.176-1.829-.969-.59-1.32-1.66-.363-2.656-.89.485-1.734-.926-2.984-.015-.622.453-2.543.312-2.657-.336-.183.539-1.96.715-2.37-.043-.505.43-1.95.187-2.09-.602-.669.488-1.794.106-1.907-.668-.707.05-.91-.55-.973-1.086-.68-.156-.64-.785-.55-1.547-.532-.386-.48-1.093-.278-1.78-.578-.376-.601-.97-.601-1.665-2.324.293-5.301.348-12.29-.285-10.538-.953-11.695 6.746-8.562 10.758 3.617 4.625 1.043 6.34 2.711 10.015.945-.004 1.582.657 1.707 1.477.54-.09 1.028.332 1.035 1.324.438-.18 1.047-.172 1.508.125.203-.687 1.266-1.062 1.988-.469 1.22-.355 2.047.512 2.262 1.762.918 1.047.985 2.55.469 3.629-.035-.516-.258-1.215-.371-1.637-.211-.781-1.344-.71-1.36-1.379-.562.168-1.175-.027-1.457-.414-.27.356-.726.551-1.16.496.7.149 1.442 1.184 1.414 1.985.453.504.602 1.566.293 2.101.008.97-.636 1.453-1.652 1.243.453-.442.52-1.079.39-1.57-.394-.216-.675-.727-.769-1.055-.898.335-2.348-.176-2.652-.438a3.784 3.784 0 0 0-2.918 4.484c-.258-.742-1.38-1.289-1.395-1.957-.945-1.636-.48-3.449 1.781-4.277-.425-.605.426-1.508-.117-2.187-.691-.872-1.851-1.946-3.496-3.137.52-1.551-.113-3.36-.828-4.399-1.031-1.496-1.594-.957-3.457 2.223-3.04 5.176-8.57 5.09-12.629 8.93-1.078 1.02-2.254 1.57-1.203-.043 1.05-1.614 4.293-3.692 6.332-5.317 3.828-3.043 6.695-7.379 6.652-14.629-.093-17.03 13.391-14.261 21.836-12.863 7.934 1.309 5.23-4.887.696-8.004-5.454-3.746-5.336-7.62-3.868-11.011 3.649-1.32 11.133-1.536 9.95.035Zm0 0"/><path fill="#FFF" stroke="#000" stroke-width=".079" d="M83.371 65.273a4.16 4.16 0 1 0-1.723-8.14 4.16 4.16 0 1 0 1.723 8.14Zm0 0"/><path fill="none" stroke="#000" stroke-width=".079" d="M59.398 28.645c-.058 4.187 1.082 5.835 2.79 7.312 3.519 3.059 7.472 10.898 5.476 16.984"/><path fill="none" stroke="#000" stroke-linecap="round" stroke-width=".079" d="M68.434 47.887c.351-.223.968-.828.968-1.649m-1.05-.148c-.028-.715.98-1.238.851-1.98m-1.394-.715c-.223-.7.785-1.582.464-2.262m-1.625-.176c-.183-.387.704-1.367.282-1.95m-1.594-.382c-.313-.406.293-1.082-.117-1.492m-1.45-.266c-.136-.297.16-1.066-.164-1.422m-1.476-.691c.07-.14.39-.508.16-.832m-1.309-.727c.137-.117.57-.36.438-.691"/><path fill="none" stroke="#000" stroke-linecap="round" stroke-linejoin="round" stroke-width=".079" d="M46.645 83.086c-1.024-.133-2.11.598-2.176 1.457m.867.586c-.05-.836 1.11-1.453 1.57-1.152-.875-.262-.933 1.34-.234 1.242M49.02 64.69c-.508.403-.454 1.485.449 2.118m.457-2.063c-.332.418-.098 1.414.547 1.527-.575-.253-.207-.976.144-1.078.356-.097.68.282.344.801m32.89-5.96c-1.406-.075-2.148 1.698-.644 2.823-.305-1.328.461-2.41 1.676-2.418m-.34 1.036a.51.51 0 0 0-.406.613c.054.262.336.46.703.383.238-.047.37-.364.324-.578M83.066 31.27c.387.765 1.575.863 2.414.484m-.109-.524c-.687.172-1.394-.351-1.46-.906.085.403 1.054.399 1.284.074"/><path fill="none" stroke="#000" stroke-linecap="round" stroke-width=".079" d="M43.887 68.383c-.293-.434.367-1.07.297-1.528s.683-.992 1.722-.316m-1.476-4.98c-.149.105-.274.23-.407.308m2.598 1.938c-.2.054-.621.117-.879.011m.238 1.067c-.148.12-.488.34-.69.433M40.854 80.98c.067.434.625.961.903 1.102m.738-2.52c-.164.41-.176 1.06.059 1.458m3.789-.778c-.492-.195-.36-.992-.508-1.457s.238-1.344 1.445-.926m-5.508.516c.415-.16.868-.234 1.18-.176m3.957-2.328c-.137.305-.12.598-.105.793m2.093-1.262c-.332.07-.57.368-.66.637m-6.531-11.844c.41.051 1.523.45 1.695 1.075m1.696-5.02c-1.168.223-1.871-.871-.993-1.059m3.426 2.207c-.414.286-.031 1.028.692 1.274m-1.899 6.785c-.285-.234-.164-1.133.625-1.039m2.95 9.36c-.11-.735.718-1.36 1.261-.618m-4.203 3.399c-.23-.786.121-1.13.465-1.254.348-.121.922.066 1.273.539m-8.703 2.808c-.054-.484.246-1.07.688-1.09m38.386-29.238c-.261.293-.25 1.344.946 1.192m-2.403.855c.028.121.215.254.329.305m5.69.414c-.358-.172-.952.957-.081 1.508m-5.797 8.086c-.32-.641.273-.954.898-.938M75.215 60.2c.305-.316.605-.652 1.035-.867m-.676 3.523c-.12-.57.067-1.109.297-1.304m.41-5.703c.098.699.524 1.304.813 1.617m4.86-2.77c-.321.184-.602.38-.673.692m.703 1.34c.137-.176.293-.383.352-.52m4.254-22.152c.14.668-.617 1.199-1.254.886m3.066-1.242c.43.207 1.645-.336 1.192-1.011m-1.93 5.167c-.27.008-.785-.183-1.023-.378m3.226-2.149c-.41.184-.715.152-.949.102m-5.309 3.707c.239-.051.79-.266 1.141-.551m-2.742-3.512c-.317.031-.531.137-.684.297m5.723-.144c-.02.316-.137.824-.356 1.082"/><path fill="none" stroke="#000" stroke-linecap="round" stroke-linejoin="round" stroke-width=".079" d="M81.668 37.46c.539-.39 1.703 1.478 2.98.462m-.324-2.121c-.136.304-.168.734-.117 1.094"/><path fill="none" stroke="#000" stroke-width=".079" d="M55.215 38.723c.187-.063.504-.203.523-.457M35.414 66.05c.8.25 1.445.836 1.352 1.926m26.218-33.18c.243.098 1.051-.074 1.47-.336m.679.379c.043.336.406 1.578-.18 1.976m.203-.218c.633.066 1.809-.258 1.957-1.434m-.636 1.106c.41.41.699 1.316-.122 2.011m.524-1.277c.742.094 2.34-.219 1.887-1.54m-.313 1.208c.617.566 2.875.91 2.25-.399m-3.77 2.735c.848.02 1.876-.77 1.098-2.098m2.434.23c.234.524 3.02.532 2.402-.632m-.351.82c.742 1.04 3.363.387 2.21-.96m-.18 1.277c.661.53 2.911-.34 1.657-1.692m.242 1.266c1.684.789 3.04-1.14.965-1.895m1.102 1.086c1.5.75 2.68-1.437 1.449-1.722m-11.7 3.44c.43.036 1.278-.194 1.31-.972m-.216.567c.184 1.093 2.09 1.125 2.29-.223m-.461.809c.484.64 2.136.59 2.183-.489m-.16.532c.41.66 1.777.296 2-.524m-.398.582c.625.84 2.382.465 2.504-.976m-.184.66c.781.281 2.219-.196 1.82-1.504m-.086 1.015c1.2.614 2.48-.5 1.469-1.753m.453 2.488c.528-.211.578-1.363-.05-1.531m-12.59 4.402c1.011-.86 1.003-1.953 0-2.809m.753 1.555c.805.277 2.063-.46 2.082-1.559m-1.082 1.473c.516.438.723 1.067.325 1.77m.148-1.176c1.094-1.05 2.973.07 1.992 1.195m-.554-1.57c.27-.133.66-.762.582-1.367m.101 1.793c.41-.66 4.215-.293 2.196 1.324m-.844-3.176c.746.117 1.308 1.016.332 1.57m1.074.618c.594-.946 3.082-.95 2.434.234m-.786-.906c.122-1.54 2.86-1.176 2.153-.403m-2.985-.937c.133.27.309.98-.086 1.46m2.168-2.198c.145.218.22.675.063 1.007m1.559-1.324c.199.23.543.68.105 1.195m-22.781-7.835c.308 1.351.976 2.152 2.629.91m-1.72.586c-.644 1.406.653 2.496 2.161.812m-4.816.371c1.52 1.07 3.523-.37 1.668-2.094m2.093 2.493c.04 1.359 1.164 1.394 1.918.613m-6.73-.566c.504 1.27 2.07 2.023 3.207.937m-1.203.531c.394 1.88 3.035 1.543 3.215-.531m-.676 1.383c1.195 1.539 2.855.465 3.23-.707m-5.64-1.64c.508.76 1.37 1.55 2.773.53m-7.617.07c.36.645 1.773 1.216 3-.038m-1.934.734c-.527 1.277 1.22 2.004 2.7-.05m-1.504 1.238c.64 1.503 1.527 2.636 3.336.14m-.95 1.043c1.02.828 2.391 1.188 3.2-.75"/><path fill="none" stroke="#000" stroke-width=".079" d="M60.363 37.336c.18 1.207.543 1.75 1.461 1.508.727-.196 1.297-.922 1.57-1.625m-1.734 1.66c.262 1.36 1.559 2.207 3.266.402m-2.098 1.016c-.164 1.101 1.328 2.527 3.387 1.2m-8.692-2.911c.133 1.336 1.532 1.96 3.125-.14m-1.867 1.39c.297 1.055 1.782 2.082 3.172-.148m-2.031 1.324c.246 1.86 2.047 2.027 3.176.32m-6.008-1.14c.387-.055.625-.454.765-.735m.325 1.895c.347 0 .855-.43.965-.848m.328 2.836c.465.324 1.691-.23 1.738-.813m-.316.489c1.066 1.515 2.953 1.043 3.34-1.004m-.215.742c.562.898 1.597 1.328 3.003.684m-2.078.164c-.547 1.53.883 2.894 2.41.933m-1.53.992c.085.88 1.077 1.688 2.171 1.578m-6.223-3.332c.122 1.989 1.7 2.625 3.22 1.235m-5.044.12c.528.263 1.348.142 2.047-.308m1.164.926c-.086 1.707 1.824 2.52 2.871.41m-5.383-.898c.2.824 1.2 1.558 2.547 1m4.278.836c-.817.844-.766 2.027.722 2.484m-3.125-2.324c.254.965.82 1.418 1.91 1.285m-3.417-1.488c-1.153 1.61.574 2.836 1.992 1.195m-.582.543c-.16 1.602 1.816 2.129 2.445.402m-6.07-2.964c-.211 1.586.664 2.418 1.855 2.066m-3.793-1.957c.258.867 1.082 1.016 1.899.644m-1.157.172c-.382 1.371.735 1.832 1.918 1.082m4.489 1.938c-.051.828.187 1.375 1.41 1.39m-1.106-.289c-1.265.942-1.097 2.32.18 2.97m-1.629-4.24c-.598.821-.21 1.946.695 2.227m-7.855-5.25c-.64.97.598 3.004 2.125 1.426m3.101.375c-.906 1.137-.058 2.672 1.657 1.84m-3.614-2.144c-.226 1.738.442 2.191 1.73 1.945m-6.206-3.262c-.82.942-.336 1.934.191 2.32.532.387 1.293 0 1.426-.675m-3.8-1.856c-.798 1.637.648 3.07 2.09 2.246m4.644.684c-1.032.64-1.672 1.836-.797 2.578.515.438 2.293.137 2.363-1.992m-3.867-1.469c-.445 1.063-.043 1.899 1.242 2.098m-.945-.344c-.61.523-.965 1.074-.621 1.871m-1.23-2.996c-.024 1.172.429 1.797 1.19 1.984M58 50.961c-1.086.152-1.54.723-.96 1.695m-.15-1.187c-1.128-.16-1.488-1.028-1.234-2.074m.153 1.433c-1.133.29-1.512.965-1.344 1.75m-1.145-5.875c-.757.535-.78 1.707-.343 2.262.441.55 1.43.394 1.937-.137m-4.11-2.512c-.581 1.02.653 2.497 1.923 1.809m-4.016-2.062c-.5 1.152.637 2.652 2.367 1.789m1.074 4.617c-.441-1.149.633-2.196 2.48-.973m-1.245-2.246c-.364.5-.442 1.188-.262 1.7m-6.484-5.044c-.504 1.496.707 2.508 2.293 1.676m2.808.7c-.883 1.355-.265 2.39.703 2.859m-1.14-1.399c-1.684.38-1.367 2.352.144 2.68m-1.84-4.36c-.59.622-.527 1.977.774 2.247M50.18 51c-.785-.184-1.555.402-1.309 1.219m.242-.969c-.965-1.387-2.789-.73-2.289.805m2.414-2.797c-.39.156-1.148.566-1.328 1.25m-.437-2.668c-.578 1.02.23 1.918.894 2m-3.66-3.926c.07 1.055.582 1.469 1.848 1.102m-1.121.113c-.239 1.344.543 1.75 1.812 1.406m-1.207.059c-.57 1.062.16 1.93.984 2.176m-1.097-.961c-1.39.12-1.274 1.738-.668 2.379"/><path fill="none" stroke="#000" stroke-width=".079" d="M43.965 45.95c-.758.53-1.012 1.679-.422 2.226.586.547 1.445.14 1.875-.297m-1.531.52c-.469 1.195.316 1.847 1.12 2.003"/><path fill="none" stroke="#000" stroke-width=".079" d="M40.703 46.512c-.426.687.156 1.781 1.492 1.523 1.078-.207 1.407-1.34.922-1.984m-1.113 2.027c-.227 1.04.25 2.008 1.836 1.5m1.004 1.356c-1.094-.243-2.328.492-1.508 1.558m-.75-2.847c-.285.656.027 1.437.586 1.84m-.336-.301c-.64.257-1.207.75-.582 1.71m-.277-.835c-.914-.079-1.875.77-1.024 1.511m-.316-.804c-.766.039-1.477 1.007-.598 1.644m-.422-.582c-.633.305-1.258 1.235-.441 1.684m3.008-6.13c-.864.63-.73 1.72-.114 2.411m-1.304-4.172c-1.313.848-.887 2.746.808 3.008m-.758-.29c-.75.684-.714 1.669-.011 2.169m-2.188-5.18c-.531.313-.113 2.063 1.399 1.692m-2.844-.766c-.98 1.004.805 2.637 2.371.867m-.926.692c0 .82.395 1.628 1.676 1.46m-1.383-.43c-.832.524-.61 2.415 1.063 2.212m-4.297-3.293c-.938 1.32 1.375 1.8 1.832.086m-3.074 2.043c-.426.808 1.957 2.195 2.199-1.012m.203-.094c.2.703.719 1.043 1.605.903m.125.695c-1.359.512-1.437 2.367.211 2.418m-2.855-2.106c.094.676.898 1.078 1.66.793m1.02 1.297c-1.227.559-1.04 2.258.082 1.922m-.27 1.672c-1.137-.094-1.43-1.363-.578-2.04"/><path fill="none" stroke="#000" stroke-width=".079" d="M37.3 57.445c-.788.743-.155 1.973.36 2.063.516.09.848-.227.809-.64m.316 1.843c.227.602-2.12.848-1.351-1.328m.34 1.656c-.52 1.375.953 2.098 1.53.895m-1.116.546c-.102 1.04 1.222 1.493 1.824.57m-6.324-9.163c-.243.968 1.968.851 1.73-.989m-2.047 2.422c-.066 1.805 3.094.762 1.793-1.273m.313 1.129c.507.164 1.867-.098 1.894-1.621m-.719 1.422c.192.43.711.89 1.125.976m-2.574-.2c.05.958 1.14 1.524 2.195 1.227m-1.84-.355c-.37.824-.245 2.238 1.415 1.984m-3.864-1.218c-.105.793 1.602 1.226 2.25-.18m-2.328 2.156c-.011.59 1.54 1.043 1.82-1.504m-.359 1.348c.457.523 1.676.762 2.121-.547m-.968.95c-.11.894.84 1.511 1.742 1.074M33.82 59.8c.059 1.226 1.586 1.625 2.313.828m-3.106-.117c-.086 1.61 1.989 1.77 2.485.472m-.403.555c.25.844 1.739 1.297 2.637.363m-4.867.856c-.016.398 1.66.445 1.617-.938m-.617 1.075c.586.894 1.922.859 2.406-.485m-.328.567c.36.867 1.629 1.12 2.523.285m.5.27c-.003 1.265 1.465 1.976 2.11 1.144m-4.176-.934c-.098 1.414 1.727 1.824 2.5.89M34.777 63.5c.164 1.258 1.297 1.79 2.301 1.004m-4.394-.438c-.164.88 1.738 1.172 2.425.309m-3.054 2.137c.562.426 2.023-.43 1.918-1.625m-.246.945c.714.547 2.144.617 2.39-.926m-.32.836c.191 1.031 2.18 1.38 2.379-.625m2.23-.086c-.062.535.5 1.25 1.34 1.172m-2.918-1.16c.004.594 1.004 1.215 1.817.707m.218.203c-.11.668.282 1.52 1.114 1.332m-.79-.195c-.507.656-.046 1.527.852 1.375m-.984-.426c-.754.777-.168 2.024.98 1.707m-4.18-3.668c.274 1.285 1.907 1.14 1.965-.117m-.457.894c-.078.81.696 1.418 1.625.997M41.492 76c.281.262 1.051-.445.703-.922-.347-.473-1.222.012-1.007.54m.746-.708c-.102-1.07-1.375-.976-1.493-.008m.34-.617c.2-.59-.996-1.082-1.265-.23m.316-.39c.125-.821-1.137-.903-1.086-.192m-.473-.946c.063-.41 1.446-.457 1.04.45m1.226.738c.422-.586-.664-1.375-1.137-.902m4.965 1.609c-.406.137-.777.5-.281 1.312.344.567 1.266.407 1.316.008"/><path fill="none" stroke="#000" stroke-width=".079" d="M43.852 74.988c-.457-.175-1.247.453-.66 1.223.44.582 1.152.156 1.199-.203m-2.551.687c.277.313 1.254-.054 1.351-.484m-.91-.84c.184-.187.614-.094.735.07m-2.047-5.918c-.594.598.125 1.887 1.12 1.305m-1.097-.14c-.457.542.324 1.769 1.242 1.054m-.808.168c-.301.461.293 1.442 1.238 1.031m-1.27-.476c-.238-.05-.78.14-.94.547m-.696-5.235c-.418.61.047 1.582 1.039 1.457m-1.012-.37c-.668.527-.355 2.015 1.156 1.757m-.859-.066c-.344.422.129 1.664 1.164 1.27m-.523.062c-.121.187-.063.586.105.722m-.683-1.109c-.38.09-.82.469-.868.89m-.98-1.234c.058-.41 1.242-.636 1.562.465m-.164-1.355c-.156.07-.445.293-.46.629m-.786-4.008c-.414.57-.355 2.09 1.266 2.043m-1.664 1.195c-.082-.39.906-.95 1.398-.441m-2.523-1.543c.215.265 1.039.511 1.422.086m-5.746-1.61a1.2 1.2 0 0 0 1.59.934c.761-.262.785-.988.449-1.387m-.328 1.387c-.387.75.445 1.52.988 1.133m-.488-1.711c.285-.188 1.277-.543 1.687-.133m-4.953 1.02c-.164.41 1.387.453 1.742-.344m-.426.464c.055.485.461 1.243 1.606.653"/><path fill="none" stroke="#000" stroke-width=".079" d="M34.816 69.332c.106-.445-.941-.922-1.476-.035-.531.883.43 1.547.797 1.172m-2.824-2.063c-.223.696 1.394 1.535 1.957.32m-2.645.946c-.39.617.426 1.426 1.113.98.692-.441.453-1.214.23-1.379"/><path fill="none" stroke="#000" stroke-width=".079" d="M29.863 70.824c-.328.457.246 1.242.809 1.125.558-.12.808-.633.586-1.168m.86-.508c.046.563.933.774 1.35.153m-.187-1.008c.047-.133-.054-.324-.195-.39m-3.938 2.718c-.382.469.832 1.281 1.262.207m2.278-1.164c-.239.348.394.996.824.668m-2.344.2c.18.495 1.258.663 1.723-.255m-1.067.649c-.086.355.332.8.696.648m9.394.29c-.215.804 1.14 1.402 1.813.34M43 73.89c-.098.43.234.933.598 1.066m-1.543-.012c.008-.375.449-.812.949-.746m-1.766-.062c0-.336.364-.746.7-.73M66.113 53.37c-1.683.379-.398 2.942.938 2.09m-1.063.023c-.215.621.61 1.352 1.215.692m-.168.144c-.324.938 1.73 1.836 2.168.375m-.465.621c.192.782 2.578.797 1.914-.703m-.03.903c.741.812 2.808.472 2.3-.864m-.25 1.051c.558.527 2.64.485 2.297-.785M62.902 51.59c.442.676 1.473.734 2.453.078m-2.957.574c.754.29.192 2.446-.996 1.875m1.25-.66c.813.2 1.664-.25 1.703-1.355m-.28.906c.187.531 1.062.793 2.038.363m-3.75.594c1.121.61.094 2.566-.683 1.933m1.172-1.39c.523.238 1.648-.2 1.582-1.106m-.371.848c.218.55.714.672 1.363.559m-2.672.539c.617.566 1.848.504 2.184-.485m-.418.61c.09.652.914 1.023 1.62.726m-3.91 1.25c.684.176 1.102-1.129.407-1.828m.566 2.914c.75-.11.61-1.246-.21-1.719m2.116 2.383c.59-.273.114-1.59-1.41-1.39m3.5 1.996c.563-.293-.23-1.692-1.851-1.25m4.222 1.293c.274-.703-1.277-1.47-2.257-.688m3.558 1.309c.781.058.867-2-1.398-1.196m2.754.91c.609-.304.812-1.566-.985-.788m2.434.582c.629.164.539-1.555-1.102-.739m-9.586-2.422c.801.254 1.817-.46 1.532-1.343m-.118.847c.328.375.407 1.23 0 1.54m.282-.555c.515.09 1.12-.215 1.343-1.055m-.511.879c.214.3.402.957.164 1.355m.078-.812c.582.176 1.12-.336 1.265-.938m-.23.543c.43.16 1 1.207.453 1.797m.246-.601c.457-.07 1.125-.211 1.43-.871m-.242.375c.43.03 1.047.597 1.004 1.226m-.02-.219c.441-.144 1.16-.617 1.258-1.21m-.137.402c.426.133.781.531.844 1.062m-.078-.379c.445-.12.8-.445.812-.968m-.047.359c.36.047.844.344.961.79m-.105-.274c.32-.121.516-.383.656-.762m.895-.238c.52.34.25 1.886-.684 1.808M59.492 30.86c-.77.711-3.304 1.07-2.504-1.257m2.446-.196c-1.59 1.055-4.016.176-2.082-1.746m-.696-.351c-1.453.308-1.933 2.847.188 3.242m-5.621-1.074c-.227.816 1.3 1.34 2.074.406.598-.723.219-2.258-.336-2.762m-2.106 4.274c-.14 1.668 3.375 1.023 2.301-1.356m-1.996 3.727c.371 1.164 3.524.101 1.969-2.082m.242-.746c.336.3 1.18.769 2.367.39m-2.156-2.203c.2.406.996.586 1.856.07M28.77 72.188c-.696.757.757 1.406 1.007.296m-1.554.29c-.696.757.757 1.406 1.007.296m-1.593.29c-.696.757.758 1.406 1.008.296m-1.637.258c-.695.582.437 1.414 1.043.34m-1.73.219c-.7.582.433 1.41 1.038.336m2.688-2.407c.117.61 1.324.614 1.547-.379m-.703.786c-.262.527.511.949.824.671m-2.38-.43c.075.52 1.138.606 1.505-.058m-.84.477c-.234.484.516.91.883.66m-2.113-.477c.12.399.789.743 1.355.348m-.871.121c-.191.266.031.742.398.824m-1.644-.597c-.016.39.754.91 1.305.347m-1.083.055c-.32.379-.175.82.325.777m-1.25-.632c.004.261.414.597.804.464m-2.843-.058c-.34.285.855 1.113 1.257.02m-2.109.609c-.426.324.992 1.218 1.27-.059m1.804-.64c-.351.16-.476.746-.125.894m-1.039-.45c0 .223.528.485.867.278m-1.156-.117c-.308.3.016.89.414.707m-1.597-.023c-.282.32.05.773.492.554m.105-.719c.04.13.383.27.614.133m-2.418.028c-.38.265-.133 1.308 1.148.437m-2 .176c-.523.41-.168 1.156.95.137m.116.035c-.129.152-.183.71.356.387m-1.371.09c-.192.261.054.671.543.394m-1.754-.063c-.375.34.637.473 1.125-.328m-.774.574c-.152.23-.03.79.426.485m-1.594 0c-.238.273.309.457 1.118-.125m-.696.36c-.273.343-.164.679.301.468m-1.254-.105c-.297.41.285.523.871.113m-.781.254c-.57.418-.187.883.164.597m21.277-3.23c-.078.348.454.5.891.336.418-.16.758-.61.328-1.04m.153.614c.5.242 1.18-.3 1.074-.8"/><path fill="#FFF" stroke="#000" stroke-width=".079" d="M58.777 21.121c-2.105-.55-6.425-1.476-7.242.188.93-.645 4.024-.829 6.98.933Zm0 0"/><path fill="#FFF" stroke="#000" stroke-width=".079" d="M59.91 20.773c-2.742-2.097-3.918-1.25-5.687-1.796-1.664-.516-4.067-.188-4.246 1.23 1.949-1.516 4.285-.312 5.55-.375 1.743-.082 2.965 1.016 3.586 1.512Zm8.223-2.078c-1.7-2.375-3.996-1.175-5.309-2.058-1.91-1.29-6.203-1.946-7.61-.48 3.579-.958 5.684 1.402 7.817 1.925 1.52.375 3.297 1.492 5.102.613Zm-4.344.618c-2.465-2.012-5.914-3.52-7.125-2.422 1.828-.286 2.668.855 4.125 1.394 1.453.535 1.129 1.82 3 1.028Zm-8.375 6.246c-2.207-.329-6.285.136-7.648 2.859 3.203-.129 7.808-1.402 7.648-2.86Zm0 0"/><path fill="#FFF" stroke="#000" stroke-width=".079" d="M55.227 26.543c-2.25-.52-3.567 1.148-5.528 1.367-3.742.418-6.312 1.184-6.273 3.016 1.695-2.32 5.543-1.52 6.89-2.203 1.348-.68 6.7-1.465 8.516-1.102-1.078-.867-2.469-.871-3.605-1.078Zm5.27-6.805c-.806-1.472-1.138-3.14 1.245-3.52-.75-.613-3.02-.53-2.793 2.305-2.996-1.355-5.898-1.09-6.074.66 1.09-1.421 3.336-1.027 6.402 1.258a4.5 4.5 0 0 1 1.22-.703Zm-3.11 2.918c-1.676-.64-4-1.765-.633-3.12-1.672-.493-3.785.327-2.965 3.034-4.34-.773-7.094.38-7.36 2.102-.292 1.902 2.387 2.355 2.579 1.148-.41.285-2.07.086-1.473-1.082.598-1.172 4.903-1.297 9.281-.074 1.215.34 4.954-.547.57-2.008Zm-.496 2.84c-1.63-2.086-4.875.805-6.094-1.289-.32 3.512 5.562.363 6.094 1.29Zm24.02-2.441c.855.218 1.394-.528.109-.75.855.218 1.406-.512.125-.739.855.223 1.406-.511.12-.734-.25.383-.452 1.645-.355 2.223Zm-.544-4.559c1.332-2.172-.656-2.398 1.047-4.695 1.39-1.88-.21-2.598 1.164-4.125.445-.492 1.426-1.492 1.36-2.274 1.05 1.567-1.731 2.403-.958 5.121.497 1.735-.726 1.832-.554 4.891.035.64-.102 2.11-2.059 1.082Zm0 0"/><path fill="#FFF" stroke="#000" stroke-width=".079" d="M81.3 19.145c.52-2.25 1.622-2.442 1.977-3.352.676-1.734 3.172-.398 4.668-2.129.098 1.992-2.449 1.809-3.234 3.266-.785 1.46-1.523 2.21-3.41 2.215Zm0 0"/><path fill="#FFF" stroke="#000" stroke-width=".079" d="M81.68 19.758c1.383-1.684 2.797-1.055 3.8-1.996 2.532-2.375 4.145-.504 6.563-1.883-.336 1.812-4.469 1.191-5.875 2.781-1.402 1.59-7.004 4.016-4.488 1.098Zm-2.848 10.52c-.184-.755-1.105-1.583-2.129-1.489-1.027.094-1.676-.863-2.445-.75-.774.113-1.594-1.305-2.637-1.059-1.039.247-1.183 1.692 1.531 2.41 2.711.72 5.723 1.575 5.68.887Zm-2.957 1.296c-1.04.27-.86 1.82-1.848 2.082 1.536.446 2.309-.836 2.82-1.941Zm0 0"/><path fill="#FFF" stroke="#000" stroke-width=".079" d="M76.77 31.582c-.743.953-.668 2.602.738 2.777-1.016-.918 1.047-1.863.172-2.718Zm0 0"/><path fill="#FFF" stroke="#000" stroke-width=".079" d="M77.684 31.441c-.422 1.532 1.445 1.309 1.191 2.457.996-.46.746-2.468-.316-2.793Zm0 0"/><path fill="#FFF" stroke="#000" stroke-width=".079" d="M70.066 29.969c1.692-.457 3.454.136 4.825 1.414.867.812 3.183.719 3.78-.203.602-.922-.167-2.45-1.96-1.524-.648-.707-1.965-.129-2.773-.656-.805-.527-3.778-1.887-3.872.969Zm0 0"/><path fill="#FFF" stroke="#000" stroke-linecap="round" stroke-width=".079" d="M76.71 29.656c-.429.192-.405 1.008-.038 1.352m1.117-1.082c.191.21.168.562.129.742m-5.125-1.203c.89-.137 1.195.469 2.195.508"/><path fill="#FFF" stroke="#000" stroke-width=".079" d="M71.754 27.426c3.203.117 5.754.273 7.434.812 1.675.543 4.042.29 5.949-.707 1.902-1 5.703-2.351 6.043.211.793-1.484-.844-2.554-3.598-2.222-.21-1.247-1.773-2.086-2.566-1.145.855-.309 1.96 1.176.363 2.207.078-1.309-1.39-2.168-2.55-1.348.87.063 1.987 1.262.265 2.18-1.086.578-2.867.508-4.281.012-1.415-.5-9.043-1.77-7.06 0Zm0 0"/><path fill="#FFF" stroke="#000" stroke-width=".079" d="M79.164 24.566c-.86.63-.031 1.497-1.383 2.38-1.355.882-2.101 2.41-1.535 3.456.54-2.402 2.32-2.675 2.758-3.664.437-.988 1.074-2.441.16-2.172Zm0 0"/><path fill="#FFF" stroke="#000" stroke-width=".079" d="M79.457 24.652c.32 1.746-1.18 1.403-.133 3.73.328.727.899 1.9.637 3.247 1.3-1.441-.184-3.582.316-4.613.246-.5.532-1.258.578-1.864-.148 1.075.27 2.926 1.348 3.196-1.18-1.692 1.402-3.828-1.05-5.547-.173.586-.883 1.703-1.696 1.851Zm-5.223-.71c.317.308.746 1.16.637 1.706.414-.386.95-1.27 1.059-1.816 1.004-.062 1.64 1.07.824 1.79.57-.122 1.547-.329 1.957-1.087-.82-.594-3.133-1.3-4.473-.594Zm0 0"/><path fill="#FFF" stroke="#000" stroke-width=".079" d="M58.715 23.656c-.184-.11-.469-.187-.957-.183-1.504.007-1.035-1.446.195-1.696 2.012-3.406 3.95-1.515 6.945-3.093 1.047-.551 1.836-.621 2.497-.489 1.226-1.25 2.957-1.34 4.41-.476.09-.242.234-.446.472-.57 1.055-.547 2.16.214 2.73 1.386.837-.344 1.923-.125 2.704.332.809-.656 1.43-.808 1.758-.379.73-.55 1.726-1.011 2.523.16.793 1.176-1.047 1.168-.758 3.942.176 1.707-1.554 2.762-3.242 2.074-2.695-1.098-5.054-.871-5.683 1.797-.63 2.672-1.227 4.27-4.164 4.062-1.06-.074-2.262.579-2.84 1.844s-2.032.504-3.48.934c1.792-.676.984-.992 2.577-1.438 1.457-.41.782-1.707 1.696-2.097-3.512 1.734-3.66.324-6.504 1.918.969-1.993 3.265-1.485 4.101-2.704-2.773.536-4.386-1.007-5.468.012-1.7 1.602-.125 4.809-5.278 5.59-2.508.379-4.008 1.043-5.168 2.832 1.442-5.875 5.555-3.684 6.89-5.734.79-1.207 1.388-2.133 1.712-3.192.113-.375.32-.62.617-.761-4.516-.434-2.395-3.051 1.715-4.07Zm0 0"/><path fill="#FFF" stroke="#000" stroke-linecap="round" stroke-width=".079" d="M79.469 18.488c.094.121.16.285.207.5.222 1.047-1.34 1.426-1.106 2.992.121.82.121 1.293-.445 1.313s-1.223-.734-.91-1.844"/><path fill="#FFF" stroke="#000" stroke-width=".079" d="M59.172 21.93c-.453-.192-.871-.223-1.227-.149m9.442-3.59c1.375.278 2.265 1.457 4.11 1.137 1.773-.312 3.41 2.012 6.007-.277q.103-.094.207-.176m-5.906-1.156c-.176.472-.114 1.07.066 1.566m-4.687 5.031c-2.239.473-2.567 1.735-2.336 2.829.23 1.093 1.578 2.3 3.433 1.91 1.856-.395 2.617-1.746 2.356-2.985s-1.649-2.136-3.453-1.754Zm0 0"/><path fill="#FFF" stroke="#000" stroke-width=".079" d="M68.582 28.941c-.18-.609-1.277-.277-1.332-.765-.05-.485.48-.797.34-1.461-.14-.668.848-.926 1.289-.473.445.453 1.66 1.266 1.766.696m-1.762-.696a1.866 1.866 0 0 0 .441 2.442m.442-1.786c-.09.395-.024.95.238 1.243"/><path fill="none" stroke="#000" stroke-width=".079" d="M78.281 23.273c1.782-.226 1.672-2.218.336-2.058m-3.586-2.684c-.77-.644-2.215-.613-1.894 1.032"/><path fill="#FFF" stroke="#000" stroke-width=".079" d="M73.367 21.465c-.906-1.348-2.476-1.238-3.129-.332-.543.758-.222 2.36 1.301 2.387.371-.704 1.184-1.692 1.828-2.051Zm-.851-.79c-1.02-.577-1.977 1.126-.555 2.208m-14.98 4.844c.546-.258 1.445-.157 2.855.18.89.206 3.488.503 4.84-.626-1.45.903-3.14-1.226-4.27-.691-1.129.539-3.215 1.437-4.312.765 2.265-.332 3.094-2.359 5.972-1.363.805.278 1.77.371 2.57.153-2.628-2.079-5.046.12-5.765-1.864 1.55 1.09 4.277-1.226 6.387.989m-5.852-.704c-.37-.304-.316-.699-.695-.921"/><path d="M75.031 18.531c-.64-.449-1.691.23-1.129 1.293.137-.574.582-1.129 1.13-1.293m-2.59 3.73c.305-.34.63-.632.922-.796a2.34 2.34 0 0 0-.906-.817c-.312-.128-.871 1.086-.016 1.614m0 0"/><path fill="none" stroke="#000" stroke-linecap="round" stroke-width=".079" d="M70.629 20.629c-.98-.39-1.754-.176-1.914.355-.625.106-1.04.664-.875 1.575m1.402.101c-1.172-.484-2.52.074-2.094 1.625m-.43 1.02c.415-.508 1.067-.946 1.766-.348m5.547-2.812c-.136.304-.191.738.246 1.293-.484-.422-1.437-.22-2.18 1.328m4.18-3.168c-1.207.402-1.011 1.207.063 1.355m-9.504-2.52c-1.094.008-1.723.79-.16 1.005m2.008-2.137c-1.551-.047-2.067.46-1.332.652m-1.676 6.172c.062.531.492 1.164 1.183.195m-.566 1.313c.031.144.043.316-.027.453m-4.875-6.7c-.957-.07-1.301-.866-.239-1.019m.34 3.012c-1.07-.121-1.277-1.098-.426-1.18m2.176.29c-1.226-.04-1.445-.84-.539-.907m.156-1.598c-.629.082-1.433.973.246 1.04m1.786-.028c-1.496.094-1.348.684-.41.883m1.21-2.496c-1.164.023-1.402.77-.582.894m-2.066 3.97c-.324-.169-.777-1.204.598-1.161m2.043.254c-.93-.055-1.582.98-.668 1.308m1.617-2.578c-.965.028-1.695.457-1.125.684"/><path fill="#FFF" stroke="#000" stroke-width=".079" d="M74.98 18.54c-.5.206-.906.612-1.082 1.284"/></svg>