<svg xmlns="http://www.w3.org/2000/svg" viewBox="0 0 100 100"><path fill="#FF3C00" d="M0 0h100v100H0z"/><path d="M49.996 87.5c-19.832 0-35.828-16.836-35.828-37.5s16-37.5 35.828-37.5c5.5 0 10.668 1.336 15.336 3.664-2.5-.664-5-1-7.668-1-7.668 0-14.668 2.672-20.168 7.172C34.664 24.5 32.832 27.5 31.832 31a17.7 17.7 0 0 0-.836 3.164c-.164 1-.164 2.672-.164 2.836-.168 2.5-1.168 4.836-2.668 7q-2.749 3.75-5 7.5c-2 3.164 2.332 5.336 2.332 5.336s-.832-.836-.664-2.672c.332-1.664 4.332-6.664 5.664-8.664.168 1.664.336 3.164.836 4.5l10-9.5c.5 6.664-2.168 12.836-8.336 15 2.836 1.336 4.668 4 6 7.164.336 1.172.668 2.172.668 3.336v10c2.832 1 5.832 1.664 9 1.664 12 0 22.168-8.164 25.668-19.5-5.836-6.664-13.168-12.5-21-16.328a11.76 11.76 0 0 0 6.832-5.5 53 53 0 0 0-10.168-1s3.336-4 10.168-4c9.332 0 18 7.828 18 18.664 0 16.664-13.332 30.164-29.5 30.164-16.668 0-29.5-14.328-29.5-30.164 0-11.836 4.332-20.164 7.5-24.5 0 0-10 7.336-10 24.5 0 18.164 14.332 34.836 33.332 34.836S83.332 68.5 83.332 50c0-14.836-11.5-26.836-25.668-26.836-4.5 0-8.832 1.172-12.5 3.336 0 0 5-5.836 14.668-5.836 10.664.172 26 10.672 26 29.336 0 20.664-16 37.5-35.836 37.5"/></svg>