<svg xmlns="http://www.w3.org/2000/svg" viewBox="0 0 100 100"><path fill="#9B0909" d="M0 0h100v100H0z"/><path fill="#FFF" d="M50.781 12.508C38.821 12.27 26.961 17.75 19.5 28.19c2.398-1.472 14.984 2.704 28.473 11.418 6.097-2.53 29.777-12.273 31.34-11.73.382.129.94.445 1.562.84a37.4 37.4 0 0 0-9.375-9.434c-6.324-4.422-13.543-6.633-20.719-6.777m-31.715 16.3c-11.609 16.93-7.441 40.118 9.426 51.907a37.5 37.5 0 0 0 12.067 5.59c-.598-.457-1.063-.864-1.317-1.18-1.043-1.285.012-26.848.293-33.465-12.793-9.703-21.039-20.082-20.469-22.851m65.063 5.657L60.922 48.852c5.082 4.003 9.367 7.894 12.465 11.273 2.87-1.207 8.644-3.434 13.648-4.234a37.57 37.57 0 0 0-2.906-21.426M52.645 60.684l-5.567 26.703a37.57 37.57 0 0 0 21.11-4.59c-.95-4.953-.84-11.156-.7-14.266-4.23-1.754-9.343-4.441-14.843-7.847m32.48 2.492-7.527 6.168-3.223 9.172a37.2 37.2 0 0 0 6.34-7 37.8 37.8 0 0 0 4.41-8.34m0 0"/></svg>