<svg xmlns="http://www.w3.org/2000/svg" viewBox="0 0 100 100"><path fill="#CF0A2C" d="M0 0h100v100H0z"/><path fill="#002F86" d="M88.496 41.977h-2.832c-1.887 0-3.777-.317-4.719-.317-4.406-.312-9.125-1.258-13.53 0 1.573-1.887 5.347-8.496 1.573-10.383-2.52-1.257-8.183 1.887-11.644 5.035.312-4.406.312-13.53-2.832-19.195-1.258-2.52-3.461-5.351-5.664-5.351-4.407 0-4.09 5.664-4.09 8.496 0 2.52 0 5.351-.317 7.867-.312 2.52-.945 5.035-1.574 7.555-2.832-2.832-10.383-10.07-14.16-8.184-1.887.945-2.203 2.52-1.258 4.406.63 1.258 1.887 2.832 2.832 4.407 1.258 1.574 1.887 3.144 2.52 4.09-2.832-.946-5.352-.63-7.867 0-1.891.316-3.461.628-5.036.945-1.574.312-4.09.629-6.293 1.257-1.574.313-3.148.946-4.093 1.575-1.57 1.57-1.57 3.773 0 5.035 1.261.941 3.148 1.57 4.722 1.887 5.664.945 10.07 3.148 15.102 4.406-2.832.941-8.809 4.09-7.55 7.867.628 1.57 2.519 2.203 4.405 2.516 2.204.316 4.72.316 6.293 0-.945 1.257-1.574 2.52-2.203 4.09-1.258 2.832-1.886 5.98-3.46 8.812-.317.629-.946 1.887-1.575 2.832s-1.258 1.887-1.887 2.516c-.629 1.261 0 3.148 1.258 3.777 1.574.629 3.461 0 5.664-.941 1.574-.946 3.149-1.891 4.407-2.52 4.09-2.832 7.55-6.61 10.699-10.383.629 2.832 1.574 6.922 5.035 5.664.629-.316.941-.629 1.57-.945.633-.945 1.574-2.832 1.89-4.09 2.516 4.09 11.013 12.902 19.196 13.531.942 0 2.832-.316 3.461-.945 1.887-1.574 1.258-4.09.313-5.348-.942-1.261-2.2-2.52-2.832-3.464-2.832-3.461-5.665-6.922-7.864-11.329 3.145 1.262 7.551 1.575 9.438-.941.629-.629.945-1.89.316-3.148-.629-2.204-3.46-4.72-5.664-5.977 3.145-.316 8.809-1.262 15.418-5.035 3.461-1.89 6.293-4.723 5.98-7.238-.316-1.575-1.89-2.52-3.148-2.832"/><path fill="#FFF" d="M26.82 52.676c-2.203-.63-4.09-1.258-6.293-2.203-.945-.317-3.148-.946-5.351-1.575-2.516-.628-4.719-.945-4.719-2.203s1.574-1.574 3.777-2.203c3.461-.941 8.18-1.887 9.438-2.203 2.203-.312 4.723-1.258 6.926-.941 1.57.312 2.832.629 4.09 1.886.628.63 1.257 1.258 1.886.63.317-.313.317-.313.317-.63 0-.316 0-.629-.317-1.257l-.941-1.891c-.317-.629-.633-1.258-.946-1.57-1.257-2.203-2.519-4.407-4.09-6.61-.945-1.258-1.574-2.203-1.261-2.832 0-.316.945-.629 1.574-.316.63 0 1.258.316 1.89.629 1.259.633 2.516 1.574 3.774 2.52 1.574 1.257 3.149 2.515 4.406 4.09 1.258 1.573 1.887 1.573 2.833 1.257.945-.313 1.257-1.258 1.574-2.2.312-.632.629-1.574.629-2.519.312-1.574.629-2.515.945-4.406 0-.942.312-2.832.312-4.09v-5.348c0-2.52-.312-4.406.946-5.035.312-.316 1.258 0 1.258 0 2.832 1.887 4.09 6.293 4.718 8.496.946 4.09.946 7.868.946 11.957 0 1.575-.317 3.145-.317 4.09-2.832 0-4.719 1.258-5.347 2.832-.946-3.144-4.407-3.46-7.239-1.886s-4.718 4.718-3.46 7.55c-3.462-.312-5.348 3.461-5.036 6.61-2.203.312-4.406 0-6.922-.63m61.36-5.35c-.63.945-1.887 1.573-2.832 2.202-1.57.946-3.461 1.891-4.09 1.891-2.832 1.258-5.664 2.2-8.809 2.832-.945.313-2.52.313-4.094.629-.94 0-1.57.312-2.199.629-.633 0-.633.629-.633.941 0 .317 0 .946.633 1.262.63.312 2.2.629 4.719 2.516 1.887 1.257 3.145 3.148 2.832 4.09 0 .628-.316.945-1.574 1.261-1.574.313-3.145 0-4.719-.316-.316 0-1.258-.317-2.203-.946-.629-.312-1.258-.629-1.574-.941-.946 0-1.575.629-.946 1.887 1.891 4.718 4.407 8.812 7.868 12.586.629.629 1.574 1.89 2.832 3.148.629.629.945.945 1.261 1.574.942 1.258.942 2.516-.316 2.832-3.461.942-9.441-2.832-11.645-4.406a24.2 24.2 0 0 1-5.664-5.664q-.468-.472-1.886-2.832c-.317-.629-.946-2.52-1.887-2.52-.629 0-1.262.633-1.262 1.575 0 .945-.312 2.52-.941 4.09-.317 1.261-.946 2.203-1.89 2.203-.63 0-.942-1.258-1.259-2.516 0-.316-.312-1.574-.629-2.52 0-.94-.312-1.57-.312-2.199 0-.316-.633-.633-1.262-.633-.629.317-1.258 1.262-1.57 1.891-2.203 3.145-5.035 6.293-9.129 9.125-2.516 1.887-5.031 3.461-7.234 4.406-1.262.63-2.203.63-2.52.313-.312-.313 0-.63.629-1.574.629-.942 1.574-2.2 1.89-2.832 1.258-2.2 2.204-4.09 2.833-6.293.312-1.258.629-2.204 1.257-3.461.313-1.258.946-2.203 1.575-3.461.312-.317 1.258-1.887 2.832-3.461.629-.945 0-2.203-1.262-1.887-1.887.629-5.348.941-8.496.629-1.258 0-2.2-.316-2.516-1.262-.316-.941 1.575-2.515 3.149-3.46 2.515-1.258 5.347-2.204 7.55-2.833 1.258 2.832 3.145 3.461 4.09 3.461-1.574 2.52 0 5.352 2.203 6.926 2.833 2.203 6.922 2.203 9.125-.945 1.575 2.203 3.778 2.515 5.665 1.886 3.148-.941 5.98-4.402 4.406-8.18 2.832-1.257 4.406-4.406 4.09-7.866-.313-2.204-1.258-4.407-3.778-5.036.946-2.203 0-4.09-1.258-5.664-.628-.629-1.257-.945-1.886-1.257a42 42 0 0 1 4.718-4.09c.946-.633 2.204-1.575 3.461-1.89 1.262-.63 2.52-.63 2.832-.313.317.312 0 1.57-.312 2.515-.316.946-.945 1.887-1.258 2.52-.945 1.57-1.89 2.832-3.148 3.773l-.946.945c-.629.313-.941.946-.629 1.575 0 .312.63.941 1.262.629 1.57-.63 3.145-1.258 4.403-1.575 2.203-.629 4.722-.316 7.238-.316.945 0 4.406.633 7.55.633h4.094c1.57 0 2.204 0 2.516.629.316 1.258-.312 1.886-.945 3.144"/><path fill="#FFD03E" d="M41.297 53.305c-.317-2.203-1.574-3.778-2.832-3.778-1.574 0-2.52 1.891-2.203 4.09 0 2.203 1.57 3.778 2.832 3.778 1.57 0 2.515-2.204 2.203-4.09m4.402-7.239c1.574-1.257 2.52-3.46 1.574-4.09-.945-1.257-3.144-.945-4.718.63-1.89 1.574-2.203 3.144-1.575 4.09.946.945 3.149.628 4.72-.63m0 14.16c-1.888-.945-4.403-.945-5.036.946-.629 1.887.633 3.46 2.203 4.406 2.203.942 4.406.629 5.035-.633.946-1.886-.312-4.09-2.203-4.718m8.496-7.239c0-3.144-2.203-5.347-5.347-5.347-2.832 0-5.352 2.515-5.352 5.347 0 3.149 2.203 5.664 5.352 5.352 2.832.312 5.347-2.203 5.347-5.352m-1.258 6.926c-1.886 1.258-2.203 3.461-1.257 4.719.945 1.258 2.832 1.258 4.718.312 1.575-1.257 2.204-3.144 1.575-4.718-.946-1.575-3.149-1.575-5.035-.313m6.292-11.016c-1.257 0-3.144 1.575-3.144 4.09-.316 2.52.629 4.407 2.203 4.723 1.258.312 3.145-1.574 3.461-4.094.313-2.832-.629-4.719-2.52-4.719m-5.347-1.886c1.887.941 3.773 0 4.406-1.262.629-1.57-.316-3.46-2.203-4.402-1.89-.63-3.777-.317-4.406 1.257-.63 1.887.312 3.461 2.203 4.407"/></svg>