<svg xmlns="http://www.w3.org/2000/svg" viewBox="0 0 100 100"><path fill="#006472" d="M0 0h100v100H0z"/><path fill="#82C341" d="M87.055 54.727c-1.5 4.828-6.504 9.359-12.504 10.3.969 1.5 1.41 3.356 1.172 5.414-.645 5.59-6 10.094-11.739 10.149-3.886.031-9.152-1.645-12.859-7.5-3.328-5.211-3.797-13.48-3.562-15.98-4.063 4.148-6.594 8.183-7.801 10.976-2.703 6.328-3.735 14.035-3.676 17.656 0 0-.5.473-.969.563-1.5-.266-2.797-.825-3.77-1.68-1.179-1.062-1.44-2.062-1.44-2.062 1.792-8.973 4.652-14.563 8.917-20.95 5.735-8.625 14.594-13.949 25.098-17.156 7.598-2.324 15.484-2.824 20.894 1.766 2.914 2.41 3.094 5.882 2.239 8.504m-44.73-4.766c-1.798 3-6.708 7.828-10.595 10.328-8.093 5.176-13.921 5.531-16.832 3.676a4.6 4.6 0 0 1-.914-.735c-2.265-2.382-1.882-6.625.766-10.093 1.293-1.707 2.973-2.914 4.594-3.473-1.27-.59-2.121-1.824-2.297-3.562-.352-3.47 2.265-8.032 5.887-9.887 3.175-1.617 10.03-3.238 15.062 4.27 1.973 2.913 3.738 7.062 4.328 9.476m33.254-31.55c-.437-4.329-5.062-5.919-10.152-3.74a15.3 15.3 0 0 0-6.031 4.74c.234-1.97-.325-3.708-1.739-4.74-2.797-2.03-7.886-.53-11.36 3.24-1.206 1.323-5.148 6.093-5.355 13.093-.086 3.383 1.414 10.89 6.356 16.066 13.187-4.972 20.277-12.593 22.984-15.742 3.121-3.652 4.442-6.855 5.004-9.21.41-1.856.352-3.177.293-3.708"/><path fill="#3CB14A" d="M70.281 31.332c3.121-3.652 4.442-6.86 5.004-9.21.031-.118.063-.24.086-.384-.648 2.617-6.18 9.387-13.828 15.157-7.95 5.972-12.48 8.972-14.215 10.148 13.156-4.941 20.25-12.563 22.953-15.711m-38.55 28.926c3.886-2.5 8.796-7.328 10.593-10.328-3.472 3.297-8.594 8.21-17.39 12.093-4.356 1.856-8.625 2.563-10.036 1.883 2.91 1.887 8.739 1.532 16.832-3.648m55.325-5.531a9.2 9.2 0 0 0 .414-2.032c-.414 2.797-2.297 6.18-5.297 8.032-2.652 1.652-5.711 2.738-9.184 2.445.563.531 1 .969 1.563 1.824 6-.91 11.004-5.441 12.504-10.27"/><path fill="#F9ED32" d="M48.387 51.785c-.032.028-.059.028-.059.055a.07.07 0 0 1 .059-.055"/><path fill="#3CB14A" d="M48.328 51.813c-9.445 6.769-12.656 18.949-13.187 34.46.476-.09.976-.558.976-.558-.062-3.621.969-11.3 3.676-17.656 1.207-2.797 3.738-6.832 7.8-10.977.294-2.77.618-4.387.825-5.297a.13.13 0 0 0-.09.028"/></svg>