<svg xmlns="http://www.w3.org/2000/svg" viewBox="0 0 100 100"><path fill="#001246" d="M0 0h100v100H0z"/><path fill="#FFF" d="M29.125 30.738c4.156-.078 8.332-.008 12.492-.031h46.91c.496-.016.934.328 1.035.816.102.563-.171 1.098-.398 1.586-.758 1.586-1.477 3.188-2.23 4.77-.348.762-.993 1.355-1.743 1.707-.832.367-1.765.277-2.648.289H27.496c-.894-.047-1.824.129-2.687-.168-.711-.3-.645-1.234-.383-1.828.84-1.781 1.656-3.566 2.492-5.344.426-.89 1.289-1.496 2.207-1.797m18.66 14.93c1.102-1.2 2.059-2.543 3.281-3.629.227.238.407.512.532.813l1.054 2.812c1.461.043 2.938-.078 4.387.066.578.086.488.84.207 1.192-.894 1.172-1.934 2.219-2.855 3.363.39.926.726 1.863 1.074 2.797.125.383.172 1.012-.34 1.105-1.398.329-2.848.075-4.262.18-.98 1.008-1.824 2.145-2.8 3.153-.153.199-.407.25-.637.21-.555-1.078-.903-2.25-1.344-3.37-1.477-.067-2.965.085-4.43-.087-.629-.074-.539-.847-.234-1.226.89-1.184 1.98-2.207 2.852-3.402-.32-1.055-.836-2.04-1.114-3.102-.14-.504.395-.816.824-.824 1.262-.114 2.536-.024 3.805-.051M15.594 60.191c8.91-.062 17.828-.007 26.742-.027q16.12-.004 32.246.004c.594-.063 1.246.406 1.2 1.043.046.469-.2.887-.384 1.293-.738 1.57-1.468 3.144-2.199 4.719-.547 1.187-1.789 2.203-3.16 2.066-19.547-.016-39.094.004-58.644-.012-.856 0-1.188-1.035-.844-1.715.582-1.355 1.242-2.683 1.86-4.023.425-.828.683-1.789 1.39-2.437a3.3 3.3 0 0 1 1.793-.914Zm0 0"/></svg>