<svg xmlns="http://www.w3.org/2000/svg" viewBox="0 0 100 100"><path fill="#9C9D9F" d="M0 0h100v100H0z"/><path fill="#0299D2" d="M56.188 87.5q-20.073-.002-30.77-9.594-10.7-9.602-10.7-27.344.001-17.354 9.97-27.707C31.34 15.953 40.645 12.5 52.594 12.5q16.275 0 24.484 8.781 8.203 8.771 8.203 25.117v7.957h-48.41q.317 4.935 2.082 8.25a14.36 14.36 0 0 0 4.676 5.262q2.83 1.957 6.625 2.813 3.785.848 8.273.847 3.85.002 7.57-.847a35.8 35.8 0 0 0 6.813-2.25 44 44 0 0 0 5.016-2.586c1.535-.926 2.793-1.746 3.765-2.461h2.332v18.242q-2.712 1.072-4.957 1.992-2.237.921-6.156 1.86a63 63 0 0 1-7.414 1.484q-3.81.54-9.312.539Zm7.32-46.457q-.19-7.014-3.25-10.676-3.065-3.66-9.371-3.66-6.436-.001-10.074 3.848-3.626 3.849-4 10.488Zm0 0"/></svg>