<svg xmlns="http://www.w3.org/2000/svg" viewBox="0 0 100 100"><path fill="#D12149" d="M0 0h100v100H0z"/><path fill="#FFF" d="M82.125 45.305a129 129 0 0 1-2.52-.22c-21.375-2.25-26.832-3.882-28.343-31.17 0 0-.106-1.415-1.262-1.415-1.172 0-1.266 1.414-1.266 1.414-1.507 27.29-6.968 28.922-28.343 31.172-.809.078-1.887.172-2.52.219-.664.05-1.387.328-1.387.82 0 .54.676.813 1.387.898 23.586 2.922 28.863 4.938 30.914 38.961.024.758.375 1.516 1.215 1.516.836 0 1.188-.762 1.219-1.516 2.047-34.023 7.32-36.039 30.902-38.96.703-.09 1.395-.36 1.395-.899.004-.492-.727-.77-1.395-.82"/></svg>