<svg xmlns="http://www.w3.org/2000/svg" viewBox="0 0 100 100"><path fill="#BD8B13" d="M0 0h100v100H0z"/><path fill="#FFF" d="m60.93 38.406-.121-.125-2.188-2.183-2.43 2.425 2.43 2.43Zm0 0"/><path fill="#FFF" d="m65.785 38.406-.363-.125-2.188-2.183-2.425 2.425 2.425 2.43Zm0 0"/><path fill="#FFF" d="M32.758 37.918c0 .488.484.727.851.852.485.12.97.484.97 1.21v18.704h20.644v.851c0 1.574.484 2.547 1.336 2.91 0 0 .484.364 1.214.364a2.96 2.96 0 0 0 1.579-.485l.359-.12-.36-.364c-.488-.485-.851-1.945-.851-2.793v-.121h7.652V41.684s-.972 2.183-4.738 4.976c0 0 .121.727.852 1.094.968.484.847 1.09.847 1.09v6.922H58.38v-.727c0-1.7-.484-5.828-5.098-5.828h-4.25c-2.672 0-4.129-.363-4.617-1.094l-.121-.363-.121.121a2.12 2.12 0 0 0-.852 1.7c0 1.093.73 2.429 1.703 2.429h6.313c3.766 0 3.887 1.7 3.887 2.43v.847h-17.61V32.453s-2.058 2.797-4.976 4.856v.609Zm-12.02 23.559s-.363 2.789 5.344 2.789c4.613 0 4.734-2.91 4.734-2.91V50.667c0-.727-.12-2.55-2.066-2.55H12.727v-1.216c0-.363.12-.363.488-.484.848-.484.969-1.094.848-1.336-1.825-1.094-3.645-3.52-3.645-3.52v9.348h16.148c.485 0 1.215.121 1.215 1.215v7.527s0 1.578-1.582 1.578c-2.547 0-2.426-1.335-2.426-1.335v-4.13H10.418v3.282H20.98v2.43ZM87.887 39.98c0-.847.484-1.09.847-1.21.364-.125.73-.364.852-1.094v-.121c0-.364-.121-.364-.484-.485-.364-.125-.852-.484-1.82-1.336-1.704-1.336-2.067-2.066-2.067-2.066l-.485-.852v26.11h3.274c-.117-.121-.117-18.461-.117-18.946m-10.93 22.227-2.187 2.184-2.184-2.188 2.184-2.183Zm-7.406 0 5.344 5.34 5.343-5.344-3.281-3.277 3.887-4.13v-21.98s-1.578 3.282-4.13 4.98v.122c0 .488.364.727.727.852.364.12.727.484.727 1.21v13.235l-3.273 3.402-3.282-3.398V39.98c0-.851.364-1.093.73-1.214.364-.125.485-.364.727-.852v-.121c-2.425-1.7-4.125-4.98-4.125-4.98v22.343l3.883 4.008Zm0 0"/></svg>