<svg xmlns="http://www.w3.org/2000/svg" viewBox="0 0 100 100"><path fill="#5E8F4D" d="M0 0h100v100H0z"/><path fill="#fff" d="M84.584 19.541c-.837.011-1.8.454-2.803 1.343-5.85 5.692-33.411 34.598-68.673 54.918-.534.306-.597 1.009 1.758.28v.008c13.992-4.914 44.468-20.957 54.857-27.333 7.478-4.547 13.26-7.911 15.507-13.617 3.77-10.174 2.345-15.637-.646-15.599m-7.038 27.415c-.637.025-1.389.302-2.124.76C69.459 51.55 29.3 73.13 13.259 77.21c-1.248.411-.847.873.404.77 16.84-2.035 40.887-9.027 47.363-11.482 9.429-2.854 11.861-5.881 15.391-11.078 3.892-6.338 3.04-8.535 1.128-8.465m-9.38 19.325v.004a4 4 0 0 0-1.178.155c-5.474 1.638-25.407 8.458-48.878 11.724-1.044.14-.773.633.472.707 15.687 1.484 21.62 1.648 28.807 1.575 6.898-.225 12.062.738 17.866-5.425 5.337-5.523 5.425-8.712 2.911-8.74m0 0" style="stroke-width:.899993"/></svg>