<svg xmlns="http://www.w3.org/2000/svg" viewBox="0 0 100 100"><path fill="#00A64F" d="M0 0h100v100H0z"/><path fill="#FFF" d="M87.5 50c0 20.71-16.79 37.5-37.5 37.5S12.5 70.71 12.5 50 29.29 12.5 50 12.5 87.5 29.29 87.5 50m0 0"/><path fill="#F0451C" d="M49.973 14.52c-19.63 0-35.598 15.976-35.598 35.601.023 18.078 13.586 33.277 31.547 35.348 1.078.043 2.844-.074 4.105 0 19.63 0 35.598-15.965 35.598-35.586-.016-18.09-13.586-33.297-31.559-35.363-2.148 0-2.832.066-4.093 0m-3.16 2.332a37.6 37.6 0 0 0-9.934 7.46 20 20 0 0 1-3.152-3.402 33.3 33.3 0 0 1 13.086-4.058m6.898.097a33.2 33.2 0 0 1 12.453 3.899 20 20 0 0 1-3.11 3.3 37.7 37.7 0 0 0-9.343-7.199m-5.492.442a55.5 55.5 0 0 0-5.848 10.277 19.7 19.7 0 0 1-4.594-2.64A36 36 0 0 1 48.22 17.39m3.789.14a36 36 0 0 1 10.074 7.41 21 21 0 0 1-4.465 2.532 55.3 55.3 0 0 0-5.61-9.942m-2.586.13v11.241a20 20 0 0 1-5.797-1.05s-.148.203-.172.23c-.008-.004-.016-.012-.023-.012a55.4 55.4 0 0 1 5.992-10.406Zm1.148.034a55.6 55.6 0 0 1 5.868 10.18 20 20 0 0 1-5.868 1.04Zm16.657 3.735a33.5 33.5 0 0 1 11.261 11.18 58.5 58.5 0 0 1-7.84 3.519 37.7 37.7 0 0 0-6.75-11.027 22.2 22.2 0 0 0 3.329-3.672m-34.497.054a22.3 22.3 0 0 0 3.391 3.684 37.1 37.1 0 0 0-6.875 11.2c-2.691-1-5.34-2.18-7.875-3.575a33.86 33.86 0 0 1 11.36-11.309m30.215 4.387a36.6 36.6 0 0 1 6.598 10.668 60 60 0 0 1-8.395 2.23 55.5 55.5 0 0 0-3.043-10.093c1.73-.715 3.36-1.66 4.84-2.805m-25.937.012a21 21 0 0 0 4.93 2.847c-1.176 3.06-2.184 5.762-3.055 10.04-2.953-.504-5.68-1.083-8.567-2.004a36.1 36.1 0 0 1 6.692-10.883M43 29.12a21.1 21.1 0 0 0 6.422 1.168v9.52a61 61 0 0 1-9.402-.856A55.4 55.4 0 0 1 43 29.121m13.957 0a53.7 53.7 0 0 1 3 9.844c-3.09.52-6.238.812-9.387.832v-9.52a21 21 0 0 0 6.387-1.156m22.18 4.656c2.425 4.332 4.168 9.512 4.289 15.532H73.277c-.25-4.563-.738-7.895-2.144-11.903a61.4 61.4 0 0 0 8.004-3.629m-58.328.012a60.6 60.6 0 0 0 8.046 3.648 38.4 38.4 0 0 0-2.144 12.055l-.035.043H16.55a33.3 33.3 0 0 1 4.258-15.746m49.199 4.027a36.6 36.6 0 0 1 2.09 11.493h-9.856c-.082-2.258-.152-3.98-.855-9.176a59 59 0 0 0 8.62-2.317m-40.07.024a64 64 0 0 0 8.675 2.305h.012a58 58 0 0 0-.86 9.164h-9.898l.024-.524a36.5 36.5 0 0 1 2.047-10.945m30.28 2.476c.524 2.97.81 5.977.844 8.993H50.57v-8.102a60.6 60.6 0 0 0 9.649-.89m-20.48.012c3.2.55 6.438.844 9.684.879v8.102H38.926c.023-1.797.148-5.098.812-8.98M73.32 50.453h10.118a33.3 33.3 0 0 1-4.258 15.75 61 61 0 0 0-8.047-3.652 38.3 38.3 0 0 0 2.144-12.043Zm-56.757.23H26.71q.034.67.098 1.34c.168 3.602.863 7.16 2.058 10.563a61 61 0 0 0-8.004 3.625c-2.898-4.934-3.785-9.79-4.3-15.527m11.328 0h9.867c.11 3.708.457 6.258.855 9.172a59.6 59.6 0 0 0-8.633 2.317 36.6 36.6 0 0 1-2.09-11.488m11.047 0H49.42v8.098c-3.234.043-6.461.34-9.652.89a55.5 55.5 0 0 1-.833-8.987m11.632 0h10.504c-.004.172-.02.344-.023.52a58 58 0 0 1-.16 3.3c-.024.267-.043.532-.067.794v.031a58 58 0 0 1-.574 4.332c-3.2-.55-6.437-.844-9.684-.875Zm11.653 0h9.898c-.086 2.25-.266 6.329-2.07 11.47a64 64 0 0 0-8.676-2.31c.527-3 .8-6.058.848-9.16M50.57 60.18c3.149.043 6.293.328 9.399.855a55.6 55.6 0 0 1-2.977 9.832A21.2 21.2 0 0 0 50.57 69.7Zm-1.148.011v9.52c-2.18.05-4.332.441-6.39 1.156a53.7 53.7 0 0 1-3-9.844c3.09-.52 6.238-.812 9.39-.832M38.84 61.22a55.5 55.5 0 0 0 3.043 10.093 21 21 0 0 0-4.828 2.805 36.5 36.5 0 0 1-6.598-10.68 60 60 0 0 1 8.383-2.218m22.265 0c2.958.488 5.688 1.11 8.579 2.004a36.1 36.1 0 0 1-6.692 10.882 21 21 0 0 0-4.93-2.847c.25-.828 1.86-4.23 3.043-10.04m9.641 2.406c2.688.996 5.34 2.176 7.871 3.57a33.8 33.8 0 0 1-11.36 11.309 22.3 22.3 0 0 0-3.39-3.684 37.1 37.1 0 0 0 6.88-11.195m-41.402.238A37.7 37.7 0 0 0 36.09 74.91a22 22 0 0 0-3.324 3.649 33.5 33.5 0 0 1-11.243-11.176 57 57 0 0 1 7.82-3.52m20.078 7.211v11.219a55.3 55.3 0 0 1-5.871-10.18 20 20 0 0 1 5.87-1.039m1.148.012c1.973.062 3.922.414 5.793 1.05-.699 2.512-3.824 7.231-5.793 10.192Zm7.059 1.234a19.8 19.8 0 0 1 4.594 2.64 36 36 0 0 1-10.453 7.638 55.4 55.4 0 0 0 5.859-10.278m-15.246.196a55.4 55.4 0 0 0 5.61 9.953A36.1 36.1 0 0 1 37.91 75.05a21 21 0 0 1 4.473-2.535m20.726 3.16a20 20 0 0 1 3.153 3.402 33.3 33.3 0 0 1-13.082 4.07 37.7 37.7 0 0 0 9.93-7.472m-26.175.164a37.8 37.8 0 0 0 9.347 7.203 33.3 33.3 0 0 1-12.457-3.902 20.3 20.3 0 0 1 3.11-3.301m11.285 6.734c.004.008.004.016.011.024l-.023-.012Zm0 0"/><path fill="#FFF" d="m52.973 56.773 7.125 3.262-3.368-7.222 9.208-2.27v-1.086l-9.208-2.305 3.508-7.375-7.316 3.43-2.285-13.105H49.34l-2.238 13.082-7.29-3.407 3.438 7.399-9.187 2.281v1.066l9.187 2.227-3.328 7.32 7.156-3.254 2.242 13.082 1.266-.015Zm0 0"/><path fill="#00A64F" d="m50.027 30.828 2.383 13.383 6.41-3.031-3.03 6.41 9.612 2.398-9.613 2.39 2.93 6.282-6.309-2.879-2.426 13.262-2.363-13.262-6.305 2.895 2.903-6.297-9.602-2.395 9.602-2.402-3-6.402 6.402 2.996Zm0 0"/></svg>