<svg xmlns="http://www.w3.org/2000/svg" viewBox="0 0 100 100"><path fill="#B4175E" d="M0 0h100v100H0z"/><path fill="#FFF" d="M39.086 25.582c-5.621.156-8.992 3.645-13.43 6.887L8.332 46.079l3.332 1.765.02.015c4.343 2.133 10.379 1.403 14.488-1.64l7.312-5.813 2.801-2.226 13.942-11.078-8.582-1.375a16 16 0 0 0-2.56-.145m20.504 6.613c-2.371-.082-6.164.301-9.547 2.918 0 0-3.996 2.973-6.945 5.27l-6.54 5.191-15.163 12.051-.125.105 4.57 2.418c4.344 2.145 10.398 1.414 14.508-1.632l13.554-10.73 10.93-8.606 6.402-5.043-9.304-1.676s-.914-.215-2.34-.266m18.015 7.68c-3.609.293-6.304 2.246-10.687 5.676-.516.375-14.977 12.074-14.977 12.074L35.703 70.723l4.574 2.418c4.344 2.144 10.785 1.57 14.899-1.485l14.406-11.422.004-.007.008-.008 22.074-18.242-10.047-1.829c-1.504-.28-2.812-.367-4.016-.273m0 0"/></svg>