<svg xmlns="http://www.w3.org/2000/svg" viewBox="0 0 100 100"><path fill="#E2231A" d="M0 0h100v100H0z"/><path fill="#FFF" d="M73.168 12.543c-3.54.098-7.672.789-10.031 3.539-2.364 2.855-3.645 8.266-4.23 11.707-.2.887-.298 1.969-.497 3.148.395 0 .688 0 .887-.097.887 0 2.953-.102 2.953-.102l7.969-11.015h2.062l-4.62 11.117 9.64.59 1.765-2.067a1557 1557 0 0 1 3.743-16.82s-6.102-.098-9.641 0m-5.41 21.543 4.62 11.016h-2.062l-7.968-11.016s-2.164 0-2.953-.098c-.391 0-.883 0-1.375-.097a399 399 0 0 1-2.954 16.625C52.61 62.91 52.805 71.664 42.18 71.664c-3.442 0-6.59-1.578-6.59-4.031 0-4.528.687-12.399.687-12.399l-18.293-.097s-.789 7.574-.789 15.64c0 7.282 7.97 16.723 23.707 16.723 12 0 19.97-2.852 26.856-12.687 3.441-4.922 5.215-16.626 7.87-29.317.786-3.738 1.571-7.476 2.36-11.016l-.687-.789Zm0 0"/></svg>