<svg xmlns="http://www.w3.org/2000/svg" viewBox="0 0 100 100"><path fill="#262262" d="M0 0h100v100H0z"/><path fill="#DC3228" d="M53.035 45.477C35.895 52.5 26.25 60.242 19.11 77.617c3.094-5.836 5.473-12.5 34.88-23.57 17.976-7.262 26.546-24.406 29.167-33.57-4.765 9.523-12.5 18.449-30.12 25"/><path fill="#FFF" d="M85.059 8.332c-4.524 9.05-11.664 17.383-28.332 23.574-16.067 6.543-25.118 13.922-31.899 30.23 2.856-5.472 5.121-11.663 32.856-22.14C74.707 33.211 82.68 17.023 85.059 8.332M79.105 34.41c-5 9.64-12.617 18.563-30.238 25.11-17.14 7.023-26.785 14.886-33.926 32.144 3.094-5.832 5.473-12.5 34.997-23.57C68.03 60.832 76.605 43.69 79.105 34.41m0 0"/></svg>