<svg xmlns="http://www.w3.org/2000/svg" viewBox="0 0 100 100"><path fill="#F60" d="M0 0h100v100H0z"/><path fill="#FFF" d="M76.984 52.223h-30.73c-1.395 0-2.031.636-2.031 1.777q0 4.19 4.57 8 4.576 3.81 9.902 3.809c2.035 0 4.446-.38 6.989-1.141 2.539-.762 4.695-1.777 6.347-2.922 1.524-1.016 2.664-1.523 3.555-1.523 1.144 0 2.285.636 3.305 2.03 1.14 1.395 1.648 2.794 1.648 4.317 0 3.176-1.902 6.098-5.844 9.016-6.855 5.207-14.855 7.746-23.87 7.746-9.141 0-16.763-2.664-22.985-8a31.4 31.4 0 0 1-7.363-9.394c-2.54-4.954-3.809-10.032-3.809-15.493 0-7.238 2.156-13.843 6.602-19.683 3.812-5.078 8.636-8.762 14.6-11.302 4.445-1.906 9.27-2.793 14.352-2.793 8.254 0 15.238 2.285 21.082 6.98 2.918 2.29 5.203 5.082 6.98 8.383q3.047 5.526 3.047 10.664c0 2.797-.637 5.082-1.777 6.989-1.27 1.648-2.793 2.539-4.57 2.539M48.03 40.03h6.606q4.188 0 4.187-3.808c0-2.285-.633-4.317-2.031-5.715-1.395-1.524-3.047-2.156-5.332-2.156-2.414 0-4.32 1.011-5.715 2.918-1.27 1.777-1.906 3.554-1.906 5.46 0 1.27.254 2.16.89 2.793.633.254 1.649.508 3.301.508"/></svg>