<svg xmlns="http://www.w3.org/2000/svg" viewBox="0 0 100 100"><path fill="#00ACE7" d="M0 0h100v100H0z"/><path fill="#FFF" d="M42.578 13.262c-13.273-.977-10.137 28.933 4.695 50.332 38.211-27.063 14.782-44.012-1.812-49.715q-1.552-.526-2.883-.617m4.695 50.332C25.398 39.82 15.2 55.293 12.688 65.32c-2.418 9.508 18.94 8.649 34.585-1.726m37.622-16.13c-4.457-.054-15.2 4.583-36.5 17.942 4.93 8.383 16.945 11.758 26.105 2.856 7.781-7.567 17.824-20.703 10.395-20.797m-36.5 17.942c-12.278 8.211-22.133 21.442-16.168 21.356 6.05-.172 20.664-8.305 16.168-21.356m0 0"/></svg>