<svg xmlns="http://www.w3.org/2000/svg" viewBox="0 0 100 100"><path fill="#EF5713" d="M0 0h100v100H0z"/><path fill="#FFF" d="M53.266 12.512c-1.914-.082-4.004.308-6.274 1.261l-.097.051-.106.035C17.57 25.727 74.547 80.855 74.547 80.855l.05-.023s1.243-67.355-21.331-68.32m-1.13 3.629c18.278-.621 18.727 55.742 18.727 55.742l-.043.023S26.164 26.398 48.082 17.117l.074-.023.086-.032c1.383-.582 2.676-.875 3.895-.914Zm.032 3.543a6.8 6.8 0 0 0-2.711.601l.012.012-.102.05c-14.406 6.282 17.203 41.75 17.66 42.235l.04-.012s-2.102-42.937-14.899-42.89Zm-16.992 41.39c-3.77-.02-6.903 1.664-8.82 5.926l-.032.082-.027.059c-8.75 21.18 48.305 20.355 48.305 20.355l.015-.043s-24.648-26.3-39.441-26.371Zm.097 3.45h.004c11.102.144 31.47 19.652 31.47 19.652l-.013.035s-43.816-1.645-37.343-16.113l.004-.004a.1.1 0 0 0 .011-.051l.028-.047c1.21-2.508 3.277-3.504 5.84-3.473m.641 3.269c-1.344.05-2.371.574-2.93 1.727l-.023.054c-4.496 8.61 26.523 11.301 26.523 11.301v-.027s-16.32-13.332-23.57-13.055m0 0"/></svg>