<svg xmlns="http://www.w3.org/2000/svg" viewBox="0 0 100 100"><path fill="#0F6744" d="M0 0h100v100H0z"/><path fill="#FFF" d="M60.512 21.328c15.761 0 23.75.035 23.75.106 0 .074-.516 2.035-1.153 4.375-.64 2.32-1.277 4.59-1.437 5.011q-.376.88-.867 1.7c-.297.515-.957 1.367-1.45 1.898a11.7 11.7 0 0 1-1.628 1.45c-.391.284-1.063.671-1.489.886-.543.254-1.105.465-1.683.621-.868.21-1.684.21-21.059.21-13.742 0-20.527.056-21.32.142a21 21 0 0 0-2.305.406c-.617.16-1.625.531-2.25.836-.828.386-1.133.496-1.2.37-.073-.085.403-2.019 1.24-5.081.722-2.715 1.503-5.442 1.714-6.059q.406-1.124.922-2.195c.3-.586.781-1.344 1.047-1.7.285-.355.777-.886 1.113-1.171.32-.297 1.027-.742 1.559-.988.515-.25 1.242-.516 1.613-.586q.45-.096.902-.16c.125-.036 10.93-.051 23.98-.07m-6.644 20.558c12.508-.016 22.742.02 22.778.074.02.055-.352 1.523-.832 3.293-.497 1.754-1.028 3.613-1.204 4.09a21.3 21.3 0 0 1-2 3.988q-.647.869-1.398 1.645a14 14 0 0 1-1.633 1.453c-.39.285-1.062.672-1.484.867q-.739.327-1.508.566c-.672.196-1.86.211-20.422.285-19.516.07-19.71.07-20.844.32a23 23 0 0 0-2.035.563q-.827.282-1.613.657c-.387.21-.762.32-.813.265-.07-.055.442-2.125 1.114-4.605.656-2.48 1.418-5.153 1.683-5.93.266-.8.762-2.02 1.114-2.746.355-.711.906-1.629 1.226-2.02.317-.41.828-.941 1.133-1.187a8 8 0 0 1 1.183-.762 6.7 6.7 0 0 1 1.383-.512c.39-.105.883-.214 1.078-.23.2-.035 10.594-.074 23.098-.074M36.555 62.434c10.215-.02 10.82 0 10.82.191 0 .11-.445 1.793-.957 3.703-.531 1.934-1.102 3.914-1.277 4.41a23 23 0 0 1-.797 1.84q-.5.943-1.098 1.828c-.336.477-1.008 1.258-1.504 1.7-.496.46-1.258 1.027-1.687 1.277-.422.246-1.29.637-3.043 1.254l-10.645.02c-9.387.034-10.629.015-10.629-.145 0-.106.477-1.946 1.082-4.125.582-2.18 1.22-4.407 1.418-4.961.219-.64.473-1.274.758-1.89a15 15 0 0 1 .887-1.614q.49-.687 1.082-1.293c.32-.336.883-.781 1.238-1.008q.717-.435 1.504-.707c.465-.144 1.102-.32 1.438-.371.335-.059 5.472-.11 11.406-.11"/></svg>