<svg xmlns="http://www.w3.org/2000/svg" viewBox="0 0 100 100"><path fill="#F68B1F" d="M0 0h100v100H0z"/><path fill="#0055A4" d="M12.5 63.32c3.86 4.532 7.977 16.035 21.508 18.535 5.992 1.11 12.156-.875 17.05-2.757 5.657-2.18 10.04-6.004 13.575-9.356 12.875-12.187 15.25-22.629 22.867-17.82-1.656-2.57-3.5-6.188-5.61-8.293-3.902-3.3-8.44-2.125-14.05 3.574-9.883 9.95-20.094 20.649-28.922 25.453-8.613 4.672-18.797-1.531-26.418-9.336"/><path fill="#0055A4" d="M28.656 17.824c-2.148 3.18-9.738 7.95-7.465 16.457.997 3.672 2.965 6.207 5.372 8.301 2.937 2.598 6.468 4.426 9.25 5.957 10.097 5.566 15.945 7.168 14.414 12.648 1.285-1.468 2.933-3.582 4.218-5.046 2.551-2.532 1.887-7.977-2.761-10.336-8.114-4.164-16.77-8.399-21.477-12.867-4.605-4.391-4.871-9.196-1.55-15.114"/></svg>