<svg xmlns="http://www.w3.org/2000/svg" viewBox="0 0 100 100"><path fill="#224099" d="M0 0h100v100H0z"/><path fill="#0094D9" d="M86.773 18.05a.5.5 0 0 0-.242.067l-27.414 15.93a.471.471 0 0 0 .086.86l8.149 2.679a.75.75 0 0 1 .492.543 34.5 34.5 0 0 1 .832 7.488 39.7 39.7 0 0 1-8.422 24.488 40 40 0 0 1-14.211 11.457.2.2 0 0 0-.117.227c.02.094.105.16.203.156 19.625-.257 34.277-14.152 38.828-33.656.938-4.02 2.234-9.133 2.508-18.203q.13-5.8-.227-11.59a.465.465 0 0 0-.465-.445M12.676 64.106a.19.19 0 0 0-.13.313 39.83 39.83 0 0 0 26.81 17.02c.718.109 1.73.28 2.117.124 6.25-2.519 10.558-5.609 13.683-8.617a.186.186 0 0 0 .032-.242.185.185 0 0 0-.235-.07 39.84 39.84 0 0 1-42.121-8.457.19.19 0 0 0-.156-.07m0 0"/></svg>