<svg xmlns="http://www.w3.org/2000/svg" viewBox="0 0 100 100"><path fill="#0C0243" d="M0 0h100v100H0z"/><path fill="#FFF" d="m12.5 66.379 7.16-7.16c3.563-3.344 5.992-3.582 12.887-3.582 3.937 0 4.297-.176 6.441-2.504l13.246-15.574c2.328-2.86 5.012-3.938 9.309-3.938h25.953l-4.476 5.906c-2.864 3.223-6.266 4.297-10.38 4.297H59.216c-.895 0-1.254.18-1.613.54-.36.359-3.04 3.577-3.04 3.577h17.54l-3.399 4.297c-2.328 2.504-5.012 3.938-9.133 3.938H49.55l-4.655 5.906c-3.04 3.219-5.547 4.297-10.915 4.297"/></svg>