<svg xmlns="http://www.w3.org/2000/svg" viewBox="0 0 100 100"><path fill="#473729" d="M0 0h100v100H0z"/><path fill="#FFF" d="M52.39 12.148s-.378.016-.765.016c-.406 0-.93 0-1.566.047-.63.043-1.91.074-3.028.18-.808.09-1.336.117-2.433.433 0 0 .629.739.886.996.254.254 1.266 1.477 2.137 2.47.86.991 1.867 2.1 2.336 2.706 0 0 2.074-5.52 2.434-6.848m3.449.41s-.528 1.005-.633 1.294a102 102 0 0 1-1.672 3.714c-.21.348-2.27 6.41-2.574 6.875 0 0-1.488-1.726-1.969-2.226-.484-.48-5.058-4.887-5.867-5.703-.8-.813-1.766-1.703-2.516-2.66 0 0-.18.058-.695.21-.508.149-1.309.481-1.652.586-.348.122-.196.254-.032.434.36.395.965.8 1.16 1.012.239.3 4.786 4.707 5.223 5.117.418.418 3.399 3.41 3.563 3.547.183.152.32.316.379.379 0 0 4.14-.153 4.668-.047.074-.195.375-.692.566-1.024.2-.332 1.926-5.445 2.352-6.472.433-1.02 1.293-3.125 1.488-3.578.184-.438.238-.739.434-.965 0 0-.133-.102-.317-.149-.18-.047-.812-.125-1.066-.195-.227-.062-.492-.078-.84-.148m6.937 2.418s-.257.433-.484.78c-.211.348-1.398 2.157-1.684 2.59-.285.454-3.629 5.977-3.824 6.29-.18.332-.527.832-.754 1.207 0 0 .782.18 1.16.316.36.086 1.067.36 1.356.41.281.04.183-.035.348-.347a4.7 4.7 0 0 1 .585-.965c.313-.457 2.348-3.344 2.77-3.809s.824-1.187 1.2-1.656c.362-.465 1.687-2.02 1.898-2.422.101-.183.312-.496.922-1.355 0 0-.168-.118-.336-.227-.18-.117-.797-.297-1.25-.465-.465-.164-1.352-.379-1.907-.347m-29.011 1.449s-.078.015-.332.238q-.74.557-1.508 1.066c-.106.063-.137.106.043.243.183.136 8.535 7.465 8.879 7.734.347.273 1.027.75 1.074.797.09.074.09 0 .285-.063.195-.039 1.23-.296 1.773-.418 0 0-.09-.148-.132-.207a33 33 0 0 0-1.13-1.086c-.378-.347-1.609-1.566-2.245-2.125-.63-.57-2.422-2.132-3.344-2.933-.54-.465-3.2-3.024-3.363-3.246m35.875 1.21a.3.3 0 0 0-.094.083c-.227.27-1.578 2.047-2 2.574-.426.508-2.242 2.977-2.785 3.727-.559.753-1.953 2.933-2.469 3.761 0 0 .195 0 .484-.058.282-.086 4.934-2.032 5.344-2.153.336-.093.645-.27.899-.508.105-.195.242-.437.242-.875-.016-.453.347-5.3.363-5.812.02-.441.105-.77.016-.738m3.152 1.66-.023.015c-.094.075-.079.211-.094.407-.059.363-.047.511-.133.949-.094.363-.363 4.332-.379 4.648l-.062 1.024s5.18-.68 5.375-.723c.28-.078.312-.078.78-.137 0 0-.163-.285-.39-.57-.21-.289-.453-.633-.738-.96-.285-.348-2.524-2.817-2.781-3.165-.274-.344-.871-.828-1.082-1.05-.2-.227-.168-.153-.278-.274-.062-.063-.136-.176-.199-.164Zm-44.16.437c-.067.012-.059.164-.016.48.074.497.317 1.595.45 2.243.136.66.542 2.586.706 3.805 0 0 .665.093 1.028.168.36.074 7.492 1.351 8.094 1.336.136 0 0-.133-.301-.344-.285-.242-9.48-7.254-9.66-7.445-.157-.168-.254-.25-.305-.243Zm-2.574 1.668s-.18 0-.286.047c0 0-.164.121-.468.38-.285.269-1.352 1.276-2.016 1.89-.664.633-1.91 2.226-2.316 2.754-.407.527-1.102 1.625-1.446 2.183 0 0 .18-.047.38-.136.238-.106.882-.133 1.097-.207.328-.122 5.851-1.133 6.14-1.204-.03-.183-.257-1.402-.32-1.777-.043-.379-.46-3.187-.566-3.535-.078-.242-.094-.32-.2-.395m53.395 6.184h-.031c-.125.016-.367.094-.711.152-.348.059-3.809.766-4.363.844-.528.09-1.297.152-2.11.406 0 .196-.148 2.004-.164 2.465 0 .469-.105 1.82-.105 2.067 0 .238-.074 1.007-.09 1.261-.016.25-.063.797-.016 1.293-.015.09.043.047.239-.195.152-.254 1.898-2.41 2.441-3.098.574-.695 2.98-3.629 3.355-3.883.391-.257.915-.77 1.188-.996.254-.183.422-.308.367-.316M69.32 28.66c-.03 0-.086.024-.195.04a4.5 4.5 0 0 0-.586.198c-.21.09-2.227.497-2.605.57-.375.09-1.125.15-1.625.38.12.03.722.554 1.156.93.41.363 1.418 1.19 1.972 1.687.543.496 1.282 1.2 1.688 1.547.137.12.074-.223.074-.434-.015-.21.106-4.02.121-4.535.02-.309.047-.379 0-.383m-39.652.5c-.168 0-.254.024-.438.024 0 0 .395 1.941.426 2.359.032.422.36 3.344.496 3.992.196-.246 1.762-2.02 2.996-3.191a17 17 0 0 1 3.098-2.38c-.121-.116-.422-.151-.586-.194-.168-.047-5.48-.575-5.797-.602Zm52.082.715s-.254.21-.465.379c-.226.18-1.656 1.863-1.883 2.117-.238.274-.539.8-.734 1.055-.211.238-1.945 1.988-2.367 2.363-.418.379-2.692 2.906-2.887 3.07-.18.18-.21.27-.469.496.106.137.153.665.227.965.062.297.3 1.551.437 2.032.211-.149.602-.438.707-.575.121-.132.301-.328.496-.523.196-.18 5.946-6.441 6.231-6.703.285-.25.48-.54.555-.64q.292-.352.648-.634c.211-.168-.058.059 1.192-.965-.063-.074-.286-.5-.38-.664-.09-.164-.359-.476-.632-.914a4 4 0 0 0-.676-.859m-55.934 1.04c-.253.03-7.117 1.593-7.55 1.687q-.447.092-.875.25c-.286.109-.797.378-.797.378.273.196.676.317.902.454.23.132 9.719 5.113 9.914 5.265.168.133.754.285.754.285.09-.117.016-.254.047-.375.016-.105-.813-3.191-.965-3.836a117 117 0 0 0-1.203-3.765c-.016-.09-.121-.38-.227-.344m24.258 1.636c-.465.484-.554 1.433-.633 1.902a16 16 0 0 0-.152 2.031c-.043 1.082.066 2.375.195 2.903.125.508.38 1.562.5 1.758.196.289.196.226.391-.09 0 0 .078-.106.137-.348q.146-.33.164-.687c.043-.348.12-.727.152-1.075.031-.332.133-.976.133-1.293.016-.48.035-.644.016-.945 0-.36-.032-1.566-.227-2.32-.18-.75-.191-1.145-.676-1.836m35.465 3.297s-.402.379-.613.543c-.223.164-7.735 6.664-8.336 7.16-.606.496-1.578 1.422-1.805 1.586-.21.164-.336.222-.289.476.031.184.031.739.078 1.114.031.378.133 1.07.074 1.46-.062.376-.093 1.235-.168 1.72.317.085 3.989 1.488 4.637 1.741.633.243 1.91.723 2.633.977.723.258 2.3.86 2.871 1.082.574.227 1.781.758 2.442.98a6.3 6.3 0 0 0 .101-1.382c0-.617-.027-.992-.07-1.461 0 0-.274-.153-.602-.282a82 82 0 0 0-2.969-1.105 292 292 0 0 1-7.37-2.691c-.255-.149-.153-.239-.02-.465.137-.196.453-.696.754-.965.199-.168 5.254-4.004 5.57-4.258.313-.25 1.113-.781 1.79-1.336.679-.558 1.296-.996 2.288-1.61 0 0-.015-.5-.164-1.027a6.5 6.5 0 0 0-.527-1.355c-.18-.332-.14-.36-.2-.586a1.2 1.2 0 0 0-.105-.316m-30.273.816c-.512.402-1.176 1.277-1.504 1.574-.317.29-.649 1.012-.785 1.403-.133.379-.313 1.234-.422 1.597-.102.36-.043.36-.043.57q.008.225.074.438c.062.059.125.074.262.031.375-.32.945-.89 1.293-1.613.328-.723.507-1.23.691-1.82.211-.617.434-2.18.434-2.18m-10.805.027s-.043.09 0 .348c.047.25.148.84.316 1.383.164.539.407 1.203.727 1.883.312.675.96 1.636 1.574 2.285 0 0 .047-.348.016-.707-.016-.332-.102-.707-.149-.992-.047-.243-.12-.422-.226-.75-.074-.258-.282-.5-.39-.754a7.6 7.6 0 0 0-.829-1.399c-.379-.484-.617-.863-1.04-1.297m-29.73.66s-.253.485-.347.68a6.4 6.4 0 0 0-.313 1.504s1.188.348 1.262.39c.078.048 9.781 4.294 11.09 4.817 0 0 .031-.105.015-.226 0-.102.063-.438.09-.723.032-.3.078-.633.274-1.113l-.38-.149a210 210 0 0 1-4.843-1.988 214 214 0 0 1-5.687-2.633c-.41-.226-.813-.36-1.16-.558m26.152 2.558c-.133 0-.059.137.015.274.09.21.395.796.707 1.355.317.555.454.691.75 1.02.286.316.739.648 1.118.937.375.27.797.465 1.082.629.285.152.8.484 1.175.648 0 0-.015-.226-.015-.285a5 5 0 0 0-.442-1.07 4.7 4.7 0 0 0-.914-1.328 9 9 0 0 1-.554-.582 4 4 0 0 0-.559-.438c-.152-.093-.496-.422-.902-.586-.41-.148-.543-.27-1.117-.496a.9.9 0 0 0-.344-.078m17.941.461a.3.3 0 0 0-.14.035c-.332.153-.329.18-.825.407-.511.226-.41.183-1.343.949a5.4 5.4 0 0 0-1.684 2.472s.285.012.695-.168c.387-.168.977-.601 1.473-1.011.496-.39.648-.602.965-.977.3-.363.539-.992.676-1.266.12-.218.3-.437.183-.44m28.414 1.882c-.074.008-.215.164-.355.277-.227.196-4.86 3.73-4.996 3.883-.149.133-.54.313-.461.36.086.046.238.046.492.132.316.094 3.418 1.16 3.883 1.328.484.18 1.246.375 1.625.586l.062-1.175c.016-.329.012-.825.012-1.262 0-.84-.133-2.317-.176-2.996-.015-.133-.015-.617-.015-.961.004-.137-.024-.184-.07-.172m-73.938.125c0 .184-.106.828-.149 1.266-.03.449-.21.976-.23 1.41.105.035 1.058.472 1.555.726.48.254 4.168 2.211 5.039 2.602.875.39 4.468 2.168 5.07 2.543-.18.078-.871.691-1.23.945-.364.258-2.383 2.426-3.028 3.063-.648.613-1.625 1.515-2.062 1.968-.434.45-3.309 3.145-3.563 3.293-.254.164-.5.41-.664.47.031.179.09.792.164 1.108.063.317.149.875.211 1.075.063.175.121.586.316.96.18-.152.454-.316.782-.511.316-.168 1.672-1.61 1.941-1.82 0 0 3.926-3.852 4.953-4.77 1.04-.918 2.301-2.457 3.414-3.539 0 0-.062-1.82-.015-2.227.062-.421.015-1.05.03-1.546.017-.5 0-.516-.105-.622 0 0-.238-.148-.558-.285-.3-.152-3.758-2-4.031-2.12-.286-.118-1.114-.411-1.61-.661-.484-.262-5.652-3.164-6.234-3.328Zm47.836 1.309a7 7 0 0 0-.965.167 4.7 4.7 0 0 0-1.05.391c-.376.184-.54.348-1.024.555-.403.176-.778.41-1.114.695-.136.117-.304.227-.41.39-.105.169-.176.38-.27.544a1.4 1.4 0 0 0-.1.328c-.017.164.148.105.257.09.148-.032.297-.09.465-.137.25-.074.644-.207 1.008-.313.386-.105 1.054-.574 1.699-1.054.664-.485.996-.961 1.504-1.657m-22.469.422c-.098.008-.2.016-.297.032 0 0 .106.164.168.242.063.09.27.36.492.523.38.274.828.512 1.309.86.484.332 1.133.527 1.898.75.766.226 1.508.273 2.063.316.465-.031.043-.223-.239-.402a16 16 0 0 1-1.57-1.114c-.644-.527-1.066-.543-1.531-.695-.469-.148-1.629-.348-1.734-.387-.133-.047-.106-.062-.36-.109-.078-.004-.129-.016-.199-.016m11.652.586-.57.934c-.379.621-.95 1.473-1.297 1.969-.27.363-.66.906-1.387 1.84.305.453.891 1.624 1.387 2.347.496.727 1.309 1.848 1.852 2.586.25-.332.433-.555.597-.781.153-.227.426-.54.563-.785.117-.239.328-.54.703-1.203.047-.059.074-.118.121-.176.195-.258.344-.547.543-.817a5 5 0 0 1 .344-.476c.12-.153.285-.305.36-.5.03-.043.015-.043-.013-.09-.062-.078-.09-.164-.136-.254-.063-.105-.149-.215-.227-.316-.238-.317-.781-1.235-1.25-1.899-.45-.66-1.094-1.715-1.59-2.379m10.368 3.473q-.645.023-1.266.2c-.574.152-2.168.722-2.543.843-.39.121-.102.285-.016.406.11.121.528.258.696.285.164.032.433.118.796.196.36.062 1.325.168 2.454.168 1.125-.016 1.894-.032 2.828-.133.933-.094 1.972-.41 2.633-.633 0 0-.094-.137-.211-.215-.106-.086-.254-.238-.66-.379-.426-.148-1.165-.312-1.598-.433a7.6 7.6 0 0 0-1.356-.207c-.496-.047-.765-.047-1.425-.094a3 3 0 0 0-.333-.004m-21.19.555a5.4 5.4 0 0 0-1.517.203q-.819.2-1.609.48c-.289.121-.559.196-.945.38-.2.089-.457.089-.758.253-.27.164-.254.227-.164.242.074.016.402.149.629.164.316.016 1.027.196 1.824.27.797.062 1.61.043 2.3.031.692-.031 1.493-.09 2.56-.465.343-.18.484-.136.859-.258.36-.148.566-.242 1.172-.41-.18-.133-.137-.101-.344-.281-.211-.152-.77-.273-1.113-.348-.38-.078-.934-.191-1.328-.191a16 16 0 0 1-1.383-.066Zm-26.981.367s.03.062-.012.484c-.031.418.121 2.496.18 3.114q.186 1.739.496 3.46s.332-.105.71-.375c.376-.27 2.032-1.566 2.72-2.12.71-.56 2.066-1.704 2.378-1.926l.438-.332q-.904-.195-1.79-.454c-.288-.105-.542-.152-.902-.332-.379-.195-1.132-.433-1.449-.601-.223-.117-1.039-.332-1.594-.543-.421-.149-.57-.211-1.175-.38Zm45.343 3.195a2.3 2.3 0 0 0-.543.055s.059.12.348.347c.281.243 1.23.676 1.668.872.434.214 1.188.453 1.879.59.707.117 1.434.195 2.062.163 0 0-.12-.18-.316-.359a9 9 0 0 0-1.293-.676c-.45-.195-1.098-.562-1.715-.789-.617-.222-1.219-.191-1.562-.191Zm-14.632.195q-.123.005-.235.028c-.437.074-.664.058-.965.12-.257.044-.27.106-.57.165-.285.078-.66.254-.902.375-.246.125-.95.36-1.446.707-.484.36-1.054.785-1.222.996.496.012 1.37.063 2.004-.09.613-.168 1.351-.363 1.988-.816q.421-.298.824-.567c.11-.078.227-.14.317-.199.105-.078.195-.164.304-.226l.149-.106c.074-.043.164-.09.21-.148.075-.074.032-.137-.046-.168a1.8 1.8 0 0 0-.41-.07m30.761.524s.016.496 0 .785c0 .297 0 1.262.016 1.516s.016.406.152.527c.149.121 6.29 3.594 6.739 3.84.468.238 3.87 2.18 4.039 2.27.28-.212.343-.497.535-.782q.252-.381.469-.781c.12-.262.3-.543.406-.754l-.559-.3c-.21-.106-.648-.259-1.023-.513-.38-.238-.934-.558-1.367-.874-.426-.329-2.047-1.083-2.696-1.446-.648-.36-4.273-2.242-4.738-2.496-.453-.242-1.313-.648-1.973-.992m-28.511.957a.2.2 0 0 0-.047.008c-.227.027-.27.043-.86.386-.586.348-1.23 1.06-1.504 1.313a10 10 0 0 0-1.086 1.531c-.164.305-.585 1.219-.753 1.414-.149.211.05.168.32 0 .18-.105.238-.101.598-.316.347-.219.816-.461 1.433-1.098.613-.629.844-1.035 1.188-1.625.343-.586.41-.886.601-1.23.172-.293.203-.387.11-.383m10.03.852q-.123-.002.274.66c.36.586.946 1.472 1.145 1.726.195.246.586.512.992.754a9 9 0 0 1 1.039.754c.195.164.598.375.813.453a2.2 2.2 0 0 0-.286-.726c-.3-.45-.59-.946-1.207-1.594a9.5 9.5 0 0 0-1.652-1.387c-.379-.238-.664-.348-.965-.566q-.105-.076-.148-.075Zm-2.843 1.214q-.039-.01-.031.137s0 .465.015.617c.047.45.122 1.157.606 2.348.465 1.184 1.246 2.254 2 3.101.2-.542.047-1.492-.031-2.23a3.45 3.45 0 0 0-.739-1.773c-.28-.29-.132-.184-.476-.633q-.504-.721-1.113-1.356c-.13-.125-.196-.207-.23-.21m-5.446.007c-.024 0-.051.024-.094.067q-.376.404-.734.832a6.4 6.4 0 0 0-.934 1.379c-.148.394-.434 1.042-.527 1.507q-.147.68-.223 1.371c-.031.196 0 .496.012.723a1.3 1.3 0 0 0 .426-.379c.144-.191.628-.828 1.05-1.265.407-.45.586-.934.754-1.383.149-.453.36-1.293.406-1.746.043-.45-.03-.63-.046-.797-.008-.203-.04-.309-.09-.309m-20.555.477s-.18.25-.254.375c-.066.117-.332.375-.848 1.008-.496.632-3.035 3.128-3.894 4.12-.86.989-4.406 4.41-5.07 5.075 0 0 .047.27.18.496.105.238.464.781.78 1.477 0 0 .126.238.29.148 0 0 .507-.469.734-.8.242-.329 4.258-4.18 4.695-4.708.41-.496 2.606-2.555 4.23-4.531-.105-.3-.495-1.067-.6-1.504-.095-.453-.079-.754-.243-1.16Zm23.383.086c-.09.257-.137.41-.195.601-.09.23-.106.438-.196.68-.09.238-.254.812-.316.945-.102.2-.106.38-.211.754-.09.363-.149 1.012-.164 1.176-.031.18.164 1.336.226 1.773.063.453.27 1.403.407 1.778.117.39.39.945.465 1.172.195-.18.195-.465.332-.813.148-.305.332-1.262.433-1.832.125-.574.168-1.293.246-1.895a9.3 9.3 0 0 0-.097-2.109 7 7 0 0 0-.372-1.293 2.9 2.9 0 0 0-.558-.937M72.8 58.996c-.043-.008-.078.024-.094.133-.016.207-.074.496 0 .96.066.454.18 1.852.258 2.368.074.508.152 1.695.2 2.328.042.645.132 1.582.175 2.3 0 0 .586-.042 1.023-.058.438-.03 7.57-.718 8.114-.965 0 0-.497-.296-.813-.597-.332-.3-5.074-3.63-5.93-4.305-.875-.664-2.648-1.93-2.754-2.031A.5.5 0 0 0 72.8 59ZM28.543 62.23s-8.367 9.504-8.484 9.82c.09-.03-.122.259.195.11.316-.137 7.105-1.765 7.254-1.851.105-.11.992-7.258 1.035-8.079m41.672 1.215c-.336.285-.488.496-.742.813s-1.11 1.46-1.578 1.941c-.489.504-1.008.985-1.551 1.43q-.82.592-1.656 1.156c-.165.121-.09.195.093.246.192.028 4.32-.3 5.598-.469.117-.402-.094-3.808-.106-4.12-.03-.333-.046-.708-.062-.997Zm-39.856 1.067s.227 5.343.286 5.48c.078.137 3.433.18 4.543-.078 0 0-.344-.39-.645-.629-.316-.258-1.719-1.847-1.941-2.105-.227-.243-1.82-2.047-1.899-2.121-.09-.094-.226-.38-.344-.547m51.102 5.332c-.438.12-7.781.883-8.8.957.042.246.194 7.754.296 8.054l.031.122.133-.047c.242-.27 3.887-3.055 4.399-3.64.511-.59 2.363-2.77 2.437-2.892.074-.12 1.414-2.136 1.426-2.27.031-.12.094-.136.078-.284M64.465 71.8c-1.606 0-3.227.015-3.531.043 0 0 .304.285.601.66.305.394 7.934 7.672 8.13 7.933.179.266.538.25.675.223.137-.254-.137-1.082-.18-1.37-.105-.599-.738-6.981-.96-7.462 0 0-.934.074-1.36.016-.2-.031-1.778-.047-3.375-.047Zm-26.52.047-.062.011c-.18.059-7.39.871-7.66 1.067.062.21 0 .648.074 1.023.047.364.555 7.281.664 7.602.152.492.016.476.254.914.238-.149.453-.336.633-.555.254-.316 6.035-9.601 6.199-9.765.133-.16.031-.305-.102-.297m2.676.687s-2.379 4.094-2.512 4.348c-.136.242-.453.832-.601 1.113q-.224.486-.465.965l-2.7 3.941c-.21.285-.312.38-.554.782 0 0 .98.527 1.176.754s.933.437 1.219.695c0 0 .12-.172.254-.426.105-.18.18-.39.316-.648.09-.18.21-.27.344-.614.12-.347.511-1.156.648-1.445.121-.285 2.902-5.645 3.129-6.082.227-.434 1.117-2.031 1.371-2.39 0 0-.117-.09-.254-.165-.125-.09-.226-.195-.316-.254-.063-.078-.48-.226-.68-.347-.195-.121-.09.031-.375-.227m16.992.38s-.32.132-.683.206q-.516.1-1.02.254c-.226.063-.316.047-.148.168.18.121 4.98 5.598 5.64 6.309.664.703 2.336 2.617 2.575 2.93.242.3.375.59.75 1.206.527-.152.98-.515 1.402-.664.433-.12.613-.285.75-.41a12 12 0 0 0-.906-1.05c-.555-.63-5.98-6.485-6.75-7.266-.766-.782-1.008-1.055-1.61-1.688ZM45.95 73.933c-.152.226-.242.437-.347.632-.09.211-3.114 6.2-3.356 6.668-.242.45-1.07 1.985-1.234 2.344-.164.379-.102.078-.48.602a8 8 0 0 0-.919 1.851c.196.153.645.305.992.469.36.148 1.223.285 1.583.45.042-.18 4.843-9.708 5.187-10.41.332-.728.574-.817.938-1.356 0 0 3.988 4.152 4.406 4.71.41.56 2.273 2.918 2.922 3.774.648.848 1.52 1.793 2.105 2.77 0 0 1.414-.27 1.719-.407.312-.12 1.035-.27 1.277-.433-.3-.211-3.976-4.278-4.832-5.18a57 57 0 0 1-2.785-3.129 22 22 0 0 0-3.246-3.16c-.59-.016-3-.063-3.93-.195m-18.36.015c-.136 0-5.218.406-5.987.676.363.484 1.73 2.02 2.449 2.715.738.672 2.863 2.66 3.613 3.262.11.062.09.015.168-.317.086-.332-.016-6.351-.242-6.336m21.2 6.215c-.133.121-.387.707-.598 1.05-.226.349-.57 1.204-.754 1.583-.18.375-1.019 2.285-1.367 2.918-.332.648-.422 1.055-.765 1.64l-.032.094.133.028c.196.015.41.183.856.195.363.016 1.265.21 1.883.168l.87.012c.633.015.665-.043 1.25-.032.575.02 1.34-.086 2.215-.285.872-.191.977-.195 1.625-.332.63-.133.692-.207.508-.46l-1.008-1.372a16 16 0 0 0-1.324-1.523c-.586-.614-1.804-1.739-2.238-2.239a29 29 0 0 1-1.25-1.445Zm0 0"/></svg>