<svg xmlns="http://www.w3.org/2000/svg" viewBox="0 0 100 100"><path fill="#25407B" d="M0 0h100v100H0z"/><path fill="none" d="M49.463 39.47s-1.278-.146-6.695 2.024c-6.709 2.687-10.172 6.5-10.172 6.5a.6.6 0 0 0-.262.455c-.124 1.664 6.518 4.697 6.518 4.697-11.088 7.502-25.895 10.729-25.895 10.729 47.835.24 58.492-16.645 58.492-16.645 1.964-1.087 8.597-1.9 12.281-2.3 1.542-.162 2.596.07 2.91.064q.12 0 .12-.053c.012-.1-.233-.296-.233-.296-1.907-1.176-7.656-1.508-7.656-1.508s-2.51-2.574-9.424-2.012c-5.734.464-15.88 3.695-15.88 3.695-2.59-.904-4.2-2.861-4.104-5.35z" style="stroke:#fff;stroke-width:1.47602"/><path fill="#d42b3f" d="M50.4 36.616c.425-.023 1.416.144 1.629.715 0 0-1.556-.934-21.215 5.31-6.166 1.952-15.455-4.52-17.836-6.544 0 0 7.438 1.957 37.422.519" style="stroke:#fff;stroke-width:1.47602"/></svg>