<svg xmlns="http://www.w3.org/2000/svg" viewBox="0 0 100 100"><path fill="#ED1C24" d="M0 0h100v100H0z"/><path fill="#fee702" d="M74.643 28.959c-6.087-3.918-13.09-5.241-19.24-4.36-5.995.846-12.67 6.034-12.67 13.127 0 4.21-3.525 7.25-7.7 7.25-5.697 0-8.738-4.481-14.006-4.481-4.122 0-6.686 1.979-8.072 3.229q-.455.4-.455.795c0 .265.229.603.57.718 2.523.878 5.672 2.217 9.435 4.862 4.855 3.41 8.238 6.95 11.117 11 11.726 16.546 30.319 15.713 36.696 13.133 6.6-2.67 11.762-7.93 14.154-13.735.178-.423-.415-.721-.683-.305-.735 1.155-4.442 6.11-11.348 6.11-7.628 0-13.738-6.211-13.738-13.663 0-6.334 4.799-13.637 14.1-13.637 7.817 0 14.575 6.716 14.696 14.314.063-12.126-6.853-20.49-12.856-24.357" style="stroke-width:.759752"/></svg>