<svg xmlns="http://www.w3.org/2000/svg" viewBox="0 0 100 100"><path fill="#A38E5D" d="M0 0h100v100H0z"/><path fill="#fff" d="M81.706 12.5a9 9 0 0 1-.266 1.362 43.5 43.5 0 0 1-4.395 4.65c-2.498 2.25-15.39 12.628-17.296 14.46a42.2 42.2 0 0 0-9.126 12.976s.62-.808 3.568-2.932c2.977-2.108 9.744-5.96 17.168-10.286 5.68-3.334 11.64-8.834 11.748-14.98a10.1 10.1 0 0 0-1.4-5.25m.1 1.324v.026l.17.164q0 .042.005.085a1 1 0 0 1 .027.16q.012.067.017.135l-.016-.018-.001.013-.323-.322a.7.7 0 0 0 .1-.223l.013.012zm-.528.77.826.818v.008l.002.001v.304l-.01-.01v.007l-.961-.957zm-.615.677.017.018.008-.009 1.289 1.292c0 .088-.042.176-.057.258l-.017-.016-.004.007-1.391-1.383zm-.584.668.01.011.02-.002 1.62 1.614-.09.232-.022-.024-.008.018-1.235-1.228-.45-.439.005-.005-.008-.007zm-.618.657.021.02.009-.011 1.857 1.85-.105.22-.024-.025-.008.016-1.907-1.907a1.5 1.5 0 0 0 .158-.165m-.604.647.333.338 1.698 1.702a1.5 1.5 0 0 1-.114.202l-.01-.009-2.059-2.056-.005-.006zm-.667.633 2.173 2.174-.004.007.004.005-.129.187-2.204-2.202.005-.003-.006-.006zm-.65.621 2.285 2.292-.005.006.006.005a2 2 0 0 1-.138.176l-2.31-2.314.003-.002-.008-.007zm-.675.61 2.394 2.385-.004.006.006.006-.152.169-2.405-2.41.006-.006-.006-.005zm-.68.585 2.474 2.477h-.003l-.006.005.003.003-.154.173-2.485-2.499.008-.006-.006-.006zm-.658.572 2.448 2.503.063.063.001.003-.165.158-1.28-1.278-1.274-1.27.174-.155.002.001.003-.001zm-.698.583-.003.015 2.583 2.58-.012.011.005.004c-.062.05-.093.106-.171.168l-2.583-2.605.023-.019-.01-.01zm-.72.592.013.013.012-.01 2.628 2.634-.166.155-.015-.015-.008.01-2.637-2.644zm-.7.58.015.016.012-.01 2.658 2.657-.173.146-.016-.016-.012.011-2.655-2.657zm-.692.574.012.012.008-.009-.007.01 2.656 2.67-.018.017.017.016-.149.112-1.536-1.539-1.158-1.146zm-.697.586 2.669 2.67-.015.018.013.013a2 2 0 0 1-.171.153l-2.678-2.678.023-.02-.02-.018zm-.705.571 1.68 1.701.99.989-.012.001.01.011a2 2 0 0 1-.182.143l-2.662-2.662.006-.006-.004-.004.174-.145zm-.697.566 2.656 2.662-.003.004.003.003c-.059.047-.098.082-.18.129l-.003-.003-.876-.873-1.77-1.764.002-.001-.005-.005zm11.539.155c-.17 2.15-3.094 4.97-7.266 7.658l-.009.004c-5.227 3.351-12.71 7.628-17.713 10.327-8.155 4.485-10.03 9.295-10.728 12.524 1.86-2.206 13.099-7.28 21.492-10.667 9.624-3.885 14.862-8.269 14.974-15.225a14.4 14.4 0 0 0-.75-4.62m-12.235.418 1.642 1.65.981.98-.002.002.005.006.002-.001v.003l-.002-.002q-.08.071-.17.126l-.004.002-.015.012-2.616-2.625.003-.003-.003-.003zm-.69.6.006.003.004-.003 2.583 2.582-.003.001.004.005-.092.068-.086.072-.005-.004-.004.004-2.58-2.58.005-.004zm12.904.245.006.01a.7.7 0 0 1 .09.314l-.02-.019v.003l-.097-.095-.046-.044V25.9l-.006-.006.073-.135zm-13.611.3 2.583 2.581-.015.008.014.013-.19.13-2.548-2.547.012-.007-.027-.028c.055-.047.11-.106.17-.15m13.19.472.006.006.003-.003.469.47c-.01.096-.018.193-.035.289l-.01-.01-.002.007-.557-.561zm-13.89.12 2.517 2.514-.012.009.01.009-.188.135-2.502-2.514.006-.006-.003-.003zm-.703.575 2.464 2.46h.003q-.007.007-.015.012l.01.009a1.5 1.5 0 0 1-.188.126l-2.448-2.442.008-.008-.008-.007zm14.069.036.802.808v.008l.01.009-.019.05c-.01.044-.03.089-.048.135a.3.3 0 0 0-.007.064l-.88-.873.005-.004-.012-.013zm-14.766.54 2.402 2.403-.01.009.01.009-.09.064-.097.068-2.39-2.388.01-.008-.008-.007zm14.177.151 1.09 1.096-.002.003.002.002-.094.234-1.134-1.143.003-.004-.015-.015zm-14.874.432.005.006.005-.006 2.348 2.353-.196.13-.004-.005-.008.004-1.163-1.166-1.165-1.161.006-.005-.006-.007zm14.265.235 1.313 1.313-.104.215-1.375-1.371-.001.001v-.003zm-14.952.343 2.292 2.291-.195.131-.002-.002-.01.005-2.274-2.272.179-.15.003.003zm14.246.249.045.044.01-.009 1.55 1.523-.126.206-.038-.026-.016-.015-.002.003-1.535-1.536-.015-.015zm-14.943.328 2.24 2.241-.188.13-.002-.002-.007.004-2.232-2.22.178-.15.003.003zm14.307.293.03.03.014-.012 1.696 1.691-.14.184-.034-.034-.014.016-1.73-1.731zm-15.003.284 2.187 2.189-.187.138-.002-.002-.007.005-2.183-2.183a6 6 0 0 1 .182-.144l.001.003h.002zm14.29.284.03.028.015-.012 1.857 1.849-.152.178-.032-.033-.015.018-1.88-1.89zm-14.986.302.024.015 2.133 2.141-.187.112-.011.008-2.15-2.13.18-.142.004.002zm14.263.244.03.03.017-.01 1.977 1.987-.143.165-.035-.034-.012.015-2.015-2.013zm-14.962.329.024.023.004-.003 2.072 2.072-.01.007.005.005-.034.017-.15.112-.024-.026-.003.002-2.062-2.066zm14.215.225 2.104 2.107-.158.153-2.14-2.125zm-14.902.358.006.012 2.063 2.065-.188.135-.003-.003-.01.008-2.066-2.062a1.5 1.5 0 0 1 .179-.146l.003.003zm14.158.157 2.203 2.201-.008.01.008.008-.161.155-.01-.01-.002.002-1.106-1.104-1.13-1.123.002-.002-.001-.001.007-.005A.6.6 0 0 1 75.71 32zm-14.854.443.006.006.008-.006 2.017 2.013-.187.144-.005-.005-.005.005-2.015-2.013zm14.078.051 2.314 2.31-.003.003-.01.01c-.056.047-.116.091-.163.137l-.003.003-2.338-2.332.068-.044.055-.035.053-.034.024-.016zm-.78.498 2.397 2.396-.003.003c-.058.043-.124.09-.173.136l-.003.001-2.415-2.41.155-.099.04-.025zm-13.971.04.004.005.004-.005L62.179 35l-.188.143-.003-.002-.004.002-1.96-1.957zm13.18.449 2.458 2.465-.006.004.003.003-.175.135-2.485-2.478.009-.005-.006-.006zm-13.833.172.003.005.002-.002 1.913 1.916-.082.063-.082.075-.005-.006-.012.01-1.899-1.897-.006-.006zm13.054.293 2.51 2.511-.003.005.015.016-.187.14-2.53-2.527-.001.002v-.003l.001.001q.002 0 .005-.003l-.018-.017a2 2 0 0 1 .208-.126m-13.7.346.005.005.005-.005 1.833 1.84-.181.144-.008-.007-.001.001-1.814-1.813zm12.889.113 2.583 2.557-.032.024.056.054a1 1 0 0 1-.19.126l-2.582-2.58.014-.006-.049-.049zm-.76.498 2.584 2.583-.033.022.016.015-.193.124-2.584-2.584.03-.019-.021-.023zm-12.752.046.004.004.005-.004 1.755 1.746-.177.15-.004-.006-.004.005-1.732-1.731zm11.944.468.017.018.027-.015 2.58 2.58-.198.132-.012-.01-.012-.01-.023.012-2.581-2.578zm-12.536.194 1.646 1.655.006.006-.166.13-.003.003-.006.004-1.63-1.62.007-.007-.003-.003zm11.76.268 2.613 2.584-.045.023.025.025-.206.117-2.607-2.607.03-.015-.01-.009zm-12.367.391-.005.02.007.008.004-.005 1.55 1.55-.181.17-1.518-1.547.007-.008-.013-.015a1.5 1.5 0 0 1 .15-.173m11.581.08 2.581 2.582-.035.019.012.012-.208.117-2.581-2.585.038-.025-.003-.003c.061-.04.129-.082.196-.117m-.811.447 2.584 2.583-.05.027.03.03q-.106.068-.206.117l-2.584-2.584.041-.023-.023-.024zm-11.362.19.017.017.004-.008 1.436 1.427-.165.156-.012-.014-.005.005-1.406-1.407zm10.535.253 2.582 2.58-.065.033.068.067-.206.108-2.583-2.583.054-.028-.054-.054zm-11.085.46.015.015.003-.003 1.312 1.312-.176.143-.015-.015-.002.003-1.28-1.27zm10.286.013 2.547 2.548-.059.03.05.049-.208.105-2.537-2.534.056-.034-.047-.046zm-.8.467 2.51 2.51-.06.031.052.052-.217.105-2.502-2.499.056-.032-.044-.044zm-10.034.252.016.016.001-.001 1.178 1.169-.17.157-.018-.017-.003.003-1.122-1.125-.017-.017zm9.225.308 2.468 2.473-.007.002-.093.041-.12.053-.006.003-2.462-2.458.006-.003.209-.108zm-9.741.436.014.013.001-.001 1.031 1.03-.001.002.001.002-.042.04-.137.133-.776-.802-.225-.226.002-.003zm8.918.009 2.426 2.422-.005.004.01.008-.218.11-2.405-2.412.003-.002-.01-.01zm-.805.465 2.364 2.365-.002.002.013.012-.226.103-.011-.012-2.34-2.338-.013-.01zm-8.625.294.008.007.003-.004.894.885q-.08.067-.154.149l-.008.015-.002-.003-.006.005-.49-.495-.377-.372a2 2 0 0 0 .131-.187m7.802.172.01.012h.002l2.3 2.292.012.012-.225.105-2.288-2.294.003-.001-.014-.014zm-.8.452 2.242 2.239-.011.003.001.002-.066.026-.157.068-.003-.003-.006.003-2.214-2.218.205-.117.002.001zm-7.516.152.007.006.003-.003.073.021.625.687.031.03-.001.002.001.001-.163.147-.003.003-.276-.28-.422-.42zm6.702.305 2.161 2.177-.008.003-.068.03-.155.07-2.148-2.157.209-.12.001.001zm-.793.46 2.065 2.109-.213.094-.024-.023-.008.003-2.065-2.063.237-.117.002.002zm-6.389.009.038.038.007-.012-.02-.024.582.593a2 2 0 0 0-.164.155l-.03-.03q-.008.002-.014.007l-.519-.52a2 2 0 0 0 .12-.207m5.556.448 2.064 2.062-.017.01.006.005-.229.102-.022-.022-2.008-2.042.008-.003.015-.01zm-6.024.36.016.016.008-.012.418.418q-.079.083-.164.158l-.013-.012-.013.012-.378-.375zm5.177.106.004-.001 2.02 2.019-.007.003-.203.102-.008.003-1.278-1.282-.732-.728.005-.001-.01-.01zm-.813.451 1.975 1.986-.008.006.011.012c-.06.035-.136.066-.2.102l.002.003-.003-.003-.003.003-1.99-1.983.148-.085zm-4.83.255.018.017.008-.015.25.255-.15.168-.015-.015-.011.015-.22-.22zm4.018.196 1.973 1.972-.214.108-.011.006-1.963-1.968.008-.005-.003-.001.102-.054.097-.055.002.001zm-.795.475 1.94 1.948-.204.117-.002-.001-.009.004-1.93-1.936.005-.003.19-.126.002.001zm-3.65.152.032.035.061.056q-.079.089-.15.176l-.046-.047zm20.534.26c-5.89 2.515-14.277 5.234-18.938 7.647-4.509 2.33-6.545 3.387-7.137 4.712v-.018s-1.294 3.258-1.795 4.186a2.69 2.69 0 0 1-2.25 1.518 37 37 0 0 0-2.854-.281c-1.946-.094-4.275.155-5.294.723-.803.445-2.063 2.065-2.063 2.065a1.79 1.79 0 0 0 1.7.048s-.419-.437-.405-.586c.015-.15.14-.212.343-.346.12.545.636.914 1.193.852a1.395 1.395 0 0 0 1.224-1.072 1.13 1.13 0 0 0-.167-.914c.674 0 1.222.39 1.219.58a3.12 3.12 0 0 1-2.066 1.837c.135.624 1.515.756 1.456 1.137a.75.75 0 0 1-.33.451c-.205.167.92.515 1.702.569 2.625.093 3.334-.87 4.248-2.104a1.2 1.2 0 0 1 .92-.452c.706 0 5.364 2.85 10.28 2.93 4.65.062 8.047-2.18 8.783-4.828a12.9 12.9 0 0 1-4.148.785c-4.679-.067-6.56-2.33-6.56-2.33a17.5 17.5 0 0 0 5.564 1.033c7.529.113 8.912-6 9.424-8.001-1.031.661-4.588 2.988-11.496 2.876a10.65 10.65 0 0 1-4.65-.913 37.5 37.5 0 0 0 7.387-.613c8.22-1.688 13.555-5.49 14.71-11.49m-17.673.088.003.003h.002l1.912 1.905.004.002-.207.123-.002-.003-1.899-1.904zm-.756.513.005.004.001-.001 1.875 1.875-.197.117-.004-.005-.003.002-1.857-1.853-.001-.002-.003-.003h-.003c.04-.03.088-.056.129-.085l.006-.004.007-.006a.3.3 0 0 0 .045-.04m16.952.352.249.246-.012.012.012.012v.003a2 2 0 0 0-.158.175l-.325-.322.019-.008-.02-.019zm-17.684.19 1.817 1.82-.012.007.016.016-.187.129-1.814-1.808.01-.009-.017-.017zm16.779.18.553.556-.003.003.003.003-.15.214-.635-.636.037-.015-.037-.038zm-.912.36.862.866-.015.015.015.015-.165.156-.937-.938.018-.006-.018-.018zm-16.578.017 1.766 1.77-.025.015.028.029-.2.117-1.749-1.735.026-.02-.029-.026zm15.652.337 1.15 1.154-.014.013.013.014c-.05.055-.105.108-.157.155l-1.226-1.213.021-.009-.02-.02zm-16.312.252 1.656 1.688-.015.01.02.019-.196.14-1.664-1.666.015-.015-.021-.02zm15.396.105 1.406 1.406-.003.003.003.003-.173.144-1.464-1.438.017-.01-.017-.016zm-.918.37 1.624 1.631-.004.005.001.001-.172.135-.007.006-1.688-1.68.011-.003-.002-.001.084-.033.13-.056.003.003zm-15.17.152 1.571 1.565-.013.008.07.07-.19.132-.03-.03-1.548-1.546.013-.013-.042-.043zm14.242.205 1.816 1.816-.006.003.003.003c-.047.033-.097.06-.146.09l-.037.024-.013.006-1.854-1.848.008-.003-.005-.006zm-.927.347 1.938 1.944-.002.002.03.03-.192.117-.03-.03-.003.001-.645-.645-1.33-1.327.005-.001-.004-.005zm-13.947.069.75.753.754.753-.178.143-.003-.003h-.002l-1.48-1.473zm12.993.255.024.023.03.03 2.035 2.036.03.029-.212.105-.022-.022-2.093-2.084.005-.001-.028-.028q.109-.049.23-.088m-.898.369v.008l2.18 2.188-.01.004.01.009-.206.1-1.476-1.477-.738-.732.004-.002-.004-.004zm-12.698.056.003.003 1.38 1.37.003.004-.18.138-.003-.003-1.34-1.334-.003-.003zm11.775.306 2.255 2.25-.01.004.011.012-.229.1-2.262-2.262.01-.005-.01-.01zm-.925.359h.002l.001.001 2.293 2.295-.006.003.012.012-.229.103-2.297-2.311.005-.002-.005-.004.084-.033zm-11.418.037.005.005.004-.004 1.237 1.242-.177.15-.004-.005-.004.004-1.206-1.205-.002.002v-.003l.002.001q.067-.097.145-.186m10.515.305 2.305 2.335-.004.002.004.004-.206.077-.019.008-.006.003-2.323-2.324.006-.002.022-.009.21-.082zm-.92.36 2.329 2.333-.01.003.004.003-.231.093-2.324-2.329q.003 0 .006-.003l-.003-.003q.12-.042.225-.094zm-10.13.077 1.083 1.08-.168.15-.008-.007-.009.008-1.03-1.032c.058-.06.084-.135.12-.196l.007.007zm9.225.298 2.317 2.324-.232.088-.002-.003-.018.006-2.297-2.32.006-.004zm-.923.378.003.003.006-.003 2.296 2.289-.24.087-.006-.006-.006.003-1.359-1.37-.908-.909.004-.001-.001-.002zm-8.787.105.888.897-.16.15-.004-.003-.009.009-.852-.844c.032-.062.086-.115.126-.203l.005.006zm7.896.267.004.005.005-.002 2.247 2.247-.24.088-.006-.005-.006.003-2.223-2.235zm-.885.387.003.01.012-.007 2.177 2.186-.238.09-.004-.004-.004.002-2.162-2.166zm-7.469.15.681.685-.163.15-.003.002-.63-.594.01-.022-.005-.005c.032-.072.072-.146.11-.216m6.61.261.091.09 2.007 2.003-.023.007.02.023-.24.082-2.065-2.066.018-.008-.018-.018zm-.846.42.004.005.005-.002 1.978 1.98-.25.075-.005-.005-.003.002-1.943-1.935.147-.081h.008zm-6.176.185.453.457-.013.015.006.006-.158.164-.375-.384.01-.034c.004-.075.05-.142.077-.224m5.335.261 1.835 1.828h-.01l.007.006q-.124.03-.246.073l-1.79-1.797h-.004l.006-.004-.003-.003a1 1 0 0 1 .205-.103m-.835.428 1.682 1.682-.005.001.005.004-.25.074-1.651-1.65.006-.003-.003-.003zm-4.844.246.188.187-.008.009.003.003-.15.17-.122-.12h.003l.004-.012v-.001c0-.08.045-.15.078-.224zm4.01.19 1.52 1.518-.03.008v.001l-.18.042-.052.014-.025.006-1.444-1.466.011-.005-.006-.006.197-.105zm-.844.452.007.007.004-.001.875.871.45.444h-.003l.006.006-.264.073-1.269-1.28-.006-.006-.006-.006zm-.806.448 1.122 1.119-.012.003.003.003-.266.065-1.061-1.064.009-.006zm-.788.474.885.882h-.047l.006.006-.223.038-.003.002-.003.001-.001-.001-.042.007-.783-.8.176-.126.009.009zm-.78.495.58.584-.023.006.027.026-.264.058-.516-.518.018-.012-.009-.009zm-.703.587.238.225h-.02l.014.015c-.097.023-.184.055-.272.055l-.126-.12.157-.17.003.002zm-.568.714.018.018.003-.003.427.43v.32l-.012-.012-.008-.009v.003l-.516-.515.012-.028a.2.2 0 0 1 .019-.047l.004-.007.018-.044a.3.3 0 0 1 .035-.106m-.37.906.715.718-.045.268-.008-.008-.003.018-.765-.756q.02-.034.038-.071l.004-.007a1 1 0 0 0 .057-.156l.003.003zm-.369.9.873.873v.006l.006.006-.01.033v.003l-.024.08-.001.005-.038.13-.897-.9h.002l-.01-.01a4 4 0 0 1 .1-.226m-.382.897.944.948-.002.002.008.007-.085.237-.953-.957.002-.002-.008-.007q.04-.11.094-.228m-.398.885.012.01.967.965-.002.004.008.008-.103.22-.973-.97.003-.006-.006-.006q.052-.11.094-.225m-.425.849.015.015q0-.003.003-.003l.62.619.323.318-.158.167-.003.003-.005-.005-.01-.001-.917-.92zm-.542.703.78.776-.01.003-.027.012c-.07.033-.138.067-.2.07h-.01l-.707-.687-.001.002v-.003l.001.001.013-.01-.006-.006a2 2 0 0 0 .097-.083q.03-.035.058-.073l.005.005zm-.735.545.407.395h-.032l.02.02c-.066-.005-.132-.017-.198-.027a2 2 0 0 0-.177-.016l-.24-.25.025-.008-.013-.015q.11-.036.208-.1m-12.279 3.338a1.79 1.79 0 0 0-1.031 1.473c0 .67.712.89.841.894l.179-.836s.805-.193 1.412-.316c.603-.126 1.031.777 1.031.777s1.424-.135 1.87-1.002c-.05-.226-2.377-.106-2.81-.074-.431.03-.782-.307-1.492-.917m4.055 1.783c-.436.22-1.734.867-2.12 1.032a7 7 0 0 1-.707.302 4 4 0 0 1-.31.108c.06.032 1.03.604 2.25-.633a18.8 18.8 0 0 0 3.665 1.521c-.381 1.192-3.452 3.512-5.382 5.323-3.135 2.93-6.52 11.223-9.593 12.287q.671.143 1.355.161c4.04.065 6.084-3.787 6.767-4.749-1.12 2.819-2.241 4.374-2.874 4.342a7.31 7.31 0 0 0 6.718-1.359l-2.382-1.245s3.04 1.265 5.549 1.303c2.619.033 3.07-1.092 3.07-1.092l-2.968-1.662a9.1 9.1 0 0 0 3.619.975c3.772.063 5.68-3.556 5.917-5.496-.22.4-1.312 2.113-2.897 1.91a.656.656 0 0 0-.047-.843l-.08-.059c-.23-.155-2.062-2.01-3.448-3.16l-.277 1.03a1.75 1.75 0 0 1-1.665 1.36 1.97 1.97 0 0 1-1.55-1.099c.264.317.627.533 1.032.612a1.16 1.16 0 0 1 .68-.515c.193-.05.369-.146.518-.281a2.15 2.15 0 0 0 .645-1.295.735.735 0 0 0-.437-.706 2.5 2.5 0 0 0-1.242-.235c-.744 0-1.031-.05-1.251-.266-.22-.22-.229-.237-.455-.24a.73.73 0 0 0-.518.27.9.9 0 0 1 .908-.944q.114.003.223.032c.246.064 2.834.744 3.345.996.303.144 3.182 2.426 3.182 2.426.592-.375.983-1.884.99-2.686.23-.118.633 0 1.187.41.555.412 2.297 2.011 2.517 2.265-.346 2.732 1.368 8.1 3.996 8.141a2.2 2.2 0 0 0 .738-.147c-.24-.11-.34-.343-.477-.811l-.449-1.908s.58.77 2.704 3.098c1.14 1.282 2.177 1.584 2.874 1.593a1.73 1.73 0 0 0 1.266-.381c-.33 0-.706-.314-1.239-.97l-2.051-2.64c3.226 2.946 5.505 3.616 6.905 3.616a2.66 2.66 0 0 0 1.7-.422l-6.818-6.1 8.069 4.489c.943-2.8-1.122-4.594-2.262-5.241h.009c-1.146-.654-5.406-3.02-5.406-3.02l4.342.925c1.934.407 3.098 1.031 3.059 1.55a2.2 2.2 0 0 0 .178-.835c0-4.72-7.426-4.47-7.426-4.47l1.72-.4c1.994-.42 3.1-.307 3.28.103a3.2 3.2 0 0 0-.093-.826c-.557-1.787-1.71-2.402-5.33-3.302l-5.062-1.172c1.62 1.655 2.27 6.197.42 8.306a1.56 1.56 0 0 0-.516-1.125c-.3 1.198-1 2.663-2.643 2.472 0-.064.144-.33-.308-.75-.92-.843-3.876-3.532-4.936-4.5-.065.353-.088.484-.22 1.032a2.02 2.02 0 0 1-1.892 1.702 2.35 2.35 0 0 1-1.667-1.031 2.5 2.5 0 0 0 1.515.478c.069-.244.216-.46.418-.613.266-.217.709-.355.791-.887a.685.685 0 0 0-.738-.868c-.827.157-1.764.33-1.977.343a.75.75 0 0 1-.516-.111.68.68 0 0 0-.437-.114.82.82 0 0 0-.688.515 1.09 1.09 0 0 1 .144-.929 1.1 1.1 0 0 1 .811-.477c.111 0 3.011-.168 3.835-.147a3.4 3.4 0 0 1 1.297.208c.707.452 2.204 1.55 2.511 1.81.592-1.358.437-3.917-.26-4.429-4.688-.937-9.917-.097-13.105-1.855m6.059 2.61q.112.004.223.039l-.021.02c.187.071 2.265.833 3.46 1.298-.484 0-1.031 0-1.55.03h-.77l-.774-.076c-.516-.074-.437-.381-.87-.446a.82.82 0 0 0-.759.372c0-.725.537-1.246 1.06-1.236m18.698.287.24.074-.304.302-.012-.009-.015.015q-.082-.072-.182-.144l.243-.235.02.006zm.952.314.235.091-.56.548-.009-.009-.02.021-.158-.158.486-.48.01.003zm.859.378.002-.001.215.109-.003.003.026.029-.782.724-.038.037h-.004l-.009-.01a2 2 0 0 1-.118-.135l-.016-.015zm.767.528.161.157-.975.973-.003-.005-.003.002-.117-.199zm.569.703.108.222-.516.483h-.331l.733-.7.003-.002zm-2.24 2.208.017.008.007-.008c.095 0 .19.033.281.048l-.2.198-.013-.003-.007.007-.231-.094zm1.105.2.255.064-.372.378-.223-.102zm-28.614.167.006.006.002-.003.153.144-.109.225-.009-.009-.003.006-.204-.214zm29.619.102.237.094-.137.135-.378.381-.005-.003-.04.037-.193-.125.495-.498.006-.006zm.873.4.205.122-.002.002.002.001-.66.656v-.001l-.005.004-.176-.15zm-31.151.107.38.393-.007.015v.001l.008.007-.106.208-.44-.436.017-.013-.017-.017q.09-.07.165-.157m6.418.158c.375 0 1.27.06 1.26.668a1.2 1.2 0 0 1-.061.354.7.7 0 0 0-.642-.407c-.24 0-1.424.358-1.805.346-.375-.008-.38-.188-.612-.188a.69.69 0 0 0-.656.432.903.903 0 0 1 .791-1.171v-.002c.126 0 1.19-.037 1.725-.032m25.5.237.002.002.001-.002.176.15-.782.782v-.003l-.012-.013-.017-.023-.115-.134.006-.006-.009-.011zm-32.533.27.562.56-.01.018.007.008-.112.208-.594-.597.012-.015-.01-.01zm33.172.378.135.185-.009.009.01.011-.903.902-.109-.228.005-.004-.005-.01zm-33.735.325.674.688-.01.015.007.006-.111.205-.713-.703.012-.015-.009-.009zm34.187.498c0 .08.058.165.078.249l-.015.018-.515.515-.01-.004-.005.004-.24-.079.683-.685.001.004zm-36.194.163c-1.489 1.672-8.387 6.198-11.842 7.229a2.8 2.8 0 0 1-.929-.117s.31 2.54 3.563 2.584c1.936.026 3.682-1.24 4.983-3.269v.035c1.448-2.253 3.964-6.135 4.225-6.462m1.459.078.765.765-.01.018.007.008a2 2 0 0 0-.115.199l-.782-.783.01-.015-.004-.005zm-.513.758.811.811-.008.018.008.01-.117.207-.832-.83.012-.017-.005-.006zm31.134.56.007.004.002-.002.21.12-.15.144-.005-.004-.003.001-.175-.135zm-31.655.199.858.864-.006.009.015.015-.088.14-.032.056-.861-.852.01-.017-.008-.007zm32.475.24q.102.06.2.112l-.012.012.009.005-.25.264-.181-.144.015-.015-.01-.005zm.8.469.223.12-.01.009.004.003-.36.357-.182-.144.01-.008-.008-.006zm-33.761.08.876.878-.015.02a1 1 0 0 0-.103.176h-.002l-.01.021-.875-.873.012-.023h-.001zm34.587.386.197.126-.006.005.006.003-.484.49-.167-.155.004-.005-.004-.004zm-35.077.398.888.88-.13.198-.013-.013-.021.037h-.003l-.876-.885q.052-.091.117-.196l.018.016zm35.801.14.17.159-.002.001.002.002-.636.639-.003-.003-.009-.015-.009-.015-.105-.16h.003l-.003-.004zm-39.264.216.117.11-.05.048-.002.002a.5.5 0 0 1-.105.1l-.002.001-.004.004-.002-.001-.007.004-.144-.146.19-.12.003.003zm2.977.43.876.873q-.065.1-.135.187l-.017-.018-.033.044-.864-.87.126-.193.02.02zm36.917.011.008.012.01-.009.14.187-.015-.003-.773.789-.006-.012-.009.009-.105-.229zm-40.665.052.233.234-.014.012.008.007-.17.164-.259-.267.015-.01-.009-.009zm25.272.03.01.016.014-.013.117.205-.118.094v-.062l-.064-.181.001-.002-.001-.004zm-26.062.47.01.009.016-.01.355.354-.17.15-.012-.012-.015.012-.386-.387zm4.049.216.852.852-.135.187-.019-.018-.034.045-.846-.843.123-.194.024.023zm37.901.017.006.012.005-.006q.053.098.103.223l-.955.946-.003-.015-.012.012-.05-.264.906-.905zm-15.405.105.118.203-.2.208-.006-.013-.015.016-.093-.235.179-.175.006.008zm-27.345.109.492.516-.019.013.013.013-.172.15-.003-.027-.52-.515.019-.012-.012-.012zm-.806.493.627.63-.016.012.014.014-.173.15-.666-.663.023-.014-.014-.012zm5.154.055.82.812-.012.011.009.009a1 1 0 0 0-.14.181l-.03.012-.805-.808.123-.188.01.01zm23.548.07a3 3 0 0 1 .162.167l-.358.349-.006-.009-.011.012a2 2 0 0 1-.117-.2l.313-.313.005.006zm15.147.138.006.02.018-.017q-.001.058.001.118l.004.055a.5.5 0 0 0 .027.114l-.73.735-.015-.008-.005.005-.209-.108zm-44.672.187.767.768-.015.013.01.01a2 2 0 0 1-.182.15l-.794-.806.018-.009-.015-.015a4 4 0 0 0 .211-.11m30.161.316.176.143-.472.466-.015.015-.014.015a1.5 1.5 0 0 0-.143-.17l.453-.458.002.003zm-24.7.052.759.756-.003.003-.03.036-.12.146-.743-.744.11-.155zm-6.296.059.858.87-.033.018.027.03-.207.11-.867-.86.035-.018-.032-.032zm-.858.41.015.015.01.011.833.844-.01.003.01.012-.217.085-.014-.015-.006.06-.766-.834-.055-.055.003-.001-.017-.019zm32.601.01.217.099-.613.62-.005-.005-.018.018-.172-.138.57-.583.006.003zm-25.962.298.002-.001.676.677-.004.004.001.002-.161.155-.65-.65.009-.012-.006-.006.103-.13zm-7.515.091.753.754-.023.003.01.01-.284.038-.693-.697.015-.007-.007-.008zm34.09.263a3 3 0 0 0 .079.255l-.003.003.003.006-.188.193-.273-.055.01-.01-.01-.002zm-35.019.096.46.46-.012-.002.003.003a3 3 0 0 1-.366-.05h-.002l-.334-.328.246-.082zm37.456.027.006.003.184.132.003.003-.16.156-.005-.005-.002.002-.152-.162-.003-.003zm3.768.048.237.087-.002.002.002.001-.155.156-.2-.117.002-.002-.002-.001zm-33.332.187.56.563-.005.004.02.019-.173.14-.009-.005-.516-.516.005-.004-.016-.016zm34.29.13.26.063-.002.003h.003l-.34.346-.209-.117.002-.002-.002-.001zm-3.968.148.007.003c.063.035.13.08.193.108l.006.003-.328.326-.005-.005-.001.002-.077-.083-.07-.07h.002l-.004-.005zm5.01.088.285.041-.568.563-.012.011-.22-.1.013-.012-.004-.002.495-.498.007.002zm1.172.097h.332l-.827.847-.016-.005-.013.013-.252-.082.767-.765zm1.158.135.164.152-.788.782-.008-.001-.004.004-.282-.04.9-.895.008.008zm-38.22.099.406.402-.01.005.016.018-.205.12-.351-.348.004-.005-.013-.013zm31.728 0 .006.003a6 6 0 0 0 .237.085l-.002.002h.005l-.516.517-.009-.006-.012.012-.178-.138.006-.006-.01-.006.298-.287zm1.037.276.143.178-.612.618-.025-.01-.008.007-.219-.093.692-.698.01.015zm6.117.23.003.004.02.017.15.132-.112.103a4 4 0 0 1-.387.076l.005-.004-.01.001zm-39.492.15.187.197-.007.003.013.015-.222.105-.135-.135.007-.008-.013-.013zm33.928.305.168.158-.008.007.008.008-.12.126h-.326l.011-.012h-.015z" style="stroke-width:.75"/></svg>