<svg xmlns="http://www.w3.org/2000/svg" viewBox="0 0 100 100"><path fill="#008B99" d="M0 0h100v100H0z"/><path fill="#FFF" d="m10 31.27.45.77h13.4c3.37 0 13.121.278 20.48 3.478v.022c5.538 2.43 13.479 8.346 14.638 9.19 1.162.84 12.578 9.003 12.578 9.003s1.8 1.294 3.465 1.294c1.669 0 3.31-1.67 3.31-1.67S62.166 41.77 61.007 40.95c-1.178-.844-6.53-5.334-16.493-7.956-6.813-1.797-18.553-1.722-19.9-1.722zm16.378 6.066-12.862.004.45.765H25.8c4.303 0 11.696.372 17.687 3.366l-.022.022c5.562 2.79 11.944 7.487 12.862 8.143a5434 5434 0 0 1 10.481 7.466s1.797 1.275 3.444 1.275c1.8 0 3.462-1.722 3.462-1.722S59.06 46.17 58.421 45.72c-.672-.466-7.056-5.332-14.487-7.019-6.44-1.46-16.172-1.366-17.556-1.366m42.08 5.616c-.652 1.481 1.91 3.181 1.91 3.181l7.952 5.71c1.016.637 1.913.134 1.913.134s2.044-1.032 3.2-1.275c1.013-.26 4.194-.394 4.584-.263.9.131 1.913 1.025 1.913 1.025.503-3.572-1.8-3.815-3.316-4.078v-.034a33 33 0 0 0-3.444-.372l-2.675.766-1.534-1.279s3.181.27 4.078.397c.766 0 .506-.393.131-1.159-.375-.75-1.272-.75-1.272-.75h-8.034s-1.437 0-3.106-.375c-1.64-.388-2.281-1.592-2.3-1.628m-38.443.5c-1.032-.006-1.719.003-1.878.003h-11.08l.45.75h9.658c2 0 9.716.112 15.594 3.256 5.053 2.72 10.034 6.44 10.968 7.116.931.672 8.519 6.08 8.519 6.08s1.775 1.2 3.406 1.2c1.629 0 3.365-1.74 3.365-1.74S56.93 51.43 55.827 50.66c-1.088-.765-5.45-4.322-12.45-5.984-4.1-1.04-10.268-1.21-13.362-1.225M20.6 49.539l.406.75h7.9c2.265 0 7.134.226 12.993 3.275l.035.022c3.968 2.075 8.33 5.33 9.193 5.912.84.582 6.381 4.566 6.381 4.566s1.745 1.234 3.353 1.234c1.7 0 3.444-1.772 3.444-1.772s-10.35-7.396-11.115-7.9c-.788-.487-4.7-3.469-10.394-4.98-4.53-1.216-12.259-1.107-12.9-1.107Zm11.018 6.081-7.559.007.45.765h6.14c.916 0 6.7.278 10.816 3.013h.025c3.912 2.6 6.213 4.493 6.962 5.037.75.544 4.231 3.034 4.231 3.034s1.61 1.254 3.572 1.254c1.482 0 3.316-1.725 3.316-1.725s-8.312-5.86-9.078-6.385c-.766-.522-3.428-2.618-8.406-3.93-4.156-1.085-10.072-1.07-10.469-1.07" style="stroke-width:.799983"/></svg>