<svg xmlns="http://www.w3.org/2000/svg" viewBox="0 0 100 100"><path fill="#FF7020" d="M0 0h100v100H0z"/><path fill="#FFF" d="M45.07 82.512c-8.699 0-16.879-3.387-23.03-9.54-6.153-6.152-9.54-14.327-9.54-23.03 0-8.7 3.387-16.88 9.54-23.028 6.151-6.152 14.331-9.543 23.03-9.543s16.88 3.39 23.032 9.543c6.148 6.148 9.539 14.328 9.539 23.031 0 8.7-3.387 16.875-9.54 23.032-6.152 6.148-14.331 9.539-23.03 9.539Zm0-55.324c-12.55 0-22.757 10.207-22.757 22.757C22.313 62.492 32.52 72.7 45.07 72.7c12.547 0 22.758-10.207 22.758-22.754 0-12.55-10.21-22.757-22.758-22.757"/><path fill="#CDCCCA" d="M54.934 17.484c-1.543 0-3.067.114-4.567.325 6.684 1.086 12.852 4.222 17.735 9.105 5.59 5.586 8.89 12.844 9.449 20.649q.136 1.225.136 2.492c0 12.547-10.207 22.754-22.753 22.754-12.551 0-22.762-10.207-22.762-22.754 0-10.938 7.754-20.094 18.055-22.266a22.7 22.7 0 0 0-5.157-.602c-11.57 0-21.148 8.68-22.574 19.868-.09.992-.14 1.992-.14 3 0 8.699 3.39 16.875 9.542 23.027 6.153 6.152 14.336 9.54 23.036 9.54v.007c8.699 0 16.875-3.39 23.027-9.543S87.5 58.754 87.5 50.055c0-8.703-3.387-16.88-9.54-23.032-6.151-6.152-14.331-9.539-23.026-9.539m0 0"/></svg>