<svg xmlns="http://www.w3.org/2000/svg" viewBox="0 0 100 100"><path fill="#C10A27" d="M0 0h100v100H0z"/><path fill="#FFF" d="M80.874 14.932a4.13 4.13 0 0 0-4.126 4.127 4.131 4.131 0 0 0 8.252 0 4.13 4.13 0 0 0-4.126-4.127m-44.805.995a3.14 3.14 0 0 0-2.924 3.131 3.14 3.14 0 1 0 6.278 0 3.14 3.14 0 0 0-3.354-3.13m35.875 8.575a3.47 3.47 0 0 0 0 6.931 3.46 3.46 0 0 0 3.47-3.458 3.47 3.47 0 0 0-3.47-3.473m-35.84.669a2.81 2.81 0 0 0-2.62 2.8 2.81 2.81 0 0 0 5.619.003 2.81 2.81 0 0 0-3-2.804m26.934 9.043a2.807 2.807 0 0 0-2.805 2.68 2.807 2.807 0 0 0 2.805 2.68 2.807 2.807 0 0 0 2.806-2.68 2.807 2.807 0 0 0-2.806-2.68m-26.743.308a2.474 2.474 0 0 0-2.472 2.372 2.48 2.48 0 0 0 2.472 2.488 2.487 2.487 0 0 0 2.474-2.488h-.003a2.474 2.474 0 0 0-2.471-2.372m-17.828 7.911A3.47 3.47 0 0 0 15 45.802h.003a3.47 3.47 0 0 0 1.69 3.12 3.47 3.47 0 0 0 3.549 0 3.47 3.47 0 0 0 1.69-3.12 3.465 3.465 0 0 0-3.465-3.369m17.818 1.233a2.135 2.135 0 0 0-2.138 2.136 2.135 2.135 0 0 0 2.133 2.138 2.137 2.137 0 0 0 .005-4.274m17.836.003a2.135 2.135 0 0 0-2.14 2.133 2.135 2.135 0 0 0 2.134 2.135 2.135 2.135 0 1 0 .006-4.268m-26.739 8.906a2.15 2.15 0 0 0-2.156 2.14 2.15 2.15 0 0 0 2.156 2.139 2.14 2.14 0 0 0 1.92-3.232 2.15 2.15 0 0 0-1.92-1.047m8.915.32a1.825 1.825 0 0 0-1.82 1.818 1.827 1.827 0 0 0 1.82 1.82 1.82 1.82 0 0 0 1.819-1.82 1.81 1.81 0 0 0-1.819-1.818m9.01.352a1.475 1.475 0 0 0-1.57 1.48 1.475 1.475 0 1 0 2.95-.011v-.003a1.475 1.475 0 0 0-1.38-1.466M18.462 60.18a3.456 3.456 0 0 0-3.459 3.458 3.47 3.47 0 0 0 3.467 3.298 3.47 3.47 0 0 0 3.464-3.298 3.47 3.47 0 0 0-3.472-3.458m62.197.324a3.14 3.14 0 0 0-2.924 3.132 3.146 3.146 0 0 0 3.139 3.139 3.15 3.15 0 0 0 3.139-3.14 3.14 3.14 0 0 0-3.354-3.131m-8.72.326a2.8 2.8 0 0 0-2.787 2.806c0 1.547 1.256 2.805 2.786 2.805a2.809 2.809 0 0 0 0-5.61m-44.56.334a2.473 2.473 0 0 0-.002 4.945 2.473 2.473 0 1 0 .003-4.945zm26.742.342a2.135 2.135 0 0 0-2.14 2.132 2.136 2.136 0 0 0 4.272.003 2.135 2.135 0 0 0-2.132-2.135m-17.982.004a2.136 2.136 0 0 0-1.992 2.128 2.136 2.136 0 1 0 4.27.006 2.136 2.136 0 0 0-2.278-2.134m9.065.41a1.823 1.823 0 0 0-1.82 1.721 1.823 1.823 0 0 0 1.819 1.821 1.827 1.827 0 0 0 1.82-1.82 1.823 1.823 0 0 0-1.819-1.722m-17.826 7.827a2.808 2.808 0 0 0 0 5.613 2.809 2.809 0 0 0 0-5.613m9.03.335a2.474 2.474 0 1 0-.11 4.945 2.474 2.474 0 0 0 2.474-2.475h-.003a2.474 2.474 0 0 0-2.36-2.47m8.811.337a2.15 2.15 0 0 0-2.154 2.139 2.15 2.15 0 0 0 2.149 2.037 2.15 2.15 0 0 0 2.146-2.037 2.14 2.14 0 0 0-.626-1.515 2.13 2.13 0 0 0-1.515-.624M18.462 78a3.454 3.454 0 0 0-3.459 3.459v.002a3.47 3.47 0 0 0 1.69 3.117 3.463 3.463 0 0 0 5.239-3.117A3.47 3.47 0 0 0 18.462 78m35.67.005a3.46 3.46 0 0 0-3.469 3.46h-.003a3.485 3.485 0 0 0 3.473 3.472 3.46 3.46 0 0 0 3.462-3.47 3.46 3.46 0 0 0-3.462-3.462m-18.089.01a3.457 3.457 0 0 0-3.22 3.45l-.004-.004c0 1.91 1.564 3.473 3.46 3.473a3.46 3.46 0 0 0 3.458-3.47 3.457 3.457 0 0 0-3.694-3.45" style="stroke-width:.699971"/></svg>