<svg xmlns="http://www.w3.org/2000/svg" viewBox="0 0 100 100"><path fill="#002663" d="M0 0h100v100H0z"/><path fill="#ffb608" d="M4.666 0c1.246 5.142 2.503 9.9 4.016 14.277A108 108 0 0 0 0 15.797v3.492a119 119 0 0 1 9.926-1.365c1.889 5.149 3.892 9.556 6.027 13.05.756 1.251 2.39 3.265 3.393 3.522.628.117-.247-2.271-.643-3.39-1.365-3.754-2.75-8.415-4.008-13.684 4.137-.257 8.532-.502 13.182-.502 4.396 0 8.789.117 12.797.502-1.248 5.397-2.623 9.919-4.01 13.683-.385 1.142-1.258 3.508-.627 3.391 1-.257 2.633-2.388 3.389-3.646a101 101 0 0 0 5.896-13.053c9.034.884 16.565 2.517 21.471 4.521a88 88 0 0 1-11.436 9.672c-1.002.617-2.994 2.378-2.388 2.506 1.024.246 3.277-1 4.533-1.76a84.6 84.6 0 0 0 12.168-9.16c2.389 1.376 3.767 2.762 3.767 4.264 0 .873 0 1.634-.501 2.262a109 109 0 0 1-20.202 6.902c-.5-.76-1.64-1.389-3.529-1.389-3.123 0-6.888 3.392-7.39 3.895-.874-1.12-2.39-2.25-4.522-1.504l-.629.256.246.617c.11.226.224.64.424 1.172-.772-1.92-2.116-3.563-3.945-4.178A15.3 15.3 0 0 0 27 35.615a7.5 7.5 0 0 0-3.39 2.145 3.6 3.6 0 0 0-1.249-.258c-1.387 0-2.642 1.26-3.261 2.008l-.13.127-.382-.373s-.874-1.502-2.635-2.004c-1.387-.374-2.762-.375-3.892-.375-.76 0-1.248.246-1.89.5-.978.267-1.99.394-3.005.375a8.2 8.2 0 0 1-2.635-.375A109 109 0 0 1 0 36.32v4.352c.785.136 1.55.315 2.523.724 1.75.628 3.14 2.645 5.016 2.645 2.26-.128 2.39-1.259 5.524-1.77.627-.109 2.774.002 3.263.127 1.504.503 1.386.627 2.26.627 1.016 0 2.007-.754 2.635-.754s1.002.384 1.002.758-.116 1.886-.116 2.506c.115 2.272.874 3.144 2.375 4.018a11.54 11.54 0 0 0 5.024 1.644v1.494c-1.002 0-2.388-.375-3.133-.504-.382-.117-.511 0-.629.118 0 .139-.256.771.246.888.64.254 1.758.382 2.143.627.371.129 1.13 1.249 1.748 1.645.513.371 1.013.246.885-.385 0-.628.374-1.13 1.248-1.248 1.643 0 3.146.117 3.146 2.004.246 2.124-1.504 2.124-3.39 2.252v-.002c-1.142.128 1 .886.873 2.39-.118 1.002-1.141 1.375-2.122 1.514-1.015 0 .246.627.618 1.246.502.874-.618 1.633-1.887 1.633-.874 0-2.752.117-4.139 0-1.376-.117-1.14-.872-.373-1.129.748-.246 1.889-.374 2.89-.748 1.494-.628.622-1.002.108-1.002-.609-.136-1.748-.266-3.498-.64-1.141-.246-1.375-1.12-1.14-1.622.136-.382.638-.381 1.14-.501.746 0 3.262-.127 4.395-.383 1.12-.246 1.501-1.248 0-1.387-1.262-.106-3.522 0-5.772-.246a7.15 7.15 0 0 1-5.15-2.645c-1.387-1.619-1.63-5.139-3.018-7.134-1.002-1.641-2.88-2.015-3.754-2.143a2.62 2.62 0 0 0-1.888.373c-.372.128-.5.372 0 .629 1.247.628 1.504 2.763 1.248 2.635-2.635-2.496-6.901-4.012-8.416-4.383-.652-.218-1.303-.58-1.885-.951v3.578q.51.316 1.14.637c1.502.745 2.507 1.002 3.391 1.248.757.256 1.26.373 1.88.744.873.628 1.371 1.515 1.882 2.271.505.748 1.005 1.623 1.762 2.125 1.632 1.01 3.265 1.256 3.767 1.256 0 2.774 1.373 4.395 3.762 4.395.128 2.271 1.002 2.647 2.135 2.892-.118.874.254 1.501.383 1.758.2.31.513.532.873.62v.128c-.126 1.01-.125 2.014.375 2.514.245.374.746.502 1.246.502.267.374.513.746.767 1.013 1.494 2.125 3.01 4.385 2.881 7.776-.117 3.145-1.001 5.14-1.758 7.152a18 18 0 0 0-1.623 5.772c-.128 1.632.501 3.638.875 4.896v.127c-1.758-1.886-2.646-5.778-2.646-11.547 0-3.754.629-8.288 1.644-12.799v-.257c.246-.874-.128-1.384-.638-1.63-.503-.256-1.249 0-1.88.885-.616.874-3.764 7.775-3.892 15.561 0 6.295 1.866 12.235 4.707 14.791h6.87a7.9 7.9 0 0 0 1.476-2.123c.374-.874.502-3.265.502-3.637 0-.502 1.141-4.894 1.515-5.513.874-1.77 1.994-5.035 2.635-7.541 0 .117.117.384.117.501.511 1.376 1.01 4.896 1.256 6.28.129.502.255 1.879 1.26 1.879.885 0 1.248-1.25 1.385-1.877.374-1.89.109-7.283-.254-9.418a11 11 0 0 0-.627-1.875c-.502-1.248-1.262-3.017-1.262-6.526 0-2.146.373-4.523.758-6.142.117-.77.246-1.271.246-1.774a4.5 4.5 0 0 0-.373-2.505h.885c.257-.129.374-.128.502-.256.114 0 .245-.13.37-.13.118.118.257.76.257 1.378v.384a9.1 9.1 0 0 0 0 2.635c.116.595.372 1.153.746 1.63.257.512.629 1.015.629 1.386.62 3.265-.754 17.951-1.256 20.201a9.6 9.6 0 0 0-.375 2.389 11 11 0 0 1-.5 2.506c-.117.253-.502.756-.887 1.255-1.13 1.505-2.621 3.768-2.75 5.538 0 .4.237.957.463 1.355h11.924c.206-.27.388-.561.539-.863.117-.492.374-1.633-1.002-2.635a25 25 0 0 0-1.773-1.143c-.991-.48-1.993-1.118-1.993-1.62 0-.5.375-1.25.746-1.749.375-.63.759-1.258.874-2.017 0-.257 0-.628-.247-1.141a1.17 1.17 0 0 0-.5-.49c-.256-.246-.255-.247-.255-.746 0-.137.256-.64.384-1.248.991-3.03 3.882-10.812 4.51-21.233a15.94 15.94 0 0 0-1.502-7.658c.254.257.372.383.63.383.501 0 .747-.255 1.001-.383 1.761-1.747 2.272-3.754 2.764-5.887l.373-1.386a3.6 3.6 0 0 1 1.14-.381 15 15 0 0 0 3.891-1.623c1.376-.874 2.88-2.649 4.139-4.022.873-1.013 1.749-2.002 2.123-2.13.385-.129.768-.002 1.396.126.62.118 1.377.372 2.25.246 3.768-.502 9.42-5.514 13.428-9.162 1.387-1.247 2.387-2.762 3.146-3.261 1.748-1.248 3.638-.875 4.397-1.131.5-.118 1.629-.119 2-.63.887-1.004 2.636-5.397 7.043-8.288A114 114 0 0 0 100 16.826v-3.953q-.602.523-1.328 1.158a110.6 110.6 0 0 1-23.217 15.07c0-.256.125-.64.125-.886 0-2.132-1.5-4.139-4.264-6.026A99.1 99.1 0 0 0 88.93 0h-5.778a101 101 0 0 1-14.607 20.676c-5.152-2.635-12.927-4.777-22.098-5.897C47.984 10.24 49.38 5.326 50.635 0h-6.776c-.766 4.916-1.612 9.491-2.545 13.658a156 156 0 0 0-13.568-.629c-4.778 0-9.542.247-13.924.63A355 355 0 0 1 11.293 0ZM0 32.15v2.047c.848.31 1.658.48 2.143.297.58-.116-1.087-1.626-2.143-2.344m55.754 6.407a9 9 0 0 1 2.996.45c.51.129.374.372.13.374h-.003c-1.94 0-3.83.62-5.395 1.77l-.502.501c-.617.503-.746.246-.746 0 0-.128-.512-.628-1.011.118-2.39 3.893-4.023 4.895-6.4 5.908-.514.245-.759.245-.628-.246q.48-1.477.51-3.016a6.8 6.8 0 0 0-.639-2.764c-.117-.256-.374-.501-.117-.627 1.13-.502 3.249-1.388 5.395-1.388 1.376 0 1.621.886 2.12 1.011.503.131.642-.254.77-.5.372-.638 1.121-1.248 2.508-1.513a9 9 0 0 1 1.012-.078"/></svg>