<svg xmlns="http://www.w3.org/2000/svg" viewBox="0 0 100 100"><defs><linearGradient id="a" x1="-257.22" x2="-256.22" y1="410.67" y2="410.67" gradientTransform="rotate(92.3 3886.52 18579.389)scale(56.41667)" gradientUnits="userSpaceOnUse"><stop offset="0" stop-color="#D2068A"/><stop offset=".74" stop-color="#413691"/><stop offset="1" stop-color="#413691"/></linearGradient></defs><path fill="url(#a)" d="M0 0h100v100H0z"/><path fill="#fff" d="M50.536 41.441c-1.36 4.324-1.85 8.368-1.396 13.143v.036c.278 2.86.873 5.962 1.847 9.519.768 2.892 1.014 5.752.909 8.508-.664 7.077-4.952 12.411-10.146 15.376.382-3.174.243-6.976-.594-11.61-1.08-6.067-3.38-8.055-3.694-8.473 0 0-.036-.036 0-.072 0 0 .068-.033.068-.069 1.919-1.186 3.556-2.65 4.357-3.31.595-.524.35-.733-.242-.455-1.604.732-4.255 1.674-7.635 2.092-2.965.382-6.485.314-10.323-.418 0 0-2.683-.383-2.3-3.138.104-.769.49-1.533.803-2.302.105-.245.347-.977.21-1.568a2.2 2.2 0 0 0-.35-.592 1.25 1.25 0 0 1-.069-1.223c.173-.418.87-1.01 1.883-1.114 1.115-.105 2.544.068 3.59-.14 1.568-.279 2.477-1.325 2.3-1.674-.137-.242-1.497.036-1.987.14-.697.14-1.952-.418-2.615-.627-1.01-.35-1.57-.592-2.439-.21-.559.246-.977 1.36-1.15.837-.072-.245.068-.487.242-.8.176-.282.559-.769.595-1.047.068-.313.137-.768-.769-1.431-.627-.451-1.082-.801-1.323-1.079-.873-.873-1.013-1.778.627-3.174 1.183-1.01 3.766-3.697 4.567-5.334.14-.245.768-1.291.068-2.301-.523-.801-.627-.942-.765-1.22-.385-.732-.104-1.395.523-2.373.314-.487.556-1.046 1.183-3.102a15.8 15.8 0 0 1 3.524-5.998c.105-.104 1.952-2.124 4.008-2.72.522.838 1.568 1.956 3.66 3.034 2.164 1.118 4.534 1.71 4.534 1.71s2.965.837 5.962 1.919c2.406.869 4.88 3.974 4.88 4.602 0 1.324-1.288 2.579-2.579 6.59"/><path d="M56.2 2.625C47.073 2.5 40.41 6.332 38.073 8.832a16.8 16.8 0 0 0-2.5 3.543c-1.832 2.918-2.082 6.082-2.207 6.5 0 0 2.332-2.543 4.793-3.293.625 1 1.875 2.336 4.375 3.625 2.582 1.336 5.414 2.043 5.414 2.043s3.543 1 7.125 2.293c2.875 1.039 5.836 4.75 5.836 5.5 0 1.582-1.543 3.082-3.086 7.875-1.664 5.164-2.207 10-1.664 15.707v.043c.332 3.414 1.04 7.125 2.207 11.375.918 3.457 1.207 6.875 1.082 10.164-.789 8.461-5.914 14.836-12.125 18.375a29 29 0 0 1-3.625 1.75h2.418c5.168-.039 12.543-1.039 18.793-7.664 2.164-2.293 3.875-4.668 4.957-6.918.457-.957 2.293-4.25 3.375-10.875.125-.875.625-3.707.625-3.707s.293 2.039.332 3.832c.043 2.457.125 5.582-1.332 10.293.5-.125 2.957-1.918 5.832-5.875a45 45 0 0 0 2.918-4.461c4.168-6.539 7.125-14.289 7-29.039l.082.164c0-1.832-.539-5.5-.625-6.332-.207-2.207-.75-5.332-2.457-9.582-1.875-4.668-3.375-7.961-7.918-12.461-5.375-5.289-11.707-7.5-13.25-7.957-.207-.082-.332-.082-.375-.125-2.875-.793-5.332-.957-7.875-1M33.991 26.207c-1.793.125-3.332 1.168-4.293 2.25-.5.586-.75 1.168-.832 1.668-.082.875.543 1.293 1.293 1.043.54-.168.914-.543 1.5-1.375.332-.5.54-1.168 1.082-1.461.875-.539 2.332-.664 4.75-.625 1.832.043 3.332.125 3.707.168.668 0 .543-.418.25-.5l-.039-.043s-5.625-1.25-7.418-1.125m1.051 3.783a5 5 0 0 0-.469.01c-1.664.168-2.539 1.207-2.75 1.418-.164.207-.457.457-.539.914-.086.586.29 1.043.625 1.586.164.289.332.5.414.707.086.332 0 .457-.25.625-.289.207-.125.625.461.457.664-.164 1.04-.375 1.54-.789.71-.586.71-1 1.21-1.5s2.082-.5 2.875-.375c.957.125 1.164-.086.164-.71l-.039.042c-1-.582-2.375-.582-2.625-.625s-.336-.332.082-.5c.543-.25 1.582-.043 1.625-.207 0-.168-.207-.543-1-.836-.313-.123-.835-.203-1.324-.217" style="fill:#413691;fill-opacity:1" transform="translate(2.078 10.48)scale(.83678)"/><path fill="#ef3138" d="M57.473 31.923c0 .245.071.313.28.14.942-.768 2.51-1.918 4.636-2.3 2.546-.455 4.01-1.71 4.674-3.106.382-.837.732-2.37 1.95-3.275.383-.281 0-.386-.349-.35-.314.069-1.987.523-3.102 1.71-.732-.769-.663-1.85-.559-2.478.036-.173-.104-.314-.346-.105-.837.664-1.396 1.57-1.57 2.197 0 0-.663-.487-.313-1.674.069-.21-.072-.137-.14-.068-1.187.872-1.082 2.196-1.115 2.37 0 0-1.222-.66-3.07-.942-.313-1.22-2.3-1.57-2.614-.278-.278 1.15 1.605 2.023 2.441 1.082 0 0 2.615.278 4.95 2.615.244.242.313.418.176.556-.105.104-.455-.105-.837-.383-.454-.314-3.628-2.37-6.38-.977-.141.072-.141.176 0 .209.522.14 1.673.559 1.95 1.291-.731.173-1.918.628-2.755 2.37-.209.454.072.523.314.314.281-.21 1.987-1.15 2.651-1.079 0 0-.592.837-.8 2.16M79.3 18.885c-.104.87.174 3.347.837 5.648.696 2.439-.559 4.567-2.72 5.822-.699-1.046-2.058-1.605-3.278-1.638-.732 0-.523.278-.173.419 5.09 2.124 3.275 8.054 2.615 9.309-.664 1.287-.523 2.961-.523 2.961-1.57-.451-3.033-.137-4.289.036-2.51.382-4.183-.036-5.51-.664-1.047-.487-2.684-1.569-2.93-3.624-.032-.383-.277-.628-.45.068-.246 1.187-.072 2.651.764 3.592-.94 4.603-10.005 4.289-10.005 4.289-.591-1.987-4.707-2.615-5.648-5.508-.454-1.36-.069-2.824-.069-2.824 2.37.556 3.73-.559 4.498-1.536.452-.556.105-.592-.245-.383-2.998 1.883-5.789 0-6.38-2.683-.769-2.929-3.626-3.906-3.626-3.906 2.092-1.324 1.498-3.557 2.58-5.475 2.86-5.054 6.903-3.52 6.903-3.52.382 1.186 1.569 2.055 2.755 2.405.696.21.592-.14.278-.35-2.893-2.056-2.16-5.367.105-6.903 4.01-2.684 4.67-3.834 4.67-3.834.733.559 2.652 1.01 4.675 1.219 4.53.418 5.612 2.756 5.682 3.66-.524.282-1.465 1.119-1.883 2.479-.21.696.14.591.349.277 1.778-2.405 3.938-1.95 5.998-1.01 1.288.592 3.171 2.092 5.02 1.707"/></svg>