<svg xmlns="http://www.w3.org/2000/svg" viewBox="0 0 100 100"><path fill="#702B91" d="M0 0h100v100H0z"/><path fill="#21b9da" d="m75.644 56.921 7.5 9.369L90 60.55l-7.497-9.366zm0 0" style="stroke-width:.8"/><path fill="#fff" d="M27.166 41.334c-3.076-2.24-7.416-6.375-9.225-8.234L10 42.128c4.256 5.384 12.006 10.4 14.718 11.872-.036-4.653 1.038-9.104 2.444-12.666m46.3 17.331s-9.16 8.516-18.565 8.516c-11.112 0-14.266-7.913-14.807-9.497-3.2-9.312 5.244-20.268 10.86-23.234 2.29-1.216 5.532-2.434 7.981-1.132.082.044 1.053.622-.475 3.378-.978 1.763-5.984 8.485-14.509 9.848-2.834 6.05-1.45 10.112-.3 12.065 6.122-.45 11.919-2.791 17.256-6.978l.125-.1c4.704-3.912 12.225-11.825 9.784-20.879-1.364-5.052-5.564-8.636-11.23-9.59-7.21-1.21-17.937 1.888-26.312 14.288-5.072 6.756-13.079 30.134 9.362 41.34 20.175 8.816 38.213-8.606 38.213-8.606zm0 0" style="stroke-width:.8"/></svg>