<svg xmlns="http://www.w3.org/2000/svg" viewBox="0 0 100 100"><path fill="#005e80" d="M0 0h100v100H0z"/><path fill="#d99e09" d="M50 69.456c-.695.4-5.689 4.634-15.623 4.634-8.368 0-17.312-4.288-20.116-4.2a5.36 5.36 0 0 0-2.4.432c-1.172.484-2.315-.232-1.678-1.432a16.06 16.06 0 0 1 9.475-7.796c2.584-.781 4.944-1.04 6.16.316 2.694 2.984 7.552 6.672 12.278 7.152.381.038 2.1.184 2.116-.3.018-.3-.566-.493-1.16-.53-4.822-.354-13.522-5.52-18.3-15.516-1.794-3.754-3.216-7.394-6.344-8.976-.69-.334-.712-1.612.744-1.958 1.013-.241 7.434-.864 14.778 3.005 3.366 1.772 3.84 3.366 3.853 4.754-.031 10.477 5.269 14.64 7.32 15.865 1.143.684 2.212.978 2.324.616.09-.3-.21-.5-.469-.66-6.359-3.859-8.037-9.796-8.088-15.844-.05-5.977 2.17-11.152 3.739-15.387.234-.6.974-3.131.34-5.469-.466-1.744-.088-2.253.834-2.253 1.006 0 2.344 1.635 2.8 2.19.36.42 1.532 1.848 3.3 5.345 3.5 6.925 3.526 14.16 3.526 15.046 0 4.972-1.282 5.548-3.366 6.579-2.091 1.034-3.085 2.362-3.088 3.9 0 1.584 1.1 3.234 3.082 3.813 1.54.45 2.512.277 2.43-.12-.065-.315-.746-.393-.946-.45-2.084-.565-3.472-1.631-3.472-3.243 0-2.007 2.472-3.475 5.95-3.475 3.482 0 5.95 1.468 5.95 3.475 0 1.61-1.388 2.681-3.472 3.247-.2.053-.878.134-.944.446-.084.4.894.57 2.432.12 1.978-.579 3.081-2.226 3.078-3.813 0-1.538-.994-2.866-3.082-3.9-2.084-1.032-3.372-1.607-3.372-6.575 0-.888.026-8.125 3.526-15.047 1.771-3.5 2.944-4.928 3.3-5.347.456-.56 1.8-2.19 2.8-2.19.925 0 1.303.508.834 2.252-.634 2.338.11 4.87.34 5.47 1.566 4.237 3.792 9.412 3.741 15.39-.05 6.047-1.734 11.984-8.084 15.84-.265.156-.565.37-.475.66.115.362 1.18.072 2.322-.612 2.053-1.228 7.353-5.392 7.322-15.866.016-1.394.484-2.984 3.856-4.757 7.344-3.865 13.766-3.243 14.778-3 1.456.341 1.434 1.623.744 1.954-3.128 1.587-4.55 5.225-6.341 8.977-4.784 10-13.484 15.17-18.3 15.513-.6.038-1.184.235-1.166.531.02.485 1.732.341 2.12.3 4.721-.48 9.58-4.165 12.272-7.152 1.224-1.357 3.58-1.097 6.165-.316a16 16 0 0 1 9.472 7.8c.64 1.2-.5 1.912-1.672 1.424a5.3 5.3 0 0 0-2.4-.43c-2.806-.085-11.75 4.202-20.125 4.2-9.932 0-14.922-4.235-15.619-4.632" style="stroke-width:.800003"/></svg>