<svg xmlns="http://www.w3.org/2000/svg" viewBox="0 0 100 100"><path fill="#12470D" d="M0 0h100v100H0z"/><path fill="#fff" d="M38.487 36.639c4.898-.767 11.52-.985 12.768-1.002 10.806.098 23.366.988 36.245 3.723-1.618-.038-3.23-.228-4.844-.275a96 96 0 0 0-20.948 1.26c-.96.155-1.892.448-2.827.703-2.63.759-5.256 1.605-7.702 2.85-1.204.642-2.417 1.363-3.255 2.459-.252.357-.563.781-.419 1.239.205.507.753.735 1.228.92 1.503.528 3.105.656 4.681.806 4.978.495 9.95 1.019 14.915 1.61 3.443.431 6.895.836 10.305 1.5.756.182 1.565.273 2.23.713-1.741.308-3.513.436-5.266.648-7.928.84-15.882 1.42-23.833 1.94-.768.081-1.576.187-2.239.611-.462.29-.735.912-.504 1.43.22.478.678.794 1.125 1.04 1.122.598 2.37.905 3.604 1.187 2.613.562 5.27.876 7.928 1.134q5.285.47 10.586.685c-.353.381-.868.524-1.345.683-1.424.416-2.901.618-4.365.817-4.111.512-8.245.776-12.38 1.005a93 93 0 0 1-9.022-.153c-2.122-.172-4.252-.412-6.282-1.075-.938-.322-1.899-.744-2.59-1.488a2.35 2.35 0 0 1-.612-1.866c.117-.961.65-1.808 1.227-2.558.621-.78 1.541-1.222 2.438-1.609-6.997-.234-13.999-.436-20.971-1.084a38 38 0 0 1-4.313-.612c-.558-.14-1.188-.252-1.55-.741.639-.554 1.483-.732 2.276-.938 1.843-.43 3.718-.709 5.588-.98 4.11-.581 8.244-1.006 12.375-1.44-2.189-.878-4.4-1.743-6.402-3.006-.905-.585-1.81-1.248-2.405-2.17a2.12 2.12 0 0 1-.19-2.08c.386-.815 1.127-1.369 1.866-1.84 1.462-.89 3.076-1.486 4.703-2.019a76 76 0 0 1 8.176-2.03" style="stroke-width:.750023"/></svg>