<svg xmlns="http://www.w3.org/2000/svg" viewBox="0 0 100 100"><path fill="#3DAF29" d="M0 0h100v100H0z"/><path fill="#fff" d="M59.875 17.5c3.26-.003 6.206.213 8.829.645 2.6.414 4.83 1.196 6.63 2.308a11.23 11.23 0 0 1 4.204 4.646q1.452 2.98 1.453 7.605c0 1.823-.262 3.598-.813 5.337a15.2 15.2 0 0 1-2.41 4.647 14.6 14.6 0 0 1-3.829 3.41q-2.236 1.367-5.141 1.734v.175c3.085.84 5.461 2.473 7.132 4.87q2.515 3.592 2.511 8.323c0 3.524-.693 6.622-2.059 9.293a19.24 19.24 0 0 1-5.502 6.637 24.6 24.6 0 0 1-7.904 4.006q-4.47 1.364-9.39 1.364H19.01l13.56-65Zm-6.92 53.879c3.292 0 5.973-.873 8.07-2.623 2.078-1.762 3.114-4.37 3.116-7.828 0-1.708-.335-3.039-1.044-4.009a6.86 6.86 0 0 0-2.673-2.234 10.9 10.9 0 0 0-3.626-.947 46 46 0 0 0-3.928-.178H38.86l-3.83 17.82zm4.12-27.56q3.906.001 6.777-2.14 2.86-2.138 2.856-6.418c0-2.544-.67-4.288-2.04-5.238-1.362-.92-3.198-1.404-5.498-1.404H44.058l-3.187 15.2zm0 0" style="stroke-width:.65"/></svg>