<svg xmlns="http://www.w3.org/2000/svg" viewBox="0 0 100 100"><path fill="#001B71" d="M0 0h100v100H0z"/><path fill="#fff" d="M28.192 77.889q-3.152.394-6.308.337c-3.229-.039-5.256-.449-6.794-1.05-1.313-.524-2.479-1.953-2.063-3.04.375-.827.975-1.541 1.802-1.993 3.791-2.437 10.624-3.715 18.167-4.2-.673 1.462-4.804 9.946-4.804 9.946M68.36 58.183c-5.481 6.455-10.89 6.906-21.55 5.93-27.996-2.478-33.405 5.253-34.31 6.232.188-.715.413-1.427.75-2.066 1.766-4.016 3.905-8.484 6.308-13.813 1.35-2.78 2.1-2.892 3.342-3.794 5.066-3.34 13.213-6.454 24.062-5.517 7.995.713 11.484 2.327 16.403 2.593 2.095.15 4.201.032 6.27-.343 5.255-1.125 6.606-2.701 6.606-2.701s-3.753 8.187-7.881 13.474m6.42-16.927c-1.73 1.014-3.982 1.992-8.335 2.14-4.808.15-7.735-.901-13.026-1.765-7.248-1.16-14.265-1.611-21.85.787a28.1 28.1 0 0 0-8.935 4.733s5.595-12.575 7.06-15.803c2.403-4.92 10.398-8.447 20.907-8.335 9.462.114 13.702 2.554 21.475 2.666 11.598-.04 15.424-3.907 15.424-3.907-.673 1.427-4.204 8.822-5.857 11.974-2.739 4.28-4.693 6.235-6.867 7.509" style="stroke-width:.75"/></svg>