<svg xmlns="http://www.w3.org/2000/svg" viewBox="0 0 100 100"><path fill="#001B94" d="M0 0h100v100H0z"/><path fill="#fff" d="M72.08 39.29a2.854 2.854 0 0 1-2.846 2.857 2.86 2.86 0 0 1-2.86-2.858 2.855 2.855 0 1 1 5.709 0zm-8.548-8.576a2.85 2.85 0 0 1-2.849 2.858 2.856 2.856 0 0 1-2.849-2.858 2.854 2.854 0 0 1 2.85-2.854 2.85 2.85 0 0 1 2.848 2.857zm8.548 0a2.85 2.85 0 0 1-2.846 2.858 2.856 2.856 0 1 1 0-5.712 2.856 2.856 0 0 1 2.849 2.857zm-17.093 0a2.853 2.853 0 1 1-5.706.003 2.86 2.86 0 0 1 2.857-2.857 2.85 2.85 0 0 1 2.846 2.857zm21.957-9.157a2.86 2.86 0 0 1 0 4.039 2.846 2.846 0 0 1-4.03 0 2.853 2.853 0 0 1 0-4.042 2.84 2.84 0 0 1 2.016-.84c.753 0 1.48.305 2.014.84zm7.123-5.72a2.858 2.858 0 0 1-2.015 4.879 2.84 2.84 0 0 1-2.015-.838 2.853 2.853 0 0 1 0-4.041A2.84 2.84 0 0 1 82.053 15c.754 0 1.478.301 2.014.837M45.012 30.712a2.85 2.85 0 0 1-2.846 2.857 2.856 2.856 0 0 1-2.849-2.858 2.85 2.85 0 0 1 1.386-2.575 2.86 2.86 0 0 1 2.928 0 2.86 2.86 0 0 1 1.384 2.578zm-8.545 0a2.85 2.85 0 0 1-2.849 2.857 2.856 2.856 0 1 1 0-5.712 2.85 2.85 0 0 1 2.85 2.857zm32.767 14.29a2.853 2.853 0 0 1 2.854 2.855 2.856 2.856 0 0 1-2.854 2.857 2.86 2.86 0 0 1-2.86-2.857 2.86 2.86 0 0 1 2.86-2.858zM37.889 73.57a2.85 2.85 0 0 1-2.849 2.858 2.856 2.856 0 0 1-2.847-2.858 2.854 2.854 0 0 1 2.847-2.857 2.855 2.855 0 0 1 2.849 2.86zm-8.545-8.569a2.855 2.855 0 1 1-5.71 0 2.86 2.86 0 0 1 2.861-2.86 2.857 2.857 0 0 1 2.85 2.86m8.544 0a2.854 2.854 0 0 1-2.849 2.857 2.856 2.856 0 0 1-2.847-2.857 2.856 2.856 0 0 1 2.847-2.86A2.857 2.857 0 0 1 37.889 65m-17.09 0a2.86 2.86 0 0 1-1.386 2.576 2.86 2.86 0 0 1-2.929 0A2.86 2.86 0 0 1 15.098 65a2.856 2.856 0 0 1 2.847-2.86A2.857 2.857 0 0 1 20.794 65zm14.242 14.284a2.858 2.858 0 0 1 0 5.715 2.856 2.856 0 0 1-2.847-2.857 2.856 2.856 0 0 1 2.847-2.86zM69.234 53.57a2.858 2.858 0 0 1 0 5.715 2.86 2.86 0 0 1-2.86-2.857 2.86 2.86 0 0 1 2.86-2.858m0 10.003a2.859 2.859 0 1 1-.002 5.717 2.859 2.859 0 0 1 .002-5.717M50.711 52.14a2.85 2.85 0 0 1-1.386 2.578 2.86 2.86 0 0 1-2.926 0 2.86 2.86 0 0 1-1.387-2.578 2.854 2.854 0 0 1 2.85-2.854 2.85 2.85 0 0 1 2.848 2.857zm4.864-9.163a2.858 2.858 0 0 1-2.016 4.879 2.85 2.85 0 0 1-2.014-.838 2.863 2.863 0 0 1 0-4.04 2.85 2.85 0 0 1 2.015-.837c.757 0 1.482.3 2.015.836m7.123-5.715a2.853 2.853 0 0 1 0 4.04 2.846 2.846 0 0 1-4.03 0 2.86 2.86 0 0 1 0-4.038 2.846 2.846 0 0 1 4.03 0zm-18.52 18.572a2.863 2.863 0 0 1 0 4.044 2.85 2.85 0 0 1-4.027 0 2.863 2.863 0 0 1 0-4.044 2.85 2.85 0 0 1 4.028 0" style="stroke-width:.7"/></svg>