<svg xmlns="http://www.w3.org/2000/svg" viewBox="0 0 100 100"><path fill="#A29490" d="M0 0h100v100H0z"/><path fill="#0054a4" d="M40.563 41.221c-5.058-.128-8.61.415-8.61.415l-9.334 3.84c22.036-2.634 26.127 3.966 26.127 3.959l9.471-4.602c-6.028-2.684-12.595-3.484-17.654-3.612m-11.376 5.78c-6.028-.174-11.448.477-11.448.477L7.191 51.73c22.033-2.633 27.491 4.555 27.491 4.555l9.612-4.802c-2.44-3.304-9.078-4.306-15.107-4.48"/><path fill="#ef3e33" d="M52.906 53.846s14.358 1.365 30.86-.926l-5.884 4.047s-17.511 2.728-34.45 1.528zm13.64-6.73s9.751 2.26 26.259-.023l-5.88 3.827s-12.772 1.966-29.711.762zm0 0"/></svg>