<svg xmlns="http://www.w3.org/2000/svg" viewBox="0 0 100 100"><path fill="#0171CF" d="M0 0h100v100H0z"/><path fill="#fff" d="M16.51 54.888V40.4l-3.232.666A4.016 4.016 0 0 0 10 45.1v14.5l3.235-.666A4.01 4.01 0 0 0 16.51 54.9m39.694-11.018a4.67 4.67 0 0 1-3.753 1.85H41.04V59.6h-6.513V45.718H18.644V40.4h40.034zm24.578 13.865L68.707 41.22 55.253 59.6H47.41L60.1 42.266a4.78 4.78 0 0 1 3.756-1.853h12.076L90 59.6h-5.465a4.74 4.74 0 0 1-3.753-1.853" style="stroke-width:.8"/><path fill="#c2251b" d="m61.863 54.266-3.9 5.334h7.847l5.246-7.172h-5.44a4.76 4.76 0 0 0-3.756 1.854" style="stroke-width:.8"/></svg>