<svg xmlns="http://www.w3.org/2000/svg" viewBox="0 0 100 100"><path fill="#174191" d="M0 0h100v100H0z"/><path fill="#e21b37" d="M61.108 31.705S36.41 29.973 36.583 49.307c.352 21.32 41.594 21.795 53.367 15.538-8.742 2.652-39.151 3.58-43.657-14.862-3.846-16.2 14.783-18.277 14.783-18.277" style="stroke-width:.798993"/><path fill="#fff" d="M35.09 52.931c-6.167 0-11.164-1.27-11.164-2.852 0-1.59 4.997-2.853 11.165-2.853h.574a20.4 20.4 0 0 1 .952-4.71c-13.418.577-26.567 4.301-26.567 7.643 0 3.346 14.576 7.96 28.412 8.275a16.3 16.3 0 0 1-2.43-5.493h-.942m49.435-3.14H66.083a3.1 3.1 0 0 0-.783-1.411h17.462a.606.606 0 1 0 0-1.196H63.81c-3.14-2.006-9.285-3.638-16.348-4.329-.669 2.142-.471 4.82.093 7.532a12.1 12.1 0 0 0 4.378 7.063c4.623-.85 8.546-2.104 11.084-3.586h17.05a.605.605 0 1 0 0-1.193H64.723a4.3 4.3 0 0 0 1.251-1.632h18.552c.84 0 1.083-1.193 0-1.193" style="stroke-width:.798993"/></svg>