<svg xmlns="http://www.w3.org/2000/svg" viewBox="0 0 100 100"><path fill="#E50012" d="M0 0h100v100H0z"/><path fill="#FFF" d="M49.996 12.5A37.44 37.44 0 0 0 19.84 27.723a29.19 29.19 0 0 0 4.219 24.437c.03.047-.032.106-.063.063-5.953-6.575-7.406-14.676-6.496-20.809.008-.047-.035-.059-.059-.02a37.4 37.4 0 0 0-3.8 9.434c.414 6.07 3.086 11.961 7.566 16.742.043.047-.012.11-.059.075-5.105-4.043-7.476-8.989-8.242-12.637-.008-.043-.062-.043-.062 0a37.3 37.3 0 0 0-.188 8.297c1.29 4.043 4.04 7.422 6.852 9.863.05.047 0 .11-.051.078-3.148-1.957-4.91-3.875-6.105-5.562-.028-.04-.063-.02-.059.015 3.453 16.84 18.55 29.801 36.7 29.801 18.144 0 33.241-12.96 36.702-29.8.012-.036-.03-.055-.05-.02-1.204 1.695-2.965 3.61-6.114 5.562-.05.035-.094-.031-.043-.074 2.817-2.438 5.567-5.828 6.86-9.863l-.008-.008c.246-2.375.18-5.774-.18-8.293-.004-.043-.058-.043-.062 0-.77 3.656-3.133 8.598-8.246 12.633-.047.039-.094-.024-.059-.07 4.477-4.782 7.148-10.68 7.562-16.747a37.5 37.5 0 0 0-3.804-9.433c-.02-.035-.063-.024-.059.02.91 6.132-.543 14.238-6.492 20.804-.043.047-.102-.004-.07-.055a29.22 29.22 0 0 0 4.226-24.441A37.45 37.45 0 0 0 49.996 12.5m.008.922c13.344 0 24.144 10.898 24.144 24.144a24.13 24.13 0 0 1-7.18 17.176l-.011.008c-7.664 7.46-19.125 2.7-17.96-6.46.898-7.071 9.562-14.099 16.12-17.923.031-.015.031-.055 0-.078-.86-.812-2.64-2.664-3.789-4.05-3.176-3.829-8.734-3.985-12.055.206L30.418 28.2c-.07.008-.078.117 0 .117l20.219 1.168c3.582.207 4.75 3.453 1.297 6.075-12.84 9.722-15.13 20.02-12.258 28.18.02.05-.063.093-.098.042a16.6 16.6 0 0 1-2.543-5.851 24.14 24.14 0 0 1-11.168-20.367c0-13.247 10.793-24.145 24.137-24.145Zm-8.992 53.242h5.11l-2.735 7.129c-1.403 3.648-4.856 3.953-7.309 3.953v.008c-1.375 0-2.566-.137-3.555-.363l.872-2.278c2.343.27 4.343.07 5.132-1.976Zm12.078.012h4.57l1.028 10.722h-5.106l-.086-2.109H48.88l-1.703 2.11h-4.219l8.563-9.93c.406-.469 1.015-.793 1.57-.793m11.094 0H69.3l-3.258 8.449h6.5l-.867 2.273h-11.61ZM53.293 69.8l-2.754 3.426h2.887Zm0 0"/></svg>