<svg xmlns="http://www.w3.org/2000/svg" viewBox="0 0 100 100"><path fill="#003876" d="M0 0h100v100H0z"/><path fill="#fff" d="M29.998 36.967h6.849v36.699c-.003 5.704-4.17 9.534-9.945 9.534h-2.676v-6.445h1.94c2.351 0 3.832-1.08 3.832-3.63zm0-13.767h6.849v6.85h-6.849zm30.74 26.592c5.373 0 7.785 3.424 7.785 7.184 0 3.762-2.412 7.184-7.784 7.184h-11.15V49.792ZM42.337 71.01h20.147c7.183 0 13.291-5.306 13.291-13.563 0-4.835-2.55-9.802-7.784-11.013V46.3c5.572-2.484 7.05-6.312 7.05-10.275 0-7.521-4.84-12.825-14.17-12.825H42.336Zm17.726-41.36c5.24 0 7.725 3.155 7.725 6.85 0 3.758-2.485 6.85-7.725 6.85H49.59v-13.7Zm0 0" style="stroke-width:.6"/></svg>