<svg xmlns="http://www.w3.org/2000/svg" viewBox="0 0 100 100"><path fill="#F15A22" d="M0 0h100v100H0z"/><path fill="#00a7e1" d="m16.848 61.62-3.531 8.922c7.852.831 14.52-.08 14.52-.08 4.638-.436 12.45-1.943 16.655-12.057l11.738-29.35H42.787L32.515 54.44s-1.628 5.513-7.5 6.98c-2.02.554-5.87.316-8.167.199M70.31 59.04s-1.587 4.881-8.405 4.881c-1.034 0-2.462-.596-2.224-2.46.238-2.062 1.59-2.857 3.293-3.212l8.21-1.548zm-9.078-6.74c-7.658.831-13.805 4.321-14.596 10.867-.398 3.25 1.19 7.735 9.793 7.735 0 0 6.465.235 10.475-2.502l-.954 2.54h11.78l8.087-22.134.439-1.146c1.11-3.018 1.069-9.678-13.129-9.997-5.99-.12-15.785 1.03-21.577 11.146h11.74s1.668-4.321 7.061-4.321c0 0 3.37-.161 3.649 2.06 0 0 .398 3.252-4.56 4.48-2.894.673-8.21 1.272-8.21 1.272" style="stroke-width:.733661"/></svg>