<svg xmlns="http://www.w3.org/2000/svg" viewBox="0 0 100 100"><path fill="#034EA1" d="M0 0h100v100H0z"/><path fill="#FFF" d="m37.191 29.75-8.943 43.12q-.24.841-.399 1.7a11 11 0 0 1-.604 2.036q-.4 1.005-1.002 1.7a2 2 0 0 1-1.598.701 47 47 0 0 1-3.401-.13l-1.606 7.607a47 47 0 0 1 2.304.2q1.168.13 2.301.133 3.204 0 5.34-.67a9.4 9.4 0 0 0 3.604-2.001q1.47-1.337 2.338-3.401.864-2.067 1.467-4.808l9.678-46.184zm19.45.003-2.13 10.479h-6.078l-1.467 6.34h6.206l-3.87 18.488a41 41 0 0 0-.334 1.768 10 10 0 0 0-.13 1.501q-.069 2.137.697 3.472a5.7 5.7 0 0 0 2.07 2.105 8.8 8.8 0 0 0 2.937 1.063q1.633.304 3.304.304a45 45 0 0 0 3.002-.1q1.47-.1 2.937-.236l1.6-7.274q-1.67.2-3.4.2-.534 0-1.105-.032a2.4 2.4 0 0 1-1.031-.302 2.1 2.1 0 0 1-.77-.766q-.299-.5-.299-1.433a9 9 0 0 1 .265-1.606l3.538-17.155h6.742l1.47-6.34-6.808.006 2.133-10.482z"/><path fill="#ffa000" d="M83.221 20.312s-35.66 6.4-39.2 6.4a6.41 6.41 0 0 1-6.212-6.406 6.41 6.41 0 0 1 6.212-6.409c3.54 0 39.2 6.412 39.2 6.412"/></svg>