<svg xmlns="http://www.w3.org/2000/svg" viewBox="0 0 100 100"><path fill="#1C2A5B" d="M0 0h100v100H0z"/><path fill="#fff" d="M12.316 35.367C19.767 39.645 39.21 55.213 59.9 61.543c.992.315 1.985.592 2.947.833 8.117 2.147 16.493 2.903 24.836 2.2C57.52 59.08 47.977 49.808 46.608 47.788a4 4 0 0 1-.22-.35c-.089-.035 4.881-5.258 14.488-5.126 11.991.165 20.11 4.107 20.11 4.107a50.3 50.3 0 0 0-12.059-5.646 46 46 0 0 0-5.79-1.499 35 35 0 0 0-3.7-.574c-6.198-.704-10.824.76-14.677 2.223-3.613 1.368-8.274 3.941-14.456 1.071-2.658-1.236-4.507-1.646-7.557-1.274-4.811-2.168-8.444-4.702-10.258-5.556zm0 0" style="stroke-width:.75369"/></svg>