<svg xmlns="http://www.w3.org/2000/svg" viewBox="0 0 100 100"><path fill="#57BBEB" d="M0 0h100v100H0z"/><path fill="#051766" d="m19.418 68.414-.3.203C25.23 79.887 36.8 87.5 50 87.5c19.633 0 35.531-16.8 35.531-37.5 0-5.7-2.363-10.5-5.156-14.137-3.71-4.84-9-7.164-14.27-7.199-4.347-.039-8.847 1.422-12.02 4.293-3.616 3.281-4.42 7.5-5.358 14.344-1.032 7.5-7.07 12.676-14.832 12.676-10.051 0-16.278-6.188-15.864-15.657.04-.656.094-1.312.207-1.949 1.895-11.176 13.91-22.707 31.989-22.672 12.128 0 21.242 2.719 30.355 11.887l.3-.203C74.77 20.113 63.22 12.5 50 12.5c-19.613 0-35.531 16.8-35.531 37.5 0 5.7 2.363 10.5 5.156 14.137 3.695 4.84 9 7.144 14.27 7.199 4.347.059 8.847-1.426 12.02-4.293 3.616-3.281 4.42-7.5 5.358-14.344 1.032-7.5 7.09-12.676 14.832-12.676 10.07 0 16.293 6.188 15.883 15.657a17 17 0 0 1-.207 1.953c-1.93 11.172-13.894 22.703-32.008 22.668-12.128 0-21.242-2.719-30.355-11.887"/></svg>