<svg xmlns="http://www.w3.org/2000/svg" viewBox="0 0 100 100"><path fill="#5F3781" d="M0 0h100v100H0z"/><path fill="#ce992b" d="M54.06 74.709c4.51-.427 9.04-.228 13.573-.128-9.94 1.027-20.336 1.492-29.406 6.186a14.9 14.9 0 0 0-6.886 7.096c-3.614-1.015-7.17-2.194-10.746-3.328 9.732-6.83 21.833-9.01 33.463-9.826M68.9 67.45c2.426-4.07 5.49-7.762 8.36-11.533.429 6.22-2.264 12.17-5.787 17.133-.952-1.816-1.961-3.638-2.573-5.6m.462-7.732c1.695-2.213 3.12-4.641 5.025-6.688-1.07 4.623-3.647 8.786-6.77 12.3-1.414-2.172.561-3.953 1.744-5.609m-4.818-1.266c2.186-2.923 4.127-6.035 6.508-8.8-.293 4.306-2.589 8.06-5.032 11.483zm9.892-8.543c.171-.979 1.076-1.595 1.61-2.372.23 2.035.499 4.055.738 6.084-.881-1.156-2.088-2.224-2.348-3.712m-11.463 4.09c1.653-2.472 3.325-4.954 5.366-7.125-.437 3.647-2.34 6.913-4.902 9.469a16 16 0 0 1-.464-2.343m-2.322-4.135c1.467-2.062 2.858-4.192 4.596-6.053.037 3.121-1.395 5.943-3.291 8.321q-.666-1.128-1.304-2.265m9.465-5.301 1.615-1.515c.074 1.95.27 3.9.437 5.845-.925-1.257-2.62-2.57-2.055-4.33m-11.478.653c1.178-1.564 2.337-3.144 3.704-4.549.154 2.689-1.041 5.1-2.638 7.164-.361-.87-.713-1.742-1.066-2.617m13.904-3.106c-.692-1.267.837-2.041 1.488-2.908.257 1.982.487 3.966.757 5.949-.79-.98-1.736-1.873-2.242-3.041m-6.854-1.64c.44-.75 1.02-1.405 1.58-2.07q.435 2.925.768 5.854c-.979-1.115-2.05-2.272-2.348-3.78m-9.33-.074a87 87 0 0 1 2.112-3.487c.867 2.182.409 4.481-.736 6.463a177 177 0 0 1-1.376-2.976m12.397-2.1c-.417-1.187.974-1.878 1.577-2.666.106 1.935.31 3.872.473 5.816-.752-.997-1.68-1.931-2.053-3.153m-7.755-1.486c-.379-1.221.946-1.967 1.532-2.863a472 472 0 0 0 .673 6.02c-.789-1.003-1.694-1.956-2.205-3.157m3.22-3.11c.332-.822 1.098-1.342 1.651-1.99q.288 2.937.616 5.875c-.894-1.169-2.379-2.248-2.267-3.881m-11.228-1.42a19 19 0 0 1 1.618-1.97c.227 1.94.456 3.877.618 5.821-.905-1.171-1.962-2.334-2.236-3.848m3.452-1.325a15 15 0 0 1 1.778-2.015c.112 1.947.301 3.893.44 5.84-.943-1.133-2.097-2.266-2.218-3.824m3.162-1.336c.2-.91 1.044-1.482 1.577-2.197q.403 2.941.754 5.887c-.931-1.107-2.141-2.172-2.334-3.69m-22.416 6.012c.734-3.266 2.6-6.091 3.875-9.147 1.825.01 3.653.01 5.487.033 1.269 3.07 2.967 5.954 4.032 9.114a108 108 0 0 0-1.426 2.703c1.482.467 2.98.897 4.44 1.42-.656 1.314-1.358 2.6-2.035 3.902q2.045.847 4.067 1.748c-.496 1.4-.86 2.952-1.996 3.988-3.038.526-6.17.141-9.224.644 4.925.72 9.875 1.337 14.776 2.163.82 1.961 1.654 3.91 2.47 5.872-6.61.046-13.246-.007-19.828.73 7.174.246 14.326 1.062 21.302 2.778 1.579 3.786 3.22 7.548 4.74 11.359-12.713-.252-25.716.39-37.895 4.398-4.008 1.263-7.617 3.431-11.116 5.712-2.124-.473-1.704-3.073-1.372-4.682.92-3.222 2.327-6.275 3.428-9.44.656 1.411 1.18 3.05 2.827 3.547.255-2.65-2.886-4.283-2.21-6.93 1.273-3.331 3.054-6.431 4.382-9.736.609 1.37 1.251 2.746 2.248 3.89.337-1.077 1.357-2.253.482-3.333-.934-1.47-1.337-3.538.006-4.91 1.784-1.276 4.077-1.459 6.108-2.178-.943-1.287-2.031-2.455-3.061-3.66 1.405-.721 2.848-1.362 4.307-1.978-.701-1.313-1.387-2.618-1.997-3.967 1.409-.446 2.828-.834 4.242-1.254-.361-.929-.79-1.825-1.06-2.786M56.5 24.789c0-1.1 1.153-1.698 1.736-2.488.13 1.967.302 3.93.412 5.901-.826-1.047-1.852-2.05-2.148-3.417m-.006-12.648c3.863 8.957 10.013 16.991 17.994 22.632 5.467 3.742 8.915 10.442 8.218 17.107-.228 3.132-1.426 6.055-2.633 8.915 1.014-4.07 2.301-8.333 1.23-12.527-.805-4.491-3.47-8.454-7.022-11.244-6.878-5.508-12.894-12.187-17.137-19.952-1.685 4.635-3.312 9.285-5.093 13.885-.716-1.54-1.402-3.094-2.112-4.638 3.375-4.056 5.754-8.933 6.555-14.178" style="stroke-width:.757261"/></svg>