<svg xmlns="http://www.w3.org/2000/svg" viewBox="0 0 100 100"><path fill="#009FD9" d="M0 0h100v100H0z"/><path fill="#FFF" d="M47.605 43.297h4.852v-4.848h4.797v-4.851h-4.797v-4.864h-4.852v4.864h-4.851v4.84h4.851Zm31.434-1.234a8.48 8.48 0 0 0-6.008 2.496 8.45 8.45 0 0 0-2.46 6.02 8.47 8.47 0 0 0 8.469 8.512c4.683-.025 8.468-3.83 8.46-8.513a8.5 8.5 0 0 0-2.46-6.02 8.47 8.47 0 0 0-6-2.495M20.964 71.266h58.074v-9.75H20.965Zm8.476-20.688a8.5 8.5 0 0 0-8.468-8.516 8.47 8.47 0 0 0-8.47 8.516c-.32 11.602 17.255 11.602 16.935 0m21.78 0c-.007 4.684 3.778 8.488 8.462 8.512a8.505 8.505 0 0 0 8.468-8.512 8.473 8.473 0 0 0-8.468-8.516 8.5 8.5 0 0 0-8.461 8.516M40.324 59.09c4.688-.02 8.477-3.828 8.469-8.512a8.493 8.493 0 0 0-8.469-8.516c-2.25 0-4.41.899-6 2.497a8.5 8.5 0 0 0-2.46 6.02 8.47 8.47 0 0 0 2.46 6.01 8.5 8.5 0 0 0 6 2.5"/></svg>