<svg xmlns="http://www.w3.org/2000/svg" viewBox="0 0 100 100"><path fill="#00BBB4" d="M0 0h100v100H0z"/><path fill="#FFF" d="M63.424 11.757c-.535 0-1.072-.04-1.607-.079-.91-.041-1.943-.126-3.06-.126-17.065.042-27.558 10.66-28.425 28.593-.043.288-.043.577-.043.865v40.947a6.47 6.47 0 0 0 6.489 6.491 6.48 6.48 0 0 0 4.589-1.895 6.48 6.48 0 0 0 1.895-4.59V42.626c0-16.196 8.886-18.059 15.539-18.059.7 0 1.484.042 2.27.085.662.038 1.323.08 1.986.08a6.47 6.47 0 0 0 6.65-6.277 6.477 6.477 0 0 0-6.28-6.698m-9.792 29.337a6.5 6.5 0 0 0-6.485 6.488 6.47 6.47 0 0 0 6.485 6.488 6.5 6.5 0 0 0 4.592-1.895 6.5 6.5 0 0 0 1.896-4.593 6.5 6.5 0 0 0-1.899-4.593 6.46 6.46 0 0 0-4.589-1.892"/></svg>