<svg xmlns="http://www.w3.org/2000/svg" viewBox="0 0 100 100"><path fill="#00F" d="M0 0h100v100H0z"/><path d="M17.774 67.214c-.426.222-.814.604-1.222 1.215-.191.283-.45.579-.58.65-.25.131-.707.131-3.264-.024-.958-.056-1.056-.015-.698.287.32.268 1.286.552 3.187.951.966.207 2.745.621 3.956.932 2.867.724 3.345.829 5.248 1.178.88.164 2.197.433 2.928.611.73.174 2.357.523 3.613.777 2.814.57 4.768 1.008 6.078 1.384 1.164.325 2.214.528 2.739.528.477 0 1.75.197 2.874.45 1.113.251 2.39.415 4.094.53.73.046 1.506.139 1.709.195 1.173.341 2.026.424 6.657.62 1.11.05 2.533.139 3.156.21 2.003.212 8.9.147 15.024-.13 2.404-.114 5.842-.318 6.131-.365.129-.027.967-.084 1.863-.122.898-.051 1.805-.1 2.008-.122a74 74 0 0 1 1.103-.084 7.6 7.6 0 0 0 1.18-.16c.25-.067.578-.123.73-.123.29 0 1.423-.41 1.728-.621.456-.316.227-.604-.481-.604-.314 0-.555.052-.751.165-.329.17-.914.358-2.292.716l-.913.236-1.558-.065c-6.39-.27-7.25-.392-9.706-1.343-2.032-.783-2.822-1.337-5.263-3.724L65.5 69.864l-.313.072c-.176.041-1.423.351-2.77.677-3.398.847-6.519 1.286-12.572 1.79-2.01.164-7.096.263-7.621.14-.222-.048-1.02-.13-1.772-.179-.756-.05-1.606-.146-1.904-.212a20 20 0 0 0-1.597-.197c-3.932-.316-6.254-.715-8.405-1.455-.952-.329-1.566-.475-2.381-.573a3.7 3.7 0 0 1-1.256-.367c-.32-.153-.684-.308-.812-.34-.26-.066-.579-.236-.913-.49a1.5 1.5 0 0 0-.45-.23c-.113-.03-.645-.274-1.179-.543-1.36-.695-1.734-.817-2.67-.856-.678-.033-.845-.018-1.11.113m53.931-8.945c-.175.1-.602.424-.952.734-2.282 2.026-5.871 4.577-6.716 4.774-.25.056-.471.203-1.453.97-.722.56-1.003.698-1.994 1.008a34 34 0 0 0-1.999.719c-.692.269-1.515.552-1.825.626-.633.147-1.027.27-1.257.374a8 8 0 0 1-.722.244c-.31.09-.722.23-.913.302-.191.066-.713.23-1.163.36-.448.129-.874.27-.952.308-.326.188-2.25.62-4.73 1.068-3.362.604-4.281.863-3.902 1.093.48.283 9.51.131 11.851-.204.866-.122 6.534-1.336 7.233-1.539 1.256-.385 5.022-2.307 6.362-3.252 2.41-1.71 4.448-5.15 4.105-6.926-.09-.456-.334-.823-.54-.823-.068 0-.266.074-.433.164m3.28-14.755c-.275.12-.815.82-2.208 2.859-.753 1.092-1.573 2.216-1.826 2.5a15 15 0 0 0-.929 1.181c-1.611 2.325-5.71 6.38-9.697 9.59-1.596 1.295-5.493 3.945-7.143 4.859-.746.414-1.612.942-1.93 1.18-.747.537-1.409.871-2.71 1.376-2.274.87-2.775 1.474-1.232 1.474.814 0 1.566-.16 2.799-.618a59 59 0 0 1 2.434-.814c.8-.253 1.758-.579 2.131-.734a17 17 0 0 1 1.39-.489c.398-.105.86-.269 1.045-.359.182-.09.349-.163.373-.163.021 0 1.232-.651 2.685-1.45 2.632-1.45 3.826-2.152 4.828-2.845.29-.202.754-.47 1.02-.602.275-.138.752-.48 1.08-.782 1.4-1.304 3.231-3.168 3.796-3.87 1.919-2.396 3.766-5.54 4.06-6.901a7 7 0 0 1 .23-.725c.084-.194.123-.391.099-.439q-.047-.076.024-.042c.09.066.304-.635.403-1.37.158-1.237.053-2.354-.275-2.703-.19-.206-.22-.211-.448-.113M72.43 22.395c-.275.325-.36.57-.397 1.164-.021.3-.159.922-.32 1.426-.152.489-.31 1.115-.349 1.385-.113.733-1.208 3.087-2.116 4.555-.104.18-.324.546-.485.815-.777 1.319-2.152 2.99-3.599 4.383a109 109 0 0 1-2.73 2.468c-4.306 3.774-6.687 6.12-7.18 7.065-.137.251-.397.693-.593.97-.435.642-.471.773-.555 2.11-.138 2.085-.534 4.213-1.026 5.49a13 13 0 0 0-.428 1.355 15.2 15.2 0 0 1-1.848 4.594 31 31 0 0 0-1.15 2.167c-.584 1.256-.811 1.572-1.453 2.028-.585.415-1.718 1.68-1.689 1.866.087.456 1.394-.033 2.885-1.066.35-.244.806-.507 1.018-.588a3.5 3.5 0 0 0 .457-.193c.038-.042.25-.132.456-.222.214-.083.693-.4 1.065-.7a12 12 0 0 1 1.444-.979c2.414-1.328 6.436-4.774 9.814-8.408 1.65-1.775 4.335-4.977 5.4-6.446.756-1.04 2.215-3.389 2.656-4.275.944-1.925 2.45-5.95 2.662-7.155.063-.343.197-.89.304-1.197.245-.751.35-1.996.35-4.156 0-3.69-.267-5.457-1.087-7.152-.313-.663-.996-1.525-1.202-1.525-.06 0-.197.1-.304.221" style="fill:#fff;fill-opacity:1;stroke-width:.763848"/></svg>