<svg xmlns="http://www.w3.org/2000/svg" viewBox="0 0 100 100"><path fill="#ED1C24" d="M0 0h100v100H0z"/><path fill="#fff" d="M51.136 14.863c-8.527.088-17.447 3.19-25.007 9.36-16.12 13.17-19.848 35.518-8.385 49.714 10.276 12.722 29.293 14.695 44.72 5.465 11.61 6.498 19.643 2.404 22.895-.934 3.528-3.612 3.544-10.907 3.544-10.907s-7.455 6.024-16.111 3.22c11.65-13.329 13.397-32.142 3.267-44.685-6.094-7.56-15.255-11.333-24.923-11.233m5.708 5.665c7.388.088 14.035 2.806 18.4 8.185 8.51 10.504 5.288 27.581-6.842 39.878C61.369 63.73 51.67 55.14 47.948 51.887c.63-.267 14.415-1.744 21.026-10.911l.093.019c3.872-5.392 1.743-17.908-.702-14.121-2.13 3.289-12.768 10.33-22.152 16.047 0 0 2.285-6.03 4.245-10.904 1.961-4.879-6.865-2.82-11.972-.204-.486.249-4.561 2.787-4.905 4.394 2.149-.37 3.386-.531 3.137 0-.249.53-.317.767-.502 1.19-1.568 3.737-3.665 8.8-5.799 13.834-4.905 13.73-2.443 19.931-2.443 19.931l13.114.545s-3.29-1.402-1.894-8.96c1.399-7.556 3.38-8.538 3.82-8.71.734 2.978 5.131 14.888 15.04 22.471-13.79 7.714-29.4 6.814-37.347-3.023-9.272-11.486-4.604-30.838 10.453-43.214 7.996-6.57 17.311-9.843 25.685-9.743" style="stroke-width:.778055"/></svg>