<svg xmlns="http://www.w3.org/2000/svg" viewBox="0 0 100 100"><path fill="#1C2B4F" d="M0 0h100v100H0z"/><path fill="#a48c5d" d="m76.342 13.71-.015.006L18.321 50l58.004 36.284.014.006a16.69 16.69 0 0 0-6.818-14.76l-.035-.014a10.5 10.5 0 0 0 4.664-3.204c1.557-1.86 2.45-4.295 2.45-6.92 0-2.45-.817-4.718-2.195-6.521a7.14 7.14 0 0 0-5.726-2.88c-3.338 0-6.142 2.301-6.95 5.42a5.8 5.8 0 0 0-.218 1.307l-.017.25v.139c0 1.306 1.04 2.361 2.33 2.361a2.34 2.34 0 0 0 2.242-1.713q.088-.294.092-.6c.025-.448 0-.916.122-1.361a2.085 2.085 0 0 1 1.925-1.483c3.26 0 4.643 6.3.788 9.418-1.202.967-2.813 1.869-5.155 1.869a8.39 8.39 0 0 1-8.42-8.446c0-1.454.369-2.866 1.043-4.087.264-.48.897-1.33.897-1.33-4.089.623-7.42 1.02-10.363-.783A10.2 10.2 0 0 1 43.915 50a10.2 10.2 0 0 1 3.08-2.948c2.943-1.804 6.277-1.407 10.363-.783 0 0-.635-.851-.897-1.333a8.5 8.5 0 0 1-1.043-4.085 8.39 8.39 0 0 1 8.421-8.446c2.339 0 3.952.902 5.151 1.868 3.858 3.116 2.478 9.42-.788 9.42a2.05 2.05 0 0 1-1.922-1.484c-.122-.445-.097-.916-.122-1.36a2.337 2.337 0 0 0-2.33-2.314 2.35 2.35 0 0 0-2.337 2.358v.035l.003.105.017.249c.014.43.094.876.218 1.307a7.196 7.196 0 0 0 6.949 5.42c2.337 0 4.414-1.13 5.727-2.88a10.72 10.72 0 0 0 2.197-6.523c0-2.623-.895-5.058-2.45-6.92a10.5 10.5 0 0 0-4.666-3.202l.035-.014a16.69 16.69 0 0 0 6.82-14.76" style="stroke-width:.725797"/></svg>