<svg xmlns="http://www.w3.org/2000/svg" viewBox="0 0 100 100"><path fill="#DC1F02" d="M0 0h100v100H0z"/><path fill="#fff" fill-rule="evenodd" d="m45.627 14.821-6.288 3.636 8.954 24.958-23.036 2.537 16.402 13.783-25.835 3.43v3.226l23.037-2.677-17.705 10.49 23.718-2.877-15.789 9.463 2.325 2.195L50.753 71.4l7.86 13.575 9.842-13.03 9.023 10.834 6.698-2.262L62.233 65.02l15.31-8.713-4.988.616-.956-1.303-17.836 1.924Zm-.478 32.296-.616 2.47-4.922.55 3.76 3.224-.753 2.81-9.77-8.092zm-1.506 17.147 2.259 3.565-10.05 1.44zm10.664 7.324h3.144l2.053 3.238 2.388-3.237h2.94l-6.153 8.858zm-23.24-44.764 3.144 7.682-7.245.137zm6.22-6.86L32.571 23.6l4.645 13.032-11.96 1.231-1.847 4.94 21.604-1.991zM23 47.394l-.134 2.4 7.038 6.376-6.566.687.753 3.087 12.236-1.853zm-6.426 20.847 2.257 4.249 9.911-5.686zm6.905 8.091 3.35 2.814 7.52-4.183zm43.54 8.778 1.71-2.536 1.504 1.852zm7.656-2.125-1.71 1.026-4.442-5.14-4.443 6.308h-2.526l6.904-9.465zM55.467 85.18 50 74.548l-9.155 4.802 1.776 2.193 6.29-3.293 3.282 5.97zm0 0" style="stroke-width:.703579"/></svg>