<svg xmlns="http://www.w3.org/2000/svg" viewBox="0 0 100 100"><path fill="#0A004F" d="M0 0h100v100H0z"/><path fill="#ed1650" d="M37.975 12.097c-.427-.003-.516.301-.516 1.078v3.6c0 3.323 2.506 4.223 3.628 4.635l22.41 8.105 6.856-2.476c3.327-1.211 3.327-2.147 1.945-2.653L39.7 12.6c-.856-.308-1.389-.5-1.726-.503M26.83 21.626c-.423 0-.511.31-.511 1.093v3.6c0 3.306 2.504 4.223 3.627 4.614l14.797 5.357 11.483-4.158-27.68-10.002c-.853-.31-1.383-.5-1.715-.506Zm0 13.561c-.423-.005-.511.304-.511 1.084v4.863s0 1.815 1.664 1.208l9.475-3.417-8.913-3.227c-.853-.306-1.383-.507-1.715-.51M67.7 36.29l-11.487 4.154 7.264 2.639 6.858-2.473c3.346-1.228 3.35-2.161 1.96-2.67zm0 0" style="stroke-width:.758064"/><path fill="#fff" d="M72.28 24.385c1.4.51 1.4 1.443-1.946 2.653l-42.35 15.305c-1.664.607-1.664-1.208-1.664-1.208 0 .557 0 2.06 1.122 2.458l8.632 3.127c1.385.503 1.382.503 2.786 0l33.156-11.987c1.664-.607 1.664-1.9 1.664-5.78 0-4.06 0-4.06-1.4-4.57zm.018 13.554c1.398.51 1.398 1.442-1.945 2.653L37.459 52.48v8.297l34.557-12.49c1.664-.605 1.664-1.896 1.664-5.775 0-4.063 0-4.063-1.382-4.572M55.114 59.771a1.6 1.6 0 0 0-.648.122L37.459 66.05h.018v8.3l16.447-5.946c1.104-.41 1.942-.702 1.942-3.19v-3.043c0-1.36 0-2.349-.752-2.402zM44.709 77.06c-.19.012-.38.053-.557.121l-6.693 2.426h.018v8.296l6.127-2.212c1.105-.405 1.945-.705 1.945-3.174v-3.062c0-1.407 0-2.419-.841-2.396" style="stroke-width:.758064"/></svg>