<svg xmlns="http://www.w3.org/2000/svg" viewBox="0 0 100 100"><defs><radialGradient id="a" cx="8092.85" cy="4453.71" r="824.08" fx="8092.85" fy="4453.71" gradientTransform="matrix(.01944 0 0 -.01966 -122.86 144.94)" gradientUnits="userSpaceOnUse"><stop offset="0" stop-color="#FEC32F"/><stop offset=".059" stop-color="#FEC32F"/><stop offset=".529" stop-color="#FEFEFE"/><stop offset="1" stop-color="#FEFEFE"/></radialGradient><linearGradient id="b" x1="7286.33" x2="9402.71" y1="5570.79" y2="3920.91" gradientTransform="translate(-122.9 -29.22)scale(.01943)" gradientUnits="userSpaceOnUse"><stop offset="0" stop-color="#24A859"/><stop offset=".094" stop-color="#5BB852"/><stop offset=".188" stop-color="#24A859"/><stop offset="1" stop-color="#92C84B"/></linearGradient></defs><path fill="#3660ab" d="M0 0h100v100H0z"/><path fill="#fefefe" d="m31.987 83.38 1.538-.9 4.492-3.856 3.117-1.8 2.646-1.43 1.902-1.692 5.815-4.543 4.707-4.126 2.432-3.702s3.536-4.07 3.595-4.226c.055-.163 2.906-4.284 2.906-4.284l3.435-6.24 2.855-5.339 1.163-3.647 2.01-4.599 2.008-6.079 1.372-2.646 1.43-2.798 2.172-3.489 3.696-4.495-3.644.26-2.644.796-6.08 1.638-5.287 2.22-5.815 2.962-5.977 3.277-5.23 4.176-5.605 6.18-1.642 3.127-3.487 9.937-2.116 5.025-2.38 7.45-.26 5.39.471 3.124-.098 1.905.325 2.18.321 1.097-.177 1.519s-.805 1.052-.845 1.264c-.034.214-1.372 3.173-1.372 3.173L32.08 82.69l-.916 1.164zm0 0" style="stroke-width:.783946"/><path fill="url(#a)" d="M56.914 65.456c-.875-4.1-5.51-7.463-9.612-7.527h-.138c-2.554 0-5.178.27-9.076 2.689 1.014-.273 2.556.064 3.494.538-1.743-.272-3.225-.208-4.3.604 0 1.748.536 3.561.806 5.31 2.22 2.153 5.717 4.302 9.08 4.774.606.067 1.21.067 1.812.067 2.015-.138 4.1-1.213 5.717-2.621.873-.808 1.678-1.617 2.217-2.56.27-.398.135-.867 0-1.274m-21.313-3.293c-.676 1.676-1.479 4.438-2.624 5.645.472-.94 1.883-5.243 1.748-6.183-1.411 1.145-2.955 2.15-4.37 2.958-2.082 1.207-3.895 2.018-4.84 2.22-.672 1.678-1.413 4.165-1.547 6.52-.135 1.55.205 3.093.808 4.37.872 1.95 1.476 3.43 4.437 2.419.401-.132.806-.264 1.142-.401 2.622-1.078 4.64-2.89 5.85-6.989.067-.272.205-.609.269-1.013.603-2.42.202-4.508-.27-6.654-.201-.943-.404-1.883-.604-2.89m-1.75-2.086c-.668-.337-3.495.337-3.225.266.533-.2 3.16-1.338 2.15-1.61a55 55 0 0 0-2.42-1.749c-2.153-1.612-4.167-3.16-6.047-5.313-2.76.135-6.46 2.091-9.549 4.167-2.96 2.018-5.178 4.306-2.89 6.392 4.37 4.1 8.403 4.299 11.765 3.695 1.88-.337 4.572-1.616 6.721-2.955 1.679-1.077 3.094-2.152 3.494-2.893m-3.494-4.437c.94.67 2.085 1.41 3.43 2.287v-.071c-1.078-.539-1.344-3.965-1.479-5.107.337 1.479 1.28 4.167 2.756 4.906-.674-4.098-.606-8.134 1.142-11.9.068-.203.206-.405.27-.672-.064-.201-.138-.47-.27-.737-1.28-3.026-3.093-5.313-5.509-6.86-.138-.067-.205-.132-.34-.132a16.3 16.3 0 0 0-4.103-1.68c-1.142-.206-1.944-.675-2.551-.338-.471.203-.808 1.008-1.142 1.816-2.092 4.973-.408 10.55 3.157 14.384 1.078 1.213 2.22 2.352 4.64 4.103m5.848-6.587a20.9 20.9 0 0 0 0 7.123c.132.674.27 1.28.405 1.886.131-.334 1.142-4.238 2.554-5.515-1.14 1.82-1.611 4.1-1.746 6.254.472.201.607.064 1.075 0 2.152-1.073 4.502-2.019 6.923-2.22a13 13 0 0 0 1.749-1.48c2.417-2.217 3.898-4.767 4.304-7.53.201-1.883-.066-3.696-.803-5.983-.408-1.615 0-1.746-3.497-2.019h-.206c-3.763-.266-9.41 2.288-10.69 8.945 0 .202-.068.404-.068.54" style="fill:url(#a);stroke-width:.783946"/><path fill="#ea3639" d="M56.924 66.742c-.539.94-1.345 1.746-2.214 2.554-1.617 1.412-3.7 2.49-5.717 2.624-.607 0-1.21 0-1.817-.07-3.362-.471-6.86-2.622-9.08-4.768-.266-1.751-.801-3.567-.801-5.316 1.078-.808 2.554-.876 4.299-.604-.94-.47-2.484-.811-3.494-.538 3.901-2.423 6.52-2.69 9.076-2.69h.135c4.104.065 8.737 3.43 9.613 7.531.138.404.273.873 0 1.274m-20.438 4.973c-.067.404-.202.742-.266 1.014-1.213 4.094-3.228 5.91-5.85 6.988q-.565.216-1.145.404c-2.955 1.008-3.561-.472-4.44-2.422a8.6 8.6 0 0 1-.802-4.367c.131-2.355.873-4.845 1.546-6.522.94-.202 2.756-1.014 4.839-2.221 1.41-.808 2.96-1.813 4.366-2.958.138.943-1.274 5.243-1.742 6.185 1.143-1.208 1.948-3.965 2.619-5.649.201 1.014.407 1.95.609 2.89.469 2.153.872 4.239.266 6.658M23.643 65.93c-3.363.604-7.393.405-11.765-3.696-2.288-2.085-.065-4.373 2.89-6.388 3.093-2.085 6.796-4.035 9.552-4.167 1.88 2.15 3.895 3.699 6.048 5.31.808.539 1.614 1.142 2.419 1.748 1.01.266-1.611 1.412-2.15 1.61-.27.071 2.554-.603 3.23-.263-.407.736-1.815 1.817-3.496 2.892-2.156 1.338-4.842 2.618-6.728 2.955m-1.078-28.777c.337-.805.677-1.61 1.145-1.812.606-.338 1.412.128 2.56.337 1.476.4 2.891.94 4.098 1.677.138 0 .202.068.337.138 2.419 1.544 4.235 3.831 5.515 6.86.128.263.196.535.266.737-.067.267-.202.47-.266.668-1.752 3.767-1.817 7.803-1.146 11.903-1.479-.74-2.422-3.43-2.759-4.908.135 1.144.404 4.569 1.48 5.107v.07c-1.345-.875-2.481-1.612-3.427-2.286-2.416-1.745-3.562-2.89-4.637-4.103-3.564-3.831-5.245-9.41-3.163-14.387zm24.407 2.422h.204c3.497.27 3.09.402 3.497 2.015.742 2.288 1.012 4.1.806 5.987-.404 2.757-1.88 5.314-4.303 7.528a12.6 12.6 0 0 1-1.748 1.478c-2.42.206-4.774 1.145-6.927 2.22-.469.068-.604.2-1.075 0 .135-2.152.606-4.437 1.748-6.253-1.41 1.274-2.419 5.178-2.556 5.512-.132-.603-.266-1.21-.398-1.88a20.9 20.9 0 0 1 0-7.126c0-.134.064-.337.064-.539 1.277-6.654 6.924-9.211 10.688-8.942M57.26 65.395c-1.544-4.37-5.378-8.137-10.085-8.743a5.5 5.5 0 0 0-1.478-.068 27 27 0 0 0 1.478-1.206c2.622-2.288 4.239-5.043 4.508-8.004.196-1.682-.205-3.364-.74-5.31-.27-.675-.071-1.612-.742-2.15-.603-.405-2.082-.54-2.958-.607h-.068c-3.224-.337-6.927.131-10.487 5.582-.135-.34-.337-.74-.47-1.078-1.212-2.689-2.963-4.774-5.178-6.252-.201-.132-.471-.267-.673-.405a13 13 0 0 0-4.235-1.678c-.941-.27-1.678-.539-2.288-.472-.674.135-1.075.873-1.48 1.749-2.014 5.577-1.34 10.152 1.817 14.724-2.352.202-6.452 2.014-9.478 4.167-2.085 1.412-3.701 2.962-3.901 4.505v.67q.1.915 1.013 1.816c4.833 4.306 8.6 5.18 13.578 4.236-.808 1.68-1.347 3.766-1.616 5.916-.2 1.816.27 3.7.808 5.111.67 1.947 1.684 3.163 4.302 2.625a9.4 9.4 0 0 0 1.48-.472c2.756-1.01 4.639-3.16 5.849-5.583 1.206-2.419 1.746-5.044 1.815-6.988 2.824 1.813 5.381 4.097 9.144 4.569.607.067 1.274.067 1.951.067 1.477-.067 3.426-.94 5.105-2.22 1.283-.94 2.56-2.15 2.965-3.363a2.3 2.3 0 0 0 .064-1.138" style="stroke-width:.783946"/><path fill="url(#b)" d="M39.777 72.049c.07 0-.063.205.07.205a25 25 0 0 1 1.414-2.621c-.537-.337-1.076-.74-1.682-1.078a13 13 0 0 0-1.547-1.075c0 .27-.067.604-.067.94.536 1.078 1.21 2.089 1.614 3.16q.12.23.2.472m3.297-1.341a48 48 0 0 0-1.481.205c-.604 1.274-1.275 2.484-1.882 3.693 2.154.337 3.562.068 5.378-1.008-.2.132-.333.405-.471.674-1.817 1.008-3.158 1.412-5.041 1.745q-.536.115-1.078.206c-1.812 2.281-3.76 4.437-5.98 6.253a227 227 0 0 1 3.965-4.706l-1.415 1.206c1.078-1.48 3.567-4.033 3.567-6.048-.204-.606-.606-1.48-1.013-2.49-.465 2.223-1.479 4.64-3.09 6.59q-.414 1-.94 1.948c-1.677 3.026-4.032 5.316-6.32 6.256h-.064v1.139c0 1.078 0 1.816.802 1.951h.067l.07-.064c.803-2.29 3.902-4.239 7.733-6.722 1.004-.677 2.08-1.347 3.227-2.089.132-.131.334-.199.469-.333q3.915-2.694 7.527-5.782c.542-.404 1.014-.809 1.553-1.21-.539 0-1.014 0-1.553-.07-1.476-.202-2.823-.74-4.03-1.344M89.13 11.68c-.606.134-1.21.198-1.813.265-1.55.273-3.231.54-5.987 1.348-1.142.337-2.351.674-3.559 1.004-4.574 1.213-9.485 2.56-15.066 5.38-5.444 2.757-11.023 6.591-15.599 11.702l-1.008 1.21a44 44 0 0 0-5.107 7.866 8 8 0 0 1 3.295-1.142c0-1.078.132-2.624.738-2.624a6.9 6.9 0 0 0-.267 2.553 14.4 14.4 0 0 1 2.352 0c.065.068.065.068.132.068.88.067 2.358.202 2.961.607.67.538.471 1.476.741 2.15.536 1.95.94 3.631.739 5.309 0 .273-.068.475-.068.674.471-1.078.805-2.284.805-3.559-.401-2.02-1.277-3.3-2.018-6.054-.738-2.826-.398-6.118 1.014-9.413-.472 1.95-.742 3.632-.273 5.65.472 2.017 1.816 4.639 2.288 6.115.472 1.55.337 1.816.603 2.757.808-1.545 2.083-3.43 2.486-5.044.206-1.41-.131-2.89-.131-3.761-.068-.808-.404-2.156-.606-4.036-.203-2.756-.132-5.846 1.344-6.118-.334.737-.607.737-.806 2.22-.134 1.408 1.547 6.654 2.015 9.949.94-1.546 2.015-3.093 3.03-4.575-.338-3.559-1.214-8.803 2.22-11.223-.944 1.476-1.281 2.287-1.418 3.83 0 .607-.064 4.91.538 5.58a65 65 0 0 1 3.7-3.629c.138-.202.404-.538.468-.67.34-3.03.07-5.782 2.49-7.733-.4.604-1.008 1.207-1.143 2.015-.134.806-.199 3.767.405 4.303 1.274-1.21 2.621-2.487 3.965-3.629.273-1.078.405-2.018.81-2.89.467-1.078.872-1.614 2.014-2.022-1.274 1.011-1.947 2.085-1.078 3.767 1.883-1.411 3.496-2.484 4.977-3.494.137-.876.535-1.614 1.41-1.95-.199.202-.47.47-.603.808-.067.199-.067.468-.067.737.876-.538 1.749-.943 2.76-1.343-1.079.673-2.09 1.343-3.164 1.947-1.014.74-1.95 1.55-3.026 2.352.674 0 2.086.07 2.622-.065.604-.067.94-.334 1.414-.472-.606.405-.811 1.012-1.815 1.143-.947.135-2.15.135-3.225.205-1.552 1.078-2.894 2.484-4.104 3.899 1.611.47 4.104.134 5.18-.27 1.141-.405 1.141-.536 1.741-1.075-1.139 2.42-6.112 2.42-8.066 2.42-.606.74-3.763 3.092-3.763 4.032 2.89.205 6.185.273 8.939-.468-3.023 1.613-6.86 1.68-10.29 1.88-1.203.61-2.817 3.43-3.625 4.508 2.957 0 6.927.334 8.81.27 1.948-.071 1.81-.54 2.753-.742-1.142 1.412-4.37 1.479-5.846 1.546-1.28 0-2.692-.064-3.834.132-1.146.206-2.085.543-3.164.742-1.139 1.748-2.278 3.494-3.426 5.31 1.347-.132 2.422-.267 4.036-.331 1.546 0 3.231.196 4.572.128 1.813 0 3.43-.266 5.65-1.206-2.22 1.748-4.642 2.419-7.47 2.554-1.337.131-5.913-.472-8.062.94-.674 1.415-1.415 2.827-2.156 4.235 1.348.067 2.622.202 3.966.337 2.627.47 4.979.94 7.33.404.675-.202 1.342-.404 2.019-.808 0 .673-2.89 1.751-3.567 1.816-1.477.266-3.02.064-4.503.134-2.22.068-4.37.132-6.586.27-.741 1.613-1.55 3.224-2.352 4.905 3.157.475 8.336 1.349 10.215 1.076 1.814-.264 1.749-.941 2.086-.6-.677.468-1.411.734-2.22 1.007-1.34.536-2.483.404-4.033.404-2.22-.07-4.37-.273-6.522-.404a1.3 1.3 0 0 0-.2.334c2.823.94 5.178 2.96 6.79 5.512l.808-.2c-.18.212-.413.374-.677.47.337.538.61 1.073.876 1.613.472-.604 1.007-1.207 1.547-1.816a136 136 0 0 0 5.51-7.261 73.4 73.4 0 0 0 5.982-9.747c1.687-3.43 3.163-7.058 4.71-11.364 1.883-5.375 3.631-10.084 5.852-13.847 2.214-3.761 4.905-6.652 8.672-8.606zM47.244 56.658a50 50 0 0 0 1.344-2.69 14 14 0 0 1-1.482 1.413c-.398.404-.937.803-1.408 1.207.47-.065.937 0 1.408.067zm0 0" style="fill:url(#b);stroke-width:.783946"/></svg>