<svg xmlns="http://www.w3.org/2000/svg" viewBox="0 0 100 100"><path fill="#0054A5" d="M0 0h100v100H0z"/><path fill="#fff" d="M89.097 38.629c-22.97-3.87-34.451 23.464-53.047 25.837-13.482 1.747-23.34-7.987-25.089-15.104-.999 13.73 11.482 23.59 25.337 22.97 23.345-1.006 35.698-29.335 52.8-33.71M71.25 38.25c-17.478-2.37-21.723 10.611-35.826 15.226-9.114 2.997-16.102.749-21.219-4.865 2.37 7.49 11.36 12.73 19.222 12.104C49.032 59.47 57.897 42.242 71.25 38.25" style="stroke-width:.781943"/><path fill="#ffca05" d="M34.053 50.11a29.6 29.6 0 0 0 7.737-3.87c1.622-1.12 7.364-5.116 10.235-6.988-2.37-6.741-8.986-11.607-16.6-11.607a17.7 17.7 0 0 0-12.54 5.186A17.7 17.7 0 0 0 17.7 45.367c0 .873 0 1.621.125 2.373 4.243 2.996 9.86 4.496 16.225 2.37" style="stroke-width:.781943"/></svg>