<svg xmlns="http://www.w3.org/2000/svg" viewBox="0 0 100 100"><path fill="#E2241C" d="M0 0h100v100H0z"/><path d="M32.7 17.377h10.307l43.129 37.3v9.056zm18.101 0H61.11l25.027 21.43v9.113zm18.105 0h10.308l6.922 5.76v9.111zm0 0"/><path fill="#FFF" d="M46.477 71.405C34.73 71.4 25.204 61.798 25.204 50.051l.003-.017.012-32.686h6.563v32.683c-.011 8.13 6.573 14.731 14.703 14.742h.063l39.416-.03v6.656zm39.481 11.262v-6.432H46.471c-14.457-.007-26.176-11.73-26.176-26.186l.014-32.714h-6.445V50a32.6 32.6 0 0 0 9.528 23.11 32.6 32.6 0 0 0 23.096 9.556zm0 0"/></svg>