<svg xmlns="http://www.w3.org/2000/svg" viewBox="0 0 100 100"><path fill="#252668" d="M0 0h100v100H0z"/><path fill="#fff" d="M50 14.662c-19.494 0-35.338 15.844-35.338 35.338S30.506 85.338 50 85.338 85.338 69.494 85.338 50 69.494 14.662 50 14.662m0 2.355c3.603 0 7.062.59 10.306 1.66l-9.19 18.485-8.835 17.67-24.006 4.176A33 33 0 0 1 17.017 50C17.017 31.8 31.8 17.017 50 17.017m13.012 2.672C74.748 24.742 82.98 36.423 82.98 50c0 18.2-14.78 32.983-32.98 32.983-14.903 0-27.509-9.92-31.589-23.502h23.113l20.842 20.496c1.178-1.237 1.885-2.88 1.885-4.647a6.54 6.54 0 0 0-2.531-5.187L47.827 59.48h33.68c.06-.238.182-.525.242-.82a5.25 5.25 0 0 1-4.13-2.54h-7.951l.59.825h2.715l1.355 1.715H59.365c0-.235-.058-.53-.058-.826-.472-2.943-3.3-5.005-6.245-4.533l-5.362.814 15.908-26.503c.588-1.06.941-2.295.941-3.531a7 7 0 0 0-1.537-4.393" style="stroke-width:.706765"/></svg>