<svg xmlns="http://www.w3.org/2000/svg" viewBox="0 0 100 100"><path fill="#96262C" d="M0 0h100v100H0z"/><path fill="#fff" d="M77.202 27.464c.62-.787.282-.833.048-.823h.01c-1.197.048-2.52.29-3.36.608h-.003a6.7 6.7 0 0 0-1.624 1.016L46.602 51.833s-4.774 4.235-4.615 4.041c-.062.083-1.499 1.206-4.71 3.473-2.632 1.86-4.932 3.132-7.676 4.405l-.013.005-.078.031C14.735 70.591 6.068 70.27.05 70.558H0v2.807l7.186-.054c15.459-.341 29.858-1.772 37.607-5.365 6.01-2.78 9.685-7.022 9.685-7.022s-1.014 1.224.146-.342zm0 0" style="stroke-width:.775535"/></svg>