<svg xmlns="http://www.w3.org/2000/svg" viewBox="0 0 100 100"><defs><linearGradient id="a" x1="0" x2="1" y1="0" y2="0" gradientTransform="rotate(68.315 -22.103 75.204)scale(10.87421)" gradientUnits="userSpaceOnUse"><stop offset="0" stop-color="#E1816D"/><stop offset=".022" stop-color="#E1816D"/><stop offset=".282" stop-color="#E11F26"/><stop offset=".85" stop-color="#AC1F24"/><stop offset="1" stop-color="#AC1F24"/></linearGradient><linearGradient id="b" x1="0" x2="1" y1="0" y2="0" gradientTransform="matrix(23.54738 37.83367 -42.11125 8.82052 35.397 31.388)" gradientUnits="userSpaceOnUse"><stop offset="0" stop-color="#8BBE9F"/><stop offset=".093" stop-color="#8BBE9F"/><stop offset=".676" stop-color="#1BA44A"/><stop offset=".885" stop-color="#0A8B44"/><stop offset="1" stop-color="#0A8B44"/></linearGradient><linearGradient id="c" x1="0" x2="1" y1="0" y2="0" gradientTransform="rotate(32.251 -82.901 88.86)scale(38.79058)" gradientUnits="userSpaceOnUse"><stop offset="0" stop-color="#E1816D"/><stop offset=".022" stop-color="#E1816D"/><stop offset=".282" stop-color="#E11F26"/><stop offset=".85" stop-color="#AC1F24"/><stop offset="1" stop-color="#AC1F24"/></linearGradient><linearGradient id="d" x1="0" x2="1" y1="0" y2="0" gradientTransform="matrix(57.76357 19.25349 -2.36165 45.54884 18.202 49.644)" gradientUnits="userSpaceOnUse"><stop offset="0" stop-color="#E1816D"/><stop offset=".066" stop-color="#E1816D"/><stop offset=".352" stop-color="#E11F26"/><stop offset=".85" stop-color="#AC1F24"/><stop offset="1" stop-color="#AC1F24"/></linearGradient></defs><path fill="#DCDDDE" d="M0 0h100v100H0z"/><path fill="url(#a)" d="M52.086 84.13c12.748-3.66 23.351-12.558 9.76-14.864 5.99 2.973.88 11.472-9.76 14.866"/><path fill="url(#b)" d="M16.348 33.154c7.17 18.33 40.82 17.371 53.14 28.686 9.336 8.576-1.038 15.162-3.46 16.694 8.807-4.864 14.422-15.186 2.976-23.187-13.797-9.65-49.086-16.232-52.656-22.193"/><path fill="url(#c)" d="M68.33 74.18c-1.935 4.96-15.694 9.824-15.759 9.846.044-.012 9.34-3.183 12.576-5 4.335-2.429 6.264-4.003 7.265-6.243 2.562-5.726-5.133-10.056-13.954-11.87-12.608-2.6-20.335-4.565-21.642-5.38 4.88 8.186 34.536 10.918 31.517 18.647"/><path fill="url(#d)" d="M72.53 69.597c.54 2.073-.733 4.094-2.21 5.562 2.073-2.045 3.529-3.78 3.427-7.215-.427-14.461-42.391-17.49-51.731-25.173C33.197 61.067 70.02 60.02 72.53 69.597"/><path fill="#fff" d="M69.993 40.256c-.996 2.108 2.688 4.864 5.605 4.83-2.935.668-5.204-1.097-5.918-1.938-1.5 1.067-6.187.872-8.264 2.071 4.902 1.867 11.95 5.214 14.473 11.222 2.413-6.23 10.597-9.97 13.669-7.668.021-2.84-3.155-2.62-5.006-3.285-.968-.35-.365-1.023-1.163-1.088 1.576-.454 2.083 1.338 3.857 1.419-1.727-8.122-16.336-2.192-17.253-5.563m6.217 18.486c-2.222-5.908-7.766-10.303-16.033-14.085-19.457-8.932-47.049-16.002-49.735-28.788 1.357 22.876 32.877 26.26 51.135 34.855 4.484 2.117 8.283 5.55 10.554 7.86 3.613 3.683 1.857 12.543-1.975 16.221 7.862-5.73 7.238-12.93 6.054-16.061"/></svg>