<svg xmlns="http://www.w3.org/2000/svg" viewBox="0 0 100 100"><path fill="#174887" d="M0 0h100v100H0z"/><path fill="#fff" d="m28.03 21.863-.404 1.483H52.44a3.42 3.42 0 0 1 2.725 1.048 3.43 3.43 0 0 1 .916 2.772 6 6 0 0 1-.202 1.067L51.432 44.4q-.155.431-.349.85a6.34 6.34 0 0 1-5.68 3.738h-.111a3.32 3.32 0 0 1-2.699-1.169 3.32 3.32 0 0 1-.702-2.854l.04-.28q.032-.2.088-.393l2.033-7.41a2.84 2.84 0 0 0-.753-3.02 3.15 3.15 0 0 0-1.657-.72 4 4 0 0 0-.303-.024l-16.415.018-.407 1.459h7.031a3.8 3.8 0 0 1 1.249.22 2.72 2.72 0 0 1 1.435 3.527s-.879 3.073-1.913 6.928a5.2 5.2 0 0 1-1.312 2.376 5.36 5.36 0 0 1-3.653 1.468h-6.841l-.194.7-.047.173-.006.02-.225.838h6.469c.724 0 4.031.132 3.287 3.54a511 511 0 0 0-1.995 7.26q-.102.336-.244.655a5.6 5.6 0 0 1-1.048 1.57 4.88 4.88 0 0 1-3.455 1.51h-7.054l-.395 1.484 16.438.015a5.3 5.3 0 0 0 2.742-.981 5.2 5.2 0 0 0 2.05-2.79l2.04-7.394c.114-.395.27-.776.457-1.14A6.45 6.45 0 0 1 44.735 51h.108a3.4 3.4 0 0 1 3.03 1.321 3.39 3.39 0 0 1 .46 3.272l-4.427 16.163a6.73 6.73 0 0 1-3.143 4.023 6.26 6.26 0 0 1-3 .854H12.924l-.424 1.505h29.637a37.5 37.5 0 0 0 17.618-5.168 41 41 0 0 0 14.982-15.261 13.52 13.52 0 0 1 10.412-6.694l1.758-.117a.16.16 0 0 0 .155-.105l.036-.132v-.015c.052-.164.12-.393.181-.633v-.003l.015-.02h-.003l.205-.786a.06.06 0 0 0 0-.043c0-.036-.035-.045-.085-.056l-.589-.044-1.15-.076a6.627 6.627 0 0 1-6.69-6.287c0-.103-.014-.197-.017-.255v-.155c.135-7.603-4.242-19.717-21.337-20.422Zm0 0" style="stroke-width:.749989"/></svg>