<svg xmlns="http://www.w3.org/2000/svg" viewBox="0 0 100 100"><path fill="#BE2239" d="M0 0h100v100H0z"/><path fill="#fff" d="M34.362 41.919a28.6 28.6 0 0 0-7.728 1.192 21.4 21.4 0 0 1 14.256 3.275c7.228 4.556 9.206 4.671 12.142 5.623-14.094 6.081-46.84 5.038-46.84 5.038 17.78 2.467 39.992-.257 39.992-.257a31.5 31.5 0 0 1 9.285.336c1.91.294 3.838.434 5.767.42 8.005 0 11.232-3.713 17.13-3.713a11.3 11.3 0 0 1 5.986 1.972s-3.85-6.65-13.252-6.28c-9.279.365-15.583-.244-21.039-3.272-3.747-2.088-8.7-4.18-14.665-4.323a25 25 0 0 0-1.02-.011zm48.621 1.67h-.674c-7.325 0-16.976 4.953-16.976 4.953s7.21-.715 10.606.311c0 .007 9.292-5.932 17.87-2.214 0 0-3.957-3.011-10.826-3.05"/></svg>