<svg xmlns="http://www.w3.org/2000/svg" viewBox="0 0 100 100"><path fill="#007B5E" d="M0 0h100v100H0z"/><path fill="#fff" d="M64.27 78.154c-2.425-.09-4.435-.433-5.067-.615-1.425-.427-2.822-.688-4.094-1.59-.24-.13-.319-.177-.553-.308-.111 0-.264-.208-.375-.208-.815-.645-1.515-1.293-1.632-2.329-.17-1.269.258-2.465 1.026-3.422a5 5 0 0 1 .825-.829c.355-.261.815-.135 1.164-.261.228 0 .348-.78.811-.65.469.258.126.776-.234 1.037v.386c.214.08.46.012.7.032-.225.381-.446.387-.58.615 0 .126.469.126.469.25-.355.395-1.046.137-1.515.395v.258c1.16-.126 2.437-1.03 3.6-.387 0 0-.345.126-.582.261.583.38 1.162 0 1.74.126.697.255 1.391 0 2.092.126-.111-.252-.47-.126-.586-.384.937-.26 1.863.258 2.788.513a1.88 1.88 0 0 0-1.388-.642c-.352 0-.7-.39-.925-.782v-.073c0-.1.02-.179.11-.179.293-.073.618.062.926.179.302.111.589.202.811.073.44-.234.777.208 1.19-.064h.024l.079-.059c-.466-.516-1.28 0-1.743-.645.465-.26.928 0 1.395-.386.234-.264.81-.264 1.27-.264.584-.126 1.17.135 1.744.135.114 0 .351.255.469.255.463 0 .925.513 1.385.261 0-.126-.225-.261-.343-.387-.354 0-.811 0-1.045-.392 0-.124 0-.258.114-.258.577 0 1.049.65 1.626.386-.926-.644-1.969-.255-2.903-.77-.578-.39-1.392-.516-1.858-1.167-.111.261-.345.138-.46.138-.117 0-.117-.264-.229-.264-.588 0-1.282.126-1.282-.386 0-.519.694-.384 1.045-.384 1.28-.26 2.32.518 3.595.642.126 0 .126.255.126.392 0 .252-.24.123-.355.123.58.13 1.272.13 1.855.13a8.8 8.8 0 0 1 2.558.386c.468.126.926.39 1.392.126-.353-.25-1.044.135-.923-.513 0-.252.457 0 .685-.129l-.114-.123c.117-.264.352-.138.586-.138a364 364 0 0 1-2.441-1.157c.466-.782 1.283-.255 1.969-.255 0 0 0-.26-.114-.26.24-.39.586.126.931 0-.117-.264-.345-.264-.58-.39-.811-.126-1.622-.39-2.437-.515.12-.258.698.123.583-.39-.237-.642-1.052-.519-1.515-.77.463-.262 1.052-.388 1.515-.262.577.132 1.277-.123 1.855 0-.923-.905-2.207.132-3.25-.77.232-.26.58-.387.698-.78.697.259 1.508-.122 2.2 0-.876-.357-1.743-.726-2.616-.98l-.167-.053c-.36-.158-.724-.065-1.084.052-.218.074-.44.165-.656.209a3.18 3.18 0 0 1-2.441-.13l.158-.079a3.3 3.3 0 0 1 1.353-.307h.695c.235 0 0-.384.235-.384.465 0 1.039-.132 1.505 0 .654.357 1.369.53 2.054.691q.431.095.85.209.17.197.354.386c.688.135 1.392.135 1.852.645.117.135.228 0 .228-.126-.108-.604-.214-.873.25-1.114l.101-.052c-.114-.387-.35-.513-.7-.64.812-.263 1.75-.39 2.323.52h.355c0-.267.235-.393.346-.52.582-.13.931.52 1.512.52 1.157-.267 2.202-.135 3.243-.267-.803-.252-1.503-.384-2.318-.642-.237 0-.583 0-.811-.26.343-.382 1.042-.256 1.389-.127.237.126.237-.515.348-.39.59.135 1.166.261 1.626.516.352.135 1.049.387 1.509.65-.46-1.03-1.969-.907-1.969-1.81-.12-.503.773.355 1.131-.094-2.194-.52-4.392-.313-6.592-.679l-.343-.384c.689-.39 1.392-.653 2.092-.518.114.129.22.129.343.258.463 0 .695 0 1.166.123v-.252c-.811-.264-1.629-.13-2.437-.264-.59-.25-1.283.135-1.864.264-1.975.129-3.946-.264-5.917-.13-.93 0-1.86-.134-2.901 0-.812.259-1.74 0-2.555 0-.7-.134-1.511 0-2.209.13-.577 0-1.16 0-1.623-.264-.117-.123 0-.25.111-.25 1.512-.26 2.907.127 4.296 0-.575-.518-1.392-.26-2.086-.39-.118 0-.235-.262-.343-.386.46-.263 1.037-.132 1.5-.132.125 0 .125.132.125.255h2.2l-.116-.123c1.511-.386 3.015-.132 4.532-.386-1.052-.387-2.33.123-3.372-.26a1 1 0 0 1 1.043-.127c-.111-.264-.578-.135-.689-.39 1.04-.39 2.087-.126 3.126-.26 0-.252-.228-.519 0-.771.118.252.355.381.469.381.697-.126 1.275-.255 1.744.39-.355.26-.701.26-1.047.26.343.516.932 0 1.392.126.114 0 .114.126.114.264.698 0 1.506.126 2.206-.264.117 0 .352.516.58.126-.691-.378-1.508-.249-2.088-.641a19 19 0 0 1-1.858-1.418.66.66 0 0 1 .932 0c.345.26.58.26.926.387.23.126.12-.387.343-.387a2.1 2.1 0 0 1 1.517.126c.691.387 1.389.26 2.206.387.114 0 .114-.126.234-.25 0 .147.114.12.211.124-.68-.578-1.537-.03-2.185-.516-.238-.26-.47-.39-.815-.648.463-.258.926-.126 1.271.258 0-.126 0-.387.115-.387.24 0 .475.387.703.261-.351-.516-.929-.26-1.391-.647-.812-.387-1.867-.129-2.678-.516 0-.129.125-.129.237-.129.111-.126 0-.258-.114-.258-.814 0-1.626 0-2.326-.515.7-.387 1.511-.258 2.203 0 .237.126.589.384.929.515.12 0 .468.13.468-.131-.12-.126-.231-.384-.468-.516.348-.381.811.39 1.165 0-.117-.126-.117-.252-.117-.381.58-.39 1.506.381 1.864 0 .567-.527.928.126 1.508 0a4.1 4.1 0 0 0-1.573-.735c-.75-.197-1.526-.32-2.262-.692.114-.255.352-.255.58-.255-.351-.39-.814-.39-1.282-.645a4.05 4.05 0 0 1 1.745 0c.47.124.926.385 1.395.516.228.13.457.255.582.516a2.46 2.46 0 0 0-1.514-1.417c-.114-.135 0-.264.12-.264.225-.126.466.128.7.263.112 0 .229-.135.112-.263-.111 0-.234-.126-.234-.126.463-.516.931 0 1.391 0 .114 0 .24.255.355.39 0-.135 0-.264.11-.393-1.267-.513-2.554-1.155-3.832-1.292-1.042-.126-2.085-.126-3.131-.126-2.086-.126-4.177 0-6.267-.252 1.16-.65 2.555.123 3.716-.39-.12-.26-.47-.132-.587-.39.815-.515 1.858.39 2.558-.126-1.04-.39-2.205-.26-3.255-.647.19-.264.422-.31.657-.302-.135-.137-.384-.375-.074-.603.355-.132.815.129 1.166 0-1.166-.255-2.437-.255-3.255-1.29 1.506-.644 3.132-.39 4.76-.644a3.94 3.94 0 0 1 2.438 0c.233.126.46.255.58.516.23-.387-.12-.387-.236-.516-.575-.513-1.27-.513-1.97-.78-.457-.122-.925-.122-1.388-.25-1.395-.517-2.792 0-4.295-.265-.237-.123-.583.126-.932.126.117.267.58 0 .463.267-.343.641-1.157.123-1.851.252-1.277.263-2.558-.126-3.833-.38.93-.517 1.969 0 3.018-.136-.12-.126.225-.255 0-.38.58-.387 1.038.38 1.62.125.117-.126-.225-.386-.114-.65.114-.252.345 0 .58-.126v-.249c.935-.65 1.749 0 2.666.378-.457-.378-1.043-.513-1.386-1.031-.12-.252.114-.381.229-.381.932 0 1.854 0 2.672.384-.932-.9-2.321-.9-3.6-.9-1.853.123-3.833.516-5.688.123-2.791-.384-5.343-.648-8.124-1.286-.123-.129-.35-.267-.35-.393 0-.515.582 0 .699-.386l-.117-.129c.234-.255.578-.255.815 0 .114.126 0 .261-.126.261h-.23c-.11.517.47.255.584.255.812.125 1.74 0 2.555-.127 1.042-.26 2.089.39 3.132.52-.118-.13-.464-.13-.343-.394.343-.518 1.04-.126 1.508-.126.93 0 1.852.252 2.898.642.234 0 .469.261.7.135.349 0-.117-.135-.117-.258-1.277-.782-2.67-.519-3.832-1.424-.117-.126 0-.255.12-.255.232-.131.343.255.571.126-1.04-1.163-2.78 0-4.063-.776.237-.387 0-.77.126-1.032.111-.39.688-.126 1.157-.126.118.126.232.126.343.126.814.135 1.512.516 2.212.78.225.123-.115-.135-.115-.264 0-.126.115-.255.229-.255.232 0 .469.126.469.384a2.17 2.17 0 0 1 1.271 0c.349.258.587.773 1.05.773-.12-.386-.463-.515-.701-.773-.114-.129 0-.258.114-.258h.586c-.348 0-.586-.123-.811-.123-.704-.126-1.166-.653-1.746-.908.114-.258.469-.123.694-.258-.694-.515-1.74 0-2.438-.645.698-.386 1.283-.386 1.984-.26-.824-.252-1.515-.126-2.33-.126-.342.126-.693 0-.928-.39-.114-.255.463-.125.235-.383-.473-.261-1.047.126-1.626-.132l.114-.126c-.578-.519-1.163-.26-1.74-.132.348.258-.118.258-.118.39-.812 0-1.623.255-2.435.255-.817.129-1.749.392-2.437.518-.469 0-.812-.645-1.397-.773.117-.261.468-.132.7-.132.926-.126 1.974.26 2.9 0 .234 0 .815.387.926-.258-.225 0-.46.129-.578-.126.81-.387 1.632 0 2.438-.387-.463 0-.806-.39-1.163-.519.357-.64.815-.135 1.163.13.229.134.35-.264.577-.13.586.52 1.275.906 1.975.645-.7-.252-1.389-.38-1.855-1.03.93-.256 1.855 0 2.67.385a2.95 2.95 0 0 0-1.74-.905c-2.67-.26-5.228-.512-7.779-.26-.234 0-.929.524-1.046.135-.111-.651.815-.264 1.157-.651-.457-.378-1.04.264-1.268-.252 1.157-.518 2.438 0 3.709.252-.112-.515-.7-.123-.812-.515 0-.123.111-.255.237-.255.575 0 1.272.392 1.738.255.694-.255 1.508.137 2.203.137-.469-.524-1.043-.524-1.51-.656-1.042-.387-2.202-.126-3.245-.765l.115-.138c-.115 0-.23-.126-.23-.126.803-.905 1.859.126 2.667 0-.235 0-.349-.123-.469-.252.354-.263.703 0 1.046-.135-2.086-.515-4.18-.515-6.378-.904-.234 0-.117-.255-.117-.384.811-.776 1.858 0 2.786-.39-1.16-.126-2.44-.24-3.6-.126-1.05.094-2.095.193-3.144.126 0 .129.465.267.114.39-.577.126-1.157 0-1.732.255.464.129 1.044-.126 1.506.129-1.042.647-2.44.26-3.372 1.04-.225.251-.811 0-1.157.122-.697.393-1.623.393-2.32.909.922.123 1.737 0 2.666-.393.123 0 .238.255.238.255.811-.516 1.617-.255 2.545-.378.126-.138.358 0 .358-.264.11.264.469.516.11.642-.81.267-1.508.783-2.314.519-.351 0-.7 0-1.051.132-.232.126-.466.392-.812.392.111.126-.462.249-.117.249.228 0 .351-.249.698-.249.23 0 .116.513.345.378.123-.252.469-.378.586-.252 1.037.123 2.197-.518 3.135 0 0 0-.237.516-.47.516-1.156 0-2.314.252-3.365.386-.929 0-1.975.39-3.018 0a1.63 1.63 0 0 0-1.508.39c.468.126.925-.132 1.28.126-.469.515-1.166.515-1.74.905-.24.252-.584.384-.815.77 1.389-.64 2.9-.896 4.297-1.423.23-.123.344.527 0 .656-.199 0-.39.261-.58.276.423.064.844-.144 1.27-.024.236 0 .699 0 .81-.252 0-.129-.342-.264-.462-.393.7-.512 2.323-.772 2.203.52 0 .248-.343.125-.46.125-.225-.126 0-.38-.111-.516-.24-.129-.47.261-.7.135 0 .381.7.126.585.64-.126.128-.24.386-.351.386-1.4-.258-2.555.387-3.832.26-.469 0-1.28-.26-1.623.127.229 0 .571 0 .697.26 0 .258-.468.258-.586.516.118 0 .232 0 .343.126.243-.258.589-.258.817-.258 1.855-.252 3.718-.515 5.576-.515.348 0 1.162-.126 1.162.263-.12.642-1.045.252-1.748.384-.229.126-.455.515-.58.515-.812.258-1.5-.257-2.318-.123 0 .123 0 .252-.111.252h-1.63l.115.126c-.114.261-.465.138-.694.138-.932-.393-1.858-.782-2.906-.519.234 0 .585-.131.814 0 .234.126.345.255.578.255.24.126 0 .642-.115.642a5.9 5.9 0 0 0-2.552-.126c.238.39.7-.129.811.263 0 .513-.573 0-.7.387-.688-.387-1.385.381-2.197.252.698.393 1.395-.123 2.198.126.237 0 .468-.126.7-.249 1.049-.126 2.094-.126 3.137.25 0 0 0 .266-.114.266h-.929c-.126 0-.126.252-.126.252.7.267 1.401-.387 2.095.267-.114.123-.228.384-.465.249-.46-.126-.93 0-1.392-.126 0 .26-.352.126-.235.26.352.256.811.126 1.166.126 0 .129.46.129.111.39a.15.15 0 0 1-.11.055c.436.182.967.094 1.39.329.12.131 0 .26-.12.26h-.46c.235.39.815-.129.93.39 0 .126-.115.25-.229.25-1.28 0-2.555.137-3.72-.64-.115-.129 0-.26.125-.26.686-.129 1.155.386 1.843.386-.688-.515-1.74-.255-2.431-.899.23-.258.462-.258.811-.258-.697-.392-1.278.123-1.978 0-.342-.126-.574-.392-.926-.26v.26c-.925.387-1.857.387-2.782.771.811.131 1.511-.384 2.322 0-.114.26-.582.131-.582.512.582 0 1.042-.126 1.626.138-1.398.512-3.024.25-4.407 1.031.929-.264 1.74-.39 2.666-.264.232 0 .115.39.232.39 1.16-.39 2.088 0 3.132.261q.179.189.345.39c-.57.255-1.272-.135-1.854-.135-1.623-.255-3.015.39-4.524 1.031.932-.252 1.97-.641 3.012-.512.126 0 .354.386.466.258.812 0 1.626.257 2.438.126 1.048-.25 1.974-.25 3.017.131-.458.258-1.043 0-1.509.135 0 0 0 .252.123.252-1.515.776-3.023 0-4.646.263a5.7 5.7 0 0 1-1.969.387c1.037.126 2.203-.525 3.129 0 .58.381 1.503.252 2.32.252.126 0 .126.126.126.264.457 0 .457.252.568.644-1.157.252-2.197-.392-3.366-.392-.114 0-.114.266-.114.266.469.126.929-.138 1.283.25-.237.263-.354.647-.588.782-.812.126-1.506-.264-2.32.126.585 0 1.28-.126 1.396.387.112.255-.354 0-.468.255-.692-.381-1.389.125-2.086.125.343.267.697-.126 1.042 0 .115 0 .115.138.115.267-.114.123-.114.255-.225.255-.358 0-.7.129-1.05.129-.928.131-1.968 0-2.897 0 0 .255-.351.131-.237.255.469.135 1.042-.384 1.509 0-.698.65-1.626 0-2.324.39-.345.26-.811.39-1.042.778.928-.129 1.743-.645 2.668-.39 0 .261-.342.261-.342.387.228.126.697-.123.922.126-.58.519-1.391.519-1.969.906.346.129.815-.252.692 0-.343.645-1.274.908-1.86 1.424l1.4-.39c.698-.123 1.512-.515 2.315-.39.351.135.237.516 0 .651-1.038 0-1.969.129-3.015.381a2.8 2.8 0 0 0-1.395 1.03c.695-.38 1.395-1.03 2.213-.767.228 0 .694 0 .805.261 0 .252-.577.641-.463.641.697.255 1.512-.26 2.206.13-.527.474-1.538.296-1.977.946q-.066.097-.105.208c.216-.07.43-.153.647-.208.131-.021.257-.041.395-.041 1.626-.13 3.13-.78 4.755-.39a8 8 0 0 1-1.395.431c-2.215.483-4.473.135-6.67.63.404-.021.753.196 1.101.486-.697.39-1.512-.126-2.088.261-.469.255-1.155.126-1.51.773.695-.129 1.51-.902 1.858-.129.114.39-.929 0-.691.645 0 .135.688-.255.92.135 0 .122-.346 0-.346.251.928.126 1.857-.252 2.672.126-.7.39-1.512.138-2.207.261v.258c.117.135.463 0 .352.135-.235.387-.931.123-1.286.516.469 0 .814 0 1.283.252.225.263.926-.25 1.043.135.114.644-.811.515-1.275.515-1.282 0-2.557 0-3.834.123v.266c.468-.135.928-.26 1.395 0-1.044.771-2.315.381-3.487.902.7 0 1.4 0 2.095.387-.695.645-1.626.258-2.438.516 1.623.258 3.363-.258 4.987.129 0 .258-.233.129-.343.258-.47.126-.932-.126-1.398.126a3.1 3.1 0 0 1-1.04.26c-.12.13-.234.256-.463.256.692.263 1.275-.516 1.969-.255.352.255.93 0 .811.386 0 .258-.577.132-.811.645.352 0 .811-.126 1.042.255-.924.518-1.854.518-2.782.39-1.04-.255-2.206-.127-3.249 0 .343.125.7 0 .925.39-.46.385-1.042.64-1.623.907a1.57 1.57 0 0 0 .812-.267c.115 0 .352.261.586.135 0-.135 0-.26.111-.26.47 0 .932-.13 1.28.125-.236.261-.7-.126-.81.387.81.13 1.968-.513 2.668.13a8.2 8.2 0 0 1-2.162.828c-1.195.32-2.414.578-3.413 1.371.349 0 .928-.135 1.162-.135 1.63-.257 3.133-.51 4.76-.383.344 0 1.045-.126.928.384-.235.78-1.047 1.034-1.975 1.034 0 0 0 .26.114.26.469-.126.932 0 1.277-.26.349-.132.7-.255 1.05-.513.342-.135.7-.258 1.042-.135.118.135.118.264.118.393-.698.773-1.626.773-2.555 1.031.694.26 1.394-.258 2.2-.258.7.13 1.283-.387 2.095-.258-.117-.26-.586-.126-.469-.392.237-.38 1.051-1.412 1.4-.905.229.266-.469.524-.349.524.815.902 1.62-.65 2.67-.258v-.263c-.352-.126-.7.135-1.049-.126.812-.519 1.863-.519 2.675-1.035.055 0-.027-.029-.126-.075-.1-.056-.22-.115-.22-.176 0-.52.454-.393.688-.393 1.515-.39 3.02-1.032 4.413-.39-.812.264-1.51.516-2.324.39.352.513 1.17-.39 1.28.393a.26.26 0 0 1 0 .175c-.043.281-.412.443-.708.343.12.636.811 0 .697.384 0 .126-.235.51-.352.51-.574.263-1.274-.126-1.854 0-.812.263-1.63-.126-2.438.386-.12.135 0 .264.12.264-.583.383-1.28 0-1.74.645h-.352c.812.128 1.51-.127 2.318 0l-.111.128.111.13c-.349.128-.577.518-.922.644-.701.123-1.396-.255-2.095.258.582.129 1.165-.13 1.743.129-.349.258-.815.129-1.16.258 0 .131 0 .257.116.257.812 0 1.74-.126 2.556.129-.59.396-1.214.742-1.86 1.031 0 0-.118-.255-.23-.255-.469 0-.814-.26-1.282-.386-.575-.126-1.155.126-1.74.26.116 0 .354 0 .354.124-.117.257-.469.131-.7.131-.812-.515-1.74-.255-2.558-.641-.809-.393-1.74-.519-2.549-.135 0 0-.586 0-.346.135.812.252 1.854-.264 2.555.252-.932.902-2.33.65-3.141 1.546a14.1 14.1 0 0 1 4.532-.773c.578 0 1.278-.26 1.853.258-1.275.258-2.318.902-3.596 1.29-.117.125-.117.39-.349.515q-1.743.585-3.137 1.547c.586.135 1.166-.378 1.743-.378.695 0 1.743-1.04 2.438-.39-.393.55-1.222.627-1.597 1.21q-.098.159-.146.34a.94.94 0 0 1 .284-.34q.148-.096.301-.179c.575-.126 1.04-.263 1.506-.641.234-.135.578.126.812 0 .352-.261.7-.39 1.042-.525.124 0 .124.135.124.264-.126.261-.466.261-.583.515.342.258.694-.255 1.046-.255.58 0 1.04-.778 1.511-.91 1.04-.384 2.087-.384 3.126-.645.349 0 .7-.255 1.043-.387 1.28-.258 2.441-.38 3.718-.645.586-.126 1.163-.386 1.743 0a10.35 10.35 0 0 1-4.406.903c-.357.126-.586.645-1.055.773-1.503.259-2.897.259-4.286.912.695.375 1.503-.39 2.204.126 0 .126 0 .386-.118.386-.512.158-.978.22-1.462.308-.278.056-.562.111-.86.211.582-.138 1.276-.39 1.862 0-.237.126-.352.378-.469.641 0 .132.232.132.346.132.237-.132.237-.395.466-.519.46-.255.934-.255 1.397-.255.115 0 .226.255.226.513.407-.149.782-.477 1.172-.723a1.9 1.9 0 0 1 .92-.308c1.28-.135 2.437-.258 3.717-.386-.697-.126-1.28.126-1.977-.126 1.166-.653 2.44-.653 3.712-1.04.237 0 .586-.126.469.126-.115.525-.93 0-1.28.653.468.261.928 0 1.397.123.111 0 .111-.252.232-.252 1.28-.135 2.78-.521 3.828.255-1.048.39-2.205-.255-3.249 0a30 30 0 0 0-2.514.96h-.255q-.292.095-.594.206h-.814c-1.042 0-2.095 0-3.132.378 0 0 0 .266.111.266-1.154.387-2.437 1.032-3.592 1.158-.817 0-1.626.779-2.557 1.031.577.387 1.046-.252 1.74-.516.114 0 .231 0 .345.126.118.393 0 .651-.23.915-.115.251.116.38.233.51.23-.51.812-1.032 1.28-.51.115.125 0 .38 0 .51.461-.648 1.158-1.161 1.855-1.161.234 0 .234.387 0 .513.575 0 1.049-.384 1.506-.777.35-.123.698.264 1.049 0 .814-.38 1.626-.77 2.55-.893.12 0 .12.126.12.252a3.2 3.2 0 0 1 1.042-.252c.114-.126.345 0 .345-.264 0 .138.47.138.115.387 1.166.129 2.326-.25 3.48-.25-.457-.392-1.04.124-1.385-.392 0-.126 0-.258.111-.258 1.162 0 2.44.132 3.598 0-.578-.519-1.395 0-2.08-.129-.126 0-.126-.132-.244-.266q.29-.187.589-.328c1.354-.53 3.115-.475 4.298-.569.138 0 .152.144.138.308 0 .111-.027.234-.027.34-.343 1.157-.7 2.314-1.16 3.357-.58 1.155-1.391 2.186-2.44 2.968-1.392.902-2.865 1.585-4.544 1.82l-17.968-.004v1.313H87.5v-1.313zm4.302-12.275c.227.135.58.135.814.386-.346.126-.93.516-1.275.126-.114-.252.46 0 .346-.252-.12-.126-.46.126-.46-.126.114-.266.369-.25.574-.135m4.764-9.547c.806.126 1.731 0 2.546.513.123.126 0 .252-.115.252-.463 0-.858.111-1.28-.123-.46-.258-.923-.126-1.388-.387.114-.129.114-.255.237-.255m-2.558-10.073c.117 0 .141.432.352.261.463-.386.922 0 1.391.13 0 .125.46.254.115.386a4.05 4.05 0 0 1-1.74 0c-.229-.132-.584-.648-.118-.776M19.584 54.26c-.231-.645 1.28-.645 1.977-.645.114 0 .114.135.23.135-.581.641-1.856 1.29-2.207.51m5.921 3.744c-.235.65-1.157.135-1.74-.126.117-.26.469-.39.583-.26.462 0 1.292.014 1.157.386m.931-.645c-.234 0-.7.13-.7-.126-.114-.26.466-.39.7-.137zm0-2.713c0 .135 0 .264-.114.264-.934-.129-1.743.387-2.672 0 .232-.129.343-.264.584-.129v-.258c-.469.123-.933 0-1.395 0 0 .258-.12.258-.231.387-.232.123-.232-.129-.355-.264 0 .135 0 .264-.114.264-.115-.264-.229.123-.349 0-.115-.129-.229-.129-.115-.264.812-.51 1.626-.77 2.558-.645.115 0 .115.135.115.26.811 0 1.5-.385 2.314 0-.112.13-.226.13-.343.13-.117.132 0 .132.117.255m27.627 11.101c-.237 0-.465.132-.58-.126 0 .126 0 .258-.117.258h-1.043c-.123 0-.123-.258-.123-.384a.84.84 0 0 1 .583-.26c.352 0 .469.125.7.386.229-.123.457-.26.698-.123 0 .123-.118.25-.118.25m-1.98-16.003v-.258c.354 0 .814-.386 1.166 0-.352.387-.7.387-1.166.258m.468 9.164c-.114.126-.228.26-.35 0 0-.255 0-.645.236-.77.23 0 .346.515.112.77m0 2.453c.117-.519.7-.645 1.277-.519.114 0 .114.129.114.258-.114.26-.393.319-.574.521-.345.381-.7 1.16-1.166 1.031-.463-.129.123-.776.348-1.292m1.632 1.937c0 .126-.155.032-.24.126-.342.39-.574 1.169-1.157.776.352-.515.7-1.03 1.157-1.295.126 0 .24 0 .24.138zm-.468-6.583c-.228-.129-.537-.469-.228-.65.228-.123.58 0 .808 0 .815-.381 1.626-.381 2.443-.381.112 0 .112.129.223.258 0 .123 0 .26-.111.26-.7.252-1.395-.26-1.978.126-.343.126-.689.387-1.157.387m3.252 5.287c-.583 0-1.167.133-1.74 0 .228-.515.811-.25 1.045-.64.34.26.812-.127 1.04.26.114.255-.228.255-.351.381m1.283 3.231c0-.128 0-.255.109-.255.126 0 .126-.022.237 0 .817.124 1.626.124 2.437.516-.11.123-.23.384-.349.384-.697-.258-1.27-.132-1.854-.384-.117 0-.468 0-.583-.26m2.675 3.093h-.697c0 .135 0 .264-.117.264-.469-.129-.923 0-1.278-.264.354-.77 1.043-.386 1.737-.386.117 0 .355-.126.463.132 0 .126 0 .255-.108.255m6.844-6.452c-.698.258-1.74.647-2.2-.126-.238-.264.354-.44.46-.39.58.261 1.28-.126 1.743.516m-.932-3.223c.114.252-.343.252-.698.252-.459 0-1.04.132-1.391-.249.7-.264 1.858-.782 2.089 0m-1.971-2.455q.522.379 1.045.384c.114 0 .229.129.229.258-.115.252-.355.187-.46.126-.469-.252-1.043.126-1.395-.384.238-.129.352-.521.58-.384M62.3 62.653c.348 0 .694-.093 1.052 0 .463.13 1.037 0 1.388.39.118.126 0 .252-.111.252-.586-.126-1.166.129-1.743-.126-.238 0-.466 0-.7-.264-.112-.123 0-.252.113-.252m0 5.547c-.453.128-.811.263-1.277.128.238-.126.466-.515.698-.386.24.132.468 0 .58.258m-.812-3.218c-.465-.137-.929.124-1.271 0-.117-.137-.352 0-.352-.263 0-.126 0-.126.115-.264.126-.123.161.273.35.138.346-.264.93-.138 1.279.126.11.126 0 .261-.12.261m0-5.81c0 .252-.344 0-.467.252-.108.132-.228 0-.228-.126.12-.126.205-.258.465-.258.115 0 .229.132.229.132m-.574-1.939c.108 0 .108.128.231.257 0 .123 0 .261-.123.261-.228 0-.463-.26-.688-.132-.583.132-1.158-.126-1.63.261.47.126 1.047-.126 1.513.126-1.04.515-2.326.905-3.37.65l-.24-.064c.03.047.06.123.127.19-.353.258-.587.516-1.044.516-.12 0-.12.126-.237.126-.114 0-.114-.126-.114-.252.205-.46.603-.51 1.022-.612-.565-.042-1.157.076-1.596-.42.574-.65 1.382-.65 2.083-.39-.112.127-.112.127-.237.255.47-.25 1.165.135 1.4-.386.111-.126-.463-.126-.463-.384 0-.137.343-.26.574-.26.469 0 1.054.26 1.509.26.469.126.814 0 1.282 0m-.354-1.807c0-.126-.114-.126-.228-.126 0 .126 0 .249-.114.249-.352 0-.586-.123-.929-.25-.937-.13-1.864.127-2.677-.39.237-1.03 1.165-.128 1.866-.517-1.395-.642-3.024.779-4.18-.255-.116-.135.468-.135.693-.26-.225-.262-.437-.127-.694-.127-.115 0-.115-.135-.232-.135.578-.645 1.16-1.031 1.855-1.42.351-.25 1.163-.126 1.63.386-.467.264-1.167-.126-1.513.519 0 .135 0 .386.111.386.36 0 .7-.123 1.046-.123.698.123 1.158.64 1.857.387.238-.135.47-.516.812-.39.355.126.355.642 0 .777h-.574c.117.902 1.271.123 1.626.902.108.258-.238.258-.355.387m-4.288-9.944c.112-.257.352-.193.577-.125.463.125.929-.255 1.275.125-.463.522-1.975 1.037-1.852 0m5.45-3.222c.58-.258 1.631-.39 1.742.257.115.13-.445.188-.691.258-.926.258-1.857.516-2.792 0 .58-.126 1.166-.387 1.866-.387zm1.857 9.938c0-.132.123-.132.237-.258 0 .126.114.108.229.126.697.129 1.397.129 1.974.515-.46.129-.345.264-.578.653-.582-.39-1.51-.135-1.977-.779 0-.126.238-.126.352-.126-.114 0-.237 0-.237-.135m-.115-5.546c0-.126.238-.126.352-.126.111 0 .926 0 .575.381-.226.132-.689 0-.927-.255m-1.388-2.97c.574-.252 1.18-.437 1.74-.123.229.123.463-.13.7.123-.7.393-1.625.393-2.437 0m-.358 2.326c.24.123.815.123.701.383-.343.777-1.506 0-2.204-.255.46-.25 1.093-.36 1.503-.125m-1.389-2.452c0-.13.23-.13.346-.13v.253c-.117 0-.345 0-.345-.123m-.115 4.644a2.15 2.15 0 0 1-1.977.257c.348-.126.697-.126.937-.518.343.26.686 0 1.04.26m.578 1.418c-.118-.126 0-.258.12-.258.108 0 .135-.076.231 0 .463.387 1.155-.131 1.623.387 0 .13 0 .261-.12.261-.574-.26-1.274.126-1.854-.39m.351 3.484c-.123-.255.132-.645.811-.645.118 0 .118.126.23.126l-.112.129c.46.135 1.043 0 1.503.525.123.125 0 .251-.115.251-.811 0-1.974.39-2.317-.386m1.969 1.037c-.228 0-.694.123-.929-.26 1.046-.262 2.095-.262 3.135-.262.352 0 .812 0 1.163.261-1.043.905-2.205.261-3.366.261m4.292-2.584c0 .126 0 .26-.111.26-1.166 0-2.44.253-3.598-.39.345-.39.929.127 1.274-.39.23-.257.636.118 1.043 0 .469-.125 1.166-.125 1.392.52m-1.507-9.55c-.117 0-.23 0-.23-.133a.96.96 0 0 1 1.156 0c-.111.261-.343.132-.58.132.937.515 1.978-.387 2.79.126-.812.26-1.636.314-2.555.518-.58.126-.815-.386-1.284-.515.24-.387.47.126.703-.129m-.811 1.031c0 .132 0 .258-.117.258-.698-.387-1.398.387-2.089-.126.465-.39 1.031-.39 1.626-.39.228 0 .469 0 .58.258m-4.533-1.807c1.4.255 2.673-.126 3.956.255-.353.65-.938 0-1.398.263-.231.126-.583.387-.815.258-.582-.387-1.28-.258-1.857-.521-.114-.124 0-.255.114-.255m-1.737-2.063c.47.126.929.255 1.283.516-.125.129-.125.255-.24.255-.578-.123-1.277.135-1.743-.387.229-.129.346-.483.7-.384m-3.597-3.483c1.157 0 2.322-.39 3.363.384.117.135 0 .258-.111.258-.586 0-1.284-.516-1.867-.123-.69.377-1.62 0-2.429 0-.117 0-.117-.264-.117-.393.343-.387.806-.123 1.16-.123m0 4.386c.23 0 .574 0 .47.255-.124.772-1.167.39-1.63.126.343-.124.701-.381 1.16-.381m-.583 7.356c.124.126.349.126.47.378 0 .135 0 .264-.12.264-.349.132-.824.348-.927 0-.123-.387.343-.642.578-.642m-.578 2.707-.123.126h-.228c-.114-.126 0-.252.117-.252.111 0 .234 0 .234.126m.232-19.492c.111 0 .27-.034.345.135.124.252.584 0 .698.252-.343.126-.932.393-1.275.126.232-.126 0-.378.232-.513m-.929.261c.118.126.232.255 0 .384-.231 0-.583.135-.583-.129-.117-.255.395-.46.583-.255m.574.77c.126 0 .24-.125.355-.251.111 0 .231.123.111.252a1.94 1.94 0 0 1-1.858.264c.35-.516.918-.264 1.392-.264m-1.042 8.136c.351 0 .7 0 .93.26-.344.256-.808.646-1.28.507-.11 0-.11-.125-.11-.251l.228-.255c-.118 0-.466.126-.466-.135.123-.255.47-.123.698-.123m.351 4.26c.117.123 0 .249-.114.249H52.2c-.117 0-.117-.126-.228-.126.228-.387.925-.387 1.28-.123m-1.626-13.949c.114 0 .114.126.114.264-.343.386-.932.767-1.397.386.237-.386.582-.263.814-.524.114-.126.349.138.469-.126m-1.512 0h.229c.126 0 .468-.252.468 0-.117.264-.468.65-.811.264 0-.138 0-.264.114-.264m-3.826.776c1.043-.126 1.969-.126 2.897.255-.114.387-.457.264-.697.264-.348.123-.689.252-.929.123-.342-.258-.58-.387-.928-.387 0 .264-.117.387-.232.387-.811.13-1.623.13-2.32-.258.7-.258 1.509-.299 2.21-.384m.224 10.325c0 .129-.114.255-.114.255-.343-.255-1.042-.123-.928-.639 0-.266.345-.392.697-.392.345 0 .463.263.578.392 0 .255-.347.123-.458.123zm-1.267-5.68c0-.127.342-.256.342 0 0 .13-.343.13-.343 0m.922 6.584c.12.127 0 .26-.11.26-.352 0-.586 0-.938-.259l-.228.258c-.235-.129-.46-.387-.46-.645 0-.263.354-.19.574-.129.465.13.814.255 1.162.516m-1.51 1.676c0-.126 0-.255.122-.255.111 0 .062.126.225.126.115 0 .115.129.241.129-.24.26-.354.26-.589 0m-.11 12.908c-.116 0-.116-.132-.116-.258s.115-.126.115-.257c.234.131.234.383 0 .515m-.583-19.099c-.117.123-.234.381-.343.381-.469 0-.818.387-1.166.516-.114 0-.114-.252-.343-.252-.703 0-1.517.123-2.205-.393.577-.512 1.276 0 1.971-.249.577-.263 1.389-.39 2.086 0m-6.325 17.657a1.63 1.63 0 0 1-1.834-.263c.228-.26.583 0 .811.128.464.103.776-.363 1.12-.301.612-.263 1.242-.387 1.936-.58.348 0 .578.26.812.521-.988.105-1.884.583-2.845.498m.75 1.304a1.613 1.613 0 0 1-2.203 0c.237-.252.58 0 .814.132.58.129.929-.65 1.392-.132m-4.875-1.547c-.229 0-.688.132-.688-.126.105-.65.916-.39 1.382-.519.7-.255 1.26-.13 2.095-.13.117 0 .117.13.234.13-.931.52-1.98.255-3.023.645m6.39-4.78c-.127 0-.352-.124-.352-.25 0-.26.228-.519.468-.39.226.258.46.645.689 1.031 0 .123 0 .261-.117.261-.234 0-.343-.138-.458-.26v-.256c0-.13-.117-.13-.23-.13m-3.718-12.517c.928-.386 1.968-.126 2.906.255-.123.516-.583.387-1.049.387-.577 0-1.043.13-1.62-.123.228-.264.577-.129.929-.264-.352-.126-.812.135-1.166-.255m3.594 2.327c.24.126 0 .506.126.645.232.125.663-.075.806.248.115.264-.228.264-.352.393-.454-.258-1.154.39-1.391 0-.346-.513.237-.126.469-.39-1.047-.39-2.086-.123-3.135-.39 1.163-.125 2.323-.506 3.48-.506m1.626 3.486c0 .123-.138.196-.225.123-.357-.252-.824-.387-1.046-.774 0-.129 0-.258.111-.258.463 0 1.046.387 1.16.909m-4.644 1.155c.235-.513.933-.25 1.515 0-.237.262-.468.392-.582.644-.346.128-1.047-.381-.933-.645m1.86 3.229c-.345.26-.562.518-.927.518h-.346c-.123 0-.238-.126-.123-.257.35-.396 1.051-.645 1.397-.261m-.235-2.584c.464-.381 1.164-.252 1.747 0-.583.524-1.283.263-1.747 0m2.32 7.88c-.351.252-.688.516-1.156.516-.7 0-1.275.51-1.975.252.352-.642 1.046-.252 1.512-.642.346-.39 1.046-.26 1.62-.126m-.117 3.862c0 .137.469.137.117.392-.228.123-.574-.157-.574.123v.267c-.469.126-1.17.386-1.512-.126.58-.656 1.283-.519 1.969-.656m1.397 3.36c-.343.645-1.042-.126-1.397.387-.235-.387-.686.129-.923-.252.577-.521 1.623-.264 2.32-.135m-.343-10.71c-.126 0-.354.127-.468-.13 0-.126 0-.258.114-.258s.147-.085.228 0c.126.13.469.258.126.387m1.043.516c-.351.131-.583.257-.938 0 .355-.255.587-.255.938 0m-1.043 6.583c.343.126 1.017.123.929.645-.125.65-.929.39-1.394 0 .111-.255.225-.645.465-.645m1.275 1.813c.111.123.228.513 0 .513-.47.126-1.172 0-1.172-.39 0-.516.876-.456 1.172-.123m-1.626 2.444c.454 0 1.157-.126 1.626 0 .228.135.342.65.111.902-.694-.905-1.845-.38-2.897-.38-.232 0-.355-.136-.469-.262.469-.39 1.155-.26 1.626-.26m1.857 1.034c0 .131.114.39-.117.518-.111 0-.228-.129-.457-.129-.125 0-.125-.132-.237-.258.237-.13.583-.13.811-.13M40.484 47.94c.467-.138 1.064-.882 1.395-.516.114.126.463-.135.578 0 .237.378.58.255.925.516.123.126 0 .258-.115.258-.925 0-1.857.131-2.782-.258m1.857-3.876c-.232 0-.117-.51-.349-.64.346-.26.735-.304 1.043-.134.232.135.583.135.812.387-.343.645-1.04.129-1.506.393m.114-11.494c.123 0 .123.132.237.132-.237.258-.468.258-.583 0 0-.132.232-.132.343-.132m-2.432-1.031c.343 0 .572.093.93 0 .46-.126.802 0 1.159.126-.357.135-.46.387-.7.519-.46.26-1.049-.132-1.5-.384 0-.135 0-.264.111-.264m-.928.264h.462c.117 0 .117.129.117.252-.234.264-.702.412-.702 0 0-.123.123-.252.123-.252m-.469 2.578c.469-.126.931 0 1.397.128-.349.261-.7 0-1.051.261.585 0 1.169-.39 1.623.255-.812.39-1.737.39-2.66.135-.352 0-.58-.135-.932.123-.117-.384-.235-.513-.578-.648.692-.38 1.518-.061 2.204-.255m-1.046 2.708a5.6 5.6 0 0 1 2.903 0c0-.126 0-.255.112-.255.468 0 1.157-.39 1.397.255.117.39-.343.264-.469.264-1.845.24-3.712.281-5.566.125.465-.644 1.043-.249 1.623-.389m-.228 10.072c-.238.26-.469.26-.812.26a2 2 0 0 1-.931-.26 2.03 2.03 0 0 1 1.743 0m-.238 3.612c-.692.387-1.74.387-2.555.132.24-.516.569-.39.929-.39.583 0 1.163-.257 1.626.255m-3.135-9.418v.26c-.583.255-1.28.516-1.968.13.577-.39 1.274-.13 1.969-.39m-.115 3.618-.123.129c.586.515 1.283-.393 1.743.123 0 .129-.293.017-.343.129-.47 1.031-1.749.65-2.554.386-.352-.123-.815-.123-1.163-.386.7-.381 1.622-.768 2.44-.381m-3.72 1.154c.354-.123.568 0 .928 0 .585 0 1.052-.249 1.626-.123.126.123.231.383.47.515-.239.384-.698 0-1.044.13v.386c-.815.519-1.515-.26-2.209-.648.114-.128.114-.255.228-.255m-.228 3.484c.228-.126.351.126.469.258 0 .132 0 .387-.118.387-.35 0-.697.131-1.048-.129.237-.126.465-.387.697-.516m-.697 3.226q3.304-.202 6.618-.39c-.586-.39-1.28 0-1.857-.126 0 0-.466-.263-.115-.39 1.62-.515 3.375-.195 5.1-.515.704-.132 1.393.126 1.624.77.234.516-.454.261-.572.261-1.165.126-2.44-.39-3.48.255a3.7 3.7 0 0 1 2.086.135s.466.255.114.255c-1.388.26-2.669.515-3.94.515-.59.135-1.283-.126-1.867-.255-1.506-.125-3.135-.125-4.64-.125.234-.39.7-.39.929-.39m2.906 1.292c-.237.123-.352.255-.586.255-.115 1.034-1.272.518-1.855 1.034-.351.123-.351-.39-.582-.516.354-.264.814-.129 1.282-.264.226 0 .115-.386.115-.386-.815-.258-1.626.26-2.438 0-.12-.126-.462-.384-.234-.384 1.743-.39 3.48-.516 5.223 0v.261c-.35 0-.697-.135-.925 0m-4.764 9.677c-.231 0-.231-.39-.345-.642 0-.39.512-.548.688-.39.468.39.82.123 1.283.123.469.138 1.043-.38 1.512-.513.232 0 .46.132.697.261.228 0 .578-.26.812 0-1.398 1.16-3.018.906-4.647 1.16m4.297.78c-.12 0-.12.252-.12.387-.468.38-1.153.255-1.508 0-.46-.261-.811.38-1.275-.135 1.39-.516 2.907-.645 4.295-1.157.692-.264 1.506-.39 2.321 0a7.6 7.6 0 0 1-3.713.905m3.713-2.97c-.812.38-1.743.254-2.672.254-1.392-.255-2.555.39-3.943.776-.115 0-.232-.26-.232-.26.352-.516.932-.39 1.392-.642.114-.129-.46-.129-.46-.129.574-.521 1.275-.135 1.852-.26l-.112-.261c0-.258.343-.258.463-.384.578-.126 1.166.126 1.737-.126.232-.263.469-.65.812-.782h.7l.111.26c-.223.387-.577.387-.922.648.11 0 .11.126.11.255.235 0 .463 0 .701-.255.343-.126.463.255.698.518.114.124-.12.252-.235.387m.928-1.936c-.117-.264-.462-.132-.58-.132-1.048-.384-2.092.135-3.02.387-.342.126-1.04.387-1.16 0-.115-.519.586-.252.932-.645.228-.126.694.126.925 0 1.16-.516 2.324-.516 3.484-.258 1.157.132 2.437.132 3.478.903-.689.263-1.27.263-1.969.263-.349 0-.464-.515-.812-.65-.465 0-.929-.132-1.278.135m6.965 8.385c-.233.518-.689.126-1.043.255-.346.135-1.043.468-1.043 0 0-.126.114-.387.228-.387.343 0 .583-.126.812-.258.357 0 .703-.255 1.046 0zm.114-3.229c-.114.261-.58.39-.689.135 0-.261.108-.525.232-.78-1.278.129-2.44 0-3.718.255-.698.264-1.532.495-1.974 0-.118-.123-.466-.255-.118-.38 1.166-.39 2.67.644 3.37-.651.925.26 1.85-.252 2.668.26.352.13.352.771.229 1.161m.123-19.105c.225-.126.65.138.688.264.126.384-.345 0-.574.123 0-.123-.465-.249-.114-.387m.343 8.78.117.126c.583.39.694 1.296.117 1.296-.234 0-.578-.909-.234-1.422m.471 2.714c0-.261.23-.261.463 0-.234.125-.463.255-.463 0m.575 1.672a1.63 1.63 0 0 1-.46-1.03c0-.127.225-.127.345-.127.115 0 .065.141.115.255.114.261.228.65 0 .905m.468-11.232c-.24.126-.703-.516-.24-.773 0 0 .187.011.238.131.114.255.23.642 0 .642m.348 14.59c-.117 0-.117-.132-.117-.264 0-.126.117-.126.117-.252.228.123.228.384 0 .515m.809-17.041c-.226.129-.346-.126-.458-.252 0-.135.232-.135.343-.135.115 0 .115.135.232.135 0 .126 0 .252-.117.252m0-1.673c0-.126-.346-.126-.115-.387.232-.26.58-.132.58.126 0 .135-.234.387-.465.26m1.282 15.484c-.357-.896-.125-1.939-.357-2.97 0-.252.358-.123.463-.123.238 0 .469.258.469.39-.111.902.117 2.062-.575 2.703m-.465-6.187c.108-.138.108-.393.342-.267.126 0 .206.172.126.264-.126.123-.126.255-.24.255-.12 0-.12-.129-.228-.255m-.351-1.031c-.112-.135 0-.261.117-.261.234 0 .577-.13.805.126 0 0 .126-.126.238-.126q.178.193.348.387c-.348.39-1.157.255-1.508-.123m.35-3.36c0-.258.51-.467.698-.258.112.131 0 .386-.126.386h.7c.127 0 .815.123.47.258-.343.258-1.043-.135-1.399.258 0-.258-.342 0-.342-.258 0-.114 0-.223.073-.249q-.07-.038-.073-.138m.929-7.613c0 .255-.586.384-.93.255.11-.132.23-.384.47-.384.228 0 .574-.138.46.126m-.463-3.094h.231l-.126.123zm.577 9.29c.114-.132.355-.132.469-.132 0 .126.412.25.158.37a.28.28 0 0 1 .185.28c0 .25-.346.384-.583.384-.229 0-.343-.513 0-.647a1 1 0 0 1 .143-.05.95.95 0 0 1-.375-.205m-.231-1.681h-.238c0-.126-.462-.255-.105-.381-.237-.264-.237-.65 0-.777.231 0 .463-.129.691.126.115.135.469.26.469.387-.228.39-.818-.126-1.157.264.228 0 .574-.135.802.126 0 .126 0 .255-.114.255zm.12 2.322c0 .126 0 .261-.12.261-.238 0-.58.13-.7-.135 0-.249.357-.249.588-.249.112 0 .112.123.232.123m1.04-2.452c-.229.13-.46.259-.698 0q.359-.377.698 0m-.229 1.032c-.117-.249-.583-.375-.468-.773.126-.126.237 0 .237.131 0-.131.114-.131.231-.131.228.131.345.395.228.647 0 0-.114.126-.228.126m-1.275-2.83c-.125 0-.125-.136-.125-.26.357-.52 1.058-.262 1.515-.262.113 0 .113.13.234.13-.466.517-1.046.391-1.623.391m.806-5.164c-.229-.129-.463-.645-.115-.908.2.003.399.046.584.126.344.137.582 0 .697.39.111.262-.115.262-.238.392-.345.123-.688.123-.928 0m.126 4.125c0 .131.457.26.11.39a2 2 0 0 1-.937-.259c.238-.257.586-.128.827-.128m-1.29 4.385h.234c0 .126.484.387.126.387-.126 0-.36.13-.468-.123 0-.135 0-.264.108-.264m1.049 3.618c0-.26.469-.386.583-.131.114.257 0 .772-.231.772-.237.13-.352-.386-.352-.64m.697 14.713c-.231-.906-.525-2.127.114-2.84.12-.131.355 0 .355.124-.126.907 0 1.939-.469 2.715m.47-5.165c-.127-.132-.235-.132-.235-.252.234-.65-.235-1.423.46-1.813.234.645.12 1.421-.225 2.062m.574-2.967q-.17.194-.349.39c-.112 0-.225 0-.225-.126 0-.39 0-.906.345-.906a.3.3 0 0 1 .097-.02L50 56.2l.114-.135v.243c.267 0 .381.375.115.665m-3.484-23.751c.123 0 .123.132.123.26h.93c0-.128 0-.263.104-.263.126 0 .238.263.238.263.348-.263.814 0 1.045.252-.697.525-1.512 0-2.205 0-.58 0-1.275.138-1.86-.252.81-.644 1.748-.644 2.677-.644 1.043 0 1.968-.261 3.011 0-1.28.77-2.668 0-4.06.381m5.335 35.634c-.812-.39 0-1.556-.111-2.462.11 0 .11-.512.351-.126 0 .126 0 .126-.123.264 0 .123.038.158.123.252.114.13.343.13.343.261 0 .387.117.516 0 .77-.117.388-.465 1.167-.583 1.041" style="stroke-width:.75"/></svg>