<svg xmlns="http://www.w3.org/2000/svg" viewBox="0 0 100 100"><path fill="#164194" d="M0 0h100v100H0z"/><path fill="#fff" d="M43.99 32.277a7 7 0 0 0-1.806.531 5.2 5.2 0 0 0-1.356.86c-.428.382-.747.846-1.212 1.2-1.344 1.02-4.022 1.123-5.102-.359l.233-.362c.81.836 2.14 1.037 3.243.85a3.44 3.44 0 0 0 2.235-1.33 3.7 3.7 0 0 1 .588-.606 3.7 3.7 0 0 1 .618-.428c.153-.08.58-.143.56-.345H15.222c.124.598-.102 1.37-.764 1.531h-1.226l.508 2.037h2.51l-1.516 1.562 1.47 1.534a3.18 3.18 0 0 1 2.445-1.554c1.477-.088 2.7.948 3.637 1.98.882.97 1.336 2.329 2.568 2.94 1.44.724 3.025.334 4.126-.807.478.5.901 1.055 1.257 1.65a18 18 0 0 1 1.178 2.039 18.4 18.4 0 0 1 1.422 4.292c.703 3.524.031 7.066-1.408 10.312a12.6 12.6 0 0 0 1.02 6.262c.655 1.507 1.643 2.7 2.769 3.877 1.226 1.276 2.493 2.568 3.924 3.626.14-.113 6.853-5.926 15.195-13.156H52.7a1.044 1.044 0 0 1-.928-1.057h3.792l6.971-6.045H49.82l-.934-1.29h14.713c.307-.028.6-.148.838-.347l6.14-5.32H46.018l-.903-1.278H71.63c.643-.06 1.132-.597 1.597-1.003l2.114-1.835 3.487-3.022-38.819.01-.896-1.253h40.442c.73-.07 1.379-.603 1.916-1.07l1.804-1.57a646 646 0 0 1 3.493-3.044H43.991Zm-15.043-1.034c0 .178.253-.072.267-.115.05-.112.04-.232.101-.336a1.84 1.84 0 0 1 .827-.687c.87-.402 1.646-.132 2.548-.154.948-.033 1.902-.412 2.381-1.276.17-.302.325-.603.466-.913.135-.31.43-.753.402-1.11a4 4 0 0 1-2.804.589c-.51-.103-.895-.379-1.367-.574a2.7 2.7 0 0 0-1.882-.115 2.54 2.54 0 0 0-1.513 1.53 2.75 2.75 0 0 0-.023 1.702c.138.491.583.942.594 1.456zM26.01 33.59c.595.092 1.22.511 1.858 1.085-.508.383-1.18.03-1.6-.143-.238-.098-1.002.379-1.083-.023-.11-.557.27-.9.828-.919" style="stroke-width:.735363"/></svg>