<svg xmlns="http://www.w3.org/2000/svg" viewBox="0 0 100 100"><path fill="#00265D" d="M0 0h100v100H0z"/><path fill="#fff" d="M62.311 30.977c1.846 2.184 4.54 2.965 6.26 1.707 1.08-.795 1.477-2.231 1.245-3.803 1.021.154 2.016.466 3.205.941.585.198 1.284-2.254.375-2.34-9.779-1.407-15.207 6.484-15.074 6.357 1.51-1.133 2.758-2.099 3.992-2.862m5.577.902c-1.29 1.047-3.441.393-4.957-1.277 2.043-1.264 3.773-1.859 5.633-1.835.38 1.202.053 2.534-.676 3.112m-48.708 3.48a38.3 38.3 0 0 1 8.426-14.668c16.847-7.11 38.567-7.06 54.845 6.045-10.212-5.206-40.415-10.748-63.271 8.626m-.976 18.06a37.7 37.7 0 0 1-.306-12.118c11.922-12.125 29.762-20.1 48.49-16.183-10.252.029-34.823 7.048-48.184 28.299m6.375 14.922a37.7 37.7 0 0 1-4.79-9.09c7.094-15.015 20.769-28.097 39.148-30.945-9.143 3.452-28.209 17.48-34.355 40.038m11.571 10.688a38 38 0 0 1-7.67-6.013c2.452-15.872 12.145-32.466 27.656-41.08a9.4 9.4 0 0 0-1.575 5.735c-9.04 9.168-18.018 23.402-18.414 41.36m14.345 5.006a39.8 39.8 0 0 1-8.819-2.26c.107-14.373 4.763-31.433 13.22-41.895.471 1.832 1.362 3.718 2.804 5.6 6.694-7.874 14.416-13.445 24.004-15.908-13.074 4.965-33.424 20.8-31.21 54.463" style="stroke-width:.680818"/></svg>