<svg xmlns="http://www.w3.org/2000/svg" viewBox="0 0 100 100"><path fill="#001633" d="M0 0h100v100H0z"/><path fill="#1f74df" d="M12.5 47.33c.32-.02.53-.052.744-.052 2.08.01 4.166.012 6.249.038 2.865.03 5.514.809 7.896 2.412.524.354 1.005.776 1.468 1.21q5.005 4.69 9.999 9.392c.178.165.366.316.58.504.19-.155.36-.287.516-.434l22.99-21.603c.98-.923 1.971-1.832 2.938-2.77 2.16-2.1 4.655-3.729 7.333-5.077a34 34 0 0 1 11.344-3.397c.972-.115 1.945-.212 2.9-.318.141.323-.097.406-.22.52a3611 3611 0 0 1-6.928 6.553L43.44 69.116c-1.084 1.026-2.156 2.063-3.24 3.088-.212.2-.437.381-.645.56-.557-.346-26.526-24.733-27.056-25.433" style="stroke-width:.750016"/></svg>