<svg xmlns="http://www.w3.org/2000/svg" viewBox="0 0 100 100"><path fill="#C0DBF9" d="M0 0h100v100H0z"/><path fill="#20417c" d="M39.59 12.507a26 26 0 0 0-2.53.25c-.947.145-2.043.374-2.959.626-4.377 1.208-8.165 3.692-10.523 6.905a13 13 0 0 0-1.53 2.725 9.7 9.7 0 0 0-.741 3.644c0 .844.138 1.743.352 2.335.43 1.16 1.321 2.177 2.595 2.96 1.97 1.21 4.732 1.763 7.53 1.5a15 15 0 0 0 6.826-2.36 14.1 14.1 0 0 0 3.787-3.705c.273-.39.29-.431.29-.621 0-.124-.005-.165-.037-.223a.54.54 0 0 0-.244-.244.4.4 0 0 0-.222-.046c-.12 0-.123.003-.668.27-2.057 1.007-3.885 1.734-5.326 2.13-.765.207-1.55.345-2.344.403a11.5 11.5 0 0 1-1.957-.043c-2.153-.267-3.768-1.286-4.304-2.719a3.4 3.4 0 0 1-.12-1.872c.158-.777.58-1.582 1.24-2.373.202-.24.78-.809 1.042-1.026a11.5 11.5 0 0 1 3.094-1.807c1.936-.761 3.85-1 5.542-.674 1.744.331 3.244 1.227 4.173 2.496.129.176.21.296.51.812.5.85.787 1.73.9 2.777.034.31.031 1.362-.01 1.71-.123 1.12-.366 2.18-.812 3.526-.468 1.402-1.581 3.512-3.067 5.8-.923 1.427-1.875 2.771-4.11 5.812-2.782 3.783-3.97 5.49-5.314 7.635-3.463 5.53-4.983 11.375-4.53 17.438.094 1.25.31 2.78.498 3.503.815 3.088 2.256 6.187 4.134 8.862a31.2 31.2 0 0 0 8.595 8.224l.405.266.314.023c.765.068.952.074 2.247.074 1.35 0 1.664-.009 2.75-.097 2.128-.164 4.744-.562 6.225-.943l.066-.017-.335-.156a24.8 24.8 0 0 1-8.296-6.407 24 24 0 0 1-3.1-4.705 23.38 23.38 0 0 1-2.127-14.4 20.4 20.4 0 0 1 1.708-5.55c.061-.13.378-.74.7-1.345a1335 1335 0 0 0 5.306-10.196l.334-.65.032.114a33.7 33.7 0 0 0 13.24 18.477 34.1 34.1 0 0 0 16.604 5.939l.44.035.108.011.24-.486a40 40 0 0 0 2.482-6.172l-.492-.035a28.57 28.57 0 0 1-22.023-12.551 27.8 27.8 0 0 1-4.704-13.86c-.126-2.072-.03-3.375.468-6.407.12-.733.176-1.128.223-1.603q.343-3.344-.493-6.157a12.2 12.2 0 0 0-1.634-3.429 10.3 10.3 0 0 0-2.42-2.499q-2.461-1.692-6.333-1.898a36 36 0 0 0-1.695-.006m0 0" style="stroke-width:.749988"/></svg>