<svg xmlns="http://www.w3.org/2000/svg" viewBox="0 0 100 100"><path fill="#55555C" d="M0 0h100v100H0z"/><path fill="#fff" d="m49.775 82.033 3.035 6.3a22.17 22.17 0 0 0 11.803-5.648c4.473-4.06 6.861-8.772 8.178-16.254.295-1.66.805-4.794 1.423-8.604l.237-1.488q2.36-14.935 4.7-29.872h-7.914a13804 13804 0 0 1-4.516 30.099l-.223 1.49c-.348 2.283-.65 4.24-.875 5.656-2.138 13.514-7.883 15.762-15.848 18.32m-.559-12.06h8.48l6.765-43.495h-7.412L52.354 60.52 36.682 26.477h-9.068L20.848 69.97h7.455l4.708-33.94Zm0 0" style="stroke-width:.618666"/></svg>