<svg xmlns="http://www.w3.org/2000/svg" viewBox="0 0 100 100"><path fill="#FFEC00" d="M0 0h100v100H0z"/><path d="M38.3 60.063c-.122 1.97.331 3.545 1.994 4.54 1.642 1.087 4.379 1.667 8.91 1.667 4.636 0 9.753-.883 10.575-4.73.603-2.856-1.3-3.653-6.299-4.242l-18.16-2.266c-11.903-1.48-17.193-5.814-15.261-14.894 3.072-14.48 16.468-19.017 36.474-19.017 14.2 0 31.593 2.557 29.553 17.74H62.628c.283-2.265-.887-3.74-2.787-4.534-1.88-.88-4.576-1.184-7.245-1.184-6.01 0-9.85 1.38-10.628 5.03-.354 1.677.71 3.152 5.907 3.747L65.5 43.888c14.056 1.58 20.21 6.016 17.993 16.463C80.81 72.971 67.528 78.88 45.347 78.88c-14.792 0-34.246-2.648-31.298-18.816zm0 0" style="stroke-width:.725023"/></svg>