<svg xmlns="http://www.w3.org/2000/svg" viewBox="0 0 100 100"><path fill="#FFCC08" d="M0 0h100v100H0z"/><path d="M55.598 12.382a5.7 5.7 0 0 0-1.557.168c-1.885.493-13.433 3.956-25.764 15.65-11.21 10.634-14.552 20.194-15.551 23.063-.973 2.868 1.328 5.67 4.367 5.575 3.027-.082 9.032-.681 12.785-.726v.003c-.127.826-.611 7.46-1.225 12.383-.623 5.163-3.069 13.316-2.38 15.592 1.001 3.215 5.051 4.226 10.92 3.065 7.786-1.552 35.428-12.57 43.972-18.966 5.782-4.32 9.564-13.86 2.475-20.559-10.208-9.658-7.923-21.329-23.051-33.42-1.45-1.149-3.333-1.79-4.99-1.828m.135 3.16c2.584.159 4.056 2.245 7.175 5.255 4.17 4.034 12.338 20.88 13.59 22.98 1.255 2.114 6.551 6.023 7.524 9.205 1.34 4.382-.035 8.124-2.904 11.68-3.73 4.624-14.342 8.506-26.575 13.708-12.205 5.2-21.573 8.488-25.211 6.14-2.107-1.358.534-9.461 1.71-16.197 1.179-6.71 1.29-12.362 1.29-12.362l2.884-.032s-.502 5.414-1.432 11.15c-1.22 7.53-2.904 11.816-.949 13.558 2.604 2.328 16.077-4.543 19.933-6.457 18.166-8.972 23.054-13.637 26.422-16.967 2.21-2.18.609-1.458-2.954-.547-3.6.905-18.06-.244-27.186-1.84-9.14-1.57-25.632-.799-29.067-.276-3.422.518-5.129-1.09-4.762-2.116 2.187-6.081 4.946-11.339 12.876-20.147 7.941-8.83 19.762-14.558 24.58-16.215 1.21-.413 2.195-.574 3.056-.52m-.157 14.07q-.288.013-.592.081c-1.59.382-3.366 2.949-3.77 3.739-.418.8 1.107.343 1.954-.206.852-.538 2.034-.705 3.465-1.852 1.24-1.01.283-1.822-1.057-1.762"/><path fill="#ea2227" d="M57.684 68.736c2.434-1.62 4.46-2.24 4.436-3.374-.03-1.144-2.428-5.685-8.159-4.103-5.73 1.575-9.931 4.232-12.735 8 0 0 1.693-3.521 3.96-5.71 2.262-2.179 2.99-2.634 2.99-2.634s-4.02-1.846-7.28.455c-3.244 2.288-5.107 4.715-5.939 9.681-.823 4.953.403 6.963 1.579 7.242 1.163.268 4.073-.931 5.581-1.684 1.52-.73 13.149-6.24 15.567-7.873"/></svg>