<svg xmlns="http://www.w3.org/2000/svg" viewBox="0 0 100 100"><path fill="#279bd4" d="M0 0h100v100H0z"/><path fill="#da1a15" d="M13.392 36.724c15.018-3.752 49.846-9.6 58.43 8.975 2.139 4.63 5.682-.7 14.782 5.094-6.612 2.028-7.859 7.639-15.795 12.137-14.435 8.18-37.217 1.774-57.417 3.57v-.307c8.571-.866 14.826-.806 15.624-2.943.578-1.544-4.127-2.344-8.746-2.447v-.16c14.48.113 26.083-1.216 34.457-5.332 6.11-3.006 4.925-6.5-6.507-11.133-3.08-4.625-8.004-7.68-34.828-7.03Zm0 0" style="stroke-width:.732155"/></svg>