<svg xmlns="http://www.w3.org/2000/svg" viewBox="0 0 100 100"><path fill="#E6222E" d="M0 0h100v100H0z"/><path fill="#fff" d="m77.66 40.593-10.006 8.71-.108.094 12.469 22.03a2.13 2.13 0 0 1-.314 2.489l-1.825 1.91-20.47-13.606 3.695-5.865-.873-.58-9.039 7.869c-9.897 8.584-21.006 13.538-28.992 12.937-3.228-.243-5.724-1.365-7.417-3.357-4.717-5.464-1.96-16.318 6.846-27.023l1.037.685c-4.664 6.477-5.892 12.68-3.117 15.838 1.095 1.277 2.651 2.001 4.626 2.156 4.892.372 11.798-2.842 18.468-8.598l2.494-2.215-30.715-20.423 1.925-1.679a5.13 5.13 0 0 1 4.977-.99l43.084 14.426 1.187-1.023-.197-.126c-3.214-2.136-6.208-6.037-5.232-9.585l7.342-6.39a19.7 19.7 0 0 1 7.579-4.11 19.7 19.7 0 0 1 7.046-.74c2.259.188 4.145.833 4.807 1.636.387.475 1.143 1.89-.207 4.88-1.377 3.033-4.428 6.619-9.062 10.656zm0 0" style="stroke-width:.749998"/></svg>