<svg xmlns="http://www.w3.org/2000/svg" viewBox="0 0 100 100"><path fill="#1E2E5D" d="M0 0h100v100H0z"/><path fill="#fff" d="M67.368 10.492C32.672 14.19 0 20.986 0 28.856c0 1.282 2.08 3.318 5.595 5.739 4.97-4.779 21.408-9.02 41.597-12.225 5.422-4.088 12.43-8.022 20.176-11.878" style="stroke-width:.75" transform="translate(12.5 9.877)"/><path fill="#cc3b40" d="M47.195 22.369c-20.19 3.203-36.635 7.448-41.596 12.223-1.005.97-1.548 1.957-1.548 2.962 0 1.236 1.917 3.158 5.18 5.449 1.148-1.084 2.895-2.142 5.133-3.167 5.271-2.406 13.297-4.626 22.916-6.586a324 324 0 0 1 14.502-2.578c5.344-3.946 12.147-7.75 19.64-11.481a485 485 0 0 0-24.227 3.175" style="stroke-width:.75" transform="translate(12.5 9.877)"/><path fill="#f6d547" d="M44.235 60.015a12.5 12.5 0 0 1-.63-3.149C42.874 46.086 56.927 36.654 75 27.66c-7.969.85-15.835 1.863-23.218 3.015-5.103.797-9.978 1.658-14.502 2.578-9.62 1.96-17.648 4.18-22.916 6.589-2.238 1.022-3.984 2.08-5.132 3.167-1.04.984-1.6 1.989-1.6 3.017 0 4.172 21.879 16.216 43.758 23.728-3.812-3.375-6.115-6.613-7.155-9.739" style="stroke-width:.75" transform="translate(12.5 9.877)"/></svg>