<svg xmlns="http://www.w3.org/2000/svg" viewBox="0 0 100 100"><path fill="#00728e" d="M0 0h100v100H0z"/><path fill="#b39759" d="M87.767 17.077C83.055 21.766 70.821 22 63.785 21.483c-7.303-.534-20.221-2.868-22.528-3.057-1.348-.083-2.998-.136-4.541.567-1.549.717-2.947 2.213-3.647 4.352a6 6 0 0 0-.286 1.833c-.024 2.153 1.177 4.304 2.708 6.225 1.163-1.354 4.406-4.535 9.405-4.644q1.216-.022 2.44-.027c4.78 0 6.803.316 11.238.449.505.012 1.18.026 1.994.026 3.674 0 10.089-.272 15.786-1.776 5.81-1.355 9.955-4.338 11.413-8.35m-4.222 6.508c-2.022 1.234-4.429 2.14-6.925 2.8-5.845 1.543-12.325 1.81-16.046 1.81-.672 0-1.348-.013-2.02-.03-4.488-.133-6.49-.443-11.213-.443q-1.088 0-2.41.027c-4.32.076-7.297 2.761-8.51 4.107l-.284.327c1.538 1.768 3.267 3.299 4.406 4.38.855.825 3.14 2.572 5.863 4.84a5.85 5.85 0 0 1 1.626-2.569l-.003-.006c1.613-1.504 4.647-2.72 10.202-2.968 10.98-.51 12.677-1.086 16.678-3.155 3.555-1.837 7.352-5.431 8.636-9.12m-4.355 7.138a16.3 16.3 0 0 1-3.822 2.838h-.005v-.006c-4.075 2.134-6.147 2.78-17.09 3.27-8.97.434-10.51 4.308-10.852 5.423a109 109 0 0 1 3.502 3.104c2.083 1.95 4.187 3.945 5.949 6.001-.018-5.352 4.11-6.027 5.077-6.609 1.27-.77 3.91-1.198 9.578-4.438 6.063-3.464 7.397-8.214 7.663-9.583" style="stroke-width:.75535"/><path fill="#a6a8ab" d="M35.072 18.14c-4.608-.06-13.416 1.3-16.157 7.019a8.2 8.2 0 0 0-.835 3.638c-.073 7.362 9.265 16 14.373 21.598 4.897 5.423 10.828 10.54 13.702 16.054.684 1.322 1.295 3.17 1.231 5.076-.16 4.612-1.783 6.276-2.6 6.83C62.484 68.913 59.138 59.8 59.138 59.8c-.735-4.231-4.79-9.318-9.191-13.407-4.415-4.12-8.814-7.554-10.28-8.962-2.385-2.351-8.059-6.842-8.115-12.25 0-.723.115-1.467.352-2.201.79-2.485 3.068-3.936 4.856-4.74a16 16 0 0 0-1.688-.1m-17.396 7.89c-1.791 2.01-7.976 10.036-4.302 21.354 1.316 4.06 5.73 9.433 10.38 16.154 4.482 6.477 5.506 14.854 5.264 19.386 13.939-.62 16.983-6.347 17.028-11.222V71.7a9.56 9.56 0 0 0-1-4.332c-2.707-5.222-8.342-10.47-13.284-15.936-4.983-5.576-14.774-14-14.845-22.313 0-1.087.313-2.07.759-3.089" style="stroke-width:.75535"/></svg>