<svg xmlns="http://www.w3.org/2000/svg" viewBox="0 0 100 100"><path fill="#FFCC05" d="M0 0h100v100H0z"/><path fill="#001f60" d="m62.833 27.623-5.408 4.675c-.152 3.996-.5 13.615-.52 14.91-.025 1.524.888 7.336.888 7.336l-.01.034-20.615 17.8h17.288ZM37.167 72.377s-4.623-2.001-7.074-2.619c-1.716-.258-11.139-1.365-14.025-1.703l-5 4.322zm18.965-38.961-5.665 4.898c.334 2.705.984 7.842 1.209 9.073.286 1.56 2.722 6.956 2.722 6.956s1.298-6.463 1.35-7.196c.076-1.118.293-9.969.384-13.731m-6.792 5.871-4.643 4.015c.535 1.686 1.465 4.572 1.79 5.381.383.958 3.838 6.327 3.838 6.327s.36-6.321.24-7.44c-.094-.858-.81-5.575-1.225-8.283m-5.534 4.786-4.286 3.705a103 103 0 0 0 2.152 3.287c.87 1.213 5.086 5.365 5.086 5.365s-1.092-6.558-1.33-7.333c-.218-.73-1.12-3.487-1.622-5.024m-5.182 4.48-3.812 3.295c.815.879 2.128 2.27 2.578 2.632.38.307 6.089 4.182 6.089 4.182s-2.357-6.183-2.79-6.943c-.388-.684-1.435-2.239-2.065-3.167m-4.728 4.087-3.91 3.38 4.003 2.658c.782.52 6.825 2.804 6.825 2.804s-3.816-5.578-4.291-6.092c-.38-.41-1.78-1.867-2.627-2.75m-4.839 4.184-4.932 4.264a706 706 0 0 0 7.382 2.547l7.29 1.22s-4.454-4.483-5.435-5.161c-.723-.499-3.11-2.08-4.305-2.87m-5.99 5.178-5.653 4.888c2.356.338 11.91 1.704 12.83 1.728 1.053.024 7.334-.095 7.334-.095s-5.65-3.395-6.472-3.698c-1.293-.487-6.086-2.15-8.04-2.823"/><path fill="#ee2a29" d="M37.168 72.377h43.388l8.376-44.754zm0 0"/></svg>