<svg xmlns="http://www.w3.org/2000/svg" viewBox="0 0 100 100"><path fill="#1A488D" d="M0 0h100v100H0z"/><path fill="#fff" d="M86.374 75.205s-50.21-4.649-58.94-30.108c.221-3.135 7.826 3.705 8.49 5.874.668 2.168 1.61-8.148-4.779-8.548-1.069-.066 4.657-2.663 7.434-2.666 2.776-.008 10.108.921 10.617 9.074.105 1.674 3.183-8.542 3.183-8.542s.65-7.278-7.428-6.94c-8.08.335-11.152 3.2-11.152 3.2s1.052-5.814 5.84-5.874 4.933.935 3.718-2.668c-1.217-3.606-5.31-3.206-5.31-3.206a11.67 11.67 0 0 0-9.556 9.617c-.177.886-.785-6.335-6.9-6.409-1.094-.01-7.95 2.09-7.431 8.548.09 1.115 3.914-2.17 5.84-2.136s4.246 2.668 4.246 2.668-10.814-1.532-10.617 11.216c.011.728 1.69-5.393 7.962-4.808.273.026-5.093 4.402-2.12 9.08.503.79.12-5.337 4.777-6.409 1.714-.395 2.726 24.758 62.126 29.037" style="stroke-width:.727488"/></svg>