<svg xmlns="http://www.w3.org/2000/svg" viewBox="0 0 100 100"><path fill="#FDC33C" d="M0 0h100v100H0z"/><path fill="#e31f26" fill-rule="evenodd" d="m12.5 80.05 23.364-54.323q.07-.171.083-.357c.01-.779-.584-1.18-.962-1.344-.876-.343-1.438-1.067-1.438-1.93 0-1.187 1.157-2.146 2.581-2.146h25.42l14.556.047c4.426 0 8.343 2.608 9.975 6.437.935 2.326 1.421 4.846 1.421 7.509a20.13 20.13 0 0 1-3.48 11.32c-4.688 6.95-12.375 11.115-20.675 11.115h-17.57L38 74.64c-.037.102-.1.234-.1.357 0 .44.308.815.678.98.884.336 1.44 1.066 1.44 1.924 0 1.19-1.154 2.15-2.577 2.15zm36.43-30.767 9.855-22.902s1.575-.038 2.102.042c1.08.17 1.907.421 2.76.922 3.943 2.318 4.25 8.906.67 14.716-2.707 4.41-6.645 7.16-11.54 7.195zm0 0" style="stroke-width:.75"/></svg>