<svg xmlns="http://www.w3.org/2000/svg" viewBox="0 0 100 100"><path fill="#064D2F" d="M0 0h100v100H0z"/><path fill="#b39907" d="M79.391 49.5c0 1.045 1.817 2.931 2.717 2.931.699 0 2.148-1.965 2.511-2.51-.167-.714-1.975-2.928-2.51-2.928-1.14 0-2.717 2.508-2.717 2.508M57.424 26.284c0 1.652 2.148-.42 4.814-.42 1.062 0 1.141.206 2.3.206-.484 1.821-3.975 2.783-3.975 5.857l.015 7.955c-.24.892-.748 1.617-.437 2.297.67.672 4.819-2.267 4.819-6.274v-7.512c.237-.64.592-.983 1.091-1.438.69-.619 3.464-2.804 3.6-3.5.16-.82-.367-.946-1.335-.955-4.855-.062-5.744-1.024-8.528 1.331-.578.49-2.364 1.913-2.364 2.453m19.249 18.195c0 1.479 2.302 2.93 2.508 2.93 1 0 1.836-2.203 2.9-2.188 1.289.027 1.846 2.192 2.957 2.192.57 0 2.508-2.198 2.508-2.515 0-.918-.478-1.229-.985-1.724-.655-.646-.857-1.203-1.734-1.203-1.103 0-1.57 2.3-2.719 2.3-.548 0-2.12-1.637-2.297-2.3-1.454 0-1.22.018-1.86.86-.345.457-1.278 1.026-1.278 1.648M42.781 27.744c0 1.323.27 2.265 1.206 2.98l.249.173c.59.376.698.49.93 1.165l.105.311c.053.126.127.229.232.393 3.426-.798 4.016-7.744 7.809-.909.624 1.127 1.72 3.215 1.417 4.485-.596 2.467-6.087 4.725-6.087 6.468 0 1.01.566 1.259 1.375 1.552 4.24 1.513 6.653 1.921 10.696 4.368 2.035 1.231 2.569 2.07 2.569 4.538 0 3.502-4.397 4.866-7.19 5.567-5.895 1.487-26.883 2.379-31.565-2.163-1.202-1.167-1.33-1.305-.988-2.777h22.178c1.752.018 2.649-.136 3.609-.989l3.449-3.24c.56-.544.812-.553.886-1.418-1.065-.87-.976.434-5.02.42q-2.723-.009-5.438 0l.488-.766c.237-.293.351-.396.6-.65 3.802-3.814 2.902-2.456 2.887-10.303-.006-3.2.625-3.124.625-4.6-1.784 0-1.01.687-3.23 2.415-2.302 1.795-1.584 4.045-1.58 8.463.005 4.675-1.238 3.901-.212 5.441H22.078c-2.024 0-5.442.454-5.442-2.3 0-1.936 1.667-1.898 3.556-1.89 3.308.019 6.734.743 9.154-1.718.514-.525 4.248-3.717 1.722-3.717-.8 0-.68 1.019-2.49 1.06-3.2.076-6.78-.309-9.225 1.443l-3.705 3.411c-1.616 1.628-3.194 2.142-3.194 4.755 0 2.921 4.444 4.013 7.333 3.963.93-.018 1.613-.211 1.572.543 0 .038-.533 1.411-.625 1.69-.343 1.149-.334 2.396-.334 3.637 0 4.56 8.71 6.784 12.552 6.901 1.229.039 1.59.212 2.722.212-3.587 7.477 3.247 11.085 9.41 11.085 6.9 0 9.912-.71 15.866-3.16.698-.29 1.643-.674 2.332-1.02 1.487-.737 2.93-1.268 4.356-2.13 2.68-1.628 4.975-3.4 6.914-5.846 3.922-4.963 6.256-9.803 1.769-15.311-3.544-4.351-5.843-2.896-1.831-7.98 2.197-2.783 2.971-5.092.352-8.33-3.033-3.737-3.118-3.661-6.383-.625-.522.493-.821.616-1.363 1.144-.523.508-1.016.728-1.094 1.628 2.243 1.558 1.22-1.707 4.13 2.148 5.212 6.931-3.292 7.626-3.292 11.031 0 .834.256.948.78 1.309 3.162 2.188 8.425 2.816 8.425 7.691 0 3.611-3.479 6.09-5.92 7.462-3.517 1.98-8.468 3.567-12.906 4.042l-9.627.637c-1.784-.03-4.124-.282-5.885-.815-1.628-.502-3.314-1.367-3.734-3.172 3.113 0 7.392-.642 10-1.29 5.359-1.34 10.287-3.104 14.245-6.887l.307-.32c1.834-1.971 3.694-4.866 3.694-8.448 0-5.333-6.853-7.122-10.754-8.917-.75-.347-.921-.531-.772-1.016.502-1.697 3.781-2.111 3.781-5.546 0-2.502-.29-4.52-1.548-6.609-.637-1.05-2.104-3.013-3.468-3.013-1.314 0-1.678 1.11-2.352 1.836-2.842 3.04-4.76 1.414-4.76-.166 0-1.802 1.155-2.04.833-3.556-1.673 0-1.928.628-2.984 1.825-.598.69-1.414 2.2-1.414 3.405"/></svg>