<svg xmlns="http://www.w3.org/2000/svg" viewBox="0 0 100 100"><defs><linearGradient id="a" x1="0" x2="1" y1="0" y2="0" gradientTransform="matrix(-48.6593 -71.06633 71.06508 -48.66012 63.48 85.446)" gradientUnits="userSpaceOnUse"><stop offset="0" stop-color="#BE0000" stop-opacity=".996"/><stop offset="1" stop-color="red"/></linearGradient><linearGradient id="b" x1="0" x2="1" y1="0" y2="0" gradientTransform="matrix(.65558 -7.49333 7.4932 .65558 63.262 54.511)" gradientUnits="userSpaceOnUse"><stop offset="0" stop-color="#FFF"/><stop offset=".65" stop-color="#FFF"/><stop offset=".95" stop-color="#A2A5A3"/><stop offset="1" stop-color="#A2A5A3"/></linearGradient><linearGradient id="c" x1="0" x2="1" y1="0" y2="0" gradientTransform="matrix(31.53833 0 0 31.53888 53.629 74.287)" gradientUnits="userSpaceOnUse"><stop offset="0" stop-color="#FFF"/><stop offset=".9" stop-color="#A2A5A3"/><stop offset="1" stop-color="#A2A5A3"/></linearGradient><linearGradient id="d" x1="0" x2="1" y1="0" y2="0" gradientTransform="matrix(35.25442 0 0 35.255 14.24 41.574)" gradientUnits="userSpaceOnUse"><stop offset="0" stop-color="#FFF"/><stop offset=".43" stop-color="#FFF"/><stop offset="1" stop-color="#A2A5A3"/></linearGradient></defs><path fill="url(#a)" d="M0 0h100v100H0z"/><path fill="#fff" d="M18.286 28.756c10.746 10.973 28.93 15.074 31.21 36.27a1.94 1.94 0 0 0 1.63 1.706 72.05 72.05 0 0 1 34.039 15.043l.012.004q.097.082.226.082a.4.4 0 0 0 .25-.097.376.376 0 0 0 .012-.516A72.5 72.5 0 0 0 60.25 63.967l-2.957-1.188a4.05 4.05 0 0 1-2.528-3.855c.168-6.332 15.145-5.043 16.665-8.086l.257-.527a27.9 27.9 0 0 0-10.78-5.723c-.036.148-.134.89.683 2.223.898 1.46-.973 3.77-3.696 1.273l-.23-.211c-20.234-18.539-35.406-8.918-43.426-29.73z"/><path fill="url(#b)" d="M60.189 49.189v5.051c2.183-.629 4.663-1.02 6.76-1.457v-2.812s-3.315.16-5.354-3.157a1.58 1.58 0 0 1 0 1.606 1.57 1.57 0 0 1-1.407.77" style="fill:url(#b)"/><path fill="url(#c)" d="M53.629 67.166a72 72 0 0 1 31.536 14.61c-15.207-13-24.48-14.981-28.75-14.981-1.684 0-2.59.308-2.785.375" style="fill:url(#c)"/><path fill="url(#d)" d="M14.243 18.139s-1.286 3.742 4.047 10.617c5.332 6.875 28.926 15.07 31.21 36.262-2.307-27.047-14.186-23.004-26.947-35.313-3.294-2.344-6.084-5.777-8.31-11.566" style="fill:url(#d)"/></svg>