<svg xmlns="http://www.w3.org/2000/svg" viewBox="0 0 100 100"><path fill="#BBB" d="M0 0h100v100H0z"/><path fill="#662046" d="M99.63 0C89.627 5.896 77.94 13.483 64.847 23.172c-33.63 24.882-46.338 48.56-46.7 49.016-.414.521-1.007 1.363-.386 2.03.81.843 1.909 1.898 4.314.382 2.414-1.515 2.885-2.329 3.164-2.291.286.065.334.842-.21 1.855-.505.885-2.73 3.032-3.971 3.02-.474-.013-.348.234-.348.234a45 45 0 0 0 5.687 5.826s.838 1.22 3.415.184c3.037-1.237 5.546-3.007 8.584-7.688 3.05-4.691 7.226-13.544 10.136-24.433 0 0-2.28 1.916-4.17 1.14 0 0 .665-2.952 3.078-4.982 2.408-2.02 3.377-1.977 3.377-1.977l1.565-7.14c2.793 3.582 3.91 8.715 2.879 14.341 0 0 3.173-2.26 4.554-8.341 0 0 3.649 11.374-.492 19.607-3.692 7.316-11.201 10.858-13.1 11.615-1.891.758-1.266 1.201-.146 1.201 1.14 0 4.85-.577 8.014-1.69 2.376-.85 3.71.01 5.736 2.921 2.03 2.92 10.64 15.943 14.695 20.885q.462.563.932 1.113h20.7c-5.908-.529-9.712-1.127-9.712-1.756 0-.753 5.516-1.433 13.559-2.06v-7.305c-10.465-.62-18.154-1.371-18.154-2.172 0-.813 7.682-1.564 18.154-2.184v-7.091c-11.952-.653-21.125-1.467-21.125-2.348 0-.891 9.169-1.701 21.125-2.352v-7.189c-11.685-.642-20.574-1.447-20.574-2.31 0-.881 8.889-1.686 20.574-2.329v-8.797c-14.225-4.281-18.614-11.315-18.857-11.591-.589-.806.035-1.54.775-1.534 3.31-.03 6.662.23 10.281-1.322 4.704-1.994 5.39-4.478 5.39-4.478-4.886-.274-15.175-.728-22.874-.868 0 0-.85-.061-.85-.474.006-1.104 1.61-2.067 1.61-2.067q9.9-6.658 24.525-13.789V9.813c-12.414 5.359-24.08 11.475-34.88 18.652-.65.394-1.438-.57-.37-1.219.484-.23 13.651-9.834 27.455-16.545A793 793 0 0 1 100 5.746V0z"/></svg>