<svg xmlns="http://www.w3.org/2000/svg" viewBox="0 0 100 100"><path fill="#C20831" d="M0 0h100v100H0z"/><path fill="#fff" d="M41.378 66.23v.006l12.02-8.732-.487-1.513-8.661 6.29 1.464-4.486-1.29-.935-2.55 7.848a13.13 13.13 0 0 1-4.727-13.138l-1.323-.963a14.64 14.64 0 0 0 5.554 15.624m7.982-8.59-8.665-6.293h4.718l.49-1.514h-8.25a13.17 13.17 0 0 1 11.038-8.557l.512-1.555a14.71 14.71 0 0 0-13.147 10.113l12.016 8.733Zm-8.024-19.46h.084c-.055-.66-.29-1.051-.702-1.209-1.497-.558-2.3-1.794-2.3-3.169 0-1.568 1.003-2.548 2.267-2.548 1.79 0 2.438 2.087 4.483 2.087.732 0 1.336-.43 1.336-.8v-.222h-.382c-2.568 0-2.964-2.58-5.437-2.58-2.11 0-3.783 1.672-3.783 4.063 0 2.412 1.865 4.375 4.433 4.375M17.652 55.026h9.207v-.078a6.1 6.1 0 0 1-2.427-1.435h-6.78c-3.45 0-4.466-.313-6.175-2.163h23.397q.147-.765.382-1.512H8.18l1.045 1.241c2.748 3.251 3.77 3.947 8.43 3.947m28.317-23.553a2.11 2.11 0 0 0 2.116-2.098c0-1.029-.47-1.444-.96-1.444a.78.78 0 0 0-.774.77c0 .458.415.769.722.769-.399.601-.996.81-1.77.752a.77.77 0 0 0 .058-.797.78.78 0 0 0-.686-.416c-.379 0-.764.366-.764.82.006.86.81 1.644 2.055 1.644M38.418 64.55H27.326c-3.049 0-4.199-.255-5.61-1.597h-2.09c2.24 2.534 3.485 3.11 7.703 3.11h12.624a18 18 0 0 1-1.535-1.513m-5.103-2.17v-.074a6 6 0 0 1-2.434-1.438h-6.773c-3.055 0-4.202-.249-5.614-1.588h-2.09c2.24 2.526 3.482 3.1 7.707 3.1zm-3.225-3.675v-.088a6.2 6.2 0 0 1-2.428-1.422H20.88c-3.048 0-4.198-.254-5.609-1.597H13.18c2.237 2.536 3.483 3.107 7.703 3.107zm23-25.057c-.754 0-1.518.922-1.796 2.265q.696.05 1.382.154c.301-1.17.824-1.715 1.255-1.788-.153-.36-.448-.627-.84-.627m-3.094 6.045-4.59 14.137 1.287.934 3.3-10.178 1.463 4.49h1.589l-2.543-7.851a13.17 13.17 0 0 1 11.543 7.851h1.631a14.7 14.7 0 0 0-13.673-9.384m8.19.768V38.92A17.06 17.06 0 0 0 50 36.68a17.06 17.06 0 0 0-8.2 2.229v1.552a16 16 0 0 1 8.2-2.274c2.993 0 5.787.856 8.191 2.274m-15.65-2.95a20 20 0 0 1 1.183-.504c-.196-.585-.566-1.254-1.255-1.254-.35 0-.62.278-.732.605.32.117.578.394.8 1.153m.83 28.215-1.323.964a14.6 14.6 0 0 0 16.569-.454h.007l-4.592-14.134h-1.587l3.304 10.174-3.817-2.77-1.284.938 6.675 4.848a13.07 13.07 0 0 1-13.951.434m3.96-29.663a16 16 0 0 1 1.385-.15c-.284-1.34-1.045-2.265-1.797-2.265-.398 0-.69.272-.846.628.437.078.96.621 1.255 1.787m-2.739-1.405a.91.91 0 0 0-.807.595c.324.046.768.313 1.088 1.366a18 18 0 0 1 1.282-.333c-.308-1.046-.867-1.631-1.563-1.631m35.787 28.298h-2.091c-1.405 1.339-2.555 1.597-5.604 1.597H61.586a16 16 0 0 1-1.535 1.51h12.627c4.215 0 5.453-.572 7.695-3.107m-31.278-13.12-.496 1.514h10.7l-3.813 2.773.487 1.51 6.688-4.855a13.11 13.11 0 0 1-3.911 13.402l.51 1.552a14.64 14.64 0 0 0 4.692-15.902zm39.429 1.514c-1.712 1.843-2.724 2.166-6.175 2.166h-6.783c-.768.703-1.502 1.15-2.43 1.434v.088h9.213c4.652 0 5.679-.705 8.423-3.953l1.052-1.238H64.752q.228.74.376 1.509h23.397zM48.514 28.59 50 27.51l1.498 1.087-.57-1.754 1.49-1.088h-1.846L50 23.997l-.568 1.755h-1.853l1.497 1.085zm35.08 30.686h-2.091c-1.405 1.34-2.551 1.59-5.607 1.59h-6.783c-.767.703-1.505 1.15-2.43 1.44v.083h9.213c4.218 0 5.463-.587 7.698-3.113m3.225-3.679h-2.09c-1.41 1.336-2.556 1.598-5.61 1.598h-6.78c-.765.692-1.5 1.15-2.431 1.43v.082h9.213c4.218 0 5.463-.574 7.698-3.11M58.267 36.361c-.115-.324-.383-.598-.732-.598-.686 0-1.06.663-1.255 1.255q.607.225 1.186.499c.213-.768.48-1.046.8-1.156m-9.217-2.846c.419.483.667.846.932 1.447l.02.026.019-.026a5.4 5.4 0 0 1 .931-1.447 5.6 5.6 0 0 0-.947-1.483c-.314.307-.795 1.064-.951 1.483m4.45-1.193v.222c0 .37.597.795 1.34.795 2.041 0 2.692-2.082 4.48-2.082 1.26 0 2.27.977 2.27 2.551 0 1.376-.81 2.608-2.301 3.17-.418.153-.65.546-.708 1.209h.094c2.565 0 4.43-1.967 4.43-4.378 0-2.395-1.669-4.065-3.783-4.065-2.474 0-2.865 2.581-5.437 2.581zm-1.588-2.953c0 1 .81 2.094 2.12 2.094 1.246 0 2.05-.78 2.05-1.647 0-.454-.384-.816-.766-.816a.77.77 0 0 0-.682.415.77.77 0 0 0 .058.797c-.774.055-1.368-.15-1.767-.755a.786.786 0 0 0 .722-.768.78.78 0 0 0-.778-.767c-.486.003-.957.424-.957 1.447m-1.918-.585A1.212 1.212 0 1 0 50 31.208a1.212 1.212 0 1 0 0-2.424m6.227 6.475a.9.9 0 0 0-.81-.593c-.695 0-1.254.58-1.562 1.626q.652.143 1.288.333c.317-1.052.758-1.323 1.084-1.366" style="stroke-width:.836411"/></svg>