<svg xmlns="http://www.w3.org/2000/svg" viewBox="0 0 100 100"><defs><linearGradient id="a" x1="0" x2="1" y1="0" y2="0" gradientTransform="matrix(73.41809 -52.39142 52.39184 73.4175 14.208 68.47)" gradientUnits="userSpaceOnUse"><stop offset="0" stop-color="#20294E"/><stop offset=".5" stop-color="#005695"/><stop offset="1" stop-color="#26B5E3"/></linearGradient><linearGradient id="b" x1="0" x2="1" y1="0" y2="0" gradientTransform="matrix(73.78159 -46.345 46.34542 73.781 35.217 77.18)" gradientUnits="userSpaceOnUse"><stop offset="0" stop-color="#20294E"/><stop offset="1" stop-color="#005F9B"/></linearGradient><linearGradient id="c" x1="0" x2="1" y1="0" y2="0" gradientTransform="matrix(-65.76817 -69.30463 69.30517 -65.76763 74.933 73.742)" gradientUnits="userSpaceOnUse"><stop offset="0" stop-color="#20294E"/><stop offset=".295" stop-color="#005695"/><stop offset=".904" stop-color="#26B5E3"/><stop offset="1" stop-color="#26B5E3"/></linearGradient></defs><path fill="#005695" d="M0 0h100v100H0z"/><path fill="url(#a)" d="M70.707 12.93c-7.336 2.484-17 6.578-26.965 10.347 5.524 2.555 10.965 4.961 15.297 6.907 14.04-5.739 24.8-8.957 24.8-8.957s-1.75 4.53-9.32 15.941c3.653 1.625 8.184 3.539 11.106 4.457 10.684-14.687 17.5-28.105 12.93-32.691-.79-.793-1.793-1.664-4.77-1.664-3.652 0-10.265 1.304-23.078 5.66" style="fill:url(#a)" transform="matrix(.75 0 0 .75 12.501 12.5)"/><path fill="url(#b)" d="M54.43 69.523c3.75 2.887 6.535 1.372 9.472-.816.02-.016-.293.285-.855.793 3.894-3.3 8.723-8.375 15.613-16.863a2717 2717 0 0 0-10.226-6.117Zm0 0" style="fill:url(#b)" transform="matrix(.75 0 0 .75 12.501 12.5)"/><path fill="url(#c)" d="M4.145 10.395a4 4 0 0 1-.727.023c-.297-.016-.848.437-.848.437-12.746 7.485 25.168 68.2 41.989 79.434 2.332 1.559 6.59 3.25 10.34 2.016.433-.14 1.386-.86 1.425-.91.074-.07 11.18-12.98 11.18-13-.14-1.024-1.18-.415-1.305-.32-4.332 3.152-8.129 1.386-19.812-10.49C33.94 54.962 21.879 32.86 21.879 32.86l56.055 25.25c3.718 1.668 5.808.72 6.886.02.301-.195 10.45-12.418 10.45-12.418.066-.852-.875-.383-.875-.383-3.27 2.05-5.762.524-11.043-1.598-3.567-1.433-41.149-18.042-54.532-24.398-17.18-8.145-21.902-8.957-23.992-8.957q-.339 0-.683.023" style="fill:url(#c)" transform="matrix(.75 0 0 .75 12.501 12.5)"/></svg>