<svg xmlns="http://www.w3.org/2000/svg" viewBox="0 0 100 100"><path fill="#6b6969" d="M0 0h100v100H0z"/><path fill="#a6844b" d="M76.321 56.993s1.417 1.48 1.93 3.55c0 0-3.066-.24-4.292.712 0 0 .091.849 1.514 2.378 0 0 .265.456-.358.85-.593.381-3.56.579-3.666-2.552 0 0-1.923 2.324-4.54 1.978 0 0-2.064-.252-2.192-2.191 0 0 1.985.382 3.566-.35 0 0-.07-1.29-1.87-2.553 0 0 1.411-1.831 4.632-2.701 0 0-.642-2.788.281-5.6.943-2.821 1.405-3.496 1.646-4.11.267-.59.558-2.064.078-3.633 0 0 7.467-.156 7.491 7.84.003 0 .083 4.448-4.217 6.382m-8.417 13.73-4.369-2.01 4.311-1.408 4.12 1.879zm-7.36-7.251c-2.503-.156-3.424-2.646-3.424-2.646-1.246 1.648-3.837 1.381-3.837 1.381-2.088-.462-2.232-2.277-2.232-2.277 2.296-.46 2.886-1.292 2.886-1.292-.52-1.472-3.016-2.28-3.016-2.28 1.502-2.374 4.709-3.567 4.709-3.567-1.253-1.298-1.608-2.593-1.933-4.724-.326-2.19.243-5.56.243-5.56.638-3.02 1.79-4.485 2.773-5.768 1.058-1.255 2.106-1.106 2.106-1.106 1.396.155 2.66.905 2.66.905 1.66.976 2.855 2.412 3.4 3.163.501.756 2.124 4.383.103 8.937-2.019 4.491-4.092 5.348-4.092 5.348 3.119 3.007 3.103 4.354 3.103 4.354-2.577 0-3.261 1.437-3.261 1.437.632 1.253 2.478 1.719 2.478 1.719-.533 2.076-2.664 1.976-2.664 1.976m-1.647 6.649a1.581 1.581 0 0 1 0-3.163c.842 0 1.535.688 1.535 1.588a1.56 1.56 0 0 1-1.535 1.572m-8.845 0-4.19-1.688 4.19-1.696 4.275 1.696zm-7.068-9.292s-.933 2.49-3.432 2.646c0 0-2.12.097-2.636-1.974 0 0 1.8-.468 2.462-1.72 0 0-.686-1.438-3.276-1.438 0 0-.031-1.347 3.13-4.354 0 0-2.119-.857-4.122-5.348-2.006-4.554-.41-8.18.125-8.937a11.4 11.4 0 0 1 3.387-3.163s1.253-.747 2.681-.905c0 0 1.016-.146 2.064 1.11.988 1.279 2.192 2.744 2.794 5.763 0 0 .58 3.372.247 5.561-.308 2.134-.666 3.426-1.928 4.724 0 0 3.177 1.195 4.69 3.566 0 0-2.504.81-3.009 2.28 0 0 .596.834 2.88 1.296 0 0-.098 1.812-2.26 2.274 0 0-2.542.267-3.8-1.38m-1.751 9.29a1.603 1.603 0 0 1-1.602-1.569c0-.848.747-1.538 1.602-1.538.87 0 1.523.69 1.523 1.538a1.52 1.52 0 0 1-.431 1.107 1.53 1.53 0 0 1-1.092.463m-9.054.604-4.102-1.517 4.164-1.9 4.298 1.438zM24.949 64.6c-.566-.413-.374-.863-.374-.863 1.432-1.495 1.556-2.359 1.556-2.359-1.237-.958-4.277-.709-4.277-.709.507-2.106 1.912-3.545 1.912-3.545-4.32-2.018-4.204-6.43-4.204-6.43 0-7.955 7.485-7.834 7.485-7.834-.472 1.563-.168 3.038.06 3.67.24.586.742 1.23 1.672 4.082.898 2.812.271 5.561.271 5.561 3.193.89 4.6 2.724 4.6 2.724-1.815 1.271-1.815 2.563-1.815 2.563 1.532.747 3.545.35 3.545.35-.14 1.955-2.223 2.185-2.223 2.185-2.578.34-4.533-1.957-4.533-1.957-.085 3.113-3.049 2.942-3.675 2.562M87.38 50.38c1.59-.538 1.401-2.313 1.401-2.313-.34-2.073-2.505-1.779-2.505-1.779 1.374-1.611.283-2.866.283-2.866-1.065-1.332-2.743-.475-2.743-.475.767-1.705-.245-2.562-.245-2.562-1.35-1.183-2.743.042-2.743.042-.042-1.666-1.243-2.043-1.243-2.043-1.42-.614-2.454.663-2.454.663-1.04-2.858-3.082-1.396-3.56-1.195-.486.283-.531 0-.531 0-.095-3.454-3.041-2.159-3.041-2.159a2.12 2.12 0 0 0-.584-2.696c-1.514-.934-2.769.373-2.769.373-.153-2.28-1.848-1.602-2.38-1.4-.514.114-1.621.157-1.621.157-3.487-.432-4.767-.231-4.767-.231-4.247-.082-7.816 6.95-7.816 6.95v.06l-.064-.06s-3.627-7.032-7.856-6.95c0 0-1.295-.2-4.767.226 0 0-1.082-.038-1.62-.153-.535-.2-2.227-.875-2.344 1.401 0 0-1.271-1.307-2.786-.373 0 0-1.389.972-.601 2.696 0 0-2.943-1.295-3.037 2.16 0 0-.012.282-.539 0-.464-.198-2.498-1.664-3.535 1.194 0 0-1.059-1.277-2.457-.663 0 0-1.218.377-1.258 2.043 0 0-1.411-1.225-2.763-.042 0 0-1.022.857-.272 2.562 0 0-1.638-.857-2.671.475 0 0-1.1 1.255.291 2.866 0 0-2.237-.294-2.548 1.78 0 0-.17 1.774 1.393 2.312 0 0-1.833.855-1.499 2.329 0 0 .104 1.465 2.007 1.751 0 0-1.59 1.052-.934 2.533 0 0 .636 1.727 2.676 1.225 0 0-.766 1.772.413 2.575 0 0 1.12.952 2.499.012 0 0 .72-.261 1.022.256 0 0 .517.836-.58 2.057 0 0 5.927-.51 7.524 9.048h48.442c1.604-9.557 7.606-9.048 7.606-9.048-1.119-1.221-.575-2.057-.575-2.057.271-.517.991-.256.991-.256 1.39.94 2.53-.012 2.53-.012 1.146-.803.389-2.575.389-2.575a2.207 2.207 0 0 0 2.721-1.225c.584-1.478-.972-2.533-.972-2.533 1.896-.286 1.984-1.751 1.984-1.751.329-1.474-1.493-2.329-1.493-2.329M26.314 77.408a41 41 0 0 1 .13 2.164H73.53s.04-.982.131-2.024c.11-1.132.228-2.038.228-2.038H26.077s.149.955.237 1.898m21.044-46.962s-1.514-.033-2.511.46c0 0 3.515.941 5.214 5.01 1.708-4.068 5.205-5.01 5.205-5.01-.931-.493-2.512-.46-2.512-.46-.155-.535-.747-.952-.747-.952a7.8 7.8 0 0 1 1.382-1.167l-3.328-7.895-3.314 7.901s.909.605 1.362 1.161c0 0-.607.417-.751.952" style="stroke-width:.778283"/></svg>