<svg xmlns="http://www.w3.org/2000/svg" viewBox="0 0 100 100"><path fill="#FA260F" d="M0 0h100v100H0z"/><path fill="#f5d759" fill-rule="evenodd" d="M50.023 71.77c-5.043-.053-9.645-2.11-12.223-5.008-4.126-4.641-4.875-12.062-4.43-20.465 8.478-11.718 24.84-11.709 33.315.007.444 8.397-.304 15.823-4.43 20.465-2.579 2.901-7.18 4.948-12.232 5" style="stroke-width:.843905"/><path fill="#fa260f" fill-rule="evenodd" stroke="#ca171e" stroke-linecap="round" stroke-linejoin="round" stroke-miterlimit="22.926" stroke-width=".384" d="M50.023 69.733c-1.793 0-3.556-.475-5.109-1.378-5.054.583-7.266-2.852-7.252-6.231-3.376-.623-1.21-3.464-1.636-6.442-.5-3.517-.794-6.836 1.698-7.571 1.18-.346 2.855 1.408 2.578 2.617l.518-2.245c1.104-4.757 5.527-5.97 9.203-6.02 3.66-.052 7.612 1.669 9.103 6.026l.46 1.732c.311-1.595.822-3.27 2.615-2.875 2.934.646 1.994 4.611 1.513 8.677-.323 2.749 2.024 5.347-1.378 5.808.738 3.06-2.637 6.827-6.975 6.517-2.09 1.266-4.052 1.368-5.338 1.384"/><path fill="#fff" fill-rule="evenodd" stroke="#a81117" stroke-linecap="round" stroke-linejoin="round" stroke-miterlimit="22.926" stroke-width=".294" d="M43.919 66.644c-2.114.408-2.99-1.444-2.579-2.555l1.827-4.902c.241-.656 1.193-1.018 1.929-1.018 1.68 0 1.624.774 4.928.807 3.31-.034 3.253-.807 4.937-.807.74 0 1.688.362 1.93 1.018l1.825 4.902c.412 1.111-.454 2.94-2.578 2.555-5.59-1.015-7.07-1.01-12.223 0"/><path fill="#02114c" d="M44.881 68.483a6.8 6.8 0 0 1-2.832-.042 6 6 0 0 1-3.474-2.265 5.82 5.82 0 0 1-1.17-3.568q.01-.487.118-.942l2.661-11.498a.2.2 0 0 1 .09-.128.196.196 0 0 1 .283.08c.409.688.801 1.265 1.23 1.657.346.363.827.564 1.328.55.33-.016.666-.115 1.031-.224.581-.167 1.23-.362 2.087-.323a3.85 3.85 0 0 1 1.863.69c.577.388 1.075.903 1.305 1.44a.18.18 0 0 1-.01.182c-.287.574-.972 1.22-1.806 1.713-.762.459-1.661.798-2.49.86a2.5 2.5 0 0 1-.368 0c-1.226-.042-2.298-.757-3.082-1.802a7.2 7.2 0 0 1-1.345-3.405l-2.384 10.3a4.4 4.4 0 0 0-.106.857c-.033 1.134.353 2.324 1.092 3.323a5.6 5.6 0 0 0 3.24 2.107 6.5 6.5 0 0 0 1.246.154c1.826.05 2.996-.616 4.031-1.21 2.169-1.235 3.013-1.242 5.19-.002 1.037.593 2.208 1.259 4.034 1.209a6.3 6.3 0 0 0 1.249-.155 5.57 5.57 0 0 0 4.332-5.426 4.5 4.5 0 0 0-.106-.863l-2.383-10.305c-.154 1.256-.633 2.47-1.342 3.412-.79 1.048-1.862 1.757-3.082 1.806h-.003l-.369-.003a6 6 0 0 1-2.495-.86c-.827-.498-1.513-1.141-1.804-1.718a.22.22 0 0 1-.01-.181 3.7 3.7 0 0 1 1.312-1.44 3.83 3.83 0 0 1 1.86-.687c.85-.039 1.506.155 2.087.323.368.11.705.211 1.027.225a1.75 1.75 0 0 0 1.332-.55c.422-.393.821-.967 1.23-1.655a.22.22 0 0 1 .129-.106.21.21 0 0 1 .244.148l2.66 11.498q.108.46.115.946a5.76 5.76 0 0 1-1.173 3.567 5.96 5.96 0 0 1-3.468 2.265 7.1 7.1 0 0 1-2.535.092l-.04.03c-.856.442-1.76.785-2.696 1.018a10.5 10.5 0 0 1-2.69.363 10.6 10.6 0 0 1-2.69-.385 10 10 0 0 1-2.452-1.072" style="stroke-width:.843905"/><path fill="none" stroke="#02114c" stroke-linecap="round" stroke-linejoin="round" stroke-miterlimit="22.926" stroke-width=".957" d="M44.881 68.483a6.8 6.8 0 0 1-2.832-.042 6 6 0 0 1-3.474-2.265 5.82 5.82 0 0 1-1.17-3.568q.01-.487.118-.942l2.661-11.498a.2.2 0 0 1 .09-.128.196.196 0 0 1 .283.08c.409.688.801 1.265 1.23 1.657.346.363.827.564 1.328.55.33-.016.666-.115 1.032-.224.58-.167 1.23-.362 2.086-.323a3.85 3.85 0 0 1 1.863.69c.577.388 1.075.903 1.305 1.44a.18.18 0 0 1-.01.182c-.287.574-.972 1.22-1.806 1.713-.762.459-1.661.798-2.49.86a2.5 2.5 0 0 1-.368 0c-1.226-.042-2.298-.757-3.082-1.802a7.2 7.2 0 0 1-1.345-3.405l-2.384 10.3a4.2 4.2 0 0 0-.106.857c-.033 1.134.353 2.324 1.092 3.323a5.6 5.6 0 0 0 3.24 2.107 6.5 6.5 0 0 0 1.246.154c1.826.05 2.996-.616 4.031-1.21 2.169-1.235 3.013-1.242 5.19-.002 1.037.593 2.208 1.259 4.034 1.21a6.3 6.3 0 0 0 1.249-.156 5.57 5.57 0 0 0 4.332-5.426 4.5 4.5 0 0 0-.106-.863l-2.383-10.305c-.154 1.256-.633 2.47-1.342 3.412-.79 1.048-1.862 1.757-3.082 1.806h-.003l-.369-.003a6 6 0 0 1-2.495-.86c-.827-.498-1.513-1.141-1.804-1.718a.22.22 0 0 1-.01-.181 3.7 3.7 0 0 1 1.312-1.44 3.83 3.83 0 0 1 1.86-.687c.85-.039 1.506.155 2.087.323.368.11.705.211 1.027.225a1.75 1.75 0 0 0 1.332-.55c.422-.393.821-.967 1.23-1.655a.22.22 0 0 1 .129-.106.21.21 0 0 1 .244.148l2.66 11.498c.072.307.11.62.115.947a5.76 5.76 0 0 1-1.173 3.566 5.96 5.96 0 0 1-3.468 2.265 7.1 7.1 0 0 1-2.535.092l-.04.03c-.856.442-1.76.785-2.696 1.018a10.5 10.5 0 0 1-2.69.363 10.6 10.6 0 0 1-2.69-.385 10 10 0 0 1-2.452-1.072m0 0"/><path fill="#fa260f" d="M47.624 67.342a9.8 9.8 0 0 1-2.179 1.002c.62.346 1.299.624 2.004.822.83.237 1.708.362 2.581.372.825 0 1.722-.132 2.578-.353a12.7 12.7 0 0 0 2.203-.78 9.1 9.1 0 0 1-2.401-1.066c-2.034-1.16-2.743-1.167-4.786 0" style="stroke-width:.843905"/><path fill="#fff" d="M41.512 52.073a5.6 5.6 0 0 1-.844-1.018c.093 1.302.564 2.594 1.3 3.567.714.955 1.68 1.598 2.767 1.644h.008q.157.005.322-.006a5.4 5.4 0 0 0 2.315-.804c.732-.436 1.335-.983 1.609-1.477a3.34 3.34 0 0 0-1.128-1.173 3.54 3.54 0 0 0-1.645-.625c-.788-.035-1.404.146-1.955.307a4.5 4.5 0 0 1-1.127.245 2.18 2.18 0 0 1-1.622-.66m17.01-.007a2.17 2.17 0 0 1-1.622.663c-.376-.02-.731-.125-1.127-.24a5.7 5.7 0 0 0-1.958-.31 3.54 3.54 0 0 0-1.652.622 3.3 3.3 0 0 0-1.121 1.173c.277.496.878 1.04 1.61 1.477.72.433 1.552.75 2.313.809q.164.01.324.003h.003c1.09-.042 2.059-.692 2.778-1.645a6.9 6.9 0 0 0 1.302-3.56v-.01a5.7 5.7 0 0 1-.85 1.018" style="stroke-width:.843905"/><path fill="#02114c" fill-rule="evenodd" d="M44.954 64.821c-1.454.204-1.148-.88-.867-1.635l1.248-3.357c.166-.447.815-.695 1.323-.695 1.144 0 1.11.313 3.365.34 2.265-.027 2.23-.34 3.376-.34.508 0 1.154.247 1.325.695l1.243 3.357c.287.755.614 1.905-.844 1.698-4.114-.574-6.068-.633-10.169-.064" style="stroke-width:.843905"/><path fill="#fff" fill-rule="evenodd" stroke="#fff" stroke-linecap="round" stroke-linejoin="round" stroke-miterlimit="22.926" stroke-width=".294" d="m53.283 61.692 1.57 2.186h-1.57zm-1.601 1.319h1.157v.867h-1.16zm-1.487 0h1.16v.867h-1.16zm-1.549 0h1.16v.867h-1.16Zm-1.494 0h1.16v.867h-1.16zm-.418-1.32-1.572 2.187h1.572zm6.177-.305 1.372-1.365h-1.37zm-1.404-.824h1.015v-.541h-1.02zm-1.308 0h1.018v-.541h-1.019Zm-1.355 0h1.018v-.541h-1.018zm-1.313 0h1.022v-.541h-1.02zm-.365.824-1.378-1.365h1.378zm0 0"/><path fill="#fa260f" fill-rule="evenodd" d="M49.931 61.343c1.078 0 2.51.64 2.868 1.312h-5.63c.455-.65 1.688-1.312 2.762-1.312" style="stroke-width:.843905"/><path fill="#fff" fill-rule="evenodd" d="M40.892 48.671c.692.63 1.378 1.095 2.176 1.124 1.019.033 2.037-.487 3.043-.37 2.252.27 3.517 2.328 3.481 4.32-.623-1.161-2.04-2.123-3.435-2.16-1.322-.033-2.252.632-3.069.6-.903-.026-1.893-1.236-2.459-2.367.099-.52.187-.758.263-1.148m18.25-.025c-.692.63-1.384 1.094-2.18 1.127-1.008.034-2.036-.491-3.039-.369-2.248.27-3.517 2.334-3.487 4.318.633-1.16 2.05-2.122 3.438-2.158 1.325-.03 2.255.632 3.075.599.903-.03 1.893-1.236 2.45-2.37-.093-.52-.178-.755-.257-1.148" style="stroke-width:.843905"/><path fill="#02114c" d="M45.29 52.215a1.775 1.775 0 0 1 0 3.55 1.767 1.767 0 0 1-1.256-3.03 1.76 1.76 0 0 1 1.256-.517m.969.808a1.376 1.376 0 0 0-2.34.969c0 .382.155.722.402.97a1.36 1.36 0 0 0 1.938 0 1.373 1.373 0 0 0 0-1.94" style="stroke-width:.843905"/><path fill="#02114c" fill-rule="evenodd" d="M45.29 53.563a.43.43 0 1 1 0 .861.43.43 0 1 1 0-.86" style="stroke-width:.843905"/><path fill="#02114c" d="M54.77 52.172a1.76 1.76 0 0 0-1.648 1.091 1.77 1.77 0 0 0 .396 1.942 1.77 1.77 0 0 0 1.256.524 1.78 1.78 0 0 0 1.256-.524 1.77 1.77 0 0 0 0-2.515 1.77 1.77 0 0 0-1.26-.518m-.968.81a1.376 1.376 0 0 1 1.94 0 1.38 1.38 0 0 1 .301 1.498 1.375 1.375 0 1 1-2.241-1.496" style="stroke-width:.843905"/><path fill="#02114c" fill-rule="evenodd" d="M54.77 53.517a.42.42 0 0 0-.428.432.429.429 0 0 0 .653.403.43.43 0 0 0 .204-.403.44.44 0 0 0-.121-.307.42.42 0 0 0-.308-.125" style="stroke-width:.843905"/><path fill="#a81117" fill-rule="evenodd" d="M37.764 53.339c.267-.775.873-.785.824-2.295-.092-.794-1.227-.79-1.44.199-.093 2.29-.262 7.4-.024 6.89.235-.509.353-4.068.64-4.794m24.11 0c-.27-.775-.869-.785-.827-2.295.093-.794 1.224-.79 1.437.199.093 2.29.264 7.4.027 6.89-.238-.515-.35-4.068-.637-4.794" style="stroke-width:.843905"/><path fill="#02114c" fill-rule="evenodd" d="M50.175 42.915c.475.422.88 1.036 1.16 1.728.298.708.469 1.493.469 2.215s-.198 1.563-.498 2.304c-.304.755-.722 1.417-1.15 1.757a.21.21 0 0 1-.26-.006c-.446-.363-.881-1.029-1.198-1.794a6.3 6.3 0 0 1-.494-2.274c0-.778.142-1.55.439-2.248a4.4 4.4 0 0 1 1.255-1.695.21.21 0 0 1 .274.017" style="stroke-width:.843905"/><path fill="#fff" fill-rule="evenodd" d="M50.963 44.801a4.6 4.6 0 0 0-.943-1.477 4.2 4.2 0 0 0-1.008 1.435 5.2 5.2 0 0 0-.402 2.086c0 .679.18 1.447.464 2.123.26.632.6 1.187.956 1.523.333-.32.657-.864.903-1.477a6 6 0 0 0 .462-2.15c0-.675-.161-1.407-.432-2.063" style="stroke-width:.843905"/><path fill="#02114c" fill-rule="evenodd" d="M50.014 45.345c.376 0 .715.174.955.465.242.28.39.662.39 1.088a1.66 1.66 0 0 1-.389 1.08 1.28 1.28 0 0 1-.956.469 1.27 1.27 0 0 1-.96-.469 1.7 1.7 0 0 1-.382-1.084c0-.422.149-.808.386-1.084a1.26 1.26 0 0 1 .956-.465" style="stroke-width:.843905"/><path fill="#fff" fill-rule="evenodd" d="M50.667 46.074a.86.86 0 0 0-.653-.327.85.85 0 0 0-.65.327 1.25 1.25 0 0 0-.28.82c0 .323.106.616.28.825a.9.9 0 0 0 .65.323.9.9 0 0 0 .652-.323c.189-.232.29-.525.287-.825a1.27 1.27 0 0 0-.287-.82" style="stroke-width:.843905"/><path fill="#02114c" fill-rule="evenodd" d="M50.037 46.638c.161 0 .294.135.294.302a.304.304 0 0 1-.294.31.3.3 0 0 1-.214-.093.3.3 0 0 1-.087-.217c0-.168.135-.303.3-.303" style="stroke-width:.843905"/><path fill="#02114c" d="m49.585 31.822.27-.359.057-.062a.22.22 0 0 1 .283.052l.35.501c1.11 1.573 2.228 3.152 2.228 5.012 0 .681-.353 1.42-.874 1.98-.51.557-1.19.95-1.862.982h-.076c-.663 0-1.375-.339-1.922-.84-.557-.5-.949-1.176-.982-1.84v-.068c0-2.001 1.311-3.739 2.532-5.357" style="stroke-width:.843905"/><path fill="#fff" d="m50.02 31.915-.115.152c-1.173 1.565-2.443 3.25-2.443 5.113v.056h.004c.02.546.362 1.117.843 1.552.481.442 1.092.739 1.652.739l.059-.007c.564-.02 1.138-.363 1.582-.847.459-.491.762-1.131.762-1.707 0-1.735-1.08-3.261-2.146-4.78zm0 0" style="stroke-width:.843905"/><path fill="#02114c" d="m49.677 34.301.119-.164.056-.063a.216.216 0 0 1 .284.056l.152.235c.507.744 1.02 1.496 1.02 2.39a1.54 1.54 0 0 1-.421.998c-.23.274-.557.451-.916.491h-.034a1.4 1.4 0 0 1-.938-.422 1.4 1.4 0 0 1-.473-.922v-.04c0-.966.594-1.793 1.151-2.559" style="stroke-width:.843905"/><path fill="#fa260f" d="M49.96 34.598c-.504.696-1.028 1.44-1.028 2.262v.023a1 1 0 0 0 .344.646c.174.177.412.293.662.317h.017c.217-.014.45-.159.633-.36.184-.2.293-.461.31-.731 0-.768-.469-1.468-.937-2.157" style="stroke-width:.843905"/><path fill="#02114c" d="m39.37 35.83.035-.368q.002-.033.014-.066a.18.18 0 0 1 .221-.082l.458.197c1.453.627 2.92 1.26 3.715 2.562a2.53 2.53 0 0 1 .244 1.767c-.125.61-.432 1.18-.894 1.49l-.052.033a2.46 2.46 0 0 1-1.71.236c-.597-.121-1.168-.422-1.474-.872v-.004l-.02-.036-.014-.01c-.856-1.404-.685-3.184-.523-4.846" style="stroke-width:.843905"/><path fill="#fff" d="m39.716 35.709-.014.159c-.155 1.598-.323 3.322.481 4.63v.014l.024.03c.247.376.739.633 1.26.726.522.104 1.084.045 1.473-.192h-.004l.047-.026c.379-.25.639-.745.741-1.276a2.18 2.18 0 0 0-.198-1.527c-.738-1.212-2.156-1.826-3.557-2.43zm0 0" style="stroke-width:.843905"/><path fill="#02114c" d="m40.5 37.535.01-.164a.2.2 0 0 1 .017-.07.17.17 0 0 1 .092-.088.17.17 0 0 1 .128.003l.211.101c.673.3 1.352.61 1.734 1.241.152.267.198.58.135.88a1.13 1.13 0 0 1-.425.738h-.007l-.006.003-.02.014a1.16 1.16 0 0 1-.83.105 1.15 1.15 0 0 1-.73-.445l-.005-.01v-.006l-.017-.017c-.409-.675-.35-1.513-.287-2.285" style="stroke-width:.843905"/><path fill="#fa260f" d="M40.823 37.621c-.052.706-.099 1.458.247 2.027l.01.007.004.01a.84.84 0 0 0 .52.31c.201.05.412.026.597-.07h.007l.006-.013c.148-.095.247-.293.29-.514a1 1 0 0 0-.095-.65c-.33-.536-.96-.823-1.583-1.11" style="stroke-width:.843905"/><path fill="#02114c" d="m33.825 40.608-.017-.376.006-.062a.17.17 0 0 1 .08-.103.17.17 0 0 1 .128-.013l.481.139c1.523.422 3.06.85 4.022 2.037.353.435.515 1.088.475 1.72a2.3 2.3 0 0 1-.675 1.59l-.05.042a2.45 2.45 0 0 1-1.665.461c-.616-.035-1.213-.256-1.575-.662l-.007-.006-.02-.027-.01-.01c-1.042-1.279-1.108-3.069-1.177-4.73" style="stroke-width:.843905"/><path fill="#fff" d="m34.148 40.436.01.158c.062 1.61.128 3.34 1.094 4.534l.033.033c.297.336.808.52 1.348.55a2.1 2.1 0 0 0 1.43-.39l.04-.032c.346-.304.538-.821.567-1.361a2.2 2.2 0 0 0-.398-1.487c-.907-1.105-2.387-1.517-3.86-1.929Zm0 0" style="stroke-width:.843905"/><path fill="#02114c" d="m35.17 42.138-.01-.166.006-.072a.18.18 0 0 1 .208-.109l.221.073c.706.21 1.424.421 1.889.995.177.245.266.545.247.851.003.296-.116.58-.323.79h-.004l-.019.021a1.18 1.18 0 0 1-.818.218 1.18 1.18 0 0 1-.778-.344l-.026-.025c-.498-.617-.548-1.452-.593-2.232" style="stroke-width:.843905"/><path fill="#fa260f" d="M35.502 42.18c.043.706.099 1.457.518 1.978l.013.01c.126.142.34.228.564.24a.84.84 0 0 0 .577-.148l.007-.003.006-.007c.135-.118.205-.329.21-.55a.93.93 0 0 0-.174-.633c-.398-.488-1.06-.692-1.72-.886" style="stroke-width:.843905"/><path fill="#02114c" d="m59.976 35.91-.037-.369-.012-.066a.174.174 0 0 0-.221-.086l-.462.202c-1.45.626-2.914 1.256-3.712 2.558a2.53 2.53 0 0 0-.24 1.77 2.33 2.33 0 0 0 .89 1.486l.053.037c.467.28 1.107.346 1.71.23.604-.115 1.173-.414 1.477-.867v-.002l.02-.037.01-.01c.857-1.407.686-3.187.527-4.845" style="stroke-width:.843905"/><path fill="#fff" d="m59.633 35.788.01.159c.158 1.598.326 3.326-.475 4.631l-.004.014-.022.025a1.96 1.96 0 0 1-1.263.733 2.1 2.1 0 0 1-1.473-.194l-.037-.024c-.389-.26-.643-.749-.748-1.276a2.2 2.2 0 0 1 .194-1.533c.745-1.21 2.156-1.822 3.561-2.426zm0 0" style="stroke-width:.843905"/><path fill="#02114c" d="m58.851 37.611-.012-.164a.13.13 0 0 0-.02-.07.164.164 0 0 0-.22-.082l-.212.098c-.669.304-1.355.614-1.734 1.243a1.33 1.33 0 0 0-.135.878c.04.293.194.56.431.738v-.004l.004.004.006.003.014.017c.23.138.55.168.84.105.29-.053.55-.21.729-.449v-.003l.013-.023c.419-.682.353-1.513.296-2.29" style="stroke-width:.843905"/><path fill="#fa260f" d="M58.522 37.697c.056.702.106 1.457-.247 2.027l-.01.02a.84.84 0 0 1-.52.307.82.82 0 0 1-.594-.066l-.01-.007-.007-.003c-.154-.099-.253-.304-.287-.52a1 1 0 0 1 .086-.647c.336-.54.966-.827 1.59-1.11" style="stroke-width:.843905"/><path fill="#02114c" d="m65.524 40.683.013-.371a.13.13 0 0 0 0-.07.177.177 0 0 0-.211-.112l-.485.142c-1.519.422-3.059.85-4.022 2.037a2.57 2.57 0 0 0-.477 1.717c.036.617.266 1.224.685 1.59l.046.045c.422.34 1.055.491 1.659.458.616-.033 1.223-.25 1.582-.658v-.004l.026-.033.01-.01c1.038-1.275 1.108-3.065 1.173-4.73" style="stroke-width:.843905"/><path fill="#fff" d="m65.198 40.512-.007.162c-.06 1.608-.125 3.336-1.097 4.526l-.004.013-.026.026c-.3.337-.815.522-1.346.548a2.1 2.1 0 0 1-1.433-.386l-.04-.034c-.346-.306-.534-.823-.57-1.36a2.2 2.2 0 0 1 .404-1.49c.897-1.105 2.384-1.52 3.851-1.929zm0 0" style="stroke-width:.843905"/><path fill="#02114c" d="m64.178 42.216.011-.164a.2.2 0 0 0-.007-.07.177.177 0 0 0-.21-.112l-.215.066c-.715.211-1.424.429-1.895 1a1.35 1.35 0 0 0-.25.853c.002.297.117.58.326.788l.012.01.014.013c.234.168.523.248.814.217.296-.017.574-.138.785-.346v-.003l.006-.01.01-.013c.504-.616.554-1.45.6-2.232" style="stroke-width:.843905"/><path fill="#fa260f" d="M63.839 42.256c-.036.712-.092 1.46-.51 1.978l-.02.017a.84.84 0 0 1-.554.23.84.84 0 0 1-.58-.138l-.007-.007-.007-.01a.8.8 0 0 1-.217-.55 1 1 0 0 1 .178-.63c.402-.49 1.065-.692 1.721-.89" style="stroke-width:.843905"/><path fill="#211e1e" d="M46.47 72.11a21 21 0 0 1-2.156-.538 16.4 16.4 0 0 1-3.441-1.49 27 27 0 0 1-1.286-.726 54 54 0 0 0-3.141-.223 34 34 0 0 0-2.756-.054 15 15 0 0 0-.68.054c-1.523.138-3.844.349-6.164-1.081a.21.21 0 0 1-.106-.202.2.2 0 0 1 .073-.132.2.2 0 0 1 .148-.042c2.532.267 3.884.06 4.662-.063.29-.047.504-.08.685-.073l.597.004c1.002 0 2.872 0 4.312.164q-.95-.569-2.555-.81c-1.47-.211-3.33-.225-5.538-.07q-.46.03-.92.07c-2.32.208-4.641.408-6.85-1.863h.004a.21.21 0 0 1-.05-.205.2.2 0 0 1 .099-.118.2.2 0 0 1 .155-.013c2.446.745 4.496.586 6.641.408l.789-.059a17.3 17.3 0 0 1 6.685.818q-1.044-1.246-3.092-1.873c-1.592-.471-3.636-.65-6.16-.461-1.643.122-3.525.174-5.24-.194-1.746-.377-3.319-1.184-4.29-2.78a.21.21 0 0 1-.014-.188.21.21 0 0 1 .27-.098c1.364.643 2.848.968 4.325 1.137 1.497.172 2.987.177 4.351.177a25 25 0 0 1 4.226.294c1.28.218 2.582.587 3.924 1.214-.45-.775-1.454-1.468-2.984-2.011-1.803-.647-4.312-1.092-7.466-1.254a46 46 0 0 0-1.372-.049c-3.105-.082-6.527-.174-8.287-3.451a.2.2 0 0 1-.01-.194.21.21 0 0 1 .27-.1c1.397.67 2.895 1.055 4.42 1.263 1.53.21 3.093.244 4.63.194a14.5 14.5 0 0 1 4.977.772c1.454.468 2.897 1.124 4.345 1.87-.56-.914-1.933-2.018-3.867-2.833a14.8 14.8 0 0 0-6.57-1.1c-2.304.138-5.027-.034-7.262-1.022-1.718-.762-3.142-2.005-3.87-3.967a.22.22 0 0 1 .01-.164.22.22 0 0 1 .118-.099.2.2 0 0 1 .155.014c1.497.784 3.224 1.549 4.984 2.043 1.414.406 2.848.633 4.207.57 2.317-.112 4.351.139 6.336.844 1.832.657 3.622 1.698 5.555 3.198-.44-1.092-1.688-2.512-3.855-3.715-1.918-1.065-4.542-1.949-7.96-2.285-.597-.055-1.233-.088-1.882-.131-4.23-.245-9.072-.528-9.735-6.81a.21.21 0 0 1 .062-.163.214.214 0 0 1 .29 0c1.721 1.813 3.04 2.888 4.48 3.535s3.013.879 5.257.984c3.456.176 6.064.733 8.16 1.705 1.909.886 3.386 2.11 4.694 3.702-.211-1.589-1.17-3.115-3.013-4.418-1.899-1.335-4.724-2.435-8.63-3.114-.774-.135-1.622-.228-2.502-.324-4.694-.507-10.104-1.087-9.537-8.593a.2.2 0 0 1 .08-.142.2.2 0 0 1 .28.03c1.743 2.195 3.635 3.645 5.667 4.614 2.04.966 4.216 1.452 6.523 1.708 2.779.307 5 .996 6.814 1.955a14 14 0 0 1 3.985 3.145c-.2-1.328-1.077-2.7-2.472-3.903-1.57-1.361-3.78-2.502-6.409-3.151a35 35 0 0 0-3.936-.654c-3.823-.504-7.862-1.032-9.847-4.245a6.84 6.84 0 0 1-.958-3.06v-.01c-.11-1.226-.007-2.683.353-4.447.21-1.057.546-1.733.903-2.04a.76.76 0 0 1 .56-.217.7.7 0 0 1 .517.29c.28.336.475.986.498 1.935.175 7.615 6.336 8.35 11.202 8.933l.175.023c3.21.386 6.055 1.438 8.05 3.047 1.872 1.509 3.002 3.513 2.996 5.91v.013c-.05 2.297-.05 4.503.112 6.566.162 2.048.485 3.95 1.089 5.654.595 1.688 1.275 3.415 2.155 4.97.873 1.548 1.948 2.919 3.34 3.925l.022.008c.363.308.775.601 1.246.881q2.049 1.062 4.002 1.626.792.223 1.57.372a16.5 16.5 0 0 0 3.309.287h.102a16.9 16.9 0 0 0 4.883-.66q1.954-.563 3.998-1.625c.472-.28.886-.573 1.253-.88l.023-.01c1.384-1.005 2.46-2.38 3.336-3.922.877-1.557 1.556-3.28 2.155-4.971.6-1.705.927-3.607 1.09-5.654.16-2.063.16-4.27.11-6.567v-.013c-.006-2.397 1.121-4.401 2.997-5.907 1.992-1.612 4.836-2.664 8.054-3.05l.168-.023c4.865-.583 11.03-1.318 11.205-8.93.02-.95.217-1.602.498-1.935a.7.7 0 0 1 .517-.293.76.76 0 0 1 .56.214c.353.31.696.986.907 2.04.356 1.767.458 3.224.35 4.45v.007a6.8 6.8 0 0 1-.96 3.063c-1.991 3.214-6.026 3.74-9.853 4.246-1.378.174-2.726.349-3.936.652-2.628.65-4.835 1.79-6.405 3.149-1.395 1.206-2.272 2.578-2.476 3.903a14.1 14.1 0 0 1 3.986-3.142c1.812-.959 4.034-1.648 6.813-1.955 2.31-.257 4.486-.742 6.524-1.708 2.033-.969 3.926-2.42 5.666-4.614a.2.2 0 0 1 .28-.034.2.2 0 0 1 .083.146c.564 7.502-4.845 8.089-9.54 8.593-.87.096-1.724.189-2.502.324-3.903.679-6.731 1.776-8.63 3.115-1.843 1.302-2.8 2.828-3.013 4.417a13 13 0 0 1 4.694-3.702c2.1-.972 4.707-1.529 8.166-1.701 2.241-.112 3.817-.34 5.251-.99 1.443-.645 2.76-1.722 4.487-3.53a.203.203 0 0 1 .283-.003.21.21 0 0 1 .063.162c-.66 6.287-5.505 6.567-9.735 6.81-.65.043-1.285.076-1.882.135-3.415.333-6.042 1.217-7.958 2.285-2.169 1.2-3.418 2.62-3.856 3.712 1.931-1.5 3.725-2.541 5.554-3.198 1.988-.705 4.021-.956 6.342-.844a13.4 13.4 0 0 0 4.203-.57c1.758-.494 3.485-1.26 4.981-2.043a.2.2 0 0 1 .156-.014.22.22 0 0 1 .118.099q.044.085.013.165c-.729 1.958-2.153 3.2-3.87 3.962-2.235.993-4.958 1.16-7.263 1.026a14.8 14.8 0 0 0-6.576 1.1c-1.924.811-3.307 1.923-3.86 2.832a28 28 0 0 1 4.345-1.869 14.4 14.4 0 0 1 4.977-.771c1.533.05 3.096.02 4.632-.194 1.523-.211 3.017-.598 4.413-1.266a.21.21 0 0 1 .275.101.2.2 0 0 1-.014.195c-1.757 3.273-5.178 3.369-8.287 3.452q-.689.015-1.371.049c-3.151.168-5.66.607-7.467 1.253-1.52.543-2.532 1.23-2.98 2.01a15.2 15.2 0 0 1 3.92-1.213 25 25 0 0 1 4.226-.293c1.367 0 2.854-.006 4.351-.178a13.8 13.8 0 0 0 4.329-1.137.21.21 0 0 1 .266.098.21.21 0 0 1-.01.189c-.972 1.595-2.54 2.402-4.292 2.779-1.713.365-3.599.316-5.238.194-2.525-.188-4.572-.01-6.16.461q-2.054.627-3.092 1.873a17.3 17.3 0 0 1 6.682-.818l.79.06c2.146.177 4.194.336 6.643-.41a.194.194 0 0 1 .25.132.21.21 0 0 1-.046.202c-2.209 2.274-4.53 2.074-6.847 1.865a43 43 0 0 0-.92-.069c-2.21-.154-4.07-.142-5.54.07q-1.603.242-2.553.81c1.438-.164 3.307-.164 4.313-.164l.599-.004c.176-.006.39.026.68.07.777.125 2.13.333 4.661.062a.2.2 0 0 1 .22.175.21.21 0 0 1-.104.205c-2.315 1.427-4.642 1.22-6.162 1.08q-.37-.035-.676-.052a34 34 0 0 0-2.762.053 55 55 0 0 0-3.142.224q-.633.38-1.286.725a16.3 16.3 0 0 1-3.438 1.49q-1.065.325-2.158.537a16.5 16.5 0 0 1-3.531.31 16.5 16.5 0 0 1-3.528-.31" style="stroke-width:.843905"/><path fill="#02114c" d="M39.23 68.918c-1.285-1.015-2.296-2.34-3.12-3.8a31.7 31.7 0 0 1-2.193-5.041c-.606-1.737-.943-3.672-1.104-5.752a67 67 0 0 1-.116-6.61c.007-2.265-1.061-4.16-2.845-5.597-1.935-1.56-4.704-2.584-7.848-2.96l-.169-.024c-5.02-.593-11.379-1.358-11.557-9.325-.024-.848-.188-1.418-.405-1.685q-.114-.133-.238-.149-.126-.006-.27.123c-.294.247-.58.846-.775 1.812-.353 1.725-.456 3.146-.346 4.33.106 1.173.419 2.115.9 2.897 1.888 3.049 5.831 3.566 9.566 4.05 1.388.186 2.753.363 3.98.66 2.689.67 4.957 1.846 6.572 3.241 1.695 1.467 2.664 3.182 2.654 4.816a.2.2 0 0 1-.06.142.2.2 0 0 1-.144.056.23.23 0 0 1-.155-.073 13.7 13.7 0 0 0-4.26-3.517c-1.77-.937-3.938-1.609-6.668-1.91-2.347-.262-4.573-.757-6.652-1.746a16.2 16.2 0 0 1-5.48-4.318c-.247 6.62 4.807 7.17 9.207 7.647.884.093 1.745.188 2.532.323 3.966.692 6.844 1.81 8.79 3.182 2.204 1.559 3.21 3.438 3.233 5.387a.2.2 0 0 1-.139.194.194.194 0 0 1-.224-.07c-1.368-1.793-2.911-3.147-4.947-4.097-2.055-.95-4.617-1.497-8.015-1.668-2.297-.112-3.912-.346-5.403-1.019-1.371-.616-2.62-1.595-4.185-3.178.869 5.354 5.352 5.618 9.272 5.848a37 37 0 0 1 1.9.132c3.48.34 6.163 1.247 8.122 2.33 2.692 1.497 4.038 3.36 4.22 4.59a.2.2 0 0 1-.04.152.2.2 0 0 1-.133.078.22.22 0 0 1-.161-.05c-2.087-1.684-3.983-2.824-5.914-3.517-1.939-.688-3.926-.932-6.191-.827-1.404.073-2.881-.169-4.332-.58a26 26 0 0 1-4.572-1.827c.732 1.56 1.978 2.589 3.442 3.241 2.166.96 4.822 1.117 7.08.986a15.1 15.1 0 0 1 6.752 1.134c2.42 1.021 4.022 2.518 4.335 3.606a.197.197 0 0 1-.142.245.2.2 0 0 1-.155-.01 30 30 0 0 0-4.8-2.124 14 14 0 0 0-4.84-.748c-1.568.066-3.14 0-4.696-.194a16.2 16.2 0 0 1-3.95-1.038c1.734 2.55 4.81 2.633 7.622 2.712.471.01.943.024 1.38.05 3.193.164 5.744.616 7.583 1.276 1.958.702 3.131 1.651 3.438 2.755.037.106-.033.218-.138.247a.2.2 0 0 1-.142-.01 14.7 14.7 0 0 0-4.295-1.417 25 25 0 0 0-4.164-.29c-1.384.003-2.887-.003-4.397-.175a15.2 15.2 0 0 1-3.785-.893c.907 1.114 2.203 1.718 3.62 2.02 1.672.357 3.52.305 5.13.186 2.57-.192 4.668-.007 6.306.48 1.737.521 2.963 1.391 3.698 2.552a.214.214 0 0 1-.065.283.21.21 0 0 1-.189.01 16.9 16.9 0 0 0-7.123-.998l-.792.06c-1.947.154-3.81.305-5.983-.212 1.899 1.546 3.91 1.372 5.918 1.197.306-.03.603-.053.932-.076 2.236-.159 4.128-.142 5.625.08 1.529.223 2.663.668 3.362 1.37a.21.21 0 0 1 0 .287.2.2 0 0 1-.175.053h-.007c-1.427-.263-3.82-.267-5-.267l-.606-.003c-.14-.007-.344.03-.61.072-.69.106-1.817.28-3.769.148 1.916.854 3.778.683 5.054.564q.39-.034.696-.053c.507-.026 1.598-.003 2.798.053a52 52 0 0 1 2.766.191m21.536 0c1.283-1.015 2.297-2.34 3.122-3.8.897-1.586 1.589-3.334 2.192-5.041.61-1.737.943-3.672 1.107-5.752.17-2.07.17-4.29.116-6.61-.01-2.265 1.062-4.16 2.841-5.597 1.936-1.56 4.704-2.584 7.849-2.96l.175-.02c5.014-.597 11.373-1.361 11.554-9.33.024-.847.182-1.417.41-1.684q.113-.133.227-.149.127-.006.27.123c.297.247.58.847.775 1.812.352 1.725.458 3.146.35 4.33a6.5 6.5 0 0 1-.908 2.897c-1.885 3.049-5.828 3.566-9.563 4.05-1.387.186-2.748.363-3.975.66-2.693.67-4.958 1.846-6.577 3.241-1.694 1.467-2.663 3.182-2.65 4.816 0 .11.093.198.201.198a.21.21 0 0 0 .159-.073 13.7 13.7 0 0 1 4.252-3.517c1.773-.937 3.945-1.609 6.672-1.91 2.347-.262 4.569-.757 6.652-1.746a16.25 16.25 0 0 0 5.486-4.318c.247 6.62-4.81 7.17-9.21 7.647-.88.093-1.745.188-2.532.323-3.967.692-6.848 1.81-8.789 3.182-2.206 1.559-3.207 3.438-3.231 5.387a.2.2 0 0 0 .14.194c.081.03.174 0 .223-.07 1.364-1.793 2.907-3.147 4.948-4.097 2.054-.95 4.616-1.497 8.01-1.668 2.295-.112 3.913-.346 5.404-1.019 1.37-.616 2.624-1.595 4.185-3.178-.869 5.354-5.35 5.618-9.272 5.848a37 37 0 0 0-1.898.132c-3.482.34-6.162 1.246-8.117 2.33-2.696 1.497-4.045 3.36-4.223 4.59a.22.22 0 0 0 .036.152q.052.063.133.078a.21.21 0 0 0 .164-.05c2.084-1.684 3.98-2.824 5.914-3.517 1.939-.692 3.923-.932 6.191-.827 1.401.073 2.881-.169 4.329-.58a26 26 0 0 0 4.572-1.827c-.733 1.56-1.975 2.589-3.441 3.241-2.167.96-4.823 1.117-7.078.986a15.1 15.1 0 0 0-6.752 1.134c-2.422 1.021-4.022 2.518-4.331 3.606a.19.19 0 0 0 .138.245q.08.024.149-.01a30.5 30.5 0 0 1 4.806-2.124c1.595-.517 3.198-.804 4.835-.748 1.57.066 3.142 0 4.7-.194a16.2 16.2 0 0 0 3.948-1.038c-1.735 2.55-4.81 2.633-7.62 2.712q-.715.015-1.386.05c-3.189.164-5.736.616-7.579 1.276-1.958.702-3.132 1.651-3.439 2.755-.036.106.034.218.139.247a.17.17 0 0 0 .142-.01 14.7 14.7 0 0 1 4.298-1.418c1.405-.24 2.78-.289 4.16-.289 1.381.003 2.891-.003 4.398-.175a15 15 0 0 0 3.788-.893c-.91 1.114-2.205 1.718-3.62 2.02-1.671.357-3.517.305-5.136.186-2.568-.192-4.665-.007-6.296.48-1.744.521-2.967 1.391-3.702 2.552a.22.22 0 0 0-.03.155.22.22 0 0 0 .093.128q.093.05.19.01a17.5 17.5 0 0 1 3.304-.857c1.266-.19 2.545-.24 3.82-.142l.788.06c1.949.155 3.812.306 5.984-.212-1.9 1.547-3.91 1.372-5.918 1.198a30 30 0 0 0-.929-.076c-2.239-.159-4.127-.142-5.625.08-1.525.223-2.666.668-3.362 1.37a.21.21 0 0 0 0 .287.2.2 0 0 0 .175.053h.003c1.428-.264 3.82-.267 5.001-.267l.607-.003c.142-.007.343.03.613.072.686.106 1.816.28 3.765.148-1.916.854-3.779.683-5.054.564a30 30 0 0 0-.695-.053 35 35 0 0 0-2.796.053 52 52 0 0 0-2.769.191" style="stroke-width:.843905"/></svg>