<svg xmlns="http://www.w3.org/2000/svg" viewBox="0 0 100 100"><path fill="#036" d="M0 0h100v100H0z"/><path fill="#fff" d="M50.172 12.023c-20.982 0-38.06 16.995-38.149 37.891 0 20.982 17.167 38.063 38.15 38.063 20.895 0 37.804-17.08 37.804-38.063 0-20.807-16.909-37.89-37.805-37.89m0 2.773c8.236 0 16.037 3.038 22.107 7.975L34.74 59.883a63 63 0 0 1-2.374-.32c-1.741-.259-3.127-.464-4.913-.28-2.86.26-6.755 2.772-9.183 5.46a35.4 35.4 0 0 1-3.213-14.912c0-19.25 15.69-35.034 35.114-35.034M73.496 23.9c7.111 6.5 11.62 15.784 11.62 26.014 0 6.765-1.738 12.835-5.031 18.208L47.748 62.23ZM27.454 64.995c2.516.089 5.204.264 7.978 1.044l30.174 14.912-16.3-13.351 29.998 1.73c-6.328 9.538-17.083 15.698-29.049 15.698-13.695 0-25.575-7.8-31.473-19.16 3.038-.52 5.726-.959 8.672-.873" style="stroke-width:.759537"/></svg>