<svg xmlns="http://www.w3.org/2000/svg" viewBox="0 0 100 100"><path fill="#F9E20E" d="M0 0h100v100H0z"/><path d="M60.327 21.543c-18.438.02-37.998 12.776-43.703 28.491-5.704 15.716 4.617 28.44 23.052 28.424 18.435-.018 38.001-12.776 43.703-28.491 5.701-15.716-4.62-28.443-23.052-28.424m2.659 2.191-4.617 12.995 10.65-11.212-7.837 12.578 12.564-9.127-10.511 11.31 13.628-6.426-12.476 9.264 13.754-3.28-13.585 6.59 12.955.092-13.778 3.467L75 53.434l-13.022.11 8.808 6.568-11.384-3.257 5.757 9.248-8.972-6.402 2.314 11.298-5.947-9.11-1.303 12.57-2.511-11.193-4.81 12.992 1.09-12.525-8 12.532 4.614-12.99-10.647 11.212 7.838-12.584-12.568 9.13 10.514-11.31-13.625 6.423 12.478-9.26-13.762 3.279 13.592-6.593-12.955-.083 13.776-3.473-11.272-3.443 13.033-.113-8.822-6.571 11.393 3.26-5.76-9.248 8.974 6.4-2.313-11.296 5.946 9.113 1.298-12.577 2.511 11.194 4.813-12.995-1.09 12.525z" style="fill:#1c4e9d;fill-opacity:1;stroke-width:.786827"/><path fill="#fff" d="M39.596 50.01c-2.08 5.738.894 10.403 6.63 10.4 5.738-.005 12.097-4.684 14.184-10.419 2.084-5.738-.897-10.407-6.63-10.4-5.738.005-12.1 4.684-14.184 10.419m.944 0c1.89-5.222 7.677-9.473 12.9-9.479 5.221-.003 7.923 4.239 6.023 9.46-1.896 5.222-7.677 9.473-12.9 9.473-5.212.01-7.92-4.233-6.023-9.454" style="stroke-width:.786827"/><path fill="#4ba3e0" d="M21.647 49.988C27.232 34.599 44.099 22.025 59.53 21.61l.76-.016q3.226 0 6.121.487a30.7 30.7 0 0 1 5.376 1.404c-5.753-3.224-16.253-3.876-24.115-2.318-17.07 3.373-31.85 15.878-37.014 28.83Zm0 0" style="stroke-width:.786827"/><path fill="#87cf2e" d="M78.36 50.013C72.778 65.402 55.907 77.98 40.472 78.391q-.377.01-.756.016c-2.155 0-4.192-.161-6.123-.48a30.5 30.5 0 0 1-5.376-1.411c5.755 3.227 16.256 3.879 24.113 2.323 17.067-3.377 31.848-15.883 37.011-28.838Zm0 0" style="stroke-width:.786827"/></svg>