<svg xmlns="http://www.w3.org/2000/svg" viewBox="0 0 100 100"><path fill="#003F74" d="M0 0h100v100H0z"/><path fill="#f47920" d="M87.94 54.987c.009 1.103-1.044 2.002-2.193 2.016-1.144.01-2.086-.874-2.093-1.97a2.04 2.04 0 0 1 .61-1.434 2.05 2.05 0 0 1 1.45-.579c1.148-.012 2.217.87 2.226 1.967m-7.985 5.302v-.024l-.018-.137-.006-.02a2.9 2.9 0 0 0-.37-.972c-3.383-5.568-8.543-9.953-8.543-9.953s-.169-.183-.076-.266a22 22 0 0 1 1.35-.914c.237-.139 1.619-.963 2.075-1.19 1.375-.686 2.988-.751 2.917-1.874-.029-.557-.646-.981-.949-1.106-2.466-.987-5.922 1.25-6.396 1.527q-.836.533-1.641 1.113c-.12.081-.197.15-.363.004-.675-.602-3.424-2.445-6.876-4.268-3.456-1.83-7.61-3.635-10.653-4.183-.8-.148-1.935-.109-2.339.833-.275.65-.068 1.477 1.014 1.972.812.373 4.183 1.078 9.456 3.763 2.282 1.162 5.922 3.694 5.922 3.694.23.152.592.427.61.507.019.098-.433.342-.678.57-.237.22-2.482 1.727-3.003 2.09-.582.405-3.168 2.12-3.667 2.355-.782.377-1.565.842-1.597 1.752q-.004.343.098.647l.017.04.023.069c.273.664.91 1.105 1.626 1.132.45.012.779-.148 1.206-.344a56 56 0 0 0 1.935-1.227q3.303-2.365 6.592-4.758s.086-.106.258.048c.171.151 5.32 4.906 7.881 8.53.496.695.721 1.015.92 1.311.19.29.346.445.595.65a1.64 1.64 0 0 0 .865.363q.167.028.332.01a1.5 1.5 0 0 0 1.068-.516 1.6 1.6 0 0 0 .412-1.233" style="stroke-width:.758811"/><path fill="#fff" d="M40.574 44.767c.237 0 1.128-.017 1.26.382.086.268-.095.505-.285.647-.664.507-2.14.898-3.263.886-.344-.006-.724-.018-.718-.095.032-.613 1.68-1.834 3.003-1.82m11.972 8.126a1.75 1.75 0 0 0-.946.284c-.616.235-1.339.557-1.63.631-.346.095-6.83 2.783-11.1-1.132-1.525-1.396-1.58-2.815-1.58-2.815s.317.088 1.182.053c8.205-.336 8.105-6.3 5.63-7.793-1.563-.943-3.093-.66-3.525-.658-.433.001-1.487.294-1.487.294-4.563 1.378-5.432 5.201-5.517 5.96-.075.584-.223.809-.078 2.332.291 2.998 2.994 5.944 6.331 7.241 3.335 1.3 7.195 1.085 10.686.013.896-.275 1.539-.475 2.031-.721h.015c.222-.089.462-.192.658-.302a1.758 1.758 0 0 0-.671-3.388m-34.157-6.324c.076-.085 7.573-8.31 15.98-8.606.939-.03 1.728.474 1.986 1.261.332.996-.311 2.108-1.43 2.479a2.2 2.2 0 0 1-1.594-.054l-.023-.012h-.03c-.55-.059-1.262.114-1.77.264-6.227 1.88-11.477 6.724-15.588 14.394-.22.41-.41.658-.789 1.094-.313.361-1.38 1.165-2.163.986-.697-.159-.822-.565-.883-.97-.086-.57.11-1.196.356-1.993.165-.54.364-1.16.512-1.906.536-2.662.774-4.728.706-6.128-.028-.574 0-1.311.486-1.854.485-.55 1.138-.61 1.707-.664a1.94 1.94 0 0 1 1.455.38.92.92 0 0 1 .427.72l-.011.089a3 3 0 0 0-.024.332c0 .186.038.351.183.42.213.095.421-.137.505-.232" style="stroke-width:.758811"/></svg>