<svg xmlns="http://www.w3.org/2000/svg" viewBox="0 0 100 100"><path fill="#073590" d="M0 0h100v100H0z"/><path fill="#f4ca35" d="M78.842 35.224c.613 1.02.025 2.146-.254 3.128-2.42 6.77-6.953 12.38-10.586 18.55-3.114 5.07-5.15 10.7-7.225 16.203-.717 1.655-.977 3.49-1.846 5.06-.074.17-.293.067-.446.11-.539-.45-.467-1.093-.593-1.665.41-6.89 3.068-13.117 5.56-19.334 3.123-6.936 7.308-13.56 10.155-20.73.4-.9 1.178-2.01 2.39-2.35 1.21-.186 2.13.251 2.845 1.028m-10.424-.435c.875.66.42 1.908.08 2.677-3.806 8.43-9.974 15.698-12.525 24.54-.705 1.872-1.162 3.808-1.75 5.7-.1.336-.596.35-.95.265-.34-.804-.242-1.82-.242-2.684.804-7.106 2.502-14.007 5.974-20.19a322 322 0 0 1 4.757-8.884c.467-.852 1.252-1.62 2.39-1.902a4.37 4.37 0 0 1 2.266.478m-9.397-.322c.427 1.91-.946 3.48-1.556 5.191-3.247 6.488-7.143 12.833-9.07 19.761-.09.222-.22.52-.479.616-.273.076-.503-.06-.574-.258-.65-2.753.095-5.618.804-8.238 1.853-5.82 4.09-11.772 7.22-17.185.364-.276.421-.508.875-.64 1.088-.112 2.18-.03 2.78.752m-8.795-1.52c.798 1.065-.27 2.005-.593 2.943-3.336 5.014-4.503 10.692-6.718 16.056-.163.19-.497.244-.73.17-.59-.42-.59-1.116-.525-1.726.446-5.82 1.982-11.282 4.462-16.485.578-.834 1.567-1.78 2.841-1.58.475.07.917.285 1.263.618m28.518-7.118c7.934 1.51 9.818-.4 9.818-.4-1.887 1.57-5.485 3.367-8.408 4.378-3.485 1.17-7.596 2.432-13.248 2.15s-12.538-2.447-18.455-2.475c-5.916-.03-12.18 2.947-14.536 6.31-2.357 3.363-3.155 4.86-3.267 7.428-.11 2.567 3.2 2.736 4.858 5.361 1.66 2.625 2.805 6.601 6.201 11.27.87 1.194 2.304 2.603 4.514 3.967s4.578 3.598 5.987 6.397c1.41 2.798 2.094 4.408 3.363 7.25 1.268 2.843 2.555 5.494 2.917 10.71-3.336-5.496-6.67-10.726-10.942-15.617-7.682-8.575-16.59-11.925-21.726-19.526s-4.66-7.773-5.424-12.33c-.282-1.376-3.1-2.02-1.356-4.47 1.094-1.18 5.982-3.378 6.775-4.855 1.333-2.483-3.34-1.91-3.535-3.44s.221-4.087.527-5.388c.305-1.302.99-1.263 1.452-1.444.905-.224 1.664-.29 2.688-.374s4.883.16 5.861 1.585c1.463 2.13-1.166 5.24-.9 5.922.562 1.432 6.51-4.05 9.227-6.985s5.127-2.614 7.932-2.212c9.284.714 20.8 5.134 29.676 6.79" style="stroke-width:.699891"/></svg>