<svg xmlns="http://www.w3.org/2000/svg" viewBox="0 0 100 100"><path fill="#6ECEF0" d="M0 0h100v100H0z"/><path fill="#007ab3" fill-rule="evenodd" d="m42.378 23.521 13.92 13.921-8.283 29.154-10.556-10.352-6.282-25.08Zm0 0" style="stroke-width:.753592"/><path fill="#007ab3" d="M65.719 59.42h15.699L68.857 70.933l-20.842-4.334Zm0 0" style="stroke-width:.753592"/><path fill="#003568" d="m68.857 70.93-18.84 5.163L28.039 87.68l19.976-21.086Zm0 0" style="stroke-width:.753592"/><path fill="#3abcda" fill-rule="evenodd" d="m37.461 77.739-18.84 3.662 9.42 6.279zm0 0" style="stroke-width:.753592"/><path fill="#003568" fill-rule="evenodd" d="M65.719 59.42h15.699l-7.964-3.141zm0 0" style="stroke-width:.753592"/><path fill="#003568" fill-rule="evenodd" d="m78.668 61.943 2.75 2.749v-5.275zm0 0" style="stroke-width:.753592"/><path fill="#3abcda" fill-rule="evenodd" d="M65.719 59.42 56.3 37.44l-8.283 29.156Zm0 0" style="stroke-width:.753592"/><path fill="#003568" fill-rule="evenodd" d="m31.177 31.16 3.141-15.699-12.558-3.14Zm0 0" style="stroke-width:.753592"/><path fill="#3abcda" fill-rule="evenodd" d="m42.378 23.524-8.06-8.057-3.14 15.7Zm0 0" style="stroke-width:.753592"/></svg>