<svg xmlns="http://www.w3.org/2000/svg" viewBox="0 0 100 100"><path fill="#003DA5" d="M0 0h100v100H0z"/><path fill="#fff" d="m9.314 23.227 20.66 53.546h60.764C71.281 58.836 51.685 41.051 32.125 23.227Z"/><path fill="#163683" d="m31.265 74.562 35.926-16.57L78.762 68.49a528 528 0 0 1 6.88 6.281H31.348Zm0 0"/><path fill="#d92632" d="M31.353 25.226h-19.12l5.98 15.62h30.043Zm0 0"/><path fill="#008a43" d="M54.577 51.456 18.449 41.391l33.65 2.98 12.626 11.342-33.8 17.968Zm0 0"/><path fill="#231f20" d="M30.714 73.113 18.653 41.944 39.89 55.706Zm0 0"/><path fill="#fcaf17" d="M20.451 33.401a4.535 4.535 0 0 1 9.07 0 4.535 4.535 0 1 1-9.07 0m10.263 39.712.216.568 23.646-22.225-36.127-10.065.204.553L39.89 55.706zm0 0"/></svg>