<svg xmlns="http://www.w3.org/2000/svg" viewBox="0 0 100 100"><path fill="#2B3087" d="M0 0h100v100H0z"/><path fill="#fff" fill-rule="evenodd" d="M62.515 35.864c-3.182 0-7.545.003-8.136.003-.41 0-.58.237-.58.237L31.382 63.906c-.132.16-.103.327.123.327.513 0 2.584 0 3.317-.003.334 0 .369-.089.425-.176l4.772-6.116s.076-.113.176-.113h8.01s.124-.006.099.113c-.026.12-1.168 6-1.168 6-.017.079.006.292.286.292h9.679c.138 0 .189-.047.214-.182l5.455-27.891s.097-.293-.255-.293M48.8 54.932h-6.298s-.04.01-.069-.028c-.024-.038.023-.094.023-.094l8.374-10.74s.063-.086.129-.086.044.094.044.094l-2.099 10.769s-.006.043-.029.066c-.018.018-.075.018-.075.018M9.73 60.685c-.082.335.1.614.702 1.112 1.133.935 4.498 2.962 9.839 2.962 9.613-.004 13.097-6.216 11.88-11.483-.328-1.407-2.129-8.693-2.39-9.719-.755-2.981.693-5.13 3.54-5.134 2.434 0 3.952.922 5.283 1.757.249.16.435.245.5-.048.038-.166.476-2.436.476-2.436s.129-.437-.444-.737c-.884-.462-3.082-1.708-7.718-1.708-8.622-.007-12.291 5.527-10.79 11.526.478 1.92 2.402 9.103 2.408 10.488.003.532.283 4.201-4.136 4.201-4.105 0-6.928-2.804-7.881-3.773-.158-.161-.368-.073-.466.28-.05.182-.803 2.713-.803 2.713m50.981.145c-.079.333.101.617.702 1.11 1.136.935 4.234 2.812 9.575 2.809 9.613 0 13.097-6.214 11.876-11.483-.324-1.406-2.125-8.69-2.385-9.72-.756-2.98.692-5.13 3.537-5.132 2.433 0 3.953.921 5.282 1.755.251.16.437.245.503-.047q.24-1.214.476-2.436s.129-.438-.444-.737c-.885-.463-3.085-1.705-7.719-1.709-8.62-.006-12.29 5.53-10.789 11.526.479 1.92 2.401 9.103 2.408 10.491.003.529.283 4.196-4.136 4.196-4.104.003-6.812-2.704-7.775-3.664-.21-.21-.531-.132-.572.177-.029.182-.539 2.863-.539 2.863" style="stroke-width:.805778"/></svg>