<svg xmlns="http://www.w3.org/2000/svg" viewBox="0 0 100 100"><path fill="#BED600" d="M0 0h100v100H0z"/><path fill="#fff" d="M47.423 23.416c-7.63 0-12.579.421-16.164 1.75-6.02 2.346-10.176 7.263-10.176 13.72 0 5.381 2.504 9.278 9.755 13.76 7.734 4.688 9.277 6.24 9.277 9.066 0 3.09-3.029 6.61-10.825 6.61-2.722 0-6.82-.376-9.44-1.017l-1.249-.314c-.697 1.867-2.28 6.29-2.762 7.894l1.238.362c2.354.753 7.945 1.34 11.952 1.34 13.325 0 21.276-8.052 21.276-16.483 0-5.18-2.351-9.117-10.3-14.075-3.987-2.453-6.02-4.044-7.253-5.277-1.001-1.284-1.11-2.24-1.11-3.25 0-.967.212-2.077.848-2.89.689-1.007 1.951-1.65 3.66-2.18 1.752-.581 5.006-.597 10.072-.597h4.715l3.366-8.42zm35.637 0H59.363l-3.368 8.42h7.855c5.287 0 6.303-.115 7.63-.115-1.916 4.382-13.465 33.812-13.465 33.812h9.774s14.62-36.633 16.17-40.474c.428-.856.217-1.643-.899-1.643" style="stroke-width:.683238"/></svg>