<svg xmlns="http://www.w3.org/2000/svg" viewBox="0 0 100 100"><path fill="#0065A4" d="M0 0h100v100H0z"/><path fill="#d93722" d="m35.78 49.898-.114-.02a20 20 0 0 1-2.722-.646 24 24 0 0 1-1.722 2.157q.442.01.883-.01a18.8 18.8 0 0 0 4.924-.94l.16-.053.032-.01c-.567-.14-1.495-.5-1.444-.478m-2.56-1.059.013-.022.188-.277-.003-.007h.004l.006-.013c-4.683-3.57-6.659-10.474-13.264-12.843 5.036-1.845 9.967-.385 14.144 2.018a16.3 16.3 0 0 0 3.608-2.075c-2.04-2.598-4.734-4.418-7.57-5.652H9.232l.507.182.399.156q.43.176.845.398l.414.22.357.211.17.102c1.453.906 2.941 2.21 4.248 4.004 3.124 4.297 8.425 11.434 16.76 13.994l.282-.396m6.183-7.545c.444.363 1.049.756 1.69 1.134A17 17 0 0 0 40 39.095q-1.223.411-2.474.726.98.732 1.871 1.473m22.043-8.826a21 21 0 0 0-2.175-.98 24 24 0 0 0-5.577-1.306h-.045a52 52 0 0 0-4.243-.214h-.198c-5.492.58-8.147 3.373-11.29 5.656a16.3 16.3 0 0 1 2.09 3.474 60 60 0 0 0 3.485-1.3c7.195-2.927 12.514-3.845 16.407-3.845a19.8 19.8 0 0 1 4.692.522 21.4 21.4 0 0 0-3.146-2.007" style="stroke-width:.816036"/><path fill="#c0d83c" d="M69.244 38.996a34 34 0 0 0-2.502-2.675c-.245-.232-.593-.548-.645-.602l-.012-.003c-5.613 2.046-8.16 6.58-11.268 10.988h.01c1.303-.093 3.088.102 4.22 1.237 0 0 1.482-.24 2.228-.332l.561-.076a73 73 0 0 1 1.846-.182h.022l.548-.035a61 61 0 0 1 .791-1.584c.867-1.649 1.877-3.297 3.283-4.55a7.6 7.6 0 0 1 1.746-1.167ZM76.12 49.14c-3.095-1.273-6.595-1.872-10.165-1.872a38 38 0 0 0-1.693.048c-.653 1.37-1.247 2.773-1.862 4.157a75 75 0 0 1-1.314 2.814c-.07.137-.305.676-.506.969v.003l-.006.01-.06.095-.093.109c.666-.768 1.326-1.467 2.017-2.012 3.567-2.789 8.505-5.922 13.71-4.277zm2.117 3.48-1.754-2.889-.179-.295c-3.978 1.539-5.83 4.81-8.067 8 .957-.073 2.266.074 3.099.906l.092.029c.816.309 1.73.586 2.56 1.02q.884.469 1.701.946c2.26-.937 4.351-1.607 6.083-1.913a600 600 0 0 1-3.535-5.804" style="stroke-width:.816036"/><path fill="#8dc643" d="m71.425 58.374-.093-.033.006.004c-2.457.487-3.627 1.632-5.355 2.837-2.024 1.421-4.86 3.076-8.278 3.816a15.36 15.36 0 0 1-11.374-1.98l-.025-.003h-.01.026l-.029-.02c4.405.447 7.348-.872 9.621-2.728l-.03-.01h-.025l-.093.042c-2.349 1.167-5.46 1.73-8.864 1.73-7.154 0-15.617-2.483-21.115-7.098l.5.775c6.883 6.96 19.47 10.72 29.852 10.72 4.932 0 9.363-.842 12.461-2.595 2.41-1.358 4.826-2.554 7.087-3.494a37 37 0 0 0-1.703-.94c-.829-.434-1.743-.714-2.56-1.023" style="stroke-width:.816036"/><path fill="#a5ce42" d="m60.574 55.269.006-.007v-.003c.201-.296.43-.838.5-.972a69 69 0 0 0 1.317-2.815c.612-1.383 1.212-2.785 1.855-4.16q-.918.068-1.842.15-.57.061-1.134.147a109 109 0 0 0-2.23.329q-.21.043-.42.092l-.14.028a14 14 0 0 0-1.954.647h-.003l-.68.323a15 15 0 0 0-1.249.723l-1.211.842-.275.204c1.39.796 2.662 1.74 3.781 2.664.896.743 2.675 1.616 3.523 2.012.019-.019.137-.17.156-.204m-34.287.436a78 78 0 0 0 2.404 3.443c6.653 9.005 12.961 10.88 21.344 10.88h40.767l-.035-.029c-2.674-.915-5.588-3.248-10.168-6.446a70 70 0 0 0-4.91-3.216c-2.26.937-4.676 2.139-7.089 3.494-3.098 1.753-7.53 2.595-12.457 2.595-10.385 0-22.97-3.759-29.856-10.72m25.757 2.7-.01-.02c-1.418-1.227-2.512-2.868-3.713-4.45a34 34 0 0 1-5.675 2.487 21.3 21.3 0 0 1-15.921-1.184c-.065-.024-.266-.126-.342-.161l-.474-.261.372.204.217.117.239.128c2.397 1.482 7.073 3.971 11.947 4.481q.954.1 2.002.096c3.264 0 7.194-.663 11.351-1.437l-.01-.007zm0 0" style="stroke-width:.816036"/><path fill="#dae34c" d="M76.154 49.197c-1.917-3.137-3.808-6.29-6.078-9.18a7.5 7.5 0 0 0-1.75 1.169c-1.406 1.252-2.413 2.897-3.28 4.548a51 51 0 0 0-.787 1.578q.846-.038 1.699-.044c3.566 0 7.073.6 10.159 1.87zm-.462 11.14c1.863 1.087 3.463 2.203 4.91 3.216 4.583 3.194 7.494 5.531 10.165 6.446l.038.029c-2.635-1.77-5.349-5.656-9.033-11.6-1.734.306-3.82.972-6.08 1.91" style="stroke-width:.816036"/><path fill="#e24d25" d="m38.076 50.555-.052-.01-.417-.08h-.01l-.39-.092h.02l-.038.013-.16.053a18.7 18.7 0 0 1-5.451.954l-.357-.004-.025.029q-.598.662-1.253 1.275c-.647.593-1.29 1.144-2.142 1.403a5 5 0 0 1-1.418.191 8 8 0 0 1-1.053-.083l.057.093c5.77.494 9.672-1.281 12.685-3.74m11.287-20.585H30.342c2.837 1.23 5.528 3.047 7.574 5.652 3.14-2.28 5.792-5.072 11.287-5.652zm-40.14 0H9.2h.013q0 .01.005.006h.004l.013.007c2.257.987 3.84 3.123 5.154 5.119 2.024 3.095 3.717 6.414 5.486 9.652l.325.583c3.115 3.331 6.783 5.916 11.023 6.05a23 23 0 0 0 1.715-2.154c-8.336-2.56-13.633-9.697-16.761-13.994a15.3 15.3 0 0 0-4.252-4q-.476-.283-.973-.542c-.204-.119-.42-.204-.612-.297q-.43-.195-.883-.346Zm32.512 12.824a45 45 0 0 0 2.464 1.237l.392-.45.35-.383.705-.736.363-.354c.073-.073.523-.475.588-.526l.346-.287c4.932-3.857 11.8-8.2 19.021-5.695a54 54 0 0 0-1.367-1.123 20.2 20.2 0 0 0-4.692-.516c-3.9 0-9.216.918-16.411 3.841a60 60 0 0 1-3.487 1.297 18 18 0 0 1 1.09 3.334zm0 0" style="stroke-width:.816036"/><path fill="#f26d20" d="M26.383 54.284a4.9 4.9 0 0 0 1.415-.191c.794-.237 1.407-.727 2.002-1.272l.144-.134a20 20 0 0 0 1.274-1.298c-4.239-.137-7.901-2.719-11.016-6.05l-.248-.449.137.252a195 195 0 0 0 5.272 9.12l-.029-.061q.515.082 1.05.083" style="stroke-width:.816036"/><path fill="#7cbe42" d="m55.77 60.299.09-.041a7.83 7.83 0 0 1-3.816-1.852l-.045.009h-.003c-4.138.768-8.049 1.428-11.31 1.428a19 19 0 0 1-2.002-.098c-4.884-.508-9.576-3.01-11.96-4.495q-.57-.287-1.116-.606l.176.28q0 .009.006.007c5.495 4.612 13.963 7.095 21.115 7.095 3.401 0 6.512-.56 8.862-1.727" style="stroke-width:.816036"/><path fill="#c81b21" d="M33.345 48.645q-.194.297-.408.59c.88.268 1.788.48 2.729.646l.114.02v-.003a10.3 10.3 0 0 1-2.355-1.375zm6.426-10.037a17 17 0 0 0-1.855-2.984c-1.096.8-2.257 1.53-3.621 2.078a33 33 0 0 1 3.226 2.13 34 34 0 0 0 2.483-.735zm0 0" style="stroke-width:.816036"/></svg>