<svg xmlns="http://www.w3.org/2000/svg" viewBox="0 0 100 100"><path fill="#00276C" d="M0 0h100v100H0z"/><path fill="#f99f1c" d="M41.881 81.198h-5.212l10.517-16.603s1.58-3.444-.48-7.081L32.04 33.227s-1.28-2.257 0-4.414l4.34-6.496 17.208 28.12s4.441 5.889-.386 13.181zm12.584-5.092 6.396-9.743s1.867-4.025 6.692-4.025h6.783l4.728 7.466s-3.728-.387-5.402 2.28l-6.983 10.514s-2.28 4.923-8.362 4.923H25.442l12.514-19.197s1.765-2.252-.703-5.986L26.119 44.45s-2.735-2.644.1-7.179l3.253-4.919 15.463 25.063s2.738 3.445 0 7.566L33.321 83.086h24.482s2.765.512 5.14-3.025l6.085-9.36s1.383-3.152 4.44-4.435h-4.921s-2.574.094-4.535 3.154l-5.409 8.357s-1.964 3.544-6.296 3.544h-8.562l10.327-16.025s5.625-7.396 1.677-14.18L38.63 22.799s-1.28-2.445.193-4.723l3.732-5.596 19.49 31.392s2.858 4.702 2.858 8.337-2.278 7.755-3.538 9.843l-8.58 13.38s-.97 1.284-.29 1.77c.698.48 1.378-.392 1.96-1.093zm0 0" style="stroke-width:.750411"/></svg>