<svg xmlns="http://www.w3.org/2000/svg" viewBox="0 0 100 100"><path fill="#0F2D3C" d="M0 0h100v100H0z"/><path fill="#996a4e" d="M52.553 18.565c-.664 0-1.33.22-1.991.22h-.442c-2.213.66-3.986 1.546-5.758 2.874-.442.44-.886.666-1.325 1.108L16.243 50h18.375c4.208 0 8.194-1.546 11.072-4.43l22.139-22.14c2.439-2.213 5.097-3.76 8.416-4.865zm26.347 2.21s-.441 6.86-1.328 10.624c0 0 0 .222-.221.222l-3.765-2.655s2.217 2.874 2.66 3.761c0 0 0 .229-.226.229-2.436.66-9.516 1.327-9.516 1.327s7.08.657 9.516 1.546l.225.223c-.222.885-2.439 3.544-2.439 3.544l3.766-2.213s.22 0 .22.218c.667 3.764 1.328 10.624 1.328 10.624s.444-6.86 1.33-10.623c0 0 0-.22.222-.22l3.764 2.213c0-.221-2.213-2.88-2.656-3.766 0-.219 0-.219.22-.219 2.439-.667 9.518-1.55 9.518-1.55s-7.08-.444-9.518-1.104l-.22-.23c.22-.885 2.437-3.76 2.437-3.76l-3.767 2.656s-.222 0-.222-.223c-.664-3.763-1.325-10.624-1.325-10.624zm0 0" style="stroke-width:.790361"/><path fill="#84754e" d="m43.037 54.65-21.92 21.917a18.46 18.46 0 0 1-8.635 4.872h23.467c.667 0 1.33-.222 1.991-.222h.444c1.995-.668 3.986-1.547 5.759-2.878.441-.441.885-.666 1.328-1.108l27.232-27.234H54.328c-4.208 0-8.194 1.775-11.297 4.653zm0 0" style="stroke-width:.790361"/></svg>