<svg xmlns="http://www.w3.org/2000/svg" viewBox="0 0 100 100"><path fill="#1C4E9C" d="M0 0h100v100H0z"/><path fill="#fff" d="M42.543 42.717c.048-.509.072-1.027.072-1.491 0-5.351-5.176-6.958-12.525-6.958-2.305 0-6.306.215-9.653 2.26-3.396 2.13-5.047 5.478-5.047 8.7 0 5.082 3.654 6.648 6.31 7.74l2.997 1.13c2.263.825 3.085 1.129 3.742 1.825a2.73 2.73 0 0 1 .78 1.87c0 1.303-1.045 3.39-3.823 3.39-1.612 0-2.7-.825-3.134-1.605a3.86 3.86 0 0 1-.35-1.742c0-.433.046-.653.046-1.042l-10.524 1.383v.223c0 6.435 5.435 8.135 12.958 8.135 3.132 0 8.091-.262 12.047-3.655 2.609-2.262 3.869-5.173 3.869-8.09 0-5.348-3.697-6.912-6.13-7.957l-3.09-1.13c-2.606-.913-3.128-1.134-3.782-1.738a2.32 2.32 0 0 1-.87-1.739c0-1.223.957-2.652 3.44-2.652 1.257 0 3.04.522 3.04 2.695 0 .303-.081 1.217-.22 1.74zm2.856-7.836 10.847-1.42-2.34 16.97-1.68 7.432 10.202-23.23 8.934-1.172-1.166 15.942-.003.054-1.292 8.491 8.668-23.043 10.997-1.443-13.543 32.29h-13.26l.822-11.48c.224-2.525.305-3.221.612-5.613a109 109 0 0 1-1.784 4.435l-5.827 12.658H42.28" style="stroke-width:.771327"/></svg>