<svg xmlns="http://www.w3.org/2000/svg" viewBox="0 0 100 100"><path fill="#CC1719" d="M0 0h100v100H0z"/><path fill="#fff" d="M85.408 33.082c.907-.428-1.245-.529-2.197-.765-6.75-2.105-13.066 12.916-20.335 15.165-2.107.476-7.655-2.633.766-8.418.715-.481.476-1.247-.577-.816-13.297 3.876-38.984-6.933-48.697-5.837C32.835 42.601 66.42 54.464 45.13 59.106c5.976 1.005 8.178.335 8.178.335-5.264 4.354-17.607 9.136-24.97 11.766-.718.243-2.11.863.142.624 46.88-11.098 35.974-29.276 56.927-38.75" style="stroke-width:.712628"/></svg>