<svg xmlns="http://www.w3.org/2000/svg" viewBox="0 0 100 100"><path fill="#F9B617" d="M0 0h100v100H0z"/><path fill="#212061" fill-rule="evenodd" d="M25.022 20.595h-9.136l.032 58.806h68.196zm0 0" style="stroke-width:.682276"/><path fill="#f9b617" fill-rule="evenodd" d="M42.394 79.399h41.72L58.288 53.718a18 18 0 0 0-2.233 1.057 27 27 0 0 0-4.592 3.247c-1.535 1.426-2.274 2.87-1.535 5.018a6.8 6.8 0 0 0 1.055 1.895c.397.52.803.903 1.223 1.367a10 10 0 0 1 1.187 1.535c1.367 2.322.117 4.392-1.602 6.018a32 32 0 0 1-7.03 4.62 17 17 0 0 1-1.906.795zm0 0" style="stroke-width:.682276"/><path fill="#006535" fill-rule="evenodd" d="M45.04 79.399h39.074L59.48 54.887a13.7 13.7 0 0 0-3.201 2.4c-1.194 1.342-1.988 2.813-1.144 4.607.171.341.403.645.68.903 1.034 1.024 1.818 1.106 2.908 1.847a3.6 3.6 0 0 1 1.842 2.57 3.6 3.6 0 0 1-.899 3.033 11.6 11.6 0 0 1-1.161 1.241 17 17 0 0 1-1.6 1.351c-.666.488-1.49 1.032-2.6 1.728a60 60 0 0 1-6.954 3.88 61 61 0 0 1-2.311.952" style="stroke-width:.682276"/><path fill="#fff" fill-rule="evenodd" d="m21.822 42.286.986-3.824-3.841-4.152 4.368 1.959 1.032-3.673 1.623 4.834 3.688 1.615-2.742 1.176 1.367 4.208-3.2-3.432zm20.689 4.169-1.551-2.29 1.935.808.602-2.399.575 2.982 1.648.739-1.24.911.488 2.881-1.447-2.137-1.553 1.175zM34.31 54.87l.666-3.017-2.345-2.57 2.777.69.64-2.648.815 3.025 2.474.702-1.866 1.4.856 3.073-2.04-2.201zm-12.768 1.815 3.8.375.824-3.296 1.362 3.552 3.345.32-2.473 1.978 1.287 3.208-2.895-2.057-2.729 2.105.8-3.6zm21.13 3.624-1.384-1.607 1.778.112.504-2.321.584 2.489 1.494.12-1.118 1.367.487 2.36-1.343-1.465-1.522 1.498zm0 0" style="stroke-width:.682276"/></svg>