<svg xmlns="http://www.w3.org/2000/svg" viewBox="0 0 100 100"><path fill="#8ECAE0" d="M0 0h100v100H0z"/><path fill="#328a74" d="M54.846 84.065c-1.604-.548-3.4-1.476-3.99-2.07-1.755-1.756-1.365-4.46 1.082-7.558l.82-1.034c3.144 2.034 6.985 3.936 10.524 3.99 5.666-.008 8.774-3.221 8.782-9.074v-2.033l-2.242 1.177c-4.182 1.603-8.582 1.909-12.59.15-5.305-2.36-8.22-8.282-8.22-16.69 0-5.942 1.795-11.787 4.52-14.731 2.729-2.663 6.05-3.767 9.41-3.964 3.791-.208 5.635.217 8.053 1.86l1.533 1.038 1.196-.882c1.64-1.214 4.106-1.722 6.806-1.412l2.27.27-.171 19.05c-.187 20.208-.256 20.953-2.365 25.081-6.798 8.472-17.192 9.1-25.418 6.834m17.22-24.62V41.98c-4.51-2.56-10.107-.49-11.323 3.152-1.305 4.354-.869 12.136 1.44 14.07 3.198 2.676 6.855 2.228 9.884.244"/><path fill="#496aa5" d="M29.382 67.721c-6.762-1.89-11.116-7.27-11.972-14.786-1.54-13.502 5.538-22.104 18.212-22.119 6.811-.01 12.11 2.69 12.11 6.168 0 1.66-.963 4.129-1.914 4.918-.41.34-1.222.056-3.159-1.097-5.218-3.106-10.691-2.353-13.136 1.81-2.004 3.825-1.786 9.829.615 13.74 1.263 2.06 3.513 3.572 6.322 3.572 3.062 0 5.937-1.02 7.262-2.263 1.253-1.18 1.85-.756 3.131 2.224 1.559 3.621.849 5.012-3.615 7.058-4.62 1.476-8.985 2.09-13.859.776"/></svg>