<svg xmlns="http://www.w3.org/2000/svg" viewBox="0 0 100 100"><path fill="#019901" d="M0 0h100v100H0z"/><path fill="#fff" d="M82.497 45.638c3.987 46.485-57.917 48.193-64.223 11.41 20.97-5.896 20.59 16.603 23.822 17.55 4.558 1.71 2.285-21.924 18.857-22.873q13.894 1.122 21.541-6.084m-.576-4.021c-20.215 14.663-26.86-18.856-40.017 20.587-8.96-23.82-14.86-12.952-23.824-9.725C13.714 15.894 66.87-.105 81.918 41.62M87.246 50c0-20.41-16.676-36.96-37.24-36.96-20.579 0-37.252 16.55-37.252 36.96S29.43 86.96 50.006 86.96c20.564 0 37.24-16.55 37.24-36.96" style="stroke-width:.744922"/></svg>