<svg xmlns="http://www.w3.org/2000/svg" viewBox="0 0 100 100"><path fill="#efe900" d="M0 0h100v100H0z"/><path d="m51.645 28.031-2.123 4.617c.27-.014.526-.044.782-.044 1.085 0 2.132.122 3.166.324zm-5.126.239-1.221 5.139a16.8 16.8 0 0 1 3.477-.727zm10.691.495-3.207 4.287q1.774.422 3.371 1.214zM40.896 29.86l.59 5.409a17 17 0 0 1 3.071-1.58zm21.32 1.341-4.05 3.469a16 16 0 0 1 3.02 2.192zM35.894 33.14l2.266 4.998a18.4 18.4 0 0 1 2.361-2.2zm22.47 4.771-7.94 5.228 8.436 5.985 5.504-3.05 1.998-.557c.314 1.266.49 2.59.51 3.955 1.678-.68 5.01-2.184 5.01-2.184h-.004l-4.443-2.07L93.68 37.91zm-52.042.973 27.248 5.234 6.347 5.126-5.902 3.818a18 18 0 0 1-.298-3.214l.003-.164-5.289 1.996s2.87 1.072 4.858 1.853l-9.018 5.835h58.165l-6.709-5.129-5.756 4.15-28.576-19.505zm27.958 6.589-5.849 1.457 5.313 2.293q.066-1.941.536-3.75m32.582 5.15a18 18 0 0 1-.46 3.35c1.326-.196 4.777-.923 4.922-.953zm4.467 2.395-.004.002.004.001zm-34.08 7.446-2.525 5.542 5.17-2.747a16.8 16.8 0 0 1-2.645-2.795m25.624.617a17.5 17.5 0 0 1-2.201 2.222l4.36 2.464zM40.84 63.995l-.925 5.66 4.078-3.865a16.6 16.6 0 0 1-3.153-1.795m18.908.027a16.3 16.3 0 0 1-3.453 1.89l3.853 4.054zm-14.202 2.344 1.215 5.607 2.692-4.924a15.7 15.7 0 0 1-3.907-.683m9.275.051a16 16 0 0 1-3.86.642l3.123 4.736z" style="fill:#240c82;fill-opacity:1;stroke-width:.873582"/></svg>