<svg xmlns="http://www.w3.org/2000/svg" viewBox="0 0 100 100"><path fill="#0A6937" d="M0 0h100v100H0z"/><path fill="#fff" d="M53.264 57.205c-.069.035-.134.07-.203.112 2.27 1.3 4.494 2.694 6.757 3.998a239 239 0 0 0 4.077 2.3l-2.02 2.244-2.25-1.43a376 376 0 0 0-7.864-4.876l-.68 18.24L61.87 65.87c.089.06 2.708 1.746 4.338 2.117 4.651 1.046 5.987.175 9.165-.486-3.448-.253-6.02-.6-10.263-3.113a13 13 0 0 1-1.194-.781l12.814-14.16c-3.68.128-7.466.402-10.913 1.762-4.407 1.508-8.526 3.723-12.556 5.996m.285-15.79s1.28-4.517.038-9.103c1.037.847 2.27 2.076 3.229 3.706 1.345 2.281 1.713 4.034 1.713 4.034s.561-2.685-.315-5.102c-.285-.79-.995-2.881-2.432-4.247a17 17 0 0 1 3.825 2.447c2.31 1.96 3.68 3.715 3.68 3.715s-.434-3.008-2.124-5.156c-1.936-2.47-4.564-3.443-6.441-3.854a11.1 11.1 0 0 1 4.018.178c3 .695 4.994 2.246 4.994 2.246s-1.787-2.819-4.733-4.12c-2.185-.962-4.33-.974-6.007-.722.133-.266.311-.507.528-.712.517-.475 1.096-.751 1.096-.751s-1.244-.31-2.322.095a4.5 4.5 0 0 0-1.33.807 10 10 0 0 0-.175-.95c-.129-.517-.74-1.625-.791-1.72-.053.095-.665 1.203-.793 1.723q-.112.473-.175.95a4.5 4.5 0 0 0-1.327-.81c-1.078-.404-2.323-.095-2.323-.095s.58.276 1.096.751q.33.308.529.712c-1.678-.252-3.826-.24-6.011.723-2.946 1.3-4.734 4.119-4.734 4.119s2-1.548 4.998-2.246a11 11 0 0 1 4.018-.178c-1.877.413-4.505 1.387-6.444 3.854-1.69 2.148-2.123 5.156-2.123 5.156s1.371-1.755 3.682-3.715a17 17 0 0 1 3.825-2.447c-1.437 1.363-2.147 3.454-2.435 4.247-.873 2.417-.317 5.102-.317 5.102s.37-1.753 1.715-4.034a14.4 14.4 0 0 1 3.228-3.706c-1.237 4.586.04 9.103.04 9.103s.778-3.478 1.942-6.424c.492-1.253 1.062-2.2 1.609-2.913.544.71 1.114 1.657 1.61 2.913 1.164 2.946 1.942 6.424 1.942 6.424m34.11-4.84L52.354 43.65l-.433 11.538c4.668-2.263 9.42-4.514 14.515-5.627 3.404-.745 6.86-.719 10.294-.114l11.201-12.38a.3.3 0 0 0 .038-.345.3.3 0 0 0-.312-.148M33.56 49.561c5.096 1.113 9.845 3.364 14.513 5.627l-.431-11.538-35.3-7.076a.3.3 0 0 0-.312.148.3.3 0 0 0 .038.345L23.27 49.45c3.432-.609 6.89-.636 10.296.11m6.815 14.866-2.25 1.43-2.026-2.241a239 239 0 0 0 4.08-2.301c2.263-1.304 4.487-2.694 6.757-3.998l-.2-.115c-4.029-2.27-8.149-4.485-12.556-5.993-3.447-1.361-7.233-1.63-10.91-1.762l12.81 14.16q-.574.424-1.193.781c-4.243 2.51-6.815 2.857-10.263 3.113 3.175.661 4.514 1.532 9.16.486 1.635-.37 4.254-2.06 4.343-2.117l10.789 11.924-.68-18.24a389 389 0 0 0-7.861 4.872" style="stroke-width:.76024"/></svg>