<svg xmlns="http://www.w3.org/2000/svg" viewBox="0 0 100 100"><defs><linearGradient id="a" x1="190.944" x2="206.401" y1="10.52" y2="10.52" gradientTransform="matrix(2.82892 0 0 -2.82892 -521.396 86.777)" gradientUnits="userSpaceOnUse"><stop offset="0" stop-color="#3656CC"/><stop offset=".35" stop-color="#304CB2"/><stop offset=".72" stop-color="#283B80"/></linearGradient><linearGradient id="b" x1="193.141" x2="210.602" y1="22.73" y2="10.504" gradientTransform="matrix(2.82892 0 0 -2.82892 -521.396 86.777)" gradientUnits="userSpaceOnUse"><stop offset=".3" stop-color="#E61C23"/><stop offset=".8" stop-color="#C3161C"/></linearGradient><linearGradient id="c" x1="203.964" x2="213.947" y1="24.31" y2="17.319" gradientTransform="matrix(2.82892 0 0 -2.82892 -521.396 86.777)" gradientUnits="userSpaceOnUse"><stop offset="0" stop-color="#FDBC11"/><stop offset=".25" stop-color="#FCB415"/><stop offset=".8" stop-color="#F89E1C"/></linearGradient></defs><path fill="#304cb2" d="M0 0h100v100H0z"/><path fill="#ccc" d="M64.058 18.27c-5.74 0-10.364 2.001-14.058 4.102-3.696-2.1-8.31-4.103-14.056-4.103-11.477 0-19.053 7.496-19.053 20.308 0 15.63 14.922 30.893 33.109 43.154 18.192-12.264 33.11-27.523 33.11-43.154 0-12.806-7.574-20.308-19.052-20.308" style="stroke-width:.662187"/><path fill="url(#a)" d="M18.763 38.854c0 15.975 16.848 30.838 31.237 40.678a132 132 0 0 0 12.49-9.664 2356 2356 0 0 0-43.372-35.365 26.5 26.5 0 0 0-.352 4.351Zm0 0" style="fill:url(#a);stroke-width:.662187"/><path fill="url(#b)" d="M79.961 46.265C66.146 34.867 57.783 29.071 48.81 23.688c-2.412-1.46-7.266-3.592-12.705-3.592-5.212 0-9.587 1.622-12.603 4.78-1.963 2.053-3.295 4.63-4.055 7.752A1054 1054 0 0 1 65.59 67.016c6.537-6.222 12.01-13.296 14.37-20.749Zm0 0" style="fill:url(#b);stroke-width:.662187"/><path fill="url(#c)" d="M76.472 24.883c-2.972-3.094-7.326-4.759-12.333-4.759-5.378 0-9.473 1.738-12.329 3.288 5.358 2.982 16.997 9.728 29.06 18.61a23 23 0 0 0 .292-3.613c-.003-5.629-1.648-10.341-4.69-13.526" style="fill:url(#c);stroke-width:.662187"/></svg>