<svg xmlns="http://www.w3.org/2000/svg" viewBox="0 0 100 100"><path fill="#EE5F2A" d="M0 0h100v100H0z"/><path fill="#1a428a" d="M59.73 63.363c-12.89.938-30.726 3.778-43.543 3.082a37.4 37.4 0 0 0 5.037 7.68 37 37 0 0 0 3.623 3.724 37.67 37.67 0 0 0 25.211 9.701c9.358 0 18.306-3.385 25.196-9.53a36.7 36.7 0 0 0 6.989-8.262 34.6 34.6 0 0 0 3.08-6.472c-5.52-1.094-14.968-.7-25.593.08M29.306 18.86a.84.84 0 0 0-.672.13c-.683.469-1.366.98-2.024 1.501a.86.86 0 0 0-.22 1.103l6.392 11.066.33.443-.016.02-.446-.331-11.077-6.393a.843.843 0 0 0-1.094.211 35 35 0 0 0-1.496 2.028.864.864 0 0 0 .278 1.226l18.895 10.904.428.114a.86.86 0 0 0 .646-.29 16 16 0 0 1 1.356-1.366.85.85 0 0 0 .182-1.071l-10.905-18.89a.85.85 0 0 0-.557-.405m51.84 10.443a.85.85 0 0 0-.126-.671 38 38 0 0 0-1.508-2.028.85.85 0 0 0-1.098-.21l-11.068 6.389-.446.329-.015-.012.329-.446 6.392-11.078a.844.844 0 0 0-.214-1.1 40 40 0 0 0-2.027-1.496.86.86 0 0 0-.672-.129.87.87 0 0 0-.555.406l-10.904 18.9-.114.423c0 .24.106.478.296.646a13.5 13.5 0 0 1 1.362 1.36.86.86 0 0 0 1.076.18L80.741 29.86a.86.86 0 0 0 .408-.558M66.627 16.507a.9.9 0 0 0-.45-.519 40 40 0 0 0-2.317-1 .856.856 0 0 0-1.056.363l-6.39 11.072-.22.504-.02-.008.062-.543v-12.79a.86.86 0 0 0-.736-.851 40 40 0 0 0-2.5-.282.85.85 0 0 0-.648.232.85.85 0 0 0-.276.625l.003 21.817.117.425a.87.87 0 0 0 .575.416c.628.127 1.258.288 1.86.496a.864.864 0 0 0 1.018-.387l10.908-18.886a.85.85 0 0 0 .073-.683m20.693 31.148a.88.88 0 0 0 .223-.648 38 38 0 0 0-.287-2.511.85.85 0 0 0-.845-.728l-12.784-.006-.546.062-.006-.018.504-.22 11.072-6.395a.854.854 0 0 0 .37-1.065 41 41 0 0 0-1.006-2.303.9.9 0 0 0-.517-.446.88.88 0 0 0-.68.07L63.922 44.363l-.308.314a.86.86 0 0 0-.07.707c.208.607.381 1.235.498 1.86a.86.86 0 0 0 .84.689h21.81c.24 0 .47-.1.631-.276M16.505 33.372a.9.9 0 0 0-.52.45 39 39 0 0 0-1 2.32.84.84 0 0 0 .364 1.053l11.072 6.39.501.22-.009.026-.54-.065H13.576a.85.85 0 0 0-.845.736 41 41 0 0 0-.281 2.504.88.88 0 0 0 .225.648.87.87 0 0 0 .626.276l21.816-.006.428-.115a.87.87 0 0 0 .415-.575 13 13 0 0 1 .492-1.862.856.856 0 0 0-.378-1.022L17.188 33.447a.88.88 0 0 0-.684-.074m31.142-20.688a.88.88 0 0 0-.65-.226 38 38 0 0 0-2.503.288.856.856 0 0 0-.736.845v12.787l.062.545-.021.01-.22-.505-6.395-11.078a.843.843 0 0 0-1.065-.363q-1.171.462-2.305 1.003a.85.85 0 0 0-.456.516.86.86 0 0 0 .08.684L44.35 36.086l.31.311c.218.123.473.15.707.073a14 14 0 0 1 1.863-.502.864.864 0 0 0 .692-.84l-.003-21.813a.86.86 0 0 0-.275-.631" style="stroke-width:.750998"/><path fill="#fff" d="M85.164 52.644c-7.876 0-13.908 1.915-29.544 5.239-22.124 4.7-37.84.815-41.442.352-.54-.065-.89.208-.708.81.388 1.798 1.72 5.652 2.723 7.4 12.817.696 30.655-2.14 43.543-3.082 10.631-.784 20.074-1.176 25.599-.08.891-2.514 1.548-5.195 1.982-8.09.25-1.66.048-2.55-2.153-2.55" style="stroke-width:.750998"/><path fill="#fff" d="M13.23 55.334c.737.29 10.965 3.772 26.849 3.998 4.506.068 10.252-.602 13.685-1.353-1.802.285-5.636.86-10.388.845-9.153-.032-23.032-3.241-29.615-6.18a.85.85 0 0 0-.836.099.85.85 0 0 0-.35.772q.053.634.124 1.264c.038.205.1.381.531.555" style="stroke-width:.750998"/></svg>