<svg xmlns="http://www.w3.org/2000/svg" viewBox="0 0 100 100"><path fill="#172983" d="M0 0h100v100H0z"/><path fill="#fff" fill-rule="evenodd" d="M52.95 75.829c-1.046.296-2.245.296-3.443.296-14.37 0-26.195-11.68-26.195-26.047 0-5.09 1.494-9.88 4.041-13.771 4.187 4.189 7.185 8.83 9.88 13.32 1.798 3.446 4.19 4.64 7.337 6.141a.82.82 0 0 1 .745-.45c.45 0 .75.45.75.9v.297a17 17 0 0 0 1.649.899l4.94-4.644a31 31 0 0 1-2.1-.896.82.82 0 0 1-.744.448c-.45 0-.75-.296-.75-.747v-.297c-5.836-2.846-10.177-6.437-13.771-10.183-4.792-5.088-8.383-10.328-14.525-13.622h-6.286a51 51 0 0 1 10.927 7.033 29.17 29.17 0 0 0-4.492 15.572c0 15.722 12.878 28.44 28.594 28.44 1.198 0 2.4 0 3.446-.15A28.22 28.22 0 0 0 71.668 67.89c.595.448 1.198.9 1.942 1.347l3.597-2.393-16.173-6.139 17.368 4.94 5.54-3.294c-8.532-.148-16.467-1.05-22.155-3.894 7.936 1.8 16.467 2.248 25.3 2.1l6.435-4.644c-11.675 2.393-23.203 2.097-35.03-1.346l-5.539 5.839C58.344 64 63.881 64 69.42 66.696a25.7 25.7 0 0 1-16.467 9.133m0-17.22 4.193-4.042-3.143-1.646-1.046 1.047-.449.45c.288.146.436.562.449.86v.07c-.023.741-.615 1.464-1.35 1.464a1.3 1.3 0 0 1-1.05-.593l-1.794 1.494 3.144 1.952zm0-7.334 4.644 1.946c1.195-1.945 1.195-1.945 3.14-1.198 14.82 5.838 25.9 5.39 32.187-.748-5.089 2.542-10.178 3.447-15.418 2.992.297-1.35.297-2.843.297-4.19 0-14.52-10.776-26.646-24.85-28.292a24.5 24.5 0 0 0-3.443-.3c-7.938 0-15.117 3.292-20.36 8.38-1.497-1.046-3.143-1.645-5.24-1.349 6.438 2.998 9.282 11.378 16.467 9.433-4.045-1.494-6.734-4.341-9.282-6.434 4.793-4.645 11.23-7.636 18.412-7.636 1.202 0 2.4.15 3.446.296 12.724 1.8 22.605 12.728 22.605 25.903 0 1.35-.151 2.692-.299 3.89-5.988-.747-11.974-3.443-18.113-6.734-1.648-.899-3.143-1.199-4.193-.6-1.046.449-1.797 1.646-2.097 3.595zm0 0" style="stroke-width:.790446"/></svg>