<svg xmlns="http://www.w3.org/2000/svg" viewBox="0 0 100 100"><path fill="#D41219" d="M0 0h100v100H0z"/><path fill="#088038" d="m67.846 41.656 5.499 2 3.603-4.61-.207 5.85.988.357-2.728 6.93-1.866-2.682-5.623 1.614 3.604-4.612zm0 0" style="stroke-width:.73738"/><path fill="#ffd803" d="M80.454 36.197c-4.402-.738-11.623-2.333-23.628.214-1.023.215-2.08.463-3.18.748q-2.203.552-4.646 1.336l-4.07 4.646s.962-.1 1.368-.12c.677 0 1.964-.067 3.191 0q1.445.033 2.863.314c3.599.636 7.516 2.31 9.284 6.397 3.13 7.226-1.823 16.283-12.717 21.01-9.085 3.934-31.676 4.04-31.676 4.04l-4.125 4.71h20.97c30.814 0 34.21-10.801 40.919-27.283l-1.873-2.679-5.622 1.608 3.604-4.606-3.27-4.854 5.505 2.002 3.603-4.605-.208 5.844.988.357a484 484 0 0 0 3.304-8.932 6 6 0 0 0-.59-.127" style="stroke-width:.73738"/><path fill="#fff" d="m53.271 33.642 6.246-7.114c2.646-2.91 5.106-6.087 13.284-6.02h14.053l-4.522 12.475s-14.469-3.61-29.06.656" style="stroke-width:.73738"/><path fill="#088038" d="M19.605 72.08c6.02-.204 18.83-.552 27.036-4.03 9.162-3.876 12.567-10.619 9.948-16.67-3.093-7.155-14.027-5.501-14.027-5.501L19.631 72.045v.032" style="stroke-width:.73738"/></svg>