<svg xmlns="http://www.w3.org/2000/svg" viewBox="0 0 100 100"><path fill="#72BF44" d="M0 0h100v100H0z"/><path fill="#ed1c24" d="m51.55 28.07 12.53 43.86V59.396h9.397c8.652 0 15.665-7.013 15.665-15.665S82.13 28.066 73.477 28.066zm12.53 12.532h9.397a3.132 3.132 0 0 1 0 6.263h-9.394zm0 0" style="stroke-width:.78291"/><path fill="#b82025" d="M51.55 28.07v43.86h12.53zm0 0" style="stroke-width:.78291"/><path fill="#fff" d="M10.854 28.07v12.535h9.364v31.329l12.536-43.865Zm31.298 0v12.535L45.44 51.57h-6.584l3.296-10.96h-9.397v31.325l2.349-7.83h14.058v-.15l2.388 7.98V28.069Zm0 0" style="stroke-width:.78291"/><path fill="#ccc" d="M32.754 28.07 20.215 71.93h12.533V40.603h9.395V28.069Zm0 0" style="stroke-width:.78291"/></svg>