<svg xmlns="http://www.w3.org/2000/svg" viewBox="0 0 100 100"><path fill="#D40000" d="M0 0h100v100H0z"/><path fill="#fff" d="m29.06 27.634-.953 1.082h18.62l-1.01-1.085zm-7.62 1.825-.804.873h27.709l-.814-.873zm-.696 1.564 1.17 1.126H35.15l1.136-1.126zm30.238 1.87-25.24.016.909.92h25.211zm-24.038 1.615s.13.366.152.606c.035.303 0 .627 0 .627h4.447l1.205-1.233zm0 1.87-.713.977h29.182l-.953-.973Zm-1.368 1.575-1.19 1.129h4.24l.83-1.13zm-1.968 1.885-.786.893h35.941l-.817-.89zm-1.275 1.612s-.277.31-.444.546c-.167.25-.316.675-.316.675h5.775s.044-.426.113-.675c.08-.234.15-.546.15-.546zm-1.085 1.857s-.11.196-.234.446a4 4 0 0 0-.21.463h41.51l-.902-.908zm-.716 1.615s-.167.325-.236.597c-.08.271-.149.587-.149.587h7.29s-.026-.297-.067-.574c-.063-.259-.056-.606-.056-.606Zm-.53 1.862s-.1.233-.148.482a3 3 0 0 0-.082.464h46.014l-.808-.943zm-.27 1.653s-.033.33-.048.605c-.022.268-.032.571-.032.571h9.408l-.864-1.177zm-.064 1.898s.024.268.024.47l.011.41h49.623l-.76-.88Zm.136 1.615s.028.404.073.622c.046.223.166.586.166.586h14.13s-.763-.344-1.352-.573a8 8 0 0 1-1.28-.635zm29.695.025-1.176 1.176h8.333l-1.164-1.176zm-29.263 1.944s.04.214.132.44c.101.218.167.386.167.386h52.409l-.937-.826Zm-9.508 1.544-.995 1.082h50.55l1.038-1.085zm-1.1 1.886.864.89h65.886l-.909-.89zm13.243 1.634.859 1.028h39.817l-1.082-1.028zm-11.695.016 1.028.977h3.584l-1.056-.977zm1.99 1.885.884.852h3.432l-.726-.848zm11.542.03s.274.223.523.393c.24.168.536.43.536.43h54.165l-.78-.824zm-9.977 1.598 1.145 1.057h3.532l-1.079-1.057zm12.212 0s.47.272.981.49c.524.226 1.433.57 1.433.57h9.95l2.212-1.06zm29.065 0c.25.366.524.719.82 1.05l10.312-.008-1.086-1.042zm-39.356 1.915.864.82h3.486l-.864-.82zm41.007 0 1.252.842H83.38s-.152-.252-.253-.381l-.42-.46zm2.236 1.58s.448.296 1.006.559c.568.274 1.644.586 1.644.586H83.68s-.234-.293-.403-.464c-.168-.17-.717-.681-.717-.681zm-41.605.028 1.097 1.076h3.543l-1.145-1.076zm1.857 1.833.707.814h3.595l-.788-.814zm54.22.098s.608.18 1.563.347a134 134 0 0 1 2.647.517h8.404l-.776-.864zm-52.628 1.548 1.19 1.132h1.564v-1.135zm59.449.076 1.924 1.16h4.044l-1.057-1.16Zm-57.604 1.817.93.892v-.892zm61.433.148s.35.215.76.385c.42.17 1.23.429 1.23.429h3.365l-.64-.814Zm0 0" style="stroke-width:.807447"/></svg>