<svg xmlns="http://www.w3.org/2000/svg" viewBox="0 0 100 100"><path fill="#6B4AA8" d="M0 0h100v100H0z"/><path fill="#62d6c2" d="m73.985 60.46-6.908-30.997h-8.422l10.148 41.07h10.1l10.357-41.07h-8.162Zm-15.837-5.67h-8.103a8.1 8.1 0 0 1-1.927 4.456c-2.683 3.09-6.84 4.304-13.22 4.304-5.425 0-11.155-1.506-13.83-5.266-1.417-1.77-2.276-4.406-2.276-8.255 0-3.497.601-6.129 1.973-7.9 2.281-3.55 7.143-5.522 13.977-5.522 6.788 0 10.992 1.874 13.171 4.407a8 8 0 0 1 2.027 4.456h8.104a16.4 16.4 0 0 0-2.077-6.738c-3.288-5.518-9.417-9.265-21.111-9.265-10.688 0-17.07 3.342-20.668 8.253-2.283 2.95-3.448 7.092-3.448 12.263 0 5.671 1.417 9.926 3.899 12.959 3.497 4.662 10.232 7.595 20.46 7.595 10.994 0 17.374-3.291 20.565-8.408a17.7 17.7 0 0 0 2.483-7.345" style="stroke-width:.785227"/></svg>