<svg xmlns="http://www.w3.org/2000/svg" viewBox="0 0 100 100"><path fill="#FFE900" d="M0 0h100v100H0z"/><path d="m93.016 34.773-4.887 3.356.832 3.492-4.11 1.094c-1.64-1.422-3.847-2.352-6.64-2.352-6.703 0-9.914 5.309-9.914 9.778 0 4.472 3.21 9.777 9.914 9.777 6.707 0 9.918-5.309 9.918-9.777q0-1.441-.399-2.828l2.493-.668 3.351 13.69L100 58.794l-.14-3.77-1.817.418-2.516-10.054L100 44.273l-1.117-5.027-4.469 1.117Zm-71.508 5.59c-3.77 0-7.121 2.375-7.121 6.285 0 2.516 1.96 4.051 4.328 4.75 3.492 1.399 4.89 1.536 4.89 2.793 0 .832-.98 1.395-1.96 1.395-.274 0-1.813 0-2.09-1.676h-5.446c.559 4.887 4.75 6.145 7.54 6.145 4.05 0 7.542-2.375 7.542-6.426 0-3.906-3.351-4.887-6.425-5.727-1.395-.414-2.79-.976-2.79-1.816 0-.559.415-1.254 1.532-1.254 1.539-.14 1.676.836 1.676 1.254h5.449c-.418-4.887-4.61-5.723-7.125-5.723m17.18 0c-5.446 0-9.637 4.332-9.637 9.778a9.72 9.72 0 0 0 2.844 6.937 9.72 9.72 0 0 0 6.937 2.84 9.69 9.69 0 0 0 9.633-7.543h-5.582c-.563 1.117-1.676 2.512-3.91 2.512-2.657 0-4.332-1.957-4.332-4.61 0-1.257.418-2.515 1.254-3.351.84-.836 1.96-1.39 3.218-1.25 1.953-.285 3.07 1.113 3.766 2.37h5.586c-.977-4.472-4.887-7.683-9.774-7.683Zm19.55 0c-6.699 0-9.918 5.309-9.918 9.778 0 4.472 3.22 9.777 9.918 9.777 6.707 0 9.914-5.309 9.914-9.777 0-4.465-3.207-9.778-9.914-9.778m0 5.164c2.375 0 4.469 1.961 4.469 4.614s-1.957 4.609-4.469 4.609c-2.375 0-4.468-1.957-4.468-4.61 0-2.648 1.96-4.613 4.468-4.613m19.832 0c2.516 0 4.473 1.961 4.473 4.614s-1.961 4.609-4.469 4.609c-2.375 0-4.469-1.957-4.469-4.61 0-2.648 1.957-4.613 4.47-4.613Zm0 0"/></svg>