<svg xmlns="http://www.w3.org/2000/svg" viewBox="0 0 100 100"><path fill="#EB1F37" d="M0 0h100v100H0z"/><path fill="#fff" d="M42.16 13.392c-10.328 0-18.703 8.38-18.703 18.723S31.833 50.84 42.161 50.84c2.684 0 5.336-.574 7.777-1.689-9.054-1.58-15.704-9.953-15.698-19.773 0-1.742.21-3.478.63-5.162l2.13-.837c1.104-3.94 3.314-7.422 6.333-9.97q-.585-.027-1.174-.018m7.777 35.778c-4.411-8.06-2.013-18.478 5.663-24.597a21.3 21.3 0 0 1 4.432-2.719l1.984 1.15c3.77-1.597 7.873-2.043 11.747-1.274q-.338-.48-.707-.942c-6.444-8.083-18.23-9.403-26.32-2.946a18.74 18.74 0 0 0-6.948 12.543 18.7 18.7 0 0 0 3.961 13.773 18.6 18.6 0 0 0 6.166 5.014zm0 0c3.56-8.464 13.198-13.076 22.76-10.889a21.5 21.5 0 0 1 4.891 1.757l.336 2.282c3.587 1.95 6.486 4.877 8.297 8.378q.16-.559.291-1.126c2.298-10.077-4.018-20.108-14.107-22.405-10.082-2.305-20.125 3.99-22.424 14.061a18.6 18.6 0 0 0-.087 7.945zm0 0c8.844-2.502 18.467 2.164 22.717 11.016a21.2 21.2 0 0 1 1.673 4.914l-1.569 1.694c.716 4.026.234 8.12-1.375 11.722q.537-.222 1.066-.482c9.314-4.477 13.228-15.673 8.736-24.996-4.49-9.316-15.67-13.237-24.978-8.757a18.7 18.7 0 0 0-6.27 4.892m0 0c7.469 5.353 9.823 15.78 5.56 24.623a21.3 21.3 0 0 1-2.804 4.368l-2.296-.167c-2.701 3.065-6.197 5.24-10.014 6.228q.516.29 1.05.544c9.305 4.478 20.486.557 24.972-8.757 4.49-9.323.577-20.518-8.737-24.996a18.7 18.7 0 0 0-7.73-1.84m0 0c.468 9.172-6.212 17.51-15.78 19.692a21.5 21.5 0 0 1-5.163.542l-1.294-1.9c-4.086-.2-7.968-1.58-11.123-3.953q.096.58.231 1.15c2.3 10.071 12.343 16.37 22.424 14.064 10.09-2.294 16.407-12.328 14.108-22.4a18.7 18.7 0 0 0-3.384-7.191zm0 0c-6.882 6.093-17.578 6.067-25.25-.06a21.3 21.3 0 0 1-3.635-3.721l.668-2.193c-2.393-3.32-3.733-7.217-3.846-11.164q-.402.437-.774.902c-6.442 8.08-5.105 19.862 2.99 26.307 8.086 6.454 19.87 5.134 26.313-2.95a18.7 18.7 0 0 0 3.533-7.124" style="stroke-width:.739589"/></svg>