<svg xmlns="http://www.w3.org/2000/svg" viewBox="0 0 100 100"><path fill="#370E62" d="M0 0h100v100H0z"/><path d="M75.691 3.125q-3.351-.14-6.421.559a20 20 0 0 0-5.68 2.234c-1.863.93-3.352 2.14-4.75 3.445a21 21 0 0 0-3.445 4.563c-.836 1.77-1.489 3.539-1.86 5.492a17 17 0 0 0-.281 3.074c0 .836.094 1.582.187 2.512-1.863-1.024-3.632-1.953-5.496-2.606-2.328-.652-4.746-1.117-7.445-1.21-2.516 0-4.844.187-7.078.746a20.9 20.9 0 0 0-6.05 2.328c-1.865.93-3.54 2.14-5.122 3.445-1.117.836-2.234 1.953-3.262 2.977 0 0-1.582 1.492-2.418 2.515-.84 1.024-1.675 2.14-2.703 3.352l-2.047 2.605c-.558.746-1.116 1.399-1.77 2.145a79 79 0 0 1-2.698 2.886c-1.49 1.49-3.165 2.977-5.028 4.094a3.4 3.4 0 0 1-1.117.746c-.187.188-.465.282-.746.465-.188.094-.465.28-.465.559 0 .28.277.375.465.558.28.094.559.188.746.375.465.278.836.465 1.117.743 1.953 1.117 3.54 2.61 5.028 4.097.93.93 1.863 1.957 2.699 2.887a57 57 0 0 1 1.77 2.14l2.046 2.61c.934 1.207 1.863 2.418 2.703 3.352.742.93 2.418 2.511 2.418 2.511a24.6 24.6 0 0 0 3.262 2.98c1.582 1.306 3.352 2.606 5.121 3.446 1.953 1.023 3.91 1.863 6.05 2.328 2.236.56 4.563.742 7.079.742 2.7-.09 5.117-.465 7.445-1.207 1.864-.558 3.633-1.491 5.496-2.61-.093.84-.187 1.583-.187 2.517q0 1.534.281 3.07c.278 1.957.93 3.726 1.86 5.496.933 1.77 2.14 3.258 3.445 4.562 1.398 1.301 2.98 2.606 4.75 3.446 1.77.93 3.629 1.765 5.68 2.234q3.07.696 6.421.559c2.235 0 4.38-.375 6.52-.934 2.047-.652 3.91-1.394 5.773-2.512 1.582-1.027 3.258-2.234 4.657-3.632a28.4 28.4 0 0 0 3.629-4.47c.93-1.58 1.863-3.35 2.421-5.12a23.4 23.4 0 0 0 1.211-5.492c0-.653.094-1.399.094-2.145 0-1.394-.187-2.977-.375-4.469a23.6 23.6 0 0 0-1.953-6.703c-.84-1.953-2.05-3.722-3.262-5.305-1.207-1.585-2.793-2.98-4.281-4.097a25 25 0 0 0-2.605-1.492c-.47-.278-.934-.465-1.399-.649.465-.28.93-.469 1.399-.746.835-.37 1.675-.934 2.605-1.492 1.488-1.117 3.074-2.512 4.281-4.094 1.211-1.492 2.422-3.351 3.262-5.308a36 36 0 0 0 1.953-6.332c.188-1.49.375-3.07.375-4.47 0-.651-.094-1.394-.094-2.14a23.3 23.3 0 0 0-1.21-5.492c-.56-1.863-1.4-3.54-2.422-5.121a28 28 0 0 0-3.63-4.469c-1.397-1.398-3.074-2.61-4.656-3.633-1.863-1.023-3.726-1.957-5.773-2.515-2.14-.56-4.285-.93-6.52-.93m-1.75 5.646c1.485-.048 2.915.127 4.454.405 1.859.375 3.628 1.027 5.304 1.863 1.582.84 3.169 2.047 4.469 3.258 1.305 1.305 2.516 2.888 3.352 4.469 1.027 1.864 1.68 3.632 2.05 5.59.371 2.14.465 4.188.188 6.328-.188 1.958-.745 3.82-1.492 5.68-.745 1.675-1.864 3.262-3.07 4.656-1.118 1.305-2.704 2.609-4.192 3.539a17.3 17.3 0 0 1-5.027 2.234c-1.957.559-3.817.836-5.774.836-2.14 0-4.191-.184-6.238-.649a30 30 0 0 1-4.75-1.863c-1.395-.652-2.7-1.488-3.91-2.422-1.211-.745-2.328-1.77-3.446-2.605-1.023-.934-2.14-1.676-3.257-2.422-1.118-.836-2.422-1.395-3.63-1.863-1.304-.372-2.796-.653-4.284-.653a15.5 15.5 0 0 0-5.774 1.121c-1.676.743-3.352 1.954-4.652 3.258-1.305 1.395-2.422 2.981-3.168 4.746-.653 1.864-.93 3.727-.93 5.68a16.8 16.8 0 0 0 .93 5.59c.746 1.676 1.863 3.441 3.168 4.746 1.3 1.305 2.882 2.516 4.652 3.258a15.5 15.5 0 0 0 5.773 1.117c1.49 0 2.982-.278 4.286-.648 1.208-.56 2.51-1.118 3.629-1.864 1.117-.652 2.234-1.582 3.257-2.422 1.118-.835 2.235-1.77 3.446-2.605 1.21-1.024 2.515-1.77 3.91-2.422 1.492-.746 3.168-1.305 4.75-1.676 2.047-.558 4.098-.746 6.238-.746 1.957 0 3.817.281 5.774.84 1.675.464 3.445 1.301 5.027 2.234 1.488.93 3.073 2.235 4.191 3.54 1.206 1.394 2.325 2.887 3.07 4.652.747 1.769 1.305 3.726 1.493 5.773.277 2.141.183 4.193-.188 6.239-.465 2.05-1.117 3.816-2.05 5.68-.836 1.581-2.047 3.168-3.352 4.468-1.301 1.21-2.887 2.422-4.469 3.262-1.769.93-3.444 1.582-5.304 1.859-2.05.465-3.911.56-5.961.281-1.953-.187-3.723-.746-5.493-1.582-1.582-.84-3.168-1.957-4.375-3.355-1.304-1.207-2.233-2.793-2.98-4.469-.651-1.675-1.117-3.445-1.211-5.305-.094-2.05.187-3.91.746-5.773 0-.281.09-.465.184-.746 0-.094.093-.184.093-.278.094-.187.094-.28.188-.375 0-.089.094-.183.187-.183.184 0 .184.183.184.183.094.282.094.56.094.84.094.93.37 1.953.746 2.887.652 1.582 1.858 3.07 3.351 4.098a10.7 10.7 0 0 0 5.122 1.582c1.954.093 3.91-.187 5.68-1.117 1.581-.747 2.976-2.05 3.816-3.54.839-1.675 1.21-3.538 1.21-5.398a10.66 10.66 0 0 0-1.492-5.402c-.929-1.583-2.323-2.981-4.093-3.723-1.676-.84-3.633-1.117-5.496-.934a10.1 10.1 0 0 0-3.723 1.024c-1.211.652-2.422 1.304-3.445 2.144a48 48 0 0 0-3.352 2.793c-1.117.93-2.422 2.047-3.54 2.887-1.3 1.117-2.698 1.953-4.003 2.7-1.488.93-3.164 1.581-4.746 2.046-1.957.465-3.82.746-5.773.746a21.2 21.2 0 0 1-5.961-.558c-1.582-.465-3.258-1.024-4.747-1.864-1.304-.652-2.703-1.675-3.82-2.605-1.207-1.023-2.324-2.142-3.351-3.258-1.024-1.118-2.047-2.422-2.977-3.539a54 54 0 0 0-2.793-3.633 53 53 0 0 0-3.074-3.351c-1.024-1.024-2.235-2.141-3.445-2.887-.277-.184-.465-.37-.747-.465l-.558-.277c-.09-.094-.277-.281-.277-.375 0-.184.187-.371.277-.465.188-.094.375-.094.558-.277.282-.094.469-.282.747-.47 1.21-.741 2.42-1.769 3.445-2.886a53 53 0 0 0 3.074-3.351 96 96 0 0 0 2.793-3.536c.93-1.21 1.953-2.515 2.977-3.632 1.027-1.118 2.144-2.235 3.351-3.258 1.117-1.024 2.516-1.958 3.82-2.61 1.49-.93 3.165-1.488 4.747-1.859 1.957-.469 3.91-.559 5.96-.559 1.954 0 3.817.278 5.774.743 1.582.558 3.258 1.21 4.746 2.05a33 33 0 0 1 4.004 2.7c1.118.836 2.422 1.953 3.539 2.886a48 48 0 0 0 3.352 2.793c1.023.93 2.234 1.582 3.445 2.235a15.8 15.8 0 0 0 3.723 1.023c1.863.187 3.914-.187 5.496-1.023 1.675-.746 3.163-2.141 4.093-3.723.934-1.68 1.493-3.445 1.493-5.402 0-1.864-.371-3.818-1.211-5.309-.84-1.49-2.236-2.883-3.817-3.629-1.77-.933-3.726-1.211-5.68-1.117-1.77.094-3.632.652-5.12 1.582-1.492 1.023-2.7 2.516-3.352 4.098-.376.929-.652 1.953-.746 2.886 0 .278 0 .56-.094.836 0 .094 0 .188-.184.188-.093 0-.187-.094-.187-.094-.094-.187-.094-.277-.188-.465 0-.093-.093-.187-.093-.281-.094-.277-.184-.465-.184-.742-.558-1.864-.84-3.727-.746-5.774.094-1.863.559-3.726 1.21-5.308.747-1.676 1.771-3.258 2.981-4.563 1.207-1.3 2.793-2.418 4.375-3.258 1.77-.839 3.539-1.398 5.493-1.582q.767-.103 1.507-.127" style="fill:#f5c300;fill-opacity:1" transform="matrix(.75 0 0 .75 12.503 12.496)"/><path fill="#b6007d" d="M60.822 49.896c0-.07 0-.14-.07-.14-1.743-.42-3.281-1.398-4.746-2.444-1.538-1.049-2.933-2.305-4.541-3.354-1.536-.975-3.211-1.954-5.098-2.025-1.535-.138-3.003.211-4.33.908a7.1 7.1 0 0 0-2.862 2.863c-.697 1.19-1.046 2.655-1.046 4.122v.07c0 1.465.349 2.863 1.046 4.12a7.07 7.07 0 0 0 2.862 2.862 8.4 8.4 0 0 0 4.33.978c1.887-.14 3.562-1.049 5.098-2.094 1.608-1.05 3.003-2.306 4.54-3.353 1.466-1.048 3.004-2.026 4.747-2.445.07 0 .07-.068.07-.068"/></svg>