<svg xmlns="http://www.w3.org/2000/svg" viewBox="0 0 100 100"><path fill="#2DCCD3" d="M0 0h100v100H0z"/><path fill="#FFF" d="M62.94 14.04q-.033-.002-.067 0s-.315.003-.701.322c-3.402 2.833-6.522 11.432-6.522 11.432-1.963 5.404-2.848 7.175-3.839 11.17-.514 2.08-.957 4.351-.32 6.975.347 1.449.939 2.661.932 2.775v.004h-.001c-.287-.412-1.478-2.881-2.638-5.536-.738-1.703-.902-2.217-1.93-4.703a270 270 0 0 0-2.244-5.266c-4.034-9.234-5.436-10.985-6.42-12.064-1.396-1.521-2.787-2.996-4.445-2.78-2.276.301-3.412 3.563-3.581 4.04a7.7 7.7 0 0 0-.377 1.6c-.374 2.804.765 5.316 1.294 6.473.16.359.35.713.59 1.092.516.842 1.25 1.809 2.369 3.283 1.55 2.057 4.279 5.348 5.298 6.406.57.598 1.084 1.25 1.537 1.942.33.515.704 1.104 1.162 1.72.588.792 1.308 1.619 2.25 2.364a14.4 14.4 0 0 0 3.145 1.857 108 108 0 0 1-5.024-2.088 156 156 0 0 1-8.655-4.049c-4.55-2.316-8.229-4.507-12.84-6.063a15.6 15.6 0 0 0-4.606-.67c-1.292 0-2.643.013-3.529.506a1.87 1.87 0 0 0-.745.678c-1.277 2.062.68 4.986 1.817 6.662 1.521 2.244 3.327 4.207 5.553 5.775 4.854 3.417 10.82 4.942 16.594 5.93 6.397 1.089 11.003.204 11.035.195.038-.009 1.471-.357 1.472-.388.001.01.029.282-.336.388-.808.236-.87.28-1.233.36-1.232.257-1.948.584-4.65 1.851a721 721 0 0 0-4.799 1.984c-4.767 1.986-4.83 2.117-7.08 3.385-4.36 2.453-5.131 3.277-5.813 3.82-1.87 1.487-4.957 5.18-5.08 7.887-.031.634.194.87.568 1.215 1.758 1.621 5.57 1.532 7.036 1.458 4.913-.25 7.455-1.613 9.534-2.82a43 43 0 0 0 4.466-3.063c.68-.529 1.241-.996 2.895-2.471a108 108 0 0 0 3.957-3.87c3.482-3.642 3.614-4.28 4.163-5.022l.16-.224c.196-.272.371-.573.882-1.21.328-.403.626-.902.646-.964a2.66 2.66 0 0 1-.426 1.195c-.111.17-.176.301-.293.453a13 13 0 0 0-.812 1.449c-.94 1.913-.736 3.04-.604 3.633 1.355 5.824 2.308 14.467 7.515 20.087 2.06 2.223 4.241 3.395 6.43 2.51.57-.23 1.445-3.882 1.623-9.026.24-6.856-3.616-13.127-5.602-17.202a22 22 0 0 0-.748-1.974c-.478-1.095-.765-1.47-1.063-1.753-.426-.409-.733-.496-1.165-.949l-.111-.134c-.246-.292-.322-.456-.701-.885a9 9 0 0 0-.485-.514 1.6 1.6 0 0 0-.406-.322 2.03 2.03 0 0 0-1.344-.14c-.5.126-.66.4-.987.301-.225-.07-.231-.22-.508-.406-.42-.286-.702-.21-1.093-.345-.486-.175-.83-.83-.946-1.297-.15-.596-.155-1.092.12-1.638a2.5 2.5 0 0 1 .566-.719 3.1 3.1 0 0 1 .996-.455.94.94 0 0 0 .573-.41c.102-.166.093-.327.184-.528q.1-.208.245-.389c.24-.297.436-.33.783-.616.16-.128.263-.24.467-.464 1.046-1.134 2.328-3.865 2.328-3.865.35-.87.905-2.223 1.648-3.844 3.116-6.815 4.37-7.235 5.248-10.702.374-1.492 1.359-5.62-.58-9.805a12.3 12.3 0 0 0-2.335-3.403c-.081-.082-.24-.137-.397-.142m14.295 18.35a10 10 0 0 0-1.376.017c-1.337.114-2.298.505-3.32.923-2.52 1.028-3.141 2.008-7.049 5.036-3.493 2.71-4.29 2.93-6.043 4.852-1.143 1.252-2.203 2.958-2.45 3.21-.251.248-1.21 1.06-.95 1.513.114.19.532.16.882.546.12.129.357.675.56.83.296.28.441.125.52.4.042.14-.072.263-.005.458.082.234.102.228.187.453.03.084-.015.332-.167.456-.163.136-.432.02-.791.25a.62.62 0 0 0-.304.55.52.52 0 0 0 .365.5l.567.125c.578.123 1.04.737 1.168.92q.032.04.032.044c3.926 5.765 19.293 10.577 19.293 10.577.703.257 7.331 2.047 8.856-.231.598-1.098-.464-2.947-.935-3.713v.003c-1.338-2.173-2.254-3.212-2.792-3.674-2.498-2.161-4.866-3.073-6.817-3.923l-1.58-.675A32.2 32.2 0 0 0 63.71 49.22h-.003a17 17 0 0 0-2.783.17c-.295.04-.675.093-1.122.265q-.466.18-.905.42a6.1 6.1 0 0 1 1.954-.983l.058-.02c0 .008 8.009-2.063 15.87-6.503 4.118-2.328 7.556-4.268 7.287-6.376-.245-1.945-3.587-3.623-6.832-3.803"/></svg>