<svg xmlns="http://www.w3.org/2000/svg" viewBox="0 0 100 100"><path fill="#008FDA" d="M0 0h100v100H0z"/><path fill="#fff" d="M81.841 32.425c0-5.194-3.905-9.543-5.166-10.82a1618 1618 0 0 0-5.526-5.566v46.203c0 5.198 3.906 9.543 5.166 10.817 1.263 1.292 5.526 5.57 5.526 5.57zm-18.53 6.44c3.683-3.673 4.001-9.502 4.018-11.287l.039-7.84L22.2 64.778c-3.664 3.672-3.995 9.501-4.009 11.287-.015 1.801-.042 7.84-.042 7.84zm-.636 41.052c3.682 3.67 9.528 3.99 11.326 4.001l7.853.043L64.13 66.272c-3.686-3.666-9.515-3.99-11.33-4.014l-7.853-.043 17.729 17.687zm0 0" style="stroke-width:.679217"/></svg>