<svg xmlns="http://www.w3.org/2000/svg" viewBox="0 0 100 100"><path fill="#70CBF4" d="M0 0h100v100H0z"/><path fill="#D40E14" d="M87.504 26.605a6.615 6.615 0 1 1-13.23 0 6.61 6.61 0 0 1 6.617-6.609 6.613 6.613 0 0 1 6.613 6.613M16.039 36.707h17.848c1.761 0 3.066.57 3.582 3.035.57 2.766.355 4.692-2.77 4.906l-5.605.399c4.129 26.035 28.219 34.527 41.336 6.469 2.175-4.637 2.863-5.485 5.257-4.895 3.22.8 3.66 2.469 2.118 7.137-11.325 34.582-49.442 38.05-56.918-8.121l-4.535.328c-3.704.262-3.852-2.86-3.852-4.578-.012-3.453 1.266-4.68 3.54-4.68"/></svg>