<svg xmlns="http://www.w3.org/2000/svg" viewBox="0 0 100 100"><path fill="#00D66C" d="M0 0h100v100H0z"/><path fill="#FFF" d="M72.043 57.227h-2.809c-2.804 0-4 1.496-4.41 4.398-.707 5.313-4.91 8.918-10.426 8.918-6.402 0-10.507-4.711-10.507-11.531V42.988c0-.64-.094-1.203-.25-1.71.605.277 1.32.413 2.148.417h14.727c2.812 0 4.41-1.61 4.41-4.406v-1.3c0-2.813-1.598-4.415-4.41-4.415h-8.309v-9.027c0-2.8-1.605-4.406-4.406-4.406h-2.012c-2.8 0-4.402 1.609-4.402 4.406v14.738q.002.946.25 1.707a5.4 5.4 0 0 0-2.153-.41H24.75c-2.805 0-4.41 1.605-4.41 4.406v1.309c0 2.805 1.605 4.406 4.41 4.406h8.32v10.305c0 12.926 8.313 21.945 21.34 21.945 12.125 0 20.14-7.719 21.64-19.332.395-2.91-1.507-4.398-4.015-4.398Zm0 0"/></svg>