<svg xmlns="http://www.w3.org/2000/svg" viewBox="0 0 100 100"><path fill="#00B3F0" d="M0 0h100v100H0z"/><path fill="#fff" d="M67.739 12.061c-9.265 2.896-17.96 10.86-26.789 19.405-11.295.575-23.605 5.066-24.906 5.792 13.033 6.805 16.22 9.847 16.22 9.847s-4.349 12.457-5.218 20.415c2.896-7.093 8.546-16.797 12.02-21.43-4.775-3.91-13.757-8.103-13.757-8.103s7.097-3.041 21.285-3.767c0 0 5.94-11.441 21.145-22.157zm-7.096 10.573c-1.304 2.75-3.622 8.83-4.054 13.32 9.991.726 16.796 3.04 16.796 3.04s-10.14 3.765-15.783 8.255c1.013 2.463 3.332 9.705 4.633 15.35-2.173-2.026-8.688-7.385-13.468-10.28-6.37 2.461-23.745 19.692-33.449 35.62 4.2-4.346 16.651-18.391 33.449-28.529 3.476 2.025 19.404 12.458 19.404 12.458s-3.473-18.54-4.771-22.882c4.916-3.33 13.314-7.96 21.278-10.424-11.147-4.49-24.758-5.647-24.758-5.647s-.29-3.48.723-10.281" style="stroke-width:.758778"/></svg>