<svg xmlns="http://www.w3.org/2000/svg" viewBox="0 0 100 100"><path fill="#009D3F" d="M0 0h100v100H0z"/><path fill="#fff" fill-rule="evenodd" d="M19.686 36.304c.694 0 1.617.747 1.617 1.44 0 .691-.923 1.083-1.617 1.083a1.265 1.265 0 0 1-1.259-1.262c0-.566.38-1.052.896-1.21q.177-.052.363-.05m-1.758-1.072c1.441.706 3.795.538 4.704 2.853-.93 1.203-3.128 1.588-4.166 1.055-1.213-.907-.021-2.326-.538-3.908m15.283 14.989s.94-.058 1.41-.096c1.653-.132 4.209.288 4.956-.459l-3.452-.689c-.47-.093-.549-2.002-.34-2.48l2.859.31c2.419.412 4.635.753 5.668-.453l-7.094-1.458c-.45-.09-.228-2.42.242-2.346l6.27 1.011c2.422.574 4.061.528 5.094-.7L38.3 40.704c-.571-.119-.522-2.404.053-2.302l10.356 1.851c2.864.555 3.38.159 4.602-1.346l-14.835-2.37c-.612-.096-.947-2.575-.33-2.485l18.255 2.661c3.18.473 4.553.626 5.907-1.104l-24.714-3.515c-.593-.086-1.28-2.32-.675-2.266l31.192 2.837c3.18.323 4.85.373 6.207-1.414l-38.737-3.337c-.675-.058-1.87-2.318-1.186-2.271l43.793 2.867c3.177.192 5.604-.805 6.961-2.648l-59.3-2.015c-5.897-.234-3.247 5.38-.13 8.788 2.873 3.145 5.086 6.17 4.17 10.065-1.58.884-5.027-4.268-7.186-6.418-2.808-2.32-6.101-.78-7.856.557 3.328 1.857 3.26 7.415 3.919 11.856.263 1.793 3.188 6.806 6.481 8.338l48.755 22.676c4.328-3.251 6.987-5.819 9.884-9.576-11.958-4.2-50.439-17.272-50.826-17.867-.343-.525-.412-2.006.151-2.044m-6.495-28.114 49.774.434c3.178.057 5.806-.313 7.162-2.216l-52.681-.02c-3.17.006-3.348.517-4.255 1.802" style="stroke-width:.703053"/></svg>