<svg xmlns="http://www.w3.org/2000/svg" viewBox="0 0 100 100"><path fill="#004289" d="M0 0h100v100H0z"/><path fill="#f28e00" d="M32.573 27.344c3.582-.496 12.7-1.779 15.908-2.495 3.224-.72 21.036-3.337 30.255-3.492 9.217-.158 8.664.453 8.943 2.142.277 1.687 1.077 2.281-.078 3.874-1.153 1.597-3.128 2.278-5.886 3.418-5.095 2.101-27.607 8.029-30.643 9.545 4.656-.23 11.45-1.523 18.165-1.714 4.467-.133 5.103.86 5.467 2.839.367 1.988.624 3.053-2.405 4.28-3.021 1.23-6.602 2.507-13.745 4.575-9.828 2.848-15.815 4.274-23.315 7.402 4.121.373 10.825-.223 16.194.006 8.059.344 8.507 1.224 8.707 3.606.19 2.38.376 3.08-2.929 4.584-3.31 1.516-9.296 3.044-12.687 3.76-3.402.72-16.04 3.426-18.492 4.074-2.147.558-4.024 3.092-7.417 4.248-3.782 1.283-5.426.772-6.635-1.941-.883-1.979 1.59-3.79 4.722-4.707 3.122-.91 12.33-2.96 16.26-3.975 3.937-1.026 11.747-3.188 14.377-4.21-3.466.03-12.124.169-18.56.306-3.855.078-5.323-.11-5.962-2.99-.648-2.868.603-3.874 4.083-4.99 3.483-1.113 8.73-3.516 12.124-4.63 3.396-1.119 12.797-4.473 15.483-5.091-6.357-.15-20.788 3.038-24.506 3.84-2.862.619-3.226-.387-4.322-2.393-1.098-1.997.304-3.334 2.056-3.749 2.14-.507 6.462-2.617 12.32-4.948 4.75-1.892 11.477-3.886 16.437-5.572 4.71-1.603 12.691-4.307 15.243-5.384-2.057-.015-11.507 1.381-17.678 2.22-6.166.836-16.74 2.997-18.34 3.603-1.612.609-3.471.388-4.562-2.057-1.07-2.426-.11-3.781 1.415-3.984" style="stroke-width:.764055"/></svg>