<svg xmlns="http://www.w3.org/2000/svg" viewBox="0 0 100 100"><path fill="#00ACC8" d="M0 0h100v100H0z"/><path fill="#fff" d="M16.609 72.03c5.508-6.95 12.318-17.582 21.418-23.37 13.465-8.564 22.798 4.558 28.872 15.839 4.806 8.944 10.003 18.789 16.492 23.184-16.354-4.916-22.843-31.898-45.77-27.32-8.482 1.702-15 7.901-21.012 11.667" style="stroke-width:.753663"/><path fill="#575656" d="M78.345 87.024c-8.623-4.796-23.464-10.64-30.803-19.048-2.002-2.285-3.197-4.445-3.933-6.594 16.8 1.545 22.898 19.197 34.733 25.642M48.828 44.709c3.324-3.818 7.655-7.342 11.817-10.527 8.876-6.772 16.127-13.349 19.072-21.865C80.88 27.075 64.47 37.79 59.927 51.216c-3.218-3.503-6.897-5.988-11.099-6.507" style="stroke-width:.753663"/></svg>