<svg xmlns="http://www.w3.org/2000/svg" viewBox="0 0 100 100"><path fill="#D71921" d="M0 0h100v100H0z"/><path fill="#FFF" d="m32.023 61.125-4.332 4.328c2.954 2.953 3.938 4.332 4.137 5.711.195-.2 4.133-3.547 4.133-4.727 0-1.773-1.18-2.363-3.938-5.312m-9.843-7.68h-2.36s2.364 1.375 2.364 4.532v10.625c0 6.89 5.707 13.386 12.597 13.386h5.707c3.543 0 4.727-.789 6.696-2.758l2.16-2.164c1.183-1.375 2.562-2.359 2.562-6.101v-3.543c0-2.953-1.773-4.332-2.562-5.117l-1.969-1.97v7.087s1.379 1.574 2.168 1.969c2.953 2.363.594 6.492-2.164 6.492H34.582c-5.906-.195-10.629-5.113-10.828-11.02v-5.71c0-5.708-1.57-5.708-1.57-5.708m18.5 7.676-4.329 4.332c2.954 2.953 3.938 4.332 4.133 5.711.2-.2 4.137-3.547 4.137-4.727 0-1.773-1.184-2.562-3.937-5.312M49.543 12.5l-2.95 2.953c-1.183 1.18-.788 3.543 1.575 5.906v5.907c0 .586-.594 1.18-.594 1.18s-3.543-3.153-6.687-3.153h-4.73c-2.954 0-5.313 2.758-5.708 2.953-1.574 1.574-1.574 4.531-.394 5.906l3.347 3.348s-.789-5.312 0-8.86c.196-.788 1.18-1.773 2.164-1.773l7.68 5.906-8.86 9.25c-.394.399-1.574 1.188-2.757 1.188-1.375 0-1.969-.79-2.559-1.578v4.332c0 1.375 1.97 2.953 3.742 2.953h11.813c.785 0 1.77-.195 2.559-.984l3.937-3.938c.586-.594.785-1.379.785-2.363v-4.528c0-4.332-3.343-7.675-3.343-7.675s.78-.594.78-2.364V22.54s1.38 1.375 1.579 1.969l2.562-2.563c1.176-1.175-.793-3.343-1.578-4.328-2.363-2.562-2.363-5.117-2.363-5.117M34.781 43.602c1.184-.594 1.38-.985 2.364-2.164l7.48-7.876s4.133 4.333 5.512 6.696c.593 1.18 1.379 3.344-2.164 3.344ZM24.738 34.55h-2.164c1.375.785 2.36 3.148 2.36 4.527v8.664c0 2.36 1.77 10.824 9.449 10.824h22.242v14.176c0 2.36-.785 3.735-1.375 4.328l-3.348 3.149h1.575l6.101-5.508c1.184-1.379 2.559-2.758 2.559-7.09v-9.058l2.562-2.56 4.328-4.136c0 3.547 1.774 5.121 3.344 5.121a3.96 3.96 0 0 0 2.363-.984l3.938-3.742c1.773-1.77 2.758-7.282-1.574-7.282-2.758 0-5.907 3.938-6.102 4.333-.984-.594-1.77-1.97-1.77-1.97v3.344c-.394.594-2.167 1.97-3.542 1.97h-3.547v-3.344c0-1.575.593-3.348 1.375-4.133l3.351-3.153H65.29l-6.695 6.106c-1.18 1.375-1.969 3.937-1.969 4.523H31.434c-3.153 0-5.122-3.148-5.122-5.707v-6.5c0-5.312-1.37-5.902-1.574-5.902m50.985 18.898c-.59 0-1.18-.199-1.97-.789-.784-.59-2.163-2.558-2.163-2.558.394-.391 1.578-.785 2.558-.785.786 0 1.575.195 1.77.59 1.379 1.769 1.184 3.542-.195 3.542M65.293 12.5l-6.7 6.102c-.39.394-1.968 2.757-1.968 5.515v17.516c0 1.183-.785 2.953-1.375 3.547l-3.348 3.148h1.575l6.3-5.71c.785-.786 2.36-2.755 2.36-6.102v-16.73c0-2.563 1.183-3.938 1.773-4.532l2.957-2.754Zm.984 44.883v6.89l2.36 2.559c1.968 1.969 1.773 5.707-4.133 11.414a11.83 11.83 0 0 1-8.07 3.742h-10.63l6.298 5.512h4.332c4.328 0 8.265-1.773 10.828-4.527 2.36-2.559 3.738-5.907 3.543-9.45V64.47c0-3.149-1.97-4.922-2.364-5.313-.394 0-2.164-1.773-2.164-1.773"/></svg>