<svg xmlns="http://www.w3.org/2000/svg" viewBox="0 0 100 100"><path fill="#FFF" d="M0 0h100v100H0z"/><path fill="#1414D2" d="M22.195 12.777c36.059 0 65.395 29.45 65.395 65.649 0 7.344-1.23 14.636-3.64 21.574H100V0H0v16.68l.074-.028a65.1 65.1 0 0 1 22.117-3.875M0 43.891c4.066-5.786 4.652-12.43 1.082-15.668A6 6 0 0 0 0 27.43Zm20.945-21.075c-3.593-4.125-9.582-5.543-16.53-4.543a8 8 0 0 0-.563.086q-.805.135-1.614.317c-1.07.25-1.808.492-2.238.656v2.086a32 32 0 0 1 2.105-1.54 29 29 0 0 1 4.028-.57A52 52 0 0 0 0 23.45v1.602l.063.035s5.101-4.035 9.144-5.773q1.47.107 2.8.414A61 61 0 0 0 1.184 25.7c.62.367 1.187.828 1.261.887.078-.043 5.946-3.715 12.403-5.914.875.398 1.718.898 2.457 1.46-7.035 1.977-13.793 5.505-13.793 5.505q.574.667 1.008 1.433l.117-.047c7.199-3.078 14.847-4.656 14.847-4.656.598.82 1.082 1.735 1.461 2.742 0 0-6.863.786-15.687 3.618.387 1.218.496 2.136.5 2.144 0 0 8.316-1.867 15.992-2.07a19.6 19.6 0 0 1-.11 4.035c-4.538-.238-15.37.34-15.788.367 0 0-.043 1.563-.454 3.031 0 0 7.915.254 15.11 1.594a35.4 35.4 0 0 1-2.11 5.086c-4.793-1.441-12.074-3.191-13.984-3.629a24 24 0 0 1-1.89 3.664s8.894 3.875 12.304 5.778h.008v.003c-1.48 2.215-4.418 5.32-4.418 5.32A383 383 0 0 0 8 54.263l-8-5.59v7.351l4.613 5.387A60 60 0 0 1 0 64.758v4.383l.168-.106a67 67 0 0 0 6.215-4.797C22.297 50.391 28.816 31.852 20.945 22.82m19.594.766c-7.55-10.164-19.371-8.711-22.898-8.219-3.871.543-6.793 1.387-6.793 1.387.859.082 2.039.238 2.886.41.63-.148 6.067-1.39 10.012-.871h.012c-2.903.316-6.863 1.516-7.278 1.637l-.007.008.015.003c.14.043 1.282.387 2.746 1.25.426-.117 5.805-1.543 10.934-1.64 0 0 1.895.84 3.715 2.09-6.625-.024-12.11 1.25-12.254 1.28.773.692 1.547 1.52 2.238 2.517 7.266-1.086 13.531-.618 13.531-.618s.852 1.04 1.235 1.598c.504.75.96 1.535 1.363 2.344-7.414-.867-14.504-.246-14.508-.246q.729 1.897 1 4.035c.82-.008 7.098.004 15.094 1.441q.38 2.76.082 5.871a108 108 0 0 0-15.09-2.703 30.7 30.7 0 0 1-1.008 5.567c.805.187 9.657 2.293 14.61 4.308a48 48 0 0 1-2.946 7.332c-3.992-1.969-13.785-5.793-13.785-5.793a52 52 0 0 1-3.57 6.617s8.395 4.793 12.438 7.442a75 75 0 0 1-6.301 7.812c-2.934-2.625-10.266-8.308-10.82-8.738a104 104 0 0 1-6.235 6.656l8.8 10.086-.25.223a84 84 0 0 1-5.69 4.254c-1.505 1.023-2.75 1.816-3.176 2.09q-3.393-5.391-6.727-10.817A66 66 0 0 1 0 73.56v18.906a80 80 0 0 0 3.11-1.563 79.3 79.3 0 0 0 14.253-9.125 89.5 89.5 0 0 0 8.86-8.039 79.5 79.5 0 0 0 9.16-11.265c9.707-14.328 12.304-29.266 5.156-38.887m15.418 3.453a14.7 14.7 0 0 0-1.664-1.953 22 22 0 0 0-1.668-1.434C46.363 18.934 34.84 16.57 34.84 16.57c1.101.59 2.015 1.192 2.023 1.196.055.007 4.703 1.175 8.825 3.191 0 0-3.75-.852-6.16-1.184a22.6 22.6 0 0 1 2.769 2.926s7.644 1.399 11.004 3.238c0 0 1.61 1.653 2.922 4.555-5.243-2.125-11.176-3.234-11.176-3.234a24 24 0 0 1 1.695 5.617s6.524 1.602 11.43 3.953c.426 2.324.578 4.734.488 7.172a90 90 0 0 0-11.539-4.73 38.7 38.7 0 0 1-1.195 7.773s7.902 3.527 11.457 5.668a56 56 0 0 1-3.207 9.176 197 197 0 0 0-11.14-6.64c-1.434 3.452-4.977 9.112-4.977 9.112h.004c.085.063 5.98 4.102 10.496 7.696a87 87 0 0 1-7.532 9.77c-.949-.907-9.632-8.618-9.632-8.618a94 94 0 0 1-8.73 8.836l8.374 9.473c-5.434 4.472-10.844 7.863-10.844 7.863l-6.988-9.922S8.297 93.195 0 97.125V100h27.238c30.407-23.004 41.196-55.895 28.723-72.96M54.023 100c7.102-7.937 13.149-17.277 16.782-27.273 3.152-8.68 4.87-19.278 2.078-28.704a25 25 0 0 0-.64-1.875 22.6 22.6 0 0 0-3.31-5.894A63.4 63.4 0 0 0 57.48 26.199a24 24 0 0 1 1.68 2.453s5.125 3.805 8.102 7.672c-3.817-2.719-5.985-3.82-6.262-3.96l-.035-.016c1.453 3.578 1.89 6.539 1.894 6.539 0 0 4.528 2.367 8.606 5.902.555 2.617.812 5.293.765 7.969a67 67 0 0 0-8.875-6.446 49 49 0 0 1-1.18 9.184s4.493 2.844 8.872 6.832c0 0-1.258 5.66-3.29 10.106a112 112 0 0 0-8.62-7.196s-2.082 5.438-5.465 10.895a262 262 0 0 1 8.16 7.457 89.5 89.5 0 0 1-8.094 10.71l-7.531-7.487a100 100 0 0 1-9.965 10.624L38.547 100Zm13.391 0h3.758c10.695-15.8 11.23-29.805 11.23-32.488 0-5.067-.847-9.723-2.27-13.41 0 0-2.218-5.73-5.679-10.832.375 1.144 1.106 3.453 1.5 5.515l.07.367c.684 1.141 3.75 6.551 4.165 12.508v.016s-2.168-3.04-3.778-4.961a50.4 50.4 0 0 1-1.168 9.71s3.211 3.723 4.653 6.126c0 0-.977 5.242-3.079 10.258-2.132-3.106-4.859-6.118-4.859-6.118a79 79 0 0 1-5.852 11.575s4.075 4.77 4.97 6.125A84 84 0 0 1 67.417 100Zm7.14 0c1.989-3.71 4.188-8.332 5.657-12.258v.008c.05.125.785 2.066 1.332 4.082a75.4 75.4 0 0 0 2.394-12.48c-.14-.559-.44-1.465-.613-2.016 0 0 .73-3.645 1.016-7.8a63.8 63.8 0 0 1-1.168 23.573 76 76 0 0 1-2.11 6.891Zm0 0"/></svg>