<svg xmlns="http://www.w3.org/2000/svg" viewBox="0 0 100 100"><path fill="#582900" d="M0 0h100v100H0z"/><path fill="#fdb515" d="m45.553 43.475.072.126a.66.66 0 0 1 .093.438.38.38 0 0 1-.182.291.45.45 0 0 1-.426-.039L33.347 32.252a1.97 1.97 0 0 1-.588-1.448q.09-.917 1.422-1.83a2.7 2.7 0 0 1 1.91-.646c.515.116.917.647 1.393 1.487zm-19.795.906a1.58 1.58 0 0 0-.993.279q-.746.536-.87 2.14a2.7 2.7 0 0 0 .375 1.986c.361.393 1.029.473 1.982.473l16.081.148a.513.513 0 0 0 .53-.433.45.45 0 0 0-.296-.383l-16.272-4.153a3 3 0 0 0-.537-.057m1.359 17.457a1 1 0 0 0 .308.047 3.84 3.84 0 0 0 1.643-.65l14.006-7.92a.51.51 0 0 0 .24-.644.41.41 0 0 0-.378-.183h-.078l-16.164 4.525a2 2 0 0 0-1.215.966q-.382.835.321 2.287c.462.963.855 1.407 1.317 1.556zm-2.352-6.465c.465.261 1.014.33 1.526.189l16.306-4.171a.42.42 0 0 0 .245-.356c0-.238-.266-.442-.58-.442h-.147l-15.874.141c-.96 0-1.625.081-1.985.474a2.66 2.66 0 0 0-.375 1.985q.132 1.605.884 2.142zm18.21-28.689a2 2 0 0 0-.969-1.22 1.6 1.6 0 0 0-.644-.13 3.8 3.8 0 0 0-1.622.448c-.873.416-1.392.857-1.536 1.292-.14.432.111 1.125.591 1.94l7.895 14.04c.123.23.399.335.645.242a.45.45 0 0 0 .176-.447zm-13.907 12.08c-.699-.404-1.424-.752-1.94-.581-.519.165-.906.645-1.295 1.523-.384.882-.57 1.74-.315 2.288a1.97 1.97 0 0 0 1.226.972l16.204 4.527a.42.42 0 0 0 .378-.183.38.38 0 0 0 0-.335.65.65 0 0 0-.297-.336l-.13-.073zM47.52 57.113a.45.45 0 0 0-.19-.39.545.545 0 0 0-.645.291l-.077.13-7.83 13.807c-.479.827-.743 1.448-.587 1.936.154.492.645.906 1.532 1.296a3.8 3.8 0 0 0 1.623.447c.222.003.44-.042.645-.13a2 2 0 0 0 .97-1.229zm28.615-10.296c-.083-1.07-.373-1.788-.872-2.144a2.02 2.02 0 0 0-1.552-.225L57.416 48.61a.41.41 0 0 0-.24.356c0 .237.254.442.58.442h.154l15.868-.142c.96 0 1.622-.08 1.984-.473a2.7 2.7 0 0 0 .375-1.985zm-5.17 14.425a3.84 3.84 0 0 0 1.639.65q.159.005.311-.044.694-.212 1.296-1.53c.393-.878.57-1.73.315-2.293a2 2 0 0 0-1.227-.963l-16.203-4.527a.41.41 0 0 0-.396.182.54.54 0 0 0 .292.645l.125.078zm-20.95-17.196a5.95 5.95 0 1 0 0 11.896 5.95 5.95 0 0 0 0-11.896m-17.254 25.15c.06.613.538 1.221 1.422 1.83a2.7 2.7 0 0 0 1.91.647c.515-.117.917-.647 1.394-1.487l8.207-13.843a.51.51 0 0 0-.112-.645.33.33 0 0 0-.168-.045.54.54 0 0 0-.308.107L33.344 67.754a1.97 1.97 0 0 0-.582 1.443m19.745-26.309a.42.42 0 0 0 .183.39.545.545 0 0 0 .647-.29l.117-.097 7.805-13.84c.48-.828.74-1.449.588-1.937-.157-.492-.65-.906-1.53-1.296-.878-.383-1.735-.57-2.287-.317a2.02 2.02 0 0 0-.969 1.23zm24.868 34.494v-.066a32 32 0 0 0 1.143-3.608 6.7 6.7 0 0 1-4.279.553c.324 1.16.138 2.587-.549 4.279a32 32 0 0 0 3.608-1.14zm-36.205 5.77c-.849.862-2.189 1.42-3.985 1.663A32 32 0 0 0 39.98 87.4l.052.036h.066a32 32 0 0 0 3.657-.852c-1.44-1.115-2.323-2.267-2.584-3.433M21.008 71.776c2.588 1.293 4.456 1.512 5.368.645l3.876-3.781a4.47 4.47 0 0 1-2.48-1.979c-.83-1.145-1.1-2.174-.896-3.086a2 2 0 0 1 .08-.284l-.283-.069c-.888-.273-1.61-1.028-2.216-2.312a4.45 4.45 0 0 1-.474-3.133l-5.214 1.463c-1.524.456-1.976 2.98-2.11 4.98a31 31 0 0 0 .113 4.89v.067l.401.287a30 30 0 0 0 3.838 2.312M57.62 81.68l-1.337-5.244a4.47 4.47 0 0 1-2.957 1.157c-1.415.108-2.422-.135-3.1-.767a4 4 0 0 1-.204-.213 3 3 0 0 1-.2.21c-.645.65-1.686.878-3.11.77a4.47 4.47 0 0 1-2.954-1.151L42.42 81.68c-.366 1.535 1.584 3.232 3.272 4.34l.32.212a31.5 31.5 0 0 0 3.559 1.94l.45.207.159-.07a31 31 0 0 0 4.188-2.296c1.674-1.1 3.613-2.786 3.251-4.333m15.304-43.498a.9.9 0 0 0-.312-.048 3.84 3.84 0 0 0-1.64.648l-14.006 7.902a.51.51 0 0 0-.24.645.45.45 0 0 0 .456.182l16.165-4.525a2 2 0 0 0 1.214-.965q.382-.835-.321-2.288c-.461-.962-.857-1.418-1.316-1.55m-10.039 46.63a6.7 6.7 0 0 1-3.981-1.663c-.307 1.167-1.185 2.318-2.624 3.424a32 32 0 0 0 3.694.816h.062l.054-.036a32 32 0 0 0 2.795-2.542m-25.735-69.63c1.8.243 3.133.8 3.981 1.664.298-1.167 1.179-2.318 2.588-3.424q-1.823-.517-3.69-.813h-.063l-.054.045a32 32 0 0 0-2.762 2.533m28.716 1.404c-.558 0-1.095 0-1.602.05-2.02.127-4.524.607-4.989 2.121l-1.46 5.214a4.47 4.47 0 0 1 3.133.468c1.295.614 2.033 1.337 2.303 2.218.03.094.05.19.072.289q.14-.052.287-.088.28-.057.565-.066a4.5 4.5 0 0 1 2.506.951 4.47 4.47 0 0 1 1.976 2.476l3.785-3.879c1.076-1.151.245-3.556-.648-5.368a31 31 0 0 0-2.549-4.176l-.039-.05h-.165a32 32 0 0 0-3.175-.16m-6.962.255c.845-.863 2.182-1.421 3.981-1.664a32 32 0 0 0-2.794-2.585l-.054-.036h-.063a32 32 0 0 0-3.691.816c1.435 1.151 2.341 2.309 2.62 3.474zm-36.275 5.775v.066a32 32 0 0 0-1.142 3.608c1.67-.693 3.114-.879 4.278-.558q-.48-1.74.554-4.28a32 32 0 0 0-3.607 1.14zm34.425 50.694a1.98 1.98 0 0 0 .968 1.257c.204.087.426.132.647.129a3.9 3.9 0 0 0 1.632-.447c.87-.417 1.379-.858 1.52-1.29.144-.434-.108-1.127-.588-1.942l-7.9-14.072a.6.6 0 0 0-.463-.281.34.34 0 0 0-.17.044.45.45 0 0 0-.184.453zM42.415 18.321l1.336 5.24a4.47 4.47 0 0 1 2.948-1.158c1.424-.112 2.431.14 3.11.767q.104.102.2.213l.2-.21c.681-.65 1.69-.882 3.104-.77a4.47 4.47 0 0 1 2.957 1.157l1.343-5.239c.363-1.535-1.577-3.231-3.245-4.332a29 29 0 0 0-3.879-2.16l-.456-.209-.156.07a32 32 0 0 0-4.189 2.29c-1.706 1.107-3.643 2.792-3.277 4.34m44.967 41.76.039-.053v-.064a32 32 0 0 0-.815-3.69c-1.107 1.436-2.255 2.315-3.424 2.587.863.843 1.417 2.183 1.66 3.982a32 32 0 0 0 2.54-2.767zM35.782 16.64c-.507 0-1.056-.051-1.62-.051a32 32 0 0 0-3.277.165h-.066l-.096.138a31 31 0 0 0-2.491 4.092c-.89 1.815-1.73 4.222-.645 5.373l3.784 3.877a4.47 4.47 0 0 1 1.976-2.477c1.17-.797 2.174-1.09 3.079-.884q.144.035.285.085a3 3 0 0 1 .069-.286c.273-.881 1.028-1.604 2.303-2.215a4.47 4.47 0 0 1 3.136-.475l-1.463-5.213c-.456-1.518-2.96-1.997-4.974-2.13M88.364 50v-.056a31 31 0 0 0-2.341-4.297c-1.61-2.405-3.103-3.532-4.318-3.23l-5.244 1.338a4.48 4.48 0 0 1 1.157 2.954c.111 1.418-.14 2.431-.768 3.103q-.103.108-.215.201.112.098.215.21c.645.644.88 1.694.768 3.1a4.5 4.5 0 0 1-1.157 2.95l5.244 1.338q.19.042.384.048c1.136 0 2.495-1.14 3.94-3.295a31 31 0 0 0 2.24-4.066zM16.786 30.81v.063a30 30 0 0 0-.13 4.905c.133 2.016.608 4.525 2.118 4.975l5.215 1.463a4.48 4.48 0 0 1 .471-3.137c.611-1.295 1.334-2.03 2.215-2.308l.288-.069a3 3 0 0 1-.087-.28c-.207-.898.085-1.909.885-3.07a4.5 4.5 0 0 1 2.483-1.982l-3.88-3.777c-.912-.855-2.771-.648-5.374.645a31 31 0 0 0-4.176 2.551zm66.46 0-.048-.038-.2-.17a30.4 30.4 0 0 0-3.97-2.403c-2.588-1.293-4.456-1.515-5.374-.648l-3.88 3.784a4.47 4.47 0 0 1 2.483 1.976q1.21 1.75.9 3.113a3 3 0 0 1-.085.278l.286.07c.884.272 1.606 1.028 2.215 2.307a4.48 4.48 0 0 1 .474 3.137l5.202-1.472c1.515-.462 1.985-2.96 2.124-4.974a31 31 0 0 0-.123-4.89Zm1.58 6.324a6.72 6.72 0 0 1-1.634 3.982c1.17.302 2.318 1.181 3.424 2.587a32 32 0 0 0 .816-3.691v-.066l-.039-.054a32 32 0 0 0-2.567-2.75zM12.65 39.925l-.036.054v.063a32 32 0 0 0 .815 3.7c1.107-1.436 2.258-2.318 3.424-2.62-.85-.82-1.406-2.192-1.645-3.988a32 32 0 0 0-2.558 2.791m64.723-17.304h-.06a32 32 0 0 0-3.607-1.136c.693 1.67.879 3.106.552 4.273a4.5 4.5 0 0 1 1.196-.156 8.4 8.4 0 0 1 3.083.71 32 32 0 0 0-1.14-3.607zm5.853 46.553v-.065a31 31 0 0 0 .12-4.86c-.134-2.03-.609-4.528-2.12-4.999l-5.145-1.448a4.5 4.5 0 0 1-.474 3.133c-.614 1.296-1.337 2.03-2.215 2.303a3 3 0 0 1-.285.069c.03.096.06.192.08.288.205.896-.08 1.906-.884 3.08a4.5 4.5 0 0 1-2.483 1.975l3.88 3.784c.912.852 2.783.645 5.386-.648a30.4 30.4 0 0 0 4.107-2.554zm-18.97 14.19q.76.053 1.61.053 1.638 0 3.271-.168h.063l.033-.05.15-.202a32 32 0 0 0 2.398-3.967c.897-1.814 1.737-4.225.645-5.376l-3.781-3.88a4.48 4.48 0 0 1-1.979 2.483c-1.169.8-2.174 1.095-3.08.884a3 3 0 0 1-.283-.08 3 3 0 0 1-.07.284c-.273.885-1.028 1.608-2.31 2.216a4.5 4.5 0 0 1-3.135.474l1.482 5.211c.464 1.512 2.967 1.991 4.985 2.117m10.99-28.02c.491-.355.791-1.08.872-2.142q.114-1.446-.384-1.984c-.323-.354-1.022-.471-1.982-.471l-16.086-.141a.51.51 0 0 0-.522.432.46.46 0 0 0 .297.384l16.288 4.143a2.04 2.04 0 0 0 1.537-.228zM22.628 77.377h.06a32 32 0 0 0 3.607 1.164c-.693-1.673-.879-3.11-.558-4.28-1.16.318-2.587.136-4.28-.557a32 32 0 0 0 1.14 3.607zm-7.421-14.521c.24-1.796.794-3.133 1.66-3.981-1.17-.304-2.32-1.185-3.427-2.589a32 32 0 0 0-.82 3.665v.066l.037.053a32 32 0 0 0 2.549 2.783m15.518 20.185.134.18h.064q1.637.17 3.28.169c.554 0 1.091 0 1.591-.052 2.027-.129 4.525-.608 4.996-2.12l1.46-5.214a4.48 4.48 0 0 1-3.133-.47c-1.295-.615-2.03-1.338-2.303-2.217a3 3 0 0 1-.07-.287q-.143.05-.287.086c-.896.208-1.9-.084-3.073-.887a4.47 4.47 0 0 1-1.985-2.48l-3.78 3.877c-1.077 1.151-.235 3.56.647 5.368a30 30 0 0 0 2.429 4.053zm20.32-40.196a.45.45 0 0 0 .383-.297l4.156-16.26a1.97 1.97 0 0 0-.225-1.538q-.54-.752-2.143-.876h-.495a2.17 2.17 0 0 0-1.482.401c-.392.361-.47 1.029-.47 1.982l-.144 16.087a.514.514 0 0 0 .42.5M69.21 32.748a1.92 1.92 0 0 0-1.453.585L55.724 45.089a.44.44 0 0 0-.03.422.54.54 0 0 0 .722.084l.126-.075 13.676-8.05c.834-.48 1.374-.882 1.487-1.395a2.7 2.7 0 0 0-.645-1.91q-.94-1.326-1.85-1.424ZM48.8 24.253a2.7 2.7 0 0 0-1.982-.372q-1.61.121-2.143.872a1.98 1.98 0 0 0-.225 1.55l4.168 16.305a.41.41 0 0 0 .36.246c.237 0 .437-.264.437-.581v-.16l-.14-15.873c0-.96-.082-1.625-.474-1.985m13.738 45.95c.48.837.882 1.374 1.394 1.488q.123.012.24 0a3.17 3.17 0 0 0 1.67-.69q1.329-.92 1.425-1.823a2 2 0 0 0-.582-1.457L54.914 55.71a.42.42 0 0 0-.422-.033.38.38 0 0 0-.184.285.63.63 0 0 0 .093.438l.07.126zM11.636 50l.071.156a31 31 0 0 0 2.303 4.198c1.44 2.153 2.798 3.286 3.938 3.286.128.003.26-.013.386-.045l5.244-1.338a4.47 4.47 0 0 1-1.163-2.947c-.108-1.418.14-2.431.768-3.103q.102-.108.218-.207a3 3 0 0 1-.213-.201c-.647-.647-.878-1.697-.77-3.104a4.47 4.47 0 0 1 1.157-2.953l-5.244-1.337a1.5 1.5 0 0 0-.381-.045c-1.14 0-2.5 1.133-3.943 3.292a32 32 0 0 0-2.29 4.191zM67.24 30.804q-.089-.917-1.42-1.83a3.2 3.2 0 0 0-1.67-.692 1 1 0 0 0-.24 0c-.516.117-.918.648-1.394 1.488l-8.148 13.882a.51.51 0 0 0 .114.645.45.45 0 0 0 .48-.07l11.73-11.98c.377-.385.581-.906.569-1.443zm1.94 36.449q.92-.097 1.824-1.418a2.7 2.7 0 0 0 .644-1.91c-.113-.513-.644-.918-1.481-1.395l-13.801-8.18a.65.65 0 0 0-.3-.075.41.41 0 0 0-.366.19.45.45 0 0 0 .07.479l11.998 11.73a1.92 1.92 0 0 0 1.443.564zm-17.953 8.494a2.17 2.17 0 0 0 1.477.4h.507c1.064-.085 1.79-.376 2.141-.873a2 2 0 0 0 .22-1.554l-4.166-16.323a.41.41 0 0 0-.353-.24c-.24 0-.441.267-.441.582v.146l.143 15.868c.006.963.109 1.631.472 1.994m-20.408-43q-.918.094-1.823 1.424a2.7 2.7 0 0 0-.644 1.91c.113.516.644.917 1.486 1.395l13.83 8.17a.6.6 0 0 0 .296.066.42.42 0 0 0 .369-.18.45.45 0 0 0-.072-.48l-12-11.73a2.13 2.13 0 0 0-1.295-.575Zm0 34.497a1.98 1.98 0 0 0 1.457-.582l12.03-11.763a.41.41 0 0 0 .033-.426.545.545 0 0 0-.722-.08l-.13.074-13.675 8.057c-.83.48-1.37.879-1.487 1.395-.04.695.192 1.381.647 1.91q.938 1.321 1.847 1.415M48.987 57.15a.45.45 0 0 0-.38.297l-4.16 16.26a2 2 0 0 0 .228 1.539c.356.5 1.073.79 2.143.872a2.72 2.72 0 0 0 1.983-.384c.386-.357.467-1.023.467-1.982l.147-16.086a.514.514 0 0 0-.431-.516Zm0 0" style="stroke-width:.76759"/></svg>