<svg xmlns="http://www.w3.org/2000/svg" viewBox="0 0 100 100"><path fill="#FFD42A" d="M26.27 80.11c-6.676.05-13.395.41-20.176 1.085-2.059.207-4.086.461-6.094.73V100h100v-8.621c-24.148-7.328-48.582-11.465-73.73-11.27m14-66.523c-12.711.203-25.415 1.476-38.079 4.121-.75.156-1.453.348-2.191.516v20.914c.688-.133 1.348-.293 2.043-.418C35.051 32.793 67.66 35.816 100 43.422V19.434c-19.816-3.801-39.777-6.164-59.73-5.848m0 0"/><path fill="#131718" d="M0 0v18.082c.738-.168 1.441-.367 2.191-.523 32.692-6.801 65.383-4.493 97.809 1.726V0Zm30.66 57.75c-8.789.102-17.625.742-26.515 1.98-1.407.204-2.77.45-4.145.684v21.379a183 183 0 0 1 6.242-.75c32.285-3.215 63.25.894 93.758 10.133V67.254C77.145 61.09 54.082 57.48 30.66 57.75m0 0"/><path fill="#EA3327" d="M34.688 35.602c-10.891.16-21.82 1.148-32.797 3.117-.645.117-1.254.265-1.891.39v21.438c1.375-.227 2.738-.469 4.145-.664 32.593-4.54 64.425-.953 95.855 7.523V43.461c-21.637-5.098-43.39-8.184-65.312-7.86m0 0"/><path fill="#FFF" d="M50 79.168c16.23 0 29.168-13.172 29.168-29.168 0-16.23-13.172-29.168-29.168-29.168-16.23 0-29.168 13.172-29.168 29.168S34.004 79.168 50 79.168"/><path fill="#E91D26" d="m45.059 27.89-2.114-3.765c3.528-2.586 10.817-1.41 11.996 4.941l-3.296.707Zm0 0"/><path fill="#FDDF2D" d="m50.234 29.3-3.761-.94.234-5.41c2.117 0 4.469.706 6.117 2.116Zm0 0"/><path fill="#131718" d="M49.293 56.117c1.648 4.938 0 6.348.707 9.406.469 2.352.469 5.883.234 7.762-2.82-.469-5.644 0-7.054 1.414 1.41-.238 3.293-.238 4.703 0-.942.235-2.117 1.645-2.117 3.055 1.882-2.117 6.351-3.996 10.82-3.055-.234-.707-2.586-1.648-4.703-1.414-.238-1.41-.942-5.172-.473-7.055.473-2.59-.234-6.351.235-7.761.472-1.414 1.18-2.117 1.414-3.528"/><path fill="#131718" d="M60.82 48.824c7.528 2.586 6.352 7.528 4.235 8.469-4.707 1.879-12.23.703-18.348-1.883-2.586-1.176-6.117-4.234-5.41-7.058.707-2.82 6.586-5.407 9.879-3.528 3.527 1.649 8.234 3.528 9.644 4"/><path fill="#131718" d="M47.883 50.234c-1.41 1.649-.942 6.118 1.41 7.293 2.117.942 3.059 1.883 4 3.293s1.176 2.586-.941 2.352c-5.176-.469-11.29-.942-12.938.707-1.41 1.176-1.41 2.82-.941 4.703.707-.941.238-2.586 1.18-3.293-.239.707-.239 2.117.468 3.059 0-.942.234-3.293.941-3.528.704.47 0 1.88.704 2.586.472-.707 0-1.648.941-2.351.707-.707 2.117-1.176 4.707-.942 2.586.235 4.469.235 5.645.235s1.644-.235 2.351 0 1.176 0 1.41-.47c.235-.472.707-1.175-.234-1.882-.707-.707-2.117-3.059-1.176-4.703.707-1.176.469-3.059 0-3.766M40.828 32.828c.234.473 1.645.238 4.23-.234 0 .472 1.18.941.708 1.648-2.118 2.82-5.176 5.88-5.88 10.348-.472 2.351.235 5.644 2.587 7.762v-2.118c.234.235.472.707.941.942 0-.235.234-1.41.234-1.645.473.235.942.469 1.41.469 0-.469-.234-1.41-.234-1.648.473.238.942.472 1.176.707-.234-.47-.703-1.41-.703-1.883.234.238.941.707.941.707-.238-.235-.238-1.41-.472-1.645.234 0 .941.469 1.648.703-.238-.468-.238-1.644-.473-1.644.473.234 1.176.469 1.41.703-.234-.469 0-1.176-.234-1.41.473.234 1.414-.235 2.117 0-.703-.942-1.644-1.41-1.882-2.352-.47-3.058.238-6.82 1.882-7.996 2.825-1.883 3.293-6.351-.941-7.765-2.352-.938-5.645.941-4.469 4.707-2.82.468-4.469.941-4.234 1.882-.235 0 0-.238.238-.238"/><path fill="#BEC5C2" d="M47.648 44.121c-.707 2.586.47 6.586 5.645 8.465 5.176 1.883 8.937 5.883 7.762 8.941.707-.238 2.586-2.59 1.41-4.707 1.648 2.352-.235 5.883-2.352 7.293-.703.469 0 .942.707.707-.707.235-1.175.938-.472.938.472 0 1.882-.703 2.59-1.176-.473.473-1.41.941-.942 1.414.469.469 1.41-.238 2.352-1.176-.47.703-1.176 1.645-1.883 1.88-.469.472-.469 1.413.472.706 2.352-1.648 4.938-4 5.645-6.586.469-2.586 1.645-8.234-4.703-11.289-6.352-3.058-9.41-4-11.293-5.176-2.352-.94-4.234-2.117-4.938-.234"/><path fill="#FFF" d="M60.586 49.531c-1.414-.238-5.41-1.648-7.059-2.59C51.883 46 49.766 46 50 47.648c.234 1.645 4 2.352 4.941 4 .938 1.645 4.704 1.88 5.88 2.114 1.175.238 5.41-1.41-.235-4.23"/><path fill="#E91D26" d="M55.879 53.059c1.414.941 2.59 1.175 4.234 3.293 1.176 1.644 1.649 3.761 1.176 5.41.707-.235 2.59-2.59 1.414-4.707 1.645 2.355-.238 5.883-2.355 7.293-.703.472 0 .941.707.707-.707.234-1.176.941-.47.941.47 0 1.88-.707 2.587-1.176-.469.47-1.41.938-.942 1.41.473.47 1.41-.234 2.352-1.175-.469.703-1.176 1.644-1.879 1.879-.473.472-.473 1.414.469.707 2.351-1.645 4.941-4 5.644-6.586.473-2.586 1.649-7.996-4.703-11.29-1.175-.472-4.234-1.175-4.941-1.413 1.414.472 3.058 2.824 3.531 3.296-.941-.472-4-1.882-4.707-2.117.707.703 1.176.938 1.883 2.352-.941-.473-3.293-.942-4-.942.707.235 1.414 1.176 1.883 1.645-1.41-.469-3.293-.234-1.883.473M44.824 32.594c-.941.707-1.879 1.883-1.176 2.824.707.941 2.352 0 2.59-.707.469-1.41-1.414-1.41-1.414-2.117"/><path fill="#BEC5C2" d="M46.707 35.18c-3.059 3.53-4.234 8-4.469 10.82 0 1.414.707 2.117 1.176 2.824 0-.234 0-1.41-.234-1.648.234.238.941.472 1.175.707 0-.469-.472-1.41-.472-1.41.238.234.941 0 .941.234 0-.234-.234-.941-.469-.941.235 0 1.41.234 1.41.234-.234-.234-.706-1.176-.706-1.176.238 0 1.18.235 1.414.235-.707-.704-2.352-2.352.234-8.938.707-1.176.707-1.644 0-.941m2.117 15.996c-.707 1.648-.234 3.765 0 4.234-.234-.707 2.117-1.41 3.762 0-.469-.707-3.527-3.058-3.762-4.234"/><path fill="#FFF" d="M46.473 30.008c-.707 0-.707 1.176 0 1.176.703 0 .703-1.176 0-1.176"/><path fill="#BEC5C2" d="M49.293 29.066c.473 1.645-.234 2.586-1.176 2.82-.941.239-.941 1.65.473 1.415 2.586-.473 2.586-2.824 1.41-4.707-.469-.469-.941-.469-.707.472"/></svg>