<svg xmlns="http://www.w3.org/2000/svg" viewBox="0 0 100 100"><path fill="#301506" d="M0 0h100v100H0z"/><path fill="#FAB80A" d="M49.996 14.652c-11.453 0-21.445 2.22-29.7 6.594v34.965c0 7.355 2.767 13.508 7.997 17.797C33.145 77.984 48.16 84.55 50 85.348c1.742-.762 16.934-7.426 21.707-11.34 5.23-4.29 7.996-10.442 7.996-17.797V21.246c-8.262-4.375-18.25-6.594-29.707-6.594m16.961 6.778c3.418.043 6.773.25 10.016.554v34.227c0 6.578-2.387 11.89-6.993 15.687-4.117 3.387-16.523 8.946-19.984 10.47-3.504-1.548-15.941-7.177-19.984-10.47-4.578-3.73-6.989-9.168-6.989-15.683v-20C36.18 24.148 52.156 21.235 66.957 21.43M50.773 37.363c-2.82 0-5.093.63-6.968 1.84v33.68h5.172V62c.515.152 1.265.293 2.324.293 5.734 0 9.027-5.168 9.027-12.715 0-7.531-3.39-12.21-9.555-12.21m17.66 0c-3.398.097-6.953 2.562-6.93 6.734.009 2.753.767 4.808 5.028 7.304 2.278 1.336 3.192 2.215 3.23 3.836.044 1.805-1.202 2.89-3.097 2.883-1.652-.012-3.621-.926-4.941-2.102v4.758c1.62.965 3.636 1.602 5.68 1.602 5.105 0 7.386-3.61 7.484-6.914.097-3.012-.739-5.293-5.055-7.828-1.926-1.133-3.445-1.875-3.394-3.754.046-1.836 1.57-2.48 3.035-2.469 1.804.016 3.55 1.02 4.629 2.121v-4.496c-.907-.703-2.829-1.77-5.668-1.68m-42.77.524v16.246c0 5.476 2.594 8.246 7.703 8.246 3.164 0 5.813-.73 7.79-2.074V37.89h-5.16v19.472c-.563.383-1.395.633-2.446.633-2.367 0-2.719-2.172-2.719-3.637V37.887Zm25.145 3.64c2.996 0 4.238 2.395 4.238 8.18 0 5.652-1.422 8.383-4.395 8.383-.699 0-1.308-.18-1.68-.313V41.898a4.4 4.4 0 0 1 1.837-.37m0 0"/></svg>