<svg xmlns="http://www.w3.org/2000/svg" viewBox="0 0 100 100"><path fill="#F8DA55" d="M0 0h100v100H0z"/><path d="M87.183 21.902a.14.14 0 0 0-.1.04h-.004c-1.907 1.746-3.872 2.413-6.409 2.413h-1.5l-20.139.12c-2.63.003-4.721.933-6.036 3.251l-11.49 20.247c-.035.035-.056.055-.056.149 0 .088.137.215.219.215.084 0 .093-.014.131-.043l7.502-6.94c1.35-1.248 3.084-1.793 4.913-1.793h16.034c2.102 0 4.478-1.122 5.33-2.23L87.29 22.137l.018-.02.014-.07a.14.14 0 0 0-.084-.132.14.14 0 0 0-.054-.013m-.467 19.267a.14.14 0 0 0-.1.04c-1.91 1.746-3.876 2.416-6.415 2.416H54.75c-2.292 0-4.525.762-6.027 2.782-.499.635-1.012 1.245-1.385 1.904l-8.706 15.363v.006a8.506 8.506 0 0 1-9.576 4.044 8.51 8.51 0 0 1-6.333-8.243 8.51 8.51 0 0 1 2.995-6.479 8.51 8.51 0 0 1 6.875-1.918.293.293 0 0 0 .163-.452l-4.851-6.307c-1.166-1.513-2.954-2.242-4.803-1.53l-.002-.006-.053.026a4.5 4.5 0 0 0-.898.499c-5.598 3.268-9.47 9.117-9.47 16.071 0 10.43 8.111 18.655 18.54 18.655h.202l.499.052h44.846c.27 0 .52-.125.678-.34h.005l9.499-12.372h.003a.13.13 0 0 0 .032-.09.14.14 0 0 0-.087-.135.14.14 0 0 0-.155.026c-1.91 1.75-3.872 2.42-6.412 2.418l-33.061-.027h-.03a2.016 2.016 0 0 1-.072-4.03h.131c5.318-.017 13.774 0 19.722 0 1.762-.093 3.266-.559 4.356-2.099L86.75 41.497l.07-.093.02-.02.015-.068a.14.14 0 0 0-.085-.134.14.14 0 0 0-.054-.013" style="fill:#0c9050;fill-opacity:1;stroke-width:.746425"/></svg>