<svg xmlns="http://www.w3.org/2000/svg" viewBox="0 0 100 100"><path d="M0 0h100v100H0z"/><path fill="#FFF" d="M86.43 45.395c.933-.918 1.324-1.762.898-2.86-.422-1.101.36-1.937-1.176-3.43-1.539-1.484-4.449-3.433-5.418-4.312-.968-.887-3.093-2.387-3.093-2.387s-.106.02-.536-1.078c-.425-1.094-.714-1.394-1.492-1.844-.773-.449-5.843-2.832-5.843-2.832s1.906-2.453.668-5.515c0 0-4.157 1.668-4.958 6.273-.238 1.336.364 4.043 3.457 5.137 0 0-2.75 1.547-4.73-1.035 0 0-7.39 2.953-6.312 13.086 1.062 10.125 3.73 15.988 8.699 17.804 0 0-7.551-3.23-12.348-.035 0 0 7.219-.703 11.441 3.477 1.47 1.46 2.907.656 5.083 1.094 2.171.437 9.75 6.476 7.156 11.628 0 0 3.347-3.093.57-9.367-.582-1.304-2.187-3.832-2.625-6.34-.437-2.5-3.172-6.82-5.098-9.18-1.921-2.355-2.726-4.906-1.914-7.632 0 0-7.515-1.008-5.246-8.688 0 0 .582 4.149 3.395 5.438 2.844 1.312 5.36.047 5.36.047s1.218 1.98 2.355 2.48c1.132.504 2.086.625 3.015 1.281.926.66 2.692 1.27 4.442 1.137 1.265-.105 1.77-.625 1.113-1.68 0 0 1.555.899 3.137-.675"/><path fill="#FFF" d="M63.418 26.953s.441-3.48 2.918-4.617c0 0-.406-2.273-.992-2.988 0 0-3.461 2.136-3.899 6.32 0 0-5.015 1.95-6.578 3.633-1.57 1.687-7.097 2.668-7.097 2.668s.535 1.781 1.414 2.093c0 0-3.055 2.54-3.594 3.454l1.5.558s-4.469 2.43-5.82 5.367c0 0 1.351 1.051 3.367.579 0 0-2.172 2.261-2.348 3.234 0 0 1.328.93 3.508.086 0 0-2.984 2.875-4.262 3.566 0 0 2.57.719 3.996.23 0 0-4.699 3.063-5.617 5.805 0 0 1.879.133 5.016-1.242 0 0 1.12 2.383-2.223 5.903 0 0 2.375.28 3.703-.77l1.328-1.062s4.903.066 4.575-6.438c-.317-6.516.019-22.527 11.105-26.375"/><path fill="#EF2E31" d="M48.082 61.703c.574-.45.488 2.14 2.64 2.461 2.153.324 8.981.75 14.11 3.477 5.137 2.726 8.207 8.28 8.016 11.828-22.02 3.918-36.063-3.094-36.063-3.094 3.563-.98 4.985-6.164 4.985-6.164s2.484 2.258 3.94.594c1.466-1.668 1.755-3.813-.624-4.23-4.324-.755-12.754-4.036-12.676-17.919.012-1.293-.742-2.922-3.469-3.847-2.726-.922-13.117-4.47-15.418-6.282l-.12-4.68s6.12 5.016 14.202 7.333c8.09 2.312 13.547 5.57 11.504 10.508l1.141.5s-2.262 2.398-2.738 4.351c-.469 1.965-.082 1.543-.082 1.543s2.285 1.707 4.988.523c0 0-1.145 3.48-2.242 3.797 0 0 3.398 2.801 7.906-.699"/><path fill="#0FAB4B" d="M12.5 39.988c1.898 1.543 8.406 4.137 16.738 6.532l.239 1.367s-11.77-2.719-16.383-4.477m16.418 5.992c-3.98-.812-14.106-2.765-16.207-4.148 0 0 .289 2.992 3.972 4.101 3.688 1.098 12.973 2.27 12.973 2.27m.031 1.516s-12.863-1.004-16.883-3.332c0 0 2.262 4.285 5.36 4.671 3.094.391 12.297 1.094 12.297 1.094m.168 1.617c-6.461.329-14.2-.648-16.442-2.82 0 0 2.196 5.238 7.137 5.527 4.941.297 10.004-.718 10.004-.718m.508 1.55c-2.832.5-10.82 2.043-14.266.305 0 0 .613 3.528 5.629 3.578 5.012.047 9.945-2.355 9.945-2.355m.828 1.379c-1.734.777-6.863 4.035-12.57 2.699 0 0 2.758 4.437 5.676 3.805 2.906-.637 9.3-4.707 9.3-4.707m1.11.98c-1.75 1.363-5.672 4.172-9.55 5.332 0 0 .261 3.477 4.007 1.633 3.762-1.84 6.79-5.777 6.79-5.777m.878 1.015c-1.207 1.738-3.895 5.031-6.273 6.04 0 0 3.847.722 5.148-1.852 1.297-2.575 1.75-3.942 1.75-3.942"/><path fill="#FCD006" d="M21.148 36.23c3.34 1.754 10.418 3.66 10.418 3.66s-3.187-2.953-5.003-6.03c-1.829-3.079-2.743-4.325-3.567-4.407-.832-.09-1.402-.691-1.492 1.438-.094 2.125-.356 5.34-.356 5.34"/></svg>