<svg xmlns="http://www.w3.org/2000/svg" viewBox="0 0 100 100"><path fill="#66164A" d="M0 0h100v100H0z"/><path fill="#da0530" d="M90 21.863H56.666c-10.338 0-12.788 1.634-16.87 6.256L10 60.772c23.81-1.085 31.156 22.86 55.238 16.19zm0 0" style="stroke-width:.8"/><path fill="#fff" d="M46.328 34.65s1.494-2.719 2.582-3.671c0 0 1.228-.82 1.362-2.041 0 0 .134-.82-.544-1.36 0 0-1.768-1.5-3.269 1.085 0 0-6.931 13.065-9.25 26.259 0 0-.13.41-.268-.816 0 0-.954-11.019-1.091-11.427 0-.41 0-1.363-.952-1.497 0 0-1.088-.135-1.767 1.5l-2.993 7.477s-.544.954.268 1.363c0 0 .953.544 1.5-.816l1.36-2.993c.272-.678.544-.547.544-.547.134 0 .272.681.272.681s1.224 14.835 1.224 14.966c0 .134.135 1.36 1.088 1.36.678 0 .953-.814 1.09-1.494.132-.682 1.498-7.757 3.672-15.376 1.634-5.034 3.538-10.065 5.166-12.652zm-2.04 12.929c-1.36.268-1.635 1.903-1.635 1.903l-.816 6.53c-.134 1.225 1.497.407 1.497.407.679-.41.816-1.222.816-1.222l.272-1.634.816-4.49c.272-1.766-.95-1.5-.95-1.5zm2.856.54s-.41 3.4-.544 4.084c0 0-.682 2.856.95 2.31 0 0 1.228-.269 1.36-2.04l.274-2.445s.132-1.772 1.498-2.587c0 0 1.496-.682 1.087-1.634 0 0-.272-.879-1.225-.407-1.297.647-1.454.363-2.178.544-.422.066-1.084.135-1.222 2.175m-1.226-3.81c.95-.815.682-1.36.682-1.36-.41-.951-1.634 0-1.634 0-1.088.817-.679 1.502-.679 1.502.544.95 1.632-.141 1.632-.141m15.643 4.762s1.228-.272 1.366-1.632c0 0 .678-5.171.813-5.305 0-.135.409-1.497-.544-1.363 0 0-1.225.275-1.36 1.363l-.952 5.03-.135 1.091s-.272 1.088.812.816m2.86-10.881s.95-.819.544-1.5c0 0-.41-.681-1.632.272 0 0-1.09.953-.406 1.5 0 0 .678.678 1.494-.272m12.788 6.393c-.27-.412-.816-.68-1.904-.274-1.224.546-.965.459-1.634.818 0 0-1.494.679-1.222-1.225l.406-4.49s.134-1.632-1.088-1.632c0 0-.678-.134-1.768.816 0 0-.544.544-.953.544-.269 0-.544.138-.95 0a1.52 1.52 0 0 0-1.09 0s-1.223.272-1.36 2.04l-.545 3.947s-.27 1.5-.136 1.907c0 0 .134.678 1.224.268 0 0 .954-.268 1.092-1.903 0 0 .268-3.131.677-3.81 0 0 .544-.952 1.36-1.495 0 0 1.087-.544 1.087.405L70 44.172s-.406 1.772.406 2.044c0 0 .138 0-.134.134 0 0-5.306 2.181-11.972 5.988.406-3.807 1.222-9.116 1.222-9.116.134-.816-.953-.816-.953-.816-1.085 0-1.222 1.225-1.222 1.766-.134.547-.816 4.9-.816 4.9-.41 1.907-1.497 1.907-1.497 1.907-1.088.134-.406-2.995-.406-2.995.269-1.087.406-2.04 1.222-2.856.816-.68.952-1.634.272-1.634-1.088 0-2.176 1.09-2.176 1.09-1.905 1.904-1.905 6.532-1.905 6.532 0 1.494.953 1.9.953 1.9 1.222.547 2.856-.406 2.856-.406.41-.272.272.134.272.134l-.135 1.224c-4.9 2.86-10.477 6.398-15.24 10.48 0 0-2.178 1.634-1.36 2.718.816 1.09 2.044.137 2.584-.407 0 0 4.901-5.03 13.88-10.612l-.273 3.81c-.134 1.634-.681 6.94-.681 6.94-.269 2.04-.088 2.172.137 2.584.238.46.953.954 1.907.272 1.088-.68.544-2.45.406-3.266-.134-.818-.134-2.177-.134-2.177.134-1.088.677-8.432.677-8.432 0-.275 0-.68.138-1.228a97 97 0 0 1 11.838-5.984c1.968-.831 4.75-1.625 4.765-1.628.95-.275 2.175-.682 2.447-1.228.272-.407.41-.816.135-1.223zm0 0" style="stroke-width:.8"/></svg>