<svg xmlns="http://www.w3.org/2000/svg" viewBox="0 0 100 100"><path fill="#383834" d="M0 0h100v100H0z"/><path fill="#fe8c00" d="M42.572 34.956c-1.968-.032-4.35.272-7.216.905a113 113 0 0 0-14.833 4.679 272 272 0 0 0-10.32 4.186v6.685a253 253 0 0 1 11.075-4.516 112 112 0 0 1 14.827-4.69 65 65 0 0 1 2.115-.425 26 26 0 0 1 3.351-.43c2.82-.195 4.912.159 6.489 1.072l.233.151a4.2 4.2 0 0 1 1.77 3.437v.63a6.6 6.6 0 0 0 .388 2.156 5.73 5.73 0 0 0 2.17 2.834l.283.177c2.422 1.426 6.221 1.474 11.954.218 4.011-.899 7.826-2.46 13.652-4.689a303 303 0 0 0 8.146-3.236l3.14-8.062a202 202 0 0 1-12.01 4.953v.003c-5.826 2.21-9.639 3.784-13.655 4.682q-1.105.246-2.111.432a26.5 26.5 0 0 1-3.355.423c-2.818.199-4.915-.156-6.482-1.07h-.032l-.242-.152a4.35 4.35 0 0 1-1.81-3.6v-.669a6 6 0 0 0-.23-1.626 5.77 5.77 0 0 0-2.297-3.177l-.264-.165c-1.211-.715-2.767-1.084-4.736-1.116m.002 12.128c-1.968-.032-4.351.272-7.218.905a112 112 0 0 0-14.833 4.676 265 265 0 0 0-10.32 4.2v6.682a256 256 0 0 1 11.075-4.527 113 113 0 0 1 14.828-4.676q1.106-.249 2.114-.432a26 26 0 0 1 3.358-.432c2.813-.193 4.912.159 6.482 1.076h.028l.227.14a4.22 4.22 0 0 1 1.775 3.441v.634a6.5 6.5 0 0 0 .389 2.146 5.73 5.73 0 0 0 2.17 2.845l.28.174c2.422 1.427 6.224 1.477 11.954.211 4.013-.898 7.823-2.456 13.655-4.682.81-.305 1.67-.64 2.553-.986l3.069-7.888c-1.888.79-3.967 1.605-6.368 2.522v.003c-5.832 2.205-9.644 3.78-13.658 4.676q-1.053.24-2.114.43-1.665.322-3.355.431c-2.817.193-4.915-.155-6.482-1.072h-.031a4.35 4.35 0 0 1-2.052-3.76v-.652c0-.55-.078-1.098-.23-1.626a5.77 5.77 0 0 0-2.298-3.178 3 3 0 0 0-.264-.164c-1.211-.714-2.766-1.084-4.734-1.117"/></svg>