<svg xmlns="http://www.w3.org/2000/svg" viewBox="0 0 100 100"><path fill="#FC0" d="M0 0h100v100H0z"/><path d="M20.863 32.16c1.461-2.824 5.059-3.93 8.032-3.324 2.363.441 4.046 2.539 4.636 4.77 2.719 9.183 5.45 18.359 8.153 27.546.144.54.398 1.047.691 1.52 2.852-9.402 5.613-18.832 8.402-28.258.524-2.02 1.496-4.14 3.477-5.086 3.18-1.453 7.559-.426 9.363 2.684 1.149 2.062.856 4.582.028 6.699-3.875 10.773-7.668 21.574-11.528 32.352-.808 2.074-1.582 4.28-3.195 5.89-1.672 1.59-4.113 1.75-6.3 1.766-2.43.011-5.134-.211-6.997-1.961-1.71-1.637-2.602-3.906-3.41-6.082-3.828-10.809-7.625-21.63-11.469-32.426-.715-1.95-.883-4.215.117-6.09"/><path fill="#FFF" d="M72.477 16.98a10.5 10.5 0 0 1 6.32.008c2.531.813 4.535 3.078 4.976 5.707.278 2.258.176 4.75-1.207 6.664-2.695 3.774-8.55 4.29-12.23 1.72-4.727-3.52-3.758-12.368 2.14-14.099"/></svg>