<svg xmlns="http://www.w3.org/2000/svg" viewBox="0 0 100 100"><path fill="#452325" d="M0 0h100v100H0z"/><path fill="#E10E49" d="M50.003 10.005 36.667 23.338l13.324 13.32-.01.01-2.971-2.962v5.91l2.97-2.937 2.96 2.939v-5.884l2.961-2.962v11.815l2.967 2.965V27.805l2.96-2.962v23.671l1.483 1.481 1.475-1.48v-23.7l-1.464-1.467.011-.011zm13.308 39.99-1.484 1.49v23.676L58.868 72.2V54.443L55.9 57.41v11.82l-2.96-2.962v-5.904l-2.96 2.955-2.97-2.955v5.925l2.97-2.96.012.012-13.325 13.328 13.336 13.327 13.33-13.327-.015-.015 1.468-1.472V51.483ZM36.645 23.338l-1.477 1.481V48.5l-2.959-2.959V27.769l-2.967 2.972-.001 11.831-2.966-2.965v-5.901l-2.96 2.968.01.011L10 49.998l13.324 13.315-.01.01 2.963 2.965V60.39l2.965-2.967V69.25l2.969 2.962V54.456l2.959-2.96v23.688l1.475 1.475 1.478-1.478V51.483l-1.466-1.475.01-.01-.013-.012 1.469-1.472V24.816Zm4.443 4.437v17.772l2.969-2.962V30.744Zm26.66 0v17.772l2.972-2.962V30.744Zm5.924 5.931v5.91l2.965-2.943zm2.998 2.965L63.333 49.998l13.337 13.33L90 49.999Zm-35.58 17.77v17.771l2.967-2.965v-11.84Zm26.659 0v17.771l2.971-2.965v-11.84Zm5.923 5.922v5.925l2.965-2.966z" style="stroke-width:.799937"/></svg>