<svg xmlns="http://www.w3.org/2000/svg" viewBox="0 0 100 100"><path d="M0 0h100v100H0z"/><path fill="#231f20" d="M44.492 11.432v11.023h11.016V11.432Zm-33.06 33.057v11.023l11.023-.004v-11.02Zm66.111 0v11.023l11.025-.004v-11.02Zm-33.051 33.06v11.019h11.016V77.549Z"/><path fill="#6cadde" d="M44.492 22.457V33.47H33.471v11.022h11.021v-11.02l11.017-.003V22.457zM55.508 33.47v11.022H66.53V33.47Z"/><path fill="#b5d5f0" d="M55.508 44.492V33.47H44.492v11.022zm0 0"/><path fill="#91268f" d="M22.45 44.489v11.023l11.024-.004v-11.02ZM33.472 55.51v11.02h11.021V55.51Zm11.021 11.02v11.018H55.51V66.53Z"/><path fill="#8dc63f" d="M66.53 44.489V55.51H55.508v11.02H66.53V55.511l11.015-.004v-11.02Z"/><path fill="#eeefef" d="M55.508 55.508V44.489H44.492v11.023zm0 0"/><path fill="#d6a6cc" d="M33.471 44.489v11.023l11.02-.004v-11.02Zm11.02 11.022v11.02h11.017V55.51Z"/><path fill="#dae7a2" d="M66.53 55.508V44.489H55.508v11.023zm0 0"/></svg>