<svg xmlns="http://www.w3.org/2000/svg" viewBox="0 0 100 100"><path fill="#E10A0A" d="M0 0h100v100H0z"/><path fill="#EEE" d="M11.784 19.866a1.79 1.79 0 0 0-1.51.835 1.78 1.78 0 0 0-.1 1.719L36.38 77.202l.003.006c1.06 2.063 2.432 2.926 4.388 2.926h26.926c1.656 0 2.368-.973 3.434-2.326l16.634-23.795c2.88-3.892 2.808-3.679.752-5.413L57.253 22.08c-2.066-1.739-3.708-2.214-6.446-2.214zm36.566 9.056c.756-.045 1.315.43 1.315.43.684.544.55 1.359.55 1.359-.138 1.224-1.366 2.04-1.366 2.04-1.084.954-2.585 3.676-2.585 3.676h-.003c-1.628 2.585-3.531 7.62-5.166 12.654-2.175 7.62-3.54 14.692-3.674 15.373-.135.685-.409 1.497-1.087 1.497-.953 0-1.088-1.228-1.088-1.36 0-.134-1.23-14.97-1.23-14.97s-.135-.677-.268-.677c0 0-.272-.134-.544.547l-1.36 2.994c-.547 1.36-1.5.815-1.5.815-.813-.41-.268-1.362-.268-1.362l2.99-7.482c.681-1.635 1.77-1.5 1.77-1.5.952.137.953 1.091.953 1.497.137.41 1.093 11.432 1.093 11.432.132 1.222.266.815.266.815 2.315-13.197 9.25-26.26 9.25-26.26.657-1.133 1.365-1.483 1.952-1.518m16.095 9.31c.332.018.461.233.461.233.407.684-.543 1.5-.543 1.5h.003c-.819.95-1.5.275-1.5.275-.682-.547.406-1.5.406-1.5.536-.417.916-.522 1.173-.508m7.145 1.317a.6.6 0 0 1 .123.006c1.223 0 1.088 1.635 1.088 1.635l-.407 4.491c-.276 1.902 1.225 1.222 1.225 1.222.667-.356.404-.269 1.635-.816 1.084-.405 1.634-.137 1.9.272l.003.003c.275.407.138.819-.137 1.225-.268.547-1.497.953-2.441 1.225-.02.004-2.796.797-4.77 1.632a97 97 0 0 0-11.84 5.985c-.135.543-.135.953-.135 1.225 0 0-.544 7.347-.678 8.435 0 0 0 1.359.134 2.175.138.82.679 2.587-.406 3.269-.953.678-1.669.185-1.907-.275-.222-.409-.406-.545-.137-2.585 0 0 .547-5.306.678-6.938l.275-3.813c-8.978 5.582-13.88 10.617-13.88 10.617-.543.544-1.768 1.497-2.584.406-.818-1.088 1.36-2.722 1.36-2.722 4.763-4.078 10.344-7.62 15.245-10.476l.131-1.228s.138-.406-.272-.131c0 0-1.635.953-2.856.406 0 0-.954-.406-.954-1.9 0 0 0-4.63 1.907-6.535 0 0 1.087-1.09 2.175-1.09.682 0 .544.952-.272 1.634-.815.816-.953 1.768-1.225 2.856 0 0-.679 3.131.41 2.994 0 0 1.087.001 1.493-1.903 0 0 .685-4.354.82-4.9 0-.544.136-1.766 1.221-1.766 0 0 1.088 0 .953.816 0 0-.815 5.307-1.222 9.113 6.666-3.806 11.973-5.985 11.973-5.985.119-.059.16-.092.167-.111l.002-.002v-.008l-.002-.001v-.003h-.001L70.38 48l-.002-.002a.1.1 0 0 0-.028-.006c-.812-.275-.406-2.044-.406-2.044l.406-3.672c0-.95-1.087-.41-1.087-.41-.816.545-1.36 1.498-1.36 1.498-.408.681-.681 3.812-.681 3.812-.135 1.633-1.088 1.904-1.088 1.904-1.087.409-1.222-.272-1.222-.272-.14-.407.135-1.907.135-1.907l.544-3.947c.137-1.765 1.36-2.04 1.36-2.04a1.56 1.56 0 0 1 1.09 0c.405.136.681 0 .95 0 .41 0 .956-.544.956-.544.816-.713 1.4-.815 1.642-.822zm-8.367 2.991c.843-.044.458 1.242.458 1.369-.134.138-.812 5.307-.812 5.307-.138 1.361-1.366 1.634-1.366 1.634-1.087.268-.813-.816-.813-.816l.132-1.09.956-5.035c.135-1.088 1.36-1.36 1.36-1.36zm-17.312 1.763c.25-.007.488.096.628.425 0 0 .269.54-.681 1.36 0 0-1.09 1.09-1.631.14 0 0-.413-.684.678-1.5 0 0 .528-.412 1.006-.425m5.104 2.734c.527.009.693.547.693.547.407.954-1.087 1.632-1.087 1.632-1.366.818-1.5 2.587-1.5 2.587l-.272 2.447c-.135 1.768-1.36 2.041-1.36 2.041-1.63.547-.95-2.31-.95-2.31.132-.684.544-4.084.544-4.084.134-2.044.803-2.11 1.222-2.178.725-.178.882.102 2.178-.541.209-.104.384-.143.532-.14m-6.602 2.299c.33.008.968.19.764 1.514l-.816 4.491-.272 1.631a1.94 1.94 0 0 1-.812 1.225s-1.634.817-1.5-.406l.815-6.535s.272-1.634 1.635-1.903v-.003s.075-.017.186-.014" style="stroke-width:.800059"/></svg>