<svg xmlns="http://www.w3.org/2000/svg" viewBox="0 0 100 100"><path fill="#003082" d="M0 0h100v100H0z"/><path fill="#005eb8" d="M83.794 45.81c-1.677-.875-13.711-3.99-23.473-5.674a60.7 60.7 0 0 0-9.86-1.094c5.89.242 10.54 5.086 10.542 10.979 0 .236-.018.467-.033.7a63.5 63.5 0 0 1-1.11 9.609l28.371-6.74a7.73 7.73 0 0 0-4.437-7.78m0 0" style="stroke-width:.765404"/><path fill="#014fb7" d="M61.048 49.99v10.056l-1.295.308zm0 0" style="stroke-width:.765404"/><path fill="#0077c8" d="M50.006 61.018q-.575 0-1.154-.063a67 67 0 0 1-9.17-1.088l6.736 28.353a7.72 7.72 0 0 0 7.782-4.45c.877-1.675 3.986-13.688 5.67-23.441a64 64 0 0 0 1.106-9.61c-.365 5.789-5.17 10.298-10.97 10.298" style="stroke-width:.765404"/><path fill="#0067c7" d="M50.017 61.045H39.96l-.308-1.298zm0 0" style="stroke-width:.765404"/><path fill="#00a3e0" d="M39 50.018v-.036c0-.194.018-.382.033-.577a63 63 0 0 1 1.106-9.736L11.77 46.41q-.04.381-.04.771a7.72 7.72 0 0 0 4.488 7.011c1.675.88 13.712 3.992 23.47 5.676a68 68 0 0 0 9.17 1.088 11.004 11.004 0 0 1-9.854-10.938" style="stroke-width:.765404"/><path fill="#0195df" d="M38.952 50.006V39.954l1.298-.308zm0 0" style="stroke-width:.765404"/><path fill="#71c5e8" d="M53.588 11.78a7.715 7.715 0 0 0-7.783 4.45c-.876 1.674-3.986 13.688-5.666 23.44a63.5 63.5 0 0 0-1.109 9.74A10.99 10.99 0 0 1 50 39.018c.158 0 .302.021.458.024q4.978.148 9.869 1.095zm0 0" style="stroke-width:.765404"/><path fill="#082c88" d="M50.158 38.935H50c-6.1 0-11.045 4.942-11.053 11.038v.033c0 6.042 4.855 10.96 10.897 11.036h.159c6.1 0 11.048-4.943 11.056-11.042v-.038c-.003-6.04-4.86-10.956-10.9-11.027" style="stroke-width:.765404"/><path fill="#fff" d="M49.964 56.201a6 6 0 0 1-5.092-3.107c-12.83-.953-26.697-2.95-26.858-2.95-.24 0-.317-.24-.317-.398a.38.38 0 0 1 .108-.287.38.38 0 0 1 .281-.117l26.06.56a6.2 6.2 0 0 1 4.622-6.136l.879-10.68a.386.386 0 0 1 .395-.398.38.38 0 0 1 .283.111.38.38 0 0 1 .115.284l.95 10.683a6.215 6.215 0 0 1 4.545 6.132l25.988-.559a.385.385 0 0 1 .4.359v.042a.367.367 0 0 1-.32.398c-.155 0-14.106 1.913-26.852 2.87a5.93 5.93 0 0 1-5.187 3.19" style="stroke-width:.765404"/></svg>