<svg xmlns="http://www.w3.org/2000/svg" viewBox="0 0 100 100"><path fill="#00602c" d="M0 0h100v100H0z"/><path fill="#fff" fill-rule="evenodd" d="M47.915 43.907c-.937.516-1.949 1.267-3.674 3.201 2.176 2.2 4.656 5.038 7.337 8.64 4.231-5.674 6.52-8.985 8.52-10.453 2-1.475 8.488-3.378 19.902-5.306-17.164 1.556-29.526 2.516-32.085 3.919m-9.496-.854C35.645 41.036 19.933 39.82 0 39.336c9.537 1.425 21.751 3.475 25.27 5.688 2.797 1.764 5.844 5.064 11.04 11.079l14.79.294c-5.307-7.134-9.853-11.29-12.681-13.343" style="stroke-width:.799936" transform="translate(10 2.133)"/></svg>