<svg xmlns="http://www.w3.org/2000/svg" viewBox="0 0 100 100"><path fill="#00AAA6" d="M0 0h100v100H0z"/><path fill="#fff" d="M53.2 6.777q-5.69 5.864-11.488 11.622c-1.418 1.356-2.328 1.488-3.49.647-1.224-.84-4.84-3.29-4.84-3.29l-4.584 22.209 28.024-6.328L65.6 15.693s-5.747 2.512-7.684 3.353c-1.872.84-2.648.71-2.966-.647-.26-1.29-1.684-11.04-1.747-11.622Zm15.182 19.5-11.37 5.557L30.735 62.82l19.432 3.034s.068-2.972.13-5.165c.132-2.197 1.354-2.584 2.132-3.035.71-.452 22.92-13.237 22.92-13.237l-2.195-1.222c-1.484-.778-.709-2.006-.131-2.847.588-.838 6.978-9.356 6.978-9.356s-7.813 1.484-9.622 1.678c-1.422.194-1.616-.384-1.681-1.225a238 238 0 0 1-.315-5.168m-47.2.577s-3.364 3.753-4.072 4.59c-.776.842-1.482 1.354-2.71 1.226a526 526 0 0 1-8.518-1.678s-.526 8.518-.654 9.36c-.066.84-.384 1.94-1.869 3.234l25.247-5.688zM0 44.227s9.362 11.04 9.75 11.56c2.197 2.65 2.197 3.678-.066 6.456a171 171 0 0 0-2.902 3.616s13.04-2.194 14.784-2.516c1.678-.26 3.356.194 2.903 2.453-.256 1.55-1.807 10.138-1.807 10.138l7.748-13.176L44.1 39.452 2.906 43.905Zm0 0" style="stroke-width:.8" transform="translate(10 8.645)"/></svg>