<svg xmlns="http://www.w3.org/2000/svg" viewBox="0 0 100 100"><defs><linearGradient id="a" x1="29.88" x2="29.88" y1="46.6" y2="0" gradientTransform="translate(0 11.008)scale(1.67354)" gradientUnits="userSpaceOnUse"><stop offset="0" stop-color="#161998"/><stop offset=".13" stop-color="#441E93"/><stop offset=".27" stop-color="#6E228F"/><stop offset=".41" stop-color="#90258C"/><stop offset=".55" stop-color="#AB2889"/><stop offset=".69" stop-color="#BE2A87"/><stop offset=".84" stop-color="#C92B86"/><stop offset="1" stop-color="#CD2B86"/></linearGradient></defs><path fill="url(#a)" d="M0 0h100v100H0z"/><path fill="#fff" d="M57.9 77.296h-6.7a3.155 3.155 0 0 1-3.13-2.906l-1.754-23.582-12.43 24.755a3.12 3.12 0 0 1-2.8 1.733h-6.96a3.15 3.15 0 0 1-3.115-2.753L15.025 26.23a3.126 3.126 0 0 1 3.115-3.516h9.208c1.627 0 2.997 1.277 3.128 2.895l1.685 21.895 10.826-22.996a3.16 3.16 0 0 1 2.836-1.804h8.34a3.145 3.145 0 0 1 3.129 2.917l1.533 21.613L68.9 24.566a3.14 3.14 0 0 1 2.872-1.862h10.084c1.09 0 2.086.55 2.67 1.487a3.12 3.12 0 0 1 .144 3.046L60.7 75.549a3.13 3.13 0 0 1-2.81 1.747zm-9.887-35.11 2.39 32.029a.803.803 0 0 0 .796.738H57.9a.81.81 0 0 0 .714-.445l23.958-48.313a.8.8 0 0 0-.033-.777.8.8 0 0 0-.684-.37H71.773c-.318 0-.6.188-.728.466L57.16 56.758l-2.2-30.973a.8.8 0 0 0-.8-.738h-8.34a.79.79 0 0 0-.714.457L30.497 56.5l-2.365-30.716a.805.805 0 0 0-.798-.738h-9.195a.77.77 0 0 0-.596.27.78.78 0 0 0-.2.621l5.975 48.313a.793.793 0 0 0 .784.702h6.96a.8.8 0 0 0 .714-.434l16.226-32.322zm0 0" style="stroke-width:.700014"/></svg>