<svg xmlns="http://www.w3.org/2000/svg" viewBox="0 0 100 100"><path fill="#FFF" d="M100 50c0 27.613-22.387 50-50 50S0 77.613 0 50 22.387 0 50 0s50 22.387 50 50m0 0"/><path fill="#CE1126" d="M95.832 50c0 25.313-20.52 45.832-45.832 45.832S4.168 75.312 4.168 50 24.688 4.168 50 4.168 95.832 24.688 95.832 50m0 0"/><path fill="#FFF" d="M83.332 50c0 18.41-14.922 33.332-33.332 33.332S16.668 68.41 16.668 50 31.59 16.668 50 16.668 83.332 31.59 83.332 50m0 0"/><path fill="#CE1126" d="M79.168 50c0 16.11-13.059 29.168-29.168 29.168S20.832 66.109 20.832 50 33.891 20.832 50 20.832 79.168 33.891 79.168 50m0 0"/><path fill="#FFF" d="M75 50c0 13.809-11.191 25-25 25S25 63.809 25 50s11.191-25 25-25 25 11.191 25 25m0 0"/></svg>