<svg xmlns="http://www.w3.org/2000/svg" viewBox="0 0 100 100"><path fill="#3296FF" d="M100 50c0 27.613-22.387 50-50 50S0 77.613 0 50 22.387 0 50 0s50 22.387 50 50m0 0"/><path fill="#001432" d="M85 50c0 19.328-15.672 35-35 35S15 69.328 15 50s15.672-35 35-35 35 15.672 35 35m0 0"/><path fill="#FAD214" d="M50 20.004 46.93 36.55l-9.946-13.578 4.41 16.242-14.847-7.918 11.02 12.719-16.813-.688 15.445 6.676-15.445 6.676 16.812-.688-11.02 12.715 14.849-7.914-4.41 16.238 9.945-13.574L50 80.004l3.07-16.547 9.946 13.574-4.41-16.238 14.847 7.914-11.02-12.715 16.813.688-15.445-6.676 15.445-6.676-16.812.688 11.02-12.72-14.849 7.919 4.41-16.242L53.07 36.55Zm0 0"/></svg>