<svg xmlns="http://www.w3.org/2000/svg" viewBox="0 0 100 100"><path fill="#FFF" d="M100 50c0 27.613-22.387 50-50 50S0 77.613 0 50 22.387 0 50 0s50 22.387 50 50m0 0"/><path fill="#D2232C" d="M89.68 19.605.742 43.438A50 50 0 0 0 0 50c.102 2.2.352 4.39.742 6.559l88.86 23.812A50 50 0 0 0 100 50a50 50 0 0 0-10.32-30.395"/><path fill="#FFF" d="M95.457 29.242 17.977 50l77.41 20.746A49.95 49.95 0 0 0 100 50a50 50 0 0 0-4.543-20.758"/><path fill="#008D46" d="M98.832 39.457 59.523 50l39.293 10.527A50 50 0 0 0 100 50a50 50 0 0 0-1.168-10.543"/><path fill="none" stroke="#D2232C" stroke-width="4.158" d="M97.922 50c0 26.465-21.457 47.922-47.922 47.922S2.078 76.465 2.078 50 23.535 2.078 50 2.078 97.922 23.535 97.922 50Zm0 0"/></svg>