<svg xmlns="http://www.w3.org/2000/svg" viewBox="0 0 100 100"><path fill="#FFF" stroke="#0B4EA2" stroke-width="4.158" d="M97.922 50c0 26.465-21.457 47.922-47.922 47.922S2.078 76.465 2.078 50 23.535 2.078 50 2.078 97.922 23.535 97.922 50Zm0 0"/><path fill="#EE1C25" d="M50 85.418c-10.973-5.285-26.668-15.766-26.668-36.5 0-20.738.992-30.168.992-30.168h51.352s.992 9.43.992 30.168c0 20.734-15.695 31.215-26.668 36.5"/><path fill="#FFF" d="M52.348 59.793V48.332c3.343-.039 9.187-.004 13.914 1.578 0 0-.133-1.847-.133-3.996 0-2.152.133-3.996.133-3.996-5.157 1.727-10.95 1.61-13.914 1.562v-7.187c2.707-.027 6.601.102 11.011 1.582 0 0-.136-1.852-.136-4s.136-3.996.136-3.996c-4.402 1.476-8.297 1.605-11 1.582.137-4.559 1.461-10.293 1.461-10.293s-2.73.207-3.82.207-3.82-.207-3.82-.207 1.324 5.734 1.46 10.289c-2.703.027-6.597-.102-11-1.578a61 61 0 0 1 0 7.992c4.41-1.476 8.31-1.605 11.012-1.582v7.195c-2.965.051-8.757.164-13.914-1.562 0 0 .133 1.844.133 4 0 2.144-.133 3.992-.133 3.992 4.727-1.586 10.57-1.617 13.914-1.574v11.453Zm0 0"/><path fill="#0B4EA2" d="M71.363 67.813c-1.43-2.516-3.68-5.239-6.734-5.239-4.504 0-6.149 3.633-6.149 3.633s-2.96-7.656-8.48-7.656-8.48 7.656-8.48 7.656-1.645-3.633-6.149-3.633c-3.055 0-5.305 2.723-6.734 5.239C34.187 76.625 43.043 82.066 50 85.418c6.957-3.352 15.813-8.793 21.363-17.606"/></svg>