<svg xmlns="http://www.w3.org/2000/svg" viewBox="0 0 100 100"><path fill="#FFF" stroke="#000" stroke-width="4.075" d="M97.96 50c0 26.488-21.472 47.96-47.96 47.96S2.04 76.489 2.04 50 23.511 2.04 50 2.04 97.96 23.511 97.96 50Zm0 0"/><path fill="#D7110E" d="M42.957 42.957V25.41l-12.414-7.23h38.832l-12.418 7.23v17.547H74.5l7.234-12.418v38.832l-7.23-12.418h-17.55v17.543l12.421 7.234H30.543l12.418-7.23V56.95H25.41l-7.23 12.424V30.543l7.23 12.418Zm4.453 4.453H25.45v5.172h21.96v21.961h5.172V52.582h21.961V47.41H52.582V25.45H47.41Zm0 0"/></svg>