<svg xmlns="http://www.w3.org/2000/svg" viewBox="0 0 100 100"><path fill="#002F5E" d="M100 50c0 27.613-22.387 50-50 50S0 77.613 0 50 22.387 0 50 0s50 22.387 50 50m0 0"/><path fill="#FFF" d="M83.5 50c0 18.5-15 33.5-33.5 33.5S16.5 68.5 16.5 50s15-33.5 33.5-33.5 33.5 15 33.5 33.5m0 0"/><path fill="#E31736" d="M35.973 45.688s.34-.055.625-.317c.18-.219.32-.469.418-.738 0 0 1.308-3.203 3.433-4.992 3.371-2.84 5.715-3.051 5.715-3.051s3.215-.91 5.715-.004c3.5 1.277 5.332 3 5.332 3s1.98 1.578 2.168 1.812c.176.223 2.625 2.297 2.625 2.297l1.101 1.016s6.817 5.691 10.125 6.078c5.883.676 6.305-4.277 6.305-4.277s.098-1.098.567-1.067c.593.043 1.507 4.938-2.465 7.227-3.157 1.82-8.727.164-8.727.164s-3.082-1.102-4.797-2.066c-1.742-.977-3.879-2.32-3.879-2.32s-.03-.098-.824-.27c-.574-.125-1.203.566-1.203.566s-2.508 2.043-3.664 2.918c-1.305.98-5.031 2.656-5.031 2.656s-1.157 2.793-1.375 5c-.348 3.535-.055 5.078-.055 5.078s.125 1.254-.215 1.766c-.418.613-1.625 1.125-1.625 1.125s-2.031.965-3.957 2.113c-2.097 1.25-4.52 3.535-4.52 3.535s-.55.57-.93.649c-.374.082-.32-.637-.32-.637s-.816.614-1.218.656c-.406.04-.356-.593-.356-.593s-.324.14-.636.379c-.207.16-.75.785-.75.785s-.282-.274.168-1.086c.152-.29.773-.832.773-.832s.207-.2.281-.317c.11-.168.149-.34.149-.34s.265-.769 1.156-1.5q.68-.457 1.426-.792s6.027-1.582 7.308-6.086c.813-2.864.887-8.586.887-8.586s-.016-.137-.148-.27l-.2-.207-.968-.976s-.117-.125-.332-.18c-.192-.05-.418.016-.418.016s-.551.148-.914.203a2.5 2.5 0 0 1-.907-.086s-.43-.203-.726.035c-.219.176-.082.496-.082.496s.644 1.973.691 2.184c.09.382.414 2.05.414 2.05l.63 1.016s.218-.043.273-.059l.3-.074s.043-.887.375-.918c.52-.054.426 1.875.426 1.875s-.015.098-.101.184a.8.8 0 0 1-.223.148s-.461.125-.688.2c-.417.136-.882.242-1.414-.047-.25-.141-.543-.54-.543-.54s-1.257-1.914-1.328-1.992c-.066-.082-1.465-1.992-2.242-2.308-.508-.207-1.289-.367-1.289-.367s-.812-.2-1.113-.266c-.887-.203-1.692-.664-1.692-.664s-2.011-1.516-2.625-2.063c-.347-.312-2.375-1.972-2.5-2.05-.144-.098-.386-.02-.386-.02s-.766.211-1.532.098c-.457-.067-1.09-.184-1.59-.22-.19-.01-.816.052-1 .06-.468.027-1.71.335-2.328-.153a2.4 2.4 0 0 1-.753-1.601c.058-.48.355-.676.355-.676s.41-.29 1.012-.64c.816-.477 1.293-.641 1.293-.641s.511-.141.797-.25c.28-.11.664-.457.664-.457s.894-.766 1.347-1c.332-.172 1.11-.43 1.11-.43s.644-.2.699-.227c.41-.199.719-.523.719-.523s1.218-1.645 2.777-2.238c.16-.059.598-.2 1.023-.329.504-.16 1-.304 1-.304s.329-.153.485.011c.148.165-.121.547-.121.547s-.856 1.727-1.973 2.606c-.39.308-1.387.594-1.387.594s-.418.152-.418.343c0 .243.293.387.293.387l1.68 1.258s.258.16.375.2c.25.07.504-.02.504-.02l1.316-.329Zm0 0"/></svg>