<svg xmlns="http://www.w3.org/2000/svg" viewBox="0 0 100 100"><path fill="#006" d="M100 50c0 27.613-22.387 50-50 50S0 77.613 0 50 22.387 0 50 0s50 22.387 50 50m0 0"/><path fill="#F8C300" d="M50 31.371V1.605L67.523 44.13l28.309-9.227-34.898 29.985 17.39 23.898-39.258-23.898-17.39 23.898 10.8-44.66-28.308-9.223Zm0 0"/><path fill="#006127" d="M95.832 34.902 67.523 44.13l10.801 44.656-17.39-23.898-39.258 23.898 17.39-23.898L4.168 34.902l28.309 9.227L50 1.605v29.766Zm0 0"/><path fill="#006" stroke="#FFF" stroke-width="5.188" d="M72.746 49.79c0 12.577-10.195 22.773-22.773 22.773-12.582 0-22.778-10.196-22.778-22.774s10.196-22.777 22.778-22.777c12.578 0 22.773 10.199 22.773 22.777Zm0 0"/></svg>