<svg xmlns="http://www.w3.org/2000/svg" viewBox="0 0 100 100"><path fill="#005293" stroke="#FECB00" stroke-width="7.208" d="M96.395 50c0 25.625-20.77 46.395-46.395 46.395S3.605 75.625 3.605 50 24.375 3.605 50 3.605 96.395 24.375 96.395 50Zm0 0"/><path fill="#FECB00" stroke="#000" stroke-width=".629" d="m18.559 32.25 9.007 5.41 4.504-5.41 4.504 5.402 9.012-5.402-5.856 17.117H24.418Zm35.855 0 9.008 5.41 4.504-5.41 4.504 5.402 9.011-5.402-5.859 17.117H60.27ZM36.488 60.18l9.008 5.406L50 60.18l4.504 5.402 9.012-5.402-5.856 17.117H42.348Zm0 0"/></svg>