<svg xmlns="http://www.w3.org/2000/svg" viewBox="0 0 100 100"><path fill="#00602D" d="M100 50c0 27.613-22.387 50-50 50S0 77.613 0 50 22.387 0 50 0s50 22.387 50 50m0 0"/><path fill="#FFF" d="M82.223 50c0 17.797-14.426 32.223-32.223 32.223S17.777 67.797 17.777 50 32.203 17.777 50 17.777 82.223 32.203 82.223 50m0 0"/><path fill="#CE1126" d="M50 0a49.8 49.8 0 0 0-17.586 3.184L44.348 54.94l5.68-12.03 5.304 12.03 12-51.851A50 50 0 0 0 50 0"/><path d="M64.29 50c0 7.89-6.4 14.29-14.29 14.29S35.71 57.89 35.71 50 42.11 35.71 50 35.71 64.29 42.11 64.29 50m0 0"/></svg>