<svg xmlns="http://www.w3.org/2000/svg" viewBox="0 0 100 100"><path fill="#FFF" d="M50 100V50h50c0 27.598-22.402 50-50 50"/><path fill="#DC143C" d="M100 50H50V0c27.598 0 50 22.402 50 50"/><path fill="#FFF" d="M50 0v50H0C0 22.402 22.402 0 50 0"/><path fill="#DC143C" d="M87.793 50a37.53 37.53 0 0 1-6.445 21.125A38.4 38.4 0 0 1 71.12 81.348 37.5 37.5 0 0 1 50 87.793V100c27.617 0 50.004-22.387 50.004-50ZM0 50h50v50C22.402 100 0 77.598 0 50"/><path fill="#FFF" d="M12.207 50a37.53 37.53 0 0 0 6.445 21.125A38.4 38.4 0 0 0 28.88 81.348 37.5 37.5 0 0 0 50 87.793V100C22.383 100-.004 77.613-.004 50Zm75.586 0a37.53 37.53 0 0 0-6.445-21.125A38.4 38.4 0 0 0 71.12 18.652 37.5 37.5 0 0 0 50 12.207V0c27.617 0 50.004 22.387 50.004 50ZM100 50"/><path fill="#DC143C" d="M12.207 50a37.53 37.53 0 0 1 6.445-21.125A38.4 38.4 0 0 1 28.88 18.652 37.5 37.5 0 0 1 50 12.207V0C22.383 0-.004 22.387-.004 50ZM0 50"/></svg>