<svg xmlns="http://www.w3.org/2000/svg" viewBox="0 0 100 100"><path fill="#00005B" d="M100 50c0 27.613-22.387 50-50 50S0 77.613 0 50 22.387 0 50 0s50 22.387 50 50m0 0"/><path fill="#FFF" d="M81.285 50.035c0 17.258-13.992 31.25-31.25 31.25-17.262 0-31.25-13.992-31.25-31.25 0-17.262 13.988-31.25 31.25-31.25 17.258 0 31.25 13.988 31.25 31.25m0 0"/><path fill="#C80C02" d="m50.035 21.902 3.352 6.934c.668 1.336 2.355 2.21 3.71 1.434l2.973-1.598-2.496 13.68c-.207 1.375 1.543 1.84 2.324 1.195l5.692-5.461 1.445 2.875c.235.457 1.23.75 1.922.656l6.055-1.441-1.832 7.406c-.075.355.144 1.52.75 1.875l1.574.879-11.922 10.207q-.463.323-.387.957l.809 4.316-11.996-1.671a1.083 1.083 0 0 0-1.137 1.176l.895 12.292c-1.153.024-2.313 0-3.465 0l.894-12.293a1.083 1.083 0 0 0-1.136-1.175l-11.996 1.671.808-4.312c.059-.434-.082-.742-.387-.961L24.562 50.332l1.579-.883c.601-.351.82-1.515.746-1.875l-1.832-7.402 6.054 1.441c.692.09 1.688-.199 1.926-.656l1.442-2.875 5.691 5.461c.781.645 2.535.18 2.324-1.195l-2.496-13.68 2.977 1.598c1.351.777 3.039-.102 3.707-1.434Zm0 0"/></svg>