<svg xmlns="http://www.w3.org/2000/svg" viewBox="0 0 100 100"><path fill="#FFF" d="M100 50c0 27.613-22.387 50-50 50S0 77.613 0 50 22.387 0 50 0s50 22.387 50 50m0 0"/><path d="M67.023 2.996 50 8.332 33.164 3.051a50 50 0 0 0-8.387 3.89 141.6 141.6 0 0 1 5.309 23.145A141.6 141.6 0 0 1 6.94 24.777a50 50 0 0 0-3.89 8.391L8.332 50 3.051 66.836a50 50 0 0 0 3.89 8.387 141.6 141.6 0 0 1 23.145-5.309 141.6 141.6 0 0 1-5.309 23.145 50 50 0 0 0 8.387 3.89L50 91.668l16.836 5.281a50 50 0 0 0 8.387-3.89 141.6 141.6 0 0 1-5.309-23.145 142 142 0 0 1 23.145 5.309 50 50 0 0 0 3.89-8.387L91.668 50l5.336-17.023a50 50 0 0 0-3.86-8.23 141.7 141.7 0 0 1-23.23 5.339 141.3 141.3 0 0 1 5.34-23.23 50 50 0 0 0-8.23-3.86"/><path fill="#FFF" d="M35.918 2.023a50 50 0 0 0-10.25 4.438 142 142 0 0 1 5.59 24.797 142 142 0 0 1-24.797-5.59A50.2 50.2 0 0 0 2.023 35.93L8.332 50 2.023 64.07a50.2 50.2 0 0 0 4.438 10.262 142 142 0 0 1 24.797-5.59 142 142 0 0 1-5.59 24.797 50.2 50.2 0 0 0 10.262 4.438L50 91.668l14.07 6.309a50.2 50.2 0 0 0 10.262-4.438 142 142 0 0 1-5.59-24.797 143 143 0 0 1 24.797 5.59 50.2 50.2 0 0 0 4.438-10.262L91.668 50l6.309-14.055a50 50 0 0 0-4.325-10.312 141.6 141.6 0 0 1-24.91 5.625 142 142 0 0 1 5.625-24.91 50 50 0 0 0-10.312-4.325L50 8.332 35.93 2.023Zm0 0"/><path d="M50 0a50 50 0 0 0-17.48 3.293 150 150 0 0 1 7.113 36.34A150 150 0 0 1 3.289 32.52 50 50 0 0 0 0 50a50 50 0 0 0 3.293 17.48 150 150 0 0 1 36.34-7.113 150 150 0 0 1-7.113 36.344A50 50 0 0 0 50 100a50 50 0 0 0 17.48-3.293 150 150 0 0 1-7.113-36.34 150 150 0 0 1 36.344 7.113A50 50 0 0 0 100 50a49.9 49.9 0 0 0-3.184-17.512 150 150 0 0 1-36.449 7.145 150.3 150.3 0 0 1 7.145-36.45A49.9 49.9 0 0 0 50 0"/><path fill="none" stroke="#000" stroke-width=".908" d="M99.547 50c0 27.363-22.184 49.547-49.547 49.547S.453 77.363.453 50 22.637.453 50 .453 99.547 22.637 99.547 50Zm0 0"/></svg>