<svg xmlns="http://www.w3.org/2000/svg" viewBox="0 0 100 100"><path fill="#DE0000" d="M100 50c0 27.613-22.387 50-50 50S0 77.613 0 50 22.387 0 50 0s50 22.387 50 50m0 0"/><path fill="#fff" d="m49.941 12.395 8.711 26.863h28.293l-22.8 16.597 8.597 26.86-22.8-16.594-22.805 16.594 8.718-26.86-22.804-16.597h28.176zm0 0"/><path fill="#de0000" stroke="#013399" stroke-width="2.029" d="m49.941 22.543 6.446 19.82h20.89L60.445 54.66l6.328 19.7-16.832-12.18L33.11 74.477l6.446-19.817-16.832-12.297h20.77zm0 0"/></svg>