<svg xmlns="http://www.w3.org/2000/svg" viewBox="0 0 100 100"><path d="M100 50c0 27.613-22.387 50-50 50S0 77.613 0 50 22.387 0 50 0s50 22.387 50 50m0 0"/><path fill="#FFF" d="M83.332 50c0 18.41-14.922 33.332-33.332 33.332S16.668 68.41 16.668 50 31.59 16.668 50 16.668 83.332 31.59 83.332 50m0 0"/><path fill="#008D46" d="M66.668 50c0 9.203-7.465 16.668-16.668 16.668S33.332 59.203 33.332 50 40.797 33.332 50 33.332 66.668 40.797 66.668 50m0 0"/><path fill="#CE1126" d="M14.645 14.645c19.527-19.524 51.183-19.524 70.71 0L50 50Zm0 0"/><path fill="#FFF" d="m50 7.5 2.89 7.324 7.536-2.304-3.926 6.832L63 23.8l-7.79 1.191.575 7.856L50 27.5l-5.785 5.348.574-7.856L37 23.801l6.5-4.45-3.926-6.835 7.535 2.308Zm0 0"/></svg>