<svg xmlns="http://www.w3.org/2000/svg" viewBox="0 0 100 100"><path fill="#002B5C" d="M100 50c0 27.613-22.387 50-50 50S0 77.613 0 50 22.387 0 50 0s50 22.387 50 50m0 0"/><path fill="#FFF" d="M81.61 50c0 17.457-14.153 31.61-31.61 31.61S18.39 67.456 18.39 50 32.544 18.39 50 18.39 81.61 32.544 81.61 50m0 0"/><path fill="#B82234" d="M28.207 49.398c1.25-3 1.848-3.98 1.848-3.98-.102-2.477.543-5.727 4.77-7.082 4.23-1.352 7.484-1.027 9.687-2.281 2.215-1.258 7.039-4.864 13.426-3.563 6.976 1.418 13.035 6.074 14.19 12.363.645 3.48.267 6.958-2.21 10.13-1.602 2.288-3.172 3.199-4.5 3.93q-.71.433-1.5.874a4 4 0 0 0-.461.352c-2.066 1.82-1.539 6.976-1.875 8.402-.34 1.43-5.133 3.02-5.336 2.539-.144-.332 1.309-1.52 2.191-2.207.13-.164-.113-.328-.503-.379-1.993.188-5.875.543-6.23.543-.477 0 .054-1.05 1.773-1.363a80 80 0 0 1 2.625-.438l.02-.004c.136-.03.167-.074.124-.109-.762-.098-1.918-.195-1.375-.566.805-.547 4.332.234 5.043-1.07l.027-.212c.125-1.187.211-2.847-.808-4.05q-.675-.745-1.43-1.407c-.512 1.551-.723 3.246-.844 4.008-.222 1.43-4.648 2.117-4.734 1.617-.055-.3.86-.879 1.602-1.304l.043-.063c.292-.289.148-.32-.18-.324-1.79.18-5.254.531-5.602.531-.476 0-.308-.762 1.375-1.078a20 20 0 0 0 1.774-.41q.212-.075.097-.133c-.785-.148-1.976-.398-1.879-.574.325-.59 4.352-.25 5.383-.145.41-.175.621-.445.77-1.043.207-.851-.078-2.707-.883-3.855a25 25 0 0 0-3.941-2.45c-2.61-1.34-5.793-4.906-8.594-5.968-2.34-.89-4.38-1.61-6.414-1.492-1.45.078-2.711.25-3.742 1.11-2.407 2.003-4.813 5.882-5.457 12.241 0 0-1.461-3.39 1.734-11.086"/></svg>