<svg xmlns="http://www.w3.org/2000/svg" viewBox="0 0 100 100"><path fill="#FFF" stroke="#CE1126" stroke-width="4.158" d="M97.922 50c0 26.465-21.457 47.922-47.922 47.922S2.078 76.465 2.078 50 23.535 2.078 50 2.078 97.922 23.535 97.922 50Zm0 0"/><path fill="#CE1126" d="M48.836 15.074c-2.363.008-4.988.36-7.102 2-1.023.875-2.23 2.266-3.273 2.469-2.164.414-3.883.18-5.332 1-1.293.73-2.2 1.68-2.918 2.754l.016.074h14.98c2.578-2.898 7.207-4.96 11.879-4.96 3.25 0 5.168.468 8.586 2.089-2.867-2.945-8.043-5.387-16.836-5.426m8.25 4.508c-3.875 0-7.797 1.602-10.219 3.793h4.524c4.48 0 8.21 1.137 11.187 3.059 7.684 4.945 10.684 12.058 10.582 18.87a24.5 24.5 0 0 1-4.23 13.247l.406-.281c5.96-4.145 10.465-10.333 9.617-17.567-.46-3.976-2.012-8.539-5.933-13.027-4.61-5.293-10.727-8.008-15.934-8.094m-31.293 4.965c-.211 0-.73.101-.918.16-1.773.535-3.16 1.41-3.062 3.594a3.7 3.7 0 0 1 2.023-.64v.929c-1.824 0-3.398 1.375-2.73 3.11l1.382 3.616c1.309-1.308 4.219-1.242 4.883-1.242q1.095.007 1.89.196c1.786.43 2.544 1.87.712 3.253-.575.434-1.543.692-2.907.711-1.32.02-2.93-.597-4.48-2.347-2.031 3.468-.5 7.054.762 8.46 1.636-2.663 5.257-2.433 8.254-2.433h3.355c2.066-.012 4.027-.492 5.578-1.504 1.547-1.015 2.707-2.543 3.219-4.781a8.5 8.5 0 0 0-.426-4.484l-.308-.797.859.062c1.25.09 1.836-.086 2.875-.523 1.488-.625 2.55-2.207 2.562-3.25a2.07 2.07 0 0 0-.52-1.477 1.96 1.96 0 0 0-1.534-.613H35.648s-.152 1.414-1.62 1.414c-1.465 0-1.715-1.414-1.715-1.414Zm24.023 0c.551.723.782 1.637.641 2.531 7.61 2.149 12.344 8.395 12.223 15.168-.043 2.371-.856 4.582-2.063 6.84-2.015 3.773-5.117 5.988-7.238 9.18-2.48 3.726-2.75 6.93-2.207 9.492 4.719-2.524 9.945-4.578 14.77-7.344 3.542-3.793 5.953-9.375 6.042-15.125.102-6.46-2.668-13.121-10.039-17.867-2.785-1.793-6.27-2.875-10.55-2.875Zm.313 3.66a5.4 5.4 0 0 1-1.606 1.992c2.961 2.965 3.672 6.735 3.067 10.336-.637 3.79-2.68 7.43-5.067 10.094-4.457 4.98-9.812 11.105-9.902 16.941-.05 3.032.95 6.016 3.707 9.02q.335-.459.711-.93c2.441-3.094 5.594-5.363 9.066-7.312-.687-2.899-.445-6.614 2.29-10.73 2.273-3.419 5.316-5.598 7.187-9.083 1.156-2.168 1.879-4.195 1.918-6.305.113-6.226-4.207-12.007-11.375-14.023m-2.629 2.633-.289.133c-.914.386-1.652.507-2.523.539l.027.035q.292 1.053.344 2.14c.043.754-.012 1.5-.157 2.188v.012c-.066.289-.148.574-.234.86l-.016.03-.011.043c-1.485 4.547-5.813 6.25-9.395 8.735-5.058 3.37-8.394 6.218-9.98 8.867-2.032 3.387-2.594 6.644-2.164 10.473.773 6.82 6.039 14.097 15.46 20.03-1.015-2.46-.492-4.804 1.094-7.335-3.066-3.262-4.265-6.66-4.215-10.04.106-6.523 5.75-12.726 10.208-17.71 2.25-2.508 4.19-6 4.78-9.5.575-3.41-.085-6.785-2.929-9.5"/></svg>