<svg xmlns="http://www.w3.org/2000/svg" viewBox="0 0 100 100"><path fill="#26416C" d="M100 50c0 27.613-22.387 50-50 50S0 77.613 0 50 22.387 0 50 0s50 22.387 50 50m0 0"/><path fill="#FFF" d="M50 0s-4.043 8.027-14.02 11.473c-10.042 3.46-18.113.218-18.113.218s1.98 8.54-3.367 17.801C9.18 38.707.77 41.31.77 41.31s6.94 6.328 8.859 15.796c1.957 9.668-2.922 17.88-2.922 17.88s10.234 1.038 16.941 6.406c6.489 5.187 9.25 15.57 9.25 15.57S41.332 90.785 50 90.98c8.707.195 17.102 5.98 17.102 5.98s2.777-10.238 9.25-15.57c6.433-5.305 16.941-6.407 16.941-6.407s-4.668-9.386-2.922-17.879c1.734-8.46 8.86-15.796 8.86-15.796S89.32 36.633 85.5 29.492c-3.86-7.219-3.371-17.8-3.371-17.8s-7.988 3.351-18.11-.22C53.704 7.829 50 0 50 0m-.016 6.23a30.25 30.25 0 0 0 12.817 8.696 31.86 31.86 0 0 0 15.707 1.402c.23 4.008 1.055 9.836 3.758 14.895 2.836 5.289 7.73 9 11.25 11.164-2.414 3.172-5.54 8.148-6.743 13.98-1.23 6.028.094 11.89 1.403 15.762-3.946.875-9.614 2.683-14.16 6.433-4.641 3.825-7.414 9.184-8.938 12.958-3.539-1.84-8.992-4.07-15-4.207-6.094-.137-11.598 2.148-15.18 4.09-1.52-3.801-4.289-9.141-8.957-12.876-4.59-3.672-10.117-5.468-14.011-6.359 1.328-3.77 2.582-9.43 1.293-15.793-1.227-6.05-4.168-10.82-6.551-13.91a31.25 31.25 0 0 0 11-11.14 31.1 31.1 0 0 0 4.148-14.973 32.54 32.54 0 0 0 15.356-1.418 30 30 0 0 0 12.808-8.707"/><path fill="#F0C14F" d="M52.332 54.332c.309-.375-.293-1.035-.293-1.566.125-.426.441-1.118 1.504-1.59.691-.293 1.332-.375 2.062-.403.555-.023 2.383.293 2.407-.449-.375.239-1.707.106-1.707.106s-.22-.688.25-1.035h1.343c.692-.028.782.347.782.347s-.125-.558-.535-.77c-.579-.269-1.282-.214-1.282-.214h-1.285s-.504-.559-1.062-.024h-1.309c0 .262 1.25.239 1.25.239s.148.316.566.375c.418 0 .532-.297.532-.297.332-.348 1 .133.136.664-.25.32 0 .586 0 .586s-1.816.207-2.793.742c-1.37.691-1.28 1.75-1.28 1.75 0 .61.468.719.69 1.539Zm2.43.453c12.277-4.433 14.199-4.168 18.336-6.027.125-.024.445-.106.5-.055 0 .106-.25.293-.762.348.203.023.309.187.152.238a6 6 0 0 1-.843.082c0 .024.472.05.25.184-.223.156-.973.21-1.063.238 0 0 .223.105.125.21 0 .056-.89.165-1.172.134.125.086.367.11.258.187-.418.239-1.148.211-1.293.262 0 .055.637.187.145.348-.707.265-1.594.164-1.852.187 0 0 .789.238.125.504-.844.316-1.844.184-2.125.238-.195 0 1.68.055.418.559a6.7 6.7 0 0 1-2.344.023c.973.375.371.559-.164.614a7 7 0 0 1-1.59-.079c.407.235.602.422.332.504-.593.07-1.195.086-1.793.055.399.133.45.316.203.395-.503.132-1.593.027-1.77.082 0 0 1.063.316.485.476-.925.211-2.011-.054-2.27.028 0 0 .99.316.641.585-.445.317-1.668.047-1.84 0-.308.102.778.473.356.66-.86.239-1.395-.081-1.395-.081-.464-.344-.269-.848 0-.899Zm18.445-1.726c.164-.055 1.535.21 2.793.613 1.063.34 2.012.848 2.04 1.062 0 .157-2.063-.054-3.657-.43-1.543-.37-2.61-.902-2.61-.952 0-.348 3.586.847 3.586.609 0-.16-2.347-.793-2.152-.902m-2.457.5c.137-.051.89.113 1.816.402 1.114.344 2.567.957 2.618 1.168 0 .133-2.063-.11-3.348-.395-1.504-.375-2.602-.691-2.566-.851 0-.32 3.433.742 3.433.5 0-.13-2.125-.711-1.95-.82m-2.07.535c.282-.051 4.133.902 4.196 1.515 0 .82-5.567-1.195-5.567-1.304 0-.293 3.075.691 3.075.48 0-.137-1.867-.586-1.707-.691m-1.907.582c.266-.051 3.868.824 3.918 1.406 0 .746-5.199-1.11-5.199-1.219 0-.262 2.856.637 2.856.453 0-.133-1.73-.53-1.575-.636m-1.363.613c.258-.055 3.38.613 3.442 1.14 0 .668-4.582-.902-4.582-.984 0-.238 2.566.586 2.566.402 0-.105-1.54-.48-1.426-.558m-1.957.426c.227-.055 3.383.636 3.41 1.14 0 .692-4.554-.875-4.586-.984.125-.238 2.598.582 2.598.426 0-.13-1.555-.5-1.418-.582m-1.984.453c.222-.055 3.382.61 3.406 1.136 0 .668-4.543-.898-4.543-.98 0-.242 2.566.586 2.566.398 0-.105-1.566-.476-1.43-.554m-2.124.422c.375-.266 2.965.554 3 1.011 0 .582-4-.773-4-.875 0-.187 2.261.528 2.261.368 0-.106-1.37-.426-1.257-.5m-1.727.21c.223-.132 2.68.637 2.715 1.04 0 .527-3.531-.692-3.531-.774 0-.187 1.988.45 1.988.32 0-.082-1.371-.453-1.172-.582m-1.59.375c.168-.027 2.875.582 2.938.98 0 .532-3.555-.687-3.555-.769 0-.187 2.008.453 2.008.32 0-.085-1.48-.452-1.39-.53m-1.485.206c.148-.023 2.96.692 3.023 1.094 0 .528-3.16-.719-3.16-.77 0-.187 1.79.45 1.79.317 0-.082-1.767-.555-1.653-.637m-.555.508c.133-.027 2.145.555 2.145 1.012 0 .605-2.371-.375-2.371-.457 0-.207 1.175.215 1.175.031 0-.082-1.035-.48-.949-.582m-.309.719c.126-.028.813.316.813.637 0 .398-1.172.078-1.172 0 0-.211.668 0 .668-.16 0-.083-.36-.4-.309-.477m21.504-6.293c.176-.05 1.207.082 2.766.5 1.172.324 3.05.984 3.05 1.25-.124.238-2.542-.024-4.136-.375-1.64-.363-2.793-.922-2.793-1.004 0-.422 3.942 1.035 3.942.742 0-.187-3.012-.957-2.829-1.113m1.485-1.063c.344-.156 6.937.5 7.125 1.278 0 .207-2.2.742-3.125.61-2.297-.317-4.535-.93-4.75-1.145 0-.422 4.687.503 4.636.214-.124-.187-4.382-.742-3.886-.96m1.172-.981c.343-.16 8.25-.453 8.332.187 0 .317-1.567.93-3.887 1.032-1.445-.239-3.297-.207-4.938-.5-.125-.348 5.356-.137 5.25-.375-.125-.133-5.226.027-4.757-.344m.754-1.195c.195-.082 1.898-.211 4.023-.5 2.102-.27 5.223-.801 5.195-.403-.195.395-1.504 1.356-2.812 1.672-2.074.188-3.469-.238-7.098.082-.617-.476 6.59-.75 6.414-1.062-.12-.16-1.812.074-3.226.238-1.512.133-2.743.184-2.496-.027m0-.61c.171-.16 2.96-.504 4.886-1.355 1.93-.824 4.496-2.203 4.645-1.86.133.348-.707 1.649-1.875 2.286-1 .609-4.188 1.062-7.684 1.355-.37-.16 1.153-.215 3.074-.559 1.75-.316 3.829-.93 3.68-1.332 0-.207-1.137.457-2.371.774-2.012.531-4.445.875-4.355.691m-.125-.586c.125-.238 3.136-1.726 4.953-2.816 1.75-1.086 3.988-2.73 4.207-2.488.398.5-1.727 2.707-2.79 3.527-1.199.77-3.16 1.59-6.171 2.125-.399-.11 1.457-.535 3.25-1.168 1-.398 2.761-1.437 2.562-1.809-.125-.21-1.258.875-2.43 1.356-1.925.766-3.628 1.488-3.581 1.273m5.222-5.68L80.91 44c-.976.559-2.062 1.14-2.851 1.566-5.754 2.657-10.95 3.532-11.793 3.72-5.727 1.163-11.973 4.163-11.973 4.163-.371.242-.203.906.27.93.68.055 2.187-.852 5.308-1.883 5.063-1.644 9.395-2.762 11.281-3.45.907-.32 6.711-2.284 9.512-4.355.75-.187-2.656 1.883-2.434 2.125.16.106 1.375-.48 1.59-.582 1.868-1.043 3.102-2.55 3.325-2.418.335.207-1.04 1.301-2.235 2.043-1.48.903-2.875 1.489-2.656 1.54.2.316 4.383-2.04 5.308-2.735 1.063-.824 2.856-3.453 2.68-3.77-.332-.32-1.37.454-2.543 1.329M54.477 56.477c.199.05 1.48.32 1.261.664-.558.449-1.422 0-1.422 0-.136-.157 0-.243 0-.243s.68.137.704.055c0-.101-.56-.289-.56-.289s-.257-.16 0-.187Zm.84-.454c-.165.188 1.32.403 1.234.641-.125.156-2.012-.64-2.012-.64-.25.03 0 .242 0 .242.383.183 1.703.902 2.727.687.418-.476-1.446-.957-1.446-.957-.218-.074-.418-.05-.48.027Zm4 .348c.124-.48-1.899-.984-1.899-.984-.445-.078-.313.187-.313.187 0 .133 1.344.45 1.32.586-.124.188-1.714-.5-1.714-.5-.469-.14-.383.18-.273.262.312.183 1.535.687 2.347.66.445-.078.531-.21.531-.21m2.207-.56c.125-.449-2.343-.957-2.343-.957-.457-.101-.258.11-.258.11 0 .133 1.371.453 1.344.586 0 .183-1.79-.453-1.79-.453-.468-.16-.394.187-.285.289.348.16 1.657.586 2.657.586.57-.028.64-.051.675-.16m1.954-.5c.125-.485-2.766-1.145-2.766-1.145-.445-.082-.285.133-.285.133 0 .11 1.375.426 1.344.558 0 .184-1.59-.316-1.59-.316-.442-.164-.692.023-.555.078.309.184 1.863.844 2.875.875.559 0 .926-.11.977-.187m1.925-.586c.125-.453-2.765-1.145-2.765-1.145-.446-.078-.25.16-.25.16 0 .11 1.375.426 1.336.559 0 .156-1.891-.375-1.891-.375-.477-.156-.395.058-.281.137.332.183 1.898.851 2.898.851.57 0 .93-.086.953-.187m2.493-.72c0-.265-1.207-.48-2.184-.636a59 59 0 0 1-1.281-.262c-.395-.03-.227.153-.227.153 0 .031.422.133.781.219.567.101 1.207.207 1.207.289 0 .16-2.515-.32-2.515-.32-.508-.106-.594.03-.485.109.348.133 2.41.668 3.422.636.64-.027 1.25-.027 1.282-.187m2.593-.613c0-.29-1.48-.5-2.48-.688-.707-.105-1.176-.21-1.176-.21-.723-.083-.344.132-.344.132 0 .023.422.133.79.184.554.132 1.222.242 1.222.32 0 .16-2.95-.32-2.95-.32-.503-.079-.48.109-.37.187.332.11 2.742.691 3.742.668.64-.031 1.566-.11 1.566-.273m3.075-.766c0-.187-1.766-.348-2.743-.535q-1.021-.163-2.035-.367c-.703-.082-.246.132-.246.132 0 .024.727.29 1.11.375.554.102 1.398.184 1.398.317 0 .101-2.09-.32-3.41-.559-1.024-.164-.446.157-.446.157.2.238 1.68.503 1.793.558.332.16 1.704.348 2.704.293.64-.023 1.851-.207 1.874-.375m2.376-1.14c0-.27-2.293 0-3.262 0a22 22 0 0 1-2.383-.133c-1.063-.16-.73.05-.73.05 0 .082 1.703.211 2.101.266.55.05 1.766 0 1.766.133 0 .105-1.434.055-2.743-.082-1.042-.05-1.652-.235-1.652-.18 0 .18 2.012.418 2.29.45.648.078 1.878.316 2.878.206.617-.074 1.711-.527 1.73-.71m1.34-1.008c0-.27-2.148-.055-3.207.023a21 21 0 0 1-3.101.055c-1.063-.164-.727.078-.727.078 0 .078 1.258.133 1.617.184.582.054 2.903-.16 2.903-.051 0 .133-1.84.316-3.188.261-1.023-.078-2.011-.101-1.972-.023 0 .16 1.64.266 1.922.293.644.082 3.015.027 4.027-.105.601-.083 1.726-.536 1.726-.715m.926-1.332c0-.29-2.05.109-3.05.27-.86.132-1.567.265-2.06.234-1.01 0-.952.187-.952.187 0 .184.586.105.953.105.555.028 2.508-.292 2.508-.16.125.11-1.508.348-2.77.375-1 0-1.617.051-1.617.106 0 .183 1.309.16 1.594.183.62.032 2.855-.183 3.804-.394.582-.133 1.618-.719 1.59-.906m0-.957c0-.293-2.68.293-3.68.43-.949.1-.789.288-.414.316 1 .082 2.653-.477 2.68-.348 0 .133-1.46.504-2.742.535-1.176.133-.645.262-.36.293.618.024 2.063-.242 2.989-.426.617-.132 1.527-.613 1.527-.797m-.308-.925c0-.29-3.899.718-3.875 1.113 0 .188 1.347-.05 2.285-.262.59-.133 1.59-.668 1.59-.851M47.027 60.375c.223 1.621-4.715 2.793-4.777 2.895-.2.292 0 .82.309 1.007.171.082 2.96-.957 2.988-1.035 0-.105 0-.183-.125-.207-.125 0-1.95.582-1.95.582s-.308 0-.124-.265c.125 0 1.953-.48 1.953-.536 0-.078-.125-.078 0-.156 1.172-.32 2.011-1.355 2.011-1.355s0-.852-.332-.93Zm-1.418 3c-.125.055-2.918 1.063-2.937 1.168.125.344.246.504.246.504l.898.187c.125 0 2.149-1.3 2.149-1.3s0-.16-.137-.188c-.195.082-1.789.852-1.789.852s-.2-.055-.121-.211c0-.028 1.727-.825 1.727-.825s0-.132-.125-.187Zm.465.715c-.125.027-1.875 1.168-1.875 1.277 0 .051.235.078.235.078.468-.238 1.816-.082 1.816-.082s.36-.633.36-.715c0-.078-.126-.187-.2-.187-.125 0-.726.773-.84.746-.125 0-.183-.027-.183-.16 0-.082.914-.688.914-.742s-.137-.188-.223-.215m-.441 1.41c.125.129-.223.34-.559.395-.414.214-.617.054-.95.425 0-.156 0-.527.333-.742.14-.055 1.09-.16 1.176-.082m.16.078c-.16.317-.75.371-.777.985.48-.243.667-.11 1.035-.32.199-.134.273-.239.199-.481 0-.051-.176-.262-.457-.184m.68.293c.222.156.496.133.496.133.23.133.144.477 0 .637-.36.261-.918.183-1.09.37 0-.581.531-.745.594-1.14m6.394-.797s1.082.875 1.082.93c-.121.16 0 .477 0 .477-.555.421-1.613.558-1.613.558s-.332-1.648-.332-1.672c0-.027.27-.11.332-.086 0 0 .531 1.016.582 1.016 0 .023.125 0 .195-.11 0-.023-.554-.93-.531-.98 0-.027.172-.133.285-.133m-1.144.317c.125.027.28 1.726.28 1.726-.679.29-1.32.11-1.32.11V65.44q.207-.034.418 0l.125 1.063c0 .023.137.055.258-.027l-.125-1.059c0-.031.25-.055.364-.031m-3.543-.184s-.817.719-.868.793c.125.188 0 .613 0 .613.567.399 1.48.45 1.48.45s.333-1.618.31-1.645c0 0-.247-.078-.31-.05 0 0-.491.956-.554.984 0 .023-.137.023-.222-.055 0-.031.53-.984.53-1.008 0-.027-.222-.11-.335-.086Zm1.214.16-.27 1.75c.669.29 1.31.11 1.31.11V65.44c0-.023-.333-.054-.391-.023l-.125 1.059c0 .05-.137.082-.25 0l.125-1.059c0-.055-.258-.086-.371-.055ZM53.488 60c-.195 1.621 5.36 2.973 5.469 3.105.172.266 0 .797-.355.98-.141.087-2.965-.956-2.989-1.03 0-.11 0-.188.137-.215.125-.028 1.95.61 1.95.61s.284-.055.124-.29c-.125 0-1.953-.453-1.976-.535 0-.078.125-.078 0-.152-1.172-.325-2.68-1.575-2.68-1.575s0-.843.332-.898Zm2.086 3.207c.125.031 2.918 1.066 2.938 1.148 0 .344-.219.5-.219.5l-.926.188c-.125 0-2.152-1.3-2.152-1.3s0-.161.14-.184l1.762.843s.223-.047.125-.207c0-.027-1.73-.824-1.73-.824s0-.133.125-.16Zm-.469.723s1.875 1.168 1.875 1.25c0 .05-.234.074-.234.074-.469-.238-1.726-.05-1.726-.05s-.508-.583-.47-.665c0-.082.138-.266.196-.266.125 0 .777.77.867.743.125 0 .196-.024.219-.157 0-.054-.95-.691-.95-.746 0-.027.126-.183.223-.183m.594 1.457c-.125.11.223.347.578.402.418.184.618.047.953.395 0-.133 0-.532-.359-.72-.125-.05-1.101-.179-1.172-.077m-.176.054c.176.317.75.395.817.985-.508-.242-.707-.11-1.04-.293-.195-.133-.304-.242-.222-.48 0-.083.2-.266.445-.212m-.664.293c-.195.157-.48.157-.48.157-.25.132-.137.48 0 .636.332.27.926.16 1.059.375.124-.609-.528-.77-.579-1.168m-9.472-12.632c0-.086.41-1.04.89-1.465l-.394-.102s.531-.773 1.176-1.117l-.332-.215s.64-.582 1.257-.875l-.25-.266s.692-.32 1.332-.48l-.125-.34s.735-.215 1.684-.242c-.125-.133-.164-.395-.164-.395s1.535-.164 2.71-.164c.392-.054 1.54.055 1.54.055 1.594.133 2 1.008 2 1.008 3.184.164 1.766 1.914 1.766 1.914s.125-.742-.582-.742h-1.32c-.22.078-.157.527-.157.527h1.309a.5.5 0 0 0 .332-.101s.195.55-.29.843c-.824.215-1.722.082-2.23.082-.644-.05-2.594.477-2.656 1.301.125.957.543.902 1.012 1.086-.168.027-.75.719.125 1.277a4.45 4.45 0 0 1-1.262 4.356s-.125-.348-.125-.293c0 .105 0 .61-.133.664 0 .023-.145-.559-.195-.535-.125.054 0 .613-.2.77-.125.054-.171-.606-.285-.555 0 0 0 .847-.195.824-.125 0-.137-.746-.223-.692 0 0 0 .793-.25.848-.168-.105-.132-.77-.242-.77 0 0 0 .825-.285.876-.2 0-.2-.875-.285-.875 0 0 0 .851-.25.851-.195-.027-.305-.48-.332-.828-.125-.023-.145.723-.258.723-.125-.055-.332-.535-.383-.957-.125-.028-.125.742-.222.715-.125-.055-.415-.743-.458-1.083-.124-.058 0 .79-.124.735-.122-.047-.333-.688-.333-1.031 0-.082 0 .691-.12.613-.122-.082-.274-.559-.274-1.063-.125-.086-.148.528-.195.45-.2-.375-.977-2.575-.57-4.168.456-1.832 1.593-3.266 1.347-3.211-.285-.082-1.813 2.332-1.926 4.457 0 2.601 1.371 3.906 1.371 3.906 1.258 1.402 2.477 1.297 2.477 1.297 2.015.027 3.078-1.113 3.078-1.113s-.582 1.035-.504 1.671c.457 2.309 2.094 4.036 2.094 4.036 0 .398-.442.48-.442.48l-1.086-.746-.707-.211s-1.675-1.727-1.789-3.344c-.308.133-.726.024-.726.024-.16 1.648-1.485 3.375-1.485 3.375l-.582.156-.945.793s-.582.086-.582-.422c0 0 1.531-3.238 1.285-4.14 0-.399-.125-.848-.64-1.626 0-.074-1.485-1.75-1.434-4.191.125-.687.441-1.75.441-1.75s0-.133-.125-.266c.227-.742.868-1.699 1.325-2.07l-.508-.133c.199-.238.844-.765 1.043-.98l-.262-.082q.727-.493 1.508-.903l-.277-.187c.445-.156 1.113-.29 1.113-.29l-.309-.26c.399-.188 2.012-.27 2.012-.27l-.16-.239s1.086-.21 1.445-.238c-1.062 0-2 .027-2 .027s.125.184.188.317c-.868 0-1.844.265-1.844.265l.176.344c-.57.16-1.207.32-1.207.32s.12.083.254.293a7.4 7.4 0 0 0-1.391.903l.27.183c-.731.559-1.063.957-1.063.957l.48.082a3.3 3.3 0 0 0-1.097 1.7c-.125-.032-.16-.055-.297-.082Zm-.125 1.695c-12.278-4.434-14.184-4.168-18.317-6.027-.125-.024-.468-.102-.508-.055 0 .105.258.293.731.347-.16.024-.309.188-.125.239.2.054.707.082.816.082.125.027-.445.05-.257.183.218.16 1.011.211 1.062.239 0 0-.227.11-.125.21 0 .055.887.16 1.137.133-.125.086-.36.11-.227.188.399.238 1.153.21 1.262.266.125.05-.621.187-.137.343.73.266 1.617.164 1.84.188 0 0-.777.238 0 .504.8.316 1.84.183 2.125.238.188 0-1.707.055-.418.559a6.6 6.6 0 0 0 2.34.023c-1.012.375-.39.559.14.613.887.055 1.59-.078 1.59-.078-.394.238-.617.426-.308.504.285.078 1.594.078 1.793.055-.399.133-.485.316-.2.394.508.133 1.57.032 1.766.082 0 0-1.062.32-.484.477.93.21 2.012-.055 2.262.031 0 0-.973.317-.665.582.442.317 1.68.051 1.836 0 .309.106-.773.473-.332.66.868.239 1.395-.082 1.395-.082.457-.34.285-.843 0-.898Zm-18.43-1.727c-.168-.054-1.566.215-2.824.614-1.024.34-2 .851-2.043 1.062 0 .156 2.078-.055 3.668-.43 1.535-.37 2.597-.898 2.62-.953 0-.347-3.57.848-3.57.614 0-.164 2.325-.797 2.149-.907m2.461.5c-.14-.05-.895.114-1.844.407-1.082.34-2.566.953-2.601 1.164 0 .132 2.047-.106 3.355-.395 1.504-.375 2.567-.691 2.567-.851 0-.32-3.465.742-3.465.5 0-.13 2.156-.711 1.988-.82m2.074.534c-.289-.05-4.176.903-4.199 1.516 0 .82 5.555-1.195 5.555-1.305 0-.293-3.059.692-3.059.48 0-.132 1.836-.585 1.703-.69m1.887.581c-.25-.05-3.856.825-3.899 1.41 0 .747 5.157-1.113 5.196-1.222 0-.262-2.887.637-2.887.453 0-.133 1.734-.531 1.59-.637m1.348.614c-.223-.055-3.387.613-3.41 1.14 0 .668 4.554-.902 4.554-.984 0-.235-2.566.586-2.566.402 0-.105 1.554-.48 1.418-.558m1.984.425c-.219-.054-3.383.637-3.406 1.141 0 .691 4.554-.875 4.554-.984 0-.239-2.582.586-2.582.425 0-.129 1.567-.5 1.434-.582m1.977.453c-.25-.054-3.371.61-3.434 1.137 0 .668 4.559-.898 4.582-.976 0-.243-2.57.582-2.57.394 0-.105 1.535-.476 1.418-.554m2.097.421c-.355-.261-2.925.559-2.96 1.012 0 .582 4-.77 4-.875 0-.187-2.262.527-2.262.367 0-.105 1.36-.425 1.222-.5m1.727.211c-.184-.133-2.676.637-2.7 1.04 0 .527 3.544-.692 3.544-.774 0-.188-2.016.453-2.016.324 0-.086 1.371-.457 1.172-.586m1.598.375c-.164-.027-2.875.586-2.907.98 0 .532 3.52-.687 3.543-.765 0-.188-2 .45-2 .316 0-.086 1.469-.449 1.364-.53m1.515.21c-.172-.027-3 .691-3.027 1.09 0 .531 3.164-.715 3.164-.77 0-.187-1.793.45-1.793.317 0-.078 1.73-.555 1.656-.633m.559.504c-.176-.027-2.153.558-2.188 1.012 0 .609 2.383-.375 2.383-.454 0-.21-1.148.211-1.148.028 0-.082 1.039-.48.953-.582m.308.719c0-.028-.843.316-.843.64 0 .395 1.175.074 1.175 0 0-.215-.64 0-.64-.164 0-.078.351-.394.308-.476m-21.523-6.29c-.195-.054-1.219.079-2.79.5-1.148.32-3.046.98-3.01 1.25 0 .235 2.538-.027 4.097-.375 1.656-.367 2.828-.925 2.828-1.003 0-.426-3.941 1.03-3.941.738 0-.188 3.015-.957 2.816-1.11m-1.48-1.062c-.336-.16-6.954.5-7.126 1.273 0 .207 2.188.743 3.137.61 2.285-.317 4.496-.93 4.754-1.14 0-.427-4.73.503-4.668.21.125-.187 4.41-.742 3.902-.957m-1.171-.984c-.36-.16-8.235-.45-8.32.187 0 .317 1.566.93 3.847 1.031 1.46-.234 3.336-.207 4.957-.5.125-.347-5.375-.136-5.227-.375.125-.132 5.2.028 4.743-.343m-.75-1.196c-.2-.082-1.93-.21-4.055-.5-2.059-.27-5.195-.8-5.156-.402.18.398 1.464 1.355 2.789 1.672 2.097.187 3.492-.238 7.125.082.613-.477-6.594-.75-6.457-1.066.125-.157 1.812.085 3.27.242 1.48.133 2.702.183 2.48-.028m0-.609c-.176-.16-2.97-.504-4.918-1.355-1.899-.825-4.485-2.204-4.64-1.856-.126.344.73 1.645 1.898 2.281 1 .61 4.187 1.063 7.656 1.356.383-.164-1.125-.215-3.074-.559-1.766-.316-3.801-.93-3.668-1.328 0-.21 1.148.453 2.382.77 2.012.53 4.446.875 4.36.691m.12-.582c-.124-.242-3.163-1.73-4.948-2.816-1.77-1.09-4-2.735-4.25-2.493-.36.5 1.765 2.707 2.828 3.528 1.172.773 3.125 1.593 6.172 2.125.382-.11-1.461-.532-3.274-1.164-1-.403-2.742-1.438-2.539-1.809.125-.215 1.258.875 2.43 1.352 1.902.77 3.625 1.488 3.582 1.277m-5.235-5.684 2.801 1.778c.973.558 2.063 1.14 2.817 1.566 5.793 2.656 10.949 3.531 11.812 3.719C39.45 50.46 45.73 53.46 45.73 53.46c.375.242.172.906-.273.93-.68.054-2.207-.848-5.309-1.883-5.082-1.645-9.394-2.762-11.293-3.45-.89-.32-6.707-2.285-9.523-4.355-.723-.187 2.68 1.883 2.461 2.125-.172.106-1.371-.476-1.594-.582-1.875-1.043-3.125-2.55-3.36-2.418-.292.211 1.04 1.3 2.274 2.043 1.446.902 2.875 1.488 2.653 1.543-.22.316-4.395-2.043-5.309-2.738-1.062-.82-2.848-3.45-2.715-3.766.375-.324 1.395.45 2.57 1.324m29.196 14.254c-.172.055-1.48.32-1.258.664.555.453 1.457 0 1.457 0 .125-.156-.125-.238-.125-.238s-.664.133-.691.05c0-.1.554-.288.554-.288s.25-.16 0-.188Zm-.836-.449c.195.188-1.29.398-1.2.637.126.156 1.985-.637 1.985-.637.273.027 0 .238 0 .238-.395.184-1.703.903-2.742.688-.442-.477 1.46-.957 1.46-.957.196-.074.415-.051.446.031Zm-3.988.344c-.125-.48 1.925-.985 1.925-.985.442-.078.27.188.27.188 0 .137-1.309.453-1.281.586 0 .187 1.703-.5 1.703-.5.457-.137.394.183.281.262-.332.183-1.566.687-2.344.664-.445-.082-.554-.215-.554-.215m-2.207-.559c-.125-.449 2.34-.957 2.34-.957.445-.101.285.11.285.11 0 .132-1.372.453-1.372.582 0 .187 1.778-.45 1.778-.45.508-.16.394.188.285.29-.309.16-1.645.585-2.625.585-.559-.027-.668-.05-.695-.16m-1.93-.5c-.125-.484 2.766-1.144 2.766-1.144.441-.078.27.133.27.133 0 .109-1.395.425-1.372.558 0 .184 1.594-.316 1.594-.316.484-.164.707.023.59.078-.309.183-1.899.847-2.875.875-.59 0-.95-.11-.973-.188m-1.965-.586c-.125-.449 2.77-1.144 2.77-1.144.457-.078.28.16.28.16 0 .11-1.394.426-1.374.559 0 .156 1.93-.375 1.93-.375.445-.157.37.058.257.136-.308.184-1.898.852-2.886.852-.582 0-.918-.086-.977-.188m-2.457-.718c0-.266 1.176-.477 2.149-.637.73-.133 1.32-.262 1.32-.262.36-.031.2.153.2.153a4.3 4.3 0 0 1-.794.218c-.555.102-1.195.207-1.195.29 0 .16 2.539-.321 2.539-.321.512-.102.586.031.45.11-.337.132-2.411.667-3.388.636-.64-.027-1.28-.027-1.28-.187m-2.63-.614c0-.289 1.52-.5 2.496-.687a19 19 0 0 0 1.196-.211c.703-.082.308.133.308.133q-.376.147-.781.183c-.566.133-1.207.242-1.207.32 0 .16 2.96-.32 2.96-.32.485-.078.485.11.337.188-.336.11-2.73.691-3.742.668-.618-.031-1.532-.11-1.567-.274m-3.039-.765c0-.188 1.73-.344 2.742-.532.692-.105 2-.37 2-.37.73-.083.285.132.285.132 0 .024-.73.293-1.113.375-.566.106-1.43.184-1.406.317 0 .105 2.098-.32 3.418-.559 1.023-.164.41.16.41.16-.184.235-1.644.504-1.777.555-.344.16-1.707.347-2.715.293-.617-.024-1.817-.207-1.844-.375m-2.383-1.14c0-.266 2.27 0 3.25 0 1.059 0 2.012-.083 2.407-.134 1.062-.16.714.055.714.055 0 .078-1.703.207-2.082.262-.597.054-1.77 0-1.77.133 0 .109 1.4.054 2.72-.079 1.058-.054 1.64-.238 1.64-.183 0 .183-1.988.418-2.281.45-.648.077-1.855.316-2.855.206-.641-.074-1.743-.527-1.743-.71m-1.36-1.009c0-.27 2.153-.054 3.24.024 1.37.105 2.605.105 3.097.054 1.062-.164.726.079.726.079 0 .082-1.28.132-1.64.183-.567.055-2.918-.156-2.918-.05 0 .136 1.883.316 3.215.265 1.043-.082 1.988-.105 1.988-.027 0 .16-1.68.265-1.953.293-.64.082-3.024.027-4.024-.106-.617-.082-1.703-.531-1.73-.715m-.922-1.332c0-.289 2.035.11 3.074.27.864.133 1.567.266 2.035.238 1.04 0 .977.188.977.188-.125.18-.617.101-.977.101-.53.031-2.52-.289-2.52-.156 0 .105 1.52.344 2.806.375.976 0 1.617.047 1.617.102 0 .183-1.348.16-1.594.183a25 25 0 0 1-3.828-.394c-.555-.133-1.59-.72-1.59-.907m0-.957c0-.293 2.691.293 3.691.43.922.105.79.293.415.316-1 .082-2.649-.476-2.672-.343 0 .132 1.445.504 2.703.53 1.172.134.64.263.37.294-.62.023-2.042-.242-2.987-.426-.598-.133-1.543-.613-1.52-.797m.309-.926c0-.289 3.89.72 3.89 1.114 0 .187-1.347-.051-2.3-.262-.579-.133-1.59-.668-1.59-.852"/></svg>