<svg xmlns="http://www.w3.org/2000/svg" viewBox="0 0 100 100"><path fill="#1A1E3B" d="M100 50c0 27.613-22.387 50-50 50S0 77.613 0 50 22.387 0 50 0s50 22.387 50 50m0 0"/><path fill="#FFF" d="m21.293 22.918-3.848 8.004 11.82 8.586Zm57.414 0-7.977 16.59 11.825-8.582Zm-62.039 9.309 5.45 11.343 25.234 18.332 1.941-5.972Zm66.664 0L50.707 55.934l1.941 5.968L77.883 43.57ZM23.5 46.44l5.45 11.348 7.741 5.625h10.16Zm53 0L53.148 63.414h10.16l7.743-5.625ZM50 64.191a3.542 3.542 0 1 0 0 7.082 3.542 3.542 0 1 0 0-7.082m-8.898 2.422-6.372 4.625 7.754 5.64 2.434-7.491Zm17.796 0-3.816 2.774 2.434 7.492 7.75-5.637ZM50 73.082l-6.367 4.625L50 82.34l6.367-4.625Zm0 0"/></svg>