<svg xmlns="http://www.w3.org/2000/svg" viewBox="0 0 100 100"><path fill="#00562A" d="M100 50c0 27.613-22.387 50-50 50S0 77.613 0 50 22.387 0 50 0s50 22.387 50 50m0 0"/><path fill="#FFF" d="M90.832 50c0 22.55-18.281 40.832-40.832 40.832C27.45 90.832 9.168 72.551 9.168 50 9.168 27.45 27.449 9.168 50 9.168c22.55 0 40.832 18.281 40.832 40.832m0 0"/><path fill="#00562A" d="M75 50c0 13.809-11.191 25-25 25S25 63.809 25 50s11.191-25 25-25 25 11.191 25 25m0 0"/><path fill="#FFF" d="M46.625 28.371c1.082.73 2 .676 2.168 2.004-.961-2.023-7.371-1.3-7.84 1.023 1.086-1.046 3.738-1.191 4.238.047-2.625-.234-5.757.332-6.332 3.614.332-1.875 2.77-2.192 4.368-2.266-2.688 1.707-4.653 3.367-4.48 6.895.69-2.598 1.304-2.59 4.323-4.579-1.898 2.325-3.136 3.79-1.77 6.91-.75-2.554 2.75-4.624 3.227-5.117-1.207 2.575-2.539 3.035-1.3 6.157-.016-.946 2.664-4.875 3.25-5.27-.149.988-.649 1.48-.551 3.363.43-2.082 2.25-3.3 2.582-3.441.054 3.625.094 9.398.14 13.09a29.34 29.34 0 0 0-15.464-4.211q-3.27.011-6.575.742c7.868.23 14.582.746 20.852 5.613-1.895 1.207-6.129 4.946-7.895 6.438-.359-.649-.39-1.465-.894-2.09-2.988-5.656-6.996 3.625-.676 2 1.688.785-1.043 2.25-1.766 2.539-5.214-3.832-7.332 2.14-1.773 2.559 2.063.21 3.809-.965 5.352-2.157 5.105 7.883 8.875-2.21 2.07.04-2.582-1.133 5.293-6.2 6.809-7.07-.168 5.218-.7 11.023-2.618 15.901h7.856c-1.918-4.878-2.442-10.683-2.614-15.902 1.52.871 9.391 5.938 6.81 7.07-6.806-2.25-3.036 7.844 2.07-.039 1.542 1.192 3.288 2.368 5.351 2.157 5.559-.414 3.441-6.391-1.773-2.559-.72-.289-3.458-1.754-1.77-2.539 6.32 1.625 2.316-7.656-.672-2-.5.625-.535 1.441-.894 2.09-1.766-1.492-6-5.23-7.895-6.438 6.273-4.867 12.984-5.382 20.852-5.613a30.5 30.5 0 0 0-6.575-.742 29.34 29.34 0 0 0-15.464 4.21c.046-3.69.082-9.468.144-13.085.328.137 2.149 1.355 2.574 3.437.102-1.882-.398-2.375-.543-3.363.582.395 3.262 4.324 3.25 5.27 1.235-3.121-.101-3.582-1.312-6.157.484.496 3.984 2.563 3.23 5.118 1.371-3.125.133-4.586-1.77-6.91 3.024 1.988 3.638 1.98 4.333 4.578.168-3.528-1.797-5.192-4.485-6.895 1.547.074 3.887.375 4.332 2.09-.652-3.125-3.722-3.668-6.296-3.438.5-1.238 3.152-1.093 4.238-.043-.469-2.328-6.883-3.05-7.84-1.027.168-1.332 1.086-1.273 2.168-2.004-1.996.625-3.312.684-3.375 1.406-.062-.722-1.379-.777-3.375-1.406"/></svg>